<svg width="102" height="114" viewBox="0 0 102 114" fill="none" xmlns="http://www.w3.org/2000/svg">
<path d="M101.085 88.4932C101.02 88.3936 100.954 88.2939 100.872 88.2109C99.8398 87.1644 98.152 87.1644 97.1197 88.2109C96.5134 88.8255 96.2676 89.6726 96.3905 90.4616C96.4315 90.7938 96.538 91.1094 96.7018 91.4001C95.6203 92.9947 94.9157 95.0211 94.2275 97.006C93.1952 99.9959 92.2202 102.82 90.1555 104.032C88.14 105.22 85.2643 104.672 82.2246 104.099C79.6192 103.609 76.9155 103.094 74.6132 103.717C72.4093 104.315 70.3856 106.084 68.4274 107.794C66.1334 109.796 63.7656 111.864 61.2994 111.864C58.8333 111.864 56.4655 109.796 54.1714 107.794C52.2133 106.084 50.1896 104.315 47.9857 103.717C45.6752 103.094 42.9797 103.6 40.3743 104.099C37.3346 104.672 34.4589 105.22 32.4434 104.032C30.3787 102.82 29.4037 99.9959 28.3714 97.006C27.5029 94.4896 26.6017 91.8901 24.9467 90.2124C23.2917 88.5348 20.7272 87.6212 18.2447 86.7409C15.2952 85.6944 12.5095 84.7061 11.3133 82.6132C10.1172 80.512 10.6415 77.5304 11.2068 74.3745C11.6657 71.8165 12.1327 69.1754 11.6329 66.8915C10.8136 63.1459 6.98739 58.8189 4.93093 56.4851C4.89815 56.4436 4.86538 56.4104 4.83261 56.3772C4.849 56.3605 4.87357 56.3439 4.88996 56.3273C5.47167 55.7377 5.73385 54.9321 5.63553 54.1763C5.60276 53.6697 5.43071 53.1963 5.11117 52.8142C5.04563 52.7146 4.98009 52.6149 4.89815 52.5319C4.58682 52.2163 4.20993 52.0086 3.81667 51.8841C4.39838 49.9074 6.02061 47.9972 7.60188 46.1286C9.28965 44.1436 11.0348 42.0923 11.6165 39.8582C12.231 37.5161 11.7312 34.7837 11.2396 32.1427C10.6743 29.0614 10.1335 26.1463 11.3052 24.095C12.5014 22.002 15.287 21.0137 18.2365 19.9673C20.719 19.0869 23.2835 18.1734 24.9385 16.4957C26.5935 14.8181 27.4947 12.2186 28.3632 9.70209C29.3955 6.71223 30.3705 3.88847 32.4352 2.67591C34 1.76235 36.0729 1.91184 37.8918 2.1776C38.3178 2.24404 38.7193 1.93675 38.7848 1.50488C38.8504 1.06471 38.5472 0.666062 38.1212 0.599621C36.0319 0.29233 33.6313 0.134532 31.6486 1.29726C29.076 2.80049 27.9617 6.03951 26.8802 9.17056C26.0691 11.5126 25.2334 13.946 23.8324 15.3662C22.4314 16.7864 20.039 17.6335 17.7204 18.4557C14.6316 19.552 11.4362 20.6898 9.9451 23.2893C8.48673 25.8473 9.10121 29.1943 9.69931 32.425C10.1581 34.8917 10.6251 37.4497 10.1008 39.4429C9.60919 41.3199 8.0525 43.147 6.40568 45.0821C4.59501 47.2165 2.73518 49.4091 2.17805 51.8841C1.80116 52.0086 1.44067 52.2163 1.13752 52.5236C0.531232 53.1381 0.28544 53.9853 0.408336 54.7743C0.465688 55.2726 0.662322 55.7377 1.00643 56.128C1.0392 56.2027 1.09656 56.2609 1.15391 56.319C1.74381 56.917 2.55493 57.1578 3.33327 57.0665C3.46436 57.216 3.60364 57.3738 3.75112 57.5399C5.70927 59.7574 9.3552 63.885 10.0926 67.2237C10.5268 69.192 10.0844 71.6753 9.65834 74.0838C9.06844 77.3892 8.46215 80.8027 9.9533 83.4105C11.4362 86.0183 14.6316 87.1478 17.7285 88.2441C20.039 89.0663 22.4314 89.9134 23.8324 91.3336C25.2334 92.7538 26.0691 95.1789 26.8802 97.5293C27.9617 100.66 29.0842 103.899 31.6486 105.403C34.1721 106.881 37.4739 106.258 40.661 105.652C43.0944 105.187 45.6179 104.713 47.5842 105.245C49.4358 105.743 51.2383 107.321 53.1473 108.99C55.6544 111.183 58.2516 113.45 61.2994 113.45C64.3473 113.45 66.9445 111.183 69.4516 108.99C71.3606 107.321 73.1631 105.751 75.0147 105.245C76.981 104.713 79.4963 105.187 81.9297 105.652C85.1168 106.258 88.4186 106.881 90.9421 105.403C93.5065 103.899 94.629 100.66 95.7105 97.5293C96.3331 95.7354 96.964 93.8999 97.8571 92.4963C98.8402 92.9697 100.053 92.8036 100.856 91.9897C101.437 91.4001 101.7 90.5945 101.601 89.8387C101.569 89.3321 101.396 88.8587 101.077 88.4766L101.085 88.4932Z" fill="white" stroke="white" stroke-width="0.75" stroke-miterlimit="10"/>
</svg>
