<svg width="4345" height="2042" viewBox="0 0 4345 2042" fill="none" xmlns="http://www.w3.org/2000/svg">
<g style="mix-blend-mode:multiply">
<path d="M4344.68 545.38C4344.05 544.648 4343.41 543.916 4342.74 543.184C4326.81 525.783 4298.11 507.317 4312.46 480.55C4327.32 452.801 4338.49 432.538 4342.36 400.947C4344.99 379.803 4347.97 340.741 4318.83 334.27C4283.34 326.368 4247.68 319.381 4212.25 311.046C4075.6 278.756 3940.66 251.357 3800.32 236.002C3699.03 224.922 3599.49 203.861 3497.71 196.824C3398.97 190.003 3305.58 167.961 3209.17 149.545C3079.82 126.454 2948.92 109.12 2817.87 96.3932C2753.89 90.1714 2676.72 78.9089 2613.71 93.1991C2587.38 99.1714 2552.04 108.221 2529.35 121.696C2515.73 129.765 2507.25 140.179 2491.48 145.619C2474.54 151.425 2456.27 151.275 2439.01 155.501C2430.17 157.68 2405.74 164.351 2404.74 174.848C2403.96 182.767 2420.74 191.002 2424.67 198.488C2428.56 205.924 2443.62 212.013 2437.03 219.981C2427.48 231.56 2412.94 246.249 2397.85 251.457C2365.39 262.652 2328.63 246.466 2297.31 240.244C2268.3 234.505 2238.7 232.458 2213.82 216.405C2206.99 211.98 2193.76 203.362 2195.81 194.761C2199.03 181.203 2189.47 178.924 2182.07 168.56C2173.72 156.865 2172 155.234 2183.17 142.708C2194.92 129.549 2211.01 129.066 2190.76 116.29C2170.61 103.58 2165.49 85.347 2140.58 78.0272C2113.39 70.0253 2091.26 53.7221 2065.16 43.2914C1979.58 9.13786 1893.67 8.33934 1801.95 1.71825C1753.93 -1.74202 1708.95 1.66834 1661.09 4.21364C1640.73 5.29497 1622.14 3.79774 1605.33 14.844C1578.79 32.2784 1595.23 37.6851 1614.39 48.5151C1595.42 66.2157 1557.12 68.0789 1531.87 72.687C1500.49 78.4264 1468 83.9828 1437.32 92.1677C1410.07 99.4376 1381.17 100.253 1353.55 106.841C1320.42 114.726 1288.76 125.406 1256.69 136.269C1195.98 156.815 1132.05 174.798 1074.38 201.782C1014.29 229.896 956.164 260.423 897.681 291.2C835.197 324.106 770.831 353.584 709.18 387.904C649.068 421.359 590.422 456.111 529.169 487.953C410.863 549.489 307.237 632.685 186.614 690.744C127.389 719.258 72.6165 751.615 18.1697 787.216C12.3232 791.042 6.36805 794.785 0.449132 798.478L0.250025 1359.94C42.6961 1372.98 85.5946 1384.5 129.362 1393.96C200.552 1409.35 272.158 1422.96 343.493 1437.78C414.484 1452.59 483.628 1473.2 554.239 1489.18C624.958 1505.19 696.582 1515.19 767.139 1532.82C839.161 1550.84 911.021 1570.82 981.306 1593.97C1115.67 1638.24 1254.99 1668 1393.77 1697.97C1537.1 1728.91 1679.56 1756.37 1825.79 1773.53C1969 1790.33 2109.72 1837.26 2253.75 1800.33C2269.8 1796.2 2273.29 1797.56 2279.56 1785.87C2288.79 1768.68 2280.43 1755.94 2268.01 1742.95C2257.73 1732.09 2251.79 1718.84 2245.29 1705.83C2236.64 1688.55 2238.43 1680.61 2244.06 1662.26C2253.76 1630.62 2266.25 1602.06 2282.98 1572.91C2291.05 1558.91 2303.21 1548.67 2293.01 1533.37C2282.58 1517.8 2272.72 1512.18 2277.46 1493.49C2284.9 1464.13 2319.36 1438.01 2343.2 1419.08C2356.56 1408.48 2372.87 1403.89 2386.06 1394.63C2401.97 1383.45 2395.22 1367.76 2382.33 1353.82C2360.88 1330.64 2314.78 1327.08 2285.48 1315.36C2274.09 1310.8 2263.18 1295.56 2255.05 1287.11C2245 1276.68 2257.22 1259.09 2248.28 1245.8C2240.22 1233.74 2236.73 1216.76 2230.54 1203.46C2226.49 1194.8 2244.55 1175.4 2249.96 1168.71C2258.49 1158.18 2272.55 1147.5 2275.81 1134.31C2278.65 1122.75 2278.09 1101.04 2274.91 1089.76C2272.68 1082.02 2264.23 1077.35 2261.33 1070.33C2258.47 1063.44 2259.74 1060.24 2258.33 1052.94C2255.05 1035.82 2248.93 1027.07 2256.61 1010.44C2263.9 994.649 2248.37 990.191 2249.58 976.965C2251.07 961.078 2270.49 958.25 2264.3 937.821C2258.87 919.921 2264.99 921.185 2269.37 903.734C2272.9 889.477 2260.53 882.157 2263.94 870.013C2265.53 864.423 2274.58 860.564 2275.85 854.192C2277.44 846.257 2270.76 841.748 2269.91 834.861C2268.01 819.39 2276.73 818.724 2284.7 804.185C2292.66 789.695 2272.9 784.654 2275.23 773.491C2277.31 763.393 2301.66 746.674 2308.72 737.624C2330.33 709.942 2367.83 721.438 2398.03 730.72C2431.08 740.852 2464.91 746.857 2498.99 753.196C2534.05 759.717 2560.01 778.083 2594.93 786.151C2607.43 789.046 2624.9 789.545 2634.87 797.73C2650.46 810.506 2665.48 811.771 2682.66 820.421C2698.5 828.39 2692.31 839.752 2705.19 849.867C2712.43 855.556 2744.62 865.671 2738.66 874.804C2731.06 886.532 2716.78 897.479 2722.61 911.486C2727.44 923.081 2744.69 937.289 2753.41 947.17C2772.18 968.364 2795.68 984.218 2817.74 1002.17C2829.06 1011.37 2806.78 1029.33 2799.81 1036.02C2785.94 1049.31 2777.83 1063.31 2771.04 1080.47C2763.22 1100.22 2702.59 1131.66 2722.73 1154.22C2733.23 1165.95 2740.16 1179.82 2749.31 1192.53C2758.7 1205.56 2749.65 1221 2761.98 1233.61C2785.27 1257.4 2813.58 1273.2 2844.97 1286.33C2860.1 1292.66 2869.78 1300.67 2878.36 1313.86C2887.59 1327.93 2875.63 1344.85 2874.29 1359.87C2872.63 1378.39 2884.75 1387.27 2897.19 1400.53C2908.18 1412.19 2912.56 1423.87 2921.26 1436.38C2939.07 1461.94 2965.93 1481.27 2986.08 1504.86C3007.64 1530.04 2996.45 1559.6 3017.56 1582.91C3062.97 1633.15 3127.19 1652.67 3187.4 1682.39C3219.74 1698.38 3246.22 1706.48 3272.54 1730.54C3286.86 1743.6 3289.16 1744.21 3278.3 1759.65C3268.81 1773.19 3259.91 1787.33 3252.5 1801.94C3243.76 1819.26 3263.22 1867.05 3279.8 1877.13C3307.37 1893.9 3335.68 1910.29 3360.53 1930.45C3414.7 1974.44 3465.57 2006.93 3535.71 2027.01C3571.02 2037.09 3607.42 2044.31 3644.27 2039.45C3673.94 2035.56 3690.78 1985.88 3699.7 1964.97C3713.71 1932.18 3732.28 1901.07 3745.1 1867.9C3757.84 1834.86 3765.17 1807.63 3790.91 1780.35C3811.45 1758.55 3835.04 1739.39 3855.13 1717.03C3877.9 1691.69 3876.63 1660.09 3905.07 1637.54C3929.69 1618.05 3954.57 1604.22 3974.94 1580.48C3994.81 1557.36 4008.68 1530.23 4027.25 1506.25C4067.03 1454.9 4098.91 1396.06 4104.41 1332.37C4109.21 1276.81 4117.72 1204.61 4078.94 1157.56C4057.06 1130.95 4037.73 1119.29 4047.58 1082.95C4051.21 1069.56 4060.7 1057.72 4062.4 1043.89C4064.21 1029.4 4056.72 1015.01 4059.52 1000.46C4064.77 973.222 4039.85 941.381 4079.03 931C4092.36 927.423 4111.24 932.764 4125.28 933.03C4142.57 933.396 4160.29 932.581 4177.39 930.252C4229.29 923.148 4310.43 902.32 4307.63 841.233C4306.47 816.179 4290.47 789.894 4293.94 764.724C4298.27 733.382 4295.77 705.683 4289.94 674.824C4287.61 662.447 4280.51 652.914 4296.84 649.554C4313.38 646.143 4327.85 638.125 4337.93 625.648C4340.34 622.67 4342.6 619.792 4344.64 616.981V545.43L4344.68 545.38Z" fill="#E7E7E7"/>
<path d="M4344.68 545.38C4344.05 544.648 4343.41 543.916 4342.74 543.184C4326.81 525.783 4298.11 507.317 4312.46 480.55C4327.32 452.801 4338.49 432.538 4342.36 400.947C4344.99 379.803 4347.97 340.741 4318.83 334.27C4283.34 326.368 4247.68 319.381 4212.25 311.046C4075.6 278.756 3940.66 251.357 3800.32 236.002C3699.03 224.922 3599.49 203.861 3497.71 196.824C3398.97 190.003 3305.58 167.961 3209.17 149.545C3079.82 126.454 2948.92 109.12 2817.87 96.3932C2753.89 90.1714 2676.72 78.9089 2613.71 93.1991C2587.38 99.1714 2552.04 108.221 2529.35 121.696C2515.73 129.765 2507.25 140.179 2491.48 145.619C2474.54 151.425 2456.27 151.275 2439.01 155.501C2430.17 157.68 2405.74 164.351 2404.74 174.848C2403.96 182.767 2420.74 191.002 2424.67 198.488C2428.56 205.924 2443.62 212.013 2437.03 219.981C2427.48 231.56 2412.94 246.249 2397.85 251.457C2365.39 262.652 2328.63 246.466 2297.31 240.244C2268.3 234.505 2238.7 232.458 2213.82 216.405C2206.99 211.98 2193.76 203.362 2195.81 194.761C2199.03 181.203 2189.47 178.924 2182.07 168.56C2173.72 156.865 2172 155.234 2183.17 142.708C2194.92 129.549 2211.01 129.066 2190.76 116.29C2170.61 103.58 2165.49 85.347 2140.58 78.0272C2113.39 70.0253 2091.26 53.7221 2065.16 43.2914C1979.58 9.13786 1893.67 8.33934 1801.95 1.71825C1753.93 -1.74202 1708.95 1.66834 1661.09 4.21364C1640.73 5.29497 1622.14 3.79774 1605.33 14.844C1578.79 32.2784 1595.23 37.6851 1614.39 48.5151C1595.42 66.2157 1557.12 68.0789 1531.87 72.687C1500.49 78.4264 1468 83.9828 1437.32 92.1677C1410.07 99.4376 1381.17 100.253 1353.55 106.841C1320.42 114.726 1288.76 125.406 1256.69 136.269C1195.98 156.815 1132.05 174.798 1074.38 201.782C1014.29 229.896 956.164 260.423 897.681 291.2C835.197 324.106 770.831 353.584 709.18 387.904C649.068 421.359 590.422 456.111 529.169 487.953C410.863 549.489 307.237 632.685 186.614 690.744C127.389 719.258 72.6165 751.615 18.1697 787.216C12.3232 791.042 6.36805 794.785 0.449132 798.478L0.250025 1359.94C42.6961 1372.98 85.5946 1384.5 129.362 1393.96C200.552 1409.35 272.158 1422.96 343.493 1437.78C414.484 1452.59 483.628 1473.2 554.239 1489.18C624.958 1505.19 696.582 1515.19 767.139 1532.82C839.161 1550.84 911.021 1570.82 981.306 1593.97C1115.67 1638.24 1254.99 1668 1393.77 1697.97C1537.1 1728.91 1679.56 1756.37 1825.79 1773.53C1969 1790.33 2109.72 1837.26 2253.75 1800.33C2269.8 1796.2 2273.29 1797.56 2279.56 1785.87C2288.79 1768.68 2280.43 1755.94 2268.01 1742.95C2257.73 1732.09 2251.79 1718.84 2245.29 1705.83C2236.64 1688.55 2238.43 1680.61 2244.06 1662.26C2253.76 1630.62 2266.25 1602.06 2282.98 1572.91C2291.05 1558.91 2303.21 1548.67 2293.01 1533.37C2282.58 1517.8 2272.72 1512.18 2277.46 1493.49C2284.9 1464.13 2319.36 1438.01 2343.2 1419.08C2356.56 1408.48 2372.87 1403.89 2386.06 1394.63C2401.97 1383.45 2395.22 1367.76 2382.33 1353.82C2360.88 1330.64 2314.78 1327.08 2285.48 1315.36C2274.09 1310.8 2263.18 1295.56 2255.05 1287.11C2245 1276.68 2257.22 1259.09 2248.28 1245.8C2240.22 1233.74 2236.73 1216.76 2230.54 1203.46C2226.49 1194.8 2244.55 1175.4 2249.96 1168.71C2258.49 1158.18 2272.55 1147.5 2275.81 1134.31C2278.65 1122.75 2278.09 1101.04 2274.91 1089.76C2272.68 1082.02 2264.23 1077.35 2261.33 1070.33C2258.47 1063.44 2259.74 1060.24 2258.33 1052.94C2255.05 1035.82 2248.93 1027.07 2256.61 1010.44C2263.9 994.649 2248.37 990.191 2249.58 976.965C2251.07 961.078 2270.49 958.25 2264.3 937.821C2258.87 919.921 2264.99 921.185 2269.37 903.734C2272.9 889.477 2260.53 882.157 2263.94 870.013C2265.53 864.423 2274.58 860.564 2275.85 854.192C2277.44 846.257 2270.76 841.748 2269.91 834.861C2268.01 819.39 2276.73 818.724 2284.7 804.185C2292.66 789.695 2272.9 784.654 2275.23 773.491C2277.31 763.393 2301.66 746.674 2308.72 737.624C2330.33 709.942 2367.83 721.438 2398.03 730.72C2431.08 740.852 2464.91 746.857 2498.99 753.196C2534.05 759.717 2560.01 778.083 2594.93 786.151C2607.43 789.046 2624.9 789.545 2634.87 797.73C2650.46 810.506 2665.48 811.771 2682.66 820.421C2698.5 828.39 2692.31 839.752 2705.19 849.867C2712.43 855.556 2744.62 865.671 2738.66 874.804C2731.06 886.532 2716.78 897.479 2722.61 911.486C2727.44 923.081 2744.69 937.289 2753.41 947.17C2772.18 968.364 2795.68 984.218 2817.74 1002.17C2829.06 1011.37 2806.78 1029.33 2799.81 1036.02C2785.94 1049.31 2777.83 1063.31 2771.04 1080.47C2763.22 1100.22 2702.59 1131.66 2722.73 1154.22C2733.23 1165.95 2740.16 1179.82 2749.31 1192.53C2758.7 1205.56 2749.65 1221 2761.98 1233.61C2785.27 1257.4 2813.58 1273.2 2844.97 1286.33C2860.1 1292.66 2869.78 1300.67 2878.36 1313.86C2887.59 1327.93 2875.63 1344.85 2874.29 1359.87C2872.63 1378.39 2884.75 1387.27 2897.19 1400.53C2908.18 1412.19 2912.56 1423.87 2921.26 1436.38C2939.07 1461.94 2965.93 1481.27 2986.08 1504.86C3007.64 1530.04 2996.45 1559.6 3017.56 1582.91C3062.97 1633.15 3127.19 1652.67 3187.4 1682.39C3219.74 1698.38 3246.22 1706.48 3272.54 1730.54C3286.86 1743.6 3289.16 1744.21 3278.3 1759.65C3268.81 1773.19 3259.91 1787.33 3252.5 1801.94C3243.76 1819.26 3263.22 1867.05 3279.8 1877.13C3307.37 1893.9 3335.68 1910.29 3360.53 1930.45C3414.7 1974.44 3465.57 2006.93 3535.71 2027.01C3571.02 2037.09 3607.42 2044.31 3644.27 2039.45C3673.94 2035.56 3690.78 1985.88 3699.7 1964.97C3713.71 1932.18 3732.28 1901.07 3745.1 1867.9C3757.84 1834.86 3765.17 1807.63 3790.91 1780.35C3811.45 1758.55 3835.04 1739.39 3855.13 1717.03C3877.9 1691.69 3876.63 1660.09 3905.07 1637.54C3929.69 1618.05 3954.57 1604.22 3974.94 1580.48C3994.81 1557.36 4008.68 1530.23 4027.25 1506.25C4067.03 1454.9 4098.91 1396.06 4104.41 1332.37C4109.21 1276.81 4117.72 1204.61 4078.94 1157.56C4057.06 1130.95 4037.73 1119.29 4047.58 1082.95C4051.21 1069.56 4060.7 1057.72 4062.4 1043.89C4064.21 1029.4 4056.72 1015.01 4059.52 1000.46C4064.77 973.222 4039.85 941.381 4079.03 931C4092.36 927.423 4111.24 932.764 4125.28 933.03C4142.57 933.396 4160.29 932.581 4177.39 930.252C4229.29 923.148 4310.43 902.32 4307.63 841.233C4306.47 816.179 4290.47 789.894 4293.94 764.724C4298.27 733.382 4295.77 705.683 4289.94 674.824C4287.61 662.447 4280.51 652.914 4296.84 649.554C4313.38 646.143 4327.85 638.125 4337.93 625.648C4340.34 622.67 4342.6 619.792 4344.64 616.981V545.43L4344.68 545.38Z" stroke="#9C9C9C" stroke-width="0.25" stroke-miterlimit="10"/>
</g>
</svg>
