<svg width="278" height="293" viewBox="0 0 278 293" fill="none" xmlns="http://www.w3.org/2000/svg">
<path d="M264.964 209.253C264.964 211.959 266.728 214.18 269.173 214.846C269.694 215.048 270.235 215.109 270.776 215.109C271.317 215.109 271.859 215.048 272.38 214.846C274.845 214.18 276.589 211.959 276.589 209.253C276.589 206.547 274.825 204.285 272.38 203.618V158.606C274.845 157.94 276.589 155.718 276.589 153.012C276.589 150.307 274.825 148.045 272.38 147.378V135.767C272.38 122.56 261.697 111.817 248.608 111.817H216.739V111.494C216.739 63.0082 182.064 23.5291 139.471 23.5291C117.263 23.5291 97.1996 34.2924 83.1291 51.4371C80.8642 54.143 78.7596 57.0308 76.8354 60.1003C70.8224 69.5308 66.4529 80.3548 64.1479 92.0672C64.0477 92.0268 63.9274 92.0268 63.8272 92.0268C60.6002 92.0268 58.0146 94.6319 58.0146 97.8831C58.0146 100.71 59.9588 103.033 62.5845 103.578C63.0054 103.699 63.4063 103.739 63.8272 103.739C64.5287 103.739 65.1701 103.618 65.7714 103.376C68.0363 102.608 69.6398 100.407 69.6398 97.8629C69.6398 95.8637 68.6777 94.127 67.1745 93.0971C69.3392 81.8289 73.5082 71.3887 79.1805 62.3216C81.225 59.0098 83.4899 55.8797 85.9552 52.9516C99.4044 36.7965 118.426 26.7197 139.451 26.7197C180.3 26.7197 213.532 64.7449 213.532 111.453V111.776H45.4874V111.453C45.4874 52.1842 87.6389 3.96115 139.471 3.96115C178.897 3.96115 212.77 31.8692 226.641 71.3483C225.197 72.4185 224.235 74.1552 224.235 76.114C224.235 79.2643 226.721 81.8491 229.827 81.9501C229.888 81.9905 229.988 81.9905 230.048 81.9905C231.11 81.9905 232.052 81.7077 232.914 81.2231V81.1827C234.698 80.2134 235.881 78.3152 235.881 76.1342C235.881 72.883 233.255 70.2376 230.028 70.2376C229.908 70.2376 229.767 70.2376 229.647 70.278C215.296 29.5469 180.28 0.75032 139.471 0.75032C85.875 0.75032 42.2804 50.4274 42.2804 111.453V111.776H24.5219C11.4135 111.776 0.75032 122.54 0.75032 135.726V234.98C0.75032 266.563 26.2456 292.25 57.6338 292.25H215.536C227.783 292.25 239.148 288.312 248.448 281.628C251.515 279.447 254.321 276.983 256.886 274.216C263.982 266.644 269.032 257.153 271.197 246.591C274.224 246.389 276.589 243.845 276.589 240.735C276.589 238.069 274.825 235.808 272.38 235.141C271.859 234.939 271.317 234.879 270.776 234.879C270.235 234.879 269.694 234.939 269.173 235.141C266.707 235.808 264.964 238.069 264.964 240.735C264.964 242.997 266.206 244.955 268.07 245.945C266.066 255.8 261.396 264.685 254.802 271.773C252.236 274.539 249.41 277.023 246.323 279.184C237.604 285.404 226.961 289.039 215.516 289.039H57.6137C28.0295 289.039 3.91719 264.786 3.91719 234.98V135.726C3.91719 124.297 13.1572 114.987 24.5019 114.987H248.588C259.933 114.987 269.173 124.297 269.173 135.726V147.338C266.707 148.004 264.964 150.266 264.964 152.972C264.964 155.678 266.728 157.899 269.173 158.566V203.578C266.707 204.244 264.964 206.506 264.964 209.212V209.253Z" stroke="#1C3625" stroke-width="0.75" stroke-miterlimit="10"/>
</svg>
