<svg width="129" height="140" viewBox="0 0 129 140" fill="none" xmlns="http://www.w3.org/2000/svg">
<path d="M121.59 95.0189H120.422V94.7051H123.112V95.0189H121.923V97.8306H121.59V95.0189Z" fill="white"/>
<path d="M123.625 97.8306V94.7051H123.938L125.184 96.4681L126.43 94.7051H126.739V97.8306H126.405V95.2872L125.204 96.9842H125.159L123.962 95.2872V97.8306H123.625Z" fill="white"/>
<path d="M7.14678 100.588H3.21875V123.036H7.14678V100.588Z" fill="white"/>
<path d="M11.9922 100.588H15.6323L27.6138 116.108V100.588H31.4802V123.036H28.1897L15.8544 107.066V123.036H11.9922V100.588Z" fill="white"/>
<path d="M36.2812 100.588H40.2134V109.919H50.8828V100.588H54.8109V123.036H50.8828V113.573H40.2134V123.036H36.2812V100.588Z" fill="white"/>
<path d="M67.1198 100.428H70.7641L80.6027 123.037H76.4484L74.1821 117.616H63.6072L61.308 123.037H57.2812L67.1198 100.428ZM72.7425 114.119L68.8762 105.139L65.0427 114.119H72.7425Z" fill="white"/>
<path d="M83.2852 100.588H92.4862C95.0405 100.588 97.0847 101.294 98.331 102.545C99.2564 103.474 99.7664 104.692 99.7664 106.17V106.236C99.7664 109.122 97.9155 110.918 95.6451 111.558C98.5819 112.103 100.98 113.994 100.98 117.041V117.103C100.98 120.823 97.9443 123.036 92.9633 123.036H83.2852V100.588ZM92.7083 111.203C96.0317 111.203 98.6806 109.568 98.6806 106.327V106.265C98.6806 103.445 96.3813 101.583 92.4492 101.583H84.3669V111.203H92.7042H92.7083ZM92.9962 122.041C97.3068 122.041 99.8652 120.179 99.8652 117.136V117.074C99.8652 113.932 97.0847 112.198 93.1238 112.198H84.371V122.041H92.9962Z" fill="white"/>
<path d="M106.48 100.588H105.395V123.036H106.48V100.588Z" fill="white"/>
<path d="M117.67 101.583H109.715V100.588H126.739V101.583H118.755V123.036H117.67V101.583Z" fill="white"/>
<path d="M36.9493 16.6517C37.4058 15.7805 37.3935 14.7483 36.9122 14.0257C36.4968 13.394 35.7811 13.0761 34.9503 13.1463C33.959 13.233 33.124 13.8977 32.3837 14.484C32.104 14.707 31.8407 14.9176 31.594 15.0745C31.3636 15.2231 31.1251 15.3759 30.8824 15.5328C30.1996 16.3255 29.5415 17.143 28.9163 17.9812C30.1009 17.3371 31.2114 16.631 32.1904 16.0034C32.4824 15.8135 32.7703 15.5864 33.0706 15.347C33.7163 14.8309 34.3868 14.3024 35.049 14.2446C35.485 14.2033 35.8058 14.3395 36.0032 14.6368C36.2582 15.0249 36.25 15.6277 35.9827 16.1397C33.704 20.475 28.8135 23.8193 24.3096 25.6278C24.0875 26.0984 23.8736 26.5691 23.668 27.0481C28.6449 25.2727 34.3662 21.5774 36.9534 16.6558" fill="white"/>
<path d="M36.9234 11.0038C37.417 11.6272 38.2232 12.0071 39.1322 12.0484C39.161 12.0484 39.1939 12.0484 39.2268 12.0484C40.3291 12.0484 42.0278 11.2102 42.7476 10.0335C43.1754 9.33571 43.2042 8.6173 42.8299 7.96081C42.6283 7.6016 42.2787 7.36626 42.0361 7.21762C41.7481 7.04421 41.4232 6.89144 41.0859 6.76758C40.9214 6.8708 40.7569 6.96989 40.5924 7.07724C41.053 7.20936 41.4808 7.40342 41.8057 7.59747C42.1307 7.79153 42.3281 7.96907 42.4433 8.17964C42.7353 8.69987 42.7106 9.24488 42.3692 9.8064C41.7152 10.8758 40.1029 11.652 39.1486 11.6107C38.3754 11.5777 37.672 11.2474 37.2648 10.7313L37.0921 10.8675L37.2484 10.7106C37.018 10.4133 36.9152 10.0748 36.9029 9.72382C36.7713 9.83117 36.6396 9.93852 36.5039 10.0459C36.5615 10.3844 36.689 10.7065 36.907 10.9872C36.907 10.9872 36.9152 10.9955 36.9193 10.9996" fill="white"/>
<path d="M35.8786 25.7644C36.2159 25.9502 36.5984 26.0616 37.0138 26.0616C38.3383 26.0616 39.4118 24.984 39.4118 23.6545C39.4118 23.0971 39.2143 22.5893 38.8976 22.1805C40.3084 20.3639 41.5753 18.5554 42.6735 16.9452C43.093 16.33 43.5126 15.6859 43.9198 15.0666C44.8576 13.6339 45.8241 12.1516 46.8894 10.8469C47.6833 9.8725 48.5594 9.21601 49.4889 8.88984C50.5254 8.5265 51.6648 8.62559 52.4627 9.14582C53.2278 9.64541 53.6596 10.2523 53.7872 10.9955C54.1409 13.0393 52.1049 15.7272 51.0108 17.1723C48.4031 20.6116 45.5033 23.8858 42.3815 26.8957C41.8015 27.4572 41.1352 28.0146 40.4318 28.6009C37.6637 30.913 34.5254 33.539 35.2246 37.6926C35.5578 39.662 36.9891 40.8965 38.8606 40.8965C39.0293 40.8965 39.2061 40.8883 39.383 40.8676C41.3203 40.6406 43.2123 39.4267 45.1743 37.1641C49.0571 32.6884 51.8704 27.4655 54.5933 22.4159C56.0453 19.7239 57.5301 16.9823 59.1795 14.3399C59.4016 14.406 59.6319 14.4555 59.8746 14.4555C61.199 14.4555 62.2725 13.3779 62.2725 12.0484C62.2725 11.4786 62.0669 10.9666 61.7419 10.5538C62.2232 9.9014 62.7168 9.2573 63.2309 8.63385C65.4561 5.94185 68.7548 2.73375 73.0037 0.768424C72.3949 0.652817 71.778 0.553725 71.161 0.462891C67.3975 2.51905 64.4443 5.43813 62.3836 7.93195C61.8612 8.56366 61.3635 9.21601 60.8782 9.8725C60.5738 9.72799 60.2324 9.64541 59.8746 9.64541C58.5502 9.64541 57.4766 10.723 57.4766 12.0525C57.4766 12.742 57.7687 13.3572 58.2293 13.7949C56.5717 16.4539 55.0869 19.1995 53.6309 21.8957C50.9368 26.8957 48.1522 32.0608 44.3516 36.4457C42.5748 38.4936 40.909 39.5836 39.2596 39.7776C37.7295 39.9593 36.5737 39.0716 36.3105 37.515C35.7141 33.9849 38.4699 31.681 41.1352 29.4514C41.855 28.8486 42.5336 28.283 43.1424 27.6925C46.3054 24.6413 49.2463 21.3259 51.8869 17.8411C53.0797 16.2639 55.3049 13.3283 54.873 10.8097C54.692 9.76102 54.0833 8.89396 53.0674 8.22509C51.9774 7.51081 50.5049 7.37043 49.1311 7.8535C48.0082 8.24574 46.9676 9.02196 46.0421 10.1533C44.9398 11.5034 43.9568 13.0063 43.0025 14.4638C42.5994 15.079 42.184 15.7189 41.7686 16.3259C40.6868 17.9155 39.4365 19.6991 38.0462 21.491C37.7336 21.3383 37.3881 21.2474 37.0138 21.2474C35.6894 21.2474 34.6159 22.3251 34.6159 23.6545C34.6159 24.1665 34.7804 24.6413 35.0519 25.0336C30.1778 30.2731 25.3531 32.7793 21.3387 33.8982C21.2359 34.3028 21.1413 34.7115 21.0508 35.1203C27.3768 33.5348 32.3783 29.5216 35.8786 25.7602" fill="white"/>
<path d="M38.3411 47.5185C41.6192 44.9173 45.3375 41.9734 48.9529 45.1361C49.9236 45.9867 50.5859 47.1138 51.2892 48.3112C51.4085 48.5135 51.5278 48.7158 51.647 48.914C52.5231 50.3756 53.4733 51.2261 54.8347 51.7546C55.863 52.1551 56.9201 52.1345 57.7345 51.6968C58.4419 51.317 58.9355 50.7142 59.1576 49.9503C59.425 49.0296 59.2646 47.9148 58.734 46.9693C57.9319 45.5449 56.7432 44.8306 55.5956 44.1369C54.9992 43.7777 54.3823 43.4061 53.8352 42.9396C53.0085 42.2335 52.4285 41.4656 52.0378 40.6522C52.9098 40.293 53.5267 39.4342 53.5267 38.4268C53.5267 37.25 52.6877 36.2756 51.5771 36.0651C52.3339 32.1303 55.4188 27.9561 57.607 24.9998L58.0101 24.4589C61.8476 19.2483 66.2198 14.4135 71.0034 10.0865C74.1129 7.2706 77.5351 5.1938 81.1464 3.117C80.7063 2.94359 80.2621 2.77843 79.8137 2.61328C76.4369 4.57035 73.2327 6.58522 70.2713 9.26483C65.4342 13.6414 61.0126 18.5341 57.1298 23.7983L56.7309 24.3392C54.8964 26.8165 52.3833 30.2104 51.1123 33.6786C50.7997 34.5291 50.5817 35.3467 50.4501 36.127C49.4589 36.4243 48.7308 37.3326 48.7308 38.4226C48.7308 39.6695 49.681 40.6852 50.8943 40.805C51.3632 41.9074 52.1036 42.9024 53.1278 43.7736C53.7447 44.298 54.3987 44.6943 55.0321 45.0783C56.1057 45.7265 57.1216 46.3376 57.7797 47.5102C58.1705 48.2038 58.2897 49.0007 58.1046 49.6407C57.9648 50.1196 57.6687 50.483 57.2203 50.7224C56.6897 51.0073 55.9658 51.0073 55.2337 50.7224C54.1026 50.2806 53.3375 49.5911 52.5889 48.3442C52.4697 48.146 52.3545 47.9479 52.2393 47.7455C51.5237 46.5275 50.7833 45.2641 49.681 44.298C45.3745 40.5325 40.92 44.0626 37.6665 46.6431L28.0829 54.2402C26.1991 55.7348 23.9822 56.8537 21.8516 57.7084C21.9585 58.0635 22.0654 58.4144 22.1806 58.7654C24.4182 57.8736 26.7626 56.6927 28.7657 55.1031L38.3493 47.5061L38.3411 47.5185Z" fill="white"/>
<path d="M52.2251 68.2171C52.3814 67.6886 52.4102 67.2056 52.3156 66.7885C52.1428 66.033 51.5176 65.4219 50.7608 65.265C49.4734 64.9966 47.0919 66.4417 45.4179 67.5565C44.55 68.1304 43.5094 69.0388 43.4847 70.0875C43.4724 70.6985 43.8014 71.2518 44.4719 71.7431C45.3233 72.3625 46.2487 72.6763 47.1536 72.6763C47.9804 72.6763 48.7948 72.4161 49.5269 71.8959C50.514 71.194 51.7932 69.6705 52.2251 68.2212M44.7269 71.3839C44.1798 70.9876 43.9084 70.554 43.9207 70.0957C43.9413 69.1915 45.0148 68.3451 45.6564 67.9198C46.5243 67.3459 49.0539 65.6696 50.4071 65.6696C50.5017 65.6696 50.5881 65.6779 50.6703 65.6944C51.2503 65.8141 51.7521 66.3055 51.8878 66.8876C51.966 67.2303 51.9413 67.6391 51.8056 68.0933C51.4189 69.398 50.2179 70.8678 49.276 71.5367C47.8775 72.5276 46.2199 72.4739 44.731 71.3881" fill="white"/>
<path d="M71.0621 47.7242C71.0086 47.7242 70.9592 47.7077 70.9058 47.7077C69.5813 47.7077 68.5078 48.7853 68.5078 50.1148C68.5078 51.1842 69.207 52.076 70.1613 52.3939C70.0626 54.3716 70.4739 55.9901 71.4158 57.2742C72.3042 58.484 73.6986 59.4212 75.677 60.1396C78.1942 61.0562 81.312 61.5558 84.5408 61.5558C89.9125 61.5558 95.5927 60.1685 99.3357 57.0058C101.878 54.8588 103.301 51.8489 103.149 48.9587C103.05 47.1008 102.346 45.4492 101.331 43.9959C101.598 43.6078 101.758 43.1371 101.758 42.6251C101.758 41.2956 100.685 40.218 99.3604 40.218C98.8874 40.218 98.4472 40.3625 98.073 40.602C97.0077 39.7308 95.9053 38.9752 94.8976 38.3311C92.4297 36.7539 91.4179 35.3873 91.7058 34.0289C92.1254 32.0718 95.0005 31.692 96.2138 31.6176C97.2544 31.5557 98.328 31.5351 99.3686 31.5144C101.964 31.4649 104.638 31.4153 107.171 30.7176C107.056 30.3666 106.937 30.0198 106.809 29.673C104.42 30.3171 101.849 30.3666 99.348 30.4162C98.2992 30.4368 97.2133 30.4574 96.148 30.5194C93.0508 30.7052 91.0395 31.8984 90.6282 33.7977C90.1017 36.2543 92.4709 38.0917 94.3012 39.2601C95.2513 39.8671 96.2961 40.5813 97.2997 41.3988C97.0858 41.7581 96.9542 42.1792 96.9542 42.6292C96.9542 43.9587 98.0277 45.0364 99.3521 45.0364C99.7634 45.0364 100.146 44.9207 100.487 44.7391C101.359 46.0149 101.96 47.4393 102.046 49.0207C102.182 51.5682 100.903 54.2395 98.6241 56.1677C92.9316 60.9819 82.4719 61.4402 76.0513 59.1115C74.2826 58.4674 73.0528 57.6582 72.3001 56.6301C71.5186 55.5649 71.1772 54.1941 71.2513 52.4971C72.4112 52.3279 73.2996 51.3328 73.2996 50.1231C73.2996 49.2354 72.8184 48.4715 72.1068 48.0545C74.1798 40.4533 77.5238 32.8439 81.8343 25.957C85.314 20.3914 89.4354 15.2799 93.9393 10.9116C93.6596 10.668 93.3799 10.4326 93.0961 10.1973C88.5593 14.611 84.4092 19.7638 80.9048 25.3707C76.549 32.3402 73.1598 40.0363 71.0579 47.7325" fill="white"/>
<path d="M64.1238 54.5465C63.4986 54.9304 63.1325 55.5663 63.1942 56.165C63.2395 56.6191 63.4986 56.9742 63.7495 57.321C63.9469 57.5935 64.132 57.8495 64.2061 58.1344C64.2554 58.3285 64.2554 58.5349 64.2554 58.7579C64.2554 58.8735 64.2554 58.9932 64.2595 59.1088C64.3212 60.1699 65.1274 61.2269 66.2256 61.6852C66.5711 61.8297 66.9166 61.8999 67.2539 61.8999C67.8009 61.8999 68.3192 61.7059 68.7428 61.3301C70.1536 60.0667 69.4092 57.1724 68.5989 55.9007C67.7063 54.5093 65.6539 53.6092 64.132 54.5423M68.4426 60.9998C67.6899 61.6728 66.8344 61.4623 66.3901 61.2765C65.4565 60.8883 64.7449 59.9635 64.6955 59.0799C64.6914 58.9726 64.6914 58.8652 64.6914 58.7579C64.6914 58.5184 64.6914 58.2707 64.6297 58.0229C64.5351 57.6555 64.3171 57.3499 64.1032 57.0609C63.877 56.7471 63.6631 56.454 63.6302 56.1195C63.5768 55.5952 63.9881 55.1451 64.3541 54.9181C64.7161 54.6951 65.1192 54.596 65.5223 54.596C66.5711 54.596 67.657 55.2566 68.2205 56.1361C69.0431 57.416 69.549 60.0089 68.4426 60.9957" fill="white"/>
<path d="M64.5279 72.6725L64.6677 72.4702C67.3042 68.7088 68.205 66.5081 67.5798 65.3355C67.3824 64.9681 66.9464 64.5387 65.9592 64.5593C64.4991 64.5965 63.187 66.3595 62.315 67.5238C62.2122 67.6601 62.1176 67.7881 62.0353 67.8954C60.4929 69.8979 59.078 72.1605 57.8235 74.6213C55.7011 78.779 54.0928 83.3579 53.0234 88.2505C53.3772 88.3455 53.7309 88.4363 54.0887 88.5272C55.1376 83.713 56.717 79.2125 58.7983 75.125C60.0199 72.7261 61.4019 70.5213 62.9032 68.5725C62.9895 68.4611 63.0883 68.3289 63.1911 68.1886C63.841 67.3174 65.0543 65.6906 65.9798 65.6658C66.2142 65.6617 66.5145 65.6906 66.605 65.8599C66.7407 66.1159 66.9423 67.3091 63.7628 71.8384L63.6188 72.0449C60.0774 77.177 58.2553 83.2629 58.3993 89.3529C58.7654 89.4066 59.1314 89.452 59.5016 89.4975C59.3247 83.5808 61.0811 77.6601 64.5196 72.6725" fill="white"/>
<path d="M79.317 64.3528C78.7864 64.262 78.2599 64.1753 77.7334 64.0845C77.5648 64.0556 77.355 64.0143 77.1123 63.9647C75.5411 63.6509 72.9128 63.1224 71.5843 64.1299C71.1195 64.485 70.8439 65.0011 70.7946 65.6286C70.556 68.5642 74.92 69.6708 77.0136 70.2034L77.355 70.2901C78.4779 70.5832 79.6295 70.7773 80.7442 70.9672C82.6321 71.2893 84.4131 71.5948 86.1118 72.3173C87.0208 72.7013 87.7077 73.2133 88.1848 73.8533C87.6501 74.295 87.3005 74.9557 87.3005 75.7071C87.3005 76.7558 87.9751 77.6394 88.9088 77.9697C88.7648 78.8904 88.481 79.9226 88.0573 81.0787C87.7201 81.9953 87.354 82.9243 86.955 83.8657C87.4897 83.556 88.0162 83.234 88.5386 82.9078C88.7319 82.4206 88.917 81.9417 89.0938 81.4627C89.3571 80.7484 89.8136 79.4974 90.0193 78.0895C91.1957 77.9326 92.1047 76.9334 92.1047 75.7154C92.1047 74.3859 91.0311 73.3083 89.7067 73.3083C89.5298 73.3083 89.353 73.333 89.1885 73.3702C88.6332 72.5568 87.79 71.8384 86.5478 71.3099C84.7298 70.5378 82.8008 70.2075 80.9334 69.8896C79.8393 69.7038 78.7123 69.5097 77.6347 69.229L77.2892 69.1423C75.4876 68.684 71.7323 67.7302 71.8928 65.7277C71.9174 65.4098 72.0326 65.1827 72.2506 65.0176C73.1884 64.3074 75.6974 64.8111 76.9025 65.0506C77.1576 65.1001 77.3797 65.1456 77.5565 65.1745C78.083 65.2612 78.6095 65.352 79.1401 65.4428C85.4743 66.5163 92.0265 67.6311 98.5417 67.0242C100.549 66.8384 102.499 66.4172 104.333 65.7855C104.584 65.3066 104.827 64.8235 105.061 64.3363C103.004 65.1662 100.763 65.7153 98.4389 65.93C92.0676 66.5205 85.5895 65.4222 79.3211 64.357" fill="white"/>
<path d="M79.1085 75.314C77.492 74.2198 75.2709 73.8771 72.5069 74.2859C71.1084 74.4923 70.0267 74.8061 69.1012 75.2727C66.6375 76.5072 64.7948 79.1166 64.0462 82.4321C63.4992 84.8598 63.5526 87.3454 63.7048 89.7855C63.8529 89.7855 63.9968 89.7855 64.1449 89.7897C63.9927 87.3702 63.9351 84.9094 64.474 82.527C65.1938 79.3396 66.9501 76.8375 69.2945 75.6649C70.1789 75.2231 71.2195 74.9217 72.5686 74.7194C75.2216 74.3272 77.3398 74.6492 78.8617 75.6773C80.8895 77.0481 81.9794 79.8681 81.6339 82.8615C81.4735 84.2612 81.0458 85.6072 80.4823 86.9284C80.6715 86.8582 80.8607 86.788 81.0499 86.7137C81.5476 85.4833 81.9219 84.2281 82.0699 82.9152C82.436 79.7607 81.272 76.7797 79.1085 75.314Z" fill="white"/>
<path d="M96.7761 71.8869C95.7396 72.9067 95.9247 74.4963 96.0892 75.896C96.118 76.1437 96.1468 76.3873 96.1715 76.6268C96.1756 76.6887 96.1797 76.7507 96.1838 76.8126C96.3196 76.6764 96.4553 76.5401 96.5869 76.4039C96.5664 76.2181 96.5458 76.0323 96.5252 75.8423C96.3648 74.4798 96.2003 73.0719 97.0805 72.2007C97.5288 71.7589 98.1828 71.5649 98.7052 71.4451C99.462 71.2717 100.26 71.1726 101.054 71.09C101.165 70.9332 101.28 70.7721 101.391 70.6152C100.461 70.7061 99.5114 70.8093 98.6065 71.0199C98.0306 71.152 97.2985 71.3749 96.772 71.891" fill="white"/>
<path d="M78.7162 41.085C78.0581 43.8637 77.8854 46.1015 78.1733 48.1288C78.5435 50.7258 79.7116 52.9265 81.4638 54.322C82.9815 55.5318 85.0299 56.1883 87.2592 56.1883C87.3949 56.1883 87.5306 56.1883 87.6664 56.18C89.2417 56.1263 90.525 55.7424 91.4792 55.0405C94.0047 53.1866 94.0212 49.3096 92.7543 46.6011C91.9193 44.8216 90.6525 43.2857 89.4268 41.7993C88.7728 41.0066 88.0941 40.1849 87.4936 39.3385C86.5106 37.9554 84.3718 34.388 85.7291 31.1758C86.6545 28.9751 89.0443 27.4021 92.8325 26.4978C94.2597 26.1593 95.7322 25.895 97.1554 25.639C99.5286 25.2138 101.98 24.7761 104.296 23.9669C104.226 23.8347 104.16 23.7026 104.086 23.5705C101.82 24.355 99.4052 24.7885 97.0731 25.2055C95.6417 25.4615 94.161 25.7257 92.7255 26.0684C88.7975 27.0057 86.3049 28.6696 85.3219 31.0024C84.306 33.4095 84.9682 36.5433 87.1358 39.5945C87.7445 40.4533 88.4273 41.2791 89.0895 42.0801C90.2988 43.5417 91.5492 45.0569 92.3553 46.7869C93.5481 49.3344 93.5564 52.9719 91.216 54.6813C90.3358 55.3295 89.1348 55.6846 87.6499 55.7341C85.3671 55.8125 83.2653 55.1891 81.7352 53.9711C80.0982 52.6664 78.9548 50.5111 78.6052 48.0586C78.3255 46.0891 78.4941 43.905 79.1399 41.18C80.5877 35.0817 83.6931 28.8926 88.3738 22.7778C90.8952 19.483 93.7332 16.3863 96.6412 13.4466C96.5384 13.3434 96.4397 13.236 96.3327 13.1328C93.4083 16.0891 90.562 19.1981 88.0242 22.5135C83.3065 28.6737 80.1723 34.9207 78.7121 41.0809" fill="white"/>
<path d="M75.3332 10.0783C73.5563 11.9817 71.9152 14.042 70.3275 16.0321C68.4725 18.3566 66.5558 20.7638 64.4169 22.9273L64.2647 23.08C60.3161 27.0685 55.837 31.5895 56.4992 37.692C56.6061 38.6911 56.9475 40.1115 57.9429 41.2304C58.7655 42.1511 59.6251 42.6177 60.5012 42.6177C60.6246 42.6177 60.748 42.6094 60.8714 42.5888C62.8457 42.2956 64.2853 39.7977 64.9681 38.3319C65.5563 37.0768 65.9923 35.7555 66.4118 34.4797C66.7162 33.5549 67.0329 32.597 67.4031 31.6763C70.1054 24.9504 73.2848 17.8323 78.2288 11.3789C81.0011 7.76206 83.3085 5.92473 85.1142 4.9173C84.9579 4.83472 84.7975 4.7604 84.6412 4.67782C82.8314 5.73893 80.5651 7.60517 77.8792 11.1064C72.9023 17.6052 69.7064 24.7522 66.9917 31.507C66.6175 32.4442 66.2966 33.4062 65.9881 34.3393C65.5686 35.6028 65.1367 36.9116 64.565 38.142C64.0468 39.2568 62.6401 41.8745 60.8015 42.147C59.9501 42.2708 59.0987 41.8621 58.2637 40.929C57.3424 39.8968 57.0298 38.5673 56.931 37.6342C56.2935 31.7382 60.6904 27.2956 64.5691 23.3773L64.7213 23.2245C66.8807 21.0445 68.8056 18.6291 70.6648 16.2964C72.2483 14.3104 73.8812 12.2584 75.6499 10.3674C77.9121 7.94786 80.4951 5.80499 83.2879 4.02134C83.1317 3.94702 82.9712 3.87683 82.8108 3.80664C80.0838 5.57791 77.5501 7.68774 75.3291 10.0618" fill="white"/>
<path d="M39.9869 58.2218C41.4059 57.5818 42.8702 56.9212 44.3015 56.2399C44.4866 56.1532 44.6799 56.0665 44.8774 55.9757C46.4979 55.2449 48.719 54.2457 47.699 51.818C46.7529 49.5595 43.3185 50.0178 41.6362 50.5752C39.9169 51.145 38.4115 52.1648 36.9555 53.1557L23.4727 62.3093C23.5302 62.4456 23.5919 62.5818 23.6495 62.7222L37.2023 53.5232C38.6336 52.5529 40.1144 51.5454 41.7761 50.9963C43.5776 50.4018 46.5308 50.1705 47.2959 51.9914C48.1473 54.0227 46.3128 54.8485 44.6964 55.5793C44.4948 55.6702 44.2974 55.761 44.1123 55.8477C42.6892 56.5248 41.2249 57.1854 39.81 57.8254C36.6182 59.2622 33.3236 60.7486 30.2511 62.557C28.466 63.6099 26.8413 64.8031 25.3236 66.1822C25.3976 66.3143 25.4675 66.4464 25.5416 66.5785C27.0593 65.1912 28.6881 63.9897 30.4732 62.9369C33.521 61.1409 36.8115 59.6586 39.991 58.2259" fill="white"/>
<path d="M26.7679 50.8635C29.0589 49.9222 31.9093 48.7496 31.6502 45.814C31.5926 45.1616 31.3253 44.5671 31.0703 43.9932C30.8687 43.5472 30.6795 43.122 30.5808 42.6719C30.3093 41.4539 30.6919 40.046 31.7572 38.3656L31.9052 38.1343C32.2795 37.5522 32.6662 36.9494 32.8183 36.2475C32.9911 35.4465 32.7525 34.4143 31.9587 33.9972C30.1777 33.06 28.2857 35.5497 26.8996 37.3664C26.406 38.0146 25.9782 38.572 25.6492 38.8693C23.9998 40.3474 22.0995 41.5035 20.0676 42.2756C20.0594 42.4366 20.0512 42.5935 20.043 42.7545C22.1941 41.9618 24.2055 40.7561 25.9453 39.1954C26.3073 38.8693 26.7474 38.2954 27.2533 37.6306C28.5407 35.9378 30.3093 33.6215 31.7613 34.3854C32.3577 34.6992 32.5304 35.5125 32.3947 36.1525C32.2631 36.776 31.897 37.3416 31.5433 37.8907L31.3952 38.122C30.2641 39.9056 29.861 41.4209 30.1613 42.7586C30.2723 43.2541 30.478 43.7165 30.6795 44.1624C30.9345 44.7281 31.1731 45.2648 31.2224 45.8429C31.4569 48.4564 28.771 49.5588 26.6116 50.4465C26.2085 50.6117 25.8301 50.7686 25.4846 50.9255C23.8929 51.6563 22.3216 52.4614 20.7916 53.3202C20.8203 53.4729 20.8491 53.6257 20.8779 53.7785C22.4409 52.8949 24.0409 52.0733 25.6656 51.326C26.0029 51.1691 26.3772 51.0163 26.7762 50.8511" fill="white"/>
<path d="M40.6529 74.3975C37.6092 74.4553 35.6678 75.8302 34.1953 77.7171C34.3023 77.8162 34.4051 77.9153 34.512 78.0144C35.9269 76.1853 37.7532 74.8971 40.6611 74.8393C41.6236 74.8186 43.4169 74.9755 44.6385 76.2348C45.9835 77.6221 46.0288 79.7402 45.6216 81.2596C45.3049 82.4446 44.7331 83.6089 44.0956 84.7526C44.2272 84.8187 44.3547 84.8889 44.4864 84.9549C45.1321 83.7947 45.7162 82.6015 46.0452 81.3752C46.4853 79.7361 46.4277 77.4446 44.9553 75.9252C43.6185 74.5503 41.6853 74.381 40.6529 74.3975Z" fill="white"/>
<path d="M50.2576 4.38482C51.8823 5.55741 53.5604 6.76715 55.5635 6.83735C55.6252 6.83735 55.6828 6.83735 55.7445 6.83735C58.1877 6.83735 60.2525 5.12801 62.161 3.37326L65.8217 0.00825766C65.6078 0.00412883 65.3939 0 65.18 0L61.8648 3.05121C59.9769 4.78944 57.9368 6.47401 55.58 6.39556C53.7085 6.3295 52.0879 5.16104 50.5167 4.02561C50.2905 3.86459 50.0684 3.70356 49.8463 3.54667C49.509 3.30719 49.1758 3.09249 48.8509 2.90257C48.674 2.96863 48.4972 3.03469 48.3203 3.10488C48.7316 3.33197 49.1553 3.60034 49.5913 3.91C49.8134 4.0669 50.0355 4.22792 50.2576 4.38482Z" fill="white"/>
<path d="M101.685 38.3813L101.504 38.2533C101.027 37.923 100.538 37.5804 100.205 37.1221C99.8756 36.6679 99.6823 35.9825 99.999 35.4664C100.398 34.814 101.344 34.7562 102.216 34.7851L108.361 35.004C108.328 34.8553 108.295 34.7067 108.258 34.558L102.232 34.3433C101.29 34.3062 100.147 34.3805 99.6247 35.2352C99.2051 35.9247 99.4355 36.8124 99.8509 37.3822C100.225 37.8983 100.752 38.2657 101.258 38.6167L101.439 38.7447C105.157 41.3624 107.855 45.326 109.2 49.7026C109.237 49.3434 109.27 48.9801 109.303 48.6167C107.847 44.5333 105.219 40.8669 101.694 38.3855" fill="white"/>
<path d="M32.8621 68.0805C34.1865 68.0805 35.2601 67.0029 35.2601 65.6734C35.2601 65.3059 35.1737 64.9632 35.0256 64.6536C38.7768 62.3373 42.931 61.0532 47.2868 59.7072C48.5866 59.3067 49.9357 58.8897 51.256 58.4479C54.5547 57.3455 59.3506 55.4752 62.8879 52.0069C66.6473 48.324 68.5147 43.7988 69.8473 39.8641C70.0694 39.2076 70.2916 38.5511 70.5095 37.8905C71.6036 34.6328 72.7348 31.2637 74.0551 28.0391C75.3384 24.9094 77.1276 22.0027 78.8633 19.352C79.1471 19.4718 79.4597 19.5378 79.7888 19.5378C81.1132 19.5378 82.1867 18.4602 82.1867 17.1307C82.1867 16.4618 81.9152 15.859 81.4751 15.4214C83.1985 12.8656 85.0207 10.3181 87.2047 8.14637C87.6448 7.70871 88.0932 7.29583 88.5497 6.90772C88.2248 6.70128 87.8957 6.49897 87.5667 6.30078C87.1842 6.63935 86.8058 6.9903 86.4315 7.36189C84.161 9.61623 82.2937 12.2339 80.5332 14.8516C80.2988 14.7731 80.052 14.7195 79.7888 14.7195C78.4643 14.7195 77.3908 15.7971 77.3908 17.1266C77.3908 17.7253 77.617 18.2703 77.979 18.6914C76.2062 21.3999 74.3677 24.3768 73.0391 27.6179C71.7024 30.8756 70.5671 34.2654 69.4648 37.5395C69.2427 38.196 69.0247 38.8525 68.8026 39.509C67.5111 43.324 65.7054 47.6964 62.1147 51.2183C59.5111 53.7741 56.0519 55.6816 50.9023 57.4033C49.5943 57.841 48.2534 58.2539 46.9578 58.6544C42.676 59.9756 38.275 61.3381 34.3305 63.7906C33.9233 63.4686 33.4133 63.2663 32.8539 63.2663C31.5295 63.2663 30.4559 64.3439 30.4559 65.6734C30.4559 65.983 30.5176 66.2762 30.6246 66.5446C29.514 67.4983 28.4282 68.5223 27.3711 69.6329C27.5768 69.9467 27.7865 70.2564 28.0004 70.566C29.0575 69.4471 30.1433 68.4108 31.2539 67.4529C31.6775 67.8369 32.2369 68.0764 32.8539 68.0764" fill="white"/>
<path d="M54.7693 75.7103C54.7693 74.9795 54.4362 74.3354 53.9261 73.8936C54.3086 73.1628 54.72 72.4444 55.1724 71.7342C55.8881 70.6153 56.867 69.5955 57.9076 68.5179C59.7092 66.6475 61.5724 64.7152 62.0578 62.1099C62.2552 61.0529 61.9961 60.0703 61.3256 59.3436C60.5565 58.5054 59.3225 58.0843 58.0269 58.2206C55.884 58.4435 53.9385 59.3849 52.0547 60.2974C51.5446 60.5451 51.0223 60.7969 50.5122 61.0282C42.5574 64.6161 36.0669 69.1207 31.0859 74.4923C31.3286 74.7689 31.5754 75.0455 31.8222 75.318C36.7127 70.0208 43.1086 65.574 50.9606 62.0356C51.487 61.8003 52.0176 61.5401 52.5318 61.2924C54.3292 60.4212 56.1883 59.5211 58.138 59.3188C59.0922 59.2197 59.9806 59.5087 60.5154 60.0909C60.9472 60.5616 61.1076 61.1892 60.9719 61.9076C60.5483 64.1867 58.8002 65.9993 57.1138 67.7499C56.0855 68.8193 55.0202 69.9217 54.2469 71.1355C53.7781 71.8705 53.3503 72.6219 52.9513 73.3775C52.7621 73.3321 52.5729 73.299 52.3714 73.299C51.0469 73.299 49.9734 74.3767 49.9734 75.7062C49.9734 76.5443 50.4012 77.2792 51.0469 77.7128C49.9199 80.8053 49.2289 83.9308 48.7683 86.854C49.1179 86.9861 49.4675 87.1182 49.8212 87.2421C50.2696 84.3148 50.9564 81.181 52.0793 78.0844C52.1739 78.0968 52.2726 78.1133 52.3714 78.1133C53.6958 78.1133 54.7693 77.0356 54.7693 75.7062" fill="white"/>
<path d="M5.18107 133.198H11.1097V134.223H5.18107V133.198ZM5.30925 138.982H4.12352V127.766H11.8148V128.792H5.30925V138.982ZM20.3075 139.079C19.4636 139.079 18.6785 138.94 17.9521 138.662C17.2364 138.374 16.6115 137.973 16.0773 137.46C15.5539 136.937 15.1427 136.333 14.8435 135.65C14.5551 134.955 14.4109 134.197 14.4109 133.374C14.4109 132.552 14.5551 131.799 14.8435 131.115C15.1427 130.421 15.5539 129.817 16.0773 129.304C16.6115 128.781 17.2364 128.38 17.9521 128.103C18.6678 127.814 19.4529 127.67 20.3075 127.67C21.1514 127.67 21.9312 127.814 22.6469 128.103C23.3627 128.38 23.9822 128.776 24.5057 129.288C25.0398 129.801 25.451 130.405 25.7395 131.099C26.0386 131.793 26.1881 132.552 26.1881 133.374C26.1881 134.197 26.0386 134.955 25.7395 135.65C25.451 136.344 25.0398 136.947 24.5057 137.46C23.9822 137.973 23.3627 138.374 22.6469 138.662C21.9312 138.94 21.1514 139.079 20.3075 139.079ZM20.3075 138.021C20.9805 138.021 21.6001 137.909 22.1662 137.685C22.7431 137.45 23.2398 137.124 23.6564 136.707C24.0837 136.28 24.4149 135.788 24.6499 135.233C24.8849 134.667 25.0024 134.047 25.0024 133.374C25.0024 132.701 24.8849 132.087 24.6499 131.532C24.4149 130.965 24.0837 130.474 23.6564 130.057C23.2398 129.63 22.7431 129.304 22.1662 129.08C21.6001 128.845 20.9805 128.727 20.3075 128.727C19.6345 128.727 19.0096 128.845 18.4328 129.08C17.8559 129.304 17.3539 129.63 16.9266 130.057C16.51 130.474 16.1788 130.965 15.9331 131.532C15.6981 132.087 15.5806 132.701 15.5806 133.374C15.5806 134.037 15.6981 134.651 15.9331 135.217C16.1788 135.783 16.51 136.28 16.9266 136.707C17.3539 137.124 17.8559 137.45 18.4328 137.685C19.0096 137.909 19.6345 138.021 20.3075 138.021ZM34.6463 139.079C33.2149 139.079 32.0879 138.667 31.2654 137.845C30.4429 137.022 30.0316 135.804 30.0316 134.191V127.766H31.2173V134.143C31.2173 135.468 31.5164 136.445 32.1146 137.076C32.7128 137.706 33.5567 138.021 34.6463 138.021C35.7466 138.021 36.5958 137.706 37.194 137.076C37.7923 136.445 38.0914 135.468 38.0914 134.143V127.766H39.245V134.191C39.245 135.804 38.8338 137.022 38.0112 137.845C37.1994 138.667 36.0778 139.079 34.6463 139.079ZM44.1 138.982V127.766H45.0774L52.8167 137.508H52.304V127.766H53.4737V138.982H52.4963L44.773 129.24H45.2857V138.982H44.1ZM58.4165 138.982V127.766H62.9832C64.1796 127.766 65.2265 128.006 66.1238 128.487C67.0318 128.957 67.7368 129.614 68.2389 130.458C68.7409 131.302 68.992 132.274 68.992 133.374C68.992 134.475 68.7409 135.447 68.2389 136.29C67.7368 137.134 67.0318 137.797 66.1238 138.277C65.2265 138.747 64.1796 138.982 62.9832 138.982H58.4165ZM59.6023 137.957H62.9191C63.9126 137.957 64.7725 137.765 65.4989 137.38C66.2359 136.985 66.8074 136.445 67.2134 135.762C67.6193 135.067 67.8223 134.272 67.8223 133.374C67.8223 132.466 67.6193 131.67 67.2134 130.987C66.8074 130.303 66.2359 129.769 65.4989 129.384C64.7725 128.989 63.9126 128.792 62.9191 128.792H59.6023V137.957ZM70.9854 138.982L76.1129 127.766H77.2826L82.4101 138.982H81.1602L76.4494 128.455H76.9301L72.2192 138.982H70.9854ZM73.0043 135.986L73.3568 135.025H79.8784L80.2309 135.986H73.0043ZM87.1632 138.982V128.792H83.2215V127.766H92.2907V128.792H88.349V138.982H87.1632ZM95.4669 138.982V127.766H96.6526V138.982H95.4669ZM106.487 139.079C105.643 139.079 104.858 138.94 104.132 138.662C103.416 138.374 102.791 137.973 102.257 137.46C101.733 136.937 101.322 136.333 101.023 135.65C100.735 134.955 100.59 134.197 100.59 133.374C100.59 132.552 100.735 131.799 101.023 131.115C101.322 130.421 101.733 129.817 102.257 129.304C102.791 128.781 103.416 128.38 104.132 128.103C104.847 127.814 105.633 127.67 106.487 127.67C107.331 127.67 108.111 127.814 108.827 128.103C109.542 128.38 110.162 128.776 110.685 129.288C111.219 129.801 111.631 130.405 111.919 131.099C112.218 131.793 112.368 132.552 112.368 133.374C112.368 134.197 112.218 134.955 111.919 135.65C111.631 136.344 111.219 136.947 110.685 137.46C110.162 137.973 109.542 138.374 108.827 138.662C108.111 138.94 107.331 139.079 106.487 139.079ZM106.487 138.021C107.16 138.021 107.78 137.909 108.346 137.685C108.923 137.45 109.419 137.124 109.836 136.707C110.263 136.28 110.594 135.788 110.829 135.233C111.064 134.667 111.182 134.047 111.182 133.374C111.182 132.701 111.064 132.087 110.829 131.532C110.594 130.965 110.263 130.474 109.836 130.057C109.419 129.63 108.923 129.304 108.346 129.08C107.78 128.845 107.16 128.727 106.487 128.727C105.814 128.727 105.189 128.845 104.612 129.08C104.036 129.304 103.533 129.63 103.106 130.057C102.69 130.474 102.358 130.965 102.113 131.532C101.878 132.087 101.76 132.701 101.76 133.374C101.76 134.037 101.878 134.651 102.113 135.217C102.358 135.783 102.69 136.28 103.106 136.707C103.533 137.124 104.036 137.45 104.612 137.685C105.189 137.909 105.814 138.021 106.487 138.021ZM116.307 138.982V127.766H117.285L125.024 137.508H124.511V127.766H125.681V138.982H124.704L116.98 129.24H117.493V138.982H116.307Z" fill="white"/>
</svg>
