<svg xmlns="http://www.w3.org/2000/svg" width="129" height="140" fill="none">
  <path fill="#fff" d="M121.59 95.019h-1.168v-.314h2.69v.314h-1.189v2.812h-.333v-2.812Zm2.035 2.811v-3.125h.313l1.246 1.763 1.246-1.763h.309v3.126h-.334v-2.544l-1.201 1.697h-.045l-1.197-1.697v2.544h-.337ZM7.147 100.588H3.219v22.448h3.928v-22.448Zm4.845 0h3.64l11.982 15.52v-15.52h3.866v22.448h-3.29l-12.336-15.97v15.97h-3.862v-22.448Zm24.289 0h3.932v9.331h10.67v-9.331h3.928v22.448h-3.928v-9.463h-10.67v9.463h-3.932v-22.448Zm30.839-.16h3.644l9.839 22.609h-4.155l-2.266-5.421H63.607l-2.299 5.421h-4.027l9.839-22.609Zm5.623 13.691-3.867-8.98-3.833 8.98h7.7Zm10.542-13.531h9.201c2.554 0 4.599.706 5.845 1.957.925.929 1.435 2.147 1.435 3.625v.066c0 2.886-1.85 4.682-4.12 5.322 2.936.545 5.334 2.436 5.334 5.483v.062c0 3.72-3.036 5.933-8.017 5.933h-9.678v-22.448Zm9.423 10.615c3.324 0 5.973-1.635 5.973-4.876v-.062c0-2.82-2.3-4.682-6.232-4.682h-8.082v9.62h8.341Zm.288 10.838c4.31 0 6.87-1.862 6.87-4.905v-.062c0-3.142-2.781-4.876-6.742-4.876H84.37v9.843h8.625Zm13.484-21.453h-1.085v22.448h1.085v-22.448Zm11.19.995h-7.955v-.995h17.024v.995h-7.984v21.453h-1.085v-21.453ZM36.95 16.652c.456-.872.444-1.904-.038-2.626-.415-.632-1.13-.95-1.962-.88-.991.087-1.826.752-2.566 1.338-.28.223-.543.434-.79.59-.23.15-.469.302-.712.459-.682.793-1.34 1.61-1.966 2.448 1.185-.644 2.295-1.35 3.274-1.978.292-.19.58-.417.88-.656.646-.516 1.317-1.045 1.979-1.102.436-.042.757.095.954.392.255.388.247.99-.02 1.503-2.279 4.335-7.17 7.68-11.673 9.488-.223.47-.436.941-.642 1.42 4.977-1.775 10.698-5.47 13.285-10.392m-.03-5.652c.494.623 1.3 1.003 2.21 1.044h.094c1.102 0 2.8-.838 3.52-2.014.428-.698.457-1.417.083-2.073-.202-.36-.551-.595-.794-.743a5.604 5.604 0 0 0-.95-.45c-.165.103-.33.202-.494.31.461.131.889.325 1.214.52.325.194.522.371.637.582.292.52.268 1.065-.074 1.626-.654 1.07-2.266 1.846-3.22 1.805-.774-.033-1.477-.364-1.884-.88l-.173.136.156-.156a1.671 1.671 0 0 1-.345-.987c-.132.107-.263.215-.4.322a2.085 2.085 0 0 0 .416.954m-1.04 14.764c.337.186.72.298 1.135.298a2.402 2.402 0 0 0 2.398-2.408 2.4 2.4 0 0 0-.514-1.474c1.41-1.816 2.677-3.625 3.775-5.235.42-.615.84-1.26 1.247-1.878.938-1.433 1.904-2.915 2.97-4.22.793-.974 1.67-1.631 2.599-1.957 1.036-.364 2.176-.264 2.974.256.765.5 1.197 1.106 1.324 1.85.354 2.043-1.682 4.731-2.776 6.176a84.268 84.268 0 0 1-8.63 9.724c-.58.561-1.246 1.119-1.95 1.705-2.767 2.312-5.906 4.938-5.206 9.092.333 1.969 1.764 3.204 3.636 3.204.168 0 .345-.009.522-.03 1.937-.226 3.83-1.44 5.791-3.703 3.883-4.476 6.696-9.699 9.42-14.748 1.451-2.692 2.936-5.434 4.585-8.076.223.066.453.116.696.116a2.402 2.402 0 0 0 2.398-2.408c0-.57-.206-1.081-.531-1.494.481-.653.975-1.297 1.489-1.92 2.225-2.692 5.524-5.9 9.773-7.866A45.115 45.115 0 0 0 71.16.463c-3.764 2.056-6.717 4.975-8.777 7.469a45.19 45.19 0 0 0-1.506 1.94 2.339 2.339 0 0 0-1.003-.227 2.402 2.402 0 0 0-1.646 4.15c-1.657 2.659-3.142 5.405-4.598 8.1-2.694 5-5.479 10.166-9.28 14.55-1.776 2.049-3.442 3.139-5.091 3.333-1.53.181-2.686-.706-2.95-2.263-.596-3.53 2.16-5.834 4.825-8.064.72-.602 1.399-1.168 2.007-1.759a85.368 85.368 0 0 0 8.745-9.85c1.193-1.578 3.418-4.514 2.986-7.032-.181-1.049-.79-1.916-1.806-2.585-1.09-.714-2.562-.855-3.936-.371-1.123.392-2.163 1.168-3.089 2.3-1.102 1.35-2.085 2.852-3.04 4.31-.403.615-.818 1.255-1.233 1.862-1.082 1.59-2.332 3.373-3.723 5.165a2.334 2.334 0 0 0-1.032-.244 2.402 2.402 0 0 0-1.962 3.787c-4.874 5.24-9.699 7.745-13.713 8.864-.103.405-.198.813-.288 1.222 6.326-1.585 11.327-5.598 14.828-9.36"/>
  <path fill="#fff" d="M38.341 47.519c3.278-2.602 6.996-5.546 10.612-2.383.97.85 1.633 1.978 2.336 3.175.12.203.239.405.358.603.876 1.462 1.826 2.312 3.188 2.84 1.028.401 2.085.38 2.9-.057a2.85 2.85 0 0 0 1.423-1.747c.267-.92.107-2.035-.424-2.98-.802-1.425-1.99-2.14-3.138-2.833-.597-.36-1.214-.73-1.76-1.197-.828-.706-1.407-1.474-1.798-2.288a2.405 2.405 0 0 0 1.489-2.225 2.4 2.4 0 0 0-1.95-2.362c.757-3.935 3.842-8.109 6.03-11.065l.403-.541a96.915 96.915 0 0 1 12.993-14.373c3.11-2.815 6.532-4.892 10.143-6.969-.44-.173-.884-.339-1.332-.504-3.377 1.957-6.581 3.972-9.543 6.652A98.446 98.446 0 0 0 57.13 23.798l-.4.541c-1.834 2.478-4.347 5.871-5.618 9.34a13.8 13.8 0 0 0-.662 2.448 2.4 2.4 0 0 0-1.72 2.296c0 1.246.951 2.262 2.164 2.382.47 1.102 1.21 2.097 2.234 2.969.617.524 1.27.92 1.904 1.304 1.074.648 2.09 1.26 2.748 2.432.39.694.51 1.49.325 2.13a1.74 1.74 0 0 1-.885 1.082c-.53.285-1.254.285-1.986 0-1.131-.441-1.897-1.13-2.645-2.378-.12-.198-.234-.396-.35-.599-.715-1.217-1.456-2.48-2.558-3.447-4.306-3.766-8.761-.235-12.014 2.345l-9.584 7.597c-1.884 1.495-4.1 2.614-6.231 3.468.107.355.213.706.329 1.057 2.237-.891 4.582-2.072 6.585-3.662l9.583-7.597-.008.013Zm13.884 20.698c.156-.528.185-1.011.09-1.428a2.045 2.045 0 0 0-1.554-1.524c-1.288-.268-3.67 1.177-5.343 2.291-.868.574-1.909 1.483-1.933 2.532-.013.61.316 1.164.987 1.655.851.62 1.777.933 2.682.933.826 0 1.64-.26 2.373-.78.987-.702 2.266-2.225 2.698-3.675m-7.498 3.163c-.547-.396-.819-.83-.806-1.288.02-.904 1.094-1.75 1.735-2.176.868-.574 3.398-2.25 4.751-2.25.095 0 .181.008.263.024a1.63 1.63 0 0 1 1.218 1.194c.078.342.053.751-.082 1.205-.387 1.305-1.588 2.775-2.53 3.444-1.399.99-3.056.937-4.545-.149m26.331-23.664c-.053 0-.103-.016-.156-.016a2.402 2.402 0 0 0-.745 4.686c-.098 1.978.313 3.596 1.255 4.88.888 1.21 2.283 2.147 4.261 2.866 2.517.916 5.635 1.416 8.864 1.416 5.371 0 11.052-1.387 14.795-4.55 2.542-2.147 3.965-5.157 3.813-8.047-.099-1.858-.803-3.51-1.818-4.963.267-.388.427-.859.427-1.37a2.402 2.402 0 0 0-2.398-2.408c-.473 0-.913.144-1.287.384a33.583 33.583 0 0 0-3.175-2.27c-2.468-1.578-3.48-2.945-3.192-4.303.42-1.957 3.294-2.337 4.508-2.411 1.04-.062 2.114-.083 3.155-.104 2.595-.05 5.269-.099 7.802-.796a29.83 29.83 0 0 0-.362-1.045c-2.389.644-4.96.694-7.461.743-1.049.02-2.135.041-3.2.103-3.097.186-5.108 1.38-5.52 3.279-.526 2.456 1.843 4.294 3.673 5.462a32.2 32.2 0 0 1 2.999 2.139c-.214.36-.346.78-.346 1.23a2.402 2.402 0 0 0 2.398 2.407c.411 0 .794-.115 1.135-.297.872 1.276 1.473 2.7 1.559 4.282.136 2.547-1.143 5.218-3.422 7.147-5.692 4.814-16.152 5.272-22.573 2.944-1.768-.645-2.998-1.454-3.75-2.482-.782-1.065-1.124-2.436-1.05-4.133a2.396 2.396 0 0 0 .856-4.443c2.073-7.6 5.417-15.21 9.727-22.097 3.48-5.566 7.601-10.677 12.105-15.045-.28-.244-.56-.48-.843-.715-4.537 4.414-8.687 9.567-12.191 15.174-4.356 6.97-7.745 14.665-9.847 22.362m-6.934 6.814c-.625.383-.991 1.02-.93 1.618.045.454.305.81.555 1.156.198.273.383.529.457.813.05.194.05.4.05.624 0 .115 0 .235.004.35.061 1.062.867 2.119 1.966 2.577.345.145.69.215 1.028.215.547 0 1.065-.194 1.489-.57 1.41-1.263.666-4.158-.144-5.43-.893-1.39-2.945-2.29-4.467-1.358M68.442 61c-.752.673-1.608.462-2.052.276-.933-.388-1.645-1.313-1.695-2.196-.004-.107-.004-.215-.004-.322 0-.24 0-.487-.061-.735-.095-.367-.313-.673-.527-.962-.226-.314-.44-.607-.473-.941-.053-.525.358-.975.724-1.202a2.209 2.209 0 0 1 1.168-.322c1.05 0 2.135.66 2.698 1.54.823 1.28 1.329 3.873.223 4.86m-3.915 11.676.14-.202c2.636-3.761 3.537-5.962 2.912-7.135-.198-.367-.634-.796-1.62-.776-1.46.038-2.773 1.8-3.645 2.965-.103.136-.197.264-.28.371-1.542 2.003-2.957 4.266-4.211 6.726-2.123 4.158-3.731 8.737-4.8 13.63.353.094.707.185 1.065.276 1.049-4.814 2.628-9.314 4.71-13.402 1.22-2.399 2.603-4.604 4.104-6.552.087-.112.185-.244.288-.384.65-.872 1.863-2.498 2.789-2.523.234-.004.534.025.625.194.136.256.337 1.45-2.842 5.978l-.144.207c-3.542 5.132-5.364 11.218-5.22 17.308.366.054.732.099 1.103.145-.177-5.917 1.58-11.838 5.018-16.826m14.797-8.319c-.53-.091-1.057-.178-1.584-.268-.168-.03-.378-.07-.62-.12-1.572-.314-4.2-.843-5.529.165-.465.355-.74.871-.79 1.499-.238 2.935 4.126 4.042 6.22 4.574l.341.087c1.123.293 2.274.487 3.39.677 1.887.322 3.668.628 5.367 1.35.909.384 1.596.896 2.073 1.536a2.398 2.398 0 0 0-.885 1.854c0 1.049.675 1.932 1.609 2.263-.144.92-.428 1.953-.852 3.109a61.931 61.931 0 0 1-1.102 2.787c.535-.31 1.061-.632 1.584-.958.193-.487.378-.966.555-1.445.263-.715.72-1.966.925-3.373a2.398 2.398 0 0 0 2.086-2.375 2.402 2.402 0 0 0-2.398-2.407 2.37 2.37 0 0 0-.518.062c-.556-.813-1.399-1.532-2.641-2.06-1.818-.772-3.747-1.103-5.615-1.42-1.094-.186-2.22-.38-3.298-.661l-.346-.087c-1.801-.458-5.557-1.412-5.396-3.414.024-.318.14-.545.358-.71.937-.71 3.446-.207 4.651.033.256.05.478.095.654.123.527.087 1.053.178 1.584.269 6.334 1.073 12.886 2.188 19.402 1.581a24.84 24.84 0 0 0 5.791-1.239c.251-.478.494-.962.728-1.449a23.528 23.528 0 0 1-6.622 1.594c-6.371.59-12.85-.508-19.118-1.573"/>
  <path fill="#fff" d="M79.109 75.314c-1.617-1.094-3.838-1.437-6.602-1.028-1.399.206-2.48.52-3.406.987-2.463 1.234-4.306 3.844-5.055 7.16-.547 2.427-.493 4.912-.341 7.352.148 0 .292 0 .44.005-.152-2.42-.21-4.88.329-7.263.72-3.187 2.476-5.69 4.82-6.862.885-.442 1.925-.743 3.275-.946 2.653-.392 4.77-.07 6.293.958 2.028 1.371 3.117 4.191 2.772 7.184-.16 1.4-.588 2.746-1.152 4.067.19-.07.379-.14.568-.214.498-1.23.872-2.486 1.02-3.799.366-3.154-.798-6.135-2.961-7.601Zm17.667-3.427c-1.036 1.02-.851 2.61-.687 4.009.029.248.058.491.082.73l.013.187c.136-.137.271-.273.403-.41l-.062-.56c-.16-1.363-.325-2.771.555-3.642.449-.442 1.103-.636 1.625-.756.757-.173 1.555-.272 2.349-.355l.337-.475c-.93.091-1.88.194-2.785.405-.575.132-1.307.355-1.834.871M78.716 41.085c-.658 2.779-.83 5.017-.543 7.044.37 2.597 1.539 4.797 3.29 6.193 1.519 1.21 3.567 1.866 5.796 1.866.136 0 .272 0 .407-.008 1.576-.054 2.859-.438 3.813-1.14 2.526-1.853 2.542-5.73 1.275-8.439-.835-1.78-2.102-3.315-3.327-4.802-.654-.792-1.333-1.614-1.933-2.46-.983-1.384-3.122-4.951-1.765-8.163.925-2.2 3.315-3.774 7.103-4.678 1.428-.339 2.9-.603 4.323-.859 2.374-.425 4.825-.863 7.141-1.672-.07-.132-.136-.264-.21-.396-2.266.784-4.68 1.217-7.013 1.634-1.431.257-2.912.52-4.347.863-3.928.938-6.421 2.602-7.404 4.934-1.016 2.408-.354 5.541 1.814 8.592.609.86 1.291 1.685 1.954 2.486 1.209 1.462 2.46 2.977 3.265 4.707 1.193 2.547 1.201 6.185-1.139 7.894-.88.649-2.081 1.004-3.566 1.053-2.283.078-4.385-.545-5.915-1.763-1.637-1.305-2.78-3.46-3.13-5.912-.28-1.97-.11-4.154.535-6.879 1.448-6.098 4.553-12.287 9.234-18.402 2.521-3.295 5.36-6.392 8.267-9.331-.103-.104-.201-.211-.308-.314-2.925 2.956-5.771 6.065-8.309 9.38-4.718 6.16-7.852 12.408-9.312 18.568m-3.379-31.003c-1.777 1.904-3.418 3.964-5.005 5.954-1.856 2.325-3.772 4.732-5.911 6.895l-.152.153c-3.949 3.989-8.428 8.51-7.766 14.612.107 1 .448 2.42 1.444 3.538.823.921 1.682 1.388 2.558 1.388.124 0 .247-.009.37-.03 1.975-.292 3.414-2.79 4.097-4.256.588-1.255 1.024-2.577 1.444-3.852.304-.925.62-1.883.991-2.804 2.702-6.726 5.882-13.844 10.826-20.297 2.772-3.617 5.08-5.454 6.885-6.462-.156-.082-.317-.157-.473-.24-1.81 1.062-4.076 2.928-6.762 6.43-4.977 6.498-8.173 13.645-10.887 20.4-.374.937-.695 1.9-1.004 2.832-.42 1.264-.851 2.573-1.423 3.803-.518 1.115-1.925 3.732-3.764 4.005-.85.124-1.702-.285-2.537-1.218-.922-1.032-1.234-2.362-1.333-3.295-.637-5.896 3.76-10.338 7.638-14.257l.152-.152c2.16-2.18 4.085-4.596 5.944-6.929 1.583-1.986 3.216-4.038 4.985-5.929a39.845 39.845 0 0 1 7.638-6.346c-.156-.074-.317-.144-.477-.214a40.428 40.428 0 0 0-7.482 6.255m-35.342 48.16c1.419-.64 2.883-1.3 4.314-1.982.186-.087.379-.174.576-.264 1.62-.731 3.842-1.73 2.822-4.158-.946-2.258-4.38-1.8-6.063-1.243-1.72.57-3.225 1.59-4.68 2.58L23.473 62.31c.057.137.119.273.177.413l13.552-9.199c1.432-.97 2.912-1.978 4.574-2.527 1.802-.594 4.755-.826 5.52.995.851 2.032-.983 2.858-2.6 3.588-.201.091-.399.182-.584.269-1.423.677-2.887 1.337-4.302 1.977-3.192 1.437-6.486 2.924-9.559 4.732a29.693 29.693 0 0 0-4.927 3.625c.074.132.143.264.218.397a29.354 29.354 0 0 1 4.931-3.642c3.048-1.796 6.339-3.278 9.518-4.711m-13.223-7.363c2.29-.942 5.141-2.114 4.882-5.05-.057-.652-.325-1.247-.58-1.82-.201-.447-.39-.872-.49-1.322-.27-1.218.112-2.626 1.177-4.306l.148-.232c.374-.582.761-1.185.913-1.886.173-.801-.066-1.834-.86-2.25-1.78-.938-3.672 1.552-5.058 3.368-.494.649-.922 1.206-1.25 1.503a17.923 17.923 0 0 1-5.582 3.407l-.025.478a18.362 18.362 0 0 0 5.902-3.559c.362-.326.802-.9 1.308-1.564 1.288-1.693 3.056-4.01 4.508-3.246.597.314.77 1.128.634 1.768-.132.623-.498 1.189-.852 1.738l-.148.231c-1.13 1.784-1.534 3.299-1.234 4.637.111.495.317.958.518 1.403.256.566.494 1.103.543 1.68.235 2.614-2.451 3.717-4.61 4.605-.403.165-.782.322-1.127.478a65.162 65.162 0 0 0-4.693 2.395l.086.459a64.573 64.573 0 0 1 4.788-2.453c.337-.157.711-.31 1.11-.475m13.877 23.546c-3.044.058-4.985 1.433-6.458 3.32l.317.297c1.415-1.829 3.241-3.117 6.15-3.175.962-.02 2.755.136 3.977 1.396 1.344 1.387 1.39 3.505.983 5.025-.317 1.185-.889 2.349-1.526 3.493.131.066.259.136.39.202.646-1.16 1.23-2.353 1.56-3.58.44-1.639.382-3.93-1.09-5.45-1.338-1.375-3.27-1.544-4.303-1.528Zm9.605-70.012c1.624 1.172 3.302 2.382 5.305 2.452h.181c2.444 0 4.508-1.709 6.417-3.464l3.66-3.365A33.93 33.93 0 0 0 65.18 0l-3.315 3.051c-1.888 1.738-3.928 3.423-6.285 3.345-1.871-.066-3.492-1.235-5.063-2.37-.227-.161-.449-.322-.67-.48a13.401 13.401 0 0 0-.996-.643c-.177.066-.354.132-.53.202.41.227.834.495 1.27.805.222.157.444.318.667.475Z"/>
  <path fill="#fff" d="m101.685 38.381-.181-.128c-.477-.33-.966-.673-1.299-1.13-.33-.455-.523-1.14-.206-1.657.399-.652 1.345-.71 2.217-.68l6.145.218a17.92 17.92 0 0 0-.103-.446l-6.026-.215c-.942-.037-2.085.037-2.607.892-.42.69-.19 1.577.226 2.147.374.516.901.884 1.407 1.235l.181.128c3.718 2.617 6.416 6.581 7.761 10.958.037-.36.07-.723.103-1.086-1.456-4.084-4.084-7.75-7.609-10.231M32.862 68.08a2.402 2.402 0 0 0 2.398-2.407c0-.367-.086-.71-.234-1.02 3.75-2.316 7.905-3.6 12.26-4.946 1.3-.4 2.65-.817 3.97-1.26 3.299-1.102 8.095-2.972 11.632-6.44 3.76-3.683 5.627-8.208 6.96-12.143.221-.656.444-1.313.662-1.973 1.094-3.258 2.225-6.627 3.545-9.852 1.283-3.13 3.073-6.036 4.808-8.687a2.402 2.402 0 0 0 3.323-2.221 2.4 2.4 0 0 0-.71-1.71c1.722-2.555 3.545-5.103 5.729-7.275.44-.437.888-.85 1.345-1.238a48.498 48.498 0 0 0-.983-.607c-.383.338-.761.69-1.135 1.06-2.271 2.255-4.138 4.873-5.899 7.49a2.33 2.33 0 0 0-.744-.132 2.402 2.402 0 0 0-2.398 2.408c0 .598.226 1.143.588 1.564-1.773 2.709-3.611 5.686-4.94 8.927-1.337 3.258-2.472 6.647-3.574 9.921-.222.657-.44 1.313-.662 1.97-1.292 3.815-3.098 8.187-6.688 11.71-2.604 2.555-6.063 4.463-11.213 6.184-1.308.438-2.649.85-3.944 1.251-4.282 1.322-8.683 2.684-12.627 5.137a2.375 2.375 0 0 0-1.477-.525 2.402 2.402 0 0 0-2.398 2.407c0 .31.062.603.169.872a44.553 44.553 0 0 0-3.254 3.088c.206.314.416.623.63.933a44.108 44.108 0 0 1 3.253-3.113c.423.384.983.623 1.6.623M54.77 75.71c0-.73-.334-1.375-.844-1.816.383-.731.794-1.45 1.246-2.16.716-1.119 1.695-2.138 2.736-3.216 1.801-1.87 3.664-3.803 4.15-6.408.197-1.057-.062-2.04-.732-2.766-.77-.839-2.004-1.26-3.3-1.123-2.142.223-4.088 1.164-5.971 2.076-.51.248-1.033.5-1.543.731-7.955 3.588-14.445 8.093-19.426 13.464.243.277.49.553.736.826 4.89-5.297 11.287-9.744 19.139-13.282.526-.236 1.057-.496 1.57-.744 1.798-.87 3.657-1.77 5.607-1.973.954-.1 1.843.19 2.377.772.432.47.593 1.098.457 1.817-.424 2.279-2.172 4.091-3.858 5.842-1.028 1.07-2.094 2.172-2.867 3.385a31.607 31.607 0 0 0-1.296 2.242 2.456 2.456 0 0 0-.58-.078 2.403 2.403 0 0 0-2.398 2.407c0 .838.428 1.573 1.074 2.007-1.127 3.092-1.818 6.218-2.279 9.141.35.132.7.264 1.053.388.449-2.927 1.135-6.061 2.258-9.158.095.013.194.03.292.03a2.402 2.402 0 0 0 2.398-2.408M5.181 133.198h5.929v1.025H5.18v-1.025Zm.128 5.784H4.124v-11.216h7.69v1.026H5.31v10.19Zm14.999.097a6.535 6.535 0 0 1-2.356-.417 5.806 5.806 0 0 1-1.875-1.202 5.86 5.86 0 0 1-1.234-1.81 5.878 5.878 0 0 1-.432-2.276c0-.822.144-1.575.433-2.259a5.628 5.628 0 0 1 1.233-1.811 5.474 5.474 0 0 1 1.875-1.201c.716-.289 1.5-.433 2.355-.433a6.19 6.19 0 0 1 2.34.433 5.428 5.428 0 0 1 1.859 1.185 5.307 5.307 0 0 1 1.233 1.811c.3.694.45 1.453.45 2.275a5.68 5.68 0 0 1-.45 2.276 5.303 5.303 0 0 1-1.233 1.81 5.622 5.622 0 0 1-1.86 1.202 6.407 6.407 0 0 1-2.338.417Zm0-1.058c.672 0 1.292-.112 1.858-.336a4.455 4.455 0 0 0 1.49-.978c.428-.427.759-.919.994-1.474a4.802 4.802 0 0 0 .352-1.859c0-.673-.117-1.287-.352-1.842a4.379 4.379 0 0 0-.994-1.475 4.156 4.156 0 0 0-1.49-.977 4.801 4.801 0 0 0-1.858-.353 4.92 4.92 0 0 0-1.875.353 4.315 4.315 0 0 0-1.506.977 4.716 4.716 0 0 0-.994 1.475 4.678 4.678 0 0 0-.352 1.842c0 .663.117 1.277.352 1.843.246.566.577 1.063.994 1.49a4.63 4.63 0 0 0 1.506.978 5.134 5.134 0 0 0 1.875.336Zm14.338 1.058c-1.431 0-2.558-.412-3.38-1.234-.823-.823-1.234-2.041-1.234-3.654v-6.425h1.185v6.377c0 1.325.3 2.302.898 2.933.598.63 1.442.945 2.531.945 1.1 0 1.95-.315 2.548-.945.598-.631.897-1.608.897-2.933v-6.377h1.154v6.425c0 1.613-.411 2.831-1.234 3.654-.812.822-1.933 1.234-3.365 1.234Zm9.454-.097v-11.216h.977l7.74 9.742h-.513v-9.742h1.17v11.216h-.978l-7.723-9.742h.513v9.742H44.1Zm14.316 0v-11.216h4.567c1.197 0 2.244.24 3.14.721a5.165 5.165 0 0 1 2.116 1.971c.502.844.753 1.816.753 2.916 0 1.101-.251 2.073-.753 2.916a5.269 5.269 0 0 1-2.115 1.987c-.897.47-1.944.705-3.14.705h-4.568Zm1.186-1.025h3.317c.994 0 1.853-.192 2.58-.577a4.324 4.324 0 0 0 1.714-1.618c.406-.695.61-1.49.61-2.388 0-.908-.204-1.704-.61-2.387a4.214 4.214 0 0 0-1.714-1.603c-.727-.395-1.586-.592-2.58-.592h-3.317v9.165Zm11.383 1.025 5.128-11.216h1.17l5.127 11.216h-1.25l-4.71-10.527h.48l-4.71 10.527h-1.235Zm2.02-2.996.352-.961h6.521l.353.961h-7.227Zm14.158 2.996v-10.19h-3.941v-1.026h9.069v1.026h-3.942v10.19h-1.186Zm8.304 0v-11.216h1.186v11.216h-1.186Zm11.02.097a6.53 6.53 0 0 1-2.355-.417 5.802 5.802 0 0 1-1.875-1.202 5.847 5.847 0 0 1-1.234-1.81 5.885 5.885 0 0 1-.433-2.276c0-.822.145-1.575.433-2.259a5.615 5.615 0 0 1 1.234-1.811 5.47 5.47 0 0 1 1.875-1.201c.715-.289 1.501-.433 2.355-.433.844 0 1.624.144 2.34.433a5.427 5.427 0 0 1 1.858 1.185 5.302 5.302 0 0 1 1.234 1.811c.299.694.449 1.453.449 2.275 0 .823-.15 1.581-.449 2.276a5.298 5.298 0 0 1-1.234 1.81 5.621 5.621 0 0 1-1.858 1.202 6.41 6.41 0 0 1-2.34.417Zm0-1.058a5.01 5.01 0 0 0 1.859-.336 4.457 4.457 0 0 0 1.49-.978c.427-.427.758-.919.993-1.474a4.802 4.802 0 0 0 .353-1.859c0-.673-.118-1.287-.353-1.842a4.382 4.382 0 0 0-.993-1.475 4.158 4.158 0 0 0-1.49-.977 4.802 4.802 0 0 0-1.859-.353c-.673 0-1.298.118-1.875.353a4.32 4.32 0 0 0-1.506.977 4.713 4.713 0 0 0-.993 1.475 4.678 4.678 0 0 0-.353 1.842c0 .663.118 1.277.353 1.843.245.566.577 1.063.993 1.49.427.417.93.743 1.506.978a5.137 5.137 0 0 0 1.875.336Zm9.82.961v-11.216h.978l7.739 9.742h-.513v-9.742h1.17v11.216h-.977l-7.724-9.742h.513v9.742h-1.186Z"/>
</svg>
