<svg width="856" height="1080" viewBox="0 0 856 1080" fill="none" xmlns="http://www.w3.org/2000/svg">
<g opacity="0.2" clip-path="url(#clip0_3674_27123)">
<path d="M304.622 668.096C302.158 661.36 300.952 654.137 301.126 647.209C301.675 625.424 314.025 603.954 334.172 589.774C341.904 584.333 350.561 579.975 358.927 575.75C375.331 567.475 390.835 559.665 397.641 544.989C401.11 537.519 401.872 528.94 402.679 519.857C403.467 511.052 404.282 501.952 407.658 493.229C415.336 473.387 431.952 462.841 448.015 452.633C456.39 447.322 464.299 442.289 470.882 436.077C477.093 430.217 481.115 423.072 485.369 415.49C492.513 402.776 500.621 388.369 520.349 382.074C542.768 374.916 568.958 382.439 584.023 400.34C591.41 409.134 595.847 419.562 600.138 429.665C604.899 440.868 609.409 451.459 617.472 458.991C628.334 469.141 644.563 472.493 660.258 475.717C662.395 476.154 664.531 476.591 666.637 477.053C684.198 480.826 696.358 489.675 708.111 498.226C717.036 504.711 725.469 510.848 736.191 514.915C752.576 521.136 777.118 525.781 800.95 512.677C802.11 512.036 803.261 511.371 804.425 510.702C811.093 506.868 818.667 502.514 827.577 502.735C845.037 503.159 851.652 511.288 854.12 518.035C861.367 537.849 840.874 567.632 834.426 576.287C826.688 586.673 818.51 594.931 812.56 598.394C788.144 612.605 759.568 616.328 734.853 618.096C726.751 618.677 717.752 619.95 708.213 621.3C676.02 625.872 639.535 631.038 613.454 613.226C603.887 606.691 597.05 597.696 590.425 588.989C584.876 581.702 579.632 574.806 573.054 569.52C556.226 556.015 530.158 555.231 512.431 567.7C511.007 568.695 509.607 569.789 508.131 570.938C503.768 574.335 498.822 578.175 492.623 579.996C482.789 582.875 473.295 579.835 464.918 577.144C460.013 575.58 455.38 574.093 450.912 573.723C435.841 572.465 422.456 584.551 417.022 597.127C411.667 609.512 410.959 624.937 414.837 644.276C415.5 647.608 416.291 651.029 417.055 654.338C419.144 663.418 421.301 672.797 421.608 682.556C422.134 699.1 416.6 713.473 406.431 722.027C399.738 727.643 390.431 730.37 381.514 729.313C373.84 728.396 367.326 724.766 363.191 719.089C361.662 716.981 360.535 714.752 359.545 712.785C358.477 710.644 357.458 708.634 356.193 707.322C353.704 704.739 349.231 703.762 344.494 702.732C342.607 702.312 340.652 701.89 338.705 701.343C323.377 697.011 310.618 684.562 304.585 668.069L304.622 668.096Z" stroke="#BDDC8A" stroke-miterlimit="10"/>
<path d="M829.295 572.52C847.862 547.612 863.701 510.065 827.44 509.179C818.982 508.968 811.51 514.233 804.093 518.314C781.853 530.551 757.096 529.722 733.923 520.934C707.698 510.986 694.262 489.578 665.309 483.35C646.866 479.386 626.841 476.541 613.102 463.706C596.356 448.058 593.862 422.025 579.121 404.492C565.727 388.566 542.291 381.837 522.344 388.198C494.456 397.099 493.591 423.535 475.349 440.742C455.376 459.584 424.391 467.938 413.71 495.527C407.275 512.139 411.017 531.515 403.523 547.675C392.011 572.508 360.358 579.224 337.916 595.016C320.772 607.081 308.134 626.504 307.594 647.351C307.066 668.193 320.427 689.507 340.551 695.214C347.633 697.214 355.804 697.637 360.9 702.909C364.28 706.412 365.6 711.427 368.474 715.358C375.918 725.567 392.631 725.357 402.356 717.183C412.085 709.021 415.644 695.465 415.235 682.832C414.829 670.212 411.06 657.982 408.574 645.594C405.176 628.679 404.294 610.533 411.157 594.644C418.019 578.756 434.243 565.916 451.531 567.352C464.952 568.468 477.939 577.652 490.88 573.866C497.706 571.87 502.972 566.573 508.787 562.482C528.817 548.386 558.158 549.272 577.174 564.536C592.586 576.908 600.844 596.785 617.183 607.951C648.628 629.435 699.25 614.237 734.483 611.722C760.386 609.87 786.942 605.953 809.391 592.881C814.526 589.892 822.131 582.141 829.315 572.499L829.295 572.52Z" stroke="#BDDC8A" stroke-miterlimit="10"/>
<path d="M322.799 661.448C321.153 656.946 320.339 652.166 320.46 647.612C320.85 632.128 330.376 615.97 345.299 605.461C351.856 600.842 359.505 596.988 367.61 592.9C385.398 583.929 405.553 573.768 415.199 552.975C420.073 542.459 421.074 531.314 421.956 521.473C422.655 513.648 423.315 506.27 425.719 500.07C431.11 486.155 443.747 478.134 458.396 468.836C467.174 463.256 476.253 457.498 484.183 450.007C492.54 442.13 497.705 432.928 502.259 424.831C509.609 411.757 514.35 404.173 526.221 400.386C541.122 395.627 559.203 400.821 569.218 412.729C574.76 419.328 578.467 428.019 582.378 437.231C587.713 449.782 593.229 462.754 604.252 473.048C619.067 486.897 638.85 490.968 656.321 494.571C658.402 495.001 660.482 495.432 662.538 495.871C676.104 498.79 685.658 505.735 696.713 513.784C706.271 520.741 716.154 527.918 729.285 532.905C758.263 543.903 786.282 542.727 810.291 529.518C811.555 528.825 812.817 528.093 814.096 527.368C818.983 524.551 823.605 521.899 827.075 521.984C828.947 522.03 835.148 522.362 836.004 524.703C838.097 530.424 832.293 547.021 818.966 564.895C811.635 574.726 805.346 580.411 802.901 581.834C781.924 594.042 756.098 597.327 733.599 598.935C724.823 599.559 715.492 600.887 705.615 602.279C676.908 606.347 644.39 610.956 624.497 597.366C617.496 592.588 611.875 585.179 605.912 577.354C599.911 569.461 593.705 561.305 585.286 554.54C570.645 542.793 551.201 537.759 532.561 540.108C523.218 541.292 513.317 544.209 505.377 549.415C495.98 555.56 484.703 560.971 472.782 560.552C458.691 560.046 448.681 552.076 434.091 556.871C418.413 562.023 405.796 574.654 399.325 589.613C392.376 605.709 391.268 624.855 395.94 648.142C396.659 651.738 397.474 655.299 398.27 658.731C400.235 667.288 402.098 675.381 402.358 683.275C402.689 693.729 399.59 702.73 394.06 707.379C391.491 709.537 387.517 710.666 383.948 710.238C382.632 710.083 380.215 709.545 378.916 707.773C378.317 706.949 377.63 705.589 376.912 704.145C375.405 701.135 373.519 697.384 370.226 693.971C363.706 687.216 355.435 685.407 348.795 683.95C347.115 683.576 345.528 683.236 344.136 682.837C334.726 680.173 326.762 672.172 322.826 661.411L322.799 661.448Z" stroke="#BDDC8A" stroke-width="0.5" stroke-miterlimit="10"/>
<path d="M601.501 553.336C599.216 547.09 598.657 540.823 598.258 534.401L597.293 519.101C597.12 516.334 596.704 509.865 601.204 504.252C606.225 497.988 614.712 495.98 623.924 498.88C633.473 501.887 641.178 507.071 648.633 512.09C654.759 516.213 660.56 520.117 666.489 522.037C670.835 523.44 675.904 524.01 681.275 524.591C686.696 525.195 692.298 525.813 698.099 527.347C709.657 530.405 719.147 539.283 723.471 551.106C724.921 555.071 725.698 559.12 725.798 563.132C726.011 572.451 722.378 580.659 715.804 585.636C710.918 589.346 702.332 592.933 689.159 588.977C684.488 587.571 680.171 586.023 675.992 584.518C667.133 581.326 659.478 578.575 650.626 577.954C649.206 577.85 647.768 577.767 646.317 577.688C633.382 576.935 617.295 576.008 606.907 563.045C604.661 560.237 602.841 556.963 601.517 553.344L601.501 553.336Z" stroke="#BDDC8A" stroke-width="0.5" stroke-miterlimit="10"/>
<path d="M712.898 563.477C712.676 553.985 706.176 542.768 694.736 539.735C684.167 536.939 672.833 537.604 662.444 534.228C647.049 529.23 635.429 515.972 619.985 511.1C617.017 510.168 613.22 509.782 611.267 512.217C609.954 513.848 610.025 516.151 610.154 518.243C610.474 523.339 610.799 528.447 611.119 533.543C611.598 541.072 612.269 549.127 616.986 555.025C624.716 564.682 639.191 564.276 651.591 565.157C666.898 566.247 678.708 572.435 692.911 576.691C706.92 580.897 713.115 573.066 712.898 563.477Z" stroke="#BDDC8A" stroke-width="0.5" stroke-miterlimit="10"/>
<path d="M619.696 546.665C616.344 539.239 616.962 529.304 615.882 521.466C615.687 520.007 615.581 518.273 616.724 517.326C618.127 516.163 620.23 517.1 621.782 518.049C634.12 525.682 646.465 535.777 660.403 540.306C666.629 542.335 672.945 543.018 679.043 543.698C683.967 544.24 688.624 544.757 693.043 545.917C700.762 547.954 713.933 564.639 702.679 570.448C698.252 572.744 692.969 570.479 688.414 568.503C675.335 562.806 661.275 559.35 647.016 558.31C640.795 557.851 634.369 557.831 628.615 555.427C624.124 553.549 621.398 550.43 619.704 546.649L619.696 546.665Z" stroke="#BDDC8A" stroke-width="0.5" stroke-miterlimit="10"/>
<path d="M532.055 522.733C547.975 506.877 580.373 410.723 531.003 425.639C518.077 429.541 511.365 443.695 500.212 451.295C492.929 456.261 484.034 458.228 476.193 462.26C463.386 468.854 448.719 484.767 441.088 496.888C437.568 502.481 436.217 509.894 439.417 515.643C447.547 530.245 463.338 520.367 475.398 521.466C489.028 522.71 500.81 534.486 514.933 532.598C521.581 531.71 527.308 527.449 532.051 522.721L532.055 522.733Z" stroke="#BDDC8A" stroke-width="0.5" stroke-miterlimit="10"/>
<path d="M444.578 511.464C443.447 508.371 444.221 503.972 446.54 500.28C453.564 489.126 467.38 473.998 479.13 467.954C482.004 466.483 485.111 465.279 488.386 464.014C493.546 462.018 498.885 459.957 503.841 456.587C508.934 453.113 512.998 448.674 516.929 444.393C522.011 438.851 526.819 433.599 532.858 431.783C545.903 427.837 548.148 433.976 549.227 436.926C556.514 456.846 538.172 507.616 527.519 518.215C522.635 523.075 518.25 525.709 514.118 526.258C507.986 527.079 501.782 524.258 495.218 521.269C489.238 518.541 483.049 515.727 476.019 515.09C471.453 514.674 466.869 515.471 462.434 516.226C452.298 517.984 448.174 518.111 445.059 512.521C444.869 512.184 444.714 511.835 444.578 511.464Z" stroke="#BDDC8A" stroke-width="0.5" stroke-miterlimit="10"/>
<path d="M459.691 503.922C456.849 498.963 464.893 490.009 468.334 487.532C474.3 483.224 481.642 481.418 488.553 478.877C503.831 473.262 517.622 463.654 528.15 451.273C529.688 449.478 531.197 447.572 533.252 446.415C535.306 445.257 538.099 445.007 539.921 446.507C542.616 448.731 541.681 452.986 540.529 456.278C536.182 468.605 531.836 480.933 527.485 493.248C525.149 499.857 522.309 507.084 516.045 510.283C510.237 513.247 503.155 511.802 497.183 509.247C491.212 506.692 485.636 503.072 479.293 501.613C475.79 500.81 471.864 500.81 468.456 502.043C465.47 503.135 462.154 507.693 459.834 504.127C459.796 504.06 459.741 503.985 459.703 503.918L459.691 503.922Z" stroke="#BDDC8A" stroke-width="0.5" stroke-miterlimit="10"/>
<path d="M490.312 491.827C490.25 491.511 490.325 491.159 490.572 490.947C490.929 490.627 491.474 490.711 491.958 490.738C494.937 490.961 498.238 488.36 500.655 486.825C503.345 485.11 505.959 483.26 508.586 481.447C510.783 479.939 512.987 478.374 515.358 477.155C516.428 476.601 518.364 475.528 519.554 476.338C519.624 476.38 519.686 476.439 519.731 476.49C521.764 478.604 519.169 482.911 518.055 484.862C517.334 486.114 516.386 487.26 515.673 488.495C514.604 490.349 513.899 492.38 513.124 494.37C512.535 495.872 511.726 498.063 510.188 498.856C509.47 499.227 506.892 499.398 502.318 497.442C500.68 496.741 498.974 495.89 497.166 494.98C495.329 494.068 493.258 494.108 491.454 493.061C491.061 492.839 490.675 492.561 490.45 492.169C490.383 492.059 490.351 491.935 490.319 491.811L490.312 491.827Z" stroke="#BDDC8A" stroke-miterlimit="10"/>
<path d="M392.878 804.25C388.199 791.459 391.698 774.851 401.805 761.947C409.088 752.648 418.442 745.72 427.485 739.014C430.797 736.556 434.24 734.011 437.44 731.432C450.969 720.553 458.264 709.584 459.116 698.846C459.505 694.06 458.669 688.963 456.59 683.278C454.362 677.187 451.069 671.256 447.576 664.964C445.785 661.733 443.93 658.403 442.249 655.064C441.02 652.63 439.929 650.091 438.985 647.511C431.603 627.327 434.624 609.635 447.059 600.172C457.376 592.322 471.117 592.943 480.552 594.082C482.901 594.36 485.26 594.702 487.632 595.04C498.465 596.562 508.701 598.004 517.874 594.947C520.48 594.075 523.079 592.813 525.836 591.466C530.077 589.4 534.452 587.258 539.527 586.214C560.208 581.968 578.9 598.569 588.265 616.917C589.408 619.153 590.533 621.341 591.645 623.494C596.597 633.07 601.271 642.112 604.447 650.794C613.533 675.635 608.397 694.318 587.26 713.274C581.947 718.034 576.279 722.382 570.805 726.591C563.488 732.206 556.581 737.494 550.444 743.706C534.442 759.891 523.201 783.393 517.952 811.69C517.544 813.87 517.169 816.065 516.794 818.261C514.45 831.954 512.024 846.125 502.85 857.619C496.032 866.152 484.053 871.494 473.04 870.891C464.434 870.424 457.392 866.5 453.237 859.841C452.216 858.197 451.347 856.376 450.517 854.107C450.076 852.9 449.678 851.665 449.292 850.425C448.955 849.356 448.619 848.288 448.234 847.237C447.916 846.365 447.604 845.626 447.284 844.971C443.51 837.32 434.315 833.615 424.583 829.7C414.232 825.538 403.531 821.233 396.736 811.613C395.137 809.354 393.839 806.877 392.878 804.25Z" stroke="#BDDC8A" stroke-width="0.5" stroke-miterlimit="10"/>
<path d="M497.822 853.648C507.357 841.697 508.841 825.542 511.618 810.552C516.507 784.269 527.004 758.291 545.864 739.22C557.153 727.806 571.002 719.247 582.962 708.521C616.098 678.799 600.387 654.837 582.523 619.842C574.408 603.948 558.403 588.882 540.81 592.501C533.42 594.026 527.064 598.639 519.908 601.026C507.082 605.311 493.161 602.089 479.741 600.457C469.838 599.259 458.899 599.225 450.955 605.272C437.331 615.631 440.35 636.991 448.006 652.186C455.663 667.381 466.882 682.356 465.538 699.34C464.337 714.417 453.308 726.913 441.474 736.428C429.64 745.942 416.228 753.922 406.882 765.871C397.536 777.82 393.282 795.584 402.003 807.912C414.069 824.946 443.828 823.418 453.066 842.124C455.348 846.733 456.001 852.073 458.722 856.439C466.787 869.346 488.27 865.591 497.81 853.652L497.822 853.648Z" stroke="#BDDC8A" stroke-width="3" stroke-miterlimit="10"/>
<path d="M411.053 797.601C408.672 791.092 411.132 781.269 417.049 773.716C422.706 766.488 430.623 760.627 438.984 754.427C442.458 751.856 446.046 749.19 449.553 746.377C467.391 732.026 477.089 716.522 478.382 700.288C478.991 692.699 477.798 684.957 474.753 676.633C472.014 669.145 468.199 662.267 464.507 655.615C462.729 652.42 461.052 649.391 459.537 646.397C458.645 644.625 457.843 642.765 457.153 640.878C453.955 632.136 452.461 620.239 458.763 615.442C462.322 612.733 468.476 612.011 478.141 613.188C480.366 613.458 482.608 613.775 484.85 614.093C496.843 615.786 510.448 617.702 523.964 613.191C527.789 611.914 531.248 610.229 534.291 608.737C537.587 607.125 540.69 605.611 543.361 605.067C551.068 603.481 563.05 610.066 571.029 625.698C572.185 627.97 573.331 630.178 574.456 632.366C579.318 641.772 583.524 649.902 586.289 657.462C591.802 672.534 591.539 683.625 574.36 699.035C569.611 703.304 564.483 707.238 559.043 711.394C551.533 717.146 543.764 723.116 536.697 730.264C517.967 749.207 504.911 776.189 498.944 808.296C498.527 810.561 498.13 812.845 497.738 815.142C495.722 826.955 493.808 838.122 487.743 845.716C484.808 849.39 478.981 851.968 474.198 851.7C470.853 851.515 469.976 850.116 469.685 849.654C469.385 849.168 469.055 848.449 468.697 847.47C468.338 846.49 468.041 845.529 467.728 844.561C467.321 843.301 466.909 841.99 466.402 840.604C465.843 839.076 465.265 837.716 464.641 836.455C457.628 822.243 443.956 816.737 431.903 811.883C423.775 808.614 416.102 805.517 412.554 800.518C411.933 799.635 411.418 798.672 411.038 797.633L411.053 797.601Z" stroke="#BDDC8A" stroke-width="0.5" stroke-miterlimit="10"/>
<path d="M561.331 669.108C568.921 656.284 569.824 640.613 555.865 630.214C549.114 625.196 539.529 628.309 531.183 627.11C521.928 625.796 513.669 618.987 504.365 619.871C494.668 620.791 487.699 629.799 484.192 638.868C481.871 644.889 483.083 647.831 486.645 652.499C490.204 657.156 492.279 661.163 493.944 667.121C497.581 680.212 498.36 694.077 503.784 706.649C505.75 711.211 508.962 715.994 513.911 716.716C519.378 717.519 524.073 713.067 527.797 708.996C539.454 696.256 552.508 684.007 561.338 669.092L561.331 669.108Z" stroke="#BDDC8A" stroke-miterlimit="10"/>
<path d="M508.536 701.133C504.718 689.436 503.444 677.255 500.141 665.41C499.71 663.861 499.267 662.466 498.774 661.116C495.524 652.231 486.366 645.222 492.393 634.934C495.069 630.367 500.099 627.349 505.371 626.734C514.34 625.674 521.55 632.244 530.219 633.474C533.677 633.97 537.045 633.848 540.309 633.738C545.164 633.573 549.364 633.432 551.966 635.364C555.486 637.99 557.933 641.089 559.213 644.589C562.253 652.901 558.354 661.49 555.757 665.866C549.221 676.909 539.871 686.774 530.837 696.32C527.773 699.567 524.886 702.559 522.058 706.044C519.976 708.607 516.532 710.815 513.512 709.482C511.353 708.538 510.286 706.139 509.482 703.942C509.141 703.01 508.808 702.062 508.503 701.118L508.536 701.133Z" stroke="#BDDC8A" stroke-miterlimit="10"/>
<path d="M519.707 687.922C518.58 687.468 517.637 686.445 517.137 685.301C516.444 683.74 516.369 681.98 516.243 680.266C515.712 672.742 514.065 665.315 511.403 658.259C510.044 654.654 508.455 651.051 506.496 647.732C505.261 645.651 502.081 642.658 504.637 640.206C507.096 637.858 512.335 640.816 514.808 641.875C518.677 643.534 523.056 645.399 528.344 646.159C532.788 646.795 536.768 645.867 541.092 646.1C542.997 646.202 544.937 646.914 546.17 648.359C547.815 650.303 547.867 653.222 546.943 655.619C545.075 660.472 540.712 665.683 537.586 669.833C533.72 674.998 529.566 679.929 525.568 684.993C524.385 686.496 522.947 688.118 521.042 688.165C520.571 688.175 520.118 688.083 519.691 687.915L519.707 687.922Z" stroke="#BDDC8A" stroke-miterlimit="10"/>
<path d="M524.185 668.844C523.701 668.817 523.238 668.513 522.94 668.107C522.593 667.639 522.416 667.08 522.251 666.518C521.281 663.867 520.734 661.074 520.095 658.329C519.938 657.642 519.769 656.918 519.999 656.252C520.244 655.553 520.929 655.018 521.667 654.965C522.799 654.876 523.56 655.992 524.672 656.181C526.042 656.411 527.429 656.093 528.789 655.962C530.121 655.827 534.575 655.863 533.092 658.287C532.762 658.828 532.234 659.197 531.726 659.586C529.278 661.483 527.332 664.01 526.139 666.856C525.781 667.691 525.335 668.694 524.433 668.82C524.345 668.839 524.261 668.829 524.18 668.832L524.185 668.844Z" stroke="#BDDC8A" stroke-miterlimit="10"/>
<path d="M495.731 785.369C495.417 776.33 496.691 766.819 497.877 757.882C500.191 740.516 485.826 741.112 473.006 744.339C464.239 746.544 455.965 750.762 449.069 756.601C442.488 762.19 438.993 772.663 431.135 776.241C427.386 777.951 421.754 779.32 422.241 783.394C422.654 786.817 427.126 787.605 430.364 788.831C437.076 791.373 440.58 798.473 445.065 804.036C453.135 814.029 467.065 819.943 479.383 816.046C490.836 812.412 496.179 798.624 495.731 785.369Z" stroke="#BDDC8A" stroke-width="0.5" stroke-miterlimit="10"/>
<path d="M445.391 782.713C445.384 782.581 445.388 782.444 445.408 782.314C445.677 778.533 450.492 775.445 452.535 772.517C454.219 770.087 455.969 767.578 457.418 766.358C463.764 760.977 472.757 755.615 481.353 755.572C488.34 755.535 483.931 765.137 483.505 769.599C482.977 775.005 482.68 780.448 482.865 785.878C483.168 794.555 479.937 802.453 475.532 803.848C469.149 805.871 460.386 802.495 455.141 796.005C454.278 794.94 453.368 793.675 452.421 792.342C450.391 789.496 445.442 786.702 445.4 782.737L445.391 782.713Z" stroke="#BDDC8A" stroke-width="0.5" stroke-miterlimit="10"/>
<path d="M453.364 782.559C453.013 779.6 456.338 778.289 457.817 776.15C458.93 774.565 460.772 771.901 461.581 771.226C464.393 768.843 467.481 766.698 470.784 765.03C472.064 764.385 476.003 762.159 477.476 763.299C478.863 764.39 476.849 772.764 476.768 774.58C476.552 779.764 476.324 784.952 476.108 790.136C476.009 792.569 475.758 795.288 473.88 796.855C472.387 798.105 470.198 798.229 468.355 797.63C466.511 797.032 464.943 795.818 463.471 794.569C460.72 792.231 458.148 789.678 455.791 786.938C454.713 785.694 453.644 784.325 453.383 782.687C453.366 782.639 453.372 782.583 453.367 782.53L453.364 782.559Z" stroke="#BDDC8A" stroke-width="0.5" stroke-miterlimit="10"/>
<path d="M538.882 1027.1C549.693 1007.24 570.32 988.481 592.412 993.427C603.325 995.867 612.082 1003.63 621.639 1009.4C647.482 1024.97 684.207 1024.49 705.669 1003.17C727.131 981.848 724.478 939.76 697.594 926.046C680.963 917.559 670.118 918.005 659.099 903.282C650.789 892.185 645.232 875.328 628.788 874.126C617.894 873.33 604.123 880.399 597.682 871.638C595.852 869.152 595.329 865.945 595.107 862.857C593.066 834.288 612.066 808.491 617.269 780.292C619.178 769.925 619.002 758.561 613.236 749.757C607.47 740.952 594.768 736.174 585.782 741.776C577.301 747.058 575.553 758.272 571.947 767.553C564.605 786.46 547.435 799.863 537.618 817.631C528.439 834.258 526.209 853.705 519.782 871.56C499.656 927.41 434.946 913.124 428.799 857.595C428.441 854.395 428.313 851.084 426.974 848.161C417.205 826.969 412.547 871.542 410.144 873.708C403.964 879.285 395.536 881.637 388.676 886.353C375.927 895.105 369.988 911.224 369.611 926.595C369.235 941.966 373.596 956.999 377.601 971.837C384.774 998.407 382.186 1025.65 392.874 1051.35C402.447 1074.38 420.474 1095.23 444.589 1101.97C465.87 1107.92 490.211 1101.57 505.901 1085.98C521.97 1070.01 528.099 1046.97 538.905 1027.09L538.882 1027.1Z" stroke="#BDDC8A" stroke-width="0.5" stroke-miterlimit="10"/>
<path d="M407.704 1052.81C406.659 1050.73 405.667 1048.57 404.768 1046.41C399.281 1033.22 397.687 1019.13 395.992 1004.2C394.675 992.606 393.307 980.608 390.031 968.469L389.319 965.818C385.648 952.266 382.177 939.481 382.492 926.867C382.815 913.683 387.846 902.486 395.948 896.909C402.331 892.517 410.475 884.798 419.449 885.862C432.868 887.454 434.235 902.444 443.881 909.234C454.284 916.573 466.946 920.54 479.756 919.727C503.055 918.233 522.551 901.827 531.91 875.845C534.516 868.608 536.441 861.283 538.308 854.209C541.208 843.183 543.948 832.756 548.91 823.778C552.592 817.11 557.682 810.888 563.084 804.295C570.945 794.69 579.066 784.76 583.967 772.135C584.884 769.755 585.673 767.395 586.419 765.104C588.168 759.779 589.984 754.267 592.588 752.651C594.75 751.306 600.016 753.117 602.436 756.808C602.739 757.266 603.015 757.761 603.279 758.26C605.664 762.967 606.123 769.813 604.599 778.048C602.742 788.111 598.819 798.117 594.647 808.701C587.852 825.959 580.837 843.799 582.261 863.833C582.498 867.185 583.056 871.599 585.283 875.984C585.868 877.137 586.539 878.232 587.288 879.245C596.186 891.318 610.589 889.083 619.188 887.753C622.352 887.259 625.62 886.754 627.805 886.916C633.255 887.306 636.475 891.666 642.545 901.524C644.479 904.663 646.475 907.9 648.76 910.964C658.59 924.104 668.981 928.117 679.026 931.998C683.029 933.54 687.163 935.142 691.675 937.446C696.571 939.947 700.428 943.939 703.154 949.32C710.382 963.602 707.491 983.278 696.584 994.105C688.727 1001.91 677.389 1006.6 664.636 1007.31C651.924 1008.02 639.039 1004.85 628.345 998.415C626.019 997.018 623.664 995.429 621.182 993.75C613.878 988.812 605.59 983.218 595.285 980.921C576.407 976.696 547.33 984.677 527.55 1021.04C523.882 1027.78 520.773 1034.76 517.753 1041.49C511.735 1054.99 506.036 1067.73 496.772 1076.94C484.406 1089.22 464.841 1094.33 448.082 1089.64C431.96 1085.14 417.234 1071.72 407.68 1052.82L407.704 1052.81Z" stroke="#BDDC8A" stroke-width="0.5" stroke-miterlimit="10"/>
<path d="M417.625 1045.02C413.681 1035.49 411.664 1025.13 409.707 1014.93C405.288 991.89 400.856 968.854 396.437 945.813C394.77 937.147 393.874 919.926 397.126 911.75C399.514 905.731 406.947 901.211 412.656 904.269C415.737 905.917 417.481 909.206 419.361 912.161C430.757 930.064 452.478 938.991 473.428 936.853C498.165 934.331 520.087 918.04 533.848 897.394C544.783 880.978 548.128 855.842 553.909 837.072C554.648 834.649 555.46 832.131 557.292 830.364C559.124 828.598 562.304 827.963 564.164 829.679C566.644 831.981 565.051 836.03 563.692 839.127C555.053 858.82 564.827 883.098 580.664 896.262C590.145 904.155 600.822 904.285 611.702 908.673C617.274 910.914 622.193 914.477 627.054 917.993C640.055 927.401 653.068 936.805 666.073 946.225C674.562 952.369 683.892 960.032 684.09 970.495C684.276 980.297 675.528 988.697 665.889 990.814C656.251 992.931 646.194 990.016 637.355 985.693C628.516 981.37 620.421 975.638 611.473 971.572C594.22 963.719 574.004 962.461 555.834 968.091C537.668 973.733 521.719 986.215 511.914 1002.46C503.518 1016.38 499.681 1032.54 492.098 1046.91C484.516 1061.27 471.195 1074.61 454.91 1074.77C441.215 1074.9 428.94 1065.4 421.956 1053.71C420.286 1050.93 418.875 1048.03 417.638 1045.06L417.625 1045.02Z" stroke="#BDDC8A" stroke-width="0.5" stroke-miterlimit="10"/>
<path d="M441.286 1051.99C439.515 1047.93 438.369 1043.5 437.307 1039.19C430.804 1012.97 424.309 986.736 417.806 960.517C417.1 957.661 416.444 954.461 417.973 951.939C419.777 948.95 424.038 948.272 427.353 949.375C430.667 950.478 433.34 952.899 436.097 955.032C463.787 976.427 500.987 967.221 526.66 947.228C533.309 942.048 539.345 936.116 544.816 929.714C549.817 923.877 552.482 898.177 566.637 912.444C569.359 915.186 570.882 918.867 573.086 922.042C579.734 931.593 593.545 932.148 603.518 935.906C613.87 939.811 623.213 945.845 632.098 952.331C639.788 957.954 648.888 968.952 657.688 972.057C660.334 972.998 663.199 973.575 665.445 975.272C667.69 976.969 669.069 980.256 667.536 982.618C666.441 984.291 664.215 984.943 662.221 984.711C660.227 984.479 658.413 983.517 656.648 982.579C640.177 973.79 623.929 963.092 605.517 958.844C588.685 954.954 570.762 955.484 554.21 960.617C531.59 967.631 511.609 983.267 499.417 1003.5C493.946 1012.57 490.348 1021.84 486.865 1030.79C484.337 1037.28 481.964 1043.41 479.057 1048.9C472.867 1060.63 459.434 1073.14 447.021 1060.72C444.523 1058.22 442.715 1055.24 441.311 1052.03L441.286 1051.99Z" stroke="#BDDC8A" stroke-width="0.5" stroke-miterlimit="10"/>
<path d="M459.52 1042.32C458.157 1039.55 457.34 1035.91 456.459 1033.84C452.299 1024.09 448.143 1014.36 443.984 1004.62C440.864 997.309 436.549 989.03 435.571 981.101C435.229 978.314 436.433 975.126 439.049 974.06C441.852 972.913 445.76 975.194 448.576 975.748C453.257 976.663 458.047 977.172 462.82 977.376C470.961 977.716 478.898 976.871 486.908 975.485C491.644 974.66 503.766 971.783 506.595 977.37C510.371 984.844 493.645 992.127 490.307 997.328C482.731 1009.12 477.139 1022.78 472.572 1035.95C471.509 1039 470.401 1042.27 467.86 1044.28C463.582 1047.68 461.165 1045.63 459.532 1042.31L459.52 1042.32Z" stroke="#BDDC8A" stroke-width="0.5" stroke-miterlimit="10"/>
<path d="M465.428 1035.19C463.987 1035.13 463.1 1033.56 462.522 1032.2C459.043 1023.87 455.563 1015.54 452.084 1007.22C449.365 1000.71 444.567 994.625 442.882 987.537C441.755 982.79 442.992 982.581 447.525 982.684C450.939 982.762 454.315 983.368 457.724 983.543C463.614 983.84 469.541 983.717 475.418 983.165C479.306 982.799 487.319 979.828 490.491 982.946C494.246 986.623 488.045 992.29 485.723 995.049C477.019 1005.42 470.99 1018 468.388 1031.25C468.048 1032.98 467.286 1035.16 465.525 1035.19C465.485 1035.19 465.445 1035.19 465.404 1035.19L465.428 1035.19Z" stroke="#BDDC8A" stroke-width="0.5" stroke-miterlimit="10"/>
<path d="M463.389 1007.36C461.967 1004.11 455.092 997.006 456.724 993.214C458.587 988.904 465.756 990.438 469.205 991.167C476.567 992.713 470.103 999.694 468.114 1003.81C467.464 1005.14 464.988 1011.03 463.389 1007.36Z" stroke="#BDDC8A" stroke-width="0.5" stroke-miterlimit="10"/>
<path d="M540.71 950.322C536.114 945.829 549.724 941.65 553.954 936.704C556.713 933.474 551.927 925.868 559.957 925.165C567.987 924.462 561.126 927.066 561.819 928.072C567.326 935.983 582.004 934.501 582.659 942.142C583.314 949.783 560.394 943.759 549.744 947.072C546.69 948.013 545.305 954.816 540.71 950.322Z" stroke="#BDDC8A" stroke-width="0.5" stroke-miterlimit="10"/>
<path d="M111.894 388.213C91.5394 373.952 74.3859 355.189 62.5275 333.393C38.4237 289.076 44.2264 248.485 51.7929 201.277C60.3034 148.173 98.8671 152.726 144.602 160.561C191.966 168.666 241.863 156.671 281.861 130.383C323.126 103.266 344.393 47.0926 401.685 51.5395C440.861 54.5829 472.027 91.8486 489.752 123.726C493.822 131.039 497.476 139.438 495.353 147.553C492.863 157.035 483.498 162.749 475.355 168.287C457.155 180.685 449.585 212.187 460.673 231.692C467.705 244.069 480.999 253.871 481.824 268.084C482.918 286.885 462.025 299.212 454.956 316.719C445.233 340.817 462.863 371.767 447.376 392.692C436.163 407.829 413.897 408.593 397.69 418.259C353.957 444.329 369.199 521.541 325.534 547.722C304.567 560.292 274.328 553.845 260.503 533.851C239.657 503.698 265.746 447.196 231.419 427.498C216.164 418.739 197.624 418.655 180.203 415.968C155.645 412.168 132.179 402.431 111.898 388.224L111.894 388.213Z" stroke="#BDDC8A" stroke-width="3" stroke-miterlimit="10"/>
<path d="M65.8184 309.552C53.0631 274.679 58.6214 239.973 64.5073 203.237C66.7731 189.071 71.3502 179.706 78.5004 174.599C91.4098 165.395 115.055 168.513 142.353 173.179C191.598 181.612 245.011 169.902 288.922 141.059C304.129 131.069 316.441 117.899 328.348 105.176C350.092 81.9222 368.867 61.8396 400.615 64.3093C440.71 67.4227 470.341 115.338 478.464 129.956C480.072 132.834 481.16 135.144 481.916 137.21C483.008 140.196 483.331 142.596 482.87 144.336C481.786 148.442 475.749 152.519 469.921 156.465L468.098 157.701C446.947 172.099 436.837 205.505 446.028 230.633C446.971 233.212 448.125 235.701 449.436 238.025C452.331 243.127 455.833 247.52 459.222 251.75C463.025 256.52 466.623 261.027 468.161 265.231C468.624 266.497 468.884 267.688 468.95 268.869C469.318 275.207 463.937 281.819 457.718 289.47C452.477 295.909 446.544 303.197 442.996 311.97C437.406 325.822 438.853 340.512 440.136 353.461C441.416 366.439 442.521 377.639 437.004 385.101C432.415 391.288 423.667 394.285 413.533 397.748C406.083 400.296 398.367 402.929 391.098 407.267C364.75 422.97 356.456 453.085 349.142 479.659C342.538 503.659 336.286 526.324 318.906 536.743C303.835 545.776 281.057 540.919 271.131 526.554C269.783 524.61 268.674 522.429 267.74 519.873C264.188 510.164 264.091 497.607 263.984 484.322C263.868 469.862 263.75 454.916 258.94 441.767C254.852 430.588 247.774 422.047 237.886 416.375C223.899 408.343 208.712 406.545 194.039 404.817C189.933 404.328 186.042 403.869 182.227 403.287C160.066 399.857 138.323 391.019 119.336 377.72C100.28 364.38 84.5518 346.924 73.8654 327.258C70.6962 321.444 68.0014 315.483 65.8347 309.56L65.8184 309.552Z" stroke="#BDDC8A" stroke-width="0.5" stroke-miterlimit="10"/>
<path d="M84.6318 302.642C75.3902 279.374 72.5755 253.539 77.0195 228.854C79.0754 217.446 82.8682 205.862 90.9706 197.51C103.886 184.214 119.534 186.236 135.49 190.434C151.001 194.523 166.559 195.562 182.906 194.905C224.243 193.231 264.99 179.803 299.539 157.092C316.69 145.822 329.802 131.805 342.485 118.243C364.92 94.2488 377.623 81.8165 399.058 83.482C414.263 84.6638 428.328 96.3907 437.45 106.04C444.737 113.746 457.928 126.673 457.632 138.562C457.424 146.803 453.941 148.239 448.222 153.148C439.134 160.954 434.034 166.299 429.291 178.69C422.196 197.236 421.018 218.56 427.872 237.299C432.38 249.624 445.56 256.597 444.163 271.068C442.933 283.881 431.992 292.581 425.877 303.145C418.481 315.911 418.216 327.477 421 341.678C423.249 353.083 424.776 366.403 416.866 374.984C411.787 380.497 404.061 382.511 397.032 385.136C357.076 400.062 341.004 436.528 330.508 474.652C327.06 487.179 323.892 504.912 315.233 515.039C309.843 521.33 300.069 524.742 293.04 520.407C286.065 516.107 284.76 506.727 284.162 498.577C281.433 461.648 284.479 420.887 247.611 399.722C222.984 385.589 195.423 389.238 169.376 380.959C141.969 372.257 117.375 354.808 100.519 331.603C94.0293 322.671 88.7145 312.916 84.6406 302.666L84.6318 302.642Z" stroke="#BDDC8A" stroke-width="0.5" stroke-miterlimit="10"/>
<path d="M89.3629 296.959C81.4433 275.306 79.3616 252.141 83.367 229.959C85.6583 217.232 89.6621 208.077 95.6044 201.963C105.559 191.714 117.157 192.252 133.818 196.638C148.806 200.594 164.486 202.076 183.139 201.32C225.517 199.604 266.988 186.155 303.069 162.45C320.855 150.772 334.229 136.47 347.173 122.622C374.818 93.0667 400.867 76.9175 435.4 109.62C444.062 117.826 449.468 130.608 445.571 141.905C444.264 145.7 442.025 149.092 439.796 152.439C421.199 180.446 409.317 205.306 421.824 239.498C423.894 245.159 427.402 249.753 430.504 253.791C433.155 257.262 435.668 260.541 436.926 263.98C437.708 266.118 437.977 268.186 437.753 270.462C437.092 277.244 432.594 283.086 427.812 289.263C425.214 292.637 422.519 296.115 420.3 299.932C411.069 315.861 412.137 329.999 414.679 342.908C416.678 353.077 417.949 364.325 412.129 370.624C408.95 374.075 403.792 375.894 398.337 377.822C397.154 378.254 395.963 378.663 394.797 379.103C350.945 395.481 334.552 435.734 324.307 472.954C323.684 475.213 323.071 477.644 322.428 480.181C319.649 491.204 316.485 503.695 310.337 510.873C306.92 514.858 300.525 517.44 296.454 514.935C294.779 513.909 293.513 512.152 292.574 509.584C291.32 506.156 290.865 501.841 290.591 498.055C290.248 493.414 289.992 488.606 289.749 483.942C288.793 466.039 287.807 447.538 281.779 431.056C275.751 414.575 265.691 402.656 250.861 394.134C234.988 385.018 218.204 382.815 201.974 380.682C191.321 379.284 181.249 377.958 171.371 374.828C145.003 366.449 121.697 349.748 105.763 327.804C99.6547 319.395 94.5712 310.124 90.6533 300.264C90.2113 299.167 89.793 298.061 89.3868 296.95L89.3629 296.959Z" stroke="#BDDC8A" stroke-width="0.5" stroke-miterlimit="10"/>
<path d="M112.86 292.454C106.512 275.616 104.074 257.104 106.304 238.361C107.13 231.437 108.887 224.024 114.286 219.572C118.789 215.853 125.102 214.938 130.876 215.805C139.863 217.163 177.988 223.258 188.798 222.825C227.639 221.252 265.929 210.469 300.078 191.885C314.883 183.83 328.985 174.109 342.376 163.889C354.212 154.861 359.021 140.726 369.174 130.094C378.112 120.731 390.565 113.834 403.508 114.57C416.44 115.31 429.077 125.353 429.831 138.225C430.551 150.486 421.391 160.797 414.875 171.264C404.814 187.442 402.035 205.831 402.526 224.5C402.98 242.14 419.058 255.297 418.191 272.77C417.439 288.075 401.421 298.849 398.638 313.936C396.437 325.871 402.961 338.231 400.157 350.035C397.094 362.949 384.279 370.669 373.703 378.776C353.277 394.453 337.908 416.553 330.381 441.066C328.69 446.586 327.27 452.44 323.499 456.826C319.732 461.223 312.668 463.495 308.054 460.024C300.22 454.115 305.456 438.889 303.884 430.446C301.664 418.49 296.165 407.082 288.305 397.811C269.867 376.093 236.794 367.486 209.511 363.898C199.298 362.555 190.494 361.402 182.252 358.784C149.079 348.237 124.453 323.149 112.856 292.442L112.86 292.454Z" stroke="#BDDC8A" stroke-width="0.75" stroke-miterlimit="10"/>
<path d="M129.842 285.093C128.692 282.318 127.667 279.443 126.781 276.463C124.257 267.935 123.21 258.149 128.013 250.624C132.116 244.181 139.788 240.725 147.383 239.721C154.961 238.709 162.644 239.799 170.256 240.508C248.793 247.841 330.215 212.345 378.258 149.859C381.36 145.826 384.408 141.611 388.526 138.615C392.655 135.615 398.168 133.991 402.927 135.785C423.911 143.695 395.342 166.358 390.891 175.325C381.595 194.04 378.938 218.613 386.88 238.104C392.024 250.725 398.34 264.216 394.839 277.413C391.922 288.391 382.614 296.928 380.07 308C377.706 318.235 381.505 328.991 379.83 339.367C377.682 352.596 367.822 360.143 358.574 368.657C348.045 378.372 339.799 390.961 330.975 402.299C328.496 405.481 325.427 408.973 321.38 408.977C311.596 408.995 308.174 392.494 303.807 386.292C296.579 376.045 286.153 368.16 274.927 362.679C257.98 354.403 239.138 350.977 220.632 347.211C182.839 339.545 145.062 321.705 129.855 285.129L129.842 285.093Z" stroke="#BDDC8A" stroke-width="2" stroke-miterlimit="10"/>
<path d="M141.936 286.248C139.887 276.869 145.385 269.428 159.325 269.854C180.216 270.513 200.066 272.068 220.977 269.118C246.536 265.511 271.439 257.742 294.815 246.836C314.56 237.624 330.921 225.939 348.096 212.737C351.119 210.413 354.922 207.966 358.463 209.352C362.491 210.925 363.186 216.196 363.258 220.502C363.443 231.633 361.15 240.799 365.224 251.197C370.028 263.482 373.099 274.802 369.076 288.014C366.225 297.397 360.507 305.826 358.43 315.4C356.459 324.449 357.864 333.955 355.982 343.025C352.738 358.551 334.949 390.175 315.582 385.167C307.297 383.025 300.886 376.677 295.05 370.457C286.42 361.265 275.646 351.651 263.188 348.206C243.482 342.753 223.085 341.48 203.563 334.605C182.644 327.24 162.704 315.78 148.562 298.773C145.053 294.546 142.82 290.217 141.956 286.227L141.936 286.248Z" stroke="#BDDC8A" stroke-width="0.75" stroke-miterlimit="10"/>
<path d="M148.83 286.918C148.572 286.213 148.375 285.527 148.227 284.864C147.847 283.121 147.684 280.675 149.068 279.018C150.663 277.121 154.303 276.115 159.082 276.262C162.658 276.376 166.19 276.52 169.707 276.655C187.319 277.349 203.941 277.999 221.839 275.474C247.258 271.891 272.723 264.215 297.508 252.645C306.452 248.48 314.068 242.241 321.796 236.233C327.823 231.536 341.269 218.467 349.568 219.169C358.332 219.917 355.816 244.357 358.87 252.705C358.974 252.992 359.075 253.267 359.18 253.553C359.61 254.655 360.019 255.738 360.417 256.825C364.147 267.024 365.994 275.922 362.866 286.178C361.727 289.912 360.054 293.557 358.276 297.431C355.88 302.653 353.397 308.044 352.082 314.076C350.964 319.238 350.813 324.303 350.685 329.211C350.56 333.644 350.44 337.831 349.624 341.745C347.55 351.698 338.357 369.914 327.188 376.843C323.58 379.083 320.313 379.777 317.188 378.971C310.654 377.285 305.196 371.915 299.729 366.074C291.88 357.72 279.75 346.139 264.899 342.038C256.192 339.63 247.338 338.007 238.788 336.436C227.266 334.327 216.394 332.332 205.701 328.566C183.151 320.633 165.591 309.236 153.5 294.688C151.354 292.115 149.731 289.419 148.818 286.922L148.83 286.918Z" stroke="#BDDC8A" stroke-width="0.75" stroke-miterlimit="10"/>
<path d="M184.881 296.63C186.024 288.426 211.434 296.369 224.487 294.519C251.785 290.669 279.057 282.454 305.562 270.105C313.592 266.369 322.401 260.466 328.097 253.752C330.365 251.068 334.011 248.597 337.172 250.094C339.909 251.395 340.626 254.911 340.798 257.935C341.258 265.932 346.972 272.223 344.404 280.678C343.647 283.162 342.296 286.093 340.736 289.494C338.03 295.385 334.976 302.027 333.225 310.087C331.731 316.998 331.55 323.239 331.399 328.751C331.293 332.459 331.205 335.66 330.739 337.902C329.515 343.739 326.995 355.655 319.255 355.521C312.103 355.402 303.606 342.87 298.179 338.546C289.827 331.892 280.564 326.37 270.182 323.492C260.643 320.847 251.369 319.148 242.403 317.512C231.183 315.455 221.501 313.675 212.242 310.426C202.947 307.151 183.762 304.825 184.905 296.621L184.881 296.63Z" stroke="#BDDC8A" stroke-width="0.75" stroke-miterlimit="10"/>
<path d="M261.019 302.405C260.295 299.501 261.944 297.382 264.356 295.647C269.894 291.685 277.644 291.071 284.113 289.652C293.076 287.688 302.669 287.78 311.185 284.002C315.507 282.083 318.258 279.425 321.151 275.821C323.777 272.559 325.353 271.278 328.959 274.658C336.885 282.076 320.792 292.905 318.071 305.383C316.977 310.387 325.445 329.726 315.559 330.905C314.52 331.028 313.51 330.598 312.609 330.061C309.048 327.951 306.669 324.407 303.341 322.009C299.733 319.402 295.785 316.825 291.903 314.616C287.203 311.947 282.342 309.541 277.311 307.522C274.902 306.562 272.254 305.283 269.693 304.798C265.782 304.062 263.187 308.369 261.238 303.151C261.146 302.9 261.059 302.662 261.007 302.41L261.019 302.405Z" stroke="#BDDC8A" stroke-width="0.75" stroke-miterlimit="10"/>
<path d="M774.754 472.227C786.127 459.266 790.047 438.293 806.344 432.576C815.619 429.319 825.727 432.446 835.485 433.508C874.838 437.814 907.482 404.006 912.433 366.123C915.121 345.519 903.648 328.443 905.56 308.57C907.68 286.712 922.754 267.915 930.943 248.103C937.047 233.359 939.905 217.297 939.284 201.383C937.999 169.031 908.953 114.497 868.03 125.593C855.404 129.02 845.311 139.333 840.272 151.359C828.312 179.93 840.035 232.675 797.173 241.839C787.477 243.91 776.683 241.683 768.038 246.552C754.012 254.444 754.831 274.564 747.369 288.776C740.338 302.166 725.771 309.986 711.276 314.448C696.781 318.91 681.497 320.845 667.455 326.617C649.043 334.178 632.976 349.113 627.533 368.179C622.085 387.232 629.145 410.052 646.275 420.049C663.404 430.046 688.202 427.394 699.967 443.307C704.581 449.554 706.086 457.521 709.641 464.426C721.347 487.212 757.753 491.567 774.738 472.22L774.754 472.227Z" stroke="#BDDC8A" stroke-width="2" stroke-miterlimit="10"/>
<path d="M640.84 393.898C638.245 386.804 637.918 378.691 639.931 371.645C643.958 357.552 656.074 345.145 672.331 338.468C679.842 335.382 688.026 333.472 696.685 331.456C702.671 330.051 708.861 328.613 715.03 326.709C736.356 320.155 751.074 309.382 758.78 294.688C762.044 288.471 763.921 281.718 765.595 275.744C768.3 266.075 770.234 260.033 774.343 257.717C777.027 256.208 781.382 256.009 786.433 255.787C790.511 255.609 795.119 255.399 799.829 254.394C838.445 246.133 843.068 210.387 846.449 184.276C847.834 173.587 849.147 163.48 852.157 156.272C855.965 147.174 863.326 140.163 871.357 137.983C881.296 135.282 890.658 137.924 899.945 146.064C908.671 153.705 916.522 165.877 921.497 179.48C924.393 187.398 926.137 195.386 926.387 201.956C926.941 215.984 924.393 230.268 919.008 243.273C916.5 249.336 913.197 255.446 909.703 261.923C902.153 275.896 894.356 290.339 892.705 307.408C891.569 319.184 894.199 329.854 896.518 339.269C898.674 348.013 900.707 356.274 899.626 364.536C895.708 394.581 869.561 424.347 836.912 420.785C834.854 420.563 832.683 420.219 830.379 419.843C821.851 418.481 812.192 416.949 802.076 420.501C787.006 425.796 779.693 439.195 773.813 449.958C770.944 455.218 768.227 460.193 765.033 463.825C759.885 469.703 751.196 472.529 741.794 471.405C732.392 470.28 724.666 465.483 721.107 458.566C720.053 456.5 719.125 454.037 718.144 451.43C716.3 446.499 714.199 440.903 710.339 435.68C700.534 422.422 685.531 418.756 672.314 415.534C664.985 413.746 658.057 412.055 652.807 408.993C647.503 405.895 643.241 400.535 640.816 393.907L640.84 393.898Z" stroke="#BDDC8A" stroke-width="0.5" stroke-miterlimit="10"/>
<path d="M654.903 375.039C654.19 373.757 653.679 372.359 653.435 370.878C651.48 358.946 665.604 348.174 675.233 344.219C681.296 341.73 688.393 340.069 696.613 338.145C702.915 336.68 709.436 335.148 716.255 333.06C731.105 328.495 745.509 321.452 756.87 310.716C769.382 298.909 772.443 283.992 780.024 269.587C781.79 266.234 784.523 263.23 788.094 261.924C793.278 260.028 798.85 261.862 804.109 260.616C809.655 259.305 815.801 256.082 820.75 253.324C833.404 246.272 843.086 235.242 849.358 222.292C859.324 201.708 859.572 178.99 864.135 157.037C865.117 152.318 866.749 146.969 871.192 145.086C874.463 143.7 878.347 144.731 881.207 146.812C889.57 152.907 895.498 164.672 898.945 174.095C901.147 180.114 902.517 186.193 902.69 190.775C903.133 202.054 901.091 213.539 896.763 223.991C894.638 229.142 891.556 234.819 888.314 240.838C880.249 255.772 871.119 272.679 869.081 293.613C867.633 308.645 870.805 321.54 873.362 331.898C875.149 339.152 876.693 345.411 876.081 350.104C873.395 370.639 855.75 391.92 834.724 389.631C833.146 389.463 831.218 389.153 829.161 388.822C819.4 387.274 806.083 385.144 791.323 390.326C780.522 394.114 771.872 401.043 764.595 409.689C762.148 412.588 759.13 415.628 757.438 419.037C755.089 423.755 754.981 428.94 751.656 433.325C748.11 437.993 741.328 440.812 736.174 438.012C731.731 435.602 730.103 430.226 728.266 425.536C720.843 406.573 703.487 391.811 683.488 387.481C677.488 386.182 671.252 385.755 665.525 383.571C661.201 381.93 657.088 378.979 654.895 375.056L654.903 375.039Z" stroke="#BDDC8A" stroke-width="0.5" stroke-miterlimit="10"/>
<path d="M675.133 365.784C674.774 364.805 674.604 363.784 674.639 362.769C674.936 353.548 686.181 350.234 689.883 349.137C695.495 347.49 701.06 347.229 706.444 346.993C711.334 346.775 715.942 346.565 720.017 345.305C738.627 339.581 754.011 331.071 765.719 319.991C771.597 314.442 776.801 307.529 781.174 299.457C782.094 297.753 782.929 295.335 783.825 292.786C785.649 287.556 787.702 281.619 791.983 277.738C796.422 273.731 801.655 273.009 805.858 272.433C807.369 272.232 808.8 272.034 810.021 271.709C815.117 270.387 820.668 268.018 826.999 264.483C838.089 258.301 843.41 246.565 849.587 232.986C850.93 230.03 852.31 226.993 853.783 223.949C853.879 223.766 864.377 205.194 875.387 205.012C879.287 204.94 882.622 207.024 884.548 210.734C884.769 211.154 884.959 211.599 885.121 212.041C886.387 215.504 885.709 218.907 885.301 220.938C885.053 222.221 884.816 223.499 884.579 224.777C883.441 231.03 882.26 237.501 878.749 243.673C876.934 246.855 874.909 249.871 872.942 252.784C871.592 254.794 870.307 256.686 869.108 258.628C861.193 271.38 857.098 282.099 856.243 292.35C854.574 309.629 858.188 324.286 860.819 334.995C863.813 347.143 864.177 363.462 848.84 372.213C838.174 378.294 825.826 376.446 815.915 374.967C805.801 373.453 798.247 374.307 787.052 378.239C778.473 381.255 770.567 386.367 762.875 393.879C762.245 394.489 760.972 396.119 759.746 397.691C754.582 404.265 748.164 412.449 740.586 413.054C737.508 413.3 734.548 412.243 732.25 410.105C729.604 407.647 728.366 404.633 727.409 402.017L726.876 400.56L726.654 399.951C724.051 393.131 717.181 386.937 705.641 381.003C704.771 380.549 701.227 379.449 698.641 378.634C688.588 375.473 681.186 372.967 677.494 369.389C676.38 368.307 675.573 367.099 675.097 365.797L675.133 365.784Z" stroke="#BDDC8A" stroke-width="0.5" stroke-miterlimit="10"/>
<path d="M682.03 364.763C681.401 364.154 681.058 363.548 681.081 362.944C681.223 358.559 688.494 356.225 691.697 355.283C701.503 352.401 712.254 354.399 721.92 351.432C741.491 345.411 757.721 336.401 770.17 324.644C776.965 318.232 782.431 310.668 786.873 302.489C790.058 296.612 791.478 286.871 796.344 282.478C800.598 278.634 806.466 279.277 811.657 277.92C818.05 276.259 824.413 273.295 830.157 270.084C845.824 261.347 851.328 243.817 859.604 226.721C861.092 223.645 874.345 205.053 878.836 213.702C879.785 215.521 879.41 217.716 879.006 219.719C877.555 227.007 876.796 234.149 873.17 240.526C870.295 245.586 866.731 250.315 863.651 255.26C856.705 266.44 850.956 278.562 849.835 291.823C848.07 310.098 851.831 325.377 854.583 336.53C857.371 347.819 857.281 360.011 845.677 366.639C837.164 371.499 826.607 370.066 816.933 368.608C804.929 366.811 796.207 368.213 784.964 372.163C774.789 375.736 766.065 381.797 758.404 389.285C754.265 393.331 743.293 411.534 736.695 405.377C734.541 403.375 733.75 400.361 732.705 397.615C728.739 387.217 718.168 380.157 708.649 375.27C704.696 373.236 686.425 369.005 682.026 364.751L682.03 364.763Z" stroke="#BDDC8A" stroke-width="0.5" stroke-miterlimit="10"/>
<path d="M717.784 363.156C718.009 362.586 718.507 361.984 719.369 361.344C720.846 360.235 722.889 360.49 724.724 360.658C737.412 361.88 747.829 356.229 758.693 350.576C768.372 345.533 777.452 339.3 785.395 331.805C791.319 326.199 796.411 319.759 800.721 312.848C804.739 306.396 805.864 297.291 810.996 291.812C815.171 287.347 820.66 287.952 826.007 286.579C832.94 284.801 839.917 281.369 844.755 276.011C846.135 274.491 847.561 272.724 849.587 272.416C851.073 272.184 852.663 272.902 853.476 274.162C856.454 278.787 848.665 289.516 847.686 294.614C844.802 309.643 849.151 324.273 852.716 338.758C856.271 353.178 851.173 356.086 848.719 357.484C843.131 360.679 834.375 359.359 826.654 358.202C811.853 355.979 801.172 358.207 789.714 362.235C782.227 364.865 775.291 368.783 768.842 373.363C763.749 376.986 756.5 390.632 750.717 391.556C747.902 392.003 745.052 390.541 743.18 388.423C740.547 385.445 739.758 381.509 737.131 378.475C733.885 374.707 729.852 371.308 725.37 369.088C723.419 368.122 716.553 366.193 717.78 363.144L717.784 363.156Z" stroke="#BDDC8A" stroke-width="0.5" stroke-miterlimit="10"/>
<path d="M744.23 371.303C744.536 370.067 745.355 368.901 746.74 368.096C762.303 359.113 778.252 353.334 791.708 340.626C797.555 335.103 802.729 328.85 806.994 322.037C809.124 318.644 811.025 315.105 812.686 311.465C815.905 304.383 817.749 299.281 825.989 296.525C828.97 295.529 832.663 295.966 834.644 298.383C836.02 300.073 836.328 302.357 836.58 304.526C837.718 314.116 838.848 323.723 839.987 333.313C840.466 337.362 841.55 341.177 842.26 345.007C842.91 348.452 843.097 351.295 838.035 350.709C821.55 348.804 806.382 347.649 790.188 352.611C780.546 355.569 771.383 360.098 763.215 366.011C759.373 368.797 755.337 374.498 751.218 376.451C747.741 378.089 743.092 375.781 744.221 371.279L744.23 371.303Z" stroke="#BDDC8A" stroke-width="0.5" stroke-miterlimit="10"/>
<path d="M1188.76 870.602C1200.23 856.902 1206.06 839.426 1209.92 822.035C1230.03 731.446 1202.19 636.459 1158.09 555.004C1148.86 537.947 1138.46 520.788 1122.73 509.415C1103.65 495.636 1077.51 492.075 1055.32 500.26C1015.27 515.032 1011.17 570.016 973.11 582.325C949.159 590.069 922.315 585.535 900.806 601.066C889.13 609.494 882.403 624.791 868.714 629.31C852.671 634.61 836.297 622.346 819.442 621.429C782.896 619.468 756.867 669.583 720.909 662.899C709.9 660.859 700.702 653.594 690.376 649.314C680.05 645.035 666.09 644.778 659.661 653.928C648.173 670.275 672.98 689.529 673.049 709.449C673.102 724.216 659.392 735.784 656.969 750.373C654.172 767.158 668.126 783.394 684.619 787.801C701.108 792.196 718.845 787.158 733.949 779.142C746.609 772.439 758.372 763.397 766.005 751.317C778.142 732.118 781.703 704.019 803.177 696.462C823.799 689.204 847.198 707.347 867.559 699.413C887.374 691.691 893.317 663.33 913.566 656.831C921.455 654.297 930.199 655.771 937.708 659.198C969.986 673.959 976.076 717.079 971.641 752.228C967.21 787.389 957.202 825.036 973.031 856.686C987.348 885.315 1023.11 901.375 1054.25 893.153C1071.48 888.612 1087.7 877.546 1105.39 879.416C1118.01 880.745 1129.08 888.584 1141.6 890.652C1159.23 893.574 1177.31 884.269 1188.78 870.581L1188.76 870.602Z" stroke="#BDDC8A" stroke-width="0.5" stroke-miterlimit="10"/>
<path d="M671.799 763.675C670.847 761.071 670.572 758.504 670.983 756.038C671.714 751.668 674.479 746.825 677.42 741.687C682.046 733.604 687.281 724.445 687.243 712.976C687.23 708.093 686.244 703.064 684.244 697.594C682.243 692.125 679.657 687.275 677.113 682.505C675.024 678.57 673.042 674.854 671.858 671.618C670.115 666.853 670.954 665.666 671.502 664.869C673.318 662.282 680.546 662.238 686.674 664.777C689.85 666.093 693.096 667.858 696.537 669.714C703.227 673.346 710.825 677.459 719.788 679.123C743.919 683.607 763.355 669.295 780.506 656.657C794.128 646.624 806.993 637.152 819.988 637.843C825 638.108 830.613 639.942 836.575 641.877C847.702 645.498 860.337 649.611 874.037 645.087C885.622 641.256 892.969 632.8 899.431 625.332C902.908 621.325 906.182 617.541 909.654 615.039C920.314 607.349 933.114 605.768 947.934 603.935C957.843 602.708 968.106 601.445 978.349 598.132C1001.79 590.547 1014.43 570.489 1025.57 552.791C1035.61 536.851 1045.1 521.788 1061.06 515.896C1079.15 509.226 1100.89 512.174 1116.44 523.411C1130.45 533.535 1140.11 550.044 1148.07 564.735C1161.04 588.683 1171.98 612.803 1180.61 636.39C1205.16 703.509 1211.23 766.27 1198.66 822.92C1195.92 835.213 1191.05 853.055 1180.19 866.017C1170.61 877.454 1156.84 883.577 1145.07 881.624C1140.59 880.88 1135.81 878.947 1130.75 876.908C1124.11 874.22 1116.58 871.179 1108.1 870.285C1093.21 868.704 1079.83 874.06 1068.04 878.778C1062.55 880.976 1057.36 883.049 1052.3 884.386C1027.21 891.005 997.411 877.625 985.874 854.56C984.858 852.522 983.939 850.38 983.144 848.206C975.36 826.924 979.1 802.239 983.063 776.092C983.988 769.958 984.947 763.622 985.741 757.388C988.764 733.371 986.768 710.107 980.102 691.883C973.086 672.702 960.759 658.62 944.447 651.154C933.129 645.978 921.239 644.937 910.963 648.236C896.589 652.843 888.242 664.264 880.865 674.342C875.478 681.715 870.373 688.674 864.211 691.077C857.695 693.623 849.232 691.586 839.436 689.238C827.53 686.376 814.019 683.126 800.224 687.982C780.18 695.043 772.243 713.585 765.234 729.96C762.377 736.624 759.682 742.918 756.389 748.13C750.78 757.006 741.637 764.846 729.219 771.433C718.782 776.956 703.373 782.768 689.296 779.008C681.541 776.943 674.342 770.625 671.795 763.663L671.799 763.675Z" stroke="#BDDC8A" stroke-miterlimit="10"/>
<path d="M676.129 759.777C675.95 756.661 678.236 753.509 680.101 750.24C684.099 743.253 687.924 736.127 690.239 728.388C693.533 717.366 692.121 709.433 689.731 698.419C689.151 695.76 688.612 692.843 689.915 690.444C691.523 687.473 695.496 686.453 698.801 687.234C705.218 688.746 708.406 692.022 715.425 692.257C724.011 692.556 732.28 691.102 740.275 687.934C756.618 681.455 770.047 669.489 784.02 659.192C795.593 650.667 809.447 647.008 817.401 647.43C820.592 647.603 825.831 649.302 830.903 650.954C839.233 653.662 849.054 652.155 857.655 653.978C864.658 655.465 871.444 660.986 865.936 668.065C860.14 675.506 850.481 671.754 843.116 669.98C828.876 666.549 813.495 668.736 794.096 675.56C776.282 681.832 758.004 694.868 749.738 712.326C742.584 727.454 735.293 742.985 722.013 753.84C713.217 761.038 690.652 773.72 679.569 765.221C677.199 763.407 676.249 761.588 676.152 759.769L676.129 759.777Z" stroke="#BDDC8A" stroke-miterlimit="10"/>
<path d="M694.662 753.58C693.3 747.118 700.653 738.457 702.595 731.992C704.832 724.485 698.996 708.272 708.17 704.144C710.867 702.928 723.248 703.572 727.098 703.288C733.373 702.821 739.057 702.664 738.127 710.858C736.773 722.741 722.618 736.76 713.823 743.958C708.454 748.345 701.834 753.421 694.669 753.563L694.662 753.58Z" stroke="#BDDC8A" stroke-miterlimit="10"/>
<path d="M654.328 855.806C647.85 838.095 655.875 822.905 666.705 817.603C672.032 814.991 677.747 814.512 681.585 814.381C692.36 814.001 703.289 815.894 713.859 817.729C731.847 820.858 748.838 823.81 762.068 815.004C772.378 808.132 777.541 795.817 782.994 782.774C784.24 779.813 785.515 776.747 786.853 773.779C797.383 750.443 814.103 737.516 831.58 739.208C836.942 739.725 841.786 741.568 846.456 743.34C852.212 745.527 857.171 747.423 861.661 746.336C865.281 745.459 868.647 742.521 872.223 739.413C873.71 738.111 875.264 736.77 876.897 735.496C890.548 724.951 909.07 722.577 922.999 729.601C929.111 732.687 933.419 737.543 935.791 744.028C940.444 756.747 936.88 773.474 933.425 789.645C931.082 800.604 928.871 810.958 929.629 818.25C930.07 822.49 930.601 826.832 931.125 831.041C933.088 846.883 935.122 863.254 932.66 879.659C930.356 895.017 920.448 914.24 906.809 929.817C881.433 958.8 851.199 967.395 827.909 952.217C813.919 943.103 807.95 927.006 802.683 912.792C802.124 911.264 801.558 909.751 800.983 908.255C794.089 890.073 785.23 879.881 774.658 877.966C769.583 877.047 764.015 878.041 758.127 879.084L757.187 879.252C737.79 882.677 721.932 884.077 707.292 883.663C685.888 883.043 670.701 877.508 660.872 866.736C658.046 863.64 655.848 859.962 654.324 855.794L654.328 855.806Z" stroke="#BDDC8A" stroke-width="0.5" stroke-miterlimit="10"/>
<path d="M899.1 925.324C912.041 910.543 921.313 892.542 923.428 878.444C926.399 858.617 922.415 838.545 920.347 818.638C917.842 794.464 942.465 747.761 917.198 735.026C904.8 728.782 888.97 731.742 877.96 740.252C872.269 744.648 867.271 750.566 860.279 752.257C849.433 754.883 839.137 746.354 828.046 745.279C810.626 743.594 797.036 760.155 789.849 776.081C782.669 791.991 777.317 810.305 762.752 820.02C738.964 835.87 707.464 819.457 678.913 820.476C674.718 820.629 670.429 821.196 666.653 823.051C652.951 829.755 652.57 850.923 662.79 862.134C673.011 873.344 689.401 876.544 704.64 876.968C720.911 877.435 737.18 875.492 753.231 872.655C759.767 871.496 766.456 870.2 772.979 871.376C788.969 874.261 798.428 890.57 804.16 905.684C809.891 920.798 815.022 937.715 828.59 946.564C852.536 962.165 879.853 947.299 899.088 925.328L899.1 925.324Z" stroke="#BDDC8A" stroke-width="0.5" stroke-miterlimit="10"/>
<path d="M672.506 849.159C670.597 843.94 671.231 836.789 675.182 834.856C676.673 834.121 678.975 833.712 682.21 833.599C690.963 833.281 700.437 834.935 710.461 836.685C730.443 840.154 753.09 844.098 772.785 830.977C787.962 820.863 794.807 804.52 800.844 790.112C802.085 787.139 803.263 784.325 804.5 781.598C809.623 770.246 819.288 757.354 829.648 758.358C832.416 758.632 835.857 759.933 839.494 761.324C846.775 764.091 855.826 767.551 866.173 765.039C874.407 763.043 880.238 757.958 884.924 753.888C886.27 752.719 887.534 751.62 888.726 750.697C896.455 744.728 906.945 743.126 914.22 746.802C915.98 747.688 916.933 748.775 917.64 750.71C920.401 758.258 917.283 772.871 914.533 785.752C911.869 798.236 909.353 810.015 910.42 820.336C910.874 824.76 911.433 829.214 911.964 833.515C913.852 848.748 915.644 863.123 913.573 876.933C911.812 888.667 903.451 904.494 892.29 917.256C883.387 927.418 873.373 934.913 864.066 938.344C854.556 941.849 846.224 941.133 838.581 936.156C829.905 930.501 825.508 918.664 820.864 906.117C820.288 904.541 819.704 902.981 819.116 901.449C809.666 876.538 795.91 862.287 778.237 859.097C769.74 857.56 761.831 858.964 754.851 860.203L753.922 860.367C735.851 863.565 721.245 864.872 707.957 864.492C692.291 864.048 681.281 860.451 675.244 853.831C674.118 852.604 673.178 850.998 672.519 849.195L672.506 849.159Z" stroke="#BDDC8A" stroke-width="0.5" stroke-miterlimit="10"/>
<path d="M800.45 839.123C799.017 826.58 812.952 818.775 818.068 808.143C822.456 799.037 823.505 784.543 833.067 779.367C844.562 773.145 861.652 783.59 875.791 778.377C882.881 775.771 892.019 774.284 896.95 779.954C904.158 788.259 894.904 809.937 896.008 820.582C896.487 825.187 897.044 829.708 897.589 834.086C899.394 848.645 900.951 861.156 899.271 872.373C897.078 886.959 877.302 920.407 859.467 917.033C852.53 915.724 847.083 910.053 844.175 903.655C837.61 889.225 836.764 878.879 825.933 866.036C818.835 857.624 803.393 852.575 800.759 840.932C800.617 840.321 800.515 839.708 800.45 839.123Z" stroke="#BDDC8A" stroke-miterlimit="10"/>
<path d="M820.693 835.9C818.97 829.896 824.854 826.213 828.545 822.088C833.518 816.545 837.408 809.855 838.801 802.521C839.754 797.501 841.527 791.87 846.214 789.803C848.371 788.852 850.805 788.842 853.158 788.834C863.196 788.845 873.229 788.845 883.267 788.857C894.685 788.865 893.299 797.442 891.418 805.699C888.59 818.107 890.264 830.237 891.835 842.675C894.22 861.45 892.511 880.138 879.532 895.149C876.349 898.845 871.108 901.25 866.481 899.706C859.648 897.425 858.016 888.855 856.206 881.907C852.627 868.159 844.022 855.776 832.368 847.608C828.254 844.726 823.56 842.11 821.334 837.616C821.035 837.021 820.813 836.452 820.664 835.897L820.693 835.9Z" stroke="#BDDC8A" stroke-miterlimit="10"/>
<path d="M848.604 831.948C847.971 825.775 850.979 819.597 853.906 813.977C856.44 809.096 859.095 804.063 863.392 800.596C879.88 787.294 882.313 808.015 883.382 819.228C884.486 830.835 886.314 842.718 885.215 854.413C884.917 857.596 884.626 866.869 880.324 867.36C876.382 867.799 862.513 851.207 859.347 848.289C854.871 844.158 850.17 839.635 848.876 833.691C848.746 833.115 848.657 832.538 848.597 831.965L848.604 831.948Z" stroke="#BDDC8A" stroke-miterlimit="10"/>
<path d="M643.347 312.24C643.638 311.849 643.933 311.471 644.239 311.088C654.969 297.332 665.913 288.604 682.339 281.757C700.795 274.058 721.397 267.227 732.471 250.638C741.772 236.714 742.648 218.006 753.845 205.529C763.351 194.943 778.105 191.226 791.451 186.25C818.297 176.241 834.984 148.418 828.855 119.814C825.386 103.629 809.227 76.4057 796.229 64.8571C775.868 46.7667 747.912 54.5548 724.044 58.5999C678.596 66.2862 641.905 25.0566 597.37 41.3458C574.681 49.4282 555.842 67.7064 547.144 90.0885C543.436 99.6096 541.508 109.997 543.054 120.074C547.312 147.818 576.552 168.158 576.426 196.247C576.357 210.977 567.734 224.68 556.503 234.326C544.828 244.351 528.9 247.929 521.018 260.845C515.975 269.122 514.029 283.943 511.103 293.34C507.989 303.375 490.833 344.504 502.931 352.888C514.25 360.732 539.976 347.328 552.477 344.746C585.946 337.812 621.913 340.377 643.332 312.272L643.347 312.24Z" stroke="#BDDC8A" stroke-width="0.5" stroke-miterlimit="10"/>
<path d="M525.322 327.812C517.413 313.481 532.285 280.432 542.341 270.241C552.261 260.194 564.584 252.681 574.198 242.354C588.721 226.751 596.208 204.907 594.254 183.794C591.161 150.275 551.709 131.557 565.184 96.948C571.886 79.6966 586.338 65.6769 603.839 59.4382L603.994 59.3814C621.263 53.0649 638.388 59.2723 658.231 66.435C682.218 75.1153 705.712 80.9293 731.322 76.4637C742.819 74.4658 754.469 71.8158 766.039 73.2032C788.562 75.9194 801.275 99.1632 808.352 118.511C809.287 121.066 809.744 122.835 809.971 123.863C819.69 169.352 763.645 166.832 741.233 189.667C727.485 203.687 726.356 226.144 713.929 241.332C691.555 268.675 652.055 269.745 629.001 299.301C628.659 299.737 628.31 300.19 627.961 300.642C615.542 316.924 591.353 325.312 572.29 330.131C561.83 332.779 549.796 335.529 538.935 334.451C531.391 333.703 527.281 331.279 525.333 327.767L525.322 327.812Z" stroke="#BDDC8A" stroke-width="3" stroke-miterlimit="10"/>
<path d="M547.221 310.719C542.479 305.046 545.155 294.779 556.091 283.697C559.984 279.754 564.624 276.04 569.535 272.104C575.811 267.087 582.29 261.887 588.338 255.396C606.529 235.865 615.93 208.406 613.488 181.961C612.957 176.251 611.634 170.452 609.551 164.755C605.532 153.768 599.244 144.463 593.704 136.239C589.279 129.693 585.101 123.49 583.052 117.888C581.213 112.86 581.256 108.796 583.188 103.824C587.892 91.7314 598.015 81.9082 610.268 77.535L610.567 77.4258C620.694 73.7215 632.152 77.5059 651.521 84.5174C670.076 91.2305 689.376 96.5744 709.255 97.1705C729.5 97.768 750.953 85.8593 769.915 95.944C780.927 101.801 795.09 120.533 791.825 134.226C788.962 146.241 775.214 150.078 764.719 154.444C752.122 159.689 737.835 165.645 727.389 176.29C717.279 186.596 712.541 198.999 708.344 209.959C705.479 217.452 702.77 224.522 698.908 229.252C690.787 239.183 678.683 244.923 664.661 251.568C647.652 259.631 628.356 268.774 613.693 287.584C613.332 288.041 612.948 288.546 612.537 289.089C602.898 301.755 584.309 311.276 568.925 314.344C557.974 316.535 550.623 314.836 547.185 310.732L547.221 310.719Z" stroke="#BDDC8A" stroke-width="0.5" stroke-miterlimit="10"/>
<path d="M551.674 305.718C550.56 302.673 552.912 296.071 560.698 288.186C564.325 284.517 568.815 280.911 573.585 277.109C580.038 271.945 586.722 266.603 593.078 259.769C612.494 238.923 622.529 209.607 619.931 181.364C619.347 175.105 617.909 168.766 615.637 162.556C611.357 150.852 604.846 141.196 599.092 132.684C594.889 126.449 590.925 120.574 589.143 115.701C587.841 112.142 587.862 109.643 589.233 106.136C593.266 95.7643 601.949 87.3344 612.458 83.599L612.757 83.4898C620.83 80.5368 631.372 84.0741 649.334 90.5711C672.788 99.0536 691.209 103.067 709.074 103.601C717.135 103.834 725.113 102.324 732.831 100.842C745.174 98.4939 756.817 96.2665 766.901 101.623C772.87 104.802 781.079 113.621 784.473 122.9C785.853 126.674 786.249 130.09 785.599 132.792C783.995 139.513 777.015 142.716 766.542 146.845C765.086 147.418 763.666 147.978 762.291 148.549C749.117 154.031 734.182 160.252 722.822 171.84C711.774 183.098 706.77 196.181 702.364 207.718C699.694 214.707 697.169 221.317 693.955 225.228C686.751 234.037 675.254 239.475 661.951 245.789C644.282 254.161 624.26 263.651 608.647 283.674C608.278 284.148 607.863 284.679 607.445 285.238C599.581 295.575 583.245 304.962 567.721 308.054C558.649 309.869 553.675 308.412 552.178 306.617C551.957 306.346 551.784 306.057 551.662 305.722L551.674 305.718Z" stroke="#BDDC8A" stroke-width="0.5" stroke-miterlimit="10"/>
<path d="M632.749 180.127C632.074 172.764 630.383 165.367 627.728 158.105C625.094 150.904 621.669 143.355 617.496 136.906C613.849 131.267 608.397 126.653 605.382 120.484C602.603 114.812 602.081 107.609 605.705 102.411C608.807 97.9728 614.439 95.7502 619.859 95.6499C628.395 95.4795 637.004 99.7647 644.871 102.615C669.667 111.582 689.33 115.845 708.629 116.409C718.115 116.69 727.189 114.956 735.203 113.433C745.67 111.432 754.696 109.715 760.771 112.923C766.164 115.784 773.805 122.793 770.552 129.521C767.155 136.559 756.519 137.727 750.009 140.068C741.047 143.292 732.607 147.909 725.004 153.628C714.365 161.636 705.342 171.801 698.809 183.371C693.03 193.596 691.397 208.086 683.975 217.151C678.612 223.703 668.341 228.57 656.443 234.208C638.406 242.755 635.681 211.945 632.737 180.132L632.749 180.127Z" stroke="#BDDC8A" stroke-width="0.5" stroke-miterlimit="10"/>
<path d="M650.347 222.87L653.001 218.65C652.742 218.46 652.502 218.25 652.266 218.011C650.421 216.113 650.009 213.285 649.684 210.655C648.41 200.248 646.625 189.852 645.639 179.421L645.596 178.895C643.675 158.501 635.779 138.803 622.174 123.374C620.506 121.479 618.717 119.588 617.776 117.237C616.847 114.883 616.991 111.905 618.864 110.178C621.359 107.857 625.358 108.831 628.58 109.941C642.865 114.899 657.152 120.79 671.702 124.919C682.021 127.848 697.47 130.362 708.214 129.195C717.221 129.461 724.848 125.25 733.318 123.086C738.198 121.843 743.485 121.561 748.436 122.512C749.658 122.742 754.623 123.472 755.136 124.801C756.63 128.736 743.192 132.866 740.688 133.647C732.585 136.15 724.18 138.195 717.29 143.383C705.186 152.495 694.923 164.157 687.609 177.109C684.559 182.504 682.626 188.288 680.756 193.874C677.371 203.981 672.06 213.859 662.02 218.912C659.197 220.337 655.5 220.484 653.029 218.653L650.347 222.87Z" stroke="#BDDC8A" stroke-width="0.5" stroke-miterlimit="10"/>
<path d="M587.036 293.002C590.091 290.138 592.25 286.491 595.012 283.341C600.534 277.043 608.187 273.052 614.705 267.77C618.896 264.382 619.329 260.717 621.099 256.116C621.386 255.347 621.722 254.561 621.678 253.738C621.634 252.914 621.102 252.052 620.278 251.947C619.499 251.853 618.816 252.428 618.252 252.96C615.874 255.197 613.542 257.336 610.944 259.302C596.905 269.934 579.461 276.586 568.464 290.316C566.67 292.557 565.189 296.132 567.378 297.971C568.223 298.691 569.399 298.871 570.52 298.935C576.521 299.312 582.656 297.095 587.031 292.99L587.036 293.002Z" stroke="#BDDC8A" stroke-width="0.5" stroke-miterlimit="10"/>
<path d="M899.623 500.283C908.054 495.642 912.962 486.589 916.661 477.748C921.123 467.07 924.536 455.558 923.239 444.09C922.511 437.694 918.522 427.048 909.944 430.213C907.926 430.951 906.27 432.423 904.666 433.849C896.999 440.689 889.71 452.671 877.929 450.561C872.943 449.663 868.406 447.18 863.563 445.674C854.137 442.744 843.536 443.711 834.77 448.325C822.898 454.59 803.704 475.043 822.553 484.113C834.841 490.018 849.661 479.005 861.946 488.417C864.637 490.48 866.61 493.32 869.012 495.704C876.844 503.455 889.905 505.624 899.606 500.275L899.623 500.283Z" stroke="#BDDC8A" stroke-miterlimit="10"/>
<path d="M820.529 476.43C818.943 472.095 826.798 461.03 837.002 455.646C844.186 451.854 853.098 451.045 860.843 453.452C862.451 453.961 864.095 454.605 865.837 455.295C868.991 456.552 872.259 457.861 875.996 458.526C891.343 461.28 897.896 448.322 907.634 440.034C909.141 438.752 911.273 438.026 913.119 438.705C915.9 439.719 915.791 444.011 916.071 446.481C917.335 457.636 913.188 469.214 909.952 476.951C907.036 483.935 902.784 492.45 895.751 496.322C888.774 500.161 878.704 498.617 872.811 492.797C872.069 492.066 871.325 491.215 870.534 490.313C869.028 488.602 867.315 486.656 865.134 484.989C856.293 478.217 846.557 479.476 838.726 480.499C833.207 481.217 828.437 481.838 824.606 479.989C823.064 479.254 821.102 478.035 820.517 476.435L820.529 476.43Z" stroke="#BDDC8A" stroke-miterlimit="10"/>
<path d="M834.765 469.154C834.344 468.373 834.59 467.268 835.217 466.578C837.461 464.16 843.052 462.751 846.144 461.837C850.212 460.633 854.415 460.314 858.495 461.584C859.717 461.963 861.097 462.515 862.713 463.156C866.201 464.548 870.132 466.116 874.9 466.972C889.838 469.646 899.451 450.504 906.272 455.01C908.38 456.405 909.127 458.596 908.163 460.993C907.607 462.361 906.667 463.531 905.772 464.711C903.059 468.29 900.725 472.163 898.827 476.229C897.191 479.752 895.126 483.73 891.566 485.696C888.604 487.334 883.501 486.452 880.871 483.853C880.383 483.368 879.759 482.662 879.106 481.912C877.458 480.037 875.212 477.487 872.233 475.191C867.452 471.524 861.816 469.144 855.839 468.243C850.263 467.398 844.158 466.625 838.885 469.163C837.663 469.746 836.106 470.451 835.086 469.551C834.95 469.438 834.846 469.3 834.761 469.142L834.765 469.154Z" stroke="#BDDC8A" stroke-miterlimit="10"/>
<path d="M1040.95 1077.99C1058.3 1065.22 1074.95 1051.36 1089.2 1035.26C1099.26 1023.89 1108.28 1011.01 1111.62 996.254C1114.66 982.765 1112.74 968.736 1110.79 955.054C1104.88 913.442 1050.33 948.112 1027.3 946.46C1008.47 945.13 990.372 935.676 978.619 921.018C974.312 915.647 970.633 909.437 964.674 905.956C958.716 902.475 949.426 903.287 946.693 909.622C945.607 912.132 945.761 914.959 945.465 917.667C943.819 932.677 929.017 942.518 915.043 948.442C901.081 954.361 885.378 959.333 876.829 971.83C871.444 979.69 869.625 989.712 863.409 996.928C852.616 1009.47 832.934 1009.31 819.287 1018.71C807.296 1026.98 801.478 1044.51 809.088 1056.84C819.035 1072.93 843.069 1071.66 860.999 1065.27C878.935 1058.88 897.955 1049.25 915.989 1055.2C936.992 1062.13 946.669 1087.22 966.494 1096.96C978.574 1102.88 993.124 1102.27 1005.92 1097.97C1018.71 1093.67 1030.08 1085.98 1040.95 1077.99Z" stroke="#BDDC8A" stroke-width="0.5" stroke-miterlimit="10"/>
<path d="M813.167 1050.55C809.973 1041.82 814.36 1029.9 822.935 1023.99C827.964 1020.52 834.201 1018.47 840.796 1016.29C850.683 1013.04 860.905 1009.67 868.289 1001.09C872.383 996.329 874.721 990.91 876.975 985.672C878.589 981.94 880.1 978.408 882.138 975.429C888.418 966.24 899.699 961.653 911.647 956.782C913.628 955.976 915.596 955.175 917.527 954.347C938.368 945.505 950.227 933.057 951.845 918.342C951.938 917.523 951.991 916.705 952.043 915.887C952.145 914.387 952.232 912.96 952.595 912.137C952.697 911.897 953.021 911.155 954.484 910.675C956.552 909.999 959.382 910.332 961.362 911.489C964.873 913.536 967.652 917.246 970.589 921.168C971.569 922.475 972.543 923.77 973.545 925.029C986.35 941.008 1006.25 951.412 1026.79 952.866C1034.94 953.459 1045.45 950.428 1056.57 947.214C1081.35 940.073 1097.95 936.423 1102.99 950.193C1103.61 951.877 1104.07 953.818 1104.38 955.994C1106.22 968.955 1108.13 982.353 1105.3 994.886C1102.72 1006.31 1096.06 1017.8 1084.34 1031.04C1072.14 1044.83 1057.12 1058.11 1037.1 1072.84C1027.55 1079.87 1016.33 1087.71 1003.85 1091.91C991.356 1096.11 978.781 1095.86 969.338 1091.22C961.249 1087.25 954.847 1080.11 948.08 1072.57C939.62 1063.13 930.882 1053.39 918.006 1049.13C900.622 1043.4 882.867 1050.16 867.2 1056.12C864.299 1057.23 861.565 1058.27 858.81 1059.25C842.205 1065.16 822.08 1065.67 814.542 1053.46C813.976 1052.55 813.498 1051.57 813.126 1050.55L813.167 1050.55Z" stroke="#BDDC8A" stroke-width="0.5" stroke-miterlimit="10"/>
<path d="M830.618 1035.63C831.053 1033.86 832.244 1032.19 833.8 1031.04C836.727 1028.9 840.781 1028.43 844.14 1027.32C855.402 1023.61 869.398 1019 880.304 1006.32C890.478 994.49 890.521 980.649 905.623 972.444C914.895 967.401 925.454 964.284 933.218 957.152C940.221 950.717 944.738 941.225 953.437 937.353C964.625 932.367 977.45 938.888 987.108 946.337C997.518 954.364 1006.77 961.933 1020.21 963.87C1035.71 966.109 1051.16 962.271 1065.09 955.404C1069.11 953.416 1073.27 951.084 1077.74 951.373C1091.06 952.255 1088.7 970.165 1086.66 978.806C1084.24 989.062 1074.89 999.764 1068.57 1007.97C1053.57 1027.43 1035.09 1044.23 1014.19 1057.23C1004.66 1063.15 993.796 1068.46 982.688 1066.93C968.83 1065.03 958.852 1053.3 949.663 1042.83C938.123 1029.68 926.971 1023.7 909.867 1020.99C892.128 1018.18 874.052 1024.69 857.733 1030.91C850.153 1033.8 838.634 1037.11 830.609 1035.6L830.618 1035.63Z" stroke="#BDDC8A" stroke-width="3" stroke-miterlimit="10"/>
<path d="M790.319 1106.07C800.484 1094.88 806.742 1077.71 801.319 1064.36C797.365 1054.63 788.803 1046.95 786.503 1036.7C783.204 1022.05 793.487 1008.15 797.745 993.73C804.672 970.209 795.265 945.228 784.313 923.357C782.17 919.09 779.22 914.32 774.448 913.858C770.603 913.491 767.148 916.149 764.452 918.923C754.72 928.928 748.867 942.578 748.351 956.456C747.892 968.716 751.427 980.896 750.489 993.141C748.593 1017.87 727.587 1038.7 703.445 1044.96C679.298 1051.2 653.194 1044.69 631.892 1031.92C619.32 1024.38 605.369 1014.26 591.416 1018.95C584.013 1021.44 578.439 1027.89 575.464 1035.09C572.474 1042.27 571.777 1050.18 571.599 1057.95C571.45 1064.61 571.401 1071.96 566.938 1076.93C562.713 1081.63 555.699 1082.82 551.006 1087.05C545.501 1092.03 544.314 1100.08 543.839 1107.44C543.367 1114.77 543.477 1122.78 548.001 1128.56C550.992 1132.36 555.491 1134.63 559.925 1136.61C578.714 1145 599.709 1150.24 620.009 1146.47C631.842 1144.28 642.881 1139.15 654.135 1134.89C679.848 1125.19 707.239 1119.97 734.695 1119.51C749.517 1119.28 766.044 1121.92 779.613 1114.67C783.416 1112.63 787.091 1109.65 790.355 1106.06L790.319 1106.07Z" stroke="#BDDC8A" stroke-width="0.5" stroke-miterlimit="10"/>
<path d="M558.071 1118.7C556.606 1116.43 555.715 1113.89 555.597 1111.05C555.332 1104.96 558.096 1098.81 562.835 1094.93C565.637 1092.63 569.006 1091.14 572.093 1089.25C582.526 1082.9 584.173 1069.86 584.427 1058.74L584.439 1058.18C584.578 1052.27 585.021 1045.49 587.335 1039.93C589.155 1035.54 592.263 1032.15 595.459 1031.08C602.212 1028.81 611.801 1034.7 621.085 1040.39C622.466 1041.24 623.825 1042.07 625.181 1042.89C651.493 1058.67 681.162 1063.93 706.618 1057.34C737.753 1049.28 761.066 1023.25 763.316 994.042C763.902 986.354 763.075 979.168 762.267 972.22C761.635 966.791 761.032 961.663 761.211 956.858C761.396 951.848 763.075 947.145 765.112 942.608C767.56 937.122 771.366 924.465 777.833 932.593C779.941 935.248 780.271 939.704 780.477 942.932C781.534 959.445 790.478 972.828 785.374 990.158C784.268 993.907 782.572 997.859 780.774 1002.05C776.074 1013 770.732 1025.43 773.925 1039.56C774.29 1041.19 774.779 1042.82 775.373 1044.44C777.54 1050.37 780.878 1055.35 783.825 1059.74C786.062 1063.08 788.177 1066.23 789.369 1069.2C789.421 1069.34 789.474 1069.48 789.522 1069.61C792.23 1077.02 788.461 1089 780.768 1097.47C778.441 1100.03 775.937 1102.07 773.517 1103.38C765.248 1107.79 754.675 1107.36 745.656 1106.69C734.589 1105.86 723.525 1106.26 712.51 1107.65C690.688 1110.41 669.485 1116.74 648.626 1123.57C633.032 1128.69 617.234 1134.15 600.84 1134.56C589.423 1134.85 565.786 1130.61 558.074 1118.67L558.071 1118.7Z" stroke="#BDDC8A" stroke-width="0.5" stroke-miterlimit="10"/>
<path d="M563.002 1113.18C562.53 1111.89 562.297 1110.52 562.341 1109.12C562.474 1105.08 564.925 1101.38 568.069 1098.79C572.993 1094.74 578.591 1093.58 582.624 1088.35C586.102 1083.83 588.263 1078.56 589.459 1073.01C591.363 1064.15 589.308 1054.42 591.656 1045.89C592.715 1042.05 595.576 1038.43 599.492 1037.66C603.22 1036.93 606.933 1038.86 609.995 1041.09C637.473 1061.02 674.449 1072.3 708.203 1063.55C741.973 1054.82 767.278 1026.42 769.731 994.511C770.364 986.209 769.496 978.727 768.651 971.494C768.05 966.297 767.483 961.414 767.635 957.093C767.736 954.443 768.14 945.331 771.415 944.214C777.311 942.193 776.704 958.786 777.47 961.769C779.855 971.065 781.909 979.088 779.177 988.388C778.181 991.772 776.56 995.56 774.841 999.561C769.997 1010.82 763.982 1024.85 767.627 1040.99C768.048 1042.88 768.61 1044.79 769.295 1046.67C771.724 1053.31 775.433 1058.86 778.43 1063.31C780.486 1066.38 782.424 1069.27 783.382 1071.63L783.46 1071.84C785.111 1076.36 782.514 1086.03 775.987 1093.21C774.182 1095.2 772.213 1096.81 770.47 1097.74C763.858 1101.29 754.45 1100.92 746.14 1100.31C735.073 1099.48 723.485 1099.82 711.708 1101.31C689.241 1104.15 667.141 1110.77 646.613 1117.51L644.27 1118.29C630.031 1122.97 615.31 1127.81 600.689 1128.19C591.097 1128.43 578.165 1126.28 569.877 1121.24C566.809 1119.37 564.176 1116.51 562.99 1113.19L563.002 1113.18Z" stroke="#BDDC8A" stroke-width="0.5" stroke-miterlimit="10"/>
<path d="M577.994 1109.12C577.711 1106.02 584.647 1103.51 587.439 1100.89C591.137 1097.41 594.323 1093.39 596.794 1088.96C601.766 1080.05 603.697 1069.6 601.622 1059.59C601.206 1057.6 600.717 1055.3 601.986 1053.7C603.457 1051.84 606.313 1052.09 608.625 1052.6C622.58 1055.62 635.805 1061.24 649.128 1066.34C662.451 1071.45 676.167 1076.11 690.437 1077.07C704.694 1078.03 719.727 1074.93 730.84 1065.92C735.207 1062.39 738.879 1058.02 743.326 1054.6C757.036 1044.03 760.479 1057.37 766.588 1067.85C768.844 1071.72 771.178 1076.22 769.773 1080.48C768.644 1083.87 765.315 1086.17 761.841 1087.08C758.367 1087.98 754.72 1087.75 751.138 1087.58C718.906 1086.05 686.357 1090.57 655.733 1100.84C642.536 1105.26 629.641 1110.76 615.993 1113.51C608.954 1114.92 601.69 1115.83 594.52 1115.36C590.219 1115.08 584.08 1114.4 580.404 1112.05C578.809 1111.02 578.105 1110.06 578.019 1109.16L577.994 1109.12Z" stroke="#BDDC8A" stroke-width="0.5" stroke-miterlimit="10"/>
<path d="M599.384 1102.41C599.326 1102.21 599.304 1102.01 599.31 1101.8C599.38 1100.18 602.232 1098.5 603.238 1097.4C605.438 1095.01 607.366 1092.39 608.946 1089.57C611.302 1085.35 612.251 1080.62 612.745 1075.86C613.075 1072.8 611.785 1064.5 615.161 1062.84C618.434 1061.24 623.617 1065.19 626.595 1066.19C631.189 1067.72 635.724 1069.42 640.228 1071.18C642.015 1071.88 643.797 1072.57 645.579 1073.26C653.532 1076.31 661.694 1078.78 670.039 1080.49C674.005 1081.3 678.773 1082.72 682.845 1082.48C684.705 1082.39 690.426 1079.59 691.439 1082.36C692.129 1084.25 662.15 1088.73 659.748 1089.27C651.222 1091.17 642.755 1095.12 634.335 1097.64C625.792 1100.2 617.181 1102.53 608.508 1104.62C606.718 1105.06 604.856 1105.49 603.052 1105.14C601.785 1104.9 599.796 1103.87 599.376 1102.43L599.384 1102.41Z" stroke="#BDDC8A" stroke-width="0.5" stroke-miterlimit="10"/>
<path d="M614.735 1094.03C613.724 1093.05 615.175 1091.46 616.084 1090.76C620.977 1087.04 620.586 1081.71 621.176 1076.25C621.264 1075.38 621.604 1074.5 622.26 1073.92C623.714 1072.6 625.842 1073.57 627.387 1074.13C629.603 1074.93 631.86 1075.62 634.094 1076.36C636.344 1077.11 638.611 1077.87 640.861 1078.61C642.124 1079.03 643.343 1079.59 644.611 1080.02C645.785 1080.41 647.033 1080.46 648.184 1080.86C648.773 1081.07 649.328 1081.47 649.554 1082.06C649.961 1083.06 649.243 1084.24 648.264 1084.75C647.237 1085.27 646.106 1085.1 645.03 1085.35C643.815 1085.62 642.562 1086.12 641.374 1086.5C638.791 1087.32 636.236 1088.25 633.652 1089.08C628.55 1090.71 623.458 1092.41 618.395 1094.16C617.435 1094.49 616.362 1094.82 615.414 1094.45C615.113 1094.33 614.9 1094.19 614.735 1094.03Z" stroke="#BDDC8A" stroke-width="0.5" stroke-miterlimit="10"/>
<path d="M329.45 894.569C337.033 888.722 339.543 876.186 348.958 874.421C352.712 873.725 356.489 875.092 360.29 875.489C367.586 876.26 375.18 873.144 379.84 867.486C384.5 861.827 386.058 853.796 383.842 846.848C379.977 834.654 366.59 828.189 359.827 817.326C345.171 793.804 365.879 759.46 350.449 736.452C340.102 721.009 318.802 718.563 301.872 710.741C281.436 701.29 269.394 666.183 244.459 666.61C238.106 666.713 230.984 670.009 229.658 676.194C228.892 679.765 230.233 683.431 231.721 686.76C245.097 716.518 272.777 740.516 276.342 772.955C277.598 784.384 275.666 795.91 275.238 807.4C274.369 830.642 279.771 854 290.267 874.738C294.044 882.212 298.711 889.604 305.766 894.159C312.821 898.715 322.787 899.714 329.45 894.569Z" stroke="#BDDC8A" stroke-width="0.5" stroke-miterlimit="10"/>
<path d="M289.669 857.217C283.82 841.226 281.055 824.079 281.669 807.619C281.804 804.063 282.096 800.381 282.379 796.825C283.01 788.849 283.665 780.607 282.743 772.238C282.086 766.222 280.668 760.309 278.418 754.158C273.303 740.173 264.682 727.524 256.335 715.29C249.5 705.265 242.433 694.905 237.6 684.134C237.183 683.217 236.884 682.473 236.64 681.805C235.958 679.942 235.733 678.548 235.957 677.532C236.543 674.84 240.862 673.097 244.549 673.035C256.162 672.836 265.05 683.329 274.471 694.426C281.831 703.108 289.444 712.076 299.145 716.571C304.372 718.979 309.907 720.895 315.266 722.739C327.44 726.925 338.948 730.881 345.086 740.037C346.247 741.766 347.168 743.582 347.911 745.612C351.152 754.474 350.094 765.205 348.971 776.571C347.758 788.916 346.503 801.698 350.784 813.402C351.731 815.993 352.929 818.453 354.347 820.737C357.625 825.997 361.988 830.115 366.207 834.097C371.025 838.645 375.579 842.95 377.475 848.133C377.558 848.36 377.636 848.575 377.707 848.807C379.257 853.71 378.148 859.451 374.868 863.44C371.587 867.429 366.149 869.662 361.008 869.119C360.051 869.022 359.004 868.823 357.883 868.61C354.918 868.056 351.561 867.429 347.819 868.12C339.468 869.685 335.082 876.462 331.546 881.899C329.574 884.949 327.71 887.811 325.526 889.503C321.009 892.997 313.941 891.777 309.296 888.778C303.11 884.785 298.961 877.623 296.029 871.83C293.636 867.1 291.498 862.181 289.676 857.201L289.669 857.217Z" stroke="#BDDC8A" stroke-width="0.5" stroke-miterlimit="10"/>
<path d="M301.491 852.853C298.652 841.204 294.485 829.959 295.46 817.484C296.572 803.198 297.181 788.798 295.45 774.55C293.22 756.273 286.815 738.021 274.228 724.562C271.966 722.153 269.485 719.851 267.921 716.943C262.347 706.592 272.55 707.573 277.917 712.583C283.263 717.574 286.74 725.009 293.659 728.192C299.474 730.872 305.317 732.892 310.969 734.832C316.918 736.881 325.728 738.385 330.346 742.68C336.336 748.248 337.542 759.059 337.328 766.693C337.053 776.678 334.51 786.532 334.505 796.513C334.507 814.955 343.754 833.129 358.684 843.998C360.418 845.26 362.276 846.489 363.403 848.311C364.518 850.138 364.651 852.797 363.039 854.24C361.957 855.204 360.402 855.394 358.954 855.545C350.04 856.422 338.975 855.269 332.079 861.515C326.524 866.54 321.924 877.47 312.858 876.007C306.327 874.997 304.175 868.891 303.46 863.195C303.016 859.688 302.301 856.253 301.479 852.857L301.491 852.853Z" stroke="#BDDC8A" stroke-width="0.5" stroke-miterlimit="10"/>
<path d="M314.546 860.819C313.013 860.662 311.604 859.958 310.431 858.492C307.2 854.433 308.791 846.12 308.337 841.289C307.438 831.612 306.55 821.93 305.651 812.252C303.898 793.354 302.161 774.464 300.408 755.566C300.055 751.714 299.907 747.273 302.743 744.625C305.868 741.694 311.056 742.586 314.686 744.847C325.824 751.754 327.739 767.059 326.659 780.1C325.58 793.142 322.782 807.002 328.493 818.765C331.607 825.168 337.155 830.749 337.562 837.858C337.903 843.826 334.318 849.498 329.594 853.243C325.96 856.116 319.578 861.361 314.534 860.823L314.546 860.819Z" stroke="#BDDC8A" stroke-width="0.5" stroke-miterlimit="10"/>
<path d="M521.176 -1.26562C512.12 25.1741 502.938 52.9732 507.575 80.4573C513.334 114.64 539.941 144.663 537.007 179.249C536.567 184.488 535.361 189.817 532.34 194.145C523.083 207.374 500.987 206.344 492.091 219.82C485.856 229.278 488.847 241.9 493.315 252.263C497.782 262.626 503.643 273.17 502.504 284.419C500.926 299.986 486.779 310.915 479.064 324.583C470.093 340.484 470.139 359.6 468.079 377.699C466.02 395.798 460.306 415.531 444.666 425.043C437.099 429.639 428.085 431.243 420.084 435.023C402.479 443.344 391.48 461.327 384.635 479.484C377.79 497.641 373.995 516.956 365.447 534.382C356.899 551.807 342.047 567.842 322.812 570.896C308.083 573.237 293.379 567.688 279.592 562.088C250.091 550.144 219.587 536.603 199.963 511.676C186.527 494.6 179.277 473.448 166.724 455.711C154.17 437.974 132.83 423.167 111.645 428.586" stroke="#BDDC8A" stroke-width="2" stroke-miterlimit="10"/>
<path d="M868.434 75.7227C854.055 89.2011 843.041 106.215 836.662 124.797C831.003 141.274 828.975 158.792 823.471 175.321C817.966 191.85 807.97 208.167 791.973 215.223C785.935 217.892 779.312 219.109 773.446 222.135C750.788 233.821 748.489 265.927 730.19 283.643C711.272 301.963 680.073 300.701 658.957 316.454C643.181 328.223 632.949 349.338 613.536 352.606C599.223 355.012 585.791 346.831 571.619 346.734C562.022 346.669 538.511 355.431 554.633 367.191C557.864 369.543 561.913 370.472 565.873 371.042C576.315 372.53 586.095 372.392 592.593 382.162C596.929 388.686 598.51 396.598 600.411 404.203C605.494 424.578 620.221 443.889 640.906 450.352C658.671 455.905 679.468 451.94 695.118 461.964C705.923 468.885 711.99 481.141 721.507 489.725C751.711 516.956 793.336 500.932 828.063 495.773C860.462 490.95 882.19 529.772 911.158 537.483C923.953 540.887 938.008 537.073 948.792 529.351C959.575 521.629 967.372 510.368 973.017 498.406" stroke="#BDDC8A" stroke-width="2" stroke-miterlimit="10"/>
<path d="M1205.87 982.848C1203.09 955.757 1178.11 935.495 1151.82 927.996C1125.53 920.496 1097.57 922.709 1070.2 922.321C1042.83 921.934 1013.85 918.205 992.498 901.25C986.697 896.642 981.586 891.145 975.281 887.236C969.779 883.819 963.495 881.703 958.255 877.892C944.439 867.848 941.104 848.364 943.828 831.525C946.559 814.67 954.074 798.936 957.707 782.252C962.293 761.212 960.463 738.848 952.52 718.87C948.402 708.501 942.38 698.477 933.146 692.186C923.9 685.9 910.944 684.166 901.45 690.157C887.034 699.276 882.632 723.485 865.603 724.352C854.171 724.931 845.934 713.74 835.274 709.623C815.635 702.02 795.213 720.187 785.828 739.028C776.444 757.87 771.098 780.163 754.334 792.971C733.685 808.742 704.52 803.784 679.211 798.079C669.541 795.888 659.307 793.416 652.342 786.404C643.069 777.081 642.149 762.239 644.7 749.336C647.264 736.428 652.681 724.102 654.101 711.03C655.167 701.284 651.354 688.637 641.528 688.02C635.015 687.612 629.396 693.351 627.682 699.624C625.969 705.897 627.19 712.532 628.413 718.91C634.971 753.016 640.807 790.407 623.853 820.873C608.796 847.896 631.313 867.107 655.323 880.22C677.76 892.473 715.248 889.201 725.518 917.834C730.58 931.933 725.908 949.552 727.631 964.629C729.037 976.951 730.667 989.476 728.473 1001.69C726.28 1013.91 719.546 1026.04 708.322 1031.49C690.183 1040.27 650.625 1031.82 632.559 1024.78C613.924 1017.51 598.3 1003.23 577.225 1012.91C570.42 1016.04 568.502 1021.75 563.553 1027.03C557.957 1033.01 550.78 1037.34 545.019 1043.18C519.722 1068.79 513.158 1107.81 471.361 1113.04C435.22 1117.55 406.401 1090.78 374.293 1079.62" stroke="#BDDC8A" stroke-width="3" stroke-miterlimit="10"/>
<path d="M206.302 599.716C230.769 594.64 260.632 597.731 273.896 618.742C284.108 634.926 281.027 656.526 289.778 673.528C299.185 691.806 319.792 700.761 337.765 710.842C355.738 720.924 374.182 736.885 373.139 757.428C372.535 769.402 365.186 781.109 368.14 792.702C369.813 799.24 374.532 804.514 379.293 809.313C386.554 816.65 394.372 823.661 399.652 832.508C404.937 841.367 407.376 852.662 403.053 862.056C395.714 878.01 374.578 880.568 358.942 888.684C344.474 896.183 333.512 910.118 329.675 925.874" stroke="#BDDC8A" stroke-width="2" stroke-miterlimit="10"/>
<path d="M323.524 407.77C326.374 415.559 335.041 419.549 342.883 416.68C350.726 413.812 354.774 405.172 351.925 397.382C349.075 389.592 340.408 385.603 332.566 388.471C324.723 391.34 320.675 399.98 323.524 407.77Z" fill="#BDDC8A"/>
<path d="M673.948 897.117C676.797 904.907 685.465 908.896 693.307 906.028C701.15 903.159 705.198 894.519 702.348 886.73C699.499 878.94 690.832 874.95 682.989 877.819C675.147 880.687 671.099 889.328 673.948 897.117Z" fill="#BDDC8A"/>
<path d="M497.798 33.6641C500.647 41.4538 509.314 45.4432 517.157 42.5747C524.999 39.7063 529.047 31.0661 526.198 23.2764C523.349 15.4867 514.682 11.4972 506.839 14.3657C498.997 17.2342 494.949 25.8744 497.798 33.6641Z" fill="#BDDC8A"/>
<path d="M175.646 508.129C178.495 515.919 187.162 519.908 195.005 517.04C202.847 514.171 206.895 505.531 204.046 497.741C201.196 489.952 192.529 485.962 184.687 488.831C176.844 491.699 172.796 500.339 175.646 508.129Z" fill="#BDDC8A"/>
<path d="M519.917 336.766C522.766 344.555 531.434 348.545 539.276 345.676C547.118 342.808 551.166 334.168 548.317 326.378C545.468 318.588 536.801 314.599 528.958 317.467C521.116 320.336 517.068 328.976 519.917 336.766Z" fill="#BDDC8A"/>
<path d="M558.214 617.426C561.063 625.216 569.73 629.205 577.573 626.336C585.415 623.468 589.463 614.828 586.614 607.038C583.765 599.248 575.098 595.259 567.255 598.127C559.413 600.996 555.365 609.636 558.214 617.426Z" fill="#BDDC8A"/>
<path d="M829.343 1041.32C832.192 1049.11 840.859 1053.1 848.702 1050.23C856.544 1047.36 860.592 1038.72 857.743 1030.93C854.894 1023.14 846.226 1019.15 838.384 1022.02C830.541 1024.89 826.494 1033.53 829.343 1041.32Z" fill="#BDDC8A"/>
<path d="M67.6905 163.926C70.5397 171.716 79.207 175.705 87.0495 172.836C94.892 169.968 98.9398 161.328 96.0906 153.538C93.2414 145.748 84.5741 141.759 76.7316 144.627C68.8892 147.496 64.8413 156.136 67.6905 163.926Z" fill="#BDDC8A"/>
</g>
<defs>
<clipPath id="clip0_3674_27123">
<rect width="1214.86" height="962.702" fill="white" transform="translate(904.121 -158) rotate(69.9093)"/>
</clipPath>
</defs>
</svg>
