<svg width="252" height="252" viewBox="0 0 252 252" fill="none" xmlns="http://www.w3.org/2000/svg">
<path d="M47.7447 46.7343C49.0336 44.2892 48.9987 41.3922 47.6402 39.3643C46.4674 37.5913 44.4469 36.699 42.1013 36.896C39.3029 37.1394 36.9456 39.005 34.8555 40.6506C34.0659 41.2763 33.3227 41.8673 32.626 42.3076C31.9758 42.7248 31.3023 43.1536 30.6172 43.5939C28.6896 45.8188 26.8317 48.1133 25.0667 50.4657C28.4109 48.6579 31.5461 46.6764 34.3098 44.915C35.1342 44.3819 35.947 43.7446 36.7947 43.0725C38.6177 41.624 40.5105 40.1407 42.38 39.9784C43.6108 39.8626 44.5166 40.245 45.0739 41.0793C45.7939 42.1686 45.7706 43.8605 45.0159 45.2974C38.5829 57.4649 24.7764 66.8512 12.0615 71.9268C11.4344 73.2478 10.8306 74.5689 10.25 75.9131C24.3003 70.9302 40.4524 60.5589 47.7563 46.7459" fill="#F6FFEA"/>
<path d="M47.6746 30.8835C49.0681 32.6333 51.344 33.6994 53.9102 33.8153C53.9915 33.8153 54.0844 33.8153 54.1773 33.8153C57.2893 33.8153 62.085 31.4629 64.117 28.1603C65.3247 26.2019 65.4059 24.1856 64.3493 22.3431C63.7803 21.3349 62.7933 20.6744 62.1082 20.2572C61.2953 19.7705 60.378 19.3418 59.4258 18.9941C58.9614 19.2838 58.4969 19.562 58.0324 19.8632C59.3329 20.2341 60.5406 20.7787 61.4579 21.3233C62.3752 21.868 62.9326 22.3663 63.2577 22.9573C64.0822 24.4174 64.0125 25.947 63.0487 27.523C61.2024 30.5243 56.6506 32.7028 53.9567 32.587C51.7736 32.4943 49.788 31.5672 48.6384 30.1187L48.1507 30.5011L48.592 30.0608C47.9417 29.2264 47.6514 28.2762 47.6166 27.2912C47.245 27.5925 46.8734 27.8938 46.4902 28.1951C46.6528 29.1453 47.0128 30.0492 47.6282 30.8372C47.6282 30.8372 47.6514 30.8603 47.663 30.8719" fill="#F6FFEA"/>
<path d="M44.726 72.3106C45.6781 72.832 46.758 73.1449 47.9308 73.1449C51.6699 73.1449 54.7006 70.1204 54.7006 66.3891C54.7006 64.8247 54.1432 63.3994 53.2491 62.2521C57.2319 57.1534 60.8084 52.0778 63.9087 47.5584C65.0932 45.8318 66.2776 44.0241 67.4271 42.2859C70.0746 38.2648 72.8034 34.1047 75.8109 30.4428C78.052 27.7081 80.5253 25.8656 83.1496 24.9501C86.0758 23.9303 89.2923 24.2085 91.5449 25.6686C93.7048 27.0707 94.924 28.7742 95.284 30.86C96.2826 36.5961 90.5347 44.14 87.446 48.1958C80.0841 57.8487 71.8977 67.038 63.0843 75.4857C61.447 77.0617 59.5659 78.6261 57.5803 80.2716C49.7655 86.7609 40.9057 94.1309 42.8797 105.789C43.8202 111.316 47.8612 114.781 53.1446 114.781C53.6206 114.781 54.12 114.758 54.6193 114.7C60.0884 114.062 65.4299 110.656 70.9688 104.305C81.9303 91.7438 89.8728 77.0849 97.5599 62.9127C101.659 55.3572 105.851 47.6627 110.507 40.2464C111.134 40.4318 111.784 40.5708 112.47 40.5708C116.209 40.5708 119.239 37.5463 119.239 33.815C119.239 32.2158 118.659 30.7789 117.741 29.6201C119.1 27.7892 120.493 25.9814 121.945 24.2316C128.227 16.6762 137.54 7.67227 149.535 2.15635C147.816 1.83188 146.074 1.55377 144.332 1.29883C133.708 7.06969 125.37 15.2625 119.553 22.2617C118.078 24.0346 116.673 25.8656 115.303 27.7081C114.444 27.3025 113.48 27.0707 112.47 27.0707C108.73 27.0707 105.7 30.0952 105.7 33.8266C105.7 35.7618 106.524 37.4884 107.825 38.7167C103.145 46.1795 98.9533 53.8855 94.8427 61.4525C87.237 75.4857 79.3757 89.9824 68.6464 102.289C63.6301 108.037 58.9273 111.096 54.2709 111.641C49.9513 112.15 46.6884 109.659 45.9452 105.29C44.2615 95.3824 52.0414 88.9163 59.5659 82.6587C61.598 80.9669 63.5139 79.3793 65.2325 77.7222C74.162 69.1586 82.4645 59.8534 89.9193 50.0731C93.2867 45.6464 99.5687 37.4073 98.3495 30.3386C97.8386 27.3952 96.12 24.9617 93.2519 23.0844C90.1748 21.0797 86.0177 20.6857 82.1394 22.0415C78.9693 23.1424 76.0315 25.3209 73.4188 28.4961C70.3069 32.2854 67.5316 36.5034 64.8377 40.594C63.6997 42.3206 62.5269 44.1168 61.3541 45.8202C58.3002 50.2816 54.7702 55.2877 50.8454 60.3169C49.9629 59.8882 48.9875 59.6332 47.9308 59.6332C44.1918 59.6332 41.1611 62.6577 41.1611 66.3891C41.1611 67.826 41.6256 69.1586 42.392 70.2595C28.6319 84.9648 15.0112 91.9987 3.67806 95.1391C3.38777 96.2747 3.1207 97.4219 2.86523 98.5692C20.7243 94.1193 34.8443 82.8557 44.726 72.299" fill="#F6FFEA"/>
<path d="M51.6672 133.366C60.9218 126.065 71.4189 117.803 81.6257 126.68C84.3661 129.067 86.2356 132.23 88.2213 135.591C88.558 136.159 88.8948 136.727 89.2315 137.283C91.7048 141.385 94.3872 143.772 98.2307 145.255C101.134 146.379 104.118 146.321 106.417 145.093C108.414 144.027 109.808 142.335 110.435 140.191C111.19 137.607 110.737 134.478 109.239 131.825C106.974 127.827 103.619 125.822 100.379 123.875C98.6952 122.867 96.9534 121.824 95.409 120.515C93.075 118.533 91.4377 116.378 90.3346 114.095C92.7963 113.087 94.5381 110.676 94.5381 107.849C94.5381 104.546 92.1693 101.812 89.0341 101.221C91.1707 90.1772 99.8796 78.4616 106.057 70.1646L107.195 68.6465C118.029 54.0224 130.372 40.4527 143.877 28.3084C152.655 20.4053 162.316 14.5765 172.512 8.74773C171.269 8.26103 170.015 7.79751 168.749 7.33398C159.216 12.8267 150.171 18.4817 141.81 26.0024C128.154 38.2857 115.672 52.0176 104.71 66.7924L103.584 68.3105C98.4049 75.2633 91.31 84.7887 87.722 94.5227C86.8395 96.9099 86.224 99.2043 85.8524 101.394C83.054 102.229 80.9987 104.778 80.9987 107.837C80.9987 111.337 83.681 114.188 87.1065 114.524C88.4303 117.618 90.5204 120.41 93.4118 122.856C95.1535 124.327 96.9998 125.44 98.788 126.517C101.819 128.337 104.687 130.052 106.545 133.343C107.648 135.29 107.985 137.526 107.462 139.322C107.067 140.666 106.231 141.686 104.966 142.358C103.468 143.158 101.424 143.158 99.357 142.358C96.1638 141.118 94.004 139.183 91.8906 135.684C91.5539 135.127 91.2287 134.571 90.9036 134.003C88.8831 130.585 86.793 127.039 83.681 124.327C71.5234 113.759 58.9478 123.667 49.7628 130.909L22.7072 152.231C17.389 156.426 11.1302 159.567 5.11523 161.965C5.41714 162.962 5.71905 163.947 6.04418 164.932C12.361 162.429 18.9798 159.115 24.6348 154.653L51.6904 133.331L51.6672 133.366Z" fill="#F6FFEA"/>
<path d="M90.8695 191.459C91.3107 189.976 91.392 188.62 91.1249 187.449C90.6372 185.329 88.8722 183.614 86.7357 183.173C83.1012 182.42 76.3779 186.476 71.6519 189.605C69.2018 191.216 66.264 193.765 66.1943 196.708C66.1595 198.423 67.0884 199.976 68.9811 201.355C71.3848 203.093 73.9975 203.974 76.5521 203.974C78.8861 203.974 81.1852 203.244 83.2521 201.784C86.0389 199.814 89.6502 195.538 90.8695 191.471M69.7011 200.347C68.1567 199.235 67.3903 198.018 67.4252 196.732C67.4832 194.194 70.5139 191.818 72.3254 190.625C74.7755 189.014 81.9167 184.309 85.737 184.309C86.0041 184.309 86.248 184.332 86.4802 184.379C88.1175 184.715 89.5341 186.094 89.9173 187.728C90.1379 188.689 90.0683 189.837 89.6851 191.111C88.5936 194.773 85.2029 198.898 82.5438 200.776C78.5958 203.557 73.9162 203.406 69.7127 200.359" fill="#F6FFEA"/>
<path d="M144.039 133.947C143.888 133.947 143.749 133.901 143.598 133.901C139.859 133.901 136.828 136.925 136.828 140.657C136.828 143.658 138.802 146.161 141.496 147.053C141.217 152.604 142.379 157.146 145.038 160.75C147.546 164.146 151.482 166.776 157.068 168.792C164.174 171.365 172.976 172.767 182.091 172.767C197.256 172.767 213.292 168.874 223.859 159.997C231.035 153.971 235.053 145.524 234.623 137.412C234.344 132.197 232.359 127.562 229.491 123.483C230.245 122.394 230.698 121.073 230.698 119.636C230.698 115.904 227.668 112.88 223.929 112.88C222.593 112.88 221.351 113.286 220.294 113.958C217.287 111.513 214.175 109.392 211.33 107.584C204.363 103.158 201.506 99.3219 202.319 95.5094C203.503 90.0167 211.62 88.9506 215.046 88.742C217.983 88.5682 221.014 88.5103 223.952 88.4523C231.279 88.3133 238.827 88.1742 245.98 86.2158C245.654 85.2308 245.318 84.2574 244.958 83.284C238.211 85.0918 230.954 85.2308 223.894 85.3699C220.933 85.4278 217.867 85.4858 214.86 85.6596C206.116 86.181 200.438 89.53 199.277 94.8605C197.79 101.755 204.479 106.912 209.646 110.192C212.328 111.895 215.278 113.9 218.111 116.194C217.507 117.202 217.136 118.384 217.136 119.647C217.136 123.379 220.166 126.403 223.905 126.403C225.067 126.403 226.146 126.079 227.11 125.569C229.572 129.15 231.267 133.148 231.511 137.586C231.894 144.736 228.283 152.233 221.85 157.645C205.779 171.156 176.25 172.443 158.124 165.907C153.131 164.099 149.659 161.828 147.534 158.943C145.328 155.953 144.364 152.106 144.573 147.343C147.848 146.868 150.356 144.075 150.356 140.68C150.356 138.188 148.997 136.045 146.988 134.874C152.841 113.541 162.281 92.1837 174.451 72.8548C184.274 57.234 195.909 42.888 208.624 30.6278C207.835 29.9441 207.045 29.2836 206.244 28.623C193.436 41.0107 181.72 55.4726 171.826 71.2092C159.529 90.7699 149.961 112.37 144.027 133.97" fill="#F6FFEA"/>
<path d="M124.464 153.09C122.699 154.168 121.665 155.952 121.839 157.633C121.967 158.907 122.699 159.904 123.407 160.877C123.964 161.642 124.487 162.361 124.696 163.16C124.835 163.705 124.835 164.284 124.835 164.91C124.835 165.234 124.835 165.57 124.847 165.895C125.021 168.873 127.297 171.84 130.397 173.126C131.373 173.531 132.348 173.728 133.3 173.728C134.845 173.728 136.308 173.184 137.504 172.129C141.487 168.583 139.385 160.46 137.097 156.891C134.578 152.986 128.783 150.46 124.487 153.078M136.656 171.202C134.531 173.091 132.116 172.5 130.862 171.979C128.226 170.889 126.217 168.294 126.078 165.814C126.066 165.512 126.066 165.211 126.066 164.91C126.066 164.238 126.066 163.543 125.892 162.847C125.625 161.816 125.009 160.958 124.406 160.147C123.767 159.267 123.163 158.444 123.07 157.505C122.919 156.033 124.08 154.77 125.114 154.133C126.136 153.507 127.274 153.229 128.412 153.229C131.373 153.229 134.438 155.083 136.029 157.551C138.351 161.144 139.78 168.421 136.656 171.191" fill="#F6FFEA"/>
<path d="M125.603 203.962L125.998 203.394C133.441 192.837 135.984 186.661 134.219 183.37C133.662 182.339 132.431 181.134 129.644 181.191C125.522 181.296 121.818 186.244 119.356 189.512C119.066 189.894 118.799 190.253 118.567 190.555C114.212 196.175 110.218 202.525 106.676 209.432C100.684 221.101 96.1441 233.952 93.125 247.684C94.1236 247.95 95.1222 248.205 96.1325 248.46C99.0935 234.949 103.552 222.318 109.428 210.845C112.877 204.113 116.778 197.925 121.017 192.455C121.261 192.142 121.539 191.771 121.83 191.377C123.664 188.932 127.09 184.367 129.702 184.297C130.364 184.285 131.212 184.367 131.467 184.842C131.851 185.56 132.42 188.909 123.444 201.621L123.037 202.201C113.039 216.605 107.895 233.685 108.302 250.778C109.335 250.929 110.369 251.056 111.414 251.183C110.914 234.578 115.873 217.96 125.58 203.962" fill="#F6FFEA"/>
<path d="M167.338 180.613C165.84 180.358 164.354 180.115 162.868 179.86C162.392 179.778 161.799 179.663 161.114 179.524C156.679 178.643 149.259 177.16 145.508 179.987C144.196 180.984 143.418 182.432 143.278 184.194C142.605 192.433 154.925 195.538 160.836 197.033L161.799 197.276C164.969 198.099 168.221 198.644 171.368 199.177C176.697 200.081 181.725 200.938 186.521 202.966C189.087 204.044 191.026 205.481 192.373 207.277C190.864 208.517 189.877 210.371 189.877 212.48C189.877 215.423 191.781 217.903 194.417 218.83C194.011 221.414 193.209 224.311 192.013 227.556C191.061 230.129 190.028 232.736 188.901 235.378C190.411 234.509 191.897 233.605 193.372 232.69C193.918 231.322 194.44 229.978 194.94 228.634C195.683 226.629 196.972 223.118 197.552 219.166C200.873 218.726 203.439 215.922 203.439 212.503C203.439 208.772 200.409 205.747 196.67 205.747C196.17 205.747 195.671 205.817 195.207 205.921C193.639 203.638 191.259 201.622 187.752 200.139C182.619 197.972 177.173 197.045 171.902 196.152C168.813 195.631 165.631 195.086 162.589 194.298L161.614 194.055C156.528 192.769 145.926 190.092 146.379 184.472C146.449 183.579 146.774 182.942 147.389 182.478C150.037 180.485 157.12 181.899 160.522 182.571C161.242 182.71 161.869 182.838 162.368 182.919C163.855 183.162 165.341 183.417 166.839 183.672C184.721 186.685 203.219 189.814 221.612 188.11C227.279 187.589 232.783 186.407 237.962 184.634C238.67 183.29 239.355 181.934 240.017 180.566C234.211 182.896 227.882 184.437 221.322 185.039C203.335 186.697 185.046 183.614 167.35 180.624" fill="#F6FFEA"/>
<path d="M166.756 211.379C162.193 208.308 155.923 207.346 148.119 208.493C144.171 209.073 141.117 209.954 138.505 211.263C131.549 214.728 126.347 222.051 124.234 231.357C122.689 238.17 122.84 245.147 123.27 251.995C123.688 251.995 124.094 251.995 124.512 252.007C124.083 245.216 123.92 238.31 125.441 231.623C127.473 222.677 132.432 215.655 139.051 212.364C141.547 211.124 144.485 210.278 148.294 209.71C155.783 208.609 161.763 209.513 166.06 212.399C171.784 216.246 174.861 224.161 173.886 232.562C173.433 236.49 172.226 240.268 170.635 243.976C171.169 243.779 171.703 243.582 172.237 243.374C173.642 239.92 174.699 236.398 175.117 232.713C176.15 223.859 172.864 215.493 166.756 211.379Z" fill="#F6FFEA"/>
<path d="M216.631 201.762C213.705 204.625 214.228 209.086 214.692 213.015C214.774 213.71 214.855 214.393 214.925 215.066C214.936 215.239 214.948 215.413 214.959 215.587C215.343 215.205 215.726 214.822 216.097 214.44C216.039 213.918 215.981 213.397 215.923 212.864C215.47 209.04 215.006 205.088 217.491 202.643C218.756 201.403 220.603 200.859 222.077 200.523C224.214 200.036 226.467 199.758 228.708 199.526C229.021 199.086 229.346 198.634 229.66 198.193C227.036 198.448 224.353 198.738 221.799 199.329C220.173 199.7 218.106 200.326 216.62 201.774" fill="#F6FFEA"/>
<path d="M165.66 115.313C163.802 123.111 163.314 129.392 164.127 135.082C165.172 142.371 168.47 148.547 173.416 152.464C177.701 155.859 183.484 157.702 189.778 157.702C190.161 157.702 190.544 157.702 190.927 157.679C195.374 157.528 198.997 156.45 201.691 154.48C208.821 149.277 208.867 138.396 205.291 130.794C202.934 125.8 199.357 121.489 195.897 117.317C194.051 115.092 192.135 112.786 190.439 110.411C187.664 106.529 181.626 96.5168 185.458 87.5012C188.071 81.3248 194.817 76.9097 205.512 74.3719C209.541 73.4217 213.698 72.6801 217.716 71.9616C224.416 70.7681 231.336 69.5397 237.874 67.2685C237.676 66.8976 237.491 66.5268 237.282 66.156C230.883 68.3577 224.067 69.5745 217.483 70.7449C213.442 71.4633 209.262 72.205 205.21 73.1668C194.12 75.7973 187.084 80.4673 184.308 87.0145C181.44 93.7704 183.31 102.566 189.429 111.129C191.148 113.54 193.075 115.857 194.945 118.105C198.359 122.208 201.889 126.46 204.165 131.316C207.532 138.466 207.555 148.675 200.948 153.472C198.463 155.292 195.073 156.288 190.881 156.427C184.436 156.647 178.502 154.898 174.183 151.479C169.561 147.817 166.333 141.768 165.346 134.885C164.557 129.357 165.033 123.227 166.856 115.579C170.943 98.4636 179.71 81.093 192.924 63.9311C200.042 54.6838 208.055 45.9927 216.264 37.742C215.974 37.4523 215.695 37.151 215.393 36.8613C207.137 45.1584 199.102 53.8842 191.937 63.1894C178.619 80.4789 169.77 98.0116 165.648 115.301" fill="#F6FFEA"/>
<path d="M156.096 28.2859C151.08 33.628 146.447 39.4104 141.964 44.9959C136.727 51.52 131.316 58.2758 125.278 64.348L124.849 64.7768C113.701 75.9708 101.056 88.6598 102.925 105.787C103.227 108.591 104.191 112.578 107.001 115.718C109.323 118.302 111.75 119.612 114.224 119.612C114.572 119.612 114.92 119.588 115.269 119.53C120.842 118.708 124.907 111.697 126.834 107.583C128.495 104.06 129.725 100.352 130.91 96.7714C131.769 94.1757 132.663 91.4873 133.708 88.9031C141.337 70.0261 150.313 50.0483 164.271 31.9361C172.097 21.785 178.611 16.6283 183.709 13.8008C183.268 13.569 182.815 13.3604 182.374 13.1287C177.264 16.1068 170.866 21.3446 163.284 31.1713C149.233 49.411 140.211 69.4699 132.547 88.428C131.49 91.0585 130.585 93.7585 129.714 96.3774C128.529 99.9234 127.31 103.597 125.696 107.05C124.233 110.179 120.262 117.526 115.071 118.291C112.668 118.638 110.264 117.491 107.907 114.872C105.306 111.975 104.423 108.244 104.145 105.625C102.345 89.077 114.758 76.6082 125.708 65.6111L126.137 65.1823C132.234 59.0638 137.668 52.2848 142.917 45.7375C147.387 40.1637 151.997 34.4044 156.99 29.0971C163.377 22.3064 170.669 16.2922 178.553 11.2862C178.112 11.0776 177.659 10.8806 177.206 10.6836C169.508 15.6549 162.355 21.5764 156.084 28.2395" fill="#F6FFEA"/>
<path d="M56.3149 163.401C60.321 161.605 64.4548 159.751 68.4958 157.839C69.0183 157.596 69.5641 157.352 70.1214 157.097C74.6965 155.046 80.9669 152.242 78.0872 145.428C75.4164 139.089 65.7205 140.376 60.9713 141.94C56.1175 143.539 51.8676 146.401 47.757 149.183L9.69336 174.873C9.85593 175.256 10.0301 175.638 10.1927 176.032L48.4537 150.214C52.4946 147.491 56.6749 144.663 61.3661 143.122C66.4521 141.453 74.7894 140.804 76.9492 145.915C79.3528 151.616 74.174 153.934 69.6105 155.985C69.0415 156.24 68.4842 156.495 67.9616 156.738C63.9439 158.638 59.8101 160.493 55.8156 162.289C46.8048 166.321 37.5037 170.493 28.8297 175.569C23.7901 178.524 19.2035 181.873 14.9187 185.743C15.1277 186.114 15.3251 186.485 15.5341 186.855C19.8189 182.962 24.4172 179.59 29.4567 176.635C38.0611 171.594 47.3506 167.434 56.3266 163.413" fill="#F6FFEA"/>
<path d="M18.9854 142.754C25.4532 140.112 33.5002 136.821 32.7686 128.582C32.6061 126.751 31.8513 125.083 31.1314 123.472C30.5624 122.22 30.0282 121.027 29.7496 119.764C28.9832 116.345 30.0631 112.394 33.0706 107.677L33.4886 107.028C34.5453 105.394 35.6368 103.703 36.0664 101.733C36.5541 99.4845 35.8806 96.5875 33.6395 95.4171C28.6116 92.7866 23.2702 99.7742 19.357 104.873C17.9635 106.692 16.7559 108.257 15.827 109.091C11.1706 113.24 5.80593 116.484 0.0696727 118.651C0.046449 119.103 0.0232237 119.543 0 119.995C6.073 117.771 11.7512 114.387 16.663 110.006C17.6849 109.091 18.9273 107.48 20.3556 105.615C23.9901 100.863 28.9832 94.3626 33.0822 96.5064C34.7659 97.3871 35.2536 99.6699 34.8704 101.466C34.4988 103.216 33.4654 104.803 32.4667 106.345L32.0487 106.994C28.8555 112 27.7175 116.252 28.5652 120.007C28.8787 121.398 29.4593 122.695 30.0282 123.947C30.7482 125.535 31.4217 127.041 31.561 128.663C32.2229 135.999 24.6404 139.093 18.5441 141.584C17.4062 142.048 16.3379 142.488 15.3625 142.928C10.8687 144.979 6.43297 147.239 2.11336 149.649C2.19464 150.078 2.27592 150.507 2.3572 150.936C6.76971 148.456 11.2867 146.15 15.8734 144.052C16.8256 143.612 17.8823 143.183 19.0086 142.72" fill="#F6FFEA"/>
<path d="M58.1935 208.806C49.6007 208.968 44.1199 212.827 39.9629 218.122C40.2648 218.401 40.5551 218.679 40.857 218.957C44.8515 213.823 50.0071 210.208 58.2167 210.046C60.9339 209.988 65.9967 210.428 69.4454 213.962C73.2425 217.856 73.3702 223.801 72.2206 228.065C71.3265 231.391 69.7125 234.659 67.9126 237.869C68.2842 238.054 68.6442 238.251 69.0157 238.436C70.8388 235.18 72.4877 231.831 73.4166 228.389C74.6591 223.789 74.4965 217.358 70.3395 213.093C66.5656 209.234 61.1081 208.759 58.1935 208.806Z" fill="#F6FFEA"/>
<path d="M85.3227 12.3065C89.9094 15.5976 94.647 18.9929 100.302 19.1899C100.476 19.1899 100.639 19.1899 100.813 19.1899C107.71 19.1899 113.54 14.3924 118.927 9.46746L129.262 0.0231762C128.658 0.0115881 128.054 0 127.451 0L118.091 8.56359C112.762 13.4422 107.002 18.1701 100.348 17.9499C95.0651 17.7645 90.49 14.4851 86.0542 11.2984C85.4156 10.8464 84.7886 10.3945 84.1615 9.95416C83.2093 9.28205 82.2688 8.67947 81.3514 8.14642C80.8521 8.33183 80.3528 8.51724 79.8535 8.71424C81.0147 9.35158 82.2107 10.1048 83.4416 10.9739C84.0686 11.4143 84.6957 11.8662 85.3227 12.3065Z" fill="#F6FFEA"/>
<path d="M230.494 107.723L229.983 107.364C228.636 106.437 227.254 105.475 226.314 104.189C225.385 102.914 224.839 100.99 225.733 99.5419C226.86 97.711 229.53 97.5487 231.992 97.6299L249.34 98.244C249.247 97.8269 249.154 97.4097 249.05 96.9925L232.038 96.3899C229.379 96.2856 226.151 96.4942 224.677 98.893C223.492 100.828 224.142 103.32 225.315 104.919C226.372 106.367 227.858 107.399 229.286 108.384L229.797 108.743C240.294 116.09 247.912 127.214 251.709 139.498C251.813 138.489 251.906 137.47 251.999 136.45C247.889 124.989 240.469 114.699 230.517 107.735" fill="#F6FFEA"/>
<path d="M36.2128 191.078C39.9518 191.078 42.9825 188.053 42.9825 184.322C42.9825 183.291 42.7386 182.329 42.3206 181.46C52.9106 174.959 64.6386 171.355 76.9355 167.577C80.6049 166.453 84.4136 165.283 88.141 164.043C97.4537 160.949 110.993 155.7 120.979 145.966C131.592 135.629 136.864 122.928 140.627 111.885C141.254 110.043 141.881 108.2 142.496 106.346C145.585 97.2029 148.778 87.7471 152.505 78.6968C156.128 69.913 161.179 61.755 166.08 54.3155C166.881 54.6515 167.763 54.8369 168.692 54.8369C172.431 54.8369 175.462 51.8124 175.462 48.0811C175.462 46.2038 174.696 44.5119 173.453 43.2836C178.319 36.1106 183.463 28.9607 189.629 22.8654C190.871 21.6371 192.137 20.4783 193.426 19.389C192.508 18.8096 191.579 18.2418 190.65 17.6855C189.57 18.6358 188.502 19.6208 187.446 20.6637C181.036 26.9908 175.764 34.3376 170.794 41.6845C170.132 41.4643 169.436 41.3136 168.692 41.3136C164.953 41.3136 161.923 44.3381 161.923 48.0695C161.923 49.7498 162.561 51.2794 163.583 52.4614C158.578 60.0632 153.388 68.4182 149.637 77.5148C145.863 86.6578 142.659 96.1716 139.547 105.361C138.92 107.203 138.304 109.046 137.677 110.888C134.031 121.596 128.933 133.868 118.796 143.752C111.446 150.925 101.68 156.279 87.1423 161.111C83.4498 162.34 79.6643 163.498 76.0066 164.622C63.9186 168.331 51.494 172.155 40.3582 179.038C39.2086 178.134 37.7687 177.566 36.1895 177.566C32.4505 177.566 29.4198 180.591 29.4198 184.322C29.4198 185.191 29.594 186.014 29.8959 186.767C26.7607 189.444 23.6952 192.318 20.7109 195.435C21.2915 196.316 21.8837 197.185 22.4875 198.054C25.4718 194.914 28.5373 192.005 31.6725 189.317C32.8685 190.394 34.4478 191.066 36.1895 191.066" fill="#F6FFEA"/>
<path d="M98.0407 212.488C98.0407 210.437 97.1002 208.629 95.6603 207.389C96.7402 205.338 97.9014 203.322 99.1787 201.329C101.199 198.188 103.963 195.326 106.901 192.302C111.987 187.052 117.247 181.629 118.617 174.317C119.174 171.35 118.443 168.592 116.55 166.553C114.379 164.201 110.895 163.019 107.237 163.401C101.188 164.027 95.6951 166.669 90.3769 169.23C88.937 169.925 87.4623 170.632 86.0225 171.281C63.5651 181.351 45.2416 193.993 31.1797 209.07C31.8648 209.846 32.5615 210.622 33.2582 211.387C47.0647 196.52 65.1211 184.039 87.2882 174.108C88.7745 173.448 90.2724 172.718 91.7239 172.022C96.7983 169.577 102.047 167.051 107.551 166.483C110.245 166.205 112.753 167.016 114.262 168.65C115.482 169.971 115.935 171.733 115.551 173.749C114.355 180.146 109.42 185.233 104.659 190.146C101.757 193.148 98.749 196.242 96.566 199.648C95.2423 201.711 94.0346 203.82 92.9083 205.941C92.3741 205.813 91.84 205.721 91.271 205.721C87.532 205.721 84.5013 208.745 84.5013 212.476C84.5013 214.829 85.7089 216.892 87.532 218.108C84.3504 226.788 82.3996 235.56 81.099 243.764C82.086 244.135 83.073 244.506 84.0717 244.854C85.3374 236.638 87.2765 227.842 90.4466 219.151C90.7136 219.186 90.9923 219.232 91.271 219.232C95.01 219.232 98.0407 216.208 98.0407 212.476" fill="#F6FFEA"/>
</svg>
