<svg width="28" height="30" viewBox="0 0 28 30" fill="none" xmlns="http://www.w3.org/2000/svg">
<path d="M5.19897 6.06765C5.33928 5.79286 5.33549 5.46729 5.18759 5.23939C5.05992 5.04014 4.83997 4.93987 4.58462 4.962C4.27997 4.98935 4.02336 5.19902 3.79582 5.38395C3.70986 5.45427 3.62896 5.52069 3.55311 5.57017C3.48232 5.61705 3.409 5.66524 3.33442 5.71473C3.12458 5.96477 2.92232 6.22262 2.73018 6.48698C3.09424 6.28383 3.43555 6.06113 3.7364 5.86319C3.82616 5.80328 3.91464 5.73166 4.00692 5.65612C4.20539 5.49334 4.41143 5.32665 4.61496 5.30841C4.74895 5.29539 4.84755 5.33837 4.90823 5.43213C4.9866 5.55455 4.98407 5.74468 4.90191 5.90616C4.20159 7.27356 2.69858 8.32842 1.31439 8.89882C1.24613 9.04728 1.18039 9.19574 1.11719 9.3468C2.64675 8.78682 4.40511 7.62127 5.20023 6.06895" fill="#F6FFEA"/>
<path d="M5.18948 4.28732C5.34118 4.48396 5.58894 4.60377 5.86831 4.6168C5.87716 4.6168 5.88727 4.6168 5.89738 4.6168C6.23616 4.6168 6.75823 4.35243 6.97945 3.98128C7.11092 3.76119 7.11977 3.5346 7.00473 3.32753C6.94279 3.21423 6.83534 3.14 6.76076 3.09312C6.67228 3.03843 6.57241 2.99024 6.46876 2.95117C6.41819 2.98373 6.36763 3.01498 6.31706 3.04884C6.45864 3.09052 6.59011 3.15172 6.68997 3.21293C6.78984 3.27414 6.85051 3.33014 6.88591 3.39655C6.97566 3.56064 6.96807 3.73254 6.86315 3.90965C6.66216 4.24695 6.16664 4.49178 5.87336 4.47875C5.63571 4.46834 5.41955 4.36415 5.29441 4.20137L5.24131 4.24434L5.28935 4.19486C5.21856 4.10109 5.18696 3.9943 5.18316 3.88361C5.14271 3.91747 5.10226 3.95133 5.06055 3.98519C5.07824 4.09197 5.11743 4.19355 5.18443 4.28211C5.18443 4.28211 5.18696 4.28471 5.18822 4.28602" fill="#F6FFEA"/>
<path d="M4.86958 8.97846C4.97324 9.03706 5.0908 9.07222 5.21848 9.07222C5.62552 9.07222 5.95545 8.73233 5.95545 8.31299C5.95545 8.13718 5.89477 7.977 5.79744 7.84807C6.23102 7.27507 6.62037 6.70467 6.95788 6.19677C7.08682 6.00273 7.21576 5.79958 7.3409 5.60423C7.62912 5.15234 7.92618 4.68482 8.25358 4.2733C8.49755 3.96596 8.76681 3.75889 9.0525 3.65601C9.37105 3.54141 9.7212 3.57267 9.96644 3.73676C10.2016 3.89433 10.3343 4.08577 10.3735 4.32018C10.4822 4.96481 9.85646 5.8126 9.52021 6.2684C8.71877 7.35321 7.82758 8.38592 6.86813 9.33529C6.68989 9.5124 6.48511 9.6882 6.26894 9.87313C5.4182 10.6024 4.4537 11.4307 4.66859 12.7408C4.77099 13.362 5.21089 13.7513 5.78606 13.7513C5.83789 13.7513 5.89224 13.7487 5.9466 13.7422C6.54199 13.6706 7.12348 13.2877 7.72645 12.5741C8.91976 11.1624 9.78441 9.515 10.6212 7.9223C11.0675 7.07321 11.5238 6.2085 12.0307 5.37503C12.099 5.39587 12.1698 5.4115 12.2444 5.4115C12.6514 5.4115 12.9813 5.0716 12.9813 4.65226C12.9813 4.47255 12.9181 4.31106 12.8183 4.18084C12.9662 3.97507 13.1178 3.77192 13.2759 3.57527C13.9597 2.72618 14.9735 1.7143 16.2794 1.09442C16.0923 1.05795 15.9027 1.0267 15.713 0.998047C14.5564 1.64659 13.6488 2.5673 13.0155 3.35388C12.8549 3.55313 12.702 3.75889 12.5528 3.96596C12.4592 3.92038 12.3543 3.89433 12.2444 3.89433C11.8373 3.89433 11.5074 4.23423 11.5074 4.65357C11.5074 4.87105 11.5971 5.06509 11.7387 5.20313C11.2293 6.0418 10.7729 6.90782 10.3254 7.75822C9.49746 9.33529 8.64166 10.9644 7.47363 12.3475C6.92754 12.9934 6.41558 13.3372 5.90868 13.3984C5.43843 13.4557 5.08322 13.1757 5.00232 12.6848C4.81902 11.5713 5.66597 10.8446 6.48511 10.1414C6.70632 9.95127 6.9149 9.77285 7.10199 9.58663C8.07408 8.62424 8.97791 7.5785 9.78947 6.47937C10.1561 5.9819 10.8399 5.05597 10.7072 4.26158C10.6516 3.9308 10.4645 3.65732 10.1523 3.44635C9.81728 3.22105 9.36473 3.17677 8.94252 3.32914C8.59742 3.45286 8.2776 3.69769 7.99318 4.05451C7.6544 4.48036 7.35228 4.95439 7.05901 5.4141C6.93513 5.60814 6.80745 5.81 6.67978 6.00143C6.34732 6.50281 5.96303 7.0654 5.53577 7.63059C5.43969 7.58241 5.33351 7.55376 5.21848 7.55376C4.81144 7.55376 4.48151 7.89365 4.48151 8.31299C4.48151 8.47447 4.53207 8.62424 4.6155 8.74795C3.11754 10.4006 1.63475 11.191 0.400987 11.544C0.369385 11.6716 0.34031 11.8005 0.3125 11.9294C2.25669 11.4294 3.79383 10.1635 4.86958 8.97716" fill="#F6FFEA"/>
<path d="M5.62442 15.8141C6.63191 14.9936 7.77466 14.0651 8.8858 15.0626C9.18413 15.3309 9.38765 15.6864 9.60381 16.0641C9.64047 16.1279 9.67713 16.1917 9.71379 16.2542C9.98304 16.7152 10.275 16.9835 10.6935 17.1502C11.0095 17.2765 11.3344 17.27 11.5847 17.132C11.8021 17.0122 11.9538 16.822 12.022 16.5811C12.1042 16.2907 12.0549 15.9391 11.8918 15.6409C11.6453 15.1916 11.28 14.9663 10.9273 14.7475C10.744 14.6342 10.5544 14.517 10.3863 14.3698C10.1322 14.1471 9.95397 13.9049 9.83388 13.6484C10.1019 13.5351 10.2915 13.2642 10.2915 12.9464C10.2915 12.5753 10.0336 12.2679 9.6923 12.2015C9.92489 10.9604 10.873 9.64383 11.5455 8.71139L11.6694 8.54079C12.8488 6.8973 14.1925 5.37233 15.6626 4.00753C16.6183 3.11937 17.67 2.46432 18.7799 1.80927C18.6447 1.75457 18.5081 1.70248 18.3704 1.65039C17.3325 2.26767 16.3478 2.90319 15.4376 3.74837C13.9511 5.1288 12.5921 6.67201 11.3988 8.33242L11.2762 8.50302C10.7124 9.28439 9.94006 10.3549 9.54945 11.4488C9.45338 11.7171 9.38639 11.9749 9.34593 12.2211C9.04129 12.3148 8.81754 12.6013 8.81754 12.9451C8.81754 13.3384 9.10955 13.6588 9.48246 13.6965C9.62656 14.0443 9.8541 14.3581 10.1689 14.6329C10.3585 14.7983 10.5595 14.9233 10.7541 15.0444C11.0841 15.2489 11.3963 15.4416 11.5986 15.8115C11.7187 16.0302 11.7553 16.2816 11.6984 16.4834C11.6554 16.6345 11.5644 16.7491 11.4266 16.8246C11.2636 16.9145 11.0411 16.9145 10.8161 16.8246C10.4685 16.6853 10.2333 16.4678 10.0033 16.0745C9.96661 16.012 9.93121 15.9495 9.89582 15.8857C9.67587 15.5015 9.44833 15.103 9.10955 14.7983C7.78603 13.6106 6.41701 14.724 5.41711 15.538L2.47175 17.9342C1.8928 18.4056 1.21144 18.7585 0.556641 19.0281C0.589507 19.1401 0.622374 19.2508 0.657769 19.3615C1.34544 19.0802 2.06598 18.7077 2.68159 18.2064L5.62695 15.8102L5.62442 15.8141Z" fill="#F6FFEA"/>
<path d="M9.89335 22.3398C9.94138 22.1732 9.95023 22.0208 9.92116 21.8893C9.86807 21.6509 9.67592 21.4582 9.44333 21.4087C9.04766 21.3241 8.31575 21.7799 7.80126 22.1315C7.53454 22.3125 7.21472 22.599 7.20713 22.9298C7.20334 23.1225 7.30447 23.297 7.51052 23.452C7.77219 23.6473 8.05661 23.7463 8.33471 23.7463C8.5888 23.7463 8.83909 23.6643 9.0641 23.5002C9.36748 23.2788 9.76062 22.7983 9.89335 22.3412M7.58889 23.3387C7.42077 23.2137 7.33734 23.0769 7.34113 22.9324C7.34745 22.6472 7.67738 22.3802 7.87458 22.2461C8.1413 22.0651 8.91873 21.5363 9.33462 21.5363C9.36369 21.5363 9.39024 21.5389 9.41552 21.5442C9.59376 21.5819 9.74798 21.7369 9.78969 21.9205C9.81371 22.0286 9.80612 22.1575 9.76441 22.3008C9.64558 22.7123 9.27647 23.1759 8.98699 23.3869C8.55719 23.6994 8.04776 23.6825 7.59016 23.34" fill="#F6FFEA"/>
<path d="M15.6795 15.8736C15.6631 15.8736 15.6479 15.8684 15.6315 15.8684C15.2245 15.8684 14.8945 16.2083 14.8945 16.6276C14.8945 16.9649 15.1094 17.2462 15.4027 17.3465C15.3724 17.9703 15.4988 18.4808 15.7882 18.8858C16.0613 19.2673 16.4898 19.563 17.0979 19.7896C17.8715 20.0787 18.8297 20.2362 19.822 20.2362C21.4729 20.2362 23.2186 19.7987 24.369 18.8011C25.1502 18.1239 25.5876 17.1746 25.5408 16.263C25.5105 15.6769 25.2943 15.156 24.9821 14.6976C25.0642 14.5752 25.1135 14.4267 25.1135 14.2653C25.1135 13.8459 24.7836 13.506 24.3766 13.506C24.2312 13.506 24.0959 13.5516 23.9809 13.6271C23.6535 13.3524 23.3147 13.114 23.005 12.9109C22.2465 12.4134 21.9356 11.9824 22.0241 11.5539C22.153 10.9366 23.0366 10.8168 23.4095 10.7934C23.7293 10.7738 24.0593 10.7673 24.3791 10.7608C25.1767 10.7452 25.9984 10.7296 26.7771 10.5095C26.7417 10.3988 26.705 10.2894 26.6658 10.18C25.9314 10.3832 25.1413 10.3988 24.3728 10.4144C24.0504 10.4209 23.7167 10.4274 23.3893 10.447C22.4374 10.5056 21.8193 10.8819 21.6929 11.481C21.5311 12.2558 22.2592 12.8354 22.8217 13.2039C23.1137 13.3953 23.4348 13.6206 23.7432 13.8785C23.6775 13.9918 23.6371 14.1246 23.6371 14.2666C23.6371 14.6859 23.967 15.0258 24.374 15.0258C24.5004 15.0258 24.618 14.9893 24.7229 14.932C24.9909 15.3344 25.1755 15.7837 25.202 16.2825C25.2437 17.086 24.8506 17.9286 24.1503 18.5368C22.4008 20.0552 19.1862 20.1998 17.2129 19.4653C16.6693 19.2621 16.2914 19.0069 16.06 18.6826C15.8199 18.3466 15.7149 17.9143 15.7377 17.379C16.0942 17.3256 16.3672 17.0118 16.3672 16.6302C16.3672 16.3502 16.2193 16.1093 16.0006 15.9778C16.6377 13.5803 17.6654 11.1802 18.9902 9.00794C20.0596 7.25245 21.3263 5.64022 22.7105 4.2624C22.6245 4.18557 22.5385 4.11134 22.4513 4.03711C21.057 5.42925 19.7815 7.05451 18.7045 8.82301C17.3658 11.0213 16.3242 13.4487 15.6783 15.8762" fill="#F6FFEA"/>
<path d="M13.5534 18.0476C13.3612 18.1687 13.2487 18.3693 13.2677 18.5581C13.2816 18.7014 13.3612 18.8134 13.4383 18.9228C13.499 19.0087 13.5559 19.0895 13.5787 19.1793C13.5938 19.2405 13.5938 19.3056 13.5938 19.376C13.5938 19.4124 13.5938 19.4502 13.5951 19.4867C13.6141 19.8213 13.8618 20.1547 14.1993 20.2993C14.3055 20.3449 14.4117 20.367 14.5154 20.367C14.6835 20.367 14.8428 20.3058 14.973 20.1873C15.4066 19.7888 15.1778 18.8759 14.9287 18.4748C14.6544 18.0359 14.0236 17.752 13.5559 18.0463M14.8807 20.0831C14.6494 20.2954 14.3864 20.229 14.2499 20.1704C13.963 20.0479 13.7443 19.7562 13.7291 19.4775C13.7278 19.4437 13.7278 19.4098 13.7278 19.376C13.7278 19.3004 13.7278 19.2223 13.7089 19.1442C13.6798 19.0282 13.6128 18.9319 13.5471 18.8407C13.4775 18.7417 13.4118 18.6493 13.4017 18.5438C13.3853 18.3784 13.5117 18.2365 13.6242 18.1648C13.7354 18.0945 13.8593 18.0633 13.9832 18.0633C14.3055 18.0633 14.6392 18.2716 14.8124 18.549C15.0652 18.9527 15.2207 19.7706 14.8807 20.0818" fill="#F6FFEA"/>
<path d="M13.6744 23.7409L13.7173 23.677C14.5276 22.4907 14.8045 21.7965 14.6123 21.4267C14.5516 21.3108 14.4177 21.1754 14.1143 21.1819C13.6655 21.1936 13.2623 21.7497 12.9943 22.1169C12.9627 22.1599 12.9336 22.2003 12.9083 22.2341C12.4343 22.8657 11.9994 23.5794 11.6139 24.3555C10.9616 25.6669 10.4673 27.1112 10.1387 28.6544C10.2474 28.6843 10.3561 28.713 10.4661 28.7416C10.7884 27.2232 11.2738 25.8037 11.9135 24.5144C12.2889 23.7578 12.7136 23.0624 13.175 22.4477C13.2016 22.4125 13.2319 22.3709 13.2635 22.3266C13.4633 22.0518 13.8362 21.5387 14.1206 21.5309C14.1926 21.5296 14.2849 21.5387 14.3127 21.5921C14.3544 21.6728 14.4164 22.0492 13.4392 23.4778L13.395 23.5429C12.3066 25.1617 11.7466 27.0812 11.7909 29.0021C11.9034 29.019 12.0159 29.0334 12.1296 29.0477C12.0753 27.1815 12.615 25.314 13.6718 23.7409" fill="#F6FFEA"/>
<path d="M18.2178 21.1109C18.0547 21.0823 17.8929 21.0549 17.7311 21.0263C17.6793 21.0171 17.6148 21.0041 17.5403 20.9885C17.0574 20.8895 16.2496 20.7228 15.8413 21.0406C15.6985 21.1526 15.6138 21.3154 15.5986 21.5133C15.5253 22.4392 16.8665 22.7883 17.5099 22.9562L17.6148 22.9836C17.9599 23.0761 18.3139 23.1373 18.6565 23.1972C19.2367 23.2987 19.784 23.3951 20.3061 23.623C20.5855 23.7441 20.7966 23.9056 20.9432 24.1075C20.7789 24.2468 20.6714 24.4552 20.6714 24.6922C20.6714 25.023 20.8787 25.3017 21.1657 25.4058C21.1214 25.6963 21.0342 26.0218 20.904 26.3865C20.8004 26.6756 20.6879 26.9686 20.5652 27.2655C20.7296 27.1678 20.8914 27.0663 21.0519 26.9634C21.1113 26.8097 21.1682 26.6586 21.2226 26.5076C21.3035 26.2823 21.4438 25.8877 21.507 25.4436C21.8685 25.3941 22.1479 25.079 22.1479 24.6948C22.1479 24.2755 21.818 23.9356 21.4109 23.9356C21.3566 23.9356 21.3022 23.9434 21.2517 23.9551C21.081 23.6986 20.8219 23.472 20.4401 23.3053C19.8814 23.0617 19.2885 22.9576 18.7146 22.8573C18.3783 22.7987 18.032 22.7375 17.7008 22.6489L17.5946 22.6216C17.0409 22.477 15.8868 22.1762 15.9361 21.5446C15.9437 21.4443 15.9791 21.3727 16.0461 21.3206C16.3343 21.0966 17.1054 21.2555 17.4758 21.331C17.5542 21.3466 17.6224 21.3609 17.6768 21.3701C17.8386 21.3974 18.0004 21.4261 18.1635 21.4547C20.1102 21.7933 22.1239 22.1449 24.1262 21.9535C24.7431 21.8949 25.3423 21.7621 25.9061 21.5628C25.9832 21.4117 26.0578 21.2594 26.1298 21.1057C25.4978 21.3675 24.8088 21.5407 24.0946 21.6084C22.1365 21.7946 20.1456 21.4482 18.2191 21.1122" fill="#F6FFEA"/>
<path d="M18.1506 24.5976C17.6538 24.2525 16.9712 24.1444 16.1217 24.2733C15.6919 24.3384 15.3594 24.4374 15.075 24.5845C14.3178 24.9739 13.7515 25.797 13.5214 26.8427C13.3533 27.6085 13.3697 28.3924 13.4165 29.1621C13.462 29.1621 13.5062 29.1621 13.5518 29.1634C13.505 28.4002 13.4873 27.6241 13.6529 26.8727C13.8741 25.8673 14.4139 25.0781 15.1344 24.7083C15.4062 24.5689 15.726 24.4739 16.1406 24.41C16.956 24.2863 17.607 24.3879 18.0747 24.7122C18.6979 25.1445 19.0329 26.034 18.9267 26.9782C18.8774 27.4196 18.7459 27.8442 18.5728 28.2609C18.6309 28.2388 18.6891 28.2166 18.7472 28.1932C18.9002 27.8051 19.0152 27.4092 19.0607 26.9951C19.1732 26.0001 18.8155 25.0599 18.1506 24.5976Z" fill="#F6FFEA"/>
<path d="M23.5845 23.5359C23.266 23.8575 23.3229 24.3589 23.3734 24.8004C23.3823 24.8785 23.3911 24.9554 23.3987 25.0309C23.4 25.0504 23.4012 25.07 23.4025 25.0895C23.4442 25.0465 23.4859 25.0035 23.5264 24.9606C23.5201 24.902 23.5137 24.8434 23.5074 24.7835C23.4581 24.3537 23.4075 23.9096 23.6781 23.6348C23.8159 23.4955 24.0168 23.4343 24.1774 23.3965C24.41 23.3418 24.6552 23.3106 24.8992 23.2845C24.9333 23.235 24.9687 23.1843 25.0028 23.1348C24.7172 23.1634 24.4251 23.196 24.147 23.2624C23.9701 23.3041 23.7451 23.3744 23.5833 23.5372" fill="#F6FFEA"/>
<path d="M18.0401 13.7755C17.8379 14.6519 17.7848 15.3577 17.8733 15.9972C17.987 16.8163 18.3461 17.5104 18.8846 17.9506C19.351 18.3322 19.9805 18.5392 20.6657 18.5392C20.7074 18.5392 20.7491 18.5392 20.7908 18.5366C21.275 18.5197 21.6694 18.3986 21.9626 18.1772C22.7388 17.5925 22.7439 16.3696 22.3545 15.5153C22.0979 14.954 21.7086 14.4696 21.3319 14.0008C21.1309 13.7507 20.9223 13.4916 20.7377 13.2246C20.4356 12.7883 19.7783 11.6632 20.1954 10.65C20.4799 9.95586 21.2143 9.45969 22.3785 9.17449C22.8172 9.0677 23.2697 8.98435 23.7071 8.90361C24.4365 8.76947 25.1899 8.63143 25.9016 8.37618C25.8801 8.33451 25.8599 8.29284 25.8371 8.25116C25.1406 8.4986 24.3986 8.63534 23.6818 8.76687C23.2419 8.84761 22.7868 8.93096 22.3457 9.03905C21.1385 9.33467 20.3724 9.85949 20.0703 10.5953C19.7581 11.3545 19.9616 12.3429 20.6278 13.3053C20.8148 13.5762 21.0247 13.8367 21.2282 14.0893C21.5998 14.5503 21.9841 15.0283 22.2319 15.5739C22.5985 16.3774 22.601 17.5247 21.8817 18.0639C21.6112 18.2684 21.2421 18.3803 20.7858 18.396C20.0842 18.4207 19.4382 18.2241 18.968 17.8399C18.4649 17.4284 18.1135 16.7486 18.006 15.975C17.9201 15.3538 17.9719 14.6649 18.1703 13.8054C18.6153 11.8819 19.5697 9.92981 21.0083 8.00113C21.7831 6.9619 22.6554 5.98519 23.5491 5.05796C23.5175 5.0254 23.4872 4.99154 23.4543 4.95898C22.5555 5.89142 21.6808 6.87204 20.9008 7.91778C19.4509 9.86079 18.4876 11.8312 18.0389 13.7742" fill="#F6FFEA"/>
<path d="M16.9921 4.00747C16.446 4.60782 15.9416 5.25766 15.4537 5.88537C14.8835 6.61855 14.2945 7.37779 13.6371 8.06018L13.5904 8.10837C12.3768 9.36638 11.0002 10.7924 11.2037 12.7172C11.2366 13.0323 11.3415 13.4803 11.6474 13.8332C11.9003 14.1236 12.1645 14.2708 12.4337 14.2708C12.4716 14.2708 12.5096 14.2682 12.5475 14.2617C13.1543 14.1692 13.5967 13.3813 13.8065 12.919C13.9873 12.5231 14.1213 12.1064 14.2502 11.704C14.3438 11.4123 14.4411 11.1101 14.5549 10.8197C15.3854 8.6983 16.3625 6.45316 17.882 4.41769C18.734 3.27689 19.4432 2.69737 19.9981 2.37961C19.9501 2.35357 19.9008 2.33012 19.8527 2.30408C19.2965 2.63877 18.6 3.2274 17.7745 4.33174C16.245 6.38154 15.2628 8.63579 14.4285 10.7663C14.3134 11.062 14.2148 11.3654 14.12 11.6597C13.9911 12.0582 13.8584 12.471 13.6826 12.8591C13.5234 13.2107 13.091 14.0364 12.526 14.1223C12.2643 14.1614 12.0027 14.0325 11.746 13.7382C11.4629 13.4126 11.3668 12.9932 11.3365 12.6989C11.1405 10.8393 12.4919 9.438 13.6839 8.20213L13.7307 8.15395C14.3943 7.46634 14.9859 6.7045 15.5573 5.96871C16.044 5.34231 16.5458 4.69508 17.0894 4.09863C17.7847 3.33549 18.5785 2.6596 19.4368 2.09702C19.3888 2.07357 19.3395 2.05144 19.2902 2.0293C18.4521 2.58798 17.6734 3.25345 16.9908 4.00226" fill="#F6FFEA"/>
<path d="M6.13005 19.1787C6.56617 18.9769 7.01619 18.7685 7.45609 18.5536C7.51298 18.5263 7.57239 18.4989 7.63307 18.4703C8.13112 18.2398 8.81374 17.9246 8.50024 17.1589C8.2095 16.4465 7.15398 16.5911 6.63696 16.7669C6.10856 16.9466 5.6459 17.2683 5.19841 17.5808L1.05469 20.468C1.07238 20.511 1.09135 20.5539 1.10904 20.5982L5.27426 17.6967C5.71416 17.3907 6.16924 17.0729 6.67994 16.8997C7.23361 16.7122 8.14124 16.6393 8.37636 17.2136C8.63803 17.8543 8.07424 18.1148 7.57745 18.3453C7.51551 18.3739 7.45483 18.4026 7.39795 18.4299C6.96057 18.6435 6.51055 18.8518 6.0757 19.0537C5.09475 19.5069 4.08221 19.9757 3.13793 20.5461C2.58931 20.8782 2.08999 21.2546 1.62353 21.6895C1.64629 21.7312 1.66778 21.7729 1.69053 21.8145C2.15698 21.377 2.65757 20.998 3.20619 20.6659C4.14289 20.0994 5.15417 19.6319 6.13132 19.18" fill="#F6FFEA"/>
<path d="M2.06681 16.855C2.77091 16.5581 3.64693 16.1882 3.56729 15.2623C3.5496 15.0565 3.46743 14.869 3.38906 14.688C3.32711 14.5473 3.26897 14.4132 3.23863 14.2712C3.1552 13.8871 3.27276 13.443 3.60016 12.913L3.64567 12.84C3.7607 12.6564 3.87953 12.4663 3.9263 12.2449C3.97939 11.9922 3.90607 11.6667 3.6621 11.5351C3.11474 11.2395 2.53326 12.0248 2.10726 12.5978C1.95556 12.8023 1.8241 12.9781 1.72297 13.0718C1.21607 13.5381 0.632051 13.9027 0.00758478 14.1462C0.00505658 14.197 0.0025282 14.2465 0 14.2973C0.661125 14.0472 1.27927 13.667 1.81398 13.1747C1.92523 13.0718 2.06048 12.8908 2.21597 12.6811C2.61163 12.1472 3.1552 11.4166 3.60142 11.6576C3.78472 11.7565 3.83781 12.0131 3.7961 12.2149C3.75564 12.4116 3.64314 12.59 3.53443 12.7632L3.48892 12.8361C3.14129 13.3987 3.01741 13.8766 3.10969 14.2986C3.14382 14.4549 3.20702 14.6007 3.26897 14.7414C3.34734 14.9198 3.42066 15.0891 3.43583 15.2714C3.50788 16.0957 2.68242 16.4435 2.01877 16.7234C1.89489 16.7755 1.77859 16.825 1.67241 16.8745C1.1832 17.105 0.700312 17.359 0.230066 17.6298C0.238915 17.678 0.247764 17.7262 0.256612 17.7744C0.736971 17.4957 1.22871 17.2365 1.72803 17.0008C1.83168 16.9513 1.94672 16.9032 2.06933 16.8511" fill="#F6FFEA"/>
<path d="M6.33034 24.2738C5.39491 24.292 4.79825 24.7257 4.3457 25.3208C4.37857 25.3521 4.41017 25.3833 4.44304 25.4146C4.87789 24.8376 5.43915 24.4313 6.33287 24.4131C6.62867 24.4066 7.17982 24.4561 7.55526 24.8533C7.96862 25.2908 7.98252 25.9589 7.85738 26.4382C7.76004 26.8119 7.58433 27.1792 7.38839 27.5399C7.42885 27.5607 7.46803 27.5829 7.50848 27.6037C7.70695 27.2378 7.88645 26.8614 7.98758 26.4746C8.12284 25.9576 8.10514 25.2348 7.65259 24.7556C7.24176 24.3219 6.64763 24.2686 6.33034 24.2738Z" fill="#F6FFEA"/>
<path d="M9.28875 2.21897C9.78807 2.58882 10.3038 2.97039 10.9194 2.99252C10.9384 2.99252 10.9561 2.99252 10.9751 2.99252C11.7259 2.99252 12.3605 2.45338 12.9471 1.89991L14.0721 0.838542C14.0064 0.83724 13.9406 0.835938 13.8749 0.835938L12.856 1.79833C12.2758 2.34659 11.6488 2.87792 10.9245 2.85318C10.3493 2.83234 9.85128 2.4638 9.36839 2.10567C9.29886 2.05488 9.2306 2.00409 9.16234 1.9546C9.05868 1.87907 8.95629 1.81135 8.85643 1.75145C8.80207 1.77228 8.74772 1.79312 8.69336 1.81526C8.81977 1.88688 8.94997 1.97153 9.08397 2.0692C9.15223 2.11869 9.22049 2.16948 9.28875 2.21897Z" fill="#F6FFEA"/>
<path d="M25.0903 12.9635L25.0347 12.9231C24.8881 12.8189 24.7376 12.7108 24.6352 12.5663C24.5341 12.423 24.4747 12.2068 24.572 12.0441C24.6947 11.8383 24.9854 11.8201 25.2534 11.8292L27.142 11.8982C27.1318 11.8513 27.1217 11.8044 27.1104 11.7576L25.2584 11.6898C24.969 11.6781 24.6175 11.7016 24.457 11.9711C24.3281 12.1886 24.3989 12.4686 24.5265 12.6483C24.6416 12.8111 24.8034 12.927 24.9589 13.0377L25.0145 13.0781C26.1572 13.9037 26.9865 15.1539 27.3998 16.5343C27.4112 16.421 27.4213 16.3064 27.4314 16.1918C26.9839 14.9039 26.1762 13.7474 25.0928 12.9648" fill="#F6FFEA"/>
<path d="M3.94539 22.3299C4.35243 22.3299 4.68236 21.99 4.68236 21.5706C4.68236 21.4547 4.65581 21.3466 4.6103 21.249C5.76316 20.5184 7.03991 20.1134 8.37859 19.6888C8.77805 19.5625 9.19267 19.431 9.59845 19.2916C10.6123 18.9439 12.0862 18.354 13.1733 17.2601C14.3287 16.0984 14.9026 14.6711 15.3122 13.43C15.3804 13.223 15.4487 13.0159 15.5157 12.8075C15.852 11.78 16.1996 10.7174 16.6054 9.70029C16.9998 8.71315 17.5496 7.79634 18.0831 6.96028C18.1703 6.99804 18.2664 7.01888 18.3675 7.01888C18.7746 7.01888 19.1045 6.67898 19.1045 6.25965C19.1045 6.04868 19.0211 5.85854 18.8858 5.7205C19.4155 4.91438 19.9755 4.11087 20.6467 3.42587C20.7819 3.28783 20.9197 3.1576 21.06 3.03519C20.9602 2.97007 20.8591 2.90626 20.7579 2.84375C20.6404 2.95054 20.5241 3.06123 20.409 3.17844C19.7113 3.88949 19.1374 4.71514 18.5963 5.54078C18.5243 5.51604 18.4484 5.49911 18.3675 5.49911C17.9605 5.49911 17.6305 5.83901 17.6305 6.25834C17.6305 6.44718 17.7001 6.61908 17.8113 6.75191C17.2665 7.60621 16.7014 8.54516 16.2931 9.56745C15.8823 10.595 15.5334 11.6641 15.1946 12.6968C15.1264 12.9039 15.0594 13.111 14.9911 13.318C14.5942 14.5214 14.0392 15.9005 12.9357 17.0113C12.1355 17.8174 11.0724 18.4191 9.48973 18.9621C9.08775 19.1002 8.67565 19.2304 8.27746 19.3567C6.96153 19.7735 5.60894 20.2032 4.39667 20.9768C4.27153 20.8752 4.11478 20.8114 3.94286 20.8114C3.53582 20.8114 3.20589 21.1513 3.20589 21.5706C3.20589 21.6683 3.22485 21.7608 3.25772 21.8454C2.91641 22.1462 2.58269 22.4692 2.25781 22.8195C2.32102 22.9185 2.38549 23.0162 2.45122 23.1138C2.77609 22.7609 3.10982 22.434 3.45112 22.1319C3.58133 22.253 3.75324 22.3286 3.94286 22.3286" fill="#F6FFEA"/>
<path d="M10.6732 24.6983C10.6732 24.4678 10.5708 24.2646 10.4141 24.1253C10.5316 23.8948 10.6581 23.6682 10.7971 23.4442C11.0171 23.0913 11.3179 22.7696 11.6377 22.4297C12.1914 21.8398 12.764 21.2303 12.9132 20.4085C12.9739 20.0752 12.8942 19.7652 12.6882 19.536C12.4518 19.2716 12.0726 19.1388 11.6744 19.1818C11.0158 19.2521 10.4179 19.549 9.83892 19.8368C9.68217 19.915 9.52163 19.9944 9.36488 20.0673C6.92011 21.199 4.92536 22.6198 3.39453 24.3141C3.46911 24.4014 3.54496 24.4886 3.62081 24.5746C5.12382 22.9037 7.0895 21.5012 9.50267 20.3851C9.66447 20.3109 9.82754 20.2288 9.98555 20.1507C10.538 19.8759 11.1093 19.592 11.7085 19.5282C12.0018 19.4969 12.2748 19.5881 12.4392 19.7717C12.5719 19.9202 12.6212 20.1181 12.5795 20.3447C12.4493 21.0636 11.912 21.6353 11.3938 22.1875C11.0777 22.5248 10.7503 22.8725 10.5127 23.2553C10.3686 23.4871 10.2371 23.7242 10.1145 23.9625C10.0563 23.9482 9.99819 23.9377 9.93625 23.9377C9.52921 23.9377 9.19928 24.2776 9.19928 24.697C9.19928 24.9613 9.33075 25.1931 9.52921 25.3299C9.18285 26.3053 8.97048 27.2911 8.8289 28.2131C8.93635 28.2548 9.0438 28.2965 9.15251 28.3356C9.2903 27.4122 9.5014 26.4238 9.8465 25.4471C9.87558 25.451 9.90592 25.4562 9.93625 25.4562C10.3433 25.4562 10.6732 25.1163 10.6732 24.697" fill="#F6FFEA"/>
</svg>
