<svg width="129" height="140" viewBox="0 0 129 140" fill="none" xmlns="http://www.w3.org/2000/svg">
<path d="M120.778 95.0189H119.609V94.7051H122.299V95.0189H121.111V97.8306H120.778V95.0189Z" fill="white"/>
<path d="M122.812 97.8306V94.7051H123.125L124.371 96.4681L125.618 94.7051H125.926V97.8306H125.593V95.2872L124.392 96.9842H124.347L123.15 95.2872V97.8306H122.812Z" fill="white"/>
<path d="M6.33428 100.588H2.40625V123.036H6.33428V100.588Z" fill="white"/>
<path d="M11.1797 100.588H14.8198L26.8013 116.108V100.588H30.6677V123.036H27.3772L15.0419 107.066V123.036H11.1797V100.588Z" fill="white"/>
<path d="M35.4688 100.588H39.4009V109.919H50.0703V100.588H53.9984V123.036H50.0703V113.573H39.4009V123.036H35.4688V100.588Z" fill="white"/>
<path d="M66.3073 100.428H69.9516L79.7902 123.037H75.6359L73.3696 117.616H62.7947L60.4955 123.037H56.4688L66.3073 100.428ZM71.93 114.119L68.0637 105.139L64.2302 114.119H71.93Z" fill="white"/>
<path d="M82.4727 100.588H91.6737C94.228 100.588 96.2722 101.294 97.5185 102.545C98.4439 103.474 98.9539 104.692 98.9539 106.17V106.236C98.9539 109.122 97.103 110.918 94.8326 111.558C97.7694 112.103 100.167 113.994 100.167 117.041V117.103C100.167 120.823 97.1318 123.036 92.1508 123.036H82.4727V100.588ZM91.8958 111.203C95.2192 111.203 97.8681 109.568 97.8681 106.327V106.265C97.8681 103.445 95.5688 101.583 91.6367 101.583H83.5544V111.203H91.8917H91.8958ZM92.1837 122.041C96.4943 122.041 99.0527 120.179 99.0527 117.136V117.074C99.0527 113.932 96.2722 112.198 92.3113 112.198H83.5585V122.041H92.1837Z" fill="white"/>
<path d="M105.668 100.588H104.582V123.036H105.668V100.588Z" fill="white"/>
<path d="M116.857 101.583H108.902V100.588H125.927V101.583H117.943V123.036H116.857V101.583Z" fill="white"/>
<path d="M36.1367 16.6517C36.5933 15.7805 36.581 14.7483 36.0997 14.0257C35.6843 13.394 34.9686 13.0761 34.1378 13.1463C33.1465 13.233 32.3115 13.8977 31.5712 14.484C31.2915 14.707 31.0282 14.9176 30.7815 15.0745C30.5511 15.2231 30.3126 15.3759 30.0699 15.5328C29.3871 16.3255 28.729 17.143 28.1038 17.9812C29.2884 17.3371 30.3989 16.631 31.3779 16.0034C31.6699 15.8135 31.9578 15.5864 32.2581 15.347C32.9038 14.8309 33.5743 14.3024 34.2365 14.2446C34.6725 14.2033 34.9933 14.3395 35.1907 14.6368C35.4457 15.0249 35.4375 15.6277 35.1702 16.1397C32.8915 20.475 28.001 23.8193 23.4971 25.6278C23.275 26.0984 23.0611 26.5691 22.8555 27.0481C27.8324 25.2727 33.5537 21.5774 36.1409 16.6558" fill="white"/>
<path d="M36.1109 11.0038C36.6045 11.6272 37.4107 12.0071 38.3197 12.0484C38.3485 12.0484 38.3814 12.0484 38.4143 12.0484C39.5166 12.0484 41.2153 11.2102 41.9351 10.0335C42.3629 9.33571 42.3917 8.6173 42.0174 7.96081C41.8158 7.6016 41.4662 7.36626 41.2236 7.21762C40.9356 7.04421 40.6107 6.89144 40.2734 6.76758C40.1089 6.8708 39.9444 6.96989 39.7799 7.07724C40.2405 7.20936 40.6683 7.40342 40.9932 7.59747C41.3182 7.79153 41.5156 7.96907 41.6308 8.17964C41.9228 8.69987 41.8981 9.24488 41.5567 9.8064C40.9027 10.8758 39.2904 11.652 38.3361 11.6107C37.5629 11.5777 36.8595 11.2474 36.4523 10.7313L36.2796 10.8675L36.4359 10.7106C36.2055 10.4133 36.1027 10.0748 36.0904 9.72382C35.9588 9.83117 35.8271 9.93852 35.6914 10.0459C35.749 10.3844 35.8765 10.7065 36.0945 10.9872C36.0945 10.9872 36.1027 10.9955 36.1068 10.9996" fill="white"/>
<path d="M35.0661 25.7644C35.4034 25.9502 35.7859 26.0616 36.2013 26.0616C37.5258 26.0616 38.5993 24.984 38.5993 23.6545C38.5993 23.0971 38.4018 22.5893 38.0851 22.1805C39.4959 20.3639 40.7628 18.5554 41.861 16.9452C42.2805 16.33 42.7001 15.6859 43.1073 15.0666C44.0451 13.6339 45.0116 12.1516 46.0769 10.8469C46.8708 9.8725 47.7469 9.21601 48.6764 8.88984C49.7129 8.5265 50.8523 8.62559 51.6502 9.14582C52.4153 9.64541 52.8471 10.2523 52.9747 10.9955C53.3284 13.0393 51.2924 15.7272 50.1983 17.1723C47.5906 20.6116 44.6908 23.8858 41.569 26.8957C40.989 27.4572 40.3227 28.0146 39.6193 28.6009C36.8512 30.913 33.7129 33.539 34.4121 37.6926C34.7453 39.662 36.1766 40.8965 38.0481 40.8965C38.2168 40.8965 38.3936 40.8883 38.5705 40.8676C40.5078 40.6406 42.3998 39.4267 44.3618 37.1641C48.2446 32.6884 51.0579 27.4655 53.7808 22.4159C55.2328 19.7239 56.7176 16.9823 58.367 14.3399C58.5891 14.406 58.8194 14.4555 59.0621 14.4555C60.3865 14.4555 61.46 13.3779 61.46 12.0484C61.46 11.4786 61.2544 10.9666 60.9294 10.5538C61.4107 9.9014 61.9042 9.2573 62.4184 8.63385C64.6436 5.94185 67.9423 2.73375 72.1912 0.768424C71.5824 0.652817 70.9655 0.553725 70.3485 0.462891C66.585 2.51905 63.6318 5.43813 61.5711 7.93195C61.0487 8.56366 60.551 9.21601 60.0657 9.8725C59.7613 9.72799 59.4199 9.64541 59.0621 9.64541C57.7377 9.64541 56.6641 10.723 56.6641 12.0525C56.6641 12.742 56.9562 13.3572 57.4168 13.7949C55.7592 16.4539 54.2744 19.1995 52.8184 21.8957C50.1243 26.8957 47.3397 32.0608 43.5391 36.4457C41.7623 38.4936 40.0965 39.5836 38.4471 39.7776C36.917 39.9593 35.7612 39.0716 35.498 37.515C34.9016 33.9849 37.6574 31.681 40.3227 29.4514C41.0425 28.8486 41.7211 28.283 42.3299 27.6925C45.4929 24.6413 48.4338 21.3259 51.0744 17.8411C52.2672 16.2639 54.4924 13.3283 54.0605 10.8097C53.8795 9.76102 53.2708 8.89396 52.2549 8.22509C51.1649 7.51081 49.6924 7.37043 48.3186 7.8535C47.1957 8.24574 46.1551 9.02196 45.2296 10.1533C44.1273 11.5034 43.1443 13.0063 42.19 14.4638C41.7869 15.079 41.3715 15.7189 40.9561 16.3259C39.8743 17.9155 38.624 19.6991 37.2337 21.491C36.9211 21.3383 36.5756 21.2474 36.2013 21.2474C34.8769 21.2474 33.8034 22.3251 33.8034 23.6545C33.8034 24.1665 33.9679 24.6413 34.2394 25.0336C29.3653 30.2731 24.5406 32.7793 20.5262 33.8982C20.4234 34.3028 20.3288 34.7115 20.2383 35.1203C26.5643 33.5348 31.5658 29.5216 35.0661 25.7602" fill="white"/>
<path d="M37.5286 47.5185C40.8067 44.9173 44.525 41.9734 48.1404 45.1361C49.1111 45.9867 49.7734 47.1138 50.4767 48.3112C50.596 48.5135 50.7153 48.7158 50.8345 48.914C51.7106 50.3756 52.6608 51.2261 54.0222 51.7546C55.0505 52.1551 56.1076 52.1345 56.922 51.6968C57.6294 51.317 58.123 50.7142 58.3451 49.9503C58.6125 49.0296 58.4521 47.9148 57.9215 46.9693C57.1194 45.5449 55.9307 44.8306 54.7831 44.1369C54.1867 43.7777 53.5698 43.4061 53.0227 42.9396C52.196 42.2335 51.616 41.4656 51.2253 40.6522C52.0973 40.293 52.7142 39.4342 52.7142 38.4268C52.7142 37.25 51.8752 36.2756 50.7646 36.0651C51.5214 32.1303 54.6063 27.9561 56.7945 24.9998L57.1976 24.4589C61.0351 19.2483 65.4073 14.4135 70.1909 10.0865C73.3004 7.2706 76.7226 5.1938 80.3339 3.117C79.8938 2.94359 79.4496 2.77843 79.0012 2.61328C75.6244 4.57035 72.4202 6.58522 69.4588 9.26483C64.6217 13.6414 60.2001 18.5341 56.3173 23.7983L55.9184 24.3392C54.0839 26.8165 51.5708 30.2104 50.2998 33.6786C49.9872 34.5291 49.7692 35.3467 49.6376 36.127C48.6464 36.4243 47.9183 37.3326 47.9183 38.4226C47.9183 39.6695 48.8685 40.6852 50.0818 40.805C50.5507 41.9074 51.2911 42.9024 52.3153 43.7736C52.9322 44.298 53.5862 44.6943 54.2196 45.0783C55.2932 45.7265 56.3091 46.3376 56.9672 47.5102C57.358 48.2038 57.4772 49.0007 57.2922 49.6407C57.1523 50.1196 56.8562 50.483 56.4078 50.7224C55.8772 51.0073 55.1533 51.0073 54.4212 50.7224C53.2901 50.2806 52.525 49.5911 51.7764 48.3442C51.6572 48.146 51.542 47.9479 51.4268 47.7455C50.7112 46.5275 49.9708 45.2641 48.8685 44.298C44.562 40.5325 40.1075 44.0626 36.854 46.6431L27.2704 54.2402C25.3866 55.7348 23.1697 56.8537 21.0391 57.7084C21.146 58.0635 21.2529 58.4144 21.3681 58.7654C23.6057 57.8736 25.9501 56.6927 27.9532 55.1031L37.5368 47.5061L37.5286 47.5185Z" fill="white"/>
<path d="M51.4126 68.2171C51.5689 67.6886 51.5977 67.2056 51.5031 66.7885C51.3303 66.033 50.7051 65.4219 49.9483 65.265C48.6609 64.9966 46.2794 66.4417 44.6054 67.5565C43.7375 68.1304 42.6969 69.0388 42.6722 70.0875C42.6599 70.6985 42.9889 71.2518 43.6594 71.7431C44.5108 72.3625 45.4362 72.6763 46.3411 72.6763C47.1679 72.6763 47.9823 72.4161 48.7144 71.8959C49.7015 71.194 50.9807 69.6705 51.4126 68.2212M43.9144 71.3839C43.3673 70.9876 43.0959 70.554 43.1082 70.0957C43.1288 69.1915 44.2023 68.3451 44.8439 67.9198C45.7118 67.3459 48.2414 65.6696 49.5946 65.6696C49.6892 65.6696 49.7756 65.6779 49.8578 65.6944C50.4378 65.8141 50.9396 66.3055 51.0753 66.8876C51.1535 67.2303 51.1288 67.6391 50.9931 68.0933C50.6064 69.398 49.4054 70.8678 48.4635 71.5367C47.065 72.5276 45.4074 72.4739 43.9185 71.3881" fill="white"/>
<path d="M70.2496 47.7242C70.1961 47.7242 70.1467 47.7077 70.0933 47.7077C68.7688 47.7077 67.6953 48.7853 67.6953 50.1148C67.6953 51.1842 68.3945 52.076 69.3488 52.3939C69.2501 54.3716 69.6614 55.9901 70.6033 57.2742C71.4917 58.484 72.8861 59.4212 74.8645 60.1396C77.3817 61.0562 80.4995 61.5558 83.7283 61.5558C89.1 61.5558 94.7802 60.1685 98.5232 57.0058C101.065 54.8588 102.488 51.8489 102.336 48.9587C102.237 47.1008 101.534 45.4492 100.518 43.9959C100.785 43.6078 100.946 43.1371 100.946 42.6251C100.946 41.2956 99.8723 40.218 98.5479 40.218C98.0749 40.218 97.6347 40.3625 97.2605 40.602C96.1952 39.7308 95.0928 38.9752 94.0851 38.3311C91.6172 36.7539 90.6054 35.3873 90.8933 34.0289C91.3129 32.0718 94.188 31.692 95.4013 31.6176C96.4419 31.5557 97.5155 31.5351 98.5561 31.5144C101.151 31.4649 103.825 31.4153 106.359 30.7176C106.244 30.3666 106.124 30.0198 105.997 29.673C103.607 30.3171 101.036 30.3666 98.5355 30.4162C97.4867 30.4368 96.4008 30.4574 95.3355 30.5194C92.2383 30.7052 90.227 31.8984 89.8157 33.7977C89.2892 36.2543 91.6584 38.0917 93.4887 39.2601C94.4388 39.8671 95.4836 40.5813 96.4872 41.3988C96.2733 41.7581 96.1417 42.1792 96.1417 42.6292C96.1417 43.9587 97.2152 45.0364 98.5396 45.0364C98.9509 45.0364 99.3335 44.9207 99.6749 44.7391C100.547 46.0149 101.147 47.4393 101.234 49.0207C101.369 51.5682 100.09 54.2395 97.8116 56.1677C92.1191 60.9819 81.6594 61.4402 75.2388 59.1115C73.4701 58.4674 72.2403 57.6582 71.4876 56.6301C70.7061 55.5649 70.3647 54.1941 70.4388 52.4971C71.5987 52.3279 72.4871 51.3328 72.4871 50.1231C72.4871 49.2354 72.0059 48.4715 71.2943 48.0545C73.3673 40.4533 76.7113 32.8439 81.0218 25.957C84.5015 20.3914 88.6229 15.2799 93.1268 10.9116C92.8471 10.668 92.5674 10.4326 92.2836 10.1973C87.7468 14.611 83.5967 19.7638 80.0923 25.3707C75.7365 32.3402 72.3473 40.0363 70.2454 47.7325" fill="white"/>
<path d="M63.3113 54.5465C62.6861 54.9304 62.32 55.5663 62.3817 56.165C62.427 56.6191 62.6861 56.9742 62.937 57.321C63.1344 57.5935 63.3195 57.8495 63.3936 58.1344C63.4429 58.3285 63.4429 58.5349 63.4429 58.7579C63.4429 58.8735 63.4429 58.9932 63.447 59.1088C63.5087 60.1699 64.3149 61.2269 65.4131 61.6852C65.7586 61.8297 66.1041 61.8999 66.4414 61.8999C66.9884 61.8999 67.5067 61.7059 67.9303 61.3301C69.3411 60.0667 68.5967 57.1724 67.7864 55.9007C66.8938 54.5093 64.8414 53.6092 63.3195 54.5423M67.6301 60.9998C66.8774 61.6728 66.0219 61.4623 65.5776 61.2765C64.644 60.8883 63.9324 59.9635 63.883 59.0799C63.8789 58.9726 63.8789 58.8652 63.8789 58.7579C63.8789 58.5184 63.8789 58.2707 63.8172 58.0229C63.7226 57.6555 63.5046 57.3499 63.2907 57.0609C63.0645 56.7471 62.8506 56.454 62.8177 56.1195C62.7643 55.5952 63.1756 55.1451 63.5416 54.9181C63.9036 54.6951 64.3067 54.596 64.7098 54.596C65.7586 54.596 66.8445 55.2566 67.408 56.1361C68.2306 57.416 68.7365 60.0089 67.6301 60.9957" fill="white"/>
<path d="M63.7154 72.6725L63.8552 72.4702C66.4917 68.7088 67.3925 66.5081 66.7673 65.3355C66.5699 64.9681 66.1339 64.5387 65.1467 64.5593C63.6866 64.5965 62.3745 66.3595 61.5025 67.5238C61.3997 67.6601 61.3051 67.7881 61.2228 67.8954C59.6804 69.8979 58.2655 72.1605 57.011 74.6213C54.8886 78.779 53.2804 83.3579 52.2109 88.2505C52.5647 88.3455 52.9184 88.4363 53.2762 88.5272C54.3251 83.713 55.9045 79.2125 57.9858 75.125C59.2074 72.7261 60.5894 70.5213 62.0907 68.5725C62.177 68.4611 62.2758 68.3289 62.3786 68.1886C63.0285 67.3174 64.2418 65.6906 65.1673 65.6658C65.4017 65.6617 65.702 65.6906 65.7925 65.8599C65.9282 66.1159 66.1298 67.3091 62.9503 71.8384L62.8063 72.0449C59.2649 77.177 57.4428 83.2629 57.5868 89.3529C57.9529 89.4066 58.3189 89.452 58.6891 89.4975C58.5122 83.5808 60.2686 77.6601 63.7071 72.6725" fill="white"/>
<path d="M78.5045 64.3528C77.9739 64.262 77.4474 64.1753 76.9209 64.0845C76.7523 64.0556 76.5425 64.0143 76.2998 63.9647C74.7286 63.6509 72.1003 63.1224 70.7718 64.1299C70.307 64.485 70.0314 65.0011 69.9821 65.6286C69.7435 68.5642 74.1075 69.6708 76.2011 70.2034L76.5425 70.2901C77.6654 70.5832 78.817 70.7773 79.9317 70.9672C81.8196 71.2893 83.6006 71.5948 85.2993 72.3173C86.2083 72.7013 86.8952 73.2133 87.3723 73.8533C86.8376 74.2951 86.488 74.9557 86.488 75.7071C86.488 76.7558 87.1626 77.6394 88.0963 77.9697C87.9523 78.8904 87.6685 79.9226 87.2448 81.0787C86.9076 81.9953 86.5415 82.9243 86.1425 83.8657C86.6772 83.556 87.2037 83.234 87.7261 82.9078C87.9194 82.4206 88.1045 81.9417 88.2813 81.4627C88.5446 80.7484 89.0011 79.4974 89.2068 78.0895C90.3832 77.9326 91.2922 76.9334 91.2922 75.7154C91.2922 74.3859 90.2186 73.3083 88.8942 73.3083C88.7173 73.3083 88.5405 73.333 88.376 73.3702C87.8207 72.5568 86.9775 71.8384 85.7353 71.3099C83.9173 70.5378 81.9883 70.2075 80.1209 69.8896C79.0268 69.7038 77.8998 69.5097 76.8222 69.229L76.4767 69.1423C74.6751 68.684 70.9198 67.7302 71.0803 65.7277C71.1049 65.4098 71.2201 65.1827 71.4381 65.0176C72.3759 64.3074 74.8849 64.8111 76.09 65.0506C76.3451 65.1001 76.5672 65.1456 76.744 65.1745C77.2705 65.2612 77.797 65.352 78.3276 65.4428C84.6618 66.5163 91.214 67.6311 97.7292 67.0242C99.7364 66.8384 101.686 66.4172 103.52 65.7855C103.771 65.3066 104.014 64.8235 104.249 64.3363C102.192 65.1662 99.9503 65.7153 97.6264 65.93C91.2551 66.5205 84.777 65.4222 78.5086 64.357" fill="white"/>
<path d="M78.296 75.314C76.6795 74.2198 74.4584 73.8771 71.6944 74.2859C70.2959 74.4923 69.2142 74.8061 68.2887 75.2727C65.825 76.5072 63.9823 79.1166 63.2337 82.4321C62.6867 84.8598 62.7401 87.3454 62.8923 89.7855C63.0404 89.7855 63.1843 89.7855 63.3324 89.7897C63.1802 87.3702 63.1226 84.9094 63.6615 82.527C64.3813 79.3396 66.1376 76.8375 68.482 75.6649C69.3664 75.2231 70.407 74.9217 71.7561 74.7194C74.4091 74.3272 76.5273 74.6492 78.0492 75.6773C80.077 77.0481 81.1669 79.8681 80.8214 82.8615C80.661 84.2612 80.2333 85.6072 79.6698 86.9284C79.859 86.8582 80.0482 86.788 80.2374 86.7137C80.7351 85.4833 81.1093 84.2281 81.2574 82.9152C81.6235 79.7607 80.4595 76.7797 78.296 75.314Z" fill="white"/>
<path d="M95.9636 71.8869C94.9271 72.9067 95.1122 74.4963 95.2767 75.896C95.3055 76.1437 95.3343 76.3873 95.359 76.6268C95.3631 76.6887 95.3672 76.7507 95.3713 76.8126C95.5071 76.6764 95.6428 76.5401 95.7744 76.4039C95.7539 76.2181 95.7333 76.0323 95.7127 75.8423C95.5523 74.4798 95.3878 73.0719 96.268 72.2007C96.7163 71.7589 97.3703 71.5649 97.8927 71.4451C98.6495 71.2717 99.4475 71.1726 100.241 71.09C100.352 70.9332 100.468 70.7721 100.579 70.6152C99.649 70.7061 98.6989 70.8093 97.794 71.0199C97.2181 71.152 96.486 71.3749 95.9595 71.891" fill="white"/>
<path d="M77.9037 41.085C77.2456 43.8637 77.0729 46.1015 77.3608 48.1288C77.731 50.7258 78.8991 52.9265 80.6513 54.322C82.169 55.5318 84.2174 56.1883 86.4467 56.1883C86.5824 56.1883 86.7181 56.1883 86.8539 56.18C88.4292 56.1263 89.7125 55.7424 90.6667 55.0405C93.1922 53.1866 93.2087 49.3096 91.9418 46.6011C91.1068 44.8216 89.84 43.2857 88.6143 41.7993C87.9603 41.0066 87.2816 40.1849 86.6811 39.3385C85.6981 37.9554 83.5593 34.388 84.9166 31.1758C85.842 28.9751 88.2318 27.4021 92.02 26.4978C93.4472 26.1593 94.9197 25.895 96.3429 25.639C98.7161 25.2138 101.168 24.7761 103.483 23.9669C103.413 23.8347 103.348 23.7026 103.273 23.5705C101.007 24.355 98.5927 24.7885 96.2606 25.2055C94.8292 25.4615 93.3485 25.7257 91.913 26.0684C87.985 27.0057 85.4924 28.6696 84.5094 31.0024C83.4935 33.4095 84.1557 36.5433 86.3233 39.5945C86.932 40.4533 87.6148 41.2791 88.277 42.0801C89.4863 43.5417 90.7367 45.0569 91.5428 46.7869C92.7356 49.3344 92.7439 52.9719 90.4035 54.6813C89.5233 55.3295 88.3223 55.6846 86.8374 55.7341C84.5546 55.8126 82.4528 55.1891 80.9227 53.9711C79.2857 52.6664 78.1423 50.5111 77.7927 48.0586C77.513 46.0892 77.6816 43.905 78.3274 41.18C79.7752 35.0817 82.8806 28.8926 87.5613 22.7778C90.0827 19.483 92.9207 16.3863 95.8287 13.4466C95.7259 13.3434 95.6272 13.236 95.5202 13.1328C92.5958 16.0891 89.7495 19.1981 87.2117 22.5135C82.494 28.6737 79.3598 34.9207 77.8996 41.0809" fill="white"/>
<path d="M74.5207 10.0783C72.7438 11.9817 71.1027 14.042 69.515 16.0321C67.66 18.3566 65.7433 20.7638 63.6044 22.9273L63.4522 23.08C59.5036 27.0685 55.0245 31.5895 55.6867 37.692C55.7936 38.6911 56.135 40.1115 57.1304 41.2304C57.953 42.1511 58.8126 42.6177 59.6887 42.6177C59.8121 42.6177 59.9355 42.6094 60.0589 42.5888C62.0332 42.2956 63.4728 39.7977 64.1556 38.3319C64.7438 37.0768 65.1798 35.7555 65.5993 34.4797C65.9037 33.5549 66.2204 32.597 66.5906 31.6763C69.2929 24.9504 72.4723 17.8323 77.4163 11.3789C80.1886 7.76206 82.496 5.92473 84.3017 4.9173C84.1454 4.83472 83.985 4.7604 83.8287 4.67782C82.0189 5.73893 79.7526 7.60517 77.0667 11.1064C72.0898 17.6052 68.8939 24.7522 66.1792 31.507C65.805 32.4442 65.4841 33.4062 65.1756 34.3393C64.7561 35.6028 64.3242 36.9116 63.7525 38.142C63.2343 39.2568 61.8276 41.8745 59.989 42.147C59.1376 42.2708 58.2862 41.8621 57.4512 40.929C56.5299 39.8968 56.2173 38.5673 56.1185 37.6342C55.481 31.7382 59.8779 27.2956 63.7566 23.3773L63.9088 23.2245C66.0682 21.0445 67.9931 18.6291 69.8523 16.2964C71.4358 14.3104 73.0687 12.2584 74.8374 10.3674C77.0996 7.94786 79.6826 5.80499 82.4754 4.02134C82.3192 3.94702 82.1587 3.87683 81.9983 3.80664C79.2713 5.57791 76.7376 7.68774 74.5166 10.0618" fill="white"/>
<path d="M39.1744 58.2218C40.5934 57.5818 42.0577 56.9212 43.489 56.2399C43.6741 56.1532 43.8674 56.0665 44.0649 55.9757C45.6854 55.2449 47.9065 54.2457 46.8865 51.818C45.9404 49.5595 42.506 50.0178 40.8237 50.5752C39.1044 51.145 37.599 52.1648 36.143 53.1557L22.6602 62.3093C22.7177 62.4456 22.7794 62.5818 22.837 62.7222L36.3898 53.5232C37.8211 52.5529 39.3019 51.5454 40.9636 50.9963C42.7651 50.4018 45.7183 50.1705 46.4834 51.9914C47.3348 54.0227 45.5003 54.8485 43.8839 55.5793C43.6823 55.6702 43.4849 55.761 43.2998 55.8477C41.8767 56.5248 40.4124 57.1854 38.9975 57.8254C35.8057 59.2622 32.5111 60.7486 29.4386 62.557C27.6535 63.6099 26.0288 64.8031 24.5111 66.1822C24.5851 66.3143 24.655 66.4464 24.7291 66.5785C26.2468 65.1912 27.8756 63.9897 29.6607 62.9369C32.7085 61.1409 35.999 59.6586 39.1785 58.2259" fill="white"/>
<path d="M25.9554 50.8635C28.2464 49.9222 31.0968 48.7496 30.8377 45.814C30.7801 45.1616 30.5128 44.5671 30.2578 43.9932C30.0562 43.5472 29.867 43.122 29.7683 42.6719C29.4968 41.4539 29.8794 40.046 30.9447 38.3656L31.0927 38.1343C31.467 37.5522 31.8537 36.9494 32.0058 36.2475C32.1786 35.4465 31.94 34.4143 31.1462 33.9972C29.3652 33.06 27.4732 35.5497 26.0871 37.3664C25.5935 38.0146 25.1657 38.572 24.8367 38.8693C23.1873 40.3474 21.287 41.5035 19.2551 42.2756C19.2469 42.4366 19.2387 42.5935 19.2305 42.7545C21.3816 41.9618 23.393 40.7561 25.1328 39.1954C25.4948 38.8693 25.9349 38.2954 26.4408 37.6306C27.7282 35.9378 29.4968 33.6215 30.9488 34.3854C31.5452 34.6992 31.7179 35.5125 31.5822 36.1525C31.4506 36.776 31.0845 37.3416 30.7308 37.8907L30.5827 38.122C29.4516 39.9056 29.0485 41.4209 29.3488 42.7586C29.4598 43.2541 29.6655 43.7165 29.867 44.1624C30.122 44.7281 30.3606 45.2648 30.4099 45.8429C30.6444 48.4564 27.9585 49.5588 25.7991 50.4465C25.396 50.6117 25.0176 50.7686 24.6721 50.9255C23.0804 51.6563 21.5091 52.4614 19.9791 53.3202C20.0078 53.4729 20.0366 53.6257 20.0654 53.7785C21.6284 52.8949 23.2284 52.0733 24.8531 51.326C25.1904 51.1691 25.5647 51.0163 25.9637 50.8511" fill="white"/>
<path d="M39.8404 74.3975C36.7967 74.4553 34.8553 75.8302 33.3828 77.7171C33.4898 77.8162 33.5926 77.9153 33.6995 78.0144C35.1144 76.1853 36.9407 74.8971 39.8486 74.8393C40.8111 74.8186 42.6044 74.9755 43.826 76.2348C45.171 77.6221 45.2163 79.7402 44.8091 81.2596C44.4924 82.4446 43.9206 83.6089 43.2831 84.7526C43.4147 84.8187 43.5422 84.8889 43.6739 84.9549C44.3196 83.7947 44.9037 82.6015 45.2327 81.3752C45.6728 79.7361 45.6153 77.4446 44.1428 75.9252C42.806 74.5503 40.8728 74.381 39.8404 74.3975Z" fill="white"/>
<path d="M49.4451 4.38482C51.0698 5.55741 52.7479 6.76715 54.751 6.83734C54.8127 6.83734 54.8703 6.83734 54.932 6.83734C57.3752 6.83734 59.44 5.12801 61.3485 3.37326L65.0092 0.00825766C64.7953 0.00412883 64.5814 0 64.3675 0L61.0523 3.05121C59.1644 4.78944 57.1243 6.47401 54.7675 6.39556C52.896 6.3295 51.2754 5.16104 49.7042 4.02561C49.478 3.86459 49.2559 3.70356 49.0338 3.54667C48.6965 3.30719 48.3633 3.09249 48.0384 2.90257C47.8615 2.96863 47.6847 3.03469 47.5078 3.10488C47.9191 3.33197 48.3428 3.60034 48.7788 3.91C49.0009 4.0669 49.223 4.22792 49.4451 4.38482Z" fill="white"/>
<path d="M100.873 38.3813L100.692 38.2533C100.215 37.923 99.7253 37.5804 99.3921 37.1221C99.0631 36.6679 98.8698 35.9825 99.1865 35.4664C99.5854 34.814 100.531 34.7562 101.403 34.7851L107.548 35.004C107.516 34.8553 107.483 34.7067 107.446 34.558L101.42 34.3433C100.478 34.3062 99.3345 34.3805 98.8122 35.2352C98.3926 35.9247 98.623 36.8124 99.0384 37.3822C99.4127 37.8983 99.9392 38.2657 100.445 38.6167L100.626 38.7447C104.344 41.3624 107.043 45.326 108.388 49.7026C108.425 49.3434 108.457 48.9801 108.49 48.6167C107.034 44.5333 104.406 40.8669 100.881 38.3855" fill="white"/>
<path d="M32.0496 68.0805C33.374 68.0805 34.4476 67.0029 34.4476 65.6734C34.4476 65.3059 34.3612 64.9632 34.2131 64.6536C37.9643 62.3373 42.1185 61.0532 46.4743 59.7072C47.7741 59.3067 49.1232 58.8897 50.4435 58.4479C53.7422 57.3455 58.5381 55.4752 62.0754 52.0069C65.8348 48.324 67.7022 43.7988 69.0348 39.8641C69.2569 39.2076 69.4791 38.5511 69.697 37.8905C70.7911 34.6328 71.9223 31.2637 73.2426 28.0391C74.5259 24.9094 76.3151 22.0027 78.0508 19.352C78.3346 19.4718 78.6472 19.5378 78.9763 19.5378C80.3007 19.5378 81.3742 18.4602 81.3742 17.1307C81.3742 16.4618 81.1027 15.859 80.6626 15.4214C82.386 12.8656 84.2082 10.3181 86.3922 8.14637C86.8323 7.70871 87.2807 7.29583 87.7372 6.90772C87.4123 6.70128 87.0832 6.49897 86.7542 6.30078C86.3717 6.63935 85.9933 6.9903 85.619 7.36189C83.3485 9.61623 81.4812 12.2339 79.7207 14.8516C79.4863 14.7731 79.2395 14.7195 78.9763 14.7195C77.6518 14.7195 76.5783 15.7971 76.5783 17.1266C76.5783 17.7253 76.8045 18.2703 77.1665 18.6914C75.3937 21.3999 73.5552 24.3768 72.2266 27.6179C70.8899 30.8756 69.7546 34.2654 68.6523 37.5395C68.4302 38.196 68.2122 38.8525 67.9901 39.509C66.6986 43.324 64.8929 47.6964 61.3022 51.2183C58.6986 53.7741 55.2394 55.6816 50.0898 57.4033C48.7818 57.841 47.4409 58.2539 46.1453 58.6544C41.8635 59.9756 37.4625 61.3381 33.518 63.7906C33.1108 63.4686 32.6008 63.2663 32.0414 63.2663C30.717 63.2663 29.6434 64.3439 29.6434 65.6734C29.6434 65.983 29.7051 66.2762 29.8121 66.5446C28.7015 67.4983 27.6157 68.5223 26.5586 69.6329C26.7643 69.9467 26.974 70.2564 27.1879 70.566C28.245 69.4471 29.3308 68.4108 30.4414 67.4529C30.865 67.8369 31.4244 68.0764 32.0414 68.0764" fill="white"/>
<path d="M53.9568 75.7103C53.9568 74.9795 53.6237 74.3354 53.1136 73.8936C53.4961 73.1628 53.9075 72.4444 54.3599 71.7342C55.0756 70.6153 56.0545 69.5955 57.0951 68.5179C58.8967 66.6475 60.7599 64.7152 61.2453 62.1099C61.4427 61.0529 61.1836 60.0703 60.5131 59.3436C59.744 58.5054 58.51 58.0843 57.2144 58.2206C55.0715 58.4435 53.126 59.3849 51.2422 60.2974C50.7321 60.5451 50.2098 60.7969 49.6997 61.0282C41.7449 64.6161 35.2544 69.1207 30.2734 74.4923C30.5161 74.7689 30.7629 75.0455 31.0097 75.318C35.9002 70.0208 42.2961 65.574 50.1481 62.0356C50.6745 61.8003 51.2051 61.5401 51.7193 61.2924C53.5167 60.4212 55.3758 59.5211 57.3255 59.3188C58.2797 59.2197 59.1681 59.5087 59.7029 60.0909C60.1347 60.5616 60.2951 61.1892 60.1594 61.9076C59.7358 64.1867 57.9877 65.9993 56.3013 67.7499C55.273 68.8193 54.2077 69.9217 53.4344 71.1355C52.9656 71.8705 52.5378 72.6219 52.1388 73.3775C51.9496 73.3321 51.7604 73.299 51.5589 73.299C50.2344 73.299 49.1609 74.3767 49.1609 75.7062C49.1609 76.5443 49.5887 77.2792 50.2344 77.7128C49.1074 80.8053 48.4164 83.9308 47.9558 86.854C48.3054 86.9861 48.655 87.1182 49.0087 87.2421C49.4571 84.3148 50.1439 81.181 51.2668 78.0844C51.3614 78.0967 51.4601 78.1133 51.5589 78.1133C52.8833 78.1133 53.9568 77.0356 53.9568 75.7062" fill="white"/>
<path d="M4.36857 133.198H10.2972V134.223H4.36857V133.198ZM4.49675 138.982H3.31102V127.766H11.0023V128.792H4.49675V138.982ZM19.495 139.079C18.6511 139.079 17.866 138.94 17.1396 138.662C16.4239 138.374 15.799 137.973 15.2648 137.46C14.7414 136.937 14.3302 136.333 14.031 135.65C13.7426 134.955 13.5984 134.197 13.5984 133.374C13.5984 132.552 13.7426 131.799 14.031 131.115C14.3302 130.421 14.7414 129.817 15.2648 129.304C15.799 128.781 16.4239 128.38 17.1396 128.103C17.8553 127.814 18.6404 127.67 19.495 127.67C20.3389 127.67 21.1187 127.814 21.8344 128.103C22.5502 128.38 23.1697 128.776 23.6932 129.288C24.2273 129.801 24.6385 130.405 24.927 131.099C25.2261 131.793 25.3756 132.552 25.3756 133.374C25.3756 134.197 25.2261 134.955 24.927 135.65C24.6385 136.344 24.2273 136.947 23.6932 137.46C23.1697 137.973 22.5502 138.374 21.8344 138.662C21.1187 138.94 20.3389 139.079 19.495 139.079ZM19.495 138.021C20.168 138.021 20.7876 137.909 21.3537 137.685C21.9306 137.45 22.4273 137.124 22.8439 136.707C23.2712 136.28 23.6024 135.788 23.8374 135.233C24.0724 134.667 24.1899 134.047 24.1899 133.374C24.1899 132.701 24.0724 132.087 23.8374 131.532C23.6024 130.965 23.2712 130.474 22.8439 130.057C22.4273 129.63 21.9306 129.304 21.3537 129.08C20.7876 128.845 20.168 128.727 19.495 128.727C18.822 128.727 18.1971 128.845 17.6203 129.08C17.0434 129.304 16.5414 129.63 16.1141 130.057C15.6975 130.474 15.3663 130.965 15.1206 131.532C14.8856 132.087 14.7681 132.701 14.7681 133.374C14.7681 134.037 14.8856 134.651 15.1206 135.217C15.3663 135.783 15.6975 136.28 16.1141 136.707C16.5414 137.124 17.0434 137.45 17.6203 137.685C18.1971 137.909 18.822 138.021 19.495 138.021ZM33.8338 139.079C32.4024 139.079 31.2754 138.667 30.4529 137.845C29.6304 137.022 29.2191 135.804 29.2191 134.191V127.766H30.4048V134.143C30.4048 135.468 30.7039 136.445 31.3021 137.076C31.9003 137.706 32.7442 138.021 33.8338 138.021C34.9341 138.021 35.7833 137.706 36.3815 137.076C36.9798 136.445 37.2789 135.468 37.2789 134.143V127.766H38.4325V134.191C38.4325 135.804 38.0213 137.022 37.1987 137.845C36.3869 138.667 35.2653 139.079 33.8338 139.079ZM43.2875 138.982V127.766H44.2649L52.0042 137.508H51.4915V127.766H52.6612V138.982H51.6838L43.9605 129.24H44.4732V138.982H43.2875ZM57.604 138.982V127.766H62.1707C63.3671 127.766 64.414 128.006 65.3113 128.487C66.2193 128.957 66.9243 129.614 67.4264 130.458C67.9284 131.302 68.1795 132.274 68.1795 133.374C68.1795 134.475 67.9284 135.447 67.4264 136.29C66.9243 137.134 66.2193 137.797 65.3113 138.277C64.414 138.747 63.3671 138.982 62.1707 138.982H57.604ZM58.7898 137.957H62.1066C63.1001 137.957 63.96 137.765 64.6864 137.38C65.4234 136.985 65.9949 136.445 66.4009 135.762C66.8068 135.067 67.0098 134.272 67.0098 133.374C67.0098 132.466 66.8068 131.67 66.4009 130.987C65.9949 130.303 65.4234 129.769 64.6864 129.384C63.96 128.989 63.1001 128.792 62.1066 128.792H58.7898V137.957ZM70.1729 138.982L75.3004 127.766H76.4701L81.5976 138.982H80.3477L75.6369 128.455H76.1176L71.4067 138.982H70.1729ZM72.1918 135.986L72.5443 135.025H79.0659L79.4184 135.986H72.1918ZM86.3507 138.982V128.792H82.409V127.766H91.4782V128.792H87.5365V138.982H86.3507ZM94.6544 138.982V127.766H95.8401V138.982H94.6544ZM105.675 139.079C104.831 139.079 104.046 138.94 103.319 138.662C102.603 138.374 101.979 137.973 101.444 137.46C100.921 136.937 100.51 136.333 100.211 135.65C99.9222 134.955 99.778 134.197 99.778 133.374C99.778 132.552 99.9222 131.799 100.211 131.115C100.51 130.421 100.921 129.817 101.444 129.304C101.979 128.781 102.603 128.38 103.319 128.103C104.035 127.814 104.82 127.67 105.675 127.67C106.518 127.67 107.298 127.814 108.014 128.103C108.73 128.38 109.349 128.776 109.873 129.288C110.407 129.801 110.818 130.405 111.107 131.099C111.406 131.793 111.555 132.552 111.555 133.374C111.555 134.197 111.406 134.955 111.107 135.65C110.818 136.344 110.407 136.947 109.873 137.46C109.349 137.973 108.73 138.374 108.014 138.662C107.298 138.94 106.518 139.079 105.675 139.079ZM105.675 138.021C106.348 138.021 106.967 137.909 107.533 137.685C108.11 137.45 108.607 137.124 109.023 136.707C109.451 136.28 109.782 135.788 110.017 135.233C110.252 134.667 110.369 134.047 110.369 133.374C110.369 132.701 110.252 132.087 110.017 131.532C109.782 130.965 109.451 130.474 109.023 130.057C108.607 129.63 108.11 129.304 107.533 129.08C106.967 128.845 106.348 128.727 105.675 128.727C105.002 128.727 104.377 128.845 103.8 129.08C103.223 129.304 102.721 129.63 102.294 130.057C101.877 130.474 101.546 130.965 101.3 131.532C101.065 132.087 100.948 132.701 100.948 133.374C100.948 134.037 101.065 134.651 101.3 135.217C101.546 135.783 101.877 136.28 102.294 136.707C102.721 137.124 103.223 137.45 103.8 137.685C104.377 137.909 105.002 138.021 105.675 138.021ZM115.495 138.982V127.766H116.472L124.212 137.508H123.699V127.766H124.868V138.982H123.891L116.168 129.24H116.681V138.982H115.495Z" fill="white"/>
</svg>
