<svg width="455" height="150" viewBox="0 0 455 150" fill="none" xmlns="http://www.w3.org/2000/svg">
<path d="M28.4718 27.816C29.2413 26.3615 29.2151 24.6371 28.4105 23.4265C27.7109 22.3727 26.5041 21.8327 25.1049 21.9546C23.4345 22.094 22.0266 23.2088 20.7848 24.1929C20.3125 24.5674 19.8753 24.9158 19.4555 25.1858C19.0707 25.4296 18.6684 25.6909 18.2574 25.9522C17.103 27.276 16.0011 28.6434 14.943 30.0456C16.9369 28.9656 18.8083 27.7899 20.4524 26.736C20.9509 26.4225 21.4231 26.0393 21.9304 25.6387C23.0235 24.7764 24.1516 23.8881 25.2623 23.801C25.9969 23.7313 26.5391 23.9578 26.8714 24.4542C27.2999 25.0987 27.2912 26.109 26.8364 26.9625C22.9973 34.2086 14.7681 39.7913 7.186 42.8135C6.80996 43.5973 6.45141 44.3899 6.1016 45.1824C14.4795 42.2125 24.1167 36.0376 28.4718 27.816Z" fill="white"/>
<path d="M28.4411 18.3776C29.2718 19.4141 30.6273 20.0498 32.1577 20.1195C32.2102 20.1195 32.2627 20.1195 32.3152 20.1195C34.1691 20.1195 37.0376 18.7173 38.2444 16.749C38.9615 15.5819 39.014 14.3801 38.3843 13.2827C38.0433 12.6817 37.4573 12.2898 37.0463 12.046C36.5566 11.7585 36.0144 11.4973 35.4459 11.2969C35.1661 11.4711 34.895 11.6366 34.6151 11.8108C35.3935 12.0372 36.1106 12.3508 36.6615 12.6817C37.2037 13.004 37.536 13.3088 37.7372 13.6485C38.2356 14.5107 38.1919 15.4252 37.6147 16.3658C36.5128 18.1512 33.8018 19.4489 32.1927 19.3792C30.8897 19.3183 29.7091 18.7696 29.0182 17.916L28.7296 18.1425L28.992 17.8812C28.6072 17.3848 28.4323 16.8187 28.4148 16.2351C28.1874 16.4093 27.9688 16.5922 27.7502 16.7664C27.8464 17.3325 28.0563 17.8725 28.4236 18.3428C28.4236 18.3428 28.4411 18.3602 28.4411 18.3689V18.3776Z" fill="white"/>
<path d="M26.95 42.2664C27.5184 42.5713 28.1656 42.7629 28.8564 42.7629C31.0865 42.7629 32.8967 40.96 32.8967 38.7392C32.8967 37.8072 32.5644 36.9624 32.0309 36.2831C34.4096 33.2436 36.5347 30.2214 38.3887 27.5389C39.097 26.5112 39.8054 25.44 40.4875 24.4036C42.0617 22.0085 43.697 19.5351 45.4898 17.3577C46.8278 15.7378 48.297 14.6317 49.8711 14.0917C51.6201 13.4821 53.5353 13.6475 54.8733 14.5185C56.1589 15.3546 56.8847 16.3649 57.1034 17.6103C57.698 21.0244 54.2699 25.5184 52.4247 27.9309C48.0346 33.679 43.1461 39.1398 37.8902 44.1738C36.9107 45.1144 35.7914 46.0376 34.6108 47.0217C29.9496 50.8887 24.6675 55.2695 25.8394 62.2108C26.399 65.503 28.8127 67.5584 31.961 67.5584C32.2496 67.5584 32.5382 67.5409 32.8442 67.5061C36.1062 67.1229 39.2982 65.1023 42.5951 61.3225C49.1277 53.8412 53.8676 45.1231 58.4501 36.6837C60.8988 32.1897 63.3999 27.6086 66.1721 23.193C66.5481 23.3062 66.9329 23.3846 67.344 23.3846C69.574 23.3846 71.3842 21.5817 71.3842 19.3609C71.3842 18.4115 71.0432 17.5493 70.4922 16.8613C71.3055 15.7726 72.1363 14.7014 73.0021 13.6562C76.745 9.15352 82.3069 3.79727 89.4605 0.513851C88.4373 0.322246 87.3966 0.148059 86.356 0C80.0157 3.43148 75.0484 8.30871 71.5766 12.4805C70.6933 13.5343 69.8626 14.623 69.0405 15.7204C68.5245 15.4852 67.9561 15.3372 67.3527 15.3372C65.1227 15.3372 63.3124 17.14 63.3124 19.3609C63.3124 20.5105 63.8022 21.5382 64.5805 22.2698C61.7908 26.7116 59.2809 31.2927 56.8322 35.8041C52.2935 44.1564 47.6061 52.7873 41.2046 60.1119C38.2138 63.5347 35.4153 65.3549 32.6344 65.6771C30.0633 65.982 28.1131 64.4927 27.6758 61.8973C26.6701 56.0011 31.3138 52.1515 35.8001 48.4326C37.0157 47.4311 38.1526 46.4818 39.1845 45.4976C44.5103 40.4026 49.4601 34.8635 53.9114 29.0457C55.9228 26.4067 59.6657 21.5034 58.9398 17.2968C58.6338 15.5462 57.6106 14.0917 55.8965 12.9769C54.06 11.7837 51.5851 11.5486 49.2677 12.3498C47.3787 13.0118 45.6297 14.3007 44.073 16.1907C42.2191 18.4464 40.5575 20.9634 38.9571 23.3933C38.275 24.421 37.5754 25.4835 36.8758 26.5025C35.048 29.1589 32.9492 32.1375 30.6055 35.1248C30.0808 34.8722 29.4948 34.7241 28.8739 34.7241C26.6439 34.7241 24.8337 36.527 24.8337 38.7479C24.8337 39.6101 25.1135 40.4026 25.5683 41.0558C17.3653 49.8087 9.24102 53.9979 2.481 55.8704C2.30609 56.5498 2.14868 57.2291 2.00001 57.9171C12.6516 55.2695 21.0732 48.5633 26.9675 42.2839L26.95 42.2664Z" fill="white"/>
<path d="M30.8177 79.3847C36.3359 75.0474 42.5974 70.1179 48.6928 75.4045C50.3282 76.8241 51.4388 78.7053 52.6194 80.7085C52.8205 81.0482 53.0217 81.3878 53.2228 81.7188C54.692 84.1574 56.3011 85.577 58.5923 86.4654C60.3239 87.136 62.1079 87.1012 63.4809 86.3696C64.6702 85.7338 65.501 84.7235 65.8771 83.4519C66.3231 81.9104 66.0607 80.0553 65.16 78.4702C63.8132 76.0925 61.8106 74.8994 59.8779 73.741C58.8722 73.1401 57.8403 72.5217 56.9133 71.7379C55.5228 70.5621 54.5433 69.2731 53.8874 67.9145C55.3566 67.3135 56.3973 65.8765 56.3973 64.1956C56.3973 62.236 54.9806 60.5986 53.1179 60.2503C54.3947 53.6747 59.5805 46.7072 63.271 41.769L63.9444 40.8633C70.4071 32.1626 77.7705 24.0804 85.8248 16.8516C91.0632 12.1486 96.8175 8.67354 102.904 5.20722C102.161 4.9111 101.409 4.64111 100.657 4.37112C94.9723 7.64583 89.5765 10.9989 84.583 15.4842C76.4412 22.7914 68.9903 30.9607 62.4577 39.7659L61.7843 40.6717C58.6973 44.8086 54.4646 50.4784 52.3221 56.2788C51.7973 57.6984 51.43 59.0658 51.2114 60.3722C49.5411 60.8686 48.3168 62.3928 48.3168 64.213C48.3168 66.3032 49.9171 67.9929 51.9548 68.1932C52.7418 70.0396 53.9924 71.6943 55.7152 73.1575C56.7559 74.0371 57.8577 74.699 58.9247 75.3348C60.7349 76.4148 62.4402 77.4425 63.5509 79.3934C64.2067 80.5517 64.4166 81.8843 64.1018 82.9555C63.8657 83.7568 63.3672 84.3664 62.6151 84.7671C61.7231 85.2461 60.4988 85.2461 59.2745 84.7671C57.368 84.0355 56.0825 82.8771 54.8232 80.7869C54.622 80.4559 54.4296 80.125 54.2285 79.794C53.0217 77.756 51.7799 75.6484 49.9171 74.0371C42.6674 67.749 35.164 73.6452 29.6808 77.9563L13.5372 90.6459C10.3714 93.1367 6.63726 95.0092 3.04299 96.4376C3.21789 97.0298 3.40154 97.622 3.59393 98.2056C7.36311 96.7163 11.3159 94.7392 14.6828 92.0916L30.8177 79.4021V79.3847Z" fill="white"/>
<path d="M54.2036 113.96C54.466 113.072 54.5185 112.271 54.3523 111.574C54.055 110.311 53.0056 109.292 51.7375 109.031C49.5687 108.587 45.5634 110.999 42.7387 112.854C41.2783 113.821 39.5292 115.328 39.4855 117.087C39.4593 118.106 40.019 119.029 41.1471 119.848C42.5813 120.884 44.1379 121.407 45.6596 121.407C47.0501 121.407 48.4231 120.971 49.6561 120.1C51.3177 118.925 53.4778 116.381 54.1949 113.96H54.2036ZM41.5756 119.247C40.6574 118.585 40.1939 117.862 40.2201 117.096C40.2551 115.58 42.0653 114.169 43.141 113.464C44.6014 112.506 48.8603 109.701 51.1428 109.701C51.3002 109.701 51.4489 109.719 51.5888 109.745C52.5683 109.945 53.4078 110.764 53.6352 111.739C53.7664 112.314 53.7227 112.994 53.4953 113.751C52.8481 115.929 50.8193 118.385 49.2364 119.499C46.8839 121.154 44.0942 121.067 41.5844 119.247H41.5756Z" fill="white"/>
<path d="M85.9125 79.7239C85.8251 79.7239 85.7376 79.6978 85.6502 79.6978C83.4202 79.6978 81.6099 81.5006 81.6099 83.7215C81.6099 85.5069 82.7818 87.0049 84.3996 87.5275C84.2335 90.8283 84.9243 93.5282 86.516 95.6794C88.0114 97.7 90.3551 99.2676 93.6957 100.461C97.9371 101.985 103.184 102.821 108.615 102.821C117.658 102.821 127.225 100.504 133.521 95.2178C137.798 91.6296 140.203 86.6043 139.94 81.7706C139.774 78.6613 138.593 75.9092 136.879 73.4793C137.334 72.8261 137.605 72.0422 137.605 71.1887C137.605 68.9678 135.795 67.165 133.565 67.165C132.769 67.165 132.026 67.4002 131.396 67.8008C129.603 66.3463 127.741 65.0835 126.053 64.0122C121.899 61.3733 120.194 59.0915 120.683 56.827C121.392 53.561 126.228 52.9252 128.274 52.8033C130.023 52.6988 131.833 52.664 133.582 52.6291C137.955 52.5507 142.45 52.4637 146.718 51.2966C146.525 50.7131 146.324 50.1295 146.114 49.5547C142.092 50.626 137.763 50.7131 133.548 50.7915C131.781 50.8263 129.953 50.8611 128.16 50.9656C122.94 51.2705 119.555 53.2736 118.873 56.4438C117.981 60.5459 121.978 63.6203 125.056 65.5712C126.656 66.5815 128.414 67.7747 130.102 69.142C129.743 69.743 129.516 70.4397 129.516 71.1974C129.516 73.4183 131.326 75.2212 133.556 75.2212C134.256 75.2212 134.894 75.0296 135.463 74.7247C136.932 76.8585 137.946 79.2362 138.086 81.8751C138.314 86.134 136.162 90.5931 132.323 93.8069C122.738 101.846 105.126 102.621 94.3079 98.719C91.3258 97.6477 89.2619 96.289 87.9939 94.5733C86.6734 92.7966 86.1049 90.5061 86.2274 87.6755C88.1775 87.3881 89.6817 85.7333 89.6817 83.7128C89.6817 82.2322 88.8684 80.9519 87.6703 80.2552C91.1596 67.5569 96.7915 54.85 104.05 43.3363C109.909 34.0434 116.853 25.4995 124.435 18.2011C123.963 17.8005 123.491 17.3998 123.018 17.0079C115.375 24.3847 108.388 32.9896 102.485 42.3521C95.1474 53.9965 89.4456 66.8515 85.9038 79.7152L85.9125 79.7239Z" fill="white"/>
<path d="M74.2375 91.1176C73.1881 91.7621 72.5672 92.8246 72.6721 93.8262C72.7508 94.5839 73.1881 95.1848 73.6079 95.7597C73.9402 96.2125 74.255 96.6393 74.3774 97.1183C74.4649 97.4406 74.4561 97.7889 74.4561 98.1547C74.4561 98.3463 74.4561 98.5466 74.4649 98.7383C74.5611 100.506 75.9253 102.283 77.7706 103.041C78.3565 103.285 78.9424 103.398 79.5021 103.398C80.4291 103.398 81.2949 103.076 82.0032 102.44C84.3819 100.332 83.1314 95.4897 81.7584 93.3733C80.2542 91.0479 76.7998 89.5412 74.2375 91.1089V91.1176ZM81.5135 101.908C80.2454 103.032 78.8025 102.684 78.0592 102.37C76.485 101.726 75.2869 100.175 75.2082 98.7034C75.1995 98.5205 75.1995 98.3463 75.1995 98.1634C75.1995 97.7628 75.1995 97.3535 75.0945 96.9354C74.9371 96.3171 74.5698 95.8119 74.2113 95.3242C73.8352 94.8016 73.4767 94.3139 73.4155 93.7565C73.328 92.8769 74.0189 92.1279 74.631 91.7534C75.2432 91.3789 75.9166 91.2134 76.5987 91.2134C78.3652 91.2134 80.193 92.3195 81.1375 93.7913C82.5192 95.9251 83.3762 100.254 81.5135 101.908Z" fill="white"/>
<path d="M74.9091 121.401L75.1452 121.062C79.5877 114.773 81.1006 111.098 80.0512 109.147C79.7189 108.538 78.9843 107.815 77.3227 107.85C74.8566 107.911 72.6528 110.854 71.1924 112.805C71.0175 113.032 70.86 113.241 70.7201 113.424C68.1228 116.768 65.7354 120.548 63.6278 124.659C60.0597 131.609 57.3487 139.255 55.5472 147.425C56.1419 147.582 56.7366 147.738 57.34 147.886C59.0978 139.848 61.7651 132.323 65.2719 125.503C67.327 121.497 69.6532 117.813 72.1806 114.556C72.3292 114.364 72.4866 114.146 72.6703 113.911C73.7634 112.448 75.8011 109.739 77.3665 109.696C77.76 109.696 78.2672 109.739 78.4159 110.018C78.6432 110.445 78.9843 112.431 73.6323 120.008L73.3874 120.356C67.4232 128.926 64.3536 139.099 64.5985 149.271C65.2194 149.358 65.8316 149.437 66.4525 149.506C66.1551 139.63 69.111 129.727 74.9003 121.401H74.9091Z" fill="white"/>
<path d="M99.8165 107.499C98.9245 107.351 98.0325 107.203 97.1492 107.055C96.8693 107.011 96.5108 106.933 96.1085 106.855C93.4675 106.332 89.0424 105.452 86.7949 107.133C86.0078 107.725 85.5444 108.588 85.4656 109.642C85.0634 114.545 92.4093 116.391 95.9424 117.28L96.5108 117.428C98.3998 117.915 100.341 118.246 102.221 118.56C105.396 119.1 108.395 119.605 111.264 120.816C112.794 121.46 113.949 122.314 114.762 123.385C113.861 124.125 113.267 125.231 113.267 126.485C113.267 128.245 114.403 129.717 115.978 130.265C115.733 131.807 115.26 133.531 114.543 135.456C113.975 136.989 113.354 138.539 112.681 140.107C113.581 139.593 114.465 139.053 115.339 138.504C115.663 137.694 115.978 136.884 116.275 136.092C116.712 134.899 117.482 132.808 117.832 130.457C119.808 130.196 121.338 128.532 121.338 126.485C121.338 124.264 119.528 122.462 117.298 122.462C117.001 122.462 116.703 122.497 116.424 122.566C115.488 121.208 114.071 120.006 111.981 119.126C108.92 117.837 105.667 117.28 102.527 116.748C100.691 116.435 98.7845 116.113 96.9655 115.651L96.3796 115.503C93.345 114.736 87.0223 113.151 87.2934 109.798C87.3371 109.267 87.5295 108.893 87.8968 108.614C89.4709 107.429 93.7036 108.265 95.7325 108.675C96.161 108.762 96.537 108.832 96.8344 108.884C97.7176 109.032 98.6096 109.18 99.4929 109.328C110.162 111.122 121.198 112.977 132.165 111.976C135.541 111.671 138.829 110.957 141.916 109.903C142.336 109.102 142.747 108.3 143.149 107.482C139.686 108.866 135.908 109.781 131.999 110.138C121.268 111.122 110.363 109.284 99.8077 107.508L99.8165 107.499Z" fill="white"/>
<path d="M99.4614 125.814C96.7416 123.985 92.9987 123.41 88.3462 124.099C85.9938 124.447 84.1748 124.969 82.6094 125.745C78.4642 127.809 75.3597 132.172 74.1003 137.703C73.1821 141.761 73.2696 145.907 73.5232 149.991C73.768 149.991 74.0216 149.991 74.2665 150C74.0129 145.959 73.9167 141.839 74.8175 137.868C76.0243 132.547 78.9889 128.366 82.9417 126.407C84.4284 125.666 86.1862 125.161 88.4599 124.83C92.9287 124.168 96.4967 124.708 99.0591 126.433C102.478 128.723 104.306 133.435 103.729 138.434C103.458 140.777 102.741 143.015 101.788 145.227C102.102 145.105 102.426 144.992 102.741 144.87C103.58 142.815 104.21 140.716 104.464 138.521C105.076 133.252 103.117 128.27 99.4701 125.823L99.4614 125.814Z" fill="white"/>
<path d="M129.208 120.086C127.468 121.793 127.774 124.441 128.053 126.783C128.106 127.193 128.15 127.611 128.185 128.003C128.193 128.107 128.202 128.212 128.211 128.316C128.438 128.09 128.666 127.863 128.893 127.637C128.858 127.332 128.823 127.019 128.788 126.696C128.517 124.423 128.237 122.063 129.724 120.617C130.476 119.877 131.578 119.555 132.461 119.354C133.738 119.058 135.085 118.893 136.414 118.762C136.606 118.501 136.79 118.231 136.982 117.97C135.417 118.126 133.817 118.292 132.295 118.64C131.324 118.867 130.091 119.232 129.208 120.095V120.086Z" fill="white"/>
<path d="M98.8118 68.6392C97.7011 73.2813 97.4125 77.0176 97.9023 80.4056C98.5232 84.7428 100.491 88.4182 103.447 90.7523C106 92.7728 109.446 93.8702 113.206 93.8702C113.434 93.8702 113.661 93.8702 113.888 93.8615C116.538 93.7657 118.698 93.1299 120.307 91.9629C124.566 88.871 124.593 82.3913 122.459 77.8624C121.051 74.8838 118.917 72.3233 116.853 69.8411C115.751 68.5173 114.606 67.1412 113.6 65.7303C111.947 63.4223 108.344 57.4652 110.627 52.0915C112.192 48.4162 116.215 45.7859 122.581 44.2792C124.977 43.7131 127.461 43.2689 129.866 42.8422C133.862 42.1367 137.99 41.3964 141.891 40.0465C141.777 39.8287 141.663 39.6023 141.541 39.3846C137.719 40.691 133.661 41.4138 129.735 42.1106C127.33 42.5373 124.837 42.9815 122.415 43.5563C115.804 45.124 111.606 47.9023 109.944 51.8041C108.239 55.8278 109.35 61.0621 112.996 66.1571C114.02 67.5941 115.174 68.9702 116.285 70.3114C118.322 72.7588 120.421 75.2845 121.785 78.176C123.797 82.4348 123.805 88.5053 119.87 91.3706C118.383 92.4506 116.363 93.0428 113.862 93.1299C110.023 93.2605 106.481 92.2154 103.901 90.1862C101.147 88.0088 99.2228 84.4031 98.6369 80.3098C98.1646 77.0176 98.4445 73.3684 99.5376 68.8221C101.978 58.6322 107.207 48.2942 115.087 38.0782C119.337 32.5739 124.112 27.4005 129.009 22.4884C128.834 22.3143 128.668 22.1314 128.493 21.9572C123.569 26.8954 118.777 32.0861 114.501 37.6253C106.56 47.9197 101.278 58.3535 98.8205 68.6392H98.8118Z" fill="white"/>
<path d="M93.1091 16.8341C90.1183 20.013 87.3548 23.4532 84.6788 26.7801C81.5567 30.6645 78.3298 34.6795 74.7267 38.2939L74.4731 38.5465C67.8268 45.2091 60.2885 52.7601 61.3991 62.9587C61.5827 64.6222 62.1512 66.9999 63.8303 68.8724C65.212 70.4139 66.6637 71.1891 68.1329 71.1891C68.3428 71.1891 68.5439 71.1716 68.7538 71.1455C72.077 70.6578 74.5081 66.486 75.6537 64.0387C76.6419 61.9397 77.3765 59.7363 78.0849 57.6025C78.6009 56.0609 79.1343 54.4584 79.7552 52.9169C84.3027 41.6818 89.6548 29.7936 97.9889 19.0114C102.659 12.9671 106.542 9.90143 109.585 8.22052C109.323 8.08988 109.052 7.95924 108.789 7.8286C105.746 9.5966 101.924 12.7145 97.403 18.5672C89.0251 29.4191 83.6381 41.3596 79.0731 52.6469C78.4434 54.2146 77.9012 55.8171 77.3853 57.376C76.6857 59.4837 75.9511 61.6697 74.9891 63.7339C74.1146 65.5977 71.7446 69.9698 68.6488 70.4226C67.2146 70.6317 65.7804 69.9523 64.3812 68.3846C62.8333 66.6602 62.3086 64.4393 62.1337 62.8803C61.058 53.0301 68.4652 45.6097 74.9978 39.069L75.2515 38.8164C78.8894 35.1759 82.1252 31.1435 85.2559 27.2417C87.9232 23.9235 90.6779 20.492 93.6513 17.3392C97.4642 13.2981 101.811 9.71853 106.507 6.73994C106.236 6.61801 105.973 6.50478 105.702 6.38285C101.111 9.34403 96.852 12.8713 93.1091 16.8341Z" fill="white"/>
<path d="M33.59 97.2585C35.9774 96.1873 38.4436 95.0899 40.8485 93.949C41.1546 93.8009 41.4869 93.6529 41.8192 93.5048C44.5477 92.2855 48.2907 90.6133 46.5766 86.5548C44.985 82.7836 39.2044 83.5413 36.371 84.4819C33.4763 85.4313 30.9402 87.1383 28.4916 88.7931L5.7891 104.078C5.8853 104.313 5.99024 104.54 6.08644 104.766L28.9026 89.4027C31.3163 87.7828 33.8086 86.1019 36.5984 85.1787C39.6329 84.1771 44.6089 83.8026 45.8945 86.8422C47.3287 90.2388 44.2416 91.6149 41.5219 92.8342C41.1808 92.9823 40.8485 93.139 40.5337 93.2871C38.1375 94.4193 35.6714 95.5254 33.2839 96.5879C27.9144 98.9917 22.3612 101.474 17.1928 104.496C14.1845 106.255 11.456 108.25 8.89364 110.549C9.01607 110.775 9.1385 110.993 9.26094 111.211C11.8233 108.894 14.5518 106.882 17.5689 105.123C22.7023 102.127 28.238 99.6449 33.59 97.2585Z" fill="white"/>
<path d="M11.3337 84.9702C15.1904 83.3938 19.9915 81.4429 19.5542 76.5308C19.458 75.4422 19.012 74.4493 18.5748 73.4913C18.2424 72.7423 17.9189 72.0368 17.7527 71.2878C17.298 69.2498 17.9451 66.8983 19.7379 64.0939L19.9827 63.7107C20.6124 62.7352 21.2683 61.7337 21.5219 60.5579C21.8105 59.2167 21.4082 57.4922 20.0702 56.8042C17.0706 55.2452 13.8786 59.3996 11.5524 62.4304C10.7216 63.5104 10.0045 64.451 9.44479 64.9474C6.67257 67.4209 3.47183 69.3543 0.0437259 70.6433C0.0262355 70.9046 0.00874517 71.1746 0 71.4446C3.6205 70.1208 7.01363 68.1089 9.93452 65.5048C10.5467 64.9648 11.2813 63.9981 12.1383 62.892C14.3071 60.0702 17.2805 56.1945 19.7291 57.4661C20.7348 57.9886 21.0234 59.3473 20.796 60.4186C20.5687 61.455 19.9565 62.4043 19.3618 63.3188L19.1082 63.7107C17.2018 66.6893 16.5196 69.2237 17.0269 71.462C17.2105 72.2894 17.5603 73.0558 17.9014 73.8048C18.3299 74.7541 18.7322 75.6425 18.8196 76.6092C19.2131 80.9726 14.6919 82.819 11.0539 84.2996C10.3718 84.5783 9.73338 84.8395 9.1562 85.1008C6.47143 86.3201 3.83039 87.6614 1.25056 89.1071C1.30303 89.3597 1.34676 89.621 1.39923 89.8735C4.03153 88.393 6.72504 87.0256 9.46228 85.7714C10.0307 85.5102 10.6604 85.2576 11.3337 84.9789V84.9702Z" fill="white"/>
<path d="M34.7103 124.292C29.5856 124.388 26.3149 126.688 23.84 129.832C24.0149 129.997 24.1898 130.163 24.3735 130.328C26.7521 127.271 29.8304 125.12 34.7277 125.024C36.3456 124.989 39.3714 125.25 41.4265 127.349C43.6915 129.666 43.7703 133.202 43.0794 135.745C42.5459 137.722 41.584 139.673 40.5171 141.581C40.7357 141.694 40.9543 141.807 41.1729 141.92C42.2573 139.978 43.2368 137.992 43.7965 135.946C44.5398 133.211 44.4436 129.379 41.96 126.844C39.7037 124.545 36.4593 124.258 34.719 124.292H34.7103Z" fill="white"/>
<path d="M50.8863 7.32456C53.6236 9.28416 56.4483 11.3047 59.8152 11.4179C59.9201 11.4179 60.0163 11.4179 60.1212 11.4179C64.2315 11.4179 67.712 8.56128 70.9215 5.62623L77.0956 0.0174187C76.7371 0.00870934 76.3785 0.00870934 76.02 0L70.4405 5.09496C67.2573 7.99517 63.8292 10.817 59.8589 10.6864C56.7106 10.5818 53.9734 8.62225 51.3323 6.73232C50.9563 6.46233 50.5802 6.19234 50.2042 5.93106C49.6358 5.53043 49.0761 5.17335 48.5251 4.8511C48.2278 4.96432 47.9305 5.07755 47.6331 5.19077C48.324 5.57398 49.0411 6.01815 49.7757 6.53201C50.1517 6.79329 50.519 7.05457 50.8951 7.32456H50.8863Z" fill="white"/>
<path d="M137.481 64.1198L137.175 63.9108C136.37 63.3534 135.548 62.7873 134.98 62.0208C134.429 61.2631 134.105 60.1135 134.63 59.2513C135.303 58.1539 136.895 58.0668 138.364 58.1191L148.71 58.4849C148.657 58.241 148.596 57.9884 148.535 57.7446L138.39 57.3875C136.808 57.3265 134.875 57.4484 134 58.8768C133.292 60.0264 133.686 61.507 134.376 62.465C135.006 63.3273 135.889 63.9369 136.746 64.5291L137.052 64.7382C143.314 69.119 147.853 75.7381 150.118 83.0452C150.179 82.4443 150.24 81.8346 150.293 81.2337C147.844 74.4055 143.419 68.2916 137.481 64.1372V64.1198Z" fill="white"/>
<path d="M21.6022 113.726C23.8322 113.726 25.6424 111.923 25.6424 109.702C25.6424 109.093 25.4938 108.518 25.2489 107.995C31.5717 104.129 38.5591 101.977 45.8963 99.7303C48.0913 99.0597 50.3563 98.3629 52.5776 97.6313C58.1308 95.7937 66.2026 92.667 72.1668 86.8666C78.4983 80.7091 81.6378 73.1581 83.8853 66.5825C84.2613 65.4851 84.6286 64.3878 85.0047 63.2904C86.8499 57.8471 88.7564 52.2208 90.9776 46.8297C93.1377 41.6041 96.1548 36.7443 99.0757 32.32C99.5566 32.5203 100.081 32.6335 100.632 32.6335C102.862 32.6335 104.673 30.8307 104.673 28.6098C104.673 27.495 104.209 26.4847 103.474 25.7531C106.378 21.4856 109.447 17.2267 113.12 13.5949C113.864 12.8633 114.616 12.1753 115.385 11.5221C114.834 11.1824 114.284 10.8427 113.724 10.5118C113.077 11.0779 112.447 11.6701 111.817 12.2885C107.996 16.0596 104.847 20.4317 101.883 24.8038C101.489 24.6732 101.07 24.5861 100.632 24.5861C98.4023 24.5861 96.592 26.3889 96.592 28.6098C96.592 29.6114 96.9768 30.5171 97.5802 31.2226C94.5894 35.7427 91.4936 40.7245 89.2636 46.133C87.0161 51.5763 85.1009 57.2374 83.2469 62.7069C82.8709 63.8042 82.5036 64.9016 82.1275 65.999C79.9587 72.3742 76.9154 79.6727 70.8637 85.5602C66.4737 89.8278 60.6581 93.0154 51.9829 95.8895C49.7791 96.621 47.5229 97.3091 45.3453 97.9797C38.1393 100.183 30.7234 102.465 24.0858 106.558C23.3949 106.018 22.5379 105.687 21.6022 105.687C19.3722 105.687 17.5619 107.49 17.5619 109.711C17.5619 110.225 17.6668 110.713 17.8505 111.166C15.979 112.759 14.1513 114.475 12.3673 116.322C12.7171 116.844 13.0669 117.367 13.4254 117.881C15.2007 116.008 17.0372 114.284 18.9087 112.681C19.6258 113.326 20.5615 113.726 21.6022 113.726Z" fill="white"/>
<path d="M58.4797 126.477C58.4797 125.258 57.92 124.178 57.063 123.437C57.7101 122.218 58.401 121.016 59.1618 119.832C60.3686 117.959 62.0127 116.261 63.7618 114.458C66.7963 111.331 69.9359 108.1 70.7492 103.754C71.0815 101.986 70.6442 100.349 69.5161 99.1297C68.2218 97.7362 66.1492 97.0307 63.9629 97.2572C60.3599 97.6317 57.0805 99.2081 53.906 100.724C53.0489 101.133 52.1657 101.56 51.3086 101.943C37.911 107.935 26.9883 115.46 18.6017 124.439C19.0127 124.901 19.4237 125.362 19.8435 125.815C28.0815 116.966 38.8468 109.537 52.0695 103.624C52.9527 103.232 53.8447 102.796 54.7105 102.387C57.7363 100.933 60.8671 99.4258 64.1553 99.0862C65.7644 98.9207 67.2598 99.3997 68.1606 100.375C68.8864 101.159 69.1575 102.213 68.9302 103.406C68.2131 107.212 65.2747 110.243 62.4325 113.169C60.701 114.955 58.9082 116.801 57.6052 118.83C56.8181 120.058 56.0922 121.312 55.4276 122.575C55.1128 122.497 54.7892 122.445 54.4482 122.445C52.2181 122.445 50.4079 124.247 50.4079 126.468C50.4079 127.862 51.125 129.099 52.2181 129.813C50.3204 134.977 49.1573 140.203 48.3878 145.089C48.9737 145.315 49.5683 145.524 50.1543 145.733C50.9064 140.847 52.0607 135.604 53.9584 130.44C54.1246 130.457 54.282 130.492 54.4482 130.492C56.6782 130.492 58.4884 128.689 58.4884 126.468L58.4797 126.477Z" fill="white"/>
<path d="M448.24 124C447.1 124 446.003 123.817 444.95 123.452C443.912 123.072 443.108 122.589 442.538 122.004L443.174 120.754C443.715 121.281 444.439 121.727 445.345 122.092C446.266 122.443 447.231 122.619 448.24 122.619C449.205 122.619 449.987 122.502 450.587 122.268C451.201 122.019 451.647 121.69 451.925 121.281C452.217 120.871 452.363 120.418 452.363 119.921C452.363 119.322 452.188 118.839 451.837 118.474C451.501 118.108 451.055 117.823 450.499 117.618C449.944 117.399 449.33 117.209 448.657 117.048C447.984 116.887 447.312 116.719 446.639 116.544C445.967 116.353 445.345 116.105 444.775 115.798C444.219 115.491 443.766 115.089 443.415 114.592C443.079 114.08 442.911 113.415 442.911 112.596C442.911 111.836 443.108 111.141 443.503 110.512C443.912 109.869 444.534 109.357 445.367 108.977C446.201 108.582 447.268 108.385 448.569 108.385C449.432 108.385 450.287 108.509 451.135 108.758C451.983 108.992 452.714 109.321 453.328 109.745L452.78 111.039C452.122 110.6 451.42 110.278 450.675 110.074C449.944 109.869 449.234 109.767 448.547 109.767C447.626 109.767 446.866 109.891 446.266 110.14C445.667 110.388 445.221 110.724 444.929 111.148C444.651 111.558 444.512 112.026 444.512 112.552C444.512 113.151 444.68 113.634 445.016 113.999C445.367 114.365 445.82 114.65 446.376 114.855C446.946 115.059 447.568 115.242 448.24 115.403C448.913 115.564 449.578 115.739 450.236 115.929C450.909 116.12 451.523 116.368 452.078 116.675C452.648 116.968 453.102 117.362 453.438 117.859C453.789 118.357 453.964 119.007 453.964 119.811C453.964 120.557 453.76 121.251 453.35 121.895C452.941 122.524 452.312 123.035 451.464 123.43C450.631 123.81 449.556 124 448.24 124Z" fill="white"/>
<path d="M427.057 123.865V108.512H432.804C434.105 108.512 435.223 108.724 436.159 109.148C437.095 109.558 437.811 110.157 438.308 110.947C438.82 111.722 439.076 112.665 439.076 113.776C439.076 114.858 438.82 115.794 438.308 116.583C437.811 117.358 437.095 117.958 436.159 118.382C435.223 118.791 434.105 118.996 432.804 118.996H427.957L428.68 118.25V123.865H427.057ZM437.541 123.865L433.593 118.294H435.348L439.317 123.865H437.541ZM428.68 118.382L427.957 117.614H432.76C434.295 117.614 435.457 117.278 436.247 116.605C437.051 115.933 437.453 114.99 437.453 113.776C437.453 112.548 437.051 111.597 436.247 110.925C435.457 110.252 434.295 109.916 432.76 109.916H427.957L428.68 109.148V118.382Z" fill="white"/>
<path d="M414.277 124C413.122 124 412.047 123.81 411.053 123.43C410.073 123.035 409.218 122.487 408.487 121.785C407.77 121.069 407.207 120.243 406.798 119.307C406.403 118.357 406.206 117.318 406.206 116.193C406.206 115.067 406.403 114.036 406.798 113.1C407.207 112.15 407.77 111.324 408.487 110.622C409.218 109.906 410.073 109.357 411.053 108.977C412.032 108.582 413.107 108.385 414.277 108.385C415.432 108.385 416.499 108.582 417.479 108.977C418.458 109.357 419.306 109.898 420.023 110.6C420.754 111.302 421.317 112.128 421.711 113.078C422.121 114.029 422.325 115.067 422.325 116.193C422.325 117.318 422.121 118.357 421.711 119.307C421.317 120.257 420.754 121.083 420.023 121.785C419.306 122.487 418.458 123.035 417.479 123.43C416.499 123.81 415.432 124 414.277 124ZM414.277 122.553C415.198 122.553 416.046 122.399 416.821 122.092C417.61 121.771 418.29 121.325 418.86 120.754C419.445 120.17 419.898 119.497 420.22 118.737C420.542 117.962 420.703 117.114 420.703 116.193C420.703 115.271 420.542 114.431 420.22 113.67C419.898 112.896 419.445 112.223 418.86 111.653C418.29 111.068 417.61 110.622 416.821 110.315C416.046 109.993 415.198 109.832 414.277 109.832C413.355 109.832 412.5 109.993 411.711 110.315C410.921 110.622 410.234 111.068 409.649 111.653C409.079 112.223 408.626 112.896 408.289 113.67C407.968 114.431 407.807 115.271 407.807 116.193C407.807 117.099 407.968 117.94 408.289 118.715C408.626 119.49 409.079 120.17 409.649 120.754C410.234 121.325 410.921 121.771 411.711 122.092C412.5 122.399 413.355 122.553 414.277 122.553Z" fill="white"/>
<path d="M388.35 123.865V108.512H394.601C396.238 108.512 397.671 108.841 398.899 109.499C400.142 110.143 401.107 111.042 401.794 112.197C402.481 113.352 402.825 114.683 402.825 116.188C402.825 117.694 402.481 119.025 401.794 120.18C401.107 121.335 400.142 122.242 398.899 122.9C397.671 123.543 396.238 123.865 394.601 123.865H388.35ZM389.973 122.461H394.513C395.873 122.461 397.05 122.198 398.044 121.671C399.053 121.13 399.835 120.392 400.391 119.456C400.946 118.506 401.224 117.417 401.224 116.188C401.224 114.946 400.946 113.856 400.391 112.921C399.835 111.985 399.053 111.254 398.044 110.728C397.05 110.187 395.873 109.916 394.513 109.916H389.973V122.461Z" fill="white"/>
<path d="M380.635 123.865V108.512H382.258V123.865H380.635Z" fill="white"/>
<path d="M363.69 123.865V108.512H369.436C370.737 108.512 371.856 108.724 372.791 109.148C373.727 109.558 374.444 110.157 374.941 110.947C375.452 111.722 375.708 112.665 375.708 113.776C375.708 114.858 375.452 115.794 374.941 116.583C374.444 117.358 373.727 117.958 372.791 118.382C371.856 118.791 370.737 118.996 369.436 118.996H364.589L365.313 118.25V123.865H363.69ZM374.173 123.865L370.225 118.294H371.98L375.95 123.865H374.173ZM365.313 118.382L364.589 117.614H369.392C370.927 117.614 372.09 117.278 372.879 116.605C373.683 115.933 374.085 114.99 374.085 113.776C374.085 112.548 373.683 111.597 372.879 110.925C372.09 110.252 370.927 109.916 369.392 109.916H364.589L365.313 109.148V118.382Z" fill="white"/>
<path d="M346.744 123.865V108.512H352.491C353.792 108.512 354.91 108.724 355.846 109.148C356.782 109.558 357.498 110.157 357.995 110.947C358.507 111.722 358.763 112.665 358.763 113.776C358.763 114.858 358.507 115.794 357.995 116.583C357.498 117.358 356.782 117.958 355.846 118.382C354.91 118.791 353.792 118.996 352.491 118.996H347.644L348.367 118.25V123.865H346.744ZM357.228 123.865L353.28 118.294H355.035L359.004 123.865H357.228ZM348.367 118.382L347.644 117.614H352.447C353.982 117.614 355.144 117.278 355.934 116.605C356.738 115.933 357.14 114.99 357.14 113.776C357.14 112.548 356.738 111.597 355.934 110.925C355.144 110.252 353.982 109.916 352.447 109.916H347.644L348.367 109.148V118.382Z" fill="white"/>
<path d="M333.964 124C332.808 124 331.734 123.81 330.74 123.43C329.76 123.035 328.905 122.487 328.174 121.785C327.457 121.069 326.894 120.243 326.485 119.307C326.09 118.357 325.893 117.318 325.893 116.193C325.893 115.067 326.09 114.036 326.485 113.1C326.894 112.15 327.457 111.324 328.174 110.622C328.905 109.906 329.76 109.357 330.74 108.977C331.719 108.582 332.794 108.385 333.964 108.385C335.119 108.385 336.186 108.582 337.166 108.977C338.145 109.357 338.993 109.898 339.71 110.6C340.441 111.302 341.004 112.128 341.398 113.078C341.808 114.029 342.012 115.067 342.012 116.193C342.012 117.318 341.808 118.357 341.398 119.307C341.004 120.257 340.441 121.083 339.71 121.785C338.993 122.487 338.145 123.035 337.166 123.43C336.186 123.81 335.119 124 333.964 124ZM333.964 122.553C334.885 122.553 335.733 122.399 336.508 122.092C337.297 121.771 337.977 121.325 338.547 120.754C339.132 120.17 339.585 119.497 339.907 118.737C340.229 117.962 340.39 117.114 340.39 116.193C340.39 115.271 340.229 114.431 339.907 113.67C339.585 112.896 339.132 112.223 338.547 111.653C337.977 111.068 337.297 110.622 336.508 110.315C335.733 109.993 334.885 109.832 333.964 109.832C333.042 109.832 332.187 109.993 331.398 110.315C330.608 110.622 329.921 111.068 329.336 111.653C328.766 112.223 328.313 112.896 327.976 113.67C327.655 114.431 327.494 115.271 327.494 116.193C327.494 117.099 327.655 117.94 327.976 118.715C328.313 119.49 328.766 120.17 329.336 120.754C329.921 121.325 330.608 121.771 331.398 122.092C332.187 122.399 333.042 122.553 333.964 122.553Z" fill="white"/>
<path d="M317.381 124C316.225 124 315.158 123.81 314.179 123.43C313.199 123.035 312.351 122.487 311.634 121.785C310.918 121.083 310.355 120.257 309.946 119.307C309.551 118.357 309.354 117.318 309.354 116.193C309.354 115.067 309.551 114.029 309.946 113.078C310.355 112.128 310.918 111.302 311.634 110.6C312.366 109.898 313.221 109.357 314.2 108.977C315.18 108.582 316.247 108.385 317.402 108.385C318.514 108.385 319.559 108.575 320.539 108.955C321.518 109.321 322.344 109.876 323.017 110.622L321.986 111.653C321.357 111.009 320.663 110.549 319.903 110.271C319.142 109.979 318.324 109.832 317.446 109.832C316.525 109.832 315.67 109.993 314.88 110.315C314.091 110.622 313.404 111.068 312.819 111.653C312.234 112.223 311.773 112.896 311.437 113.67C311.115 114.431 310.955 115.271 310.955 116.193C310.955 117.114 311.115 117.962 311.437 118.737C311.773 119.497 312.234 120.17 312.819 120.754C313.404 121.325 314.091 121.771 314.88 122.092C315.67 122.399 316.525 122.553 317.446 122.553C318.324 122.553 319.142 122.407 319.903 122.114C320.663 121.822 321.357 121.354 321.986 120.711L323.017 121.741C322.344 122.487 321.518 123.05 320.539 123.43C319.559 123.81 318.506 124 317.381 124Z" fill="white"/>
<path d="M292.552 124C291.382 124 290.3 123.81 289.306 123.43C288.326 123.035 287.471 122.487 286.74 121.785C286.023 121.083 285.46 120.257 285.051 119.307C284.656 118.357 284.459 117.318 284.459 116.193C284.459 115.067 284.656 114.029 285.051 113.078C285.46 112.128 286.031 111.302 286.762 110.6C287.493 109.898 288.348 109.357 289.328 108.977C290.322 108.582 291.404 108.385 292.574 108.385C293.743 108.385 294.811 108.568 295.776 108.933C296.755 109.299 297.589 109.854 298.276 110.6L297.267 111.631C296.624 110.988 295.914 110.527 295.14 110.249C294.365 109.971 293.531 109.832 292.639 109.832C291.689 109.832 290.812 109.993 290.008 110.315C289.218 110.622 288.524 111.068 287.924 111.653C287.339 112.223 286.879 112.896 286.542 113.67C286.221 114.431 286.06 115.271 286.06 116.193C286.06 117.099 286.221 117.94 286.542 118.715C286.879 119.49 287.339 120.17 287.924 120.754C288.524 121.325 289.218 121.771 290.008 122.092C290.812 122.399 291.682 122.553 292.617 122.553C293.495 122.553 294.321 122.421 295.096 122.158C295.885 121.895 296.609 121.449 297.267 120.82L298.188 122.048C297.457 122.692 296.602 123.181 295.622 123.518C294.642 123.839 293.619 124 292.552 124ZM296.631 121.851V116.193H298.188V122.048L296.631 121.851Z" fill="white"/>
<path d="M266.877 123.865V108.512H268.215L278.808 121.847H278.106V108.512H279.707V123.865H278.369L267.798 110.53H268.5V123.865H266.877Z" fill="white"/>
<path d="M259.166 123.865V108.512H260.789V123.865H259.166Z" fill="white"/>
<path d="M245.154 123.865V108.512H246.777V122.461H255.374V123.865H245.154Z" fill="white"/>
<path d="M227.525 123.865V108.512H234.148C235.859 108.512 237.182 108.856 238.118 109.543C239.068 110.23 239.543 111.203 239.543 112.46C239.543 113.294 239.346 113.995 238.951 114.566C238.571 115.136 238.045 115.567 237.372 115.859C236.714 116.152 235.99 116.298 235.201 116.298L235.574 115.772C236.553 115.772 237.394 115.925 238.096 116.232C238.812 116.525 239.368 116.971 239.763 117.57C240.157 118.155 240.355 118.886 240.355 119.763C240.355 121.065 239.872 122.073 238.907 122.79C237.957 123.506 236.517 123.865 234.587 123.865H227.525ZM229.148 122.527H234.565C235.91 122.527 236.941 122.3 237.657 121.847C238.374 121.379 238.732 120.641 238.732 119.632C238.732 118.637 238.374 117.914 237.657 117.461C236.941 116.993 235.91 116.759 234.565 116.759H228.972V115.421H234.039C235.267 115.421 236.217 115.187 236.89 114.719C237.577 114.251 237.92 113.557 237.92 112.636C237.92 111.7 237.577 111.005 236.89 110.552C236.217 110.084 235.267 109.85 234.039 109.85H229.148V122.527Z" fill="white"/>
<path d="M208.247 123.865L215.266 108.512H216.867L223.885 123.865H222.174L215.726 109.455H216.384L209.936 123.865H208.247ZM211.011 119.763L211.493 118.447H220.419L220.902 119.763H211.011Z" fill="white"/>
<path d="M191.771 123.865V108.512H193.109L203.702 121.847H203V108.512H204.601V123.865H203.263L192.692 110.53H193.394V123.865H191.771Z" fill="white"/>
<path d="M177.449 115.377H185.563V116.759H177.449V115.377ZM177.624 122.461H186.857V123.865H176.001V108.512H186.528V109.916H177.624V122.461Z" fill="white"/>
<path d="M443.315 36.7072H440.683V36.0002H446.744V36.7072H444.065V43.0427H443.315V36.7072Z" fill="white"/>
<path d="M447.909 43.0427V36.0002H448.614L451.422 39.9726L454.23 36.0002H454.925V43.0427H454.174V37.312L451.468 41.1355H451.366L448.669 37.312V43.0427H447.909Z" fill="white"/>
<path d="M185.453 49.2596H176.603V99.8405H185.453V49.2596Z" fill="white"/>
<path d="M196.372 49.2596H204.574L231.571 84.2299V49.2596H240.283V99.8405H232.869L205.075 63.8561V99.8405H196.372V49.2596Z" fill="white"/>
<path d="M251.107 49.2596H259.967V70.2846H284.007V49.2596H292.858V99.8405H284.007V78.5178H259.967V99.8405H251.107V49.2596Z" fill="white"/>
<path d="M320.584 48.8914H328.796L350.964 99.8352H341.603L336.497 87.6202H312.67L307.489 99.8352H298.416L320.584 48.8914ZM333.253 79.7405L324.542 59.5063L315.904 79.7405H333.253Z" fill="white"/>
<path d="M357.006 49.2596H377.738C383.493 49.2596 388.099 50.8504 390.907 53.6693C392.993 55.7624 394.142 58.5069 394.142 61.8374V61.9862C394.142 68.4891 389.971 72.5359 384.856 73.9779C391.473 75.2059 396.876 79.4667 396.876 86.3324V86.472C396.876 94.854 390.036 99.8405 378.813 99.8405H357.006V49.2596ZM378.239 73.1778C385.727 73.1778 391.695 69.4938 391.695 62.1909V62.0513C391.695 55.6973 386.515 51.5016 377.655 51.5016H359.444V73.1778H378.229H378.239ZM378.887 97.5984C388.6 97.5984 394.364 93.4027 394.364 86.5464V86.4068C394.364 79.3272 388.099 75.4199 379.175 75.4199H359.453V97.5984H378.887Z" fill="white"/>
<path d="M409.277 49.2596H406.831V99.8405H409.277V49.2596Z" fill="white"/>
<path d="M434.481 51.5016H416.557V49.2596H454.916V51.5016H436.928V99.8405H434.481V51.5016Z" fill="white"/>
</svg>
