<svg width="261" height="57" viewBox="0 0 261 57" fill="none" xmlns="http://www.w3.org/2000/svg">
<path d="M253.007 6.81703H251.193V6.31708H255.369V6.81703H253.524V11.297H253.007V6.81703Z" fill="#F6FFEA"/>
<path d="M256.165 11.297V6.31708H256.65L258.585 9.12608L260.52 6.31708H260.999V11.297H260.482V7.24465L258.617 9.94839H258.547L256.689 7.24465V11.297H256.165Z" fill="#F6FFEA"/>
<path d="M75.3351 15.6849H69.2369V51.4521H75.3351V15.6849Z" fill="#F6FFEA"/>
<path d="M82.8631 15.6849H88.5144L107.116 40.4134V15.6849H113.118V51.4521H108.01L88.8592 26.0065V51.4521H82.8631V15.6849Z" fill="#F6FFEA"/>
<path d="M120.573 15.6849H126.678V30.5522H143.242V15.6849H149.341V51.4521H143.242V36.3742H126.678V51.4521H120.573V15.6849Z" fill="#F6FFEA"/>
<path d="M168.445 15.4692H174.102L189.377 51.493H182.927L179.409 42.8554H162.992L159.422 51.493H153.171L168.445 15.4692ZM177.174 37.2834L171.171 22.9752L165.22 37.2834H177.174Z" fill="#F6FFEA"/>
<path d="M193.539 15.6849H207.824C211.789 15.6849 214.963 16.8098 216.898 18.8031C218.335 20.2832 219.126 22.2239 219.126 24.579V24.6842C219.126 29.2826 216.253 32.1442 212.728 33.1639C217.287 34.0322 221.01 37.0452 221.01 41.9001V41.9988C221.01 47.926 216.298 51.4521 208.565 51.4521H193.539V15.6849ZM208.169 32.5981C213.328 32.5981 217.441 29.993 217.441 24.8289V24.7303C217.441 20.2372 213.871 17.2703 207.766 17.2703H195.219V32.5981H208.162H208.169ZM208.616 49.8666C215.308 49.8666 219.28 46.8997 219.28 42.0514V41.9527C219.28 36.9465 214.963 34.1835 208.814 34.1835H195.225V49.8666H208.616Z" fill="#F6FFEA"/>
<path d="M229.552 15.6849H227.866V51.4521H229.552V15.6849Z" fill="#F6FFEA"/>
<path d="M246.917 17.2703H234.567V15.6849H260.997V17.2703H248.603V51.4521H246.917V17.2703Z" fill="#F6FFEA"/>
<path d="M10.4378 10.5035C10.7195 9.95183 10.7119 9.2982 10.4149 8.84065C10.1586 8.44062 9.71702 8.2393 9.20436 8.28375C8.59273 8.33865 8.07754 8.7596 7.62072 9.13086C7.44814 9.27205 7.28572 9.40539 7.13344 9.50474C6.99132 9.59887 6.84412 9.69561 6.69439 9.79496C6.2731 10.297 5.86704 10.8146 5.48128 11.3454C6.21219 10.9375 6.89742 10.4904 7.50144 10.093C7.68163 9.97275 7.85928 9.82895 8.04455 9.6773C8.44299 9.35049 8.85667 9.01582 9.26527 8.97922C9.53429 8.95307 9.73224 9.03935 9.85406 9.2276C10.0114 9.47337 10.0063 9.85509 9.84137 10.1793C8.43538 12.9246 5.41783 15.0424 2.63885 16.1875C2.5018 16.4856 2.36983 16.7837 2.24294 17.0869C5.31378 15.9627 8.84398 13.6227 10.4403 10.5061" fill="#F6FFEA"/>
<path d="M10.4187 6.92921C10.7233 7.324 11.2207 7.56454 11.7816 7.59069C11.7993 7.59069 11.8196 7.59069 11.8399 7.59069C12.5201 7.59069 13.5683 7.05993 14.0124 6.31479C14.2763 5.87293 14.2941 5.418 14.0631 5.00228C13.9388 4.77482 13.7231 4.62579 13.5733 4.53166C13.3957 4.42185 13.1952 4.32511 12.9871 4.24668C12.8856 4.31204 12.784 4.37479 12.6825 4.44277C12.9668 4.52643 13.2307 4.64932 13.4312 4.7722C13.6317 4.89508 13.7535 5.00751 13.8246 5.14085C14.0048 5.47029 13.9895 5.81541 13.7789 6.17099C13.3754 6.84815 12.3805 7.33969 11.7917 7.31354C11.3146 7.29263 10.8806 7.08346 10.6294 6.75665L10.5228 6.84293L10.6192 6.74357C10.4771 6.55532 10.4137 6.34093 10.406 6.11869C10.3248 6.18667 10.2436 6.25465 10.1599 6.32263C10.1954 6.53702 10.2741 6.74096 10.4086 6.91875C10.4086 6.91875 10.4137 6.92398 10.4162 6.92659" fill="#F6FFEA"/>
<path d="M9.77648 16.3474C9.98459 16.4651 10.2206 16.5357 10.4769 16.5357C11.2941 16.5357 11.9565 15.8533 11.9565 15.0114C11.9565 14.6584 11.8347 14.3368 11.6393 14.078C12.5098 12.9276 13.2915 11.7824 13.9691 10.7628C14.2279 10.3732 14.4868 9.96531 14.7381 9.57313C15.3167 8.66588 15.9131 7.72726 16.5704 6.90106C17.0602 6.28402 17.6008 5.86831 18.1744 5.66176C18.8139 5.43168 19.5169 5.49443 20.0092 5.82386C20.4813 6.14022 20.7478 6.52456 20.8264 6.99518C21.0447 8.28938 19.7884 9.99146 19.1134 10.9066C17.5043 13.0845 15.7151 15.1578 13.7889 17.0638C13.431 17.4194 13.0199 17.7724 12.5859 18.1436C10.8779 19.6078 8.94152 21.2706 9.37296 23.9009C9.57853 25.148 10.4617 25.9298 11.6164 25.9298C11.7205 25.9298 11.8296 25.9245 11.9388 25.9115C13.1341 25.7677 14.3015 24.999 15.5121 23.5662C17.9079 20.732 19.6438 17.4246 21.3239 14.227C22.2197 12.5223 23.1359 10.7863 24.1536 9.11297C24.2907 9.1548 24.4328 9.18617 24.5825 9.18617C25.3997 9.18617 26.0621 8.50378 26.0621 7.66189C26.0621 7.30108 25.9352 6.97688 25.7347 6.71542C26.0317 6.30233 26.3362 5.89446 26.6534 5.49966C28.0264 3.79497 30.0618 1.76346 32.6835 0.518938C32.3078 0.44573 31.9272 0.382981 31.5465 0.325461C29.2243 1.62751 27.4021 3.47599 26.1306 5.05518C25.8083 5.45521 25.5012 5.86831 25.2018 6.28402C25.014 6.19251 24.8033 6.14022 24.5825 6.14022C23.7653 6.14022 23.1029 6.82262 23.1029 7.66451C23.1029 8.10114 23.2831 8.4907 23.5674 8.76785C22.5446 10.4516 21.6284 12.1903 20.73 13.8976C19.0677 17.0638 17.3495 20.3346 15.0045 23.1113C13.9082 24.4081 12.8803 25.0983 11.8626 25.2212C10.9185 25.3363 10.2054 24.7741 10.043 23.7884C9.67497 21.553 11.3753 20.0941 13.0199 18.6822C13.464 18.3005 13.8828 17.9423 14.2584 17.5684C16.21 15.6363 18.0246 13.5368 19.6539 11.3301C20.3899 10.3313 21.7629 8.4724 21.4964 6.87753C21.3848 6.21343 21.0092 5.66437 20.3823 5.24082C19.7098 4.7885 18.8012 4.69961 17.9536 5.00551C17.2607 5.25389 16.6186 5.74543 16.0476 6.46181C15.3674 7.31677 14.7609 8.26847 14.1721 9.1914C13.9234 9.58097 13.6671 9.98623 13.4107 10.3706C12.7433 11.3772 11.9718 12.5067 11.1139 13.6414C10.9211 13.5446 10.7079 13.4871 10.4769 13.4871C9.65974 13.4871 8.99735 14.1695 8.99735 15.0114C8.99735 15.3356 9.09887 15.6363 9.26637 15.8847C6.25897 19.2025 3.28203 20.7896 0.805047 21.4981C0.7416 21.7543 0.683228 22.0132 0.627394 22.272C4.53067 21.268 7.61674 18.7267 9.77648 16.3448" fill="#F6FFEA"/>
<path d="M11.2919 30.071C13.3146 28.4238 15.6089 26.5597 17.8397 28.5624C18.4386 29.101 18.8472 29.8148 19.2812 30.573C19.3548 30.7011 19.4284 30.8292 19.502 30.9547C20.0426 31.8803 20.6288 32.4189 21.4689 32.7535C22.1033 33.0071 22.7556 32.9941 23.2581 32.7169C23.6946 32.4764 23.9991 32.0947 24.1362 31.611C24.3011 31.0279 24.2022 30.322 23.8748 29.7233C23.3799 28.8213 22.6464 28.3689 21.9384 27.9297C21.5704 27.7022 21.1897 27.4669 20.8522 27.1715C20.342 26.7244 19.9842 26.2381 19.7431 25.723C20.2811 25.4955 20.6618 24.9517 20.6618 24.3138C20.6618 23.5686 20.1441 22.9516 19.4589 22.8182C19.9258 20.3266 21.8292 17.6833 23.1794 15.8112L23.4281 15.4687C25.796 12.1692 28.4937 9.10753 31.4453 6.36748C33.3639 4.58436 35.4755 3.26924 37.7037 1.95412C37.4322 1.84431 37.1581 1.73973 36.8815 1.63515C34.7979 2.87444 32.8208 4.15035 30.9936 5.84719C28.009 8.61861 25.2808 11.7169 22.885 15.0504L22.6388 15.3929C21.5069 16.9616 19.9563 19.1108 19.1721 21.307C18.9792 21.8456 18.8447 22.3633 18.7635 22.8575C18.1518 23.0457 17.7026 23.6209 17.7026 24.3111C17.7026 25.1007 18.2889 25.7439 19.0376 25.8197C19.3269 26.5178 19.7837 27.1479 20.4156 27.6996C20.7963 28.0317 21.1999 28.2827 21.5907 28.5258C22.2531 28.9363 22.8799 29.3232 23.286 30.0658C23.5271 30.505 23.6007 31.0096 23.4865 31.4149C23.4002 31.7182 23.2175 31.9483 22.9408 32.0999C22.6135 32.2803 22.1668 32.2803 21.715 32.0999C21.0171 31.8201 20.5451 31.3835 20.0832 30.5939C20.0096 30.4684 19.9385 30.3429 19.8675 30.2148C19.4259 29.4435 18.969 28.6435 18.2889 28.0317C15.6317 25.6472 12.8832 27.8826 10.8757 29.5167L4.96245 34.3275C3.80009 35.274 2.43217 35.9825 1.11755 36.5237C1.18353 36.7486 1.24952 36.9708 1.32058 37.193C2.70119 36.6283 4.14778 35.8805 5.38374 34.8739L11.297 30.0632L11.2919 30.071Z" fill="#F6FFEA"/>
<path d="M19.8625 43.1726C19.9589 42.8379 19.9767 42.532 19.9183 42.268C19.8117 41.7895 19.426 41.4025 18.959 41.3032C18.1647 41.1332 16.6952 42.0483 15.6623 42.7543C15.1268 43.1177 14.4847 43.6929 14.4695 44.357C14.4619 44.7439 14.6649 45.0943 15.0786 45.4054C15.6039 45.7976 16.175 45.9963 16.7333 45.9963C17.2434 45.9963 17.7459 45.8316 18.1976 45.5022C18.8067 45.0577 19.596 44.0929 19.8625 43.1752M15.2359 45.1779C14.8984 44.927 14.7309 44.6524 14.7385 44.3622C14.7512 43.7896 15.4136 43.2536 15.8095 42.9843C16.345 42.6209 17.9058 41.5594 18.7408 41.5594C18.7991 41.5594 18.8524 41.5646 18.9032 41.5751C19.261 41.6509 19.5706 41.9621 19.6544 42.3307C19.7026 42.5477 19.6874 42.8066 19.6036 43.0942C19.3651 43.9204 18.624 44.8511 18.0428 45.2747C17.18 45.9022 16.1572 45.8682 15.2385 45.1806" fill="#F6FFEA"/>
<path d="M31.4792 30.1905C31.4462 30.1905 31.4158 30.1801 31.3828 30.1801C30.5656 30.1801 29.9032 30.8625 29.9032 31.7043C29.9032 32.3815 30.3346 32.9463 30.9234 33.1476C30.8625 34.4 31.1163 35.4249 31.6975 36.238C32.2457 37.004 33.106 37.5976 34.3267 38.0525C35.8799 38.6329 37.8036 38.9493 39.7959 38.9493C43.1104 38.9493 46.6152 38.0708 48.9247 36.068C50.4931 34.7085 51.3712 32.8025 51.2773 30.9723C51.2164 29.7957 50.7824 28.7499 50.1555 27.8296C50.3205 27.5838 50.4195 27.2858 50.4195 26.9616C50.4195 26.1197 49.7571 25.4373 48.9399 25.4373C48.648 25.4373 48.3765 25.5288 48.1455 25.6804C47.4882 25.1288 46.8081 24.6503 46.1863 24.2424C44.6635 23.2437 44.0392 22.3782 44.2169 21.5181C44.4757 20.2788 46.2497 20.0382 46.9984 19.9912C47.6405 19.9519 48.3029 19.9389 48.945 19.9258C50.5464 19.8944 52.196 19.8631 53.7593 19.4212C53.6883 19.199 53.6147 18.9793 53.536 18.7597C52.0615 19.1676 50.4753 19.199 48.9323 19.2303C48.2851 19.2434 47.6151 19.2565 46.9578 19.2957C45.0468 19.4133 43.8057 20.169 43.5519 21.3716C43.2271 22.9273 44.6889 24.0908 45.8183 24.8307C46.4045 25.215 47.0492 25.6674 47.6684 26.185C47.5364 26.4125 47.4552 26.6792 47.4552 26.9642C47.4552 27.8061 48.1176 28.4885 48.9348 28.4885C49.1886 28.4885 49.4246 28.4152 49.6353 28.3002C50.1733 29.1081 50.5438 30.0101 50.5971 31.0115C50.6809 32.6247 49.8916 34.3163 48.4856 35.5373C44.9732 38.5858 38.5193 38.8761 34.5577 37.4015C33.4664 36.9936 32.7076 36.4811 32.2431 35.8301C31.7609 35.1556 31.5503 34.2875 31.596 33.2129C32.3116 33.1058 32.8598 32.4756 32.8598 31.7096C32.8598 31.1475 32.5629 30.6638 32.1238 30.3997C33.4029 25.5863 35.4662 20.7677 38.1259 16.4066C40.273 12.8822 42.816 9.64538 45.5949 6.87919C45.4224 6.72493 45.2498 6.5759 45.0747 6.42687C42.2754 9.22183 39.7147 12.4848 37.5524 16.0353C34.8648 20.4487 32.7735 25.3222 31.4767 30.1958" fill="#F6FFEA"/>
<path d="M27.2106 34.5553C26.8249 34.7984 26.599 35.201 26.6371 35.5802C26.665 35.8678 26.8249 36.0926 26.9797 36.3122C27.1015 36.4848 27.2157 36.6469 27.2614 36.8273C27.2918 36.9502 27.2918 37.0809 27.2918 37.2221C27.2918 37.2953 27.2918 37.3711 27.2944 37.4443C27.3324 38.1163 27.8299 38.7856 28.5075 39.0758C28.7207 39.1673 28.9338 39.2118 29.1419 39.2118C29.4795 39.2118 29.7993 39.0889 30.0607 38.851C30.9312 38.0509 30.4718 36.2181 29.9718 35.4128C29.4211 34.5317 28.1547 33.9618 27.2157 34.5526M29.8754 38.6418C29.411 39.068 28.8831 38.9346 28.609 38.817C28.0329 38.5712 27.5938 37.9855 27.5634 37.426C27.5608 37.3581 27.5608 37.2901 27.5608 37.2221C27.5608 37.0705 27.5608 36.9136 27.5228 36.7567C27.4644 36.524 27.3299 36.3305 27.1979 36.1475C27.0583 35.9488 26.9264 35.7632 26.9061 35.5514C26.8731 35.2194 27.1269 34.9344 27.3527 34.7906C27.5761 34.6494 27.8248 34.5866 28.0735 34.5866C28.7207 34.5866 29.3907 35.005 29.7384 35.5619C30.2459 36.3724 30.5581 38.0143 29.8754 38.6392" fill="#F6FFEA"/>
<path d="M27.4535 45.9853L27.5398 45.8572C29.1666 43.4754 29.7224 42.0818 29.3366 41.3393C29.2148 41.1066 28.9458 40.8347 28.3367 40.8478C27.4357 40.8713 26.6261 41.9877 26.0881 42.725C26.0247 42.8113 25.9663 42.8923 25.9155 42.9603C24.9638 44.2284 24.0908 45.6611 23.3167 47.2194C22.0072 49.8523 21.0149 52.7518 20.355 55.85C20.5733 55.9102 20.7915 55.9677 21.0123 56.0252C21.6595 52.9767 22.6341 50.1268 23.9182 47.5384C24.672 46.0193 25.5247 44.6232 26.451 43.3891C26.5043 43.3185 26.5652 43.2348 26.6287 43.1459C27.0297 42.5943 27.7784 41.5641 28.3494 41.5484C28.494 41.5458 28.6793 41.5641 28.7351 41.6713C28.8189 41.8334 28.9432 42.589 26.9815 45.4572L26.8926 45.5879C24.7075 48.8378 23.5832 52.6917 23.672 56.5481C23.8979 56.5821 24.1238 56.6109 24.3522 56.6396C24.2431 52.893 25.3268 49.1437 27.4484 45.9853" fill="#F6FFEA"/>
<path d="M36.5752 40.7053C36.2478 40.6478 35.923 40.5929 35.5981 40.5353C35.4941 40.517 35.3646 40.4909 35.2149 40.4595C34.2454 40.2608 32.6237 39.9262 31.804 40.5641C31.5172 40.789 31.3472 41.1158 31.3167 41.5132C31.1695 43.3721 33.8622 44.0728 35.154 44.4101L35.3646 44.465C36.0575 44.6506 36.7681 44.7735 37.4559 44.8938C38.6207 45.0977 39.7196 45.2912 40.7678 45.7488C41.3287 45.9919 41.7525 46.3161 42.0469 46.7214C41.717 47.0011 41.5012 47.4195 41.5012 47.8953C41.5012 48.5594 41.9175 49.1189 42.4936 49.3281C42.4047 49.9111 42.2296 50.5648 41.9682 51.2968C41.7601 51.8773 41.5342 52.4655 41.2881 53.0617C41.618 52.8656 41.9428 52.6616 42.2651 52.4551C42.3844 52.1466 42.4986 51.8433 42.6078 51.54C42.7702 51.0877 43.0519 50.2955 43.1788 49.4039C43.9046 49.3046 44.4655 48.6718 44.4655 47.9005C44.4655 47.0587 43.8031 46.3763 42.9859 46.3763C42.8768 46.3763 42.7677 46.3919 42.6661 46.4155C42.3235 45.9004 41.8033 45.4455 41.0368 45.1108C39.9151 44.6219 38.7248 44.4127 37.5726 44.2114C36.8975 44.0937 36.2021 43.9709 35.5372 43.7931L35.324 43.7382C34.2124 43.448 31.8953 42.844 31.9943 41.5759C32.0095 41.3746 32.0806 41.2308 32.2151 41.1262C32.7937 40.6765 34.3419 40.9955 35.0855 41.1472C35.2428 41.1785 35.3799 41.2073 35.489 41.2256C35.8138 41.2805 36.1387 41.338 36.4661 41.3955C40.3744 42.0753 44.4173 42.7812 48.4373 42.3969C49.6758 42.2793 50.8787 42.0126 52.0106 41.6125C52.1654 41.3093 52.3152 41.0034 52.4598 40.6948C51.1909 41.2204 49.8078 41.5681 48.3738 41.704C44.4427 42.0779 40.4455 41.3825 36.5777 40.7079" fill="#F6FFEA"/>
<path d="M36.4402 47.7053C35.4428 47.0125 34.0723 46.7955 32.3669 47.0543C31.504 47.185 30.8365 47.3837 30.2655 47.6792C28.7453 48.4609 27.6083 50.1133 27.1464 52.2128C26.8089 53.7502 26.8419 55.3241 26.9358 56.8693C27.0272 56.8693 27.116 56.8693 27.2074 56.8719C27.1134 55.3398 27.0779 53.7815 27.4104 52.273C27.8545 50.2545 28.9382 48.6701 30.3848 47.9276C30.9304 47.6478 31.5725 47.4569 32.4049 47.3288C34.0419 47.0805 35.3489 47.2844 36.2879 47.9354C37.5391 48.8034 38.2116 50.5892 37.9984 52.4847C37.8995 53.3711 37.6355 54.2234 37.2878 55.0601C37.4046 55.0156 37.5213 54.9712 37.6381 54.9241C37.9452 54.145 38.1761 53.3501 38.2675 52.5187C38.4933 50.5212 37.7751 48.6335 36.4402 47.7053Z" fill="#F6FFEA"/>
<path d="M47.3498 45.5738C46.7102 46.2196 46.8244 47.2262 46.9259 48.1125C46.9437 48.2694 46.9615 48.4237 46.9767 48.5753C46.9792 48.6145 46.9818 48.6537 46.9843 48.693C47.068 48.6067 47.1518 48.5204 47.233 48.4341C47.2203 48.3165 47.2076 48.1988 47.1949 48.0785C47.096 47.2157 46.9945 46.3242 47.5376 45.7725C47.8142 45.4927 48.2177 45.3699 48.54 45.294C49.007 45.1842 49.4993 45.1215 49.9892 45.0692C50.0577 44.9698 50.1287 44.8679 50.1973 44.7685C49.6237 44.826 49.0374 44.8914 48.4791 45.0247C48.1238 45.1084 47.6721 45.2496 47.3472 45.5764" fill="#F6FFEA"/>
<path d="M36.2185 25.9782C35.8125 27.7378 35.7059 29.1549 35.8835 30.4386C36.1119 32.0832 36.8327 33.4767 37.9138 34.3604C38.8503 35.1265 40.1142 35.5422 41.4897 35.5422C41.5735 35.5422 41.6572 35.5422 41.741 35.537C42.713 35.503 43.5048 35.2599 44.0936 34.8154C45.6518 33.6414 45.662 31.1864 44.8803 29.4712C44.3651 28.3444 43.5835 27.3718 42.8272 26.4305C42.4236 25.9285 42.0049 25.4082 41.6344 24.8722C41.0278 23.9964 39.7081 21.7374 40.5456 19.7033C41.1166 18.3097 42.5911 17.3136 44.9285 16.741C45.8092 16.5266 46.7178 16.3593 47.5959 16.1972C49.0602 15.9279 50.5728 15.6507 52.0016 15.1383C51.9585 15.0546 51.9179 14.9709 51.8722 14.8873C50.4738 15.384 48.9841 15.6586 47.5451 15.9226C46.6619 16.0847 45.7483 16.2521 44.8626 16.4691C42.4389 17.0626 40.9009 18.1162 40.2944 19.5935C39.6675 21.1177 40.0761 23.1022 41.4136 25.0343C41.7892 25.5782 42.2105 26.1011 42.6191 26.6083C43.3652 27.5339 44.1367 28.4934 44.6341 29.5889C45.3701 31.2021 45.3752 33.5055 43.9312 34.5879C43.388 34.9984 42.647 35.2233 41.7308 35.2546C40.3223 35.3043 39.0254 34.9095 38.0813 34.1382C37.0712 33.312 36.3657 31.9472 36.15 30.3942C35.9774 29.147 36.0815 27.7639 36.4799 26.0383C37.3733 22.1766 39.2894 18.2574 42.1775 14.3853C43.7332 12.2989 45.4843 10.338 47.2786 8.47639C47.2152 8.41103 47.1543 8.34305 47.0883 8.27769C45.2838 10.1497 43.5276 12.1185 41.9618 14.2179C39.0508 18.1189 37.1169 22.0747 36.216 25.9756" fill="#F6FFEA"/>
<path d="M34.1143 6.36737C33.018 7.57267 32.0053 8.87733 31.0257 10.1375C29.8811 11.6095 28.6985 13.1338 27.3788 14.5038L27.2849 14.6006C24.8485 17.1262 22.0847 19.9892 22.4933 23.8535C22.5593 24.4862 22.77 25.3856 23.3841 26.0942C23.8917 26.6772 24.4221 26.9726 24.9627 26.9726C25.0388 26.9726 25.115 26.9674 25.1911 26.9543C26.4093 26.7687 27.2976 25.1869 27.7188 24.2587C28.0818 23.4639 28.3508 22.6273 28.6096 21.8194C28.7974 21.2337 28.9929 20.6271 29.2213 20.0441C30.8887 15.785 32.8505 11.2775 35.901 7.19095C37.6115 4.9006 39.0353 3.73713 40.1494 3.09918C40.053 3.04689 39.954 2.99982 39.8576 2.94753C38.7409 3.61947 37.3425 4.80125 35.6853 7.01839C32.6144 11.1337 30.6425 15.6595 28.9675 19.9369C28.7365 20.5304 28.5386 21.1396 28.3482 21.7305C28.0894 22.5305 27.8229 23.3593 27.4701 24.1385C27.1504 24.8444 26.2824 26.502 25.148 26.6746C24.6226 26.753 24.0973 26.4942 23.5821 25.9033C23.0136 25.2497 22.8207 24.4078 22.7598 23.8169C22.3664 20.0833 25.0794 17.27 27.4727 14.7888L27.5666 14.6921C28.899 13.3116 30.0867 11.7821 31.2338 10.3049C32.2109 9.04728 33.2184 7.74785 34.3097 6.55038C35.7056 5.01826 37.2994 3.6613 39.0226 2.53182C38.9262 2.48476 38.8272 2.44031 38.7282 2.39586C37.0456 3.5175 35.4822 4.85354 34.1118 6.35691" fill="#F6FFEA"/>
<path d="M12.3071 36.8261C13.1826 36.4209 14.0861 36.0025 14.9693 35.5711C15.0835 35.5162 15.2028 35.4613 15.3246 35.4038C16.3246 34.941 17.695 34.3083 17.0656 32.7709C16.4819 31.3408 14.3628 31.631 13.3248 31.984C12.2639 32.3448 11.3351 32.9906 10.4367 33.6181L2.11746 39.4145C2.15299 39.5008 2.19105 39.5871 2.22659 39.676L10.5889 33.8508C11.4721 33.2363 12.3857 32.5984 13.4111 32.2506C14.5227 31.8742 16.3449 31.7277 16.8169 32.8808C17.3422 34.1671 16.2103 34.69 15.213 35.1528C15.0886 35.2103 14.9668 35.2678 14.8526 35.3227C13.9745 35.7515 13.071 36.1699 12.1979 36.5751C10.2285 37.485 8.1957 38.4262 6.2999 39.5714C5.19845 40.2381 4.19599 40.9937 3.25951 41.867C3.30519 41.9506 3.34833 42.0343 3.39401 42.118C4.33049 41.2395 5.3355 40.4786 6.43694 39.8119C8.31751 38.6746 10.3478 37.736 12.3096 36.8287" fill="#F6FFEA"/>
<path d="M4.14945 32.1608C5.56305 31.5647 7.32181 30.8222 7.16192 28.9632C7.12639 28.5501 6.96143 28.1736 6.80408 27.8102C6.67972 27.5278 6.56298 27.2585 6.50207 26.9735C6.33457 26.2023 6.57059 25.3107 7.2279 24.2466L7.31927 24.1002C7.55022 23.7315 7.78878 23.3498 7.88268 22.9053C7.98927 22.3981 7.84207 21.7444 7.35226 21.4804C6.25336 20.8869 5.08593 22.4634 4.23066 23.6138C3.92611 24.0243 3.66217 24.3773 3.45914 24.5655C2.44145 25.5016 1.26894 26.2336 0.0152277 26.7225C0.0101519 26.8245 0.00507578 26.9239 0 27.0258C1.32732 26.5238 2.56834 25.7604 3.64187 24.7721C3.8652 24.5655 4.13676 24.2021 4.44892 23.7812C5.24328 22.7092 6.33457 21.2425 7.23044 21.7261C7.59844 21.9248 7.70503 22.4399 7.62128 22.8452C7.54007 23.24 7.31419 23.5982 7.09594 23.9459L7.00457 24.0923C6.30665 25.2218 6.05794 26.1813 6.2432 27.0285C6.31173 27.3422 6.43862 27.635 6.56298 27.9174C6.72033 28.2756 6.86752 28.6155 6.89798 28.9815C7.04264 30.6365 5.3854 31.3346 4.05301 31.8967C3.80429 32.0013 3.57081 32.1007 3.35763 32.2C2.37546 32.6628 1.40599 33.1726 0.461896 33.7165C0.479661 33.8132 0.497426 33.9099 0.515191 34.0067C1.47959 33.4472 2.46683 32.9269 3.46929 32.4536C3.6774 32.3543 3.90835 32.2576 4.15452 32.153" fill="#F6FFEA"/>
<path d="M12.7092 47.0552C10.8311 47.0918 9.63327 47.9625 8.7247 49.1573C8.79069 49.2201 8.85414 49.2828 8.92012 49.3456C9.79315 48.1873 10.92 47.3716 12.7143 47.335C13.3081 47.3219 14.4146 47.4213 15.1684 48.2187C15.9983 49.0972 16.0262 50.4385 15.775 51.4006C15.5795 52.151 15.2268 52.8883 14.8334 53.6125C14.9146 53.6544 14.9933 53.6988 15.0745 53.7406C15.4729 53.0059 15.8333 52.2503 16.0364 51.4738C16.3079 50.4358 16.2724 48.9848 15.3638 48.0226C14.539 47.152 13.3462 47.0448 12.7092 47.0552Z" fill="#F6FFEA"/>
<path d="M18.6487 2.77665C19.6511 3.51919 20.6866 4.28525 21.9225 4.3297C21.9606 4.3297 21.9961 4.3297 22.0342 4.3297C23.5417 4.3297 24.8157 3.24727 25.9933 2.13609L28.252 0.0052291C28.1201 0.00261455 27.9881 0 27.8561 0L25.8106 1.93215C24.6457 3.03288 23.3869 4.09962 21.9327 4.04994C20.778 4.00811 19.778 3.26819 18.8086 2.54919C18.669 2.44722 18.5319 2.34525 18.3949 2.2459C18.1868 2.09426 17.9812 1.9583 17.7807 1.83803C17.6716 1.87986 17.5625 1.9217 17.4533 1.96614C17.7071 2.10994 17.9685 2.27989 18.2375 2.47598C18.3746 2.57533 18.5116 2.6773 18.6487 2.77665Z" fill="#F6FFEA"/>
<path d="M50.3729 24.348L50.2612 24.2669C49.9668 24.0578 49.6648 23.8408 49.4592 23.5506C49.2562 23.263 49.1369 22.8289 49.3323 22.5021C49.5785 22.089 50.1622 22.0524 50.7003 22.0707L54.4919 22.2093C54.4716 22.1152 54.4513 22.021 54.4284 21.9269L50.7104 21.791C50.1292 21.7674 49.4237 21.8145 49.1014 22.3557C48.8425 22.7923 48.9847 23.3545 49.241 23.7153C49.4719 24.0421 49.7968 24.2748 50.1089 24.497L50.2206 24.5781C52.5149 26.2357 54.1797 28.7457 55.0096 31.5171C55.0324 31.2896 55.0527 31.0595 55.073 30.8295C54.1746 28.2437 52.5529 25.922 50.378 24.3506" fill="#F6FFEA"/>
<path d="M7.921 43.1525C8.7382 43.1525 9.40059 42.4701 9.40059 41.6283C9.40059 41.3956 9.3473 41.1785 9.25593 40.9825C11.5705 39.5157 14.1338 38.7026 16.8214 37.8502C17.6233 37.5966 18.4558 37.3325 19.2704 37.0528C21.3058 36.3547 24.265 35.1703 26.4476 32.9741C28.7672 30.6419 29.9194 27.7764 30.7417 25.2847C30.8787 24.869 31.0158 24.4533 31.1503 24.0349C31.8254 21.9721 32.5233 19.8386 33.3379 17.7966C34.1298 15.8148 35.2337 13.9741 36.3047 12.2956C36.4799 12.3714 36.6727 12.4133 36.8758 12.4133C37.693 12.4133 38.3554 11.7309 38.3554 10.889C38.3554 10.4654 38.1879 10.0837 37.9163 9.80655C38.9797 8.18814 40.104 6.57497 41.4516 5.19971C41.7231 4.92257 41.9998 4.66112 42.2815 4.41535C42.081 4.28462 41.8779 4.15651 41.6749 4.03101C41.4389 4.2454 41.2054 4.46764 40.9745 4.70295C39.5735 6.13049 38.4213 7.78812 37.3351 9.44574C37.1905 9.39607 37.0382 9.36208 36.8758 9.36208C36.0586 9.36208 35.3962 10.0445 35.3962 10.8864C35.3962 11.2655 35.5358 11.6106 35.7591 11.8773C34.6653 13.5924 33.5308 15.4775 32.7111 17.5299C31.8863 19.5928 31.1858 21.7394 30.5057 23.8127C30.3686 24.2284 30.2341 24.6441 30.0971 25.0598C29.3002 27.4757 28.186 30.2445 25.9705 32.4747C24.364 34.0931 22.2296 35.301 19.0522 36.3913C18.2451 36.6684 17.4178 36.9299 16.6183 37.1835C13.9764 38.0202 11.2609 38.883 8.82703 40.436C8.57578 40.2321 8.26108 40.104 7.91593 40.104C7.09873 40.104 6.43634 40.7864 6.43634 41.6283C6.43634 41.8243 6.47441 42.01 6.54039 42.1799C5.85516 42.7839 5.18516 43.4323 4.53292 44.1356C4.65982 44.3343 4.78925 44.5304 4.92122 44.7265C5.57346 44.018 6.24346 43.3617 6.92869 42.7551C7.19009 42.9983 7.53525 43.1499 7.91593 43.1499" fill="#F6FFEA"/>
<path d="M21.4282 47.9075C21.4282 47.4447 21.2227 47.0369 20.908 46.7571C21.144 46.2943 21.3978 45.8394 21.6769 45.3897C22.1185 44.6812 22.7226 44.0354 23.3646 43.353C24.4762 42.1686 25.6259 40.945 25.9254 39.2952C26.0472 38.6259 25.8873 38.0036 25.4736 37.5434C24.999 37.0127 24.2377 36.746 23.4382 36.8323C22.116 36.9735 20.9156 37.5696 19.7532 38.1474C19.4385 38.3043 19.1162 38.4638 18.8015 38.6102C13.8932 40.8822 9.88845 43.7347 6.81507 47.1362C6.96481 47.3114 7.11708 47.4866 7.26935 47.6591C10.2869 44.3047 14.2333 41.4888 19.0781 39.2481C19.403 39.0991 19.7304 38.9344 20.0476 38.7775C21.1567 38.2258 22.3038 37.6559 23.5068 37.5277C24.0955 37.465 24.6437 37.648 24.9737 38.0167C25.2401 38.3147 25.3391 38.7121 25.2554 39.1671C24.994 40.6103 23.9154 41.7581 22.8748 42.8667C22.2404 43.5438 21.583 44.2419 21.1059 45.0106C20.8166 45.476 20.5527 45.9518 20.3065 46.4303C20.1897 46.4015 20.073 46.3806 19.9486 46.3806C19.1314 46.3806 18.4691 47.063 18.4691 47.9049C18.4691 48.4357 18.733 48.901 19.1314 49.1756C18.4361 51.1339 18.0097 53.1131 17.7254 54.9642C17.9412 55.0479 18.1569 55.1315 18.3751 55.21C18.6518 53.3562 19.0756 51.3718 19.7685 49.4109C19.8268 49.4187 19.8877 49.4292 19.9486 49.4292C20.7658 49.4292 21.4282 48.7468 21.4282 47.9049" fill="#F6FFEA"/>
</svg>
