<svg xmlns="http://www.w3.org/2000/svg" width="129" height="140" fill="none">
  <path fill="#1C3625" d="M120.778 95.019h-1.169v-.314h2.69v.314h-1.188v2.812h-.333v-2.812Zm2.034 2.811v-3.125h.313l1.246 1.763 1.247-1.763h.308v3.126h-.333v-2.544l-1.201 1.697h-.045l-1.197-1.697v2.544h-.338ZM6.334 100.588H2.406v22.448h3.928v-22.448Zm4.846 0h3.64l11.981 15.52v-15.52h3.867v22.448h-3.29l-12.336-15.97v15.97H11.18v-22.448Zm24.289 0H39.4v9.331h10.67v-9.331h3.927v22.448H50.07v-9.463H39.4v9.463h-3.93v-22.448Zm30.838-.16h3.645l9.838 22.609h-4.154l-2.266-5.421H62.795l-2.3 5.421H56.47l9.838-22.609Zm5.623 13.691-3.866-8.98-3.834 8.98h7.7Zm10.543-13.531h9.2c2.555 0 4.6.706 5.846 1.957.925.929 1.435 2.147 1.435 3.625v.066c0 2.886-1.851 4.682-4.121 5.322 2.936.545 5.334 2.436 5.334 5.483v.062c0 3.72-3.035 5.933-8.016 5.933h-9.678v-22.448Zm9.423 10.615c3.323 0 5.972-1.635 5.972-4.876v-.062c0-2.82-2.3-4.682-6.231-4.682h-8.083v9.62h8.342Zm.288 10.838c4.31 0 6.869-1.862 6.869-4.905v-.062c0-3.142-2.78-4.876-6.742-4.876h-8.753v9.843h8.626Zm13.484-21.453h-1.086v22.448h1.086v-22.448Zm11.189.995h-7.955v-.995h17.025v.995h-7.984v21.453h-1.086v-21.453Zm-80.72-84.931c.456-.872.444-1.904-.037-2.626-.416-.632-1.131-.95-1.962-.88-.991.087-1.826.752-2.567 1.338-.28.223-.543.434-.79.59-.23.15-.468.302-.711.459a44.782 44.782 0 0 0-1.966 2.448c1.184-.644 2.295-1.35 3.274-1.978.292-.19.58-.417.88-.656.646-.516 1.316-1.045 1.978-1.102.437-.042.757.095.955.392.255.388.246.99-.02 1.503-2.28 4.335-7.17 7.68-11.674 9.488-.222.47-.436.941-.642 1.42 4.977-1.775 10.699-5.47 13.286-10.392m-.031-5.652c.495.623 1.3 1.003 2.21 1.044h.094c1.103 0 2.801-.838 3.521-2.014.428-.698.457-1.417.082-2.073-.201-.36-.55-.595-.793-.743a5.604 5.604 0 0 0-.95-.45c-.165.103-.33.202-.494.31.46.131.888.325 1.213.52.325.194.523.371.638.582.292.52.267 1.065-.074 1.626-.654 1.07-2.267 1.846-3.22 1.805-.774-.033-1.478-.364-1.885-.88l-.172.136.156-.156a1.671 1.671 0 0 1-.346-.987c-.131.107-.263.215-.399.322a2.085 2.085 0 0 0 .416.954m-1.041 14.764c.337.186.72.298 1.135.298a2.402 2.402 0 0 0 2.398-2.408 2.4 2.4 0 0 0-.514-1.474c1.41-1.816 2.678-3.625 3.776-5.235.42-.615.84-1.26 1.246-1.878.938-1.433 1.905-2.915 2.97-4.22.794-.974 1.67-1.631 2.6-1.957 1.036-.364 2.175-.264 2.973.256.765.5 1.197 1.106 1.325 1.85.353 2.043-1.683 4.731-2.777 6.176a84.268 84.268 0 0 1-8.629 9.724c-.58.561-1.246 1.119-1.95 1.705-2.768 2.312-5.906 4.938-5.207 9.092.333 1.969 1.765 3.204 3.636 3.204.169 0 .346-.009.523-.03 1.937-.226 3.829-1.44 5.79-3.703 3.884-4.476 6.697-9.699 9.42-14.748 1.452-2.692 2.937-5.434 4.586-8.076.222.066.452.116.695.116a2.402 2.402 0 0 0 2.398-2.408c0-.57-.206-1.081-.53-1.494.48-.653.974-1.297 1.488-1.92 2.226-2.692 5.524-5.9 9.773-7.866a45.115 45.115 0 0 0-1.843-.305c-3.763 2.056-6.716 4.975-8.777 7.469a45.19 45.19 0 0 0-1.505 1.94 2.339 2.339 0 0 0-1.004-.227 2.402 2.402 0 0 0-1.645 4.15c-1.658 2.659-3.143 5.405-4.599 8.1-2.694 5-5.478 10.166-9.279 14.55-1.777 2.049-3.443 3.139-5.092 3.333-1.53.181-2.686-.706-2.949-2.263-.596-3.53 2.16-5.834 4.825-8.064.72-.602 1.398-1.168 2.007-1.759a85.368 85.368 0 0 0 8.744-9.85c1.193-1.578 3.418-4.514 2.986-7.032-.18-1.049-.79-1.916-1.805-2.585-1.09-.714-2.563-.855-3.936-.371-1.123.392-2.164 1.168-3.09 2.3-1.102 1.35-2.085 2.852-3.039 4.31-.403.615-.819 1.255-1.234 1.862-1.082 1.59-2.332 3.373-3.722 5.165a2.334 2.334 0 0 0-1.033-.244 2.402 2.402 0 0 0-1.962 3.787c-4.874 5.24-9.698 7.745-13.713 8.864a41.71 41.71 0 0 0-.288 1.222c6.326-1.585 11.328-5.598 14.828-9.36"/>
  <path fill="#1C3625" d="M37.529 47.519c3.278-2.602 6.996-5.546 10.611-2.383.971.85 1.633 1.978 2.337 3.175.119.203.238.405.358.603.876 1.462 1.826 2.312 3.187 2.84 1.029.401 2.086.38 2.9-.057a2.85 2.85 0 0 0 1.423-1.747c.267-.92.107-2.035-.423-2.98-.803-1.425-1.991-2.14-3.139-2.833-.596-.36-1.213-.73-1.76-1.197-.827-.706-1.407-1.474-1.798-2.288a2.405 2.405 0 0 0 1.49-2.225 2.4 2.4 0 0 0-1.95-2.362c.756-3.935 3.841-8.109 6.03-11.065l.403-.541A96.915 96.915 0 0 1 70.19 10.086c3.11-2.815 6.532-4.892 10.143-6.969-.44-.173-.884-.339-1.333-.504-3.377 1.957-6.58 3.972-9.542 6.652a98.446 98.446 0 0 0-13.142 14.533l-.399.541c-1.834 2.478-4.347 5.871-5.618 9.34-.313.85-.53 1.668-.662 2.448a2.4 2.4 0 0 0-1.72 2.296c0 1.246.95 2.262 2.164 2.382.469 1.102 1.21 2.097 2.233 2.969.617.524 1.271.92 1.905 1.304 1.073.648 2.09 1.26 2.747 2.432.391.694.51 1.49.325 2.13a1.74 1.74 0 0 1-.884 1.082c-.53.285-1.255.285-1.987 0-1.13-.441-1.896-1.13-2.645-2.378a31.38 31.38 0 0 1-.35-.599c-.715-1.217-1.455-2.48-2.558-3.447-4.306-3.766-8.76-.235-12.014 2.345L27.27 54.24c-1.883 1.495-4.1 2.614-6.23 3.468.106.355.213.706.328 1.057 2.238-.891 4.582-2.072 6.585-3.662l9.584-7.597-.008.013Zm13.884 20.698c.156-.528.185-1.011.09-1.428a2.045 2.045 0 0 0-1.555-1.524c-1.287-.268-3.669 1.177-5.343 2.291-.867.574-1.908 1.483-1.933 2.532-.012.61.317 1.164.987 1.655.852.62 1.777.933 2.682.933.827 0 1.641-.26 2.373-.78.988-.702 2.267-2.225 2.699-3.675m-7.499 3.163c-.547-.396-.818-.83-.806-1.288.02-.904 1.094-1.75 1.736-2.176.868-.574 3.397-2.25 4.75-2.25.095 0 .182.008.264.024a1.63 1.63 0 0 1 1.217 1.194c.078.342.054.751-.082 1.205-.387 1.305-1.588 2.775-2.53 3.444-1.398.99-3.056.937-4.544-.149M70.25 47.724c-.054 0-.103-.016-.157-.016a2.402 2.402 0 0 0-.744 4.686c-.099 1.978.312 3.596 1.254 4.88.889 1.21 2.283 2.147 4.262 2.866 2.517.916 5.635 1.416 8.863 1.416 5.372 0 11.052-1.387 14.795-4.55 2.542-2.147 3.965-5.157 3.813-8.047-.099-1.858-.802-3.51-1.818-4.963a2.41 2.41 0 0 0 .428-1.37 2.403 2.403 0 0 0-2.398-2.408c-.473 0-.913.144-1.288.384a33.583 33.583 0 0 0-3.175-2.27c-2.468-1.578-3.48-2.945-3.192-4.303.42-1.957 3.295-2.337 4.508-2.411 1.04-.062 2.115-.083 3.155-.104 2.595-.05 5.269-.099 7.803-.796a32.047 32.047 0 0 0-.362-1.045c-2.39.644-4.961.694-7.462.743a82.54 82.54 0 0 0-3.2.103c-3.097.186-5.108 1.38-5.52 3.279-.526 2.456 1.843 4.294 3.674 5.462.95.607 1.995 1.321 2.998 2.139-.214.36-.345.78-.345 1.23a2.402 2.402 0 0 0 2.398 2.407 2.41 2.41 0 0 0 1.135-.297c.872 1.276 1.472 2.7 1.559 4.282.135 2.547-1.144 5.218-3.422 7.147-5.693 4.814-16.153 5.272-22.573 2.944-1.769-.645-2.999-1.454-3.751-2.482-.782-1.065-1.123-2.436-1.05-4.133a2.396 2.396 0 0 0 .856-4.443c2.073-7.6 5.417-15.21 9.728-22.097 3.48-5.566 7.6-10.677 12.105-15.045-.28-.244-.56-.48-.843-.715-4.537 4.414-8.687 9.567-12.192 15.174-4.355 6.97-7.745 14.665-9.847 22.362m-6.934 6.814c-.625.383-.991 1.02-.93 1.618.046.454.305.81.556 1.156.197.273.383.529.457.813.049.194.049.4.049.624 0 .115 0 .235.004.35.062 1.062.868 2.119 1.966 2.577.346.145.691.215 1.028.215a2.22 2.22 0 0 0 1.49-.57c1.41-1.263.666-4.158-.145-5.43-.892-1.39-2.945-2.29-4.467-1.358M67.63 61c-.753.673-1.608.462-2.052.276-.934-.388-1.646-1.313-1.695-2.196-.004-.107-.004-.215-.004-.322 0-.24 0-.487-.062-.735-.094-.367-.312-.673-.526-.962-.226-.314-.44-.607-.473-.941-.054-.525.358-.975.724-1.202a2.209 2.209 0 0 1 1.168-.322c1.049 0 2.135.66 2.698 1.54.823 1.28 1.329 3.873.222 4.86m-3.915 11.676.14-.202c2.637-3.761 3.538-5.962 2.912-7.135-.197-.367-.633-.796-1.62-.776-1.46.038-2.773 1.8-3.645 2.965-.102.136-.197.264-.28.371-1.542 2.003-2.956 4.266-4.211 6.726-2.122 4.158-3.73 8.737-4.8 13.63.354.094.707.185 1.065.276 1.05-4.814 2.628-9.314 4.71-13.402 1.221-2.399 2.603-4.604 4.105-6.552.086-.112.185-.244.288-.384.65-.872 1.863-2.498 2.788-2.523.235-.004.535.025.626.194.135.256.337 1.45-2.843 5.978l-.144.207c-3.541 5.132-5.363 11.218-5.22 17.308.367.054.733.099 1.103.145-.177-5.917 1.58-11.838 5.018-16.826m14.797-8.319c-.53-.091-1.057-.178-1.583-.268a22.86 22.86 0 0 1-.621-.12c-1.571-.314-4.2-.843-5.528.165-.465.355-.74.871-.79 1.499-.239 2.935 4.126 4.042 6.22 4.574l.34.087c1.123.293 2.275.487 3.39.677 1.888.322 3.669.628 5.367 1.35.91.384 1.596.896 2.073 1.536a2.398 2.398 0 0 0-.884 1.854c0 1.049.675 1.932 1.608 2.263-.144.92-.428 1.953-.851 3.109a61.931 61.931 0 0 1-1.103 2.787c.535-.31 1.062-.632 1.584-.958.193-.487.379-.966.555-1.445.264-.715.72-1.966.926-3.373a2.398 2.398 0 0 0 2.085-2.375 2.402 2.402 0 0 0-2.398-2.407 2.37 2.37 0 0 0-.518.062c-.555-.813-1.398-1.532-2.64-2.06-1.819-.772-3.748-1.103-5.615-1.42-1.094-.186-2.221-.38-3.299-.661l-.345-.087c-1.802-.458-5.557-1.412-5.397-3.414.025-.318.14-.545.358-.71.938-.71 3.447-.207 4.652.033.255.05.477.095.654.123.526.087 1.053.178 1.584.269 6.334 1.073 12.886 2.188 19.401 1.581a24.838 24.838 0 0 0 5.791-1.239c.251-.478.494-.962.729-1.449a23.534 23.534 0 0 1-6.623 1.594c-6.37.59-12.849-.508-19.117-1.573"/>
  <path fill="#1C3625" d="M78.296 75.314c-1.617-1.094-3.838-1.437-6.602-1.028-1.398.206-2.48.52-3.405.987-2.464 1.234-4.307 3.844-5.055 7.16-.547 2.427-.494 4.912-.342 7.352.148 0 .292 0 .44.005-.152-2.42-.21-4.88.33-7.263.72-3.187 2.476-5.69 4.82-6.862.884-.442 1.925-.743 3.274-.946 2.653-.392 4.771-.07 6.293.958 2.028 1.371 3.118 4.191 2.772 7.184-.16 1.4-.588 2.746-1.151 4.067.189-.07.378-.14.567-.214.498-1.23.872-2.486 1.02-3.799.367-3.154-.797-6.135-2.961-7.601Zm17.668-3.427c-1.037 1.02-.852 2.61-.687 4.009.028.248.057.491.082.73l.012.187c.136-.137.272-.273.403-.41l-.061-.56c-.16-1.363-.325-2.771.555-3.642.448-.442 1.102-.636 1.625-.756.757-.173 1.555-.272 2.348-.355l.338-.475c-.93.091-1.88.194-2.785.405-.576.132-1.308.355-1.834.871M77.904 41.085c-.658 2.779-.831 5.017-.543 7.044.37 2.597 1.538 4.797 3.29 6.193 1.518 1.21 3.566 1.866 5.796 1.866.135 0 .271 0 .407-.008 1.575-.054 2.859-.438 3.813-1.14 2.525-1.853 2.542-5.73 1.275-8.439-.835-1.78-2.102-3.315-3.328-4.802-.654-.792-1.332-1.614-1.933-2.46-.983-1.384-3.122-4.951-1.764-8.163.925-2.2 3.315-3.774 7.103-4.678 1.427-.339 2.9-.603 4.323-.859 2.373-.425 4.825-.863 7.14-1.672-.07-.132-.135-.264-.21-.396-2.266.784-4.68 1.217-7.012 1.634-1.432.257-2.912.52-4.348.863-3.928.938-6.42 2.602-7.404 4.934-1.016 2.408-.353 5.541 1.814 8.592.609.86 1.292 1.685 1.954 2.486 1.21 1.462 2.46 2.977 3.266 4.707 1.193 2.547 1.2 6.185-1.14 7.894-.88.649-2.08 1.004-3.566 1.053-2.282.079-4.384-.545-5.914-1.763-1.637-1.305-2.78-3.46-3.13-5.912-.28-1.97-.111-4.154.534-6.879 1.448-6.098 4.554-12.287 9.234-18.402 2.522-3.295 5.36-6.392 8.268-9.331-.103-.104-.202-.211-.309-.314-2.924 2.956-5.77 6.065-8.308 9.38-4.718 6.16-7.852 12.408-9.312 18.568m-3.38-31.003c-1.776 1.904-3.417 3.964-5.005 5.954-1.855 2.325-3.772 4.732-5.91 6.895l-.153.153c-3.948 3.989-8.427 8.51-7.765 14.612.107 1 .448 2.42 1.443 3.538.823.921 1.683 1.388 2.559 1.388.123 0 .246-.009.37-.03 1.974-.292 3.414-2.79 4.097-4.256.588-1.255 1.024-2.577 1.443-3.852.305-.925.621-1.883.992-2.804 2.702-6.726 5.881-13.844 10.825-20.297 2.773-3.617 5.08-5.454 6.886-6.462-.157-.082-.317-.157-.473-.24-1.81 1.062-4.076 2.928-6.762 6.43-4.977 6.498-8.173 13.645-10.888 20.4-.374.937-.695 1.9-1.003 2.832-.42 1.264-.852 2.573-1.424 3.803-.518 1.115-1.924 3.732-3.763 4.005-.851.124-1.703-.285-2.538-1.218-.921-1.032-1.234-2.362-1.333-3.295-.637-5.896 3.76-10.338 7.639-14.257l.152-.152c2.16-2.18 4.084-4.596 5.943-6.929 1.584-1.986 3.217-4.038 4.985-5.929a39.845 39.845 0 0 1 7.638-6.346 15.995 15.995 0 0 0-.477-.214 40.428 40.428 0 0 0-7.481 6.255m-35.343 48.16c1.42-.64 2.884-1.3 4.315-1.982.185-.087.378-.174.576-.264 1.62-.731 3.842-1.73 2.822-4.158-.947-2.258-4.381-1.8-6.063-1.243-1.72.57-3.225 1.59-4.681 2.58L22.66 62.31c.058.137.12.273.177.413l13.553-9.199c1.431-.97 2.912-1.978 4.574-2.527 1.801-.594 4.754-.826 5.52.995.85 2.032-.984 2.858-2.6 3.588-.202.091-.4.182-.584.269-1.423.677-2.888 1.337-4.302 1.977-3.192 1.437-6.487 2.924-9.56 4.732a29.693 29.693 0 0 0-4.927 3.625c.074.132.144.264.218.397a29.354 29.354 0 0 1 4.932-3.642c3.047-1.796 6.338-3.278 9.517-4.711m-13.223-7.363c2.291-.942 5.142-2.114 4.883-5.05-.058-.652-.325-1.247-.58-1.82-.202-.447-.391-.872-.49-1.322-.271-1.218.111-2.626 1.177-4.306l.148-.232c.374-.582.76-1.185.913-1.886.173-.801-.066-1.834-.86-2.25-1.78-.938-3.673 1.552-5.059 3.368-.494.649-.921 1.206-1.25 1.503a17.923 17.923 0 0 1-5.582 3.407l-.024.478a18.362 18.362 0 0 0 5.902-3.559c.362-.326.802-.9 1.308-1.564 1.287-1.693 3.056-4.01 4.508-3.246.596.314.769 1.128.633 1.768-.131.623-.498 1.189-.851 1.738l-.148.231c-1.131 1.784-1.534 3.299-1.234 4.637.11.495.317.958.518 1.403.255.566.494 1.103.543 1.68.234 2.614-2.451 3.717-4.61 4.605a34.84 34.84 0 0 0-1.128.478 65.162 65.162 0 0 0-4.693 2.395l.086.459a64.573 64.573 0 0 1 4.788-2.453c.337-.157.712-.31 1.11-.475M39.84 74.397c-3.043.058-4.985 1.433-6.457 3.32l.316.297c1.415-1.829 3.242-3.117 6.15-3.175.962-.02 2.755.136 3.977 1.396 1.345 1.387 1.39 3.505.983 5.025-.317 1.185-.888 2.349-1.526 3.493.132.066.26.136.39.202.647-1.16 1.23-2.353 1.56-3.58.44-1.639.382-3.93-1.09-5.45-1.337-1.375-3.27-1.544-4.303-1.528Zm9.605-70.012c1.625 1.172 3.303 2.382 5.306 2.452h.181c2.443 0 4.508-1.709 6.416-3.464L65.01.008C64.795.004 64.581 0 64.368 0l-3.316 3.051c-1.888 1.738-3.928 3.423-6.285 3.345-1.871-.066-3.492-1.235-5.063-2.37l-.67-.48c-.337-.239-.67-.454-.996-.643-.176.066-.353.132-.53.202.411.227.835.495 1.27.805.223.157.445.318.667.475Z"/>
  <path fill="#1C3625" d="m100.873 38.381-.181-.128c-.477-.33-.967-.673-1.3-1.13-.329-.455-.522-1.14-.206-1.657.4-.652 1.345-.71 2.217-.68l6.145.218a14.316 14.316 0 0 0-.102-.446l-6.026-.215c-.942-.037-2.085.037-2.608.892-.42.69-.189 1.577.226 2.147.375.516.901.884 1.407 1.235l.181.128c3.718 2.617 6.417 6.581 7.762 10.958.037-.36.069-.723.102-1.086-1.456-4.084-4.084-7.75-7.609-10.231M32.05 68.08a2.402 2.402 0 0 0 2.398-2.407c0-.367-.087-.71-.235-1.02 3.751-2.316 7.905-3.6 12.261-4.946 1.3-.4 2.65-.817 3.97-1.26 3.298-1.102 8.094-2.972 11.631-6.44 3.76-3.683 5.627-8.208 6.96-12.143.222-.656.444-1.313.662-1.973 1.094-3.258 2.225-6.627 3.546-9.852 1.283-3.13 3.072-6.036 4.808-8.687a2.402 2.402 0 0 0 3.323-2.221 2.4 2.4 0 0 0-.711-1.71c1.723-2.555 3.545-5.103 5.73-7.275.44-.437.888-.85 1.344-1.238a48.498 48.498 0 0 0-.983-.607c-.382.338-.76.69-1.135 1.06-2.27 2.255-4.138 4.873-5.898 7.49a2.33 2.33 0 0 0-.745-.132 2.402 2.402 0 0 0-2.398 2.408 2.4 2.4 0 0 0 .588 1.564c-1.772 2.709-3.61 5.686-4.94 8.927-1.336 3.258-2.471 6.647-3.574 9.921-.222.657-.44 1.313-.662 1.97-1.291 3.815-3.097 8.187-6.688 11.71-2.603 2.555-6.063 4.463-11.212 6.184-1.308.438-2.65.85-3.945 1.251-4.282 1.322-8.683 2.684-12.627 5.137a2.375 2.375 0 0 0-1.477-.525 2.402 2.402 0 0 0-2.398 2.407c0 .31.062.603.17.872a44.553 44.553 0 0 0-3.254 3.088c.205.314.415.623.629.933a44.108 44.108 0 0 1 3.253-3.113c.424.384.983.623 1.6.623m21.916 7.634c0-.73-.333-1.375-.843-1.816.382-.731.794-1.45 1.246-2.16.716-1.119 1.694-2.138 2.735-3.216 1.802-1.87 3.665-3.803 4.15-6.408.198-1.057-.061-2.04-.732-2.766-.769-.839-2.003-1.26-3.299-1.123-2.142.223-4.088 1.164-5.972 2.076-.51.248-1.032.5-1.542.731-7.955 3.588-14.446 8.093-19.427 13.464.243.277.49.553.737.826 4.89-5.297 11.286-9.744 19.138-13.282.526-.236 1.057-.496 1.571-.744 1.798-.87 3.657-1.77 5.606-1.973.955-.1 1.843.19 2.378.772.432.47.592 1.098.456 1.817-.423 2.279-2.171 4.091-3.858 5.842-1.028 1.07-2.093 2.172-2.867 3.385a31.607 31.607 0 0 0-1.295 2.242 2.456 2.456 0 0 0-.58-.078 2.403 2.403 0 0 0-2.398 2.407c0 .838.428 1.573 1.073 2.007-1.127 3.092-1.818 6.218-2.278 9.141.35.132.699.264 1.053.388.448-2.927 1.135-6.061 2.258-9.158.094.013.193.03.292.03a2.402 2.402 0 0 0 2.398-2.408M4.369 133.198h5.928v1.025H4.37v-1.025Zm.128 5.784H3.31v-11.216h7.691v1.026H4.497v10.19Zm14.998.097a6.535 6.535 0 0 1-2.355-.417 5.806 5.806 0 0 1-1.875-1.202 5.86 5.86 0 0 1-1.234-1.81 5.878 5.878 0 0 1-.433-2.276c0-.822.145-1.575.433-2.259a5.63 5.63 0 0 1 1.234-1.811 5.474 5.474 0 0 1 1.875-1.201c.715-.289 1.5-.433 2.355-.433a6.19 6.19 0 0 1 2.34.433 5.428 5.428 0 0 1 1.858 1.185 5.307 5.307 0 0 1 1.234 1.811c.3.694.449 1.453.449 2.275 0 .823-.15 1.581-.449 2.276a5.303 5.303 0 0 1-1.234 1.81 5.622 5.622 0 0 1-1.859 1.202 6.407 6.407 0 0 1-2.339.417Zm0-1.058a5.01 5.01 0 0 0 1.859-.336 4.455 4.455 0 0 0 1.49-.978c.427-.427.758-.919.993-1.474a4.802 4.802 0 0 0 .353-1.859c0-.673-.118-1.287-.353-1.842a4.379 4.379 0 0 0-.993-1.475 4.156 4.156 0 0 0-1.49-.977 4.801 4.801 0 0 0-1.859-.353c-.673 0-1.298.118-1.875.353a4.315 4.315 0 0 0-1.506.977 4.716 4.716 0 0 0-.993 1.475 4.678 4.678 0 0 0-.353 1.842c0 .663.118 1.277.353 1.843.245.566.576 1.063.993 1.49.427.417.93.743 1.506.978a5.134 5.134 0 0 0 1.875.336Zm14.339 1.058c-1.432 0-2.559-.412-3.381-1.234-.823-.823-1.234-2.041-1.234-3.654v-6.425h1.186v6.377c0 1.325.299 2.302.897 2.933.598.63 1.442.945 2.532.945 1.1 0 1.95-.315 2.547-.945.599-.631.898-1.608.898-2.933v-6.377h1.153v6.425c0 1.613-.41 2.831-1.233 3.654-.812.822-1.934 1.234-3.365 1.234Zm9.453-.097v-11.216h.978l7.74 9.742h-.514v-9.742h1.17v11.216h-.977l-7.723-9.742h.512v9.742h-1.185Zm14.317 0v-11.216h4.567c1.196 0 2.243.24 3.14.721a5.165 5.165 0 0 1 2.115 1.971c.502.844.754 1.816.754 2.916 0 1.101-.252 2.073-.754 2.916a5.269 5.269 0 0 1-2.115 1.987c-.897.47-1.944.705-3.14.705h-4.567Zm1.186-1.025h3.317c.993 0 1.853-.192 2.58-.577a4.324 4.324 0 0 0 1.714-1.618c.406-.695.609-1.49.609-2.388 0-.908-.203-1.704-.61-2.387a4.214 4.214 0 0 0-1.714-1.603c-.726-.395-1.586-.592-2.58-.592H58.79v9.165Zm11.383 1.025 5.127-11.216h1.17l5.128 11.216h-1.25l-4.711-10.527h.48l-4.71 10.527h-1.234Zm2.019-2.996.352-.961h6.522l.352.961h-7.226Zm14.159 2.996v-10.19h-3.942v-1.026h9.07v1.026h-3.942v10.19H86.35Zm8.303 0v-11.216h1.186v11.216h-1.186Zm11.021.097a6.54 6.54 0 0 1-2.356-.417 5.812 5.812 0 0 1-1.875-1.202 5.861 5.861 0 0 1-1.233-1.81 5.87 5.87 0 0 1-.433-2.276c0-.822.144-1.575.433-2.259a5.628 5.628 0 0 1 1.233-1.811 5.48 5.48 0 0 1 1.875-1.201c.716-.289 1.501-.433 2.356-.433.843 0 1.623.144 2.339.433a5.431 5.431 0 0 1 1.859 1.185 5.316 5.316 0 0 1 1.234 1.811 5.69 5.69 0 0 1 .448 2.275c0 .823-.149 1.581-.448 2.276a5.312 5.312 0 0 1-1.234 1.81 5.626 5.626 0 0 1-1.859 1.202 6.41 6.41 0 0 1-2.339.417Zm0-1.058c.673 0 1.292-.112 1.858-.336a4.447 4.447 0 0 0 1.49-.978c.428-.427.759-.919.994-1.474a4.802 4.802 0 0 0 .352-1.859c0-.673-.117-1.287-.352-1.842a4.37 4.37 0 0 0-.994-1.475 4.149 4.149 0 0 0-1.49-.977 4.797 4.797 0 0 0-1.858-.353c-.673 0-1.298.118-1.875.353a4.31 4.31 0 0 0-1.506.977 4.715 4.715 0 0 0-.994 1.475 4.678 4.678 0 0 0-.352 1.842c0 .663.117 1.277.352 1.843.246.566.577 1.063.994 1.49a4.63 4.63 0 0 0 1.506.978 5.137 5.137 0 0 0 1.875.336Zm9.82.961v-11.216h.977l7.74 9.742h-.513v-9.742h1.169v11.216h-.977l-7.723-9.742h.513v9.742h-1.186Z"/>
</svg>
