<svg width="72" height="140" viewBox="0 0 72 140" fill="none" xmlns="http://www.w3.org/2000/svg">
<path d="M71.6289 129.392C71.6289 130.64 70.7498 131.91 68.9617 133.13C67.1859 134.342 64.5918 135.448 61.3529 136.383C54.8802 138.252 45.9164 139.412 36 139.412C26.0836 139.412 17.1198 138.252 10.6471 136.383C7.40822 135.448 4.81415 134.342 3.03827 133.13C1.25018 131.91 0.371134 130.64 0.371134 129.392C0.371134 128.144 1.25018 126.874 3.03827 125.653C4.81415 124.441 7.40822 123.335 10.6471 122.4C17.1198 120.532 26.0836 119.371 36 119.371C45.9164 119.371 54.8802 120.532 61.3529 122.4C64.5918 123.335 67.1859 124.441 68.9617 125.653C70.7498 126.874 71.6289 128.144 71.6289 129.392Z" stroke="#F6FFEA" stroke-width="0.742268"/>
<path d="M60.3608 129.02C60.3608 129.804 59.7973 130.635 58.5712 131.457C57.3586 132.27 55.5794 133.017 53.3476 133.649C48.8891 134.914 42.7083 135.701 35.866 135.701C29.0236 135.701 22.8428 134.914 18.3843 133.649C16.1525 133.017 14.3734 132.27 13.1608 131.457C11.9346 130.635 11.3711 129.804 11.3711 129.02C11.3711 128.236 11.9346 127.406 13.1608 126.584C14.3734 125.771 16.1525 125.024 18.3843 124.391C22.8428 123.127 29.0236 122.34 35.866 122.34C42.7083 122.34 48.8891 123.127 53.3476 124.391C55.5794 125.024 57.3586 125.771 58.5712 126.584C59.7973 127.406 60.3608 128.236 60.3608 129.02Z" fill="#F6FFEA" stroke="#F6FFEA" stroke-width="0.742268"/>
<rect x="31" width="9.84425" height="8.26923" fill="#F6FFEA"/>
<path d="M36 3.7207V129" stroke="#F6FFEA"/>
</svg>
