<svg width="56" height="149" viewBox="0 0 56 149" fill="none" xmlns="http://www.w3.org/2000/svg">
<path d="M28 133.371C35.7076 133.371 42.6719 134.264 47.6973 135.7C50.2123 136.419 52.2207 137.267 53.5918 138.193C54.9759 139.128 55.6289 140.084 55.6289 141C55.6289 141.916 54.9759 142.872 53.5918 143.807C52.2207 144.733 50.2123 145.581 47.6973 146.3C42.6719 147.736 35.7076 148.629 28 148.629C20.2924 148.629 13.3281 147.736 8.30273 146.3C5.78774 145.581 3.7793 144.733 2.4082 143.807C1.0241 142.872 0.371094 141.916 0.371094 141C0.371094 140.084 1.0241 139.128 2.4082 138.193C3.7793 137.267 5.78774 136.419 8.30273 135.7C13.3281 134.264 20.2924 133.371 28 133.371Z" stroke="#F6FFEA" stroke-width="0.742268"/>
<path d="M28 136.371C33.222 136.371 37.9358 136.985 41.332 137.968C43.0322 138.46 44.3813 139.039 45.2969 139.665C46.2245 140.3 46.6289 140.927 46.6289 141.5C46.6289 142.073 46.2245 142.7 45.2969 143.335C44.3813 143.961 43.0322 144.54 41.332 145.032C37.9358 146.015 33.222 146.629 28 146.629C22.778 146.629 18.0642 146.015 14.668 145.032C12.9678 144.54 11.6187 143.961 10.7031 143.335C9.7755 142.7 9.37109 142.073 9.37109 141.5C9.37109 140.927 9.7755 140.3 10.7031 139.665C11.6187 139.039 12.9678 138.46 14.668 137.968C18.0642 136.985 22.778 136.371 28 136.371Z" fill="#F6FFEA" stroke="#F6FFEA" stroke-width="0.742268"/>
<path d="M28 16V141.279" stroke="#F6FFEA"/>
<rect x="23" y="3" width="10" height="10" rx="5" fill="#F6FFEA"/>
<rect x="20.5" y="0.5" width="15" height="15" rx="7.5" stroke="#F6FFEA"/>
</svg>
