<svg width="142" height="153" viewBox="0 0 142 153" fill="none" xmlns="http://www.w3.org/2000/svg">
<path d="M138.619 152.74C138.042 152.74 137.487 152.647 136.955 152.462C136.43 152.27 136.023 152.026 135.734 151.73L136.056 151.098C136.33 151.364 136.696 151.59 137.155 151.775C137.621 151.952 138.109 152.041 138.619 152.041C139.107 152.041 139.503 151.982 139.806 151.863C140.117 151.738 140.343 151.571 140.483 151.364C140.631 151.157 140.705 150.928 140.705 150.676C140.705 150.373 140.616 150.129 140.439 149.944C140.269 149.759 140.043 149.615 139.762 149.511C139.481 149.4 139.17 149.304 138.83 149.223C138.49 149.141 138.149 149.056 137.809 148.967C137.469 148.871 137.155 148.745 136.866 148.59C136.585 148.435 136.356 148.231 136.178 147.98C136.008 147.721 135.923 147.384 135.923 146.97C135.923 146.586 136.023 146.234 136.223 145.916C136.43 145.591 136.744 145.332 137.166 145.139C137.587 144.94 138.127 144.84 138.786 144.84C139.222 144.84 139.655 144.903 140.084 145.028C140.513 145.147 140.883 145.313 141.193 145.528L140.916 146.182C140.583 145.96 140.228 145.798 139.851 145.694C139.481 145.591 139.122 145.539 138.775 145.539C138.309 145.539 137.924 145.602 137.621 145.727C137.317 145.853 137.092 146.023 136.944 146.238C136.803 146.445 136.733 146.682 136.733 146.948C136.733 147.251 136.818 147.495 136.988 147.68C137.166 147.865 137.395 148.009 137.676 148.113C137.965 148.217 138.279 148.309 138.619 148.39C138.959 148.472 139.296 148.561 139.629 148.657C139.969 148.753 140.28 148.879 140.561 149.034C140.849 149.182 141.079 149.382 141.249 149.633C141.426 149.885 141.515 150.214 141.515 150.621C141.515 150.998 141.412 151.349 141.204 151.675C140.997 151.993 140.679 152.252 140.25 152.451C139.829 152.644 139.285 152.74 138.619 152.74Z" fill="white"/>
<path d="M127.906 152.673V144.906H130.813C131.472 144.906 132.037 145.014 132.511 145.228C132.984 145.435 133.347 145.738 133.598 146.138C133.857 146.53 133.987 147.007 133.987 147.569C133.987 148.117 133.857 148.59 133.598 148.989C133.347 149.381 132.984 149.685 132.511 149.899C132.037 150.106 131.472 150.21 130.813 150.21H128.361L128.727 149.833V152.673H127.906ZM133.21 152.673L131.213 149.855H132.1L134.109 152.673H133.21ZM128.727 149.899L128.361 149.511H130.791C131.568 149.511 132.156 149.341 132.555 149.001C132.962 148.66 133.166 148.183 133.166 147.569C133.166 146.948 132.962 146.467 132.555 146.127C132.156 145.786 131.568 145.616 130.791 145.616H128.361L128.727 145.228V149.899Z" fill="white"/>
<path d="M121.439 152.74C120.854 152.74 120.311 152.644 119.808 152.451C119.312 152.252 118.879 151.974 118.509 151.619C118.147 151.257 117.862 150.839 117.655 150.365C117.455 149.885 117.355 149.359 117.355 148.79C117.355 148.22 117.455 147.699 117.655 147.225C117.862 146.745 118.147 146.327 118.509 145.972C118.879 145.609 119.312 145.332 119.808 145.139C120.303 144.94 120.847 144.84 121.439 144.84C122.023 144.84 122.563 144.94 123.059 145.139C123.554 145.332 123.983 145.605 124.346 145.96C124.716 146.316 125 146.733 125.2 147.214C125.407 147.695 125.511 148.22 125.511 148.79C125.511 149.359 125.407 149.885 125.2 150.365C125 150.846 124.716 151.264 124.346 151.619C123.983 151.974 123.554 152.252 123.059 152.451C122.563 152.644 122.023 152.74 121.439 152.74ZM121.439 152.008C121.905 152.008 122.334 151.93 122.726 151.775C123.125 151.612 123.469 151.386 123.758 151.098C124.053 150.802 124.283 150.462 124.446 150.077C124.608 149.685 124.69 149.256 124.69 148.79C124.69 148.324 124.608 147.899 124.446 147.514C124.283 147.122 124.053 146.782 123.758 146.493C123.469 146.197 123.125 145.972 122.726 145.816C122.334 145.654 121.905 145.572 121.439 145.572C120.973 145.572 120.54 145.654 120.14 145.816C119.741 145.972 119.393 146.197 119.097 146.493C118.809 146.782 118.58 147.122 118.41 147.514C118.247 147.899 118.165 148.324 118.165 148.79C118.165 149.248 118.247 149.674 118.41 150.066C118.58 150.458 118.809 150.802 119.097 151.098C119.393 151.386 119.741 151.612 120.14 151.775C120.54 151.93 120.973 152.008 121.439 152.008Z" fill="white"/>
<path d="M108.32 152.673V144.906H111.483C112.311 144.906 113.036 145.073 113.657 145.406C114.286 145.731 114.774 146.186 115.122 146.77C115.47 147.355 115.643 148.028 115.643 148.79C115.643 149.552 115.47 150.225 115.122 150.809C114.774 151.393 114.286 151.852 113.657 152.185C113.036 152.51 112.311 152.673 111.483 152.673H108.32ZM109.141 151.963H111.438C112.126 151.963 112.722 151.83 113.225 151.564C113.735 151.29 114.131 150.916 114.412 150.443C114.693 149.962 114.833 149.411 114.833 148.79C114.833 148.161 114.693 147.61 114.412 147.136C114.131 146.663 113.735 146.293 113.225 146.027C112.722 145.753 112.126 145.616 111.438 145.616H109.141V151.963Z" fill="white"/>
<path d="M104.418 152.673V144.906H105.239V152.673H104.418Z" fill="white"/>
<path d="M95.8477 152.673V144.906H98.7547C99.413 144.906 99.9789 145.014 100.452 145.228C100.926 145.435 101.288 145.738 101.54 146.138C101.799 146.53 101.928 147.007 101.928 147.569C101.928 148.117 101.799 148.59 101.54 148.989C101.288 149.381 100.926 149.685 100.452 149.899C99.9789 150.106 99.413 150.21 98.7547 150.21H96.3026L96.6687 149.833V152.673H95.8477ZM101.151 152.673L99.1541 149.855H100.042L102.05 152.673H101.151ZM96.6687 149.899L96.3026 149.511H98.7325C99.5092 149.511 100.097 149.341 100.497 149.001C100.904 148.66 101.107 148.183 101.107 147.569C101.107 146.948 100.904 146.467 100.497 146.127C100.097 145.786 99.5092 145.616 98.7325 145.616H96.3026L96.6687 145.228V149.899Z" fill="white"/>
<path d="M87.2734 152.673V144.906H90.1805C90.8388 144.906 91.4047 145.014 91.8781 145.228C92.3515 145.435 92.7139 145.738 92.9654 146.138C93.2243 146.53 93.3538 147.007 93.3538 147.569C93.3538 148.117 93.2243 148.59 92.9654 148.989C92.7139 149.381 92.3515 149.685 91.8781 149.899C91.4047 150.106 90.8388 150.21 90.1805 150.21H87.7284L88.0945 149.833V152.673H87.2734ZM92.5771 152.673L90.5799 149.855H91.4675L93.4758 152.673H92.5771ZM88.0945 149.899L87.7284 149.511H90.1583C90.935 149.511 91.523 149.341 91.9225 149.001C92.3293 148.66 92.5327 148.183 92.5327 147.569C92.5327 146.948 92.3293 146.467 91.9225 146.127C91.523 145.786 90.935 145.616 90.1583 145.616H87.7284L88.0945 145.228V149.899Z" fill="white"/>
<path d="M80.8058 152.74C80.2214 152.74 79.6778 152.644 79.1748 152.451C78.6792 152.252 78.2464 151.974 77.8766 151.619C77.5141 151.257 77.2294 150.839 77.0222 150.365C76.8225 149.885 76.7227 149.359 76.7227 148.79C76.7227 148.22 76.8225 147.699 77.0222 147.225C77.2294 146.745 77.5141 146.327 77.8766 145.972C78.2464 145.609 78.6792 145.332 79.1748 145.139C79.6704 144.94 80.2141 144.84 80.8058 144.84C81.3902 144.84 81.9302 144.94 82.4258 145.139C82.9214 145.332 83.3504 145.605 83.7128 145.96C84.0827 146.316 84.3675 146.733 84.5672 147.214C84.7743 147.695 84.8779 148.22 84.8779 148.79C84.8779 149.359 84.7743 149.885 84.5672 150.365C84.3675 150.846 84.0827 151.264 83.7128 151.619C83.3504 151.974 82.9214 152.252 82.4258 152.451C81.9302 152.644 81.3902 152.74 80.8058 152.74ZM80.8058 152.008C81.2718 152.008 81.7009 151.93 82.0929 151.775C82.4923 151.612 82.8363 151.386 83.1248 151.098C83.4207 150.802 83.65 150.462 83.8127 150.077C83.9754 149.685 84.0568 149.256 84.0568 148.79C84.0568 148.324 83.9754 147.899 83.8127 147.514C83.65 147.122 83.4207 146.782 83.1248 146.493C82.8363 146.197 82.4923 145.972 82.0929 145.816C81.7009 145.654 81.2718 145.572 80.8058 145.572C80.3398 145.572 79.9071 145.654 79.5076 145.816C79.1082 145.972 78.7605 146.197 78.4647 146.493C78.1762 146.782 77.9469 147.122 77.7767 147.514C77.614 147.899 77.5326 148.324 77.5326 148.79C77.5326 149.248 77.614 149.674 77.7767 150.066C77.9469 150.458 78.1762 150.802 78.4647 151.098C78.7605 151.386 79.1082 151.612 79.5076 151.775C79.9071 151.93 80.3398 152.008 80.8058 152.008Z" fill="white"/>
<path d="M72.4164 152.74C71.8321 152.74 71.2921 152.644 70.7965 152.451C70.3009 152.252 69.8719 151.974 69.5094 151.619C69.147 151.264 68.8622 150.846 68.655 150.365C68.4553 149.885 68.3555 149.359 68.3555 148.79C68.3555 148.22 68.4553 147.695 68.655 147.214C68.8622 146.733 69.147 146.316 69.5094 145.96C69.8793 145.605 70.312 145.332 70.8076 145.139C71.3032 144.94 71.8432 144.84 72.4275 144.84C72.9897 144.84 73.5186 144.936 74.0142 145.128C74.5098 145.313 74.9277 145.594 75.268 145.972L74.7465 146.493C74.4284 146.168 74.0771 145.935 73.6924 145.794C73.3078 145.646 72.8935 145.572 72.4497 145.572C71.9837 145.572 71.551 145.654 71.1515 145.816C70.7521 145.972 70.4044 146.197 70.1086 146.493C69.8127 146.782 69.5797 147.122 69.4095 147.514C69.2468 147.899 69.1654 148.324 69.1654 148.79C69.1654 149.256 69.2468 149.685 69.4095 150.077C69.5797 150.462 69.8127 150.802 70.1086 151.098C70.4044 151.386 70.7521 151.612 71.1515 151.775C71.551 151.93 71.9837 152.008 72.4497 152.008C72.8935 152.008 73.3078 151.934 73.6924 151.786C74.0771 151.638 74.4284 151.401 74.7465 151.076L75.268 151.597C74.9277 151.974 74.5098 152.259 74.0142 152.451C73.5186 152.644 72.986 152.74 72.4164 152.74Z" fill="white"/>
<path d="M59.856 152.74C59.2642 152.74 58.7168 152.644 58.2138 152.451C57.7182 152.252 57.2855 151.974 56.9157 151.619C56.5532 151.264 56.2684 150.846 56.0613 150.365C55.8616 149.885 55.7617 149.359 55.7617 148.79C55.7617 148.22 55.8616 147.695 56.0613 147.214C56.2684 146.733 56.5569 146.316 56.9267 145.96C57.2966 145.605 57.7293 145.332 58.2249 145.139C58.7279 144.94 59.2753 144.84 59.8671 144.84C60.4588 144.84 60.9988 144.932 61.487 145.117C61.9826 145.302 62.4042 145.583 62.7519 145.96L62.2415 146.482C61.916 146.157 61.5573 145.924 61.1652 145.783C60.7732 145.642 60.3516 145.572 59.9004 145.572C59.4195 145.572 58.9757 145.654 58.5689 145.816C58.1695 145.972 57.8181 146.197 57.5148 146.493C57.2189 146.782 56.9859 147.122 56.8158 147.514C56.6531 147.899 56.5717 148.324 56.5717 148.79C56.5717 149.248 56.6531 149.674 56.8158 150.066C56.9859 150.458 57.2189 150.802 57.5148 151.098C57.8181 151.386 58.1695 151.612 58.5689 151.775C58.9757 151.93 59.4158 152.008 59.8893 152.008C60.3331 152.008 60.751 151.941 61.1431 151.808C61.5425 151.675 61.9086 151.449 62.2415 151.131L62.7075 151.752C62.3377 152.078 61.9049 152.326 61.4093 152.496C60.9137 152.658 60.3959 152.74 59.856 152.74ZM61.9197 151.653V148.79H62.7075V151.752L61.9197 151.653Z" fill="white"/>
<path d="M46.8672 152.673V144.906H47.544L52.9032 151.652H52.5481V144.906H53.3581V152.673H52.6812L47.3332 145.927H47.6883V152.673H46.8672Z" fill="white"/>
<path d="M42.9648 152.673V144.906H43.7859V152.673H42.9648Z" fill="white"/>
<path d="M35.8789 152.673V144.906H36.7V151.963H41.0494V152.673H35.8789Z" fill="white"/>
<path d="M26.9531 152.673V144.906H30.304C31.1694 144.906 31.8389 145.08 32.3123 145.428C32.7931 145.775 33.0335 146.267 33.0335 146.903C33.0335 147.325 32.9336 147.68 32.7339 147.969C32.5416 148.257 32.2753 148.475 31.935 148.623C31.6022 148.771 31.236 148.845 30.8366 148.845L31.0252 148.579C31.5208 148.579 31.9461 148.657 32.3012 148.812C32.6636 148.96 32.9447 149.185 33.1444 149.489C33.3442 149.785 33.444 150.154 33.444 150.598C33.444 151.257 33.1999 151.767 32.7117 152.129C32.2309 152.492 31.5023 152.673 30.5259 152.673H26.9531ZM27.7742 151.996H30.5148C31.1953 151.996 31.7168 151.882 32.0793 151.652C32.4417 151.416 32.6229 151.042 32.6229 150.532C32.6229 150.029 32.4417 149.663 32.0793 149.433C31.7168 149.197 31.1953 149.078 30.5148 149.078H27.6854V148.401H30.2485C30.8698 148.401 31.3507 148.283 31.6909 148.046C32.0386 147.81 32.2124 147.458 32.2124 146.992C32.2124 146.519 32.0386 146.167 31.6909 145.938C31.3507 145.701 30.8698 145.583 30.2485 145.583H27.7742V151.996Z" fill="white"/>
<path d="M17.2031 152.673L20.7537 144.906H21.5637L25.1142 152.673H24.2488L20.9867 145.383H21.3196L18.0575 152.673H17.2031ZM18.6012 150.598L18.8453 149.933H23.3611L23.6052 150.598H18.6012Z" fill="white"/>
<path d="M8.86719 152.673V144.906H9.54402L14.9032 151.652H14.5481V144.906H15.3581V152.673H14.6812L9.3332 145.927H9.68826V152.673H8.86719Z" fill="white"/>
<path d="M1.62293 148.379H5.72828V149.078H1.62293V148.379ZM1.71169 151.963H6.38291V152.673H0.890625V144.906H6.21648V145.616H1.71169V151.963Z" fill="white"/>
<path d="M136.132 108.576H134.801V108.219H137.867V108.576H136.512V111.782H136.132V108.576Z" fill="white"/>
<path d="M138.449 111.782V108.219H138.806L140.226 110.228L141.647 108.219H141.999V111.782H141.619V108.882L140.25 110.817H140.198L138.834 108.882V111.782H138.449Z" fill="white"/>
<path d="M5.6691 114.926H1.19141V140.515H5.6691V114.926Z" fill="white"/>
<path d="M11.1953 114.926H15.3448L29.0029 132.618V114.926H33.4103V140.515H29.6593L15.598 122.31V140.515H11.1953V114.926Z" fill="white"/>
<path d="M38.8867 114.926H43.3691V125.563H55.5315V114.926H60.0092V140.515H55.5315V129.728H43.3691V140.515H38.8867V114.926Z" fill="white"/>
<path d="M74.0356 114.742H78.1898L89.4051 140.515H84.6696L82.0861 134.336H70.0315L67.4105 140.515H62.8203L74.0356 114.742ZM80.4451 130.349L76.0377 120.112L71.6678 130.349H80.4451Z" fill="white"/>
<path d="M92.4648 114.926H102.953C105.865 114.926 108.195 115.731 109.616 117.157C110.671 118.216 111.252 119.604 111.252 121.289V121.364C111.252 124.654 109.142 126.702 106.554 127.431C109.902 128.052 112.636 130.208 112.636 133.682V133.752C112.636 137.993 109.175 140.515 103.497 140.515H92.4648V114.926ZM103.207 127.026C106.995 127.026 110.015 125.163 110.015 121.468V121.397C110.015 118.183 107.394 116.06 102.911 116.06H93.698V127.026H103.202H103.207ZM103.535 139.381C108.449 139.381 111.365 137.259 111.365 133.79V133.719C111.365 130.137 108.195 128.161 103.68 128.161H93.7027V139.381H103.535Z" fill="white"/>
<path d="M118.91 114.926H117.672V140.515H118.91V114.926Z" fill="white"/>
<path d="M131.662 116.06H122.594V114.926H142V116.06H132.899V140.515H131.662V116.06Z" fill="white"/>
<path d="M40.003 19.2431C40.5235 18.25 40.5094 17.0734 39.9608 16.2497C39.4873 15.5296 38.6714 15.1672 37.7243 15.2472C36.5944 15.3461 35.6426 16.1038 34.7986 16.7722C34.4798 17.0263 34.1797 17.2664 33.8984 17.4452C33.6358 17.6147 33.3639 17.7888 33.0872 17.9676C32.3089 18.8713 31.5587 19.8032 30.846 20.7587C32.1964 20.0244 33.4623 19.2196 34.5782 18.5042C34.9111 18.2877 35.2393 18.0288 35.5816 17.7559C36.3177 17.1675 37.082 16.5651 37.8369 16.4992C38.3339 16.4521 38.6996 16.6074 38.9246 16.9463C39.2153 17.3887 39.206 18.0759 38.9012 18.6595C36.3037 23.6014 30.7288 27.4138 25.5947 29.4752C25.3415 30.0118 25.0977 30.5483 24.8633 31.0943C30.5366 29.0705 37.0585 24.8581 40.0077 19.2478" fill="white"/>
<path d="M39.9743 12.8055C40.537 13.5162 41.456 13.9492 42.4922 13.9963C42.525 13.9963 42.5625 13.9963 42.6 13.9963C43.8566 13.9963 45.793 13.0408 46.6135 11.6995C47.1011 10.9041 47.134 10.0851 46.7073 9.33677C46.4775 8.92729 46.079 8.65902 45.8024 8.48958C45.4742 8.2919 45.1038 8.11776 44.7193 7.97656C44.5317 8.09423 44.3442 8.20719 44.1566 8.32956C44.6818 8.48017 45.1694 8.70138 45.5398 8.92259C45.9102 9.1438 46.1353 9.34618 46.2665 9.58621C46.5994 10.1792 46.5713 10.8005 46.1821 11.4406C45.4366 12.6596 43.5987 13.5445 42.5109 13.4974C41.6294 13.4597 40.8277 13.0832 40.3635 12.4949L40.1666 12.6502L40.3447 12.4713C40.0822 12.1325 39.965 11.7465 39.9509 11.3465C39.8009 11.4688 39.6508 11.5912 39.4961 11.7136C39.5617 12.0995 39.7071 12.4666 39.9556 12.7867C39.9556 12.7867 39.965 12.7961 39.9696 12.8008" fill="white"/>
<path d="M38.7816 29.631C39.1661 29.8428 39.6021 29.9699 40.0757 29.9699C41.5854 29.9699 42.8092 28.7415 42.8092 27.2259C42.8092 26.5906 42.5841 26.0116 42.2231 25.5457C43.8313 23.4748 45.2754 21.4133 46.5273 19.5777C47.0055 18.8765 47.4838 18.1422 47.948 17.4362C49.017 15.8031 50.1188 14.1134 51.3332 12.6261C52.2381 11.5154 53.2368 10.767 54.2964 10.3952C55.478 9.98102 56.7767 10.094 57.6864 10.687C58.5584 11.2565 59.0508 11.9484 59.1961 12.7956C59.5993 15.1253 57.2784 18.1893 56.0312 19.8366C53.0586 23.7572 49.7531 27.4895 46.1944 30.9206C45.5333 31.5607 44.7737 32.1961 43.972 32.8644C40.8165 35.5001 37.239 38.4935 38.0361 43.2283C38.4159 45.4734 40.0475 46.8806 42.1809 46.8806C42.3731 46.8806 42.5747 46.8712 42.7764 46.8477C44.9847 46.5888 47.1415 45.2051 49.378 42.6259C53.8041 37.5239 57.0112 31.5701 60.1151 25.814C61.7702 22.7453 63.4628 19.6201 65.343 16.6079C65.5962 16.6832 65.8587 16.7397 66.1354 16.7397C67.6451 16.7397 68.8689 15.5113 68.8689 13.9957C68.8689 13.3462 68.6344 12.7626 68.264 12.292C68.8126 11.5483 69.3752 10.8141 69.9613 10.1034C72.4979 7.0347 76.2582 3.37768 81.1016 1.13735C80.4077 1.00557 79.7044 0.892607 79.0011 0.789062C74.711 3.13294 71.3445 6.46049 68.9955 9.30327C68.4 10.0234 67.8327 10.767 67.2794 11.5154C66.9324 11.3506 66.5433 11.2565 66.1354 11.2565C64.6256 11.2565 63.4019 12.4849 63.4019 14.0004C63.4019 14.7864 63.7348 15.4877 64.2599 15.9866C62.3703 19.0177 60.6777 22.1475 59.0179 25.2209C55.9469 30.9206 52.7726 36.8085 48.4403 41.8069C46.4148 44.1414 44.5159 45.3839 42.6357 45.6051C40.8915 45.8122 39.574 44.8003 39.2739 43.0259C38.5941 39.0018 41.7355 36.3755 44.7737 33.834C45.5942 33.1468 46.3679 32.502 47.0618 31.829C50.6674 28.3508 54.0198 24.5714 57.0299 20.5991C58.3897 18.8012 60.9262 15.4548 60.4339 12.5838C60.2276 11.3883 59.5337 10.3999 58.3756 9.63744C57.1331 8.8232 55.4545 8.66318 53.8885 9.21385C52.6085 9.66097 51.4223 10.5458 50.3673 11.8354C49.1108 13.3745 47.9902 15.0877 46.9024 16.7491C46.4429 17.4504 45.9693 18.1799 45.4958 18.8718C44.2627 20.6838 42.8373 22.717 41.2525 24.7597C40.8962 24.5855 40.5023 24.482 40.0757 24.482C38.5659 24.482 37.3422 25.7104 37.3422 27.2259C37.3422 27.8096 37.5297 28.3508 37.8392 28.7979C32.2831 34.7706 26.7833 37.6275 22.2071 38.903C22.0899 39.3642 21.9821 39.8302 21.8789 40.2961C29.0901 38.4888 34.7915 33.914 38.7816 29.6263" fill="white"/>
<path d="M41.586 54.429C45.3229 51.4639 49.5614 48.1081 53.6828 51.7133C54.7893 52.6829 55.5442 53.9678 56.3459 55.3327C56.4819 55.5633 56.6179 55.7939 56.7539 56.0199C57.7525 57.686 58.8356 58.6555 60.3876 59.258C61.5598 59.7145 62.7647 59.691 63.6931 59.1921C64.4996 58.7591 65.0622 58.0719 65.3154 57.2012C65.6201 56.1516 65.4373 54.8809 64.8324 53.8031C63.9182 52.1793 62.5631 51.365 61.255 50.5743C60.5751 50.1649 59.8718 49.7413 59.2482 49.2094C58.3058 48.4046 57.6447 47.5292 57.1993 46.602C58.1933 46.1925 58.8966 45.2135 58.8966 44.0651C58.8966 42.7238 57.9401 41.613 56.6741 41.373C57.5369 36.8876 61.0534 32.1292 63.5478 28.7593L64.0072 28.1428C68.3818 22.2031 73.3658 16.6916 78.8188 11.7591C82.3634 8.54926 86.2644 6.18185 90.3811 3.81444C89.8794 3.61676 89.373 3.4285 88.8619 3.24023C85.0125 5.47115 81.36 7.76797 77.9842 10.8225C72.4703 15.8115 67.43 21.3888 63.0039 27.3897L62.5491 28.0063C60.4579 30.8302 57.5931 34.699 56.1443 38.6526C55.788 39.6221 55.5395 40.554 55.3895 41.4436C54.2595 41.7824 53.4296 42.8179 53.4296 44.0604C53.4296 45.4818 54.5127 46.6396 55.8958 46.7761C56.4303 48.0328 57.2743 49.1671 58.4418 50.1602C59.1451 50.7579 59.8906 51.2097 60.6126 51.6474C61.8364 52.3864 62.9945 53.0829 63.7447 54.4196C64.1901 55.2103 64.3261 56.1187 64.1151 56.8482C63.9557 57.3942 63.6181 57.8084 63.107 58.0813C62.5022 58.4061 61.677 58.4061 60.8424 58.0813C59.553 57.5777 58.6809 56.7917 57.8276 55.3703C57.6916 55.1444 57.5603 54.9185 57.429 54.6879C56.6132 53.2994 55.7692 51.8592 54.5127 50.7579C49.6036 46.4655 44.5258 50.4896 40.817 53.4312L29.8924 62.0913C27.745 63.7951 25.2178 65.0706 22.7891 66.0449C22.911 66.4496 23.0329 66.8497 23.1642 67.2498C25.7148 66.2331 28.3873 64.8871 30.6707 63.075L41.5954 54.4149L41.586 54.429Z" fill="white"/>
<path d="M57.417 78.0234C57.5951 77.421 57.6279 76.8703 57.5201 76.395C57.3232 75.5337 56.6105 74.8371 55.7478 74.6582C54.2802 74.3523 51.5655 75.9996 49.6572 77.2704C48.6679 77.9246 47.4816 78.9601 47.4535 80.1555C47.4394 80.8521 47.8145 81.4828 48.5788 82.0429C49.5493 82.7488 50.6043 83.1066 51.6358 83.1066C52.5782 83.1066 53.5066 82.81 54.3412 82.217C55.4665 81.4169 56.9246 79.6802 57.417 78.0281M48.8695 81.6334C48.2459 81.1816 47.9364 80.6874 47.9505 80.1649C47.9739 79.1342 49.1977 78.1693 49.9291 77.6846C50.9184 77.0304 53.802 75.1195 55.3446 75.1195C55.4524 75.1195 55.5509 75.1289 55.6446 75.1477C56.3057 75.2842 56.8777 75.8443 57.0325 76.5079C57.1216 76.8986 57.0934 77.3645 56.9387 77.8822C56.498 79.3695 55.1289 81.0451 54.0552 81.8075C52.461 82.9371 50.5715 82.8759 48.8742 81.6381" fill="white"/>
<path d="M78.8843 54.6649C78.8234 54.6649 78.7671 54.646 78.7062 54.646C77.1964 54.646 75.9727 55.8744 75.9727 57.39C75.9727 58.609 76.7697 59.6256 77.8575 59.988C77.745 62.2425 78.2138 64.0874 79.2875 65.5512C80.3003 66.9302 81.8898 67.9986 84.145 68.8176C87.0145 69.8624 90.5685 70.4319 94.2491 70.4319C100.373 70.4319 106.848 68.8505 111.114 65.2453C114.012 62.7978 115.634 59.3667 115.461 56.0721C115.348 53.9542 114.546 52.0715 113.388 50.4148C113.693 49.9724 113.876 49.4358 113.876 48.8522C113.876 47.3367 112.652 46.1083 111.142 46.1083C110.603 46.1083 110.102 46.273 109.675 46.546C108.461 45.5529 107.204 44.6916 106.055 43.9574C103.242 42.1595 102.089 40.6016 102.417 39.0531C102.895 36.8222 106.172 36.3892 107.556 36.3045C108.742 36.2339 109.966 36.2103 111.152 36.1868C114.11 36.1303 117.158 36.0739 120.046 35.2784C119.915 34.8784 119.779 34.483 119.634 34.0877C116.91 34.8219 113.979 34.8784 111.128 34.9349C109.933 34.9584 108.695 34.9819 107.481 35.0525C103.95 35.2643 101.657 36.6245 101.188 38.7896C100.588 41.59 103.289 43.6844 105.375 45.0164C106.458 45.7082 107.649 46.5225 108.793 47.4544C108.55 47.8638 108.4 48.3439 108.4 48.8569C108.4 50.3725 109.623 51.6009 111.133 51.6009C111.602 51.6009 112.038 51.4691 112.427 51.262C113.421 52.7163 114.106 54.3401 114.204 56.1427C114.359 59.0467 112.901 62.0918 110.303 64.2898C103.814 69.7777 91.8907 70.3001 84.5717 67.6456C82.5556 66.9114 81.1536 65.9889 80.2956 64.817C79.4048 63.6027 79.0156 62.0401 79.1 60.1057C80.4222 59.9127 81.435 58.7784 81.435 57.3994C81.435 56.3875 80.8864 55.5168 80.0753 55.0414C82.4383 46.3766 86.2502 37.7023 91.164 29.8517C95.1306 23.5073 99.8287 17.6805 104.963 12.701C104.644 12.4233 104.325 12.155 104.002 11.8867C98.83 16.9181 94.0991 22.7919 90.1043 29.1834C85.139 37.1281 81.2756 45.9012 78.8796 54.6743" fill="white"/>
<path d="M70.9814 62.4404C70.2687 62.8781 69.8514 63.6029 69.9217 64.2853C69.9733 64.8031 70.2687 65.2078 70.5547 65.6032C70.7798 65.9138 70.9908 66.2056 71.0752 66.5304C71.1314 66.7516 71.1314 66.9869 71.1314 67.2411C71.1314 67.3729 71.1314 67.5094 71.1361 67.6411C71.2064 68.8507 72.1254 70.0556 73.3773 70.578C73.7711 70.7428 74.165 70.8228 74.5495 70.8228C75.1731 70.8228 75.7638 70.6016 76.2468 70.1733C77.855 68.7331 77.0063 65.4337 76.0827 63.9841C75.0652 62.398 72.7256 61.372 70.9908 62.4357M75.9045 69.7968C75.0465 70.5639 74.0712 70.3239 73.5649 70.1121C72.5005 69.6697 71.6894 68.6154 71.6331 67.6082C71.6284 67.4858 71.6284 67.3634 71.6284 67.2411C71.6284 66.9681 71.6284 66.6857 71.5581 66.4033C71.4503 65.9844 71.2017 65.6361 70.9579 65.3067C70.7001 64.949 70.4563 64.6148 70.4187 64.2336C70.3578 63.6358 70.8267 63.1228 71.2439 62.8639C71.6566 62.6098 72.116 62.4968 72.5755 62.4968C73.7712 62.4968 75.009 63.2499 75.6513 64.2524C76.589 65.7114 77.1658 68.6672 75.9045 69.792" fill="white"/>
<path d="M71.4385 83.1028L71.5979 82.8721C74.6033 78.5845 75.6301 76.0758 74.9175 74.7392C74.6924 74.3203 74.1954 73.8308 73.0701 73.8543C71.4056 73.8967 69.9099 75.9064 68.9159 77.2337C68.7987 77.389 68.6909 77.5349 68.5971 77.6573C66.8389 79.9399 65.226 82.5191 63.7959 85.3243C61.3766 90.0638 59.5433 95.2834 58.3242 100.861C58.7274 100.969 59.1307 101.073 59.5386 101.176C60.7342 95.6882 62.5347 90.558 64.9071 85.8985C66.2997 83.164 67.8751 80.6506 69.5864 78.4291C69.6849 78.3021 69.7974 78.1514 69.9146 77.9914C70.6554 76.9983 72.0386 75.1439 73.0936 75.1157C73.3608 75.111 73.7031 75.1439 73.8062 75.3369C73.961 75.6287 74.1907 76.9889 70.5664 82.152L70.4023 82.3874C66.3653 88.2377 64.2882 95.1752 64.4523 102.117C64.8696 102.179 65.2869 102.23 65.7089 102.282C65.5073 95.5376 67.5093 88.7883 71.4291 83.1028" fill="white"/>
<path d="M88.2921 73.6185C87.6872 73.5149 87.0871 73.4161 86.4869 73.3126C86.2947 73.2796 86.0556 73.2326 85.7789 73.1761C83.9879 72.8184 80.9918 72.2159 79.4773 73.3643C78.9475 73.7691 78.6334 74.3574 78.5771 75.0728C78.3052 78.4192 83.2799 79.6806 85.6664 80.2877L86.0556 80.3866C87.3356 80.7207 88.6484 80.9419 89.919 81.1584C92.0711 81.5256 94.1013 81.8738 96.0378 82.6975C97.074 83.1352 97.857 83.7188 98.4009 84.4483C97.7913 84.9519 97.3928 85.705 97.3928 86.5616C97.3928 87.7571 98.1617 88.7643 99.2261 89.1408C99.062 90.1904 98.7384 91.367 98.2555 92.6849C97.871 93.7297 97.4537 94.7887 96.9989 95.8618C97.6085 95.5088 98.2086 95.1417 98.8041 94.7699C99.0245 94.2145 99.2354 93.6685 99.437 93.1226C99.7371 92.3083 100.258 90.8822 100.492 89.2773C101.833 89.0984 102.869 87.9595 102.869 86.571C102.869 85.0555 101.645 83.8271 100.136 83.8271C99.9341 83.8271 99.7324 83.8553 99.5449 83.8977C98.9119 82.9705 97.9507 82.1515 96.5348 81.5491C94.4624 80.669 92.2634 80.2924 90.1347 79.93C88.8875 79.7182 87.6028 79.497 86.3744 79.177L85.9805 79.0781C83.9269 78.5557 79.6461 77.4685 79.829 75.1858C79.8571 74.8234 79.9884 74.5645 80.2369 74.3763C81.3059 73.5667 84.166 74.1409 85.5398 74.4139C85.8305 74.4704 86.0837 74.5222 86.2853 74.5551C86.8855 74.6539 87.4856 74.7575 88.0904 74.861C95.311 76.0847 102.78 77.3555 110.207 76.6637C112.495 76.4519 114.717 75.9718 116.809 75.2517C117.095 74.7057 117.371 74.155 117.639 73.5997C115.294 74.5457 112.739 75.1717 110.09 75.4164C102.827 76.0894 95.4423 74.8375 88.2967 73.6232" fill="white"/>
<path d="M88.0557 86.114C86.2131 84.8667 83.6812 84.4761 80.5304 84.942C78.9362 85.1774 77.7031 85.5351 76.6481 86.0669C73.8396 87.4742 71.7391 90.4487 70.8858 94.2281C70.2622 96.9956 70.3231 99.829 70.4966 102.611C70.6654 102.611 70.8295 102.611 70.9983 102.615C70.8248 99.8572 70.7592 97.0521 71.3734 94.3364C72.1939 90.7029 74.196 87.8507 76.8685 86.514C77.8766 86.0104 79.0628 85.6669 80.6007 85.4362C83.6249 84.9891 86.0396 85.3562 87.7744 86.5282C90.0859 88.0907 91.3284 91.3053 90.9346 94.7176C90.7517 96.3132 90.2641 97.8475 89.6217 99.3536C89.8374 99.2736 90.0531 99.1936 90.2688 99.1089C90.8361 97.7063 91.2628 96.2755 91.4316 94.7788C91.8489 91.183 90.522 87.7848 88.0557 86.114Z" fill="white"/>
<path d="M108.199 82.2074C107.017 83.37 107.228 85.182 107.416 86.7775C107.449 87.0599 107.481 87.3376 107.51 87.6106C107.514 87.6812 107.519 87.7518 107.524 87.8224C107.678 87.6671 107.833 87.5118 107.983 87.3564C107.96 87.1446 107.936 86.9329 107.913 86.7163C107.73 85.1632 107.542 83.5582 108.546 82.5651C109.057 82.0615 109.802 81.8403 110.398 81.7038C111.261 81.5062 112.17 81.3932 113.075 81.2991C113.202 81.1202 113.333 80.9367 113.46 80.7578C112.4 80.8614 111.317 80.979 110.285 81.2191C109.629 81.3697 108.794 81.6238 108.194 82.2121" fill="white"/>
<path d="M87.6157 47.096C86.8655 50.2635 86.6685 52.8145 86.9967 55.1254C87.4187 58.0859 88.7503 60.5945 90.7477 62.1853C92.4778 63.5643 94.8128 64.3127 97.354 64.3127C97.5088 64.3127 97.6635 64.3127 97.8182 64.3033C99.614 64.2421 101.077 63.8044 102.165 63.0042C105.043 60.891 105.062 56.4715 103.618 53.384C102.666 51.3554 101.222 49.6046 99.825 47.9102C99.0795 47.0066 98.3058 46.07 97.6213 45.1051C96.5007 43.5284 94.0626 39.4619 95.6098 35.8002C96.6648 33.2916 99.3889 31.4984 103.707 30.4676C105.334 30.0817 107.013 29.7805 108.635 29.4887C111.34 29.0039 114.135 28.505 116.775 27.5825C116.695 27.4319 116.62 27.2813 116.535 27.1307C113.952 28.0249 111.2 28.5191 108.541 28.9945C106.91 29.2863 105.222 29.5875 103.585 29.9781C99.1076 31.0465 96.2663 32.9433 95.1457 35.6025C93.9876 38.3465 94.7424 41.9188 97.2134 45.3969C97.9073 46.3759 98.6856 47.3172 99.4405 48.2303C100.819 49.8964 102.244 51.6237 103.163 53.5958C104.523 56.4997 104.532 60.6462 101.865 62.5948C100.861 63.3337 99.4921 63.7385 97.7995 63.795C95.1972 63.8844 92.8013 63.1737 91.0571 61.7852C89.1911 60.298 87.8876 57.8411 87.4891 55.0454C87.1702 52.8004 87.3625 50.3106 88.0986 47.2042C89.749 40.2526 93.289 33.1975 98.6247 26.227C101.499 22.4711 104.734 18.9412 108.049 15.5901C107.932 15.4725 107.819 15.3501 107.697 15.2324C104.364 18.6023 101.119 22.1464 98.2261 25.9258C92.8482 32.948 89.2754 40.0691 87.611 47.0913" fill="white"/>
<path d="M83.7551 11.7509C81.7296 13.9206 79.8589 16.2692 78.049 18.5378C75.9344 21.1876 73.7495 23.9315 71.3114 26.3977L71.1379 26.5719C66.6368 31.1185 61.5308 36.2722 62.2857 43.2285C62.4076 44.3675 62.7967 45.9865 63.9314 47.262C64.8691 48.3116 65.8491 48.8434 66.8478 48.8434C66.9884 48.8434 67.1291 48.834 67.2697 48.8105C69.5203 48.4763 71.1614 45.6288 71.9397 43.958C72.6102 42.5272 73.1072 41.0211 73.5854 39.5668C73.9324 38.5125 74.2934 37.4206 74.7154 36.371C77.7958 28.704 81.4202 20.5898 87.056 13.2334C90.2161 9.11047 92.8465 7.01604 94.9048 5.86763C94.7267 5.7735 94.5438 5.68878 94.3656 5.59465C92.3026 6.80424 89.7191 8.93162 86.6574 12.9228C80.9841 20.331 77.341 28.4781 74.2465 36.178C73.8198 37.2464 73.4541 38.3431 73.1025 39.4067C72.6242 40.847 72.1319 42.3389 71.4802 43.7415C70.8894 45.0123 69.2859 47.9963 67.19 48.3069C66.2195 48.4481 65.2489 47.9821 64.2971 46.9184C63.2469 45.7418 62.8905 44.2263 62.778 43.1626C62.0513 36.4416 67.0634 31.3773 71.4849 26.9108L71.6583 26.7366C74.1199 24.2515 76.3142 21.4982 78.4335 18.839C80.2386 16.5751 82.1 14.2359 84.1162 12.0803C86.6949 9.32227 89.6394 6.87955 92.823 4.8463C92.6449 4.76159 92.462 4.68157 92.2792 4.60156C89.1706 6.62069 86.2823 9.02575 83.7505 11.732" fill="white"/>
<path d="M43.4618 66.629C45.0794 65.8995 46.7485 65.1464 48.3802 64.3699C48.5912 64.271 48.8116 64.1722 49.0366 64.0686C50.8839 63.2356 53.4158 62.0966 52.253 59.3291C51.1746 56.7546 47.2596 57.277 45.3419 57.9124C43.3821 58.5619 41.666 59.7245 40.0062 60.854L24.6367 71.2885C24.7024 71.4439 24.7727 71.5992 24.8383 71.7592L40.2875 61.2729C41.9192 60.1669 43.6071 59.0185 45.5013 58.3925C47.555 57.7147 50.9215 57.4512 51.7936 59.5268C52.7641 61.8424 50.673 62.7837 48.8303 63.6168C48.6006 63.7203 48.3755 63.8239 48.1645 63.9227C46.5422 64.6946 44.8731 65.4477 43.2602 66.1772C39.6217 67.8151 35.8661 69.5094 32.3637 71.5709C30.3288 72.7711 28.4767 74.1313 26.7466 75.7033C26.831 75.8539 26.9107 76.0045 26.9951 76.1551C28.7252 74.5737 30.582 73.2041 32.6168 72.0039C36.0912 69.9566 39.8421 68.2669 43.4665 66.6337" fill="white"/>
<path d="M28.3926 58.2425C31.0041 57.1694 34.2534 55.8327 33.958 52.4863C33.8924 51.7427 33.5876 51.0649 33.2969 50.4107C33.0672 49.9024 32.8515 49.4176 32.739 48.9046C32.4295 47.5162 32.8656 45.9112 34.0799 43.9956L34.2487 43.7321C34.6754 43.0684 35.1161 42.3813 35.2896 41.5812C35.4865 40.6681 35.2146 39.4914 34.3097 39.0161C32.2795 37.9477 30.1227 40.7857 28.5426 42.8566C27.98 43.5956 27.4923 44.231 27.1172 44.5698C25.2371 46.2548 23.0709 47.5726 20.7547 48.4528C20.7453 48.6363 20.7359 48.8152 20.7266 48.9987C23.1787 48.0951 25.4715 46.7207 27.4548 44.9417C27.8674 44.5698 28.3691 43.9156 28.9458 43.1579C30.4134 41.2282 32.4295 38.5878 34.0846 39.4585C34.7645 39.8162 34.9614 40.7434 34.8067 41.4729C34.6566 42.1836 34.2393 42.8284 33.8361 43.4544L33.6673 43.7179C32.3779 45.7512 31.9184 47.4785 32.2607 49.0034C32.3873 49.5682 32.6217 50.0954 32.8515 50.6037C33.1422 51.2485 33.4141 51.8603 33.4704 52.5193C33.7376 55.4985 30.6759 56.7552 28.2144 57.7671C27.7549 57.9554 27.3235 58.1342 26.9297 58.3131C25.1152 59.1461 23.3241 60.0639 21.5799 61.0429C21.6127 61.217 21.6455 61.3912 21.6784 61.5653C23.4601 60.5581 25.284 59.6215 27.136 58.7696C27.5205 58.5907 27.9471 58.4166 28.4019 58.2283" fill="white"/>
<path d="M44.2206 85.0695C40.751 85.1354 38.5379 86.7027 36.8594 88.8536C36.9813 88.9666 37.0985 89.0795 37.2204 89.1925C38.8333 87.1075 40.9151 85.639 44.23 85.5731C45.3271 85.5496 47.3714 85.7284 48.7639 87.164C50.2971 88.7454 50.3487 91.1598 49.8845 92.8919C49.5235 94.2427 48.8718 95.5699 48.145 96.8736C48.2951 96.9489 48.4404 97.029 48.5904 97.1043C49.3266 95.7817 49.9924 94.4215 50.3675 93.0236C50.8691 91.1551 50.8035 88.543 49.125 86.811C47.6011 85.2437 45.3975 85.0507 44.2206 85.0695Z" fill="white"/>
<path d="M55.1732 5.26011C57.0252 6.59678 58.9382 7.97581 61.2216 8.05582C61.2919 8.05582 61.3576 8.05582 61.4279 8.05582C64.213 8.05582 66.5667 6.1073 68.7423 4.107L72.9152 0.271132C72.6714 0.266425 72.4276 0.261719 72.1837 0.261719L68.4047 3.73988C66.2526 5.72136 63.927 7.64164 61.2404 7.55222C59.107 7.47691 57.2597 6.14495 55.4686 4.85064C55.2107 4.66708 54.9575 4.48352 54.7043 4.30467C54.3199 4.03169 53.9401 3.78695 53.5697 3.57045C53.3681 3.64575 53.1665 3.72106 52.9648 3.80107C53.4337 4.05993 53.9166 4.36586 54.4136 4.71885C54.6668 4.8977 54.92 5.08126 55.1732 5.26011Z" fill="white"/>
<path d="M113.794 44.0138L113.588 43.8679C113.044 43.4914 112.486 43.1008 112.106 42.5783C111.731 42.0606 111.51 41.2793 111.872 40.691C112.326 39.9473 113.405 39.8814 114.399 39.9144L121.404 40.1638C121.366 39.9944 121.329 39.825 121.286 39.6555L114.417 39.4108C113.344 39.3684 112.04 39.4531 111.445 40.4274C110.967 41.2134 111.229 42.2253 111.703 42.8748C112.129 43.4632 112.73 43.882 113.306 44.2821L113.513 44.428C117.751 47.412 120.827 51.9303 122.36 56.9193C122.402 56.5098 122.44 56.0956 122.477 55.6814C120.818 51.0266 117.821 46.8472 113.803 44.0185" fill="white"/>
<path d="M35.3453 77.868C36.8551 77.868 38.0788 76.6395 38.0788 75.124C38.0788 74.7051 37.9804 74.3145 37.8116 73.9615C42.0876 71.3211 46.8232 69.8574 51.7885 68.323C53.2701 67.8665 54.808 67.3911 56.3131 66.8875C60.0734 65.6308 65.5404 63.4988 69.5727 59.5452C73.8581 55.347 75.9868 50.1885 77.5059 45.7032C77.7591 44.9548 78.0123 44.2065 78.2608 43.4534C79.508 39.7399 80.7974 35.8994 82.3024 32.2235C83.7653 28.6559 85.8049 25.3425 87.7835 22.3209C88.107 22.4574 88.4634 22.5327 88.8385 22.5327C90.3482 22.5327 91.572 21.3042 91.572 19.7887C91.572 19.0263 91.2625 18.3391 90.7608 17.8402C92.7254 14.9268 94.8025 12.0229 97.2922 9.5472C97.7938 9.0483 98.3049 8.57765 98.8253 8.13523C98.4549 7.8999 98.0798 7.66928 97.7048 7.44336C97.2687 7.8293 96.8373 8.22936 96.4107 8.65295C93.8225 11.2227 91.6939 14.2067 89.6871 17.1907C89.4199 17.1013 89.1385 17.0401 88.8385 17.0401C87.3287 17.0401 86.105 18.2685 86.105 19.784C86.105 20.4665 86.3628 21.0877 86.7754 21.5678C84.7546 24.6553 82.6588 28.0488 81.1443 31.7434C79.6205 35.4569 78.3264 39.321 77.0699 43.0534C76.8167 43.8017 76.5682 44.5501 76.315 45.2984C74.8428 49.6473 72.7844 54.6316 68.6912 58.6463C65.7233 61.5597 61.7801 63.7341 55.9099 65.6967C54.4189 66.1956 52.8904 66.6663 51.4134 67.1228C46.5325 68.6289 41.5156 70.1821 37.0192 72.9778C36.555 72.6107 35.9736 72.3801 35.3359 72.3801C33.8262 72.3801 32.6024 73.6085 32.6024 75.124C32.6024 75.477 32.6728 75.8112 32.7947 76.1171C31.5287 77.2043 30.2909 78.3716 29.0859 79.6376C29.3204 79.9953 29.5595 80.3483 29.8033 80.7013C31.0083 79.4258 32.2461 78.2445 33.5121 77.1526C33.995 77.5903 34.6326 77.8633 35.3359 77.8633" fill="white"/>
<path d="M60.3099 86.5674C60.3099 85.7344 59.9301 85.0001 59.3487 84.4965C59.7848 83.6635 60.2537 82.8445 60.7694 82.035C61.5852 80.7595 62.7011 79.597 63.8874 78.3686C65.941 76.2365 68.065 74.0338 68.6183 71.0639C68.8433 69.8591 68.5479 68.7389 67.7837 67.9105C66.9069 66.9551 65.5003 66.475 64.0233 66.6303C61.5805 66.8845 59.3628 67.9576 57.2154 68.9977C56.634 69.2801 56.0385 69.5672 55.4571 69.8308C46.3892 73.9208 38.9905 79.0557 33.3125 85.179C33.5891 85.4943 33.8705 85.8097 34.1518 86.1203C39.7266 80.0818 47.0175 75.0128 55.9682 70.9792C56.5683 70.7109 57.1732 70.4144 57.7593 70.132C59.8082 69.1389 61.9275 68.1129 64.1499 67.8823C65.2377 67.7693 66.2505 68.0988 66.86 68.7624C67.3523 69.299 67.5352 70.0144 67.3804 70.8333C66.8975 73.4314 64.9048 75.4975 62.9825 77.4931C61.8103 78.7121 60.5959 79.9688 59.7145 81.3525C59.1799 82.1903 58.6923 83.0469 58.2375 83.9082C58.0218 83.8564 57.8062 83.8188 57.5764 83.8188C56.0667 83.8188 54.8429 85.0472 54.8429 86.5627C54.8429 87.5182 55.3305 88.3559 56.0667 88.8501C54.782 92.3753 53.9943 95.9382 53.4691 99.2705C53.8677 99.4211 54.2662 99.5717 54.6694 99.7129C55.1805 96.3759 55.9635 92.8036 57.2435 89.2737C57.3514 89.2878 57.4639 89.3067 57.5764 89.3067C59.0862 89.3067 60.3099 88.0782 60.3099 86.5627" fill="white"/>
</svg>
