<?xml version="1.0" encoding="UTF-8"?>
<svg width="130" height="28" viewBox="0 0 130 28" fill="none" xmlns="http://www.w3.org/2000/svg">
  <!-- Group 34 (Text) -->
  <g transform="translate(58.486, 15.983)">
    <!-- Vector paths for "INHABIT" text -->
    <path d="M0 0H3.037V17.815H0V0Z" fill="#F6FFE9"/>
    <path d="M6.787 0H21.857V3.037H6.787V0Z" fill="#F6FFE9"/>
    <path d="M25.57 0H39.899V3.037H25.57V0Z" fill="#F6FFE9"/>
    <path d="M41.806 0H59.84V3.037H41.806V0Z" fill="#F6FFE9"/>
    <path d="M61.914 0H75.597V3.037H61.914V0Z" fill="#F6FFE9"/>
    <path d="M79.012 0H79.852V17.815H79.012V0Z" fill="#F6FFE9"/>
    <path d="M82.35 0H95.514V3.037H82.35V0Z" fill="#F6FFE9"/>
  </g>

  <!-- Group 33 (Icon) -->
  <g transform="translate(24, 12.836)">
    <!-- Leaf and plant vectors -->
    <path d="M1.117 4.146C1.117 4.146 2.06 1.115 3.378 0.5C4.696 -0.115 5.378 0.5 5.378 0.5L4.696 2.192L1.117 4.146Z" fill="#F6FFE9"/>
    <path d="M5.06 1.617C5.06 1.617 5.378 0.5 6.378 0.5C7.378 0.5 7.378 1.115 7.378 1.115L5.06 1.617Z" fill="#F6FFE9"/>
    <path d="M0.312 0C0.312 0 0.312 0.5 0.312 1.115C0.312 1.73 0.63 2.346 0.63 2.346L15.997 12.753L0.312 0Z" fill="#F6FFE9"/>
    <path d="M0.557 0.652C0.557 0.652 0.875 1.268 0.875 1.883C0.875 2.498 0.875 3.114 0.875 3.114L18.779 17.711L0.557 0.652Z" fill="#F6FFE9"/>
    <path d="M7.207 20.563C7.207 20.563 7.525 19.445 8.207 19.445C8.889 19.445 9.207 20.06 9.207 20.06L7.207 20.563Z" fill="#F6FFE9"/>
    <path d="M14.895 3.201C14.895 3.201 15.213 2.083 15.895 2.083C16.577 2.083 16.895 2.698 16.895 2.698L14.895 3.201Z" fill="#F6FFE9"/>
    <path d="M13.266 17.09C13.266 17.09 13.584 15.972 13.584 15.357C13.584 14.742 13.266 14.127 13.266 14.127L13.266 17.09Z" fill="#F6FFE9"/>
    <path d="M10.139 20.346C10.139 20.346 10.457 19.228 10.457 18.613C10.457 17.998 10.139 17.383 10.139 17.383L10.139 20.346Z" fill="#F6FFE9"/>
    <path d="M15.596 19.86C15.596 19.86 15.914 18.742 15.914 18.127C15.914 17.512 15.596 16.897 15.596 16.897L15.596 19.86Z" fill="#F6FFE9"/>
    <path d="M13.385 23.225C13.385 23.225 13.703 22.107 13.703 21.492C13.703 20.877 13.385 20.262 13.385 20.262L13.385 23.225Z" fill="#F6FFE9"/>
    <path d="M23.334 22.14C23.334 22.14 23.652 21.022 23.652 20.407C23.652 19.792 23.334 19.177 23.334 19.177L23.334 22.14Z" fill="#F6FFE9"/>
    <path d="M17.832 3.201C17.832 3.201 18.15 2.083 18.15 1.468C18.15 0.853 17.832 0.238 17.832 0.238L17.832 3.201Z" fill="#F6FFE9"/>
    <path d="M11.184 0.5C11.184 0.5 11.502 -0.618 11.502 -1.233C11.502 -1.848 11.184 -2.463 11.184 -2.463L11.184 0.5Z" fill="#F6FFE9"/>
    <path d="M1.054 15.787C1.054 15.787 1.372 14.669 1.372 14.054C1.372 13.439 1.054 12.824 1.054 12.824L1.054 15.787Z" fill="#F6FFE9"/>
    <path d="M0 10.635C0 10.635 0.318 9.517 0.318 8.902C0.318 8.287 0 7.672 0 7.672L0 10.635Z" fill="#F6FFE9"/>
    <path d="M4.346 23.438C4.346 23.438 4.664 22.32 4.664 21.705C4.664 21.09 4.346 20.475 4.346 20.475L4.346 23.438Z" fill="#F6FFE9"/>
    <path d="M8.693 -0.5C8.693 -0.5 9.011 -1.618 9.011 -2.233C9.011 -2.848 8.693 -3.463 8.693 -3.463L8.693 -0.5Z" fill="#F6FFE9"/>
    <path d="M24.389 10.852C24.389 10.852 24.707 9.734 24.707 9.119C24.707 8.504 24.389 7.889 24.389 7.889L24.389 10.852Z" fill="#F6FFE9"/>
    <path d="M2.257 18.338C2.257 18.338 2.575 17.22 2.575 16.605C2.575 15.99 2.257 15.375 2.257 15.375L2.257 18.338Z" fill="#F6FFE9"/>
  </g>
</svg> 