<svg width="148" height="146" viewBox="0 0 148 146" fill="none" xmlns="http://www.w3.org/2000/svg">
<g clip-path="url(#clip0_3247_1412)">
<path d="M123.3 115.039C123.22 114.919 123.14 114.799 123.04 114.699C121.78 113.439 119.72 113.439 118.46 114.699C117.72 115.439 117.42 116.459 117.57 117.409C117.62 117.809 117.75 118.189 117.95 118.539C116.63 120.459 115.77 122.899 114.93 125.289C113.67 128.889 112.48 132.289 109.96 133.749C107.5 135.179 103.99 134.519 100.28 133.829C97.1 133.239 93.8 132.619 90.99 133.369C88.3 134.089 85.83 136.219 83.44 138.279C80.64 140.689 77.75 143.179 74.74 143.179C71.73 143.179 68.84 140.689 66.04 138.279C63.65 136.219 61.18 134.089 58.49 133.369C55.67 132.619 52.38 133.229 49.2 133.829C45.49 134.519 41.98 135.179 39.52 133.749C37 132.289 35.81 128.889 34.55 125.289C33.49 122.259 32.39 119.129 30.37 117.109C28.35 115.089 25.22 113.989 22.19 112.929C18.59 111.669 15.19 110.479 13.73 107.959C12.27 105.429 12.91 101.839 13.6 98.0388C14.16 94.9588 14.73 91.7788 14.12 89.0288C13.12 84.5188 8.44999 79.3088 5.93999 76.4988C5.89999 76.4488 5.85999 76.4088 5.81999 76.3688C5.83999 76.3488 5.86999 76.3288 5.88999 76.3088C6.59999 75.5988 6.91999 74.6288 6.79999 73.7188C6.75999 73.1088 6.54999 72.5388 6.15999 72.0788C6.07999 71.9588 5.99999 71.8388 5.89999 71.7388C5.51999 71.3588 5.05999 71.1088 4.57999 70.9588C5.28999 68.5788 7.26999 66.2788 9.19999 64.0288C11.26 61.6388 13.39 59.1688 14.1 56.4788C14.85 53.6588 14.24 50.3688 13.64 47.1888C12.95 43.4788 12.29 39.9688 13.72 37.4988C15.18 34.9788 18.58 33.7888 22.18 32.5288C25.21 31.4688 28.34 30.3688 30.36 28.3488C32.38 26.3288 33.48 23.1988 34.54 20.1688C35.8 16.5688 36.99 13.1688 39.51 11.7088C41.42 10.6088 43.95 10.7888 46.17 11.1088C46.69 11.1888 47.18 10.8188 47.26 10.2988C47.34 9.76877 46.97 9.28877 46.45 9.20877C43.9 8.83877 40.97 8.64877 38.55 10.0488C35.41 11.8588 34.05 15.7588 32.73 19.5288C31.74 22.3488 30.72 25.2788 29.01 26.9888C27.3 28.6988 24.38 29.7188 21.55 30.7088C17.78 32.0288 13.88 33.3988 12.06 36.5288C10.28 39.6088 11.03 43.6388 11.76 47.5288C12.32 50.4988 12.89 53.5788 12.25 55.9788C11.65 58.2388 9.74999 60.4388 7.73999 62.7688C5.52999 65.3388 3.25999 67.9788 2.57999 70.9588C2.11999 71.1088 1.67999 71.3588 1.30999 71.7288C0.569993 72.4688 0.269993 73.4888 0.419993 74.4388C0.489993 75.0388 0.729993 75.5988 1.14999 76.0688C1.18999 76.1588 1.25999 76.2288 1.32999 76.2988C2.04999 77.0188 3.03999 77.3088 3.98999 77.1988C4.14999 77.3788 4.31999 77.5688 4.49999 77.7688C6.88999 80.4388 11.34 85.4088 12.24 89.4288C12.77 91.7988 12.23 94.7888 11.71 97.6888C10.99 101.669 10.25 105.779 12.07 108.919C13.88 112.059 17.78 113.419 21.56 114.739C24.38 115.729 27.3 116.749 29.01 118.459C30.72 120.169 31.74 123.089 32.73 125.919C34.05 129.689 35.42 133.589 38.55 135.399C41.63 137.179 45.66 136.429 49.55 135.699C52.52 135.139 55.6 134.569 58 135.209C60.26 135.809 62.46 137.709 64.79 139.719C67.85 142.359 71.02 145.089 74.74 145.089C78.46 145.089 81.63 142.359 84.69 139.719C87.02 137.709 89.22 135.819 91.48 135.209C93.88 134.569 96.95 135.139 99.92 135.699C103.81 136.429 107.84 137.179 110.92 135.399C114.05 133.589 115.42 129.689 116.74 125.919C117.5 123.759 118.27 121.549 119.36 119.859C120.56 120.429 122.04 120.229 123.02 119.249C123.73 118.539 124.05 117.569 123.93 116.659C123.89 116.049 123.68 115.479 123.29 115.019L123.3 115.039Z" fill="white" stroke="white" stroke-width="0.75" stroke-miterlimit="10"/>
<path d="M109.75 44.6225C110.08 45.0325 110.69 45.1025 111.1 44.7725C111.51 44.4425 111.58 43.8325 111.25 43.4225C110.19 42.1125 109.05 40.8325 107.84 39.6325C89.58 21.3725 59.87 21.3725 41.61 39.6325C23.35 57.8925 23.35 87.6025 41.61 105.863C50.74 114.993 62.73 119.553 74.72 119.553C86.71 119.553 98.7 114.993 107.83 105.863C117.84 95.8525 122.68 82.2525 121.32 68.2525C121.68 68.0925 122.02 67.8825 122.31 67.5825C123.02 66.8725 123.34 65.9025 123.22 64.9925C123.18 64.3825 122.97 63.8125 122.58 63.3525C122.5 63.2325 122.42 63.1125 122.32 63.0125C121.06 61.7525 119 61.7525 117.74 63.0125C117 63.7525 116.7 64.7725 116.85 65.7225C116.93 66.3225 117.16 66.8825 117.58 67.3525C117.62 67.4425 117.69 67.5125 117.76 67.5825C118.23 68.0525 118.81 68.3425 119.41 68.4625C120.71 81.8725 116.06 94.9125 106.47 104.503C88.96 122.013 60.47 122.013 42.96 104.503C25.45 86.9925 25.45 58.5025 42.96 40.9925C60.47 23.4825 88.96 23.4825 106.47 40.9925C107.62 42.1425 108.72 43.3725 109.74 44.6325L109.75 44.6225Z" fill="white" stroke="white" stroke-width="0.75" stroke-miterlimit="10"/>
<path d="M141.73 82.6906C144.37 79.6306 147.1 76.4606 147.1 72.7406C147.1 69.0206 144.37 65.8506 141.73 62.7906C139.72 60.4606 137.83 58.2606 137.22 56.0006C136.58 53.6006 137.15 50.5306 137.71 47.5606C138.44 43.6706 139.19 39.6406 137.41 36.5606C135.6 33.4306 131.7 32.0606 127.93 30.7406C125.11 29.7506 122.18 28.7306 120.47 27.0206C118.76 25.3106 117.74 22.3906 116.75 19.5706C115.43 15.8006 114.06 11.9006 110.93 10.0806C107.85 8.30062 103.82 9.05062 99.9299 9.78062C96.9599 10.3306 93.8799 10.9106 91.4799 10.2706C89.2199 9.67062 87.0199 7.77063 84.6899 5.76063C81.6299 3.12063 78.4599 0.390625 74.7399 0.390625C71.0199 0.390625 67.8499 3.12063 64.7899 5.76063C63.1699 7.15063 61.6199 8.48062 60.0599 9.37062C59.9899 9.26062 59.9199 9.16063 59.8399 9.06063C59.7599 8.94063 59.6799 8.82063 59.5799 8.72062C58.3199 7.46062 56.2599 7.46062 54.9999 8.72062C54.2599 9.46062 53.9599 10.4806 54.1099 11.4306C54.1799 12.0306 54.4199 12.5906 54.8399 13.0606C54.8799 13.1506 54.9499 13.2206 55.0199 13.2906C56.2699 14.5406 58.3199 14.5406 59.5699 13.2906C60.1199 12.7406 60.4199 12.0406 60.4899 11.3406C62.4299 10.3406 64.2599 8.76062 66.0499 7.22062C68.8499 4.81063 71.7399 2.32062 74.7499 2.32062C77.7599 2.32062 80.6499 4.81063 83.4499 7.22062C85.8399 9.28062 88.3099 11.4106 90.9999 12.1306C93.8099 12.8806 97.1099 12.2706 100.29 11.6706C104 10.9806 107.51 10.3206 109.97 11.7506C112.49 13.2106 113.68 16.6106 114.94 20.2106C116 23.2406 117.1 26.3706 119.12 28.3906C121.14 30.4106 124.27 31.5106 127.3 32.5706C130.9 33.8306 134.3 35.0206 135.76 37.5406C137.19 40.0006 136.53 43.5106 135.84 47.2206C135.25 50.4006 134.63 53.7006 135.38 56.5106C136.1 59.2006 138.23 61.6706 140.29 64.0606C142.7 66.8606 145.19 69.7506 145.19 72.7606C145.19 75.7706 142.7 78.6606 140.29 81.4606C138.23 83.8506 136.1 86.3206 135.38 89.0106C134.63 91.8306 135.24 95.1206 135.84 98.3006C136.53 102.011 137.19 105.521 135.76 107.991C134.45 110.251 131.53 111.451 128.65 112.481C128.15 112.661 127.89 113.211 128.07 113.711C128.21 114.101 128.58 114.351 128.97 114.351C129.08 114.351 129.19 114.331 129.29 114.291C132.5 113.131 135.78 111.771 137.41 108.951C139.19 105.871 138.44 101.841 137.71 97.9506C137.15 94.9806 136.58 91.9006 137.22 89.5006C137.82 87.2406 139.72 85.0406 141.73 82.7106V82.6906Z" fill="white" stroke="white" stroke-width="0.75" stroke-miterlimit="10"/>
<path d="M56.7 65.2019C56.25 64.9219 55.66 65.0519 55.37 65.5019C52.69 69.7219 51.2 74.9219 50.94 80.9519C50.92 81.4819 51.33 81.9319 51.86 81.9519C51.87 81.9519 51.89 81.9519 51.9 81.9519C52.41 81.9519 52.84 81.5519 52.86 81.0319C53.1 75.3419 54.49 70.4619 56.99 66.5219C57.28 66.0719 57.14 65.4819 56.69 65.1919L56.7 65.2019Z" fill="white" stroke="white" stroke-width="0.75" stroke-miterlimit="10"/>
<path d="M56.6799 101.011C56.6799 101.011 57.5099 101.071 58.8399 101.071C65.0799 101.071 83.1999 99.761 92.4799 85.291C103.68 67.801 96.3699 47.801 96.2999 47.601C96.1899 47.301 95.9399 47.081 95.6299 47.011C95.3199 46.931 94.9999 47.011 94.7599 47.221C94.6799 47.291 86.8099 54.071 74.6699 54.721C72.9399 54.811 71.2699 55.061 69.6699 55.441C69.6099 55.351 69.5399 55.251 69.4599 55.181C68.1999 53.921 66.1399 53.921 64.8799 55.181C64.1399 55.921 63.8399 56.941 63.9899 57.891C64.0699 58.491 64.2999 59.051 64.7199 59.521C64.7599 59.611 64.8299 59.681 64.8999 59.751C66.1499 61.001 68.1999 61.001 69.4499 59.751C70.1399 59.061 70.4399 58.151 70.3599 57.261C71.7799 56.941 73.2499 56.731 74.7699 56.651C85.0199 56.101 92.2399 51.531 94.8999 49.561C96.2399 54.121 99.9399 70.081 90.8499 84.261C81.5999 98.711 62.8199 99.281 57.9899 99.151C61.1599 88.651 73.9399 77.321 78.2699 73.721C79.5299 74.621 81.2899 74.511 82.4199 73.391C83.1299 72.681 83.4499 71.711 83.3299 70.801C83.2899 70.191 83.0799 69.621 82.6899 69.161C82.6099 69.041 82.5299 68.921 82.4299 68.821C81.1699 67.561 79.1099 67.561 77.8499 68.821C77.1099 69.561 76.8099 70.581 76.9599 71.531C76.9899 71.751 77.0399 71.961 77.1099 72.161C72.5499 75.921 58.5399 88.251 55.8099 99.831C55.7499 100.101 55.8099 100.391 55.9699 100.611C56.1299 100.841 56.3899 100.981 56.6699 101.001L56.6799 101.011Z" fill="white" stroke="white" stroke-width="0.75" stroke-miterlimit="10"/>
</g>
<defs>
<clipPath id="clip0_3247_1412">
<rect width="147.47" height="145.48" fill="white"/>
</clipPath>
</defs>
</svg>
