<svg width="131" height="132" viewBox="0 0 131 132" fill="none" xmlns="http://www.w3.org/2000/svg">
<g clip-path="url(#clip0_3247_1433)">
<path d="M77.9299 60.6383C78.0099 61.2683 78.2599 61.8583 78.6899 62.3483C78.7299 62.4383 78.8099 62.5183 78.8699 62.5883C80.1799 63.8983 82.3399 63.8983 83.6499 62.5883C84.3999 61.8383 84.7299 60.8283 84.6099 59.8683C84.5699 59.2283 84.3499 58.6283 83.9399 58.1483C83.8599 58.0183 83.7699 57.8983 83.6599 57.7983C83.0299 57.1683 82.2099 56.8483 81.3799 56.8183C77.5599 48.2183 70.3999 41.6683 67.2599 39.0883C66.2799 38.2883 64.8699 38.2883 63.8899 39.0883C59.9899 42.2983 47.2699 53.8483 47.2699 67.7383C47.2699 68.3283 47.2899 68.9183 47.3399 69.4983C48.1599 80.2783 56.6399 85.4283 64.5399 85.8383V92.0183C64.0399 92.1783 63.5699 92.4383 63.1699 92.8383C62.3899 93.6183 62.0799 94.6883 62.2399 95.6883C62.3199 96.3183 62.5699 96.9083 62.9999 97.3983C63.0399 97.4883 63.1199 97.5683 63.1799 97.6383C64.4899 98.9483 66.6499 98.9483 67.9599 97.6383C68.7099 96.8883 69.0399 95.8783 68.9199 94.9183C68.8799 94.2783 68.6599 93.6783 68.2499 93.1983C68.1699 93.0683 68.0799 92.9483 67.9699 92.8483C67.5699 92.4483 67.0999 92.1883 66.5999 92.0283V85.8483C74.4999 85.4383 82.9799 80.2883 83.7999 69.5083C83.8399 68.9383 83.4199 68.4383 82.8499 68.3983C82.2699 68.3483 81.7799 68.7783 81.7399 69.3483C81.0099 78.8883 73.7799 83.3883 66.5999 83.7783V62.1083C66.5999 61.5383 66.1399 61.0783 65.5699 61.0783C64.9999 61.0783 64.5399 61.5383 64.5399 62.1083V83.7783C57.3599 83.3883 50.1299 78.8883 49.3999 69.3483C49.3599 68.8183 49.3399 68.2783 49.3399 67.7383C49.3399 54.7483 61.4799 43.7483 65.1999 40.6783C65.4199 40.4983 65.7299 40.4983 65.9399 40.6783C68.2799 42.6083 75.5299 49.0383 79.3599 57.3783C79.1799 57.4983 79.0099 57.6383 78.8499 57.7983C78.0699 58.5783 77.7599 59.6483 77.9199 60.6483L77.9299 60.6383Z" fill="white" stroke="white" stroke-width="0.75" stroke-miterlimit="10"/>
<path d="M130.59 66.1584C130.59 30.3084 101.43 1.14844 65.5799 1.14844C64.7399 1.14844 63.9099 1.16844 63.0799 1.19844C62.6399 1.21844 62.2899 1.58844 62.3099 2.02844C62.3299 2.46844 62.7099 2.85844 63.1399 2.79844C63.9499 2.76844 64.7599 2.74844 65.5799 2.74844C100.54 2.74844 128.98 31.1884 128.98 66.1484C128.98 85.1684 120.7 102.698 106.43 114.658C106.37 114.588 106.33 114.508 106.26 114.438C104.14 112.318 100.69 112.318 98.5699 114.438C97.3299 115.678 96.8299 117.398 97.0799 118.998C97.2099 120.008 97.6099 120.958 98.2999 121.728C98.3599 121.878 98.4899 121.998 98.5899 122.108C100.69 124.208 104.14 124.208 106.24 122.108C107.44 120.908 107.96 119.288 107.77 117.758C107.73 117.138 107.57 116.548 107.32 116.008C122.04 103.748 130.59 85.7184 130.59 66.1484V66.1584Z" fill="white" stroke="white" stroke-width="0.75" stroke-miterlimit="10"/>
<path d="M67.5399 129.529C66.8899 129.549 66.24 129.559 65.5799 129.559C30.6199 129.559 2.17995 101.119 2.17995 66.1587C2.17995 46.0687 11.4299 27.6188 27.2299 15.6588C27.2999 15.7788 27.3999 15.8888 27.4899 15.9788C29.5199 18.0087 32.8499 18.0087 34.8699 15.9788C36.0299 14.8188 36.5299 13.2587 36.3499 11.7787C36.2899 10.7887 35.9399 9.86875 35.3199 9.11875C35.1999 8.91875 35.0599 8.72875 34.8899 8.56875C32.8399 6.51875 29.5099 6.51875 27.4699 8.56875C26.2699 9.76875 25.7899 11.4287 26.0299 12.9687C26.0899 13.4187 26.2099 13.8587 26.3799 14.2787C10.1099 26.5387 0.569946 45.5088 0.569946 66.1587C0.569946 102.009 29.7299 131.179 65.5799 131.179C66.2499 131.179 66.92 131.169 67.59 131.149C68.03 131.139 68.38 130.759 68.3699 130.319C68.3599 129.879 67.9899 129.509 67.5399 129.539V129.529Z" fill="white" stroke="white" stroke-width="0.75" stroke-miterlimit="10"/>
<path d="M65.58 24.8281C58.2 24.8281 51.13 26.7381 44.86 30.3881C43.53 29.3381 41.59 29.4081 40.36 30.6381C39.58 31.4181 39.27 32.4881 39.43 33.4881C39.51 34.1181 39.76 34.7081 40.19 35.1981C40.23 35.2881 40.31 35.3681 40.37 35.4381C41.68 36.7481 43.84 36.7481 45.15 35.4381C45.9 34.6881 46.23 33.6781 46.11 32.7181C46.1 32.5081 46.06 32.3081 46.01 32.1081C51.93 28.6881 58.61 26.8981 65.58 26.8981C87.23 26.8981 104.84 44.5081 104.84 66.1581C104.84 87.8081 87.23 105.418 65.58 105.418C43.93 105.418 26.32 87.8081 26.32 66.1581C26.32 59.7481 27.9 53.3781 30.89 47.7581C31.16 47.2581 30.97 46.6281 30.46 46.3581C29.95 46.0881 29.33 46.2781 29.06 46.7881C25.91 52.7081 24.25 59.4081 24.25 66.1581C24.25 88.9481 42.79 107.488 65.58 107.488C88.37 107.488 106.91 88.9481 106.91 66.1581C106.91 43.3681 88.37 24.8281 65.58 24.8281Z" fill="white" stroke="white" stroke-width="0.75" stroke-miterlimit="10"/>
</g>
<defs>
<clipPath id="clip0_3247_1433">
<rect width="130.78" height="130.78" fill="white" transform="translate(0.189941 0.769531)"/>
</clipPath>
</defs>
</svg>
