<svg width="153" height="144" viewBox="0 0 153 144" fill="none" xmlns="http://www.w3.org/2000/svg">
<g clip-path="url(#clip0_3247_1448)">
<path d="M37.96 139.092C37.9 138.982 37.82 138.892 37.74 138.802C36.66 137.722 34.9 137.722 33.82 138.802C33.48 139.142 33.25 139.572 33.13 140.012H16.03V38.6316L33.83 27.3416C34.87 28.2616 36.48 28.2316 37.47 27.2316C38.06 26.6416 38.32 25.8416 38.23 25.0916C38.2 24.5816 38.02 24.1216 37.7 23.7316C37.64 23.6316 37.57 23.5316 37.48 23.4516C36.43 22.4016 34.73 22.4016 33.69 23.4516C33.08 24.0616 32.83 24.9116 32.95 25.7016C32.97 25.8316 33.02 25.9516 33.05 26.0716L0.71999 46.5816C0.36999 46.8016 0.26999 47.2616 0.48999 47.6116C0.62999 47.8316 0.86999 47.9616 1.11999 47.9616C1.25999 47.9616 1.38999 47.9216 1.51999 47.8416L14.55 39.5816V140.762C14.55 141.172 14.88 141.502 15.29 141.502H33.16C33.26 141.872 33.41 142.222 33.68 142.522C33.71 142.592 33.78 142.662 33.83 142.712C34.9 143.782 36.65 143.782 37.72 142.712C38.33 142.102 38.6 141.282 38.5 140.502C38.47 139.982 38.29 139.492 37.95 139.102L37.96 139.092Z" fill="white" stroke="white" stroke-width="0.75" stroke-miterlimit="10"/>
<path d="M152.31 46.9608C152.28 46.4508 152.1 45.9908 151.78 45.6008C151.72 45.5008 151.65 45.4008 151.56 45.3208C150.56 44.3208 148.96 44.2908 147.91 45.2108L132.49 35.3908V1.54078C132.49 1.13078 132.16 0.800781 131.75 0.800781H110.24C109.83 0.800781 109.5 1.13078 109.5 1.54078V8.71078C109.08 8.83078 108.68 9.05078 108.35 9.38078C107.74 9.99078 107.49 10.8408 107.61 11.6308C107.67 12.1308 107.87 12.5908 108.21 12.9808C108.24 13.0508 108.3 13.1108 108.36 13.1708C109.4 14.2108 111.09 14.2108 112.13 13.1708C112.72 12.5808 112.98 11.7808 112.89 11.0308C112.86 10.5208 112.68 10.0608 112.36 9.67078C112.3 9.57078 112.23 9.47078 112.14 9.39078C111.81 9.06078 111.41 8.84078 110.99 8.72078V2.28078H131.01V34.4308L80.42 2.22078C77.46 0.330781 73.63 0.330781 70.66 2.22078L49.16 15.8608C48.81 16.0808 48.71 16.5408 48.93 16.8908C49.15 17.2408 49.61 17.3408 49.96 17.1208L71.46 3.48078C73.94 1.91078 77.14 1.91078 79.62 3.48078L135.03 38.7708V92.7708C135.03 93.1808 135.36 93.5108 135.77 93.5108C136.18 93.5108 136.51 93.1808 136.51 92.7708V39.7208L147.1 46.4608C147 46.8208 146.97 47.2008 147.02 47.5708C147.08 48.0708 147.28 48.5308 147.62 48.9208C147.65 48.9908 147.71 49.0508 147.77 49.1108C148.81 50.1508 150.5 50.1508 151.54 49.1108C152.13 48.5208 152.39 47.7208 152.3 46.9708L152.31 46.9608Z" fill="white" stroke="white" stroke-width="0.75" stroke-miterlimit="10"/>
<path d="M93.82 122.692C104.21 110.802 118.74 112.832 123.95 114.052C123.9 114.382 123.88 114.722 123.93 115.052C124.01 115.682 124.26 116.272 124.69 116.752C124.73 116.842 124.81 116.922 124.87 116.992C126.18 118.302 128.33 118.302 129.64 116.992C130.39 116.242 130.71 115.232 130.6 114.282C130.56 113.642 130.34 113.052 129.93 112.562C129.85 112.432 129.76 112.312 129.65 112.212C128.33 110.892 126.18 110.892 124.86 112.212C124.72 112.352 124.61 112.512 124.5 112.662C119.18 111.382 103.74 109.072 92.69 121.712C91.29 123.312 89.9 124.772 88.53 126.102C92.99 119.412 96.93 108.672 92.18 94.1016C90.61 89.2716 87.3 86.3916 84.11 83.6116C79.22 79.3516 74.6 75.3216 76.98 64.4416C77.07 64.0416 76.81 63.6416 76.41 63.5616C76.01 63.4716 75.61 63.7216 75.52 64.1316C72.95 75.8716 78.12 80.3816 83.13 84.7416C86.17 87.3916 89.32 90.1316 90.76 94.5716C94.33 105.532 92.8 114.222 89.92 120.552C70.37 108.722 60.07 95.4516 59.32 81.1016C58.27 61.0916 76.35 44.8316 80.83 41.1316C81.34 44.0316 83 51.2716 87.57 58.1516C87.16 58.7416 86.98 59.4516 87.09 60.1216C87.15 60.6416 87.36 61.1216 87.71 61.5216C87.74 61.6016 87.81 61.6616 87.86 61.7116C88.94 62.7916 90.7 62.7916 91.78 61.7116C92.39 61.1016 92.66 60.2716 92.57 59.4816C92.54 58.9516 92.35 58.4716 92.02 58.0716C91.96 57.9616 91.88 57.8716 91.79 57.7816C90.96 56.9516 89.74 56.7616 88.72 57.2016C83.23 48.8316 82.12 39.7616 82.1 39.6616C82.07 39.4016 81.9 39.1716 81.65 39.0616C81.41 38.9616 81.12 38.9916 80.91 39.1516C80.67 39.3316 56.6 57.6716 57.82 81.1816C58.6 96.0916 69.18 109.782 89.26 121.902C86.22 127.852 82.13 131.462 80.66 132.632C70.17 139.932 62.33 139.952 62.26 140.002H48.02C47.61 140.002 47.28 140.332 47.28 140.742C47.28 141.152 47.61 141.482 48.02 141.482H62.29C63.35 141.482 77.67 141.122 93.79 122.682L93.82 122.692Z" fill="white" stroke="white" stroke-width="0.75" stroke-miterlimit="10"/>
<path d="M117.43 96.9727C117.03 96.9727 116.68 97.2927 116.67 97.7027C116.66 98.1127 116.99 98.4527 117.4 98.4627C135.79 98.8927 144.23 115.683 146.35 120.703C138.72 119.053 128.18 126.703 117.86 135.333C108.44 143.223 97.48 139.873 92.81 137.843C92.96 137.393 93.01 136.923 92.95 136.463C92.91 135.823 92.69 135.233 92.28 134.743C92.2 134.613 92.11 134.493 92 134.393C90.68 133.073 88.53 133.073 87.21 134.393C86.44 135.163 86.12 136.243 86.28 137.233C86.36 137.863 86.61 138.453 87.04 138.933C87.08 139.023 87.16 139.103 87.22 139.173C88.53 140.483 90.68 140.483 91.99 139.173C92.01 139.153 92.01 139.143 92.03 139.123C94.58 140.243 99.01 141.793 104.13 141.793C108.78 141.793 113.98 140.513 118.81 136.463C133.41 124.253 141.66 120.213 147.31 122.543C147.58 122.653 147.89 122.593 148.1 122.403C148.31 122.203 148.39 121.903 148.3 121.623C148.22 121.383 140 97.5027 117.43 96.9727Z" fill="white" stroke="white" stroke-width="0.75" stroke-miterlimit="10"/>
<path d="M104.87 105.072C105 105.152 105.14 105.192 105.28 105.192C105.52 105.192 105.76 105.072 105.9 104.852C106.04 104.642 119.59 83.3325 96.02 65.1625C95.69 64.9125 95.23 64.9725 94.98 65.2925C94.73 65.6225 94.79 66.0825 95.12 66.3325C117.58 83.6425 105.2 103.202 104.66 104.032C104.44 104.372 104.53 104.832 104.88 105.062L104.87 105.072Z" fill="white" stroke="white" stroke-width="0.75" stroke-miterlimit="10"/>
</g>
<defs>
<clipPath id="clip0_3247_1448">
<rect width="152.71" height="143.47" fill="white" transform="translate(0 0.421875)"/>
</clipPath>
</defs>
</svg>
