<svg width="152" height="148" viewBox="0 0 152 148" fill="none" xmlns="http://www.w3.org/2000/svg">
<g clip-path="url(#clip0_3247_1464)">
<path d="M151.93 92.6572C151.87 91.7572 151.56 90.9172 150.99 90.2372C150.88 90.0572 150.75 89.8872 150.6 89.7372C148.74 87.8772 145.71 87.8772 143.84 89.7372C143.23 90.3472 142.84 91.0972 142.64 91.8772H123.65L114.56 100.967H77.69V82.0972C78.01 82.2172 78.34 82.3172 78.7 82.3672C79.17 82.4272 79.68 82.4872 80.24 82.5372C80.28 82.5372 80.33 82.5372 80.37 82.5372C81.07 82.5372 81.66 82.0072 81.7299 81.2972C81.7999 80.5472 81.25 79.8772 80.5 79.8072C79.97 79.7572 79.48 79.6972 79.04 79.6472C78.21 79.5372 77.64 78.8572 77.69 78.0272C77.93 73.3772 79.3 61.8872 86.68 55.7172C94.07 49.5472 105.61 50.2472 110.23 50.8372C111.06 50.9472 111.63 51.6272 111.58 52.4572C111.34 57.1072 109.97 68.6072 102.59 74.7672C100.11 76.8372 96.9699 78.2972 93.2299 79.1472C93.1199 78.8472 92.97 78.5572 92.76 78.3072C92.69 78.1872 92.6 78.0672 92.5 77.9672C91.24 76.7072 89.18 76.7072 87.92 77.9672C87.18 78.7072 86.88 79.7272 87.03 80.6872C87.11 81.2872 87.34 81.8472 87.76 82.3172C87.8 82.4072 87.87 82.4772 87.94 82.5472C89.19 83.7972 91.24 83.7972 92.49 82.5472C92.67 82.3672 92.82 82.1772 92.95 81.9772C97.5 81.0672 101.35 79.3872 104.35 76.8772C112.56 70.0172 114.06 57.6172 114.32 52.6072C114.44 50.3372 112.83 48.4172 110.58 48.1272C105.6 47.4872 93.14 46.7572 84.93 53.6172C81.43 56.5372 79.17 60.4572 77.69 64.3872V36.4872C78.01 36.6072 78.34 36.7072 78.7 36.7572C79.17 36.8172 79.68 36.8772 80.24 36.9272C80.28 36.9272 80.33 36.9272 80.37 36.9272C81.07 36.9272 81.66 36.3972 81.7299 35.6872C81.7999 34.9372 81.25 34.2672 80.5 34.1972C79.97 34.1472 79.48 34.0872 79.04 34.0372C78.21 33.9272 77.64 33.2472 77.69 32.4172C77.93 27.7672 79.3 16.2772 86.68 10.1072C94.07 3.93719 105.61 4.63719 110.23 5.22719C111.06 5.33719 111.63 6.01719 111.58 6.84719C111.34 11.4972 109.97 22.9972 102.59 29.1572C100.11 31.2272 96.9699 32.6872 93.2299 33.5372C93.1199 33.2372 92.97 32.9472 92.76 32.6972C92.69 32.5672 92.6 32.4572 92.5 32.3572C91.24 31.0972 89.18 31.0972 87.92 32.3572C87.18 33.0972 86.88 34.1172 87.03 35.0772C87.11 35.6772 87.34 36.2372 87.76 36.7072C87.8 36.7972 87.87 36.8672 87.94 36.9372C89.19 38.1872 91.24 38.1872 92.49 36.9372C92.67 36.7572 92.82 36.5672 92.95 36.3672C97.5 35.4572 101.35 33.7772 104.35 31.2672C112.56 24.4072 114.06 12.0072 114.32 6.99719C114.44 4.72719 112.83 2.80719 110.58 2.51719C105.6 1.87719 93.14 1.14719 84.93 8.00719C80.12 12.0172 77.63 17.9272 76.32 23.1472C75.02 17.9272 72.52 12.0172 67.71 8.00719C67.21 7.59719 66.7 7.20719 66.18 6.84719C65.56 6.41719 64.7099 6.57719 64.2799 7.19719C63.8499 7.81719 64.0099 8.66719 64.6299 9.09719C65.09 9.41719 65.53 9.74719 65.96 10.1072C73.35 16.2772 74.71 27.7672 74.95 32.4172C74.99 33.2472 74.43 33.9272 73.6 34.0372C68.9799 34.6272 57.43 35.3372 50.0499 29.1572C42.66 22.9872 41.2999 11.4972 41.0599 6.84719C41.0199 6.01719 41.59 5.33719 42.41 5.22719C44.45 4.96719 48.1399 4.49719 52.4399 4.96719C52.5599 5.42719 52.7399 5.85719 53.07 6.21719C53.11 6.30719 53.18 6.37719 53.25 6.44719C54.52 7.71719 56.6 7.71719 57.86 6.44719C58.58 5.72719 58.9 4.74719 58.79 3.82719C58.75 3.20719 58.54 2.63719 58.1399 2.16719C58.0599 2.03719 57.9699 1.92719 57.8699 1.82719C56.59 0.547188 54.5099 0.547188 53.2299 1.82719C53.09 1.96719 52.9899 2.11719 52.8799 2.27719C48.8999 1.82719 45.2499 2.11719 42.0599 2.52719C39.8099 2.81719 38.2 4.73719 38.32 7.00719C38.5799 12.0172 40.08 24.4172 48.29 31.2772C54.03 36.0772 61.86 37.1572 67.75 37.1572C70.28 37.1572 72.45 36.9572 73.95 36.7672C74.31 36.7172 74.64 36.6172 74.96 36.4972V64.3872C73.4799 60.4572 71.22 56.5372 67.72 53.6172C67.22 53.2072 66.71 52.8172 66.19 52.4572C65.57 52.0272 64.7199 52.1872 64.29 52.8072C63.86 53.4272 64.02 54.2772 64.6399 54.7072C65.1 55.0272 65.54 55.3572 65.97 55.7172C73.36 61.8872 74.72 73.3772 74.96 78.0272C75 78.8572 74.44 79.5372 73.61 79.6472C68.99 80.2372 57.4399 80.9472 50.0599 74.7672C42.6699 68.5972 41.31 57.1072 41.07 52.4572C41.0299 51.6272 41.5999 50.9372 42.4199 50.8372C44.4599 50.5772 48.15 50.1072 52.45 50.5772C52.57 51.0372 52.7499 51.4672 53.0799 51.8272C53.1199 51.9172 53.1899 51.9872 53.2599 52.0572C54.5299 53.3272 56.61 53.3272 57.8699 52.0572C58.59 51.3372 58.91 50.3572 58.7999 49.4372C58.7599 48.8172 58.5499 48.2472 58.1499 47.7772C58.0699 47.6472 57.9799 47.5372 57.8799 47.4372C56.5999 46.1572 54.5199 46.1572 53.2399 47.4372C53.0999 47.5772 53 47.7272 52.8899 47.8872C48.91 47.4372 45.2599 47.7272 42.07 48.1372C39.82 48.4272 38.2099 50.3472 38.3299 52.6172C38.5899 57.6272 40.09 70.0272 48.2999 76.8872C54.0399 81.6872 61.87 82.7672 67.76 82.7672C70.29 82.7672 72.46 82.5672 73.96 82.3772C74.32 82.3272 74.65 82.2272 74.97 82.1072V96.4372H42.5499L33.11 105.877H9.97995C9.81995 105.357 9.57995 104.877 9.22995 104.447C9.11995 104.267 8.98995 104.097 8.83995 103.947C6.97995 102.077 3.94995 102.077 2.07995 103.947C0.989951 105.037 0.549951 106.547 0.769951 107.957C0.879951 108.847 1.22995 109.677 1.83995 110.357C1.89995 110.487 2.00995 110.597 2.09995 110.687C3.94995 112.537 6.97995 112.537 8.81995 110.687C9.37995 110.127 9.75995 109.457 9.97995 108.747H34.2999L43.7399 99.3072H74.97V112.557V122.777H49.4399C49.2799 122.357 49.0599 121.967 48.7599 121.607C48.6499 121.427 48.52 121.257 48.3699 121.107C46.5 119.237 43.4799 119.237 41.61 121.107C40.52 122.197 40.0799 123.707 40.2999 125.117C40.41 126.007 40.7599 126.837 41.3699 127.517C41.43 127.647 41.5399 127.757 41.6299 127.847C43.4799 129.697 46.5 129.697 48.3499 127.847C48.9799 127.217 49.3699 126.447 49.57 125.647H62.2599V141.257H28.77C28.61 140.737 28.37 140.247 28.02 139.827C27.91 139.647 27.78 139.477 27.63 139.327C25.77 137.467 22.74 137.467 20.87 139.327C19.78 140.417 19.34 141.927 19.56 143.337C19.67 144.227 20.02 145.057 20.63 145.737C20.69 145.867 20.8 145.977 20.89 146.067C22.74 147.917 25.77 147.917 27.61 146.067C28.17 145.507 28.55 144.837 28.77 144.127H65.14V125.647H77.84V115.427H85.1V144.127H93.13C93.31 144.717 93.6 145.257 94.02 145.737C94.0799 145.867 94.19 145.977 94.28 146.067C96.13 147.917 99.15 147.917 101 146.067C102.05 145.017 102.51 143.597 102.35 142.247C102.29 141.347 101.98 140.507 101.41 139.827C101.3 139.647 101.17 139.477 101.02 139.327C99.1499 137.467 96.13 137.467 94.26 139.327C93.7 139.887 93.32 140.547 93.1 141.257H87.97V115.427H133.38V130.437C132.67 130.657 132 131.027 131.44 131.597C130.35 132.687 129.91 134.197 130.13 135.607C130.24 136.497 130.59 137.327 131.2 138.007C131.26 138.137 131.37 138.247 131.46 138.337C133.31 140.187 136.33 140.187 138.18 138.337C139.23 137.287 139.69 135.867 139.53 134.517C139.47 133.617 139.16 132.777 138.59 132.097C138.48 131.917 138.35 131.747 138.2 131.597C137.64 131.037 136.96 130.667 136.25 130.437V112.557H87.1H77.7V103.847H115.76L124.85 94.7572H142.79C142.97 95.2572 143.24 95.7372 143.61 96.1572C143.67 96.2872 143.78 96.3972 143.87 96.4872C145.72 98.3372 148.75 98.3372 150.59 96.4872C151.64 95.4372 152.1 94.0172 151.94 92.6672L151.93 92.6572ZM76.37 68.6472C76.37 68.6472 76.35 68.7272 76.34 68.7672C76.34 68.7272 76.32 68.6872 76.31 68.6472H76.38H76.37Z" fill="white"/>
</g>
<defs>
<clipPath id="clip0_3247_1464">
<rect width="151.25" height="146.58" fill="white" transform="translate(0.709961 0.867188)"/>
</clipPath>
</defs>
</svg>
