<svg width="142" height="143" viewBox="0 0 142 143" fill="none" xmlns="http://www.w3.org/2000/svg">
<g clip-path="url(#clip0_3247_1420)">
<path d="M18.9598 30.7563C18.9998 30.8563 19.0898 30.9463 19.1698 31.0163C20.6398 32.4863 23.0398 32.4863 24.5098 31.0163C25.3498 30.1763 25.7098 29.0563 25.5798 27.9863C25.5398 27.3463 25.3098 26.7563 24.9398 26.2563C35.4698 17.0563 48.7198 11.4363 62.6698 10.3463C63.2998 10.2963 64.1598 10.2563 64.9998 10.2263C65.4998 10.2163 65.9698 10.3863 66.3298 10.7363C66.6898 11.0863 66.8798 11.5563 66.8698 12.0563L65.8098 75.2963C65.8098 75.5363 65.8998 75.7663 66.0698 75.9363C66.2398 76.1063 66.4698 76.2063 66.7098 76.2063H90.4598C90.5898 76.7463 90.8098 77.2663 91.1998 77.6963C91.2398 77.7963 91.3298 77.8863 91.4098 77.9563C92.8798 79.4263 95.2798 79.4263 96.7498 77.9563C97.5898 77.1163 97.9498 75.9963 97.8198 74.9263C97.7798 74.2063 97.5298 73.5463 97.0698 73.0063C96.9798 72.8563 96.8798 72.7263 96.7598 72.6063C95.2798 71.1263 92.8698 71.1263 91.3898 72.6063C90.8798 73.1163 90.5698 73.7562 90.4198 74.4163H67.6298L68.6798 12.0863C68.6998 11.0863 68.3098 10.1563 67.5998 9.45626C66.8898 8.75626 65.9398 8.37626 64.9398 8.42626C64.0698 8.45626 63.1798 8.49626 62.5398 8.54626C48.1398 9.66626 34.4598 15.4963 23.6298 25.0163C22.1898 24.2463 20.3798 24.4563 19.1698 25.6663C18.2998 26.5363 17.9498 27.7363 18.1298 28.8463C18.2198 29.5463 18.4998 30.2063 18.9798 30.7563H18.9598Z" fill="white" stroke="white" stroke-width="0.75" stroke-miterlimit="10"/>
<path d="M106.03 128.245C105.94 128.095 105.84 127.965 105.72 127.845C104.24 126.365 101.83 126.365 100.35 127.845C99.4797 128.715 99.1297 129.915 99.3097 131.025C99.3597 131.425 99.4897 131.805 99.6697 132.165C88.7297 138.315 76.3497 141.145 63.5997 140.345C30.5797 138.275 4.40972 111.775 2.71972 78.7148C1.95972 63.7548 6.13972 49.4548 14.8097 37.3648C15.0997 36.9648 15.0097 36.4048 14.5997 36.1148C14.1997 35.8248 13.6397 35.9148 13.3497 36.3248C4.44973 48.7448 0.149724 63.4348 0.939724 78.8048C2.66972 112.775 29.5597 140.005 63.4997 142.135C64.9497 142.225 66.3997 142.275 67.8497 142.275C79.5097 142.275 90.7597 139.285 100.83 133.565C102.3 134.635 104.39 134.525 105.72 133.195C106.56 132.355 106.92 131.235 106.79 130.165C106.75 129.445 106.5 128.785 106.04 128.245H106.03Z" fill="white" stroke="white" stroke-width="0.75" stroke-miterlimit="10"/>
<path d="M131.07 74.4141H104.45C103.95 74.4141 103.55 74.8141 103.55 75.3141C103.55 75.8141 103.95 76.2141 104.45 76.2141H131.07C131.57 76.2141 132.03 76.4141 132.38 76.7741C132.72 77.1341 132.9 77.6041 132.87 78.0941C132.76 80.4241 132.63 82.2541 132.49 83.3641C131.98 87.4541 131.09 91.5141 129.82 95.4241C128.94 98.1441 127.87 100.824 126.63 103.404C122.97 111.044 117.92 117.824 111.63 123.554C111.26 123.884 111.24 124.454 111.57 124.824C111.75 125.014 111.99 125.114 112.23 125.114C112.45 125.114 112.66 125.034 112.83 124.884C119.3 119.004 124.49 112.034 128.25 104.184C129.52 101.534 130.62 98.7741 131.53 95.9841C132.83 91.9641 133.76 87.7941 134.27 83.5941C134.45 82.1341 134.58 79.8441 134.66 78.1841C134.71 77.1941 134.36 76.2541 133.67 75.5341C132.98 74.8141 132.06 74.4141 131.06 74.4141H131.07Z" fill="white" stroke="white" stroke-width="0.75" stroke-miterlimit="10"/>
<path d="M127.46 23.4249C128.27 22.5949 128.64 21.4749 128.5 20.4249C128.46 19.7049 128.21 19.0449 127.75 18.5049C127.66 18.3549 127.56 18.2249 127.44 18.1049C125.96 16.6249 123.55 16.6249 122.07 18.1049C121.2 18.9749 120.85 20.1749 121.03 21.2849C121.12 21.9849 121.4 22.6449 121.88 23.1949C121.92 23.2949 122.01 23.3849 122.09 23.4549C123.12 24.4849 124.6 24.7749 125.91 24.3649C136.48 38.1649 138.9 54.7149 139.44 61.7149C139.48 62.2449 139.3 62.7549 138.95 63.1349C138.59 63.5249 138.09 63.7449 137.55 63.7449H78.3198V4.89486C78.3198 4.37486 78.5298 3.88486 78.8998 3.52486C79.2598 3.17486 79.7198 2.97486 80.2298 3.00486C94.3998 3.43486 106.37 7.23486 115.79 14.2949C116.19 14.5949 116.75 14.5049 117.05 14.1149C117.35 13.7149 117.27 13.1549 116.87 12.8549C107.15 5.56486 94.8398 1.64486 80.2898 1.20486C79.2998 1.17486 78.3698 1.53486 77.6598 2.23486C76.9398 2.93486 76.5298 3.90486 76.5298 4.89486V64.6449C76.5298 65.1449 76.9298 65.5449 77.4298 65.5449H137.56C138.59 65.5449 139.58 65.1149 140.27 64.3649C140.96 63.6149 141.32 62.6049 141.24 61.5849C140.69 54.4449 138.23 37.5849 127.47 23.4349L127.46 23.4249Z" fill="white" stroke="white" stroke-width="0.75" stroke-miterlimit="10"/>
</g>
<defs>
<clipPath id="clip0_3247_1420">
<rect width="141.15" height="141.83" fill="white" transform="translate(0.469727 0.824219)"/>
</clipPath>
</defs>
</svg>
