<svg width="142" height="143" viewBox="0 0 142 143" fill="none" xmlns="http://www.w3.org/2000/svg">
<g clip-path="url(#clip0_3247_1427)">
<path d="M1.92 65.6311C1.92 39.5311 17.76 17.0611 40.34 7.32109L40.49 8.70109C40.93 12.7811 41.28 16.0111 41.71 18.5011C43.05 26.3411 45.38 27.5711 53.29 27.9811C63.59 28.5111 67.68 37.5411 70.96 44.8011C72.56 48.3411 71.9 52.4811 69.33 55.1211C67.04 57.4611 63.89 58.0311 60.69 56.6811C57.55 55.3511 54.26 55.6211 51.61 57.2111C50.45 56.5511 48.95 56.7011 47.96 57.6911C47.27 58.3811 46.98 59.3511 47.13 60.2411C47.2 60.8011 47.42 61.3311 47.81 61.7711C47.85 61.8511 47.92 61.9211 47.97 61.9811C49.15 63.1611 51.07 63.1611 52.25 61.9811C52.92 61.3111 53.21 60.4111 53.11 59.5511C53.08 59.1211 52.93 58.7311 52.72 58.3711C54.91 57.2011 57.55 57.0411 60.08 58.1111C63.85 59.7011 67.72 58.9911 70.43 56.2111C73.44 53.1211 74.22 48.2811 72.36 44.1711C69.09 36.9311 64.6 27.0211 53.36 26.4411C46.1 26.0711 44.43 25.3211 43.22 18.2511C42.8 15.8011 42.45 12.6011 42.01 8.54109L41.81 6.72109C49.1 3.79109 57.05 2.17109 65.37 2.17109C75.85 2.17109 85.7 4.67109 94.39 9.09109C95.41 18.2311 94.55 23.4211 93.41 26.7311C92.62 26.6411 91.8 26.8911 91.19 27.4911C90.58 28.0911 90.32 28.9711 90.45 29.7611C90.51 30.2611 90.71 30.7311 91.06 31.1211C91.09 31.1911 91.15 31.2611 91.21 31.3111C92.26 32.3611 93.97 32.3611 95.02 31.3111C95.62 30.7111 95.88 29.9111 95.78 29.1411C95.75 28.6311 95.57 28.1611 95.25 27.7711C95.19 27.6711 95.11 27.5711 95.03 27.4911C94.97 27.4311 94.89 27.3811 94.83 27.3211C96.11 23.7011 96.9 18.5911 96.05 9.95109C109.02 17.0511 119.2 28.5411 124.59 42.5311C119.95 43.3911 97.23 47.1311 92.94 39.1611C91.98 37.3811 91.59 36.0711 91.66 34.9111C91.69 34.4811 91.36 34.1211 90.94 34.0911C90.51 34.0611 90.15 34.3911 90.12 34.8111C90.03 36.2811 90.48 37.8511 91.58 39.8911C94.03 44.4511 101.27 45.6911 108.47 45.6911C115.67 45.6911 122.97 44.4111 125.13 44.0011C126.96 49.1111 128.16 54.5311 128.63 60.1811C128.17 60.3311 127.74 60.5811 127.38 60.9411C126.65 61.6711 126.35 62.6811 126.5 63.6211C126.57 64.2111 126.81 64.7711 127.22 65.2311C127.26 65.3211 127.33 65.3911 127.39 65.4511C127.99 66.0511 128.77 66.3511 129.56 66.3711C129.59 66.3711 129.61 66.3911 129.64 66.3911C129.67 66.3911 129.69 66.3811 129.72 66.3711C130.51 66.3511 131.3 66.0511 131.9 65.4511C132.61 64.7411 132.91 63.7911 132.8 62.8911C132.76 62.2811 132.55 61.7311 132.17 61.2711C132.1 61.1511 132.01 61.0311 131.91 60.9411C131.42 60.4511 130.81 60.1611 130.18 60.0511C127.36 26.4511 99.58 0.621094 65.39 0.621094C56.71 0.621094 48.43 2.34109 40.86 5.44109C40.76 5.46109 40.66 5.50109 40.58 5.55109C17 15.3211 0.380005 38.5711 0.380005 65.6311C0.380005 72.6011 1.48001 79.4611 3.64001 86.0211C3.75001 86.3411 4.05 86.5511 4.37 86.5511C4.45 86.5511 4.53 86.5411 4.61 86.5111C5.02 86.3811 5.24 85.9411 5.1 85.5311C2.99 79.1311 1.92 72.4311 1.92 65.6211V65.6311Z" fill="white" stroke="white" stroke-width="0.75" stroke-miterlimit="10"/>
<path d="M140.11 76.5008C139.86 76.4808 114.94 74.0308 107.41 61.9508C107.13 61.5008 106.38 61.5008 106.1 61.9508C98.5699 74.0308 73.66 76.4808 73.3999 76.5008C72.9999 76.5408 72.6999 76.8708 72.6999 77.2708V103.491C73.0099 111.521 78.7599 119.381 85.4299 125.871C78.9899 127.981 72.0899 129.111 65.3799 129.111C54.9099 129.111 44.7999 126.471 35.8199 121.731C38.6899 120.171 44.5299 115.971 42.7599 108.161C40.6099 98.6708 41.3799 97.8408 45.6599 93.2208C49.5399 89.0308 53.2499 81.8308 48.8999 71.2908C48.3199 69.8808 48.0099 68.4608 47.9699 67.0508C47.9599 66.6208 47.6099 66.3008 47.1799 66.3008C46.7499 66.3108 46.4199 66.6708 46.4299 67.0908C46.4799 68.6908 46.8299 70.3008 47.4799 71.8808C50.7199 79.7408 49.7299 86.5608 44.5399 92.1708C39.8199 97.2708 39.0099 98.5408 41.2599 108.511C43.0499 116.401 36.0299 120.031 34.1999 120.831C24.1699 115.151 15.6799 106.811 9.91995 96.5008C9.94995 96.4708 9.98995 96.4508 10.0099 96.4208C10.5899 95.8408 10.8399 95.0608 10.7499 94.3308C10.7199 93.8308 10.5499 93.3808 10.2299 93.0008C10.1699 92.9008 10.0999 92.8108 10.0199 92.7308C8.99995 91.7108 7.33995 91.7108 6.31995 92.7308C5.71995 93.3308 5.47995 94.1608 5.59995 94.9308C5.65995 95.4208 5.84995 95.8708 6.18995 96.2508C6.21995 96.3208 6.27995 96.3808 6.32995 96.4308C6.91995 97.0208 7.73995 97.2608 8.51995 97.1608C14.4199 107.771 23.1399 116.371 33.4699 122.201C33.5999 122.361 33.7699 122.471 33.9799 122.501C43.4499 127.741 54.2299 130.681 65.3899 130.681C72.5299 130.681 79.8999 129.441 86.7099 127.111C95.6299 135.421 105.64 141.201 106.38 141.621C106.5 141.691 106.63 141.721 106.76 141.721C106.89 141.721 107.02 141.691 107.14 141.621C107.16 141.611 109.15 140.471 112.09 138.521C113.05 139.271 114.45 139.211 115.34 138.331C115.89 137.781 116.12 137.051 116.04 136.351C116.01 135.881 115.85 135.451 115.55 135.101C115.49 135.001 115.43 134.921 115.35 134.841C114.38 133.871 112.82 133.871 111.85 134.841C111.29 135.401 111.06 136.191 111.17 136.921C111.18 137.031 111.23 137.131 111.25 137.231C109.09 138.661 107.46 139.641 106.75 140.061C103.11 137.911 74.8999 120.641 74.2399 103.491V78.0008C78.3899 77.5308 98.8999 74.6708 106.75 63.7808C114.6 74.6708 135.11 77.5308 139.26 78.0008V103.461C138.9 112.881 130.14 122.291 122.85 128.521C122.53 128.801 122.49 129.291 122.77 129.611C123.05 129.941 123.54 129.971 123.86 129.691C134.8 120.331 140.5 111.521 140.81 103.481V77.2908C140.81 76.8908 140.51 76.5608 140.11 76.5208V76.5008Z" fill="white" stroke="white" stroke-width="0.75" stroke-miterlimit="10"/>
<path d="M121.61 105.99C120.21 107.16 118.44 107.99 116.32 108.47C116.26 108.3 116.18 108.14 116.06 107.99C116.02 107.92 115.97 107.86 115.91 107.8C115.2 107.09 114.04 107.09 113.32 107.8C112.9 108.22 112.73 108.8 112.82 109.33C112.86 109.67 113 109.99 113.23 110.25C113.25 110.3 113.29 110.34 113.33 110.38C114.04 111.09 115.2 111.09 115.9 110.38C116 110.28 116.09 110.17 116.16 110.06C118.73 109.55 120.91 108.6 122.6 107.18C127.24 103.31 128.09 96.3 128.23 93.47C128.3 92.19 127.39 91.1 126.12 90.94C123.31 90.58 116.26 90.17 111.63 94.04C108.91 96.31 107.5 99.65 106.77 102.59C106.03 99.64 104.62 96.3 101.91 94.03C101.63 93.8 101.34 93.58 101.04 93.37C100.69 93.13 100.21 93.22 99.97 93.57C99.73 93.92 99.82 94.4 100.17 94.64C100.43 94.82 100.68 95.01 100.92 95.21C105.09 98.7 105.86 105.19 106 107.81C106.02 108.28 105.7 108.67 105.23 108.73C102.62 109.06 96.1 109.46 91.92 105.98C87.75 102.49 86.98 96 86.84 93.38C86.82 92.91 87.14 92.52 87.6 92.46C88.75 92.31 90.84 92.05 93.27 92.31C93.34 92.57 93.44 92.81 93.62 93.02C93.64 93.07 93.68 93.11 93.72 93.15C94.44 93.87 95.61 93.87 96.33 93.15C96.74 92.74 96.92 92.19 96.85 91.67C96.83 91.32 96.71 91 96.48 90.73C96.44 90.66 96.39 90.59 96.33 90.54C95.61 89.82 94.43 89.82 93.71 90.54C93.63 90.62 93.57 90.71 93.51 90.79C91.26 90.54 89.2 90.7 87.4 90.93C86.13 91.09 85.22 92.18 85.29 93.46C85.44 96.29 86.28 103.29 90.92 107.17C94.17 109.88 98.58 110.49 101.91 110.49C103.34 110.49 104.57 110.38 105.41 110.27C105.61 110.24 105.8 110.19 105.98 110.12V118.66C105.54 118.79 105.13 119.01 104.78 119.35C104.14 119.99 103.89 120.87 104.02 121.69C104.08 122.21 104.29 122.69 104.64 123.09C104.67 123.17 104.74 123.23 104.79 123.28C105.87 124.36 107.63 124.36 108.71 123.28C109.32 122.67 109.59 121.84 109.5 121.05C109.47 120.52 109.28 120.04 108.95 119.64C108.89 119.53 108.81 119.44 108.72 119.35C108.37 119 107.96 118.78 107.52 118.66V110.12C107.7 110.19 107.89 110.25 108.09 110.27C108.35 110.3 108.64 110.34 108.96 110.37C108.98 110.37 109.01 110.37 109.03 110.37C109.42 110.37 109.76 110.07 109.8 109.67C109.84 109.25 109.53 108.87 109.1 108.83C108.8 108.8 108.52 108.77 108.28 108.74C107.81 108.68 107.49 108.29 107.51 107.82C107.65 105.19 108.42 98.7 112.59 95.22C116.76 91.73 123.28 92.13 125.9 92.47C126.37 92.53 126.69 92.92 126.67 93.39C126.53 96.02 125.76 102.51 121.59 105.99H121.61Z" fill="white" stroke="white" stroke-width="0.75" stroke-miterlimit="10"/>
</g>
<defs>
<clipPath id="clip0_3247_1427">
<rect width="141.19" height="141.83" fill="white" transform="translate(0 0.242188)"/>
</clipPath>
</defs>
</svg>
