<svg width="110" height="132" viewBox="0 0 110 132" fill="none" xmlns="http://www.w3.org/2000/svg">
<g clip-path="url(#clip0_3247_1440)">
<path d="M103.62 72.5484C102.81 73.3484 102.49 74.4684 102.65 75.5084C102.73 76.1584 102.99 76.7784 103.44 77.2784C103.48 77.3784 103.56 77.4584 103.63 77.5284C104.99 78.8884 107.23 78.8884 108.6 77.5284C109.38 76.7484 109.72 75.6984 109.6 74.7084C109.56 74.0384 109.33 73.4284 108.9 72.9184C108.82 72.7784 108.72 72.6584 108.61 72.5484C108.08 72.0184 107.43 71.6984 106.75 71.5784V42.4984C106.75 39.7984 105.77 37.1784 103.99 35.1484L77.6702 4.97844C75.5402 2.53844 72.4702 1.14844 69.2402 1.14844H11.9702C6.11022 1.14844 1.35022 5.90844 1.35022 11.7684V120.558C1.35022 126.418 6.11022 131.178 11.9702 131.178H96.1402C102 131.178 106.76 126.418 106.76 120.558V92.2184C106.76 91.8684 106.47 91.5784 106.12 91.5784C105.77 91.5784 105.48 91.8684 105.48 92.2184V120.558C105.48 125.708 101.29 129.898 96.1402 129.898H53.1302V99.3184C53.3302 99.3984 53.5402 99.4584 53.7702 99.4884C54.0702 99.5284 54.3902 99.5584 54.7502 99.5984C54.7802 99.5984 54.8102 99.5984 54.8302 99.5984C55.2702 99.5984 55.6502 99.2584 55.6902 98.8084C55.7402 98.3284 55.3902 97.9084 54.9102 97.8584C54.5702 97.8284 54.2602 97.7884 53.9902 97.7584C53.4602 97.6884 53.1002 97.2584 53.1302 96.7284C53.2802 93.7784 54.1502 86.4884 58.8402 82.5684C63.5302 78.6484 70.8502 79.0984 73.7902 79.4784C74.3202 79.5484 74.6802 79.9784 74.6502 80.5084C74.5002 83.4584 73.6302 90.7484 68.9402 94.6684C67.3702 95.9784 65.3702 96.9084 63.0002 97.4484C62.9302 97.2584 62.8402 97.0784 62.7002 96.9184C62.6502 96.8384 62.6002 96.7684 62.5302 96.7084C61.7302 95.9084 60.4302 95.9084 59.6202 96.7084C59.1502 97.1784 58.9602 97.8284 59.0602 98.4284C59.1102 98.8084 59.2602 99.1684 59.5202 99.4584C59.5402 99.5184 59.5902 99.5584 59.6302 99.5984C60.4202 100.388 61.7302 100.388 62.5202 99.5984C62.6302 99.4884 62.7302 99.3684 62.8102 99.2384C65.7002 98.6584 68.1402 97.5984 70.0502 96.0084C75.2602 91.6584 76.2102 83.7884 76.3802 80.6084C76.4502 79.1684 75.4302 77.9484 74.0102 77.7684C70.8502 77.3684 62.9402 76.8984 57.7302 81.2484C54.6802 83.7984 53.1002 87.5484 52.2702 90.8584C51.4402 87.5484 49.8602 83.7984 46.8102 81.2484C46.4902 80.9884 46.1702 80.7384 45.8402 80.5084C45.4502 80.2384 44.9002 80.3384 44.6302 80.7284C44.3602 81.1184 44.4602 81.6684 44.8502 81.9384C45.1402 82.1384 45.4202 82.3484 45.7002 82.5784C50.3902 86.4884 51.2502 93.7784 51.4002 96.7384C51.4302 97.2684 51.0702 97.6984 50.5402 97.7684C47.6102 98.1384 40.2802 98.5884 35.5902 94.6784C30.9002 90.7684 30.0402 83.4784 29.8902 80.5184C29.8602 79.9884 30.2202 79.5584 30.7502 79.4884C32.0502 79.3184 34.3902 79.0284 37.1202 79.3184C37.1902 79.6084 37.3102 79.8784 37.5202 80.1184C37.5402 80.1784 37.5902 80.2184 37.6302 80.2584C38.4302 81.0584 39.7502 81.0584 40.5602 80.2584C41.0202 79.7984 41.2202 79.1784 41.1502 78.5884C41.1302 78.1984 40.9902 77.8284 40.7402 77.5384C40.6902 77.4584 40.6402 77.3884 40.5702 77.3184C39.7602 76.5084 38.4402 76.5084 37.6302 77.3184C37.5402 77.4084 37.4802 77.5084 37.4102 77.5984C34.8802 77.3184 32.5702 77.4984 30.5402 77.7584C29.1102 77.9384 28.0902 79.1584 28.1702 80.5984C28.3402 83.7784 29.2802 91.6484 34.5002 95.9984C38.1502 99.0384 43.1102 99.7284 46.8502 99.7284C48.4602 99.7284 49.8302 99.5984 50.7802 99.4784C51.0102 99.4484 51.2202 99.3884 51.4202 99.3084V129.888H11.9702C6.82022 129.888 2.63022 125.698 2.63022 120.548V11.7684C2.62022 6.60844 6.81022 2.41844 11.9702 2.41844H69.2602C69.5302 2.41844 69.8002 2.43844 70.0702 2.45844V30.1884C70.0702 36.8584 75.5002 42.2884 82.1702 42.2884H90.7502C90.8502 42.8784 91.0902 43.4384 91.5002 43.8984C91.5402 43.9984 91.6202 44.0784 91.6902 44.1484C93.0502 45.5084 95.2902 45.5084 96.6602 44.1484C97.4402 43.3684 97.7802 42.3184 97.6602 41.3284C97.6202 40.6584 97.3902 40.0484 96.9602 39.5384C96.8802 39.3984 96.7802 39.2784 96.6702 39.1684C95.2902 37.7884 93.0502 37.7884 91.6802 39.1684C91.1602 39.6884 90.8602 40.3384 90.7402 41.0184H82.1702C76.2102 41.0184 71.3502 36.1684 71.3502 30.1984V2.64844C73.4202 3.09844 75.3102 4.19844 76.7302 5.81844L103.05 35.9884C104.62 37.7884 105.49 40.1084 105.49 42.4984V71.5784C104.81 71.6984 104.16 72.0284 103.63 72.5484H103.62Z" fill="white" stroke="white" stroke-width="0.75" stroke-miterlimit="10"/>
<path d="M21.2802 34.7875C21.7402 34.3275 21.9402 33.7175 21.8602 33.1275C21.8402 32.7375 21.7002 32.3775 21.4502 32.0775C21.4002 31.9975 21.3502 31.9275 21.2802 31.8575C20.4702 31.0475 19.1602 31.0475 18.3502 31.8575C17.8802 32.3275 17.6902 32.9875 17.7802 33.5975C17.8302 33.9775 17.9802 34.3375 18.2402 34.6375C18.2602 34.6975 18.3102 34.7375 18.3502 34.7775C19.1502 35.5775 20.4602 35.5775 21.2602 34.7775L21.2802 34.7875Z" fill="white" stroke="white" stroke-width="0.75" stroke-miterlimit="10"/>
<path d="M46.3702 41.6466C45.5602 40.8366 44.2502 40.8366 43.4402 41.6466C42.9702 42.1166 42.7802 42.7766 42.8702 43.3866C42.9202 43.7666 43.0702 44.1266 43.3302 44.4266C43.3502 44.4866 43.4002 44.5266 43.4402 44.5666C44.2402 45.3666 45.5502 45.3666 46.3502 44.5666C46.8102 44.1066 47.0102 43.4966 46.9302 42.9066C46.9102 42.5166 46.7702 42.1566 46.5202 41.8566C46.4702 41.7766 46.4202 41.7066 46.3502 41.6366L46.3702 41.6466Z" fill="white" stroke="white" stroke-width="0.75" stroke-miterlimit="10"/>
<path d="M51.8302 33.3191C51.8302 32.6091 51.2602 32.0391 50.5502 32.0391H26.2702C25.5602 32.0391 24.9902 32.6091 24.9902 33.3191C24.9902 34.0291 25.5602 34.5991 26.2702 34.5991H50.5502C51.2602 34.5991 51.8302 34.0291 51.8302 33.3191Z" fill="white" stroke="white" stroke-width="0.75" stroke-miterlimit="10"/>
<path d="M20.4802 44.3803H40.0302C40.7402 44.3803 41.3102 43.8103 41.3102 43.1003C41.3102 42.3903 40.7402 41.8203 40.0302 41.8203H20.4802C19.7702 41.8203 19.2002 42.3903 19.2002 43.1003C19.2002 43.8103 19.7702 44.3803 20.4802 44.3803Z" fill="white" stroke="white" stroke-width="0.75" stroke-miterlimit="10"/>
</g>
<defs>
<clipPath id="clip0_3247_1440">
<rect width="109.03" height="130.78" fill="white" transform="translate(0.970215 0.769531)"/>
</clipPath>
</defs>
</svg>
