<svg width="123" height="146" viewBox="0 0 123 146" fill="none" xmlns="http://www.w3.org/2000/svg">
<g clip-path="url(#clip0_3247_1456)">
<path d="M118 142.215C117.3 143.085 116.26 143.585 115.14 143.585H6.19995C4.17995 143.585 2.53995 141.945 2.53995 139.925V122.715C2.53995 116.835 6.16995 111.615 11.4599 109.445C11.4899 109.525 11.5599 109.585 11.6099 109.645C12.6999 110.735 14.4899 110.735 15.5799 109.645C16.1999 109.025 16.4699 108.185 16.3799 107.385C16.3499 106.855 16.1599 106.365 15.8199 105.955C15.7499 105.845 15.6799 105.745 15.5899 105.665C14.4899 104.565 12.6999 104.565 11.5999 105.665C10.9599 106.305 10.6999 107.205 10.8299 108.025C10.8299 108.055 10.8499 108.075 10.8499 108.105C5.04995 110.505 1.06995 116.245 1.06995 122.705V139.915C1.06995 142.735 3.36995 145.035 6.18995 145.035H115.13C116.69 145.035 118.15 144.335 119.13 143.115C119.38 142.795 119.33 142.335 119.02 142.085C118.7 141.835 118.24 141.885 117.99 142.195L118 142.215Z" fill="white" stroke="white" stroke-width="0.75" stroke-miterlimit="10"/>
<path d="M13.5999 101.206C13.9999 101.206 14.3299 100.876 14.3299 100.476V93.3356H51.1299C51.5299 93.3356 51.8599 93.0056 51.8599 92.6056C51.8599 92.2056 51.5299 91.8756 51.1299 91.8756H31.4299C32.0299 83.3356 39.1599 76.5556 47.8499 76.5556H74.2699C79.2699 76.5556 83.9499 78.8556 87.0499 82.6756C86.8499 83.0856 86.7699 83.5356 86.8399 83.9756C86.8899 84.3856 87.0599 84.7756 87.3399 85.0956C87.3699 85.1556 87.4199 85.2056 87.4599 85.2556C88.3199 86.1156 89.7399 86.1156 90.5999 85.2556C91.0899 84.7656 91.3099 84.0956 91.2299 83.4756C91.1999 83.0556 91.0599 82.6656 90.7899 82.3456C90.7399 82.2556 90.6799 82.1856 90.6099 82.1156C89.9299 81.4356 88.9399 81.3056 88.1099 81.6756C84.7299 77.5756 79.6899 75.1056 74.2799 75.1056H61.5799V59.0456C61.7899 59.1256 62.0099 59.1956 62.2399 59.2256C62.5399 59.2656 62.8799 59.3056 63.2499 59.3356C63.2799 59.3356 63.3099 59.3356 63.3399 59.3356C63.7899 59.3356 64.1799 58.9856 64.2299 58.5256C64.2799 58.0356 63.9199 57.5956 63.4299 57.5556C63.0799 57.5256 62.7699 57.4856 62.4799 57.4456C61.9399 57.3756 61.5699 56.9356 61.5999 56.3856C61.7599 53.3456 62.6499 45.8456 67.4699 41.8256C72.2899 37.7956 79.8199 38.2556 82.8399 38.6456C83.3799 38.7156 83.7499 39.1556 83.7199 39.7056C83.5599 42.7456 82.6699 50.2456 77.8499 54.2656C76.2399 55.6156 74.1799 56.5656 71.7399 57.1256C71.6699 56.9256 71.5699 56.7456 71.4399 56.5756C71.3899 56.4956 71.3299 56.4156 71.2699 56.3556C70.4499 55.5356 69.1099 55.5356 68.2799 56.3556C67.7999 56.8356 67.5999 57.5056 67.6999 58.1256C67.7499 58.5156 67.8999 58.8856 68.1699 59.1856C68.1899 59.2456 68.2399 59.2956 68.2799 59.3356C69.0999 60.1556 70.4399 60.1556 71.2499 59.3356C71.3699 59.2156 71.4599 59.0956 71.5499 58.9656C74.5199 58.3756 77.0299 57.2756 78.9899 55.6356C84.3499 51.1656 85.3299 43.0656 85.4999 39.7956C85.5799 38.3156 84.5299 37.0656 83.0599 36.8756C79.8099 36.4656 71.6799 35.9856 66.3199 40.4556C63.1799 43.0756 61.5499 46.9356 60.6999 50.3356C59.8499 46.9256 58.2199 43.0756 55.0799 40.4556C54.7499 40.1856 54.4199 39.9356 54.0799 39.6956C53.6699 39.4156 53.1199 39.5156 52.8399 39.9256C52.5599 40.3356 52.6599 40.8856 53.0699 41.1656C53.3699 41.3756 53.6599 41.5956 53.9399 41.8256C58.7599 45.8556 59.6499 53.3456 59.8099 56.3856C59.8399 56.9256 59.4699 57.3756 58.9299 57.4456C55.9199 57.8256 48.3799 58.2956 43.5599 54.2656C38.7399 50.2356 37.8499 42.7456 37.6899 39.7056C37.6599 39.1656 38.0299 38.7156 38.5699 38.6456C39.8999 38.4756 42.3099 38.1656 45.1199 38.4756C45.1999 38.7756 45.3199 39.0556 45.5299 39.2956C45.5499 39.3556 45.5999 39.4056 45.6499 39.4456C46.4799 40.2756 47.8299 40.2756 48.6599 39.4456C49.1299 38.9756 49.3399 38.3356 49.2599 37.7356C49.2399 37.3256 49.0899 36.9556 48.8399 36.6556C48.7899 36.5756 48.7299 36.4956 48.6699 36.4356C47.8299 35.5956 46.4799 35.5956 45.6399 36.4356C45.5499 36.5256 45.4799 36.6256 45.4099 36.7256C42.8099 36.4356 40.4299 36.6256 38.3499 36.8856C36.8799 37.0756 35.8299 38.3256 35.9099 39.8056C36.0799 43.0756 37.0599 51.1656 42.4199 55.6456C46.1699 58.7756 51.2699 59.4856 55.1199 59.4856C56.7699 59.4856 58.1899 59.3556 59.1699 59.2356C59.3999 59.2056 59.6199 59.1456 59.8299 59.0556V75.1156H47.8999C38.3999 75.1156 30.6199 82.5456 30.0199 91.8956H14.3899V49.4756C14.3399 23.6856 35.2999 2.72563 61.0599 2.72563C76.3499 2.72563 90.7299 10.3356 99.4199 22.7856C98.9399 23.3956 98.7299 24.1656 98.8499 24.8956C98.9199 25.4156 99.1199 25.9056 99.4799 26.3156C99.5099 26.3956 99.5799 26.4556 99.6299 26.5156C100.72 27.6056 102.51 27.6056 103.6 26.5156C104.22 25.8956 104.49 25.0556 104.4 24.2556C104.37 23.7256 104.18 23.2356 103.84 22.8256C103.77 22.7156 103.7 22.6156 103.61 22.5356C102.79 21.7156 101.6 21.5156 100.58 21.9056C91.6199 9.08563 76.8099 1.26562 61.0599 1.26562C34.4899 1.26562 12.8699 22.8756 12.8699 49.4456V100.476C12.8699 100.876 13.1999 101.206 13.5999 101.206Z" fill="white" stroke="white" stroke-width="0.75" stroke-miterlimit="10"/>
<path d="M68.0299 128.575C69.5899 130.135 72.1599 130.135 73.7199 128.575C74.6099 127.685 74.9999 126.475 74.8599 125.335C74.8099 124.565 74.5499 123.865 74.0599 123.285C73.9699 123.125 73.8599 122.985 73.7299 122.865C72.1499 121.285 69.5899 121.285 68.0099 122.865C67.0899 123.785 66.7099 125.075 66.8999 126.255C66.9899 127.005 67.2899 127.705 67.8099 128.285C67.8599 128.395 67.9499 128.485 68.0299 128.565V128.575Z" fill="white" stroke="white" stroke-width="0.75" stroke-miterlimit="10"/>
<path d="M62.53 127.915C63.74 127.915 64.72 126.935 64.72 125.725C64.72 124.515 63.74 123.535 62.53 123.535H47.22C46.01 123.535 45.03 124.515 45.03 125.725C45.03 126.935 46.01 127.915 47.22 127.915H62.53Z" fill="white" stroke="white" stroke-width="0.75" stroke-miterlimit="10"/>
<path d="M122.31 132.296C122.28 131.766 122.09 131.276 121.75 130.866C121.68 130.756 121.61 130.656 121.52 130.576C121.16 130.216 120.72 129.986 120.26 129.856V122.716C120.26 115.676 115.62 109.696 109.25 107.666V49.4455C109.25 43.8055 108.29 38.2855 106.38 33.0355C106.24 32.6555 105.82 32.4555 105.44 32.5955C105.06 32.7355 104.86 33.1555 105 33.5355C106.84 38.6255 107.78 43.9855 107.78 49.4555V91.8755H63.1399C63.0699 91.6555 62.9599 91.4555 62.8099 91.2655C62.7599 91.1755 62.6999 91.1055 62.6299 91.0355C61.7599 90.1655 60.3499 90.1655 59.4799 91.0355C58.9699 91.5455 58.7599 92.2555 58.8699 92.9055C58.9199 93.3155 59.0899 93.7055 59.3699 94.0255C59.3999 94.0855 59.4499 94.1355 59.4899 94.1855C60.3499 95.0455 61.7699 95.0455 62.6299 94.1855C62.8799 93.9355 63.0499 93.6455 63.1599 93.3355H107.79V107.286C106.72 107.056 105.61 106.926 104.48 106.926H20.4199C20.0199 106.926 19.6899 107.256 19.6899 107.656C19.6899 108.056 20.0199 108.386 20.4199 108.386H104.47C112.37 108.386 118.8 114.816 118.8 122.716V129.856C118.34 129.976 117.9 130.206 117.54 130.576C116.9 131.216 116.64 132.116 116.77 132.936C116.84 133.456 117.04 133.946 117.4 134.356C117.43 134.436 117.5 134.496 117.55 134.556C118.64 135.646 120.43 135.646 121.52 134.556C122.14 133.936 122.41 133.096 122.32 132.296H122.31Z" fill="white" stroke="white" stroke-width="0.75" stroke-miterlimit="10"/>
</g>
<defs>
<clipPath id="clip0_3247_1456">
<rect width="122" height="144.54" fill="white" transform="translate(0.709961 0.886719)"/>
</clipPath>
</defs>
</svg>
