<svg width="19" height="16" viewBox="0 0 19 16" fill="none" xmlns="http://www.w3.org/2000/svg">
<path d="M1.5 2L7.60764 6.61227L7.60967 6.61396C8.28785 7.11128 8.62714 7.3601 8.99876 7.45621C9.32723 7.54117 9.67251 7.54117 10.001 7.45621C10.3729 7.36001 10.7132 7.11047 11.3926 6.61227C11.3926 6.61227 15.3101 3.60594 17.5 2M0.5 11.8002V4.2002C0.5 3.08009 0.5 2.51962 0.717987 2.0918C0.909734 1.71547 1.21547 1.40973 1.5918 1.21799C2.01962 1 2.58009 1 3.7002 1H15.3002C16.4203 1 16.9796 1 17.4074 1.21799C17.7837 1.40973 18.0905 1.71547 18.2822 2.0918C18.5 2.5192 18.5 3.07899 18.5 4.19691V11.8036C18.5 12.9215 18.5 13.4805 18.2822 13.9079C18.0905 14.2842 17.7837 14.5905 17.4074 14.7822C16.98 15 16.421 15 15.3031 15H3.69691C2.57899 15 2.0192 15 1.5918 14.7822C1.21547 14.5905 0.909734 14.2842 0.717987 13.9079C0.5 13.4801 0.5 12.9203 0.5 11.8002Z" stroke="#1C3625" stroke-linecap="round" stroke-linejoin="round"/>
</svg>
