<svg width="80" height="86" viewBox="0 0 80 86" fill="none" xmlns="http://www.w3.org/2000/svg">
<path d="M73.3183 83.4551C72.9093 83.9634 72.3017 84.2556 71.6473 84.2556H7.99729C6.81707 84.2556 5.85887 83.2974 5.85887 82.1172V72.0619C5.85887 68.6264 7.97976 65.5766 11.0705 64.3087C11.0881 64.3555 11.129 64.3905 11.1582 64.4256C11.795 65.0624 12.8409 65.0624 13.4777 64.4256C13.84 64.0633 13.9977 63.5725 13.9451 63.1051C13.9276 62.7955 13.8166 62.5092 13.6179 62.2696C13.577 62.2054 13.5361 62.1469 13.4836 62.1002C12.8409 61.4575 11.795 61.4575 11.1523 62.1002C10.7784 62.4741 10.6265 63 10.7024 63.4791C10.7024 63.4966 10.7141 63.5083 10.7141 63.5258C7.32538 64.928 5 68.2817 5 72.0561V82.1113C5 83.7589 6.34381 85.1028 7.99144 85.1028H71.6414C72.5529 85.1028 73.4059 84.6938 73.9785 83.981C74.1246 83.794 74.0954 83.5252 73.9142 83.3792C73.7273 83.2331 73.4585 83.2623 73.3124 83.4434L73.3183 83.4551Z" fill="#1C3625" stroke="#1C3625" stroke-width="0.75" stroke-miterlimit="10"/>
<path d="M12.321 59.4941C12.5548 59.4941 12.7476 59.3013 12.7476 59.0676V54.896H34.2486C34.4823 54.896 34.6751 54.7032 34.6751 54.4694C34.6751 54.2357 34.4823 54.0429 34.2486 54.0429H22.7385C23.0891 49.0533 27.2549 45.092 32.3322 45.092H47.7685C50.6898 45.092 53.4242 46.4358 55.2354 48.6677C55.1186 48.9072 55.0718 49.1701 55.1127 49.4272C55.1419 49.6668 55.2413 49.8946 55.4049 50.0816C55.4224 50.1167 55.4516 50.1459 55.475 50.1751C55.9774 50.6776 56.8071 50.6776 57.3096 50.1751C57.5959 49.8888 57.7244 49.4973 57.6777 49.1351C57.6601 48.8897 57.5783 48.6618 57.4206 48.4749C57.3914 48.4223 57.3563 48.3814 57.3154 48.3405C56.9181 47.9432 56.3397 47.8672 55.8547 48.0834C53.8799 45.6879 50.9352 44.2448 47.7743 44.2448H40.3542V34.8615C40.4769 34.9082 40.6054 34.9491 40.7398 34.9666C40.9151 34.99 41.1137 35.0134 41.3299 35.0309C41.3474 35.0309 41.3649 35.0309 41.3825 35.0309C41.6454 35.0309 41.8732 34.8264 41.9025 34.5576C41.9317 34.2714 41.7213 34.0143 41.435 33.9909C41.2306 33.9734 41.0494 33.95 40.88 33.9266C40.5645 33.8857 40.3483 33.6287 40.3658 33.3073C40.4593 31.5311 40.9793 27.1491 43.7955 24.8004C46.6117 22.4458 51.0112 22.7146 52.7757 22.9424C53.0912 22.9833 53.3073 23.2404 53.2898 23.5617C53.1963 25.3379 52.6763 29.7199 49.8602 32.0687C48.9195 32.8574 47.7159 33.4125 46.2903 33.7397C46.2494 33.6228 46.191 33.5176 46.115 33.4183C46.0858 33.3716 46.0508 33.3248 46.0157 33.2898C45.5366 32.8107 44.7537 32.8107 44.2687 33.2898C43.9883 33.5702 43.8714 33.9617 43.9299 34.3239C43.9591 34.5518 44.0467 34.768 44.2045 34.9433C44.2162 34.9783 44.2454 35.0075 44.2687 35.0309C44.7478 35.51 45.5308 35.51 46.004 35.0309C46.0741 34.9608 46.1267 34.8907 46.1793 34.8147C47.9146 34.47 49.3811 33.8273 50.5262 32.8691C53.6579 30.2574 54.2305 25.5249 54.3298 23.6143C54.3766 22.7496 53.7631 22.0193 52.9042 21.9083C51.0053 21.6687 46.2552 21.3883 43.1236 23.9999C41.289 25.5307 40.3366 27.786 39.84 29.7725C39.3434 27.7801 38.391 25.5307 36.5564 23.9999C36.3636 23.8422 36.1708 23.6961 35.9722 23.5559C35.7326 23.3923 35.4113 23.4507 35.2477 23.6903C35.0841 23.9298 35.1425 24.2512 35.382 24.4148C35.5573 24.5375 35.7268 24.666 35.8904 24.8004C38.7065 27.155 39.2265 31.5311 39.32 33.3073C39.3375 33.6228 39.1214 33.8857 38.8058 33.9266C37.0472 34.1487 32.6418 34.4233 29.8257 32.0687C27.0095 29.7141 26.4895 25.3379 26.396 23.5617C26.3785 23.2462 26.5947 22.9833 26.9102 22.9424C27.6873 22.8431 29.0953 22.662 30.7371 22.8431C30.7839 23.0184 30.854 23.182 30.9767 23.3222C30.9884 23.3573 31.0176 23.3865 31.0468 23.4098C31.5317 23.8948 32.3205 23.8948 32.8054 23.4098C33.08 23.1352 33.2027 22.7613 33.156 22.4107C33.1443 22.1712 33.0567 21.955 32.9106 21.7797C32.8814 21.733 32.8463 21.6862 32.8113 21.6512C32.3205 21.1604 31.5317 21.1604 31.0409 21.6512C30.9884 21.7038 30.9475 21.7622 30.9066 21.8206C29.3875 21.6512 27.9969 21.7622 26.7816 21.9141C25.9228 22.0251 25.3093 22.7555 25.356 23.6202C25.4554 25.5307 26.0279 30.2574 29.1596 32.875C31.3506 34.7037 34.3304 35.1185 36.5798 35.1185C37.5438 35.1185 38.3735 35.0426 38.9461 34.9725C39.0805 34.9549 39.209 34.9199 39.3317 34.8673V44.2506H32.3614C26.8109 44.2506 22.2653 48.5917 21.9147 54.0546H12.7826V29.27C12.7534 14.2018 24.9996 1.95557 40.0503 1.95557C48.9838 1.95557 57.3855 6.40184 62.4628 13.676C62.1824 14.0324 62.0597 14.4822 62.1298 14.9088C62.1707 15.2126 62.2875 15.4989 62.4979 15.7384C62.5154 15.7852 62.5563 15.8202 62.5855 15.8553C63.2223 16.4921 64.2682 16.4921 64.905 15.8553C65.2673 15.493 65.425 15.0022 65.3724 14.5348C65.3549 14.2252 65.2439 13.9389 65.0453 13.6993C65.0044 13.6351 64.9635 13.5766 64.9109 13.5299C64.4318 13.0508 63.7365 12.9339 63.1406 13.1618C57.9055 5.6715 49.2525 1.10254 40.0503 1.10254C24.5264 1.10254 11.8945 13.7285 11.8945 29.2525V59.0676C11.8945 59.3013 12.0873 59.4941 12.321 59.4941Z" fill="#1C3625" stroke="#1C3625" stroke-width="0.75" stroke-miterlimit="10"/>
<path d="M44.1226 75.4855C45.0341 76.397 46.5356 76.397 47.4471 75.4855C47.9671 74.9656 48.195 74.2586 48.1132 73.5925C48.084 73.1426 47.932 72.7337 47.6458 72.3948C47.5932 72.3013 47.5289 72.2195 47.4529 72.1494C46.5298 71.2262 45.0341 71.2262 44.1109 72.1494C43.5734 72.6869 43.3514 73.4406 43.4624 74.13C43.515 74.5682 43.6903 74.9772 43.9941 75.3161C44.0233 75.3804 44.0759 75.433 44.1226 75.4797V75.4855Z" fill="#1C3625" stroke="#1C3625" stroke-width="0.75" stroke-miterlimit="10"/>
<path d="M40.9092 75.1001C41.6162 75.1001 42.1888 74.5275 42.1888 73.8206C42.1888 73.1136 41.6162 72.541 40.9092 72.541H31.9641C31.2572 72.541 30.6846 73.1136 30.6846 73.8206C30.6846 74.5275 31.2572 75.1001 31.9641 75.1001H40.9092Z" fill="#1C3625" stroke="#1C3625" stroke-width="0.75" stroke-miterlimit="10"/>
<path d="M75.8363 77.6589C75.8188 77.3492 75.7078 77.0629 75.5091 76.8234C75.4683 76.7591 75.4274 76.7007 75.3748 76.6539C75.1644 76.4436 74.9074 76.3092 74.6386 76.2332V72.0616C74.6386 67.9484 71.9276 64.4544 68.2058 63.2684V29.2524C68.2058 25.9571 67.6449 22.732 66.529 19.6646C66.4472 19.4425 66.2018 19.3257 65.9798 19.4075C65.7577 19.4893 65.6409 19.7347 65.7227 19.9567C66.7977 22.9306 67.3469 26.0623 67.3469 29.2582V54.0428H41.2653C41.2244 53.9143 41.1601 53.7974 41.0725 53.6864C41.0433 53.6338 41.0082 53.5929 40.9673 53.552C40.459 53.0437 39.6352 53.0437 39.1269 53.552C38.8289 53.85 38.7062 54.2648 38.7705 54.6446C38.7997 54.8841 38.899 55.112 39.0626 55.299C39.0801 55.334 39.1093 55.3633 39.1327 55.3925C39.6352 55.8949 40.4648 55.8949 40.9673 55.3925C41.1134 55.2464 41.2127 55.077 41.277 54.8958H67.3528V63.0464C66.7276 62.912 66.0791 62.836 65.4189 62.836H16.3054C16.0717 62.836 15.8789 63.0288 15.8789 63.2625C15.8789 63.4962 16.0717 63.689 16.3054 63.689H65.413C70.0287 63.689 73.7856 67.4459 73.7856 72.0616V76.2332C73.5168 76.3034 73.2597 76.4377 73.0494 76.6539C72.6755 77.0279 72.5235 77.5537 72.5995 78.0328C72.6404 78.3366 72.7573 78.6229 72.9676 78.8624C72.9851 78.9092 73.026 78.9442 73.0552 78.9793C73.6921 79.6162 74.7379 79.6162 75.3748 78.9793C75.737 78.6171 75.8948 78.1263 75.8422 77.6589H75.8363Z" fill="#1C3625" stroke="#1C3625" stroke-width="0.75" stroke-miterlimit="10"/>
</svg>
