<svg width="80" height="85" viewBox="0 0 80 85" fill="none" xmlns="http://www.w3.org/2000/svg">
<path d="M71.0669 46.5681C70.5436 47.0849 70.3369 47.8084 70.4403 48.4803C70.492 48.9002 70.6599 49.3007 70.9506 49.6237C70.9765 49.6883 71.0282 49.74 71.0734 49.7852C71.9519 50.6638 73.399 50.6638 74.284 49.7852C74.7879 49.2813 75.0075 48.603 74.93 47.9635C74.9042 47.5307 74.7556 47.1366 74.4778 46.8071C74.4261 46.7167 74.3615 46.6392 74.2905 46.5681C73.9481 46.2257 73.5282 46.019 73.0889 45.9415V27.1557C73.0889 25.4114 72.4558 23.7189 71.3059 22.4075L54.3031 2.91756C52.9271 1.34131 50.9439 0.443359 48.8573 0.443359H11.8606C8.07498 0.443359 5 3.51834 5 7.30393V77.5828C5 81.3684 8.07498 84.4434 11.8606 84.4434H66.2348C70.0204 84.4434 73.0954 81.3684 73.0954 77.5828V59.275C73.0954 59.0489 72.908 58.8616 72.6819 58.8616C72.4558 58.8616 72.2685 59.0489 72.2685 59.275V77.5828C72.2685 80.9097 69.5617 83.6165 66.2348 83.6165H38.4501V63.8617C38.5793 63.9133 38.715 63.9521 38.8636 63.9715C39.0574 63.9973 39.2641 64.0167 39.4967 64.0425C39.516 64.0425 39.5354 64.0425 39.5483 64.0425C39.8326 64.0425 40.0781 63.8229 40.1039 63.5322C40.1362 63.2221 39.9101 62.9508 39.6 62.9185C39.3804 62.8991 39.1801 62.8733 39.0057 62.8539C38.6633 62.8087 38.4307 62.5309 38.4501 62.1885C38.547 60.2828 39.1091 55.5734 42.1388 53.0411C45.1686 50.5087 49.8973 50.7994 51.7966 51.0449C52.139 51.0901 52.3715 51.3679 52.3522 51.7103C52.2553 53.616 51.6932 58.3254 48.6635 60.8577C47.6492 61.704 46.3572 62.3048 44.8262 62.6536C44.781 62.5309 44.7228 62.4146 44.6324 62.3112C44.6001 62.2596 44.5678 62.2143 44.5226 62.1756C44.0058 61.6588 43.166 61.6588 42.6427 62.1756C42.3391 62.4792 42.2163 62.8991 42.2809 63.2867C42.3132 63.5322 42.4101 63.7648 42.5781 63.9521C42.591 63.9909 42.6233 64.0167 42.6492 64.0425C43.1595 64.5529 44.0058 64.5529 44.5161 64.0425C44.5872 63.9715 44.6518 63.894 44.7035 63.81C46.5704 63.4353 48.1467 62.7505 49.3805 61.7234C52.7462 58.9133 53.3599 53.8292 53.4697 51.7749C53.515 50.8447 52.856 50.0565 51.9387 49.9403C49.8973 49.6818 44.7874 49.3782 41.4217 52.1883C39.4514 53.8357 38.4307 56.2582 37.8946 58.3965C37.3584 56.2582 36.3377 53.8357 34.3674 52.1883C34.1607 52.0204 33.9539 51.8589 33.7408 51.7103C33.4888 51.5359 33.1335 51.6005 32.9591 51.8524C32.7847 52.1044 32.8493 52.4597 33.1012 52.6341C33.2885 52.7633 33.4694 52.8989 33.6503 53.0475C36.6801 55.5734 37.2356 60.2828 37.3325 62.195C37.3519 62.5373 37.1194 62.8151 36.777 62.8603C34.8842 63.0994 30.149 63.3901 27.1192 60.8642C24.0894 58.3383 23.5339 53.6289 23.437 51.7168C23.4176 51.3744 23.6502 51.0966 23.9925 51.0514C24.8323 50.9416 26.344 50.7542 28.1076 50.9416C28.1528 51.1289 28.2303 51.3033 28.366 51.4584C28.3789 51.4971 28.4112 51.523 28.4371 51.5488C28.9539 52.0656 29.8066 52.0656 30.3298 51.5488C30.627 51.2516 30.7562 50.8511 30.711 50.47C30.6981 50.218 30.6076 49.979 30.4461 49.7917C30.4138 49.74 30.3815 49.6948 30.3363 49.6495C29.813 49.1263 28.9603 49.1263 28.4371 49.6495C28.3789 49.7077 28.3402 49.7723 28.2949 49.8304C26.6605 49.6495 25.1683 49.7658 23.8569 49.9338C22.9331 50.0501 22.2742 50.8382 22.3258 51.7684C22.4357 53.8227 23.0429 58.9068 26.4151 61.7169C28.773 63.6808 31.9772 64.1265 34.3932 64.1265C35.4333 64.1265 36.3183 64.0425 36.932 63.965C37.0806 63.9456 37.2163 63.9069 37.3455 63.8552V83.61H11.8606C8.53365 83.61 5.82689 80.9033 5.82689 77.5763V7.30393C5.82043 3.97055 8.52719 1.26379 11.8606 1.26379H48.8702C49.0446 1.26379 49.219 1.27671 49.3935 1.28963V19.2033C49.3935 23.5122 52.9013 27.02 57.2101 27.02H62.7528C62.8174 27.4011 62.9725 27.7629 63.2373 28.0601C63.2632 28.1247 63.3149 28.1763 63.3601 28.2216C64.2386 29.1001 65.6857 29.1001 66.5707 28.2216C67.0746 27.7177 67.2942 27.0394 67.2167 26.3998C67.1909 25.967 67.0423 25.5729 66.7645 25.2435C66.7128 25.153 66.6482 25.0755 66.5772 25.0045C65.6857 24.113 64.2386 24.113 63.3536 25.0045C63.0177 25.3404 62.8239 25.7603 62.7464 26.1996H57.2101C53.3599 26.1996 50.2203 23.0664 50.2203 19.2098V1.41237C51.5576 1.70307 52.7785 2.41367 53.6958 3.4602L70.6987 22.9502C71.7129 24.113 72.2749 25.6117 72.2749 27.1557V45.9415C71.8357 46.019 71.4158 46.2322 71.0734 46.5681H71.0669Z" fill="#1C3625" stroke="#1C3625" stroke-width="0.75" stroke-miterlimit="10"/>
<path d="M17.8746 22.1749C18.1718 21.8777 18.301 21.4837 18.2493 21.1025C18.2364 20.8506 18.146 20.618 17.9845 20.4242C17.9522 20.3725 17.9199 20.3273 17.8746 20.2821C17.3514 19.7588 16.5051 19.7588 15.9818 20.2821C15.6782 20.5857 15.5555 21.0121 15.6136 21.4061C15.6459 21.6516 15.7428 21.8842 15.9108 22.078C15.9237 22.1167 15.956 22.1426 15.9818 22.1684C16.4987 22.6852 17.3449 22.6852 17.8617 22.1684L17.8746 22.1749Z" fill="#1C3625" stroke="#1C3625" stroke-width="0.75" stroke-miterlimit="10"/>
<path d="M34.0836 26.6068C33.5604 26.0835 32.7141 26.0835 32.1908 26.6068C31.8872 26.9104 31.7645 27.3368 31.8226 27.7309C31.8549 27.9763 31.9518 28.2089 32.1198 28.4027C32.1327 28.4415 32.165 28.4673 32.1908 28.4931C32.7076 29.0099 33.5539 29.0099 34.0707 28.4931C34.3679 28.196 34.4971 27.8019 34.4454 27.4208C34.4325 27.1688 34.342 26.9363 34.1805 26.7425C34.1482 26.6908 34.1159 26.6456 34.0707 26.6003L34.0836 26.6068Z" fill="#1C3625" stroke="#1C3625" stroke-width="0.75" stroke-miterlimit="10"/>
<path d="M37.6103 21.2253C37.6103 20.7667 37.242 20.3984 36.7834 20.3984H21.0984C20.6397 20.3984 20.2715 20.7667 20.2715 21.2253C20.2715 21.684 20.6397 22.0522 21.0984 22.0522H36.7834C37.242 22.0522 37.6103 21.684 37.6103 21.2253Z" fill="#1C3625" stroke="#1C3625" stroke-width="0.75" stroke-miterlimit="10"/>
<path d="M17.3581 28.3701H29.9875C30.4462 28.3701 30.8144 28.0019 30.8144 27.5432C30.8144 27.0845 30.4462 26.7163 29.9875 26.7163H17.3581C16.8995 26.7163 16.5312 27.0845 16.5312 27.5432C16.5312 28.0019 16.8995 28.3701 17.3581 28.3701Z" fill="#1C3625" stroke="#1C3625" stroke-width="0.75" stroke-miterlimit="10"/>
</svg>
