<svg width="87" height="85" viewBox="0 0 87 85" fill="none" xmlns="http://www.w3.org/2000/svg">
<path d="M86.6518 52.599C86.6174 52.0833 86.4397 51.6019 86.1131 51.2123C86.0501 51.1091 85.9756 51.0117 85.8896 50.9258C84.8238 49.8599 83.0875 49.8599 82.0159 50.9258C81.6663 51.2753 81.4428 51.7051 81.3282 52.1521H70.4463L65.2374 57.361H44.1095V46.5478C44.2929 46.6165 44.482 46.6738 44.6883 46.7025C44.9576 46.7369 45.2499 46.7712 45.5708 46.7999C45.5937 46.7999 45.6223 46.7999 45.6453 46.7999C46.0464 46.7999 46.3845 46.4962 46.4246 46.0893C46.4647 45.6596 46.1495 45.2756 45.7198 45.2355C45.416 45.2069 45.1353 45.1725 44.8831 45.1438C44.4075 45.0808 44.0809 44.6911 44.1095 44.2155C44.2471 41.5509 45.0321 34.9667 49.2611 31.4311C53.4959 27.8954 60.1087 28.2965 62.7561 28.6346C63.2318 28.6977 63.5584 29.0873 63.5297 29.563C63.3922 32.2276 62.6071 38.8175 58.3781 42.3474C56.957 43.5336 55.1577 44.3702 53.0145 44.8573C52.9515 44.6854 52.8655 44.5192 52.7452 44.376C52.7051 44.3072 52.6535 44.2384 52.5962 44.1811C51.8742 43.4591 50.6937 43.4591 49.9717 44.1811C49.5476 44.6052 49.3757 45.1897 49.4617 45.7398C49.5075 46.0836 49.6393 46.4045 49.88 46.6738C49.9029 46.7254 49.943 46.7655 49.9831 46.8056C50.6994 47.5219 51.8742 47.5219 52.5905 46.8056C52.6936 46.7025 52.7796 46.5936 52.8541 46.479C55.4614 45.9575 57.6676 44.9948 59.3867 43.5565C64.0913 39.6255 64.9509 32.5198 65.0999 29.6489C65.1686 28.3481 64.246 27.2479 62.9567 27.0817C60.103 26.715 52.9629 26.2967 48.2583 30.2277C46.2527 31.9009 44.9576 34.1473 44.1095 36.3993V20.4116C44.2929 20.4803 44.482 20.5376 44.6883 20.5663C44.9576 20.6007 45.2499 20.635 45.5708 20.6637C45.5937 20.6637 45.6223 20.6637 45.6453 20.6637C46.0464 20.6637 46.3845 20.36 46.4246 19.9531C46.4647 19.5234 46.1495 19.1394 45.7198 19.0993C45.416 19.0707 45.1353 19.0363 44.8831 19.0076C44.4075 18.9446 44.0809 18.5549 44.1095 18.0793C44.2471 15.4147 45.0321 8.83049 49.2611 5.29486C53.4959 1.75922 60.1087 2.16035 62.7561 2.49844C63.2318 2.56147 63.5584 2.95114 63.5297 3.42676C63.3922 6.09138 62.6071 12.6813 58.3781 16.2112C56.957 17.3974 55.1577 18.234 53.0145 18.7211C52.9515 18.5492 52.8655 18.383 52.7452 18.2398C52.7051 18.1653 52.6535 18.1022 52.5962 18.0449C51.8742 17.3229 50.6937 17.3229 49.9717 18.0449C49.5476 18.469 49.3757 19.0535 49.4617 19.6036C49.5075 19.9474 49.6393 20.2683 49.88 20.5376C49.9029 20.5892 49.943 20.6293 49.9831 20.6694C50.6994 21.3857 51.8742 21.3857 52.5905 20.6694C52.6936 20.5663 52.7796 20.4574 52.8541 20.3428C55.4614 19.8213 57.6676 18.8586 59.3867 17.4203C64.0913 13.4893 64.9509 6.38363 65.0999 3.51271C65.1686 2.21192 64.246 1.11169 62.9567 0.94551C60.103 0.578767 52.9629 0.16045 48.2583 4.09148C45.502 6.38936 44.0751 9.77601 43.3245 12.7673C42.5795 9.77601 41.1469 6.38936 38.3906 4.09148C38.1041 3.85654 37.8118 3.63305 37.5139 3.42676C37.1586 3.18035 36.6715 3.27204 36.4251 3.62732C36.1787 3.9826 36.2704 4.46969 36.6257 4.71609C36.8893 4.89946 37.1414 5.08856 37.3878 5.29486C41.6225 8.83049 42.4019 15.4147 42.5394 18.0793C42.5623 18.5549 42.2414 18.9446 41.7658 19.0076C39.1184 19.3457 32.4998 19.7526 28.2708 16.2112C24.036 12.6756 23.2567 6.09138 23.1192 3.42676C23.0963 2.95114 23.4229 2.56147 23.8928 2.49844C25.0618 2.34945 27.1763 2.08012 29.6403 2.34945C29.7091 2.61305 29.8123 2.85945 30.0014 3.06575C30.0243 3.11732 30.0644 3.15743 30.1045 3.19754C30.8323 3.9253 32.0242 3.9253 32.7462 3.19754C33.1588 2.78496 33.3422 2.22338 33.2791 1.69619C33.2562 1.34091 33.1359 1.01427 32.9067 0.744948C32.8608 0.670453 32.8092 0.607419 32.7519 0.550115C32.0184 -0.183372 30.8265 -0.183372 30.093 0.550115C30.0128 0.63034 29.9555 0.716296 29.8925 0.807982C27.6118 0.550115 25.5202 0.716296 23.6922 0.951241C22.4029 1.11742 21.4803 2.21765 21.5491 3.51844C21.6981 6.38936 22.5576 13.495 27.2622 17.426C30.5515 20.1766 35.0384 20.7955 38.4135 20.7955C39.8633 20.7955 41.1068 20.6809 41.9664 20.572C42.1727 20.5434 42.3618 20.4861 42.5451 20.4173V36.3993C41.697 34.1473 40.402 31.9009 38.3963 30.2277C38.1098 29.9927 37.8176 29.7693 37.5196 29.563C37.1643 29.3166 36.6772 29.4082 36.4308 29.7635C36.1844 30.1188 36.2761 30.6059 36.6314 30.8523C36.895 31.0357 37.1471 31.2248 37.3935 31.4311C41.6283 34.9667 42.4076 41.5509 42.5451 44.2155C42.5681 44.6911 42.2472 45.0808 41.7715 45.1438C39.1241 45.4819 32.5055 45.8888 28.2765 42.3474C24.0418 38.8118 23.2624 32.2276 23.1249 29.563C23.102 29.0873 23.4286 28.6919 23.8985 28.6346C25.0675 28.4857 27.182 28.2163 29.6461 28.4856C29.7148 28.7492 29.818 28.9957 30.0071 29.2019C30.03 29.2535 30.0701 29.2936 30.1102 29.3337C30.838 30.0615 32.0299 30.0615 32.7519 29.3337C33.1645 28.9212 33.3479 28.3596 33.2849 27.8324C33.2619 27.4771 33.1416 27.1505 32.9124 26.8811C32.8665 26.8067 32.815 26.7436 32.7577 26.6863C32.0242 25.9528 30.8323 25.9528 30.0988 26.6863C30.0185 26.7665 29.9612 26.8525 29.8982 26.9442C27.6175 26.6863 25.5259 26.8525 23.698 27.0874C22.4086 27.2536 21.486 28.3539 21.5548 29.6546C21.7038 32.5256 22.5633 39.6312 27.268 43.5622C30.5572 46.3128 35.0441 46.9317 38.4193 46.9317C39.8691 46.9317 41.1125 46.8171 41.9721 46.7082C42.1784 46.6796 42.3675 46.6223 42.5509 46.5535V54.7651H23.973L18.5635 60.1746H5.30921C5.21753 59.8766 5.08 59.6015 4.87943 59.3551C4.8164 59.252 4.7419 59.1546 4.65595 59.0686C3.5901 57.997 1.8538 57.997 0.782222 59.0686C0.157612 59.6932 -0.0945245 60.5585 0.0315436 61.3665C0.0945776 61.8765 0.29514 62.3521 0.644693 62.7418C0.679075 62.8163 0.742109 62.8793 0.793682 62.9309C1.8538 63.991 3.5901 63.991 4.64449 62.9309C4.96539 62.61 5.18314 62.226 5.30921 61.8192H19.2455L24.6549 56.4097H42.5509V64.0025V69.8589H27.9212C27.8295 69.6182 27.7035 69.3947 27.5316 69.1884C27.4685 69.0853 27.394 68.9879 27.3081 68.9019C26.2365 67.8303 24.5059 67.8303 23.4344 68.9019C22.8097 69.5265 22.5576 70.3918 22.6837 71.1998C22.7467 71.7098 22.9473 72.1854 23.2968 72.5751C23.3312 72.6496 23.3942 72.7126 23.4458 72.7642C24.5059 73.8243 26.2365 73.8243 27.2966 72.7642C27.6576 72.4032 27.8811 71.9619 27.9957 71.5035H35.2676V80.4486H16.0766C15.9849 80.1506 15.8474 79.8698 15.6468 79.6292C15.5838 79.526 15.5093 79.4286 15.4233 79.3427C14.3575 78.2768 12.6212 78.2768 11.5496 79.3427C10.925 79.9673 10.6728 80.8325 10.7989 81.6405C10.8619 82.1505 11.0625 82.6261 11.4121 83.0158C11.4464 83.0903 11.5095 83.1533 11.561 83.2049C12.6212 84.265 14.3575 84.265 15.4118 83.2049C15.7327 82.884 15.9505 82.5001 16.0766 82.0932H36.9179V71.5035H44.1955V65.6471H48.3557V82.0932H52.9572C53.0604 82.4313 53.2265 82.7408 53.4672 83.0158C53.5016 83.0903 53.5646 83.1533 53.6162 83.2049C54.6763 84.265 56.4069 84.265 57.467 83.2049C58.0687 82.6032 58.3323 81.7895 58.2406 81.0159C58.2062 80.5002 58.0286 80.0188 57.7019 79.6292C57.6389 79.526 57.5644 79.4286 57.4785 79.3427C56.4069 78.2768 54.6763 78.2768 53.6047 79.3427C53.2838 79.6636 53.0661 80.0418 52.94 80.4486H50.0003V65.6471H76.0219V74.2484C75.6151 74.3744 75.2311 74.5864 74.9102 74.9131C74.2856 75.5377 74.0335 76.403 74.1596 77.211C74.2226 77.721 74.4232 78.1966 74.7727 78.5862C74.8071 78.6607 74.8701 78.7238 74.9217 78.7753C75.9818 79.8355 77.7124 79.8355 78.7725 78.7753C79.3742 78.1737 79.6378 77.3599 79.5461 76.5863C79.5117 76.0706 79.3341 75.5893 79.0074 75.1996C78.9444 75.0964 78.8699 74.999 78.784 74.9131C78.4631 74.5922 78.0734 74.3802 77.6665 74.2484V64.0025H49.5018H44.1153V59.0113H65.925L71.1339 53.8024H81.4142C81.5173 54.0889 81.6721 54.364 81.8841 54.6047C81.9185 54.6792 81.9815 54.7422 82.0331 54.7938C83.0932 55.8539 84.8295 55.8539 85.8839 54.7938C86.4856 54.1921 86.7492 53.3784 86.6575 52.6048L86.6518 52.599ZM43.3531 38.8404C43.3531 38.8404 43.3417 38.8863 43.3359 38.9092C43.3359 38.8863 43.3245 38.8633 43.3187 38.8404H43.3588H43.3531Z" fill="#1C3625"/>
</svg>
