<svg width="81" height="86" viewBox="0 0 81 86" fill="none" xmlns="http://www.w3.org/2000/svg">
<path d="M1.25719 37.9508C1.25719 23.0822 10.2809 10.2815 23.1442 4.73286L23.2296 5.51902C23.4803 7.8433 23.6797 9.68336 23.9246 11.1019C24.688 15.5681 26.0154 16.2688 30.5215 16.5024C36.3892 16.8043 38.7192 21.9485 40.5877 26.0844C41.4992 28.1011 41.1232 30.4595 39.6591 31.9635C38.3546 33.2965 36.5601 33.6212 34.7371 32.8522C32.9483 32.0945 31.0741 32.2483 29.5644 33.1541C28.9036 32.7781 28.0491 32.8636 27.4851 33.4276C27.092 33.8206 26.9268 34.3732 27.0123 34.8802C27.0522 35.1992 27.1775 35.5012 27.3997 35.7518C27.4225 35.7974 27.4623 35.8373 27.4908 35.8715C28.163 36.5437 29.2568 36.5437 29.929 35.8715C30.3107 35.4898 30.4759 34.9771 30.419 34.4872C30.4019 34.2422 30.3164 34.02 30.1968 33.8149C31.4444 33.1484 32.9483 33.0573 34.3896 33.6668C36.5373 34.5726 38.7419 34.1681 40.2858 32.5844C42.0005 30.8241 42.4448 28.0669 41.3852 25.7255C39.5224 21.601 36.9646 15.9555 30.5614 15.6251C26.4255 15.4143 25.4742 14.9871 24.7849 10.9594C24.5456 9.56373 24.3462 7.74076 24.0955 5.42787L23.9816 4.39105C28.1346 2.7219 32.6635 1.79902 37.4032 1.79902C43.3734 1.79902 48.9847 3.22321 53.9352 5.74119C54.5163 10.948 54.0264 13.9047 53.377 15.7903C52.9269 15.739 52.4598 15.8815 52.1123 16.2233C51.7648 16.5651 51.6166 17.0664 51.6907 17.5164C51.7249 17.8013 51.8388 18.069 52.0382 18.2912C52.0553 18.3311 52.0895 18.371 52.1237 18.3994C52.7218 18.9976 53.696 18.9976 54.2941 18.3994C54.6359 18.0576 54.7841 17.6019 54.7271 17.1632C54.71 16.8727 54.6075 16.605 54.4252 16.3828C54.391 16.3258 54.3454 16.2688 54.2998 16.2233C54.2656 16.1891 54.2201 16.1606 54.1859 16.1264C54.9151 14.0642 55.3651 11.1531 54.8809 6.23111C62.2696 10.2758 68.0689 16.8214 71.1395 24.7912C68.4962 25.2812 55.5531 27.4117 53.1092 22.8714C52.5623 21.8574 52.3401 21.1111 52.38 20.4503C52.3971 20.2053 52.2091 20.0002 51.9699 19.9831C51.7249 19.9661 51.5198 20.154 51.5027 20.3933C51.4514 21.2307 51.7078 22.1251 52.3344 23.2873C53.7302 25.885 57.8546 26.5914 61.9563 26.5914C66.058 26.5914 70.2166 25.8622 71.4471 25.6287C72.4896 28.5397 73.1732 31.6274 73.441 34.846C73.1789 34.9315 72.934 35.0739 72.7289 35.279C72.313 35.6949 72.1421 36.2702 72.2276 36.8057C72.2674 37.1419 72.4042 37.4609 72.6377 37.7229C72.6605 37.7742 72.7004 37.8141 72.7346 37.8483C73.0764 38.1901 73.5207 38.361 73.9708 38.3724C73.9879 38.3724 73.9993 38.3838 74.0163 38.3838C74.0334 38.3838 74.0448 38.3781 74.0619 38.3724C74.512 38.361 74.962 38.1901 75.3038 37.8483C75.7083 37.4438 75.8792 36.9026 75.8165 36.3899C75.7937 36.0424 75.6741 35.729 75.4576 35.467C75.4178 35.3986 75.3665 35.3303 75.3095 35.279C75.0304 34.9999 74.6829 34.8347 74.324 34.772C72.7175 15.6308 56.8919 0.916016 37.4146 0.916016C32.4698 0.916016 27.7529 1.89586 23.4404 3.66186C23.3834 3.67326 23.3265 3.69605 23.2809 3.72453C9.84792 9.29029 0.379883 22.5353 0.379883 37.9508C0.379883 41.9215 1.00653 45.8294 2.23703 49.5665C2.2997 49.7488 2.4706 49.8685 2.65289 49.8685C2.69847 49.8685 2.74404 49.8628 2.78962 49.8457C3.02319 49.7716 3.14851 49.521 3.06876 49.2874C1.86674 45.6415 1.25719 41.8246 1.25719 37.9451V37.9508Z" fill="#1C3625" stroke="#1C3625" stroke-width="0.75" stroke-miterlimit="10"/>
<path d="M79.9813 44.1432C79.8389 44.1318 65.6425 42.7361 61.3528 35.8544C61.1933 35.598 60.7661 35.598 60.6066 35.8544C56.3169 42.7361 42.1262 44.1318 41.9781 44.1432C41.7502 44.166 41.5793 44.354 41.5793 44.5818V59.5188C41.7559 64.0933 45.0316 68.571 48.8313 72.2682C45.1626 73.4702 41.2318 74.114 37.4093 74.114C31.4448 74.114 25.6853 72.61 20.5696 69.9097C22.2046 69.021 25.5315 66.6284 24.5232 62.1792C23.2984 56.773 23.7371 56.3001 26.1753 53.6682C28.3856 51.2813 30.4991 47.1796 28.021 41.1752C27.6906 40.3719 27.514 39.563 27.4912 38.7597C27.4855 38.5148 27.2861 38.3325 27.0412 38.3325C26.7962 38.3382 26.6082 38.5433 26.6139 38.7825C26.6424 39.694 26.8418 40.6112 27.2121 41.5113C29.0578 45.989 28.4939 49.8742 25.5372 53.0701C22.8484 55.9754 22.3869 56.6989 23.6687 62.3786C24.6884 66.8734 20.6893 68.9413 19.6468 69.397C13.9329 66.1613 9.09635 61.4101 5.81501 55.5368C5.8321 55.5197 5.85489 55.5083 5.86628 55.4912C6.19669 55.1608 6.33911 54.7164 6.28784 54.3006C6.27075 54.0157 6.17391 53.7594 5.99161 53.5429C5.95743 53.4859 5.91755 53.4346 5.87198 53.3891C5.29091 52.808 4.34524 52.808 3.76417 53.3891C3.42237 53.7309 3.28564 54.2037 3.354 54.6424C3.38818 54.9215 3.49642 55.1779 3.69011 55.3943C3.7072 55.4342 3.74138 55.4684 3.76987 55.4969C4.10598 55.833 4.57311 55.9697 5.01746 55.9127C8.37856 61.957 13.3461 66.8563 19.2309 70.1775C19.305 70.2686 19.4018 70.3313 19.5214 70.3484C24.9163 73.3335 31.0574 75.0084 37.415 75.0084C41.4825 75.0084 45.681 74.302 49.5605 72.9746C54.642 77.7086 60.3445 81.0014 60.7661 81.2406C60.8344 81.2805 60.9085 81.2976 60.9825 81.2976C61.0566 81.2976 61.1307 81.2805 61.199 81.2406C61.2104 81.2349 62.3441 80.5855 64.0189 79.4746C64.5658 79.9019 65.3634 79.8677 65.8704 79.3664C66.1837 79.0531 66.3147 78.6372 66.2692 78.2384C66.2521 77.9707 66.1609 77.7257 65.99 77.5263C65.9558 77.4694 65.9216 77.4238 65.8761 77.3782C65.3235 76.8256 64.4348 76.8256 63.8822 77.3782C63.5632 77.6972 63.4322 78.1473 63.4948 78.5631C63.5005 78.6258 63.529 78.6828 63.5404 78.7398C62.3099 79.5544 61.3813 80.1127 60.9769 80.3519C58.9032 79.1271 42.8326 69.2888 42.4566 59.5188V44.9977C44.8208 44.73 56.5049 43.1007 60.9769 36.8969C65.4488 43.1007 77.1329 44.73 79.497 44.9977V59.5017C79.292 64.8681 74.3016 70.2288 70.1487 73.7779C69.9664 73.9374 69.9436 74.2165 70.1031 74.3988C70.2626 74.5868 70.5417 74.6039 70.724 74.4444C76.9563 69.1122 80.2035 64.0933 80.3801 59.5131V44.5932C80.3801 44.3654 80.2091 44.1774 79.9813 44.1546V44.1432Z" fill="#1C3625" stroke="#1C3625" stroke-width="0.75" stroke-miterlimit="10"/>
<path d="M69.4419 60.9431C68.6443 61.6097 67.636 62.0825 66.4283 62.3559C66.3941 62.2591 66.3485 62.1679 66.2801 62.0825C66.2574 62.0426 66.2289 62.0084 66.1947 61.9743C65.7902 61.5698 65.1294 61.5698 64.7192 61.9743C64.48 62.2135 64.3831 62.5439 64.4344 62.8459C64.4572 63.0396 64.5369 63.2219 64.668 63.37C64.6794 63.3985 64.7021 63.4212 64.7249 63.444C65.1294 63.8485 65.7902 63.8485 66.189 63.444C66.246 63.3871 66.2972 63.3244 66.3371 63.2617C67.8012 62.9712 69.0431 62.43 70.0058 61.6211C72.6491 59.4164 73.1334 55.423 73.2131 53.8108C73.253 53.0816 72.7346 52.4606 72.0111 52.3695C70.4103 52.1644 66.3941 51.9308 63.7565 54.1355C62.207 55.4287 61.4037 57.3314 60.9878 59.0062C60.5663 57.3257 59.763 55.423 58.2192 54.1298C58.0597 53.9988 57.8945 53.8734 57.7236 53.7538C57.5242 53.6171 57.2508 53.6683 57.114 53.8677C56.9773 54.0671 57.0286 54.3406 57.228 54.4773C57.3761 54.5798 57.5185 54.6881 57.6552 54.802C60.0308 56.7902 60.4694 60.4874 60.5492 61.98C60.5606 62.2477 60.3783 62.4699 60.1105 62.5041C58.6237 62.692 54.9094 62.9199 52.5281 60.9374C50.1526 58.9493 49.7139 55.2521 49.6342 53.7595C49.6228 53.4917 49.8051 53.2696 50.0671 53.2354C50.7223 53.1499 51.9129 53.0018 53.2972 53.1499C53.3371 53.2981 53.394 53.4348 53.4966 53.5544C53.508 53.5829 53.5308 53.6057 53.5536 53.6285C53.9637 54.0386 54.6302 54.0386 55.0404 53.6285C55.274 53.3949 55.3765 53.0816 55.3366 52.7853C55.3252 52.586 55.2569 52.4037 55.1259 52.2498C55.1031 52.21 55.0746 52.1701 55.0404 52.1416C54.6302 51.7314 53.958 51.7314 53.5479 52.1416C53.5023 52.1872 53.4681 52.2385 53.4339 52.284C52.1521 52.1416 50.9786 52.2328 49.9532 52.3638C49.2297 52.4549 48.7113 53.0759 48.7512 53.8051C48.8366 55.4173 49.3152 59.405 51.9585 61.6154C53.8099 63.1592 56.3222 63.5067 58.2192 63.5067C59.0339 63.5067 59.7346 63.444 60.2131 63.3814C60.327 63.3643 60.4353 63.3358 60.5378 63.2959V68.161C60.2871 68.235 60.0536 68.3603 59.8542 68.554C59.4896 68.9186 59.3472 69.4199 59.4212 69.8871C59.4554 70.1833 59.575 70.4568 59.7744 70.6846C59.7915 70.7302 59.8314 70.7644 59.8599 70.7929C60.4751 71.4081 61.4778 71.4081 62.093 70.7929C62.4405 70.4454 62.5943 69.9725 62.5431 69.5225C62.526 69.2206 62.4177 68.9471 62.2297 68.7192C62.1956 68.6566 62.15 68.6053 62.0987 68.554C61.8993 68.3547 61.6658 68.2293 61.4151 68.161V63.2959C61.5176 63.3358 61.6259 63.37 61.7398 63.3814C61.8879 63.3984 62.0531 63.4212 62.2354 63.4383C62.2468 63.4383 62.2639 63.4383 62.2753 63.4383C62.4975 63.4383 62.6912 63.2674 62.714 63.0396C62.7368 62.8003 62.5602 62.5838 62.3152 62.561C62.1443 62.5439 61.9848 62.5268 61.8481 62.5098C61.5803 62.4756 61.398 62.2534 61.4094 61.9856C61.4892 60.4874 61.9278 56.7902 64.3034 54.8077C66.6789 52.8195 70.3932 53.0474 71.8858 53.2411C72.1535 53.2753 72.3358 53.4974 72.3244 53.7652C72.2447 55.2634 71.806 58.9607 69.4305 60.9431H69.4419Z" fill="#1C3625" stroke="#1C3625" stroke-width="0.75" stroke-miterlimit="10"/>
</svg>
