<svg width="82" height="86" viewBox="0 0 82 86" fill="none" xmlns="http://www.w3.org/2000/svg">
<path d="M77.6284 61.3067C77.6284 62.0915 78.14 62.7358 78.8492 62.9291C79.0003 62.9876 79.1572 63.0052 79.3142 63.0052C79.4712 63.0052 79.6281 62.9876 79.7792 62.9291C80.4943 62.7358 81 62.0915 81 61.3067C81 60.5219 80.4884 59.866 79.7792 59.6727V46.618C80.4943 46.4248 81 45.7805 81 44.9957C81 44.2109 80.4884 43.555 79.7792 43.3617V39.9941C79.7792 36.1638 76.6809 33.048 72.8849 33.048H63.6421V32.9543C63.6421 18.8923 53.5854 7.44234 41.2325 7.44234C34.7916 7.44234 28.9727 10.564 24.8919 15.5363C24.235 16.3211 23.6246 17.1587 23.0666 18.0489C21.3226 20.784 20.0554 23.9232 19.3869 27.3201C19.3578 27.3084 19.3229 27.3084 19.2939 27.3084C18.3579 27.3084 17.6081 28.0639 17.6081 29.0068C17.6081 29.8268 18.1719 30.5003 18.9334 30.6584C19.0555 30.6936 19.1718 30.7053 19.2939 30.7053C19.4973 30.7053 19.6833 30.6701 19.8577 30.5999C20.5146 30.3773 20.9797 29.7389 20.9797 29.001C20.9797 28.4212 20.7006 27.9175 20.2646 27.6188C20.8925 24.3507 22.1016 21.3228 23.7467 18.6931C24.3396 17.7326 24.9965 16.8248 25.7115 15.9756C29.6121 11.2902 35.1288 8.3677 41.2267 8.3677C53.0738 8.3677 62.712 19.3959 62.712 32.9426V33.0363H13.9749V32.9426C13.9749 15.753 26.1998 1.76716 41.2325 1.76716C52.6669 1.76716 62.4911 9.86117 66.5137 21.3111C66.0952 21.6215 65.8162 22.1252 65.8162 22.6933C65.8162 23.6069 66.537 24.3566 67.438 24.3859C67.4555 24.3976 67.4845 24.3976 67.502 24.3976C67.8101 24.3976 68.0833 24.3156 68.3332 24.175V24.1633C68.8506 23.8822 69.1936 23.3317 69.1936 22.6991C69.1936 21.7562 68.4321 20.989 67.4961 20.989C67.4613 20.989 67.4206 20.989 67.3857 21.0007C63.2235 9.18764 53.068 0.835938 41.2325 0.835938C25.6883 0.835938 13.0448 15.2435 13.0448 32.9426V33.0363H7.89435C4.09257 33.0363 1 36.1579 1 39.9824V68.7682C1 77.9282 8.39428 85.3779 17.4976 85.3779H63.2933C66.8451 85.3779 70.1411 84.2359 72.8384 82.2973C73.7278 81.6647 74.5416 80.9502 75.2857 80.1479C77.3436 77.9516 78.8085 75.1989 79.4363 72.1358C80.314 72.0773 81 71.3393 81 70.4374C81 69.6643 80.4884 69.0083 79.7792 68.8151C79.6281 68.7565 79.4712 68.7389 79.3142 68.7389C79.1572 68.7389 79.0003 68.7565 78.8492 68.8151C78.1341 69.0083 77.6284 69.6643 77.6284 70.4374C77.6284 71.0933 77.9888 71.6614 78.5294 71.9484C77.9481 74.8065 76.5937 77.3835 74.6812 79.4392C73.9371 80.2416 73.1174 80.9619 72.2222 81.5886C69.6935 83.3925 66.6067 84.4467 63.2875 84.4467H17.4918C8.91164 84.4467 1.91847 77.4128 1.91847 68.7682V39.9824C1.91847 36.6674 4.59831 33.9675 7.88853 33.9675H72.8791C76.1693 33.9675 78.8492 36.6674 78.8492 39.9824V43.35C78.1341 43.5433 77.6284 44.1992 77.6284 44.984C77.6284 45.7688 78.14 46.4131 78.8492 46.6063V59.661C78.1341 59.8543 77.6284 60.5102 77.6284 61.295V61.3067Z" fill="#1C3625" stroke="#1C3625" stroke-width="0.75" stroke-miterlimit="10"/>
<path d="M60.9454 49.8624C60.8059 52.5096 60.0269 59.0692 55.7252 62.6828C54.1905 63.9771 52.185 64.8791 49.761 65.3652L49.697 65.3769L49.6563 65.4413C49.5924 65.5409 49.5168 65.6346 49.4354 65.7166C48.8367 66.3198 47.8543 66.3198 47.2555 65.7166C47.2381 65.6931 47.209 65.6639 47.1974 65.6463L47.1741 65.5994C46.9823 65.3886 46.866 65.1192 46.8312 64.8146C46.7614 64.3402 46.9184 63.8541 47.2555 63.5086C47.8601 62.9053 48.8483 62.9053 49.4471 63.5086C49.4936 63.5554 49.5343 63.6081 49.5749 63.6784C49.668 63.7897 49.7377 63.9244 49.7958 64.0767L49.8423 64.2172L49.9877 64.1821C51.999 63.7194 53.6848 62.9229 55.0102 61.8101C58.9689 58.4776 59.7014 52.2988 59.8235 49.798C59.8583 49.265 59.4921 48.8316 58.9689 48.7613C56.5042 48.4451 50.3423 48.0585 46.3777 51.4027C42.419 54.7293 41.6866 60.914 41.5587 63.4149C41.5354 63.9478 41.89 64.3812 42.419 64.4457C42.6515 64.4808 42.9073 64.5042 43.198 64.5335C43.3491 64.5511 43.477 64.6272 43.5758 64.7385C43.6746 64.8556 43.7153 65.002 43.6979 65.1543C43.6746 65.4472 43.4305 65.6697 43.1456 65.6697H43.0875C42.7969 65.6346 42.5236 65.6111 42.2795 65.576C42.1225 65.5584 41.9656 65.5116 41.7854 65.4354L41.5645 65.3476V73.7637L41.6807 73.8047C42.0935 73.9219 42.4481 74.1268 42.7329 74.4138C42.8027 74.4841 42.8724 74.5661 42.9364 74.6774C43.227 75.0229 43.384 75.4387 43.4189 75.9249C43.5061 76.6394 43.2561 77.3598 42.7271 77.8927C42.2679 78.3554 41.6575 78.6072 41.0064 78.6072C40.3554 78.6072 39.7392 78.3495 39.2857 77.8927C39.245 77.8517 39.1985 77.8049 39.1811 77.7639L39.1579 77.717C38.8556 77.3832 38.6696 76.9556 38.6114 76.4812C38.4952 75.7316 38.7393 74.9585 39.2857 74.4197C39.5648 74.1327 39.9194 73.9277 40.3379 73.8106L40.4542 73.7754V65.3476L40.2333 65.4354C40.0531 65.5057 39.8961 65.5526 39.7392 65.576C39.0009 65.6697 37.8383 65.781 36.478 65.781C33.5017 65.781 29.3279 65.2422 26.2818 62.6828C21.9917 59.0692 21.207 52.5096 21.0675 49.8624C21.0093 48.7437 21.7999 47.7832 22.8986 47.6485C24.3984 47.4553 26.3923 47.2678 28.5896 47.5197H28.6943L28.7466 47.4436C28.7989 47.3733 28.8454 47.2971 28.9093 47.2327C29.5023 46.6353 30.5428 46.6353 31.1358 47.2327C31.1823 47.2796 31.223 47.3323 31.2637 47.4026C31.4439 47.6251 31.5485 47.8945 31.5717 48.2049C31.6299 48.6676 31.4671 49.1303 31.1299 49.4641C30.5254 50.0791 29.5255 50.0791 28.921 49.4641C28.9035 49.4466 28.8687 49.4114 28.8628 49.3997L28.8396 49.3528C28.7001 49.2006 28.6071 49.0073 28.5373 48.7555L28.5141 48.6442L28.4036 48.6325C26.1016 48.3806 24.1193 48.6383 23.0555 48.773C22.5324 48.8433 22.1661 49.2767 22.1952 49.8097C22.3231 52.3164 23.0555 58.4894 27.0143 61.8218C30.9672 65.1543 37.1407 64.7736 39.6055 64.4574C40.1345 64.3929 40.4949 63.9595 40.4658 63.4266C40.3379 60.9199 39.6055 54.7469 35.6467 51.4144C35.4258 51.2211 35.1817 51.0396 34.9317 50.8639C34.8096 50.776 34.7283 50.6472 34.705 50.5008C34.6701 50.3485 34.705 50.1962 34.7922 50.0791C34.8794 49.9561 35.0073 49.8682 35.1584 49.8448C35.3038 49.8214 35.4491 49.8507 35.577 49.9385C35.8444 50.1201 36.1118 50.3251 36.3792 50.5418C38.4952 52.3222 40.0066 55.0105 40.8785 58.5362L41.0355 59.1746L41.1924 58.5362C42.0644 55.0163 43.5816 52.3281 45.6918 50.5535C49.9935 46.934 56.5332 47.3264 59.1491 47.6603C60.2536 47.8008 61.0384 48.7496 60.9803 49.8741L60.9454 49.8624Z" fill="#1C3625" stroke="#1C3625" stroke-width="0.75" stroke-miterlimit="10"/>
</svg>
