<svg width="81" height="86" viewBox="0 0 81 86" fill="none" xmlns="http://www.w3.org/2000/svg">
<path d="M48.1656 37.7517C48.2148 38.1394 48.3686 38.5024 48.6332 38.8039C48.6578 38.8592 48.707 38.9085 48.7439 38.9515C49.55 39.7576 50.879 39.7576 51.685 38.9515C52.1465 38.4901 52.3495 37.8686 52.2757 37.2779C52.2511 36.8842 52.1157 36.515 51.8635 36.2196C51.8142 36.1397 51.7589 36.0658 51.6912 36.0043C51.3035 35.6167 50.799 35.4198 50.2883 35.4013C47.9379 30.1098 43.5324 26.0797 41.6004 24.4922C40.9974 24 40.1299 24 39.5269 24.4922C37.1273 26.4673 29.3008 33.5739 29.3008 42.1203C29.3008 42.4833 29.3131 42.8463 29.3439 43.2032C29.8484 49.836 35.066 53.0048 39.9268 53.257V57.0595C39.6192 57.158 39.33 57.3179 39.0839 57.5641C38.604 58.044 38.4132 58.7023 38.5117 59.3176C38.5609 59.7053 38.7147 60.0683 38.9793 60.3698C39.0039 60.4252 39.0531 60.4744 39.09 60.5174C39.8961 61.3235 41.2251 61.3235 42.0311 60.5174C42.4926 60.056 42.6956 59.4345 42.6218 58.8439C42.5972 58.4501 42.4618 58.0809 42.2096 57.7856C42.1603 57.7056 42.105 57.6317 42.0373 57.5702C41.7912 57.3241 41.502 57.1641 41.1943 57.0657V53.2632C46.0551 53.0109 51.2728 49.8422 51.7773 43.2093C51.8019 42.8586 51.5435 42.551 51.1928 42.5264C50.8359 42.4956 50.5344 42.7602 50.5098 43.1109C50.0607 48.9808 45.6121 51.7496 41.1943 51.9895V38.6562C41.1943 38.3055 40.9113 38.0224 40.5606 38.0224C40.2099 38.0224 39.9268 38.3055 39.9268 38.6562V51.9895C35.5091 51.7496 31.0605 48.9808 30.6113 43.1109C30.5867 42.7848 30.5744 42.4525 30.5744 42.1203C30.5744 34.1277 38.0441 27.3595 40.3329 25.4705C40.4683 25.3598 40.659 25.3598 40.7882 25.4705C42.228 26.658 46.6889 30.6144 49.0454 35.7459C48.9347 35.8197 48.8301 35.9058 48.7316 36.0043C48.2517 36.4842 48.061 37.1426 48.1594 37.7579L48.1656 37.7517Z" fill="#1C3625" stroke="#1C3625" stroke-width="0.75" stroke-miterlimit="10"/>
<path d="M80.5672 41.1484C80.5672 19.0903 62.6253 1.14844 40.5672 1.14844C40.0503 1.14844 39.5397 1.16074 39.029 1.1792C38.7582 1.19151 38.5429 1.41917 38.5552 1.68989C38.5675 1.96062 38.8013 2.20058 39.0659 2.16367C39.5643 2.14521 40.0627 2.1329 40.5672 2.1329C62.0777 2.1329 79.5766 19.6317 79.5766 41.1423C79.5766 52.8451 74.482 63.6311 65.7018 70.99C65.6649 70.9469 65.6403 70.8977 65.5972 70.8546C64.2928 69.5502 62.17 69.5502 60.8656 70.8546C60.1026 71.6176 59.795 72.6759 59.9488 73.6604C60.0288 74.2818 60.2749 74.8663 60.6995 75.3401C60.7364 75.4324 60.8164 75.5062 60.8779 75.5739C62.17 76.866 64.2928 76.866 65.5849 75.5739C66.3232 74.8356 66.6432 73.8388 66.5263 72.8974C66.5017 72.5159 66.4032 72.1529 66.2494 71.8206C75.3065 64.2772 80.5672 53.1835 80.5672 41.1423V41.1484Z" fill="#1C3625" stroke="#1C3625" stroke-width="0.75" stroke-miterlimit="10"/>
<path d="M41.7724 80.1391C41.3724 80.1514 40.9725 80.1575 40.5664 80.1575C19.0559 80.1575 1.55702 62.6587 1.55702 41.1481C1.55702 28.787 7.24846 17.4349 16.97 10.076C17.0131 10.1498 17.0746 10.2175 17.13 10.2729C18.379 11.5219 20.428 11.5219 21.6709 10.2729C22.3846 9.55915 22.6922 8.5993 22.5815 7.68867C22.5446 7.07953 22.3292 6.51346 21.9477 6.052C21.8739 5.92894 21.7878 5.81203 21.6832 5.71359C20.4218 4.45224 18.3729 4.45224 17.1177 5.71359C16.3794 6.45193 16.084 7.47332 16.2317 8.42086C16.2686 8.69774 16.3424 8.96847 16.447 9.22689C6.43627 16.7703 0.566406 28.4424 0.566406 41.1481C0.566406 63.2063 18.5083 81.1543 40.5664 81.1543C40.9786 81.1543 41.3909 81.1481 41.8031 81.1358C42.0739 81.1297 42.2892 80.8959 42.2831 80.6251C42.2769 80.3544 42.0493 80.1268 41.7724 80.1452V80.1391Z" fill="#1C3625" stroke="#1C3625" stroke-width="0.75" stroke-miterlimit="10"/>
<path d="M40.5667 15.7188C36.0258 15.7188 31.6757 16.894 27.8178 19.1398C26.9995 18.4937 25.8058 18.5368 25.049 19.2936C24.5691 19.7735 24.3784 20.4319 24.4768 21.0472C24.526 21.4348 24.6799 21.7978 24.9444 22.0993C24.9691 22.1547 25.0183 22.2039 25.0552 22.247C25.8612 23.053 27.1902 23.053 27.9963 22.247C28.4577 21.7855 28.6608 21.1641 28.587 20.5734C28.5808 20.4442 28.5562 20.3211 28.5254 20.1981C32.1679 18.0938 36.2781 16.9924 40.5667 16.9924C53.8877 16.9924 64.7229 27.8277 64.7229 41.1487C64.7229 54.4697 53.8877 65.305 40.5667 65.305C27.2456 65.305 16.4104 54.4697 16.4104 41.1487C16.4104 37.2047 17.3825 33.2853 19.2222 29.8273C19.3884 29.5197 19.2715 29.1321 18.9577 28.9659C18.6439 28.7998 18.2624 28.9167 18.0963 29.2305C16.1581 32.873 15.1367 36.9955 15.1367 41.1487C15.1367 55.1711 26.5442 66.5786 40.5667 66.5786C54.5891 66.5786 65.9966 55.1711 65.9966 41.1487C65.9966 27.1262 54.5891 15.7188 40.5667 15.7188Z" fill="#1C3625" stroke="#1C3625" stroke-width="0.75" stroke-miterlimit="10"/>
</svg>
