<svg width="82" height="86" viewBox="0 0 82 86" fill="none" xmlns="http://www.w3.org/2000/svg">
<path d="M68.0221 63.5148C67.9785 63.4494 67.9349 63.3839 67.8804 63.3294C67.1933 62.6424 66.0701 62.6424 65.3831 63.3294C64.9796 63.7329 64.816 64.2891 64.8978 64.8071C64.925 65.0252 64.9959 65.2324 65.105 65.4232C64.3852 66.4701 63.9163 67.8005 63.4583 69.1037C62.7713 71.0667 62.1224 72.9205 60.7483 73.7166C59.407 74.4964 57.4931 74.1365 55.4702 73.7602C53.7363 73.4385 51.9369 73.1005 50.4047 73.5094C48.938 73.902 47.5912 75.0634 46.288 76.1867C44.7613 77.5007 43.1855 78.8584 41.5443 78.8584C39.903 78.8584 38.3272 77.5007 36.8005 76.1867C35.4973 75.0634 34.1505 73.902 32.6838 73.5094C31.1461 73.1005 29.3522 73.4331 27.6183 73.7602C25.5954 74.1365 23.6815 74.4964 22.3402 73.7166C20.9661 72.9205 20.3173 71.0667 19.6302 69.1037C19.0522 67.4516 18.4525 65.7449 17.351 64.6435C16.2496 63.5421 14.5429 62.9423 12.8908 62.3643C10.9279 61.6773 9.07397 61.0284 8.27789 59.6544C7.48181 58.2748 7.83078 56.3174 8.20701 54.2454C8.51236 52.566 8.82315 50.832 8.49055 49.3326C7.94528 46.8734 5.39892 44.0326 4.03031 42.5004C4.0085 42.4732 3.98669 42.4514 3.96488 42.4296C3.97579 42.4187 3.99214 42.4077 4.00305 42.3968C4.39018 42.0097 4.56467 41.4808 4.49924 40.9846C4.47743 40.652 4.36292 40.3412 4.15027 40.0904C4.10665 40.025 4.06303 39.9595 4.0085 39.905C3.8013 39.6978 3.55048 39.5615 3.28876 39.4797C3.67589 38.182 4.75551 36.9279 5.80786 35.701C6.9311 34.3979 8.09251 33.0511 8.47964 31.5843C8.88859 30.0467 8.55598 28.2528 8.22882 26.5189C7.85259 24.4959 7.49272 22.5821 8.27244 21.2353C9.06852 19.8612 10.9224 19.2124 12.8853 18.5253C14.5375 17.9473 16.2442 17.3476 17.3456 16.2461C18.447 15.1447 19.0468 13.438 19.6248 11.7859C20.3118 9.82296 20.9607 7.96908 22.3347 7.173C23.3762 6.57321 24.7557 6.67136 25.9662 6.84584C26.2497 6.88946 26.5169 6.68771 26.5605 6.40418C26.6041 6.11519 26.4024 5.85346 26.1188 5.80984C24.7284 5.6081 23.1308 5.5045 21.8113 6.26786C20.0991 7.25478 19.3576 9.3813 18.6378 11.4369C18.098 12.9746 17.5419 14.5722 16.6095 15.5046C15.6771 16.437 14.0849 16.9931 12.5418 17.533C10.4862 18.2527 8.35968 18.9997 7.36731 20.7064C6.39674 22.3858 6.80569 24.5832 7.20373 26.7042C7.50908 28.3237 7.81987 30.0031 7.47091 31.3117C7.14375 32.544 6.10776 33.7436 5.01178 35.014C3.80676 36.4153 2.56901 37.8548 2.19824 39.4797C1.94742 39.5615 1.7075 39.6978 1.50575 39.8996C1.10226 40.303 0.938683 40.8592 1.02047 41.3772C1.05864 41.7044 1.1895 42.0097 1.41851 42.266C1.44032 42.3151 1.47849 42.3532 1.51666 42.3914C1.90925 42.784 2.44906 42.9421 2.96705 42.8821C3.0543 42.9803 3.14699 43.0839 3.24514 43.1929C4.54831 44.6488 6.97472 47.3587 7.46545 49.5507C7.75444 50.8429 7.46 52.4733 7.17647 54.0545C6.78388 56.2247 6.38039 58.4657 7.37276 60.1778C8.35968 61.8899 10.4862 62.6315 12.5473 63.3512C14.0849 63.891 15.6771 64.4472 16.6095 65.3796C17.5419 66.312 18.098 67.9041 18.6378 69.4472C19.3576 71.5029 20.1046 73.6294 21.8113 74.6163C23.4907 75.5869 25.6881 75.1779 27.8091 74.7799C29.4286 74.4745 31.108 74.1637 32.4166 74.5127C33.6489 74.8399 34.8485 75.8759 36.1189 76.9718C37.7874 78.4113 39.5159 79.8999 41.5443 79.8999C43.5726 79.8999 45.3011 78.4113 46.9696 76.9718C48.2401 75.8759 49.4396 74.8453 50.6719 74.5127C51.9805 74.1637 53.6545 74.4745 55.2739 74.7799C57.395 75.1779 59.5924 75.5869 61.2718 74.6163C62.9785 73.6294 63.7255 71.5029 64.4452 69.4472C64.8596 68.2695 65.2795 67.0644 65.8738 66.143C66.5281 66.4538 67.3351 66.3447 67.8694 65.8103C68.2566 65.4232 68.4311 64.8943 68.3656 64.3981C68.3438 64.0655 68.2293 63.7547 68.0167 63.5039L68.0221 63.5148Z" fill="#1C3625" stroke="#1C3625" stroke-width="0.75" stroke-miterlimit="10"/>
<path d="M60.6331 25.1159C60.8131 25.3395 61.1457 25.3777 61.3692 25.1977C61.5928 25.0178 61.631 24.6852 61.451 24.4616C60.8731 23.7473 60.2515 23.0494 59.5917 22.3951C49.6352 12.4386 33.4355 12.4386 23.4791 22.3951C13.5226 32.3515 13.5226 48.5512 23.4791 58.5077C28.4573 63.4859 34.995 65.9723 41.5327 65.9723C48.0703 65.9723 54.608 63.4859 59.5862 58.5077C65.0443 53.0496 67.6834 45.6341 66.9418 38.0004C67.1381 37.9132 67.3235 37.7987 67.4816 37.6351C67.8687 37.248 68.0432 36.7191 67.9778 36.2229C67.956 35.8903 67.8415 35.5795 67.6288 35.3287C67.5852 35.2632 67.5416 35.1978 67.4871 35.1433C66.8 34.4562 65.6768 34.4562 64.9898 35.1433C64.5863 35.5468 64.4227 36.1029 64.5045 36.6209C64.5481 36.9481 64.6735 37.2534 64.9025 37.5097C64.9243 37.5588 64.9625 37.597 65.0007 37.6351C65.257 37.8914 65.5732 38.0495 65.9004 38.1149C66.6092 45.4269 64.0737 52.5371 58.8447 57.7661C49.2972 67.3137 33.7627 67.3137 24.2152 57.7661C14.6676 48.2186 14.6676 32.6842 24.2152 23.1366C33.7627 13.5891 49.2972 13.5891 58.8447 23.1366C59.4717 23.7637 60.0715 24.4344 60.6277 25.1214L60.6331 25.1159Z" fill="#1C3625" stroke="#1C3625" stroke-width="0.75" stroke-miterlimit="10"/>
<path d="M78.0736 45.875C79.5131 44.2065 81.0016 42.478 81.0016 40.4496C81.0016 38.4213 79.5131 36.6928 78.0736 35.0243C76.9776 33.7538 75.947 32.5542 75.6144 31.322C75.2655 30.0133 75.5763 28.3394 75.8816 26.72C76.2797 24.5989 76.6886 22.4015 75.718 20.7221C74.7311 19.0154 72.6046 18.2684 70.549 17.5487C69.0113 17.0089 67.4137 16.4527 66.4813 15.5203C65.5489 14.5879 64.9928 12.9957 64.453 11.4581C63.7332 9.40247 62.9862 7.27595 61.2795 6.28358C59.6001 5.31301 57.4027 5.72196 55.2817 6.12C53.6622 6.41989 51.9828 6.73614 50.6742 6.38718C49.4419 6.06002 48.2423 5.02403 46.9719 3.92805C45.3034 2.48856 43.5749 1 41.5465 1C39.5182 1 37.7897 2.48856 36.1212 3.92805C35.2379 4.68596 34.3927 5.41116 33.5421 5.89644C33.504 5.83646 33.4658 5.78194 33.4222 5.72741C33.3785 5.66198 33.3349 5.59655 33.2804 5.54202C32.5934 4.85499 31.4701 4.85499 30.7831 5.54202C30.3796 5.94552 30.216 6.50168 30.2978 7.01968C30.336 7.34684 30.4668 7.65218 30.6959 7.90845C30.7177 7.95753 30.7558 7.9957 30.794 8.03386C31.4756 8.71544 32.5934 8.71544 33.2749 8.03386C33.5748 7.73397 33.7384 7.35229 33.7766 6.97061C34.8344 6.42535 35.8322 5.56383 36.8082 4.72413C38.335 3.41005 39.9108 2.05235 41.552 2.05235C43.1932 2.05235 44.769 3.41005 46.2958 4.72413C47.5989 5.84737 48.9457 7.00877 50.4125 7.40136C51.9447 7.81031 53.744 7.4777 55.478 7.15054C57.5009 6.77431 59.4147 6.41444 60.7561 7.19416C62.1301 7.99024 62.779 9.84413 63.466 11.8071C64.044 13.4592 64.6438 15.1659 65.7452 16.2673C66.8466 17.3687 68.5533 17.9685 70.2055 18.5465C72.1684 19.2335 74.0223 19.8824 74.8184 21.2564C75.5981 22.5978 75.2382 24.5116 74.862 26.5346C74.5403 28.2685 74.2022 30.0679 74.6112 31.6C75.0037 33.0668 76.1651 34.4136 77.2884 35.7168C78.6025 37.2435 79.9602 38.8193 79.9602 40.4605C79.9602 42.1018 78.6025 43.6776 77.2884 45.2043C76.1651 46.5075 75.0037 47.8543 74.6112 49.321C74.2022 50.8587 74.5348 52.6526 74.862 54.3865C75.2382 56.4094 75.5981 58.3233 74.8184 59.6701C74.1041 60.9024 72.5119 61.5567 70.9416 62.1183C70.6689 62.2164 70.5272 62.5163 70.6253 62.789C70.7016 63.0016 70.9034 63.1379 71.116 63.1379C71.176 63.1379 71.236 63.127 71.2905 63.1052C73.0408 62.4727 74.8293 61.7312 75.718 60.1935C76.6886 58.5141 76.2797 56.3167 75.8816 54.1956C75.5763 52.5762 75.2655 50.8968 75.6144 49.5882C75.9416 48.3559 76.9776 47.1563 78.0736 45.8859V45.875Z" fill="#1C3625" stroke="#1C3625" stroke-width="0.75" stroke-miterlimit="10"/>
<path d="M31.7075 36.3381C31.4621 36.1854 31.1404 36.2563 30.9823 36.5017C29.521 38.8027 28.7086 41.638 28.5668 44.9259C28.5559 45.2149 28.7794 45.4603 29.0684 45.4712C29.0739 45.4712 29.0848 45.4712 29.0902 45.4712C29.3683 45.4712 29.6028 45.2531 29.6137 44.9696C29.7446 41.867 30.5025 39.2062 31.8656 37.0578C32.0237 36.8125 31.9474 36.4908 31.702 36.3326L31.7075 36.3381Z" fill="#1C3625" stroke="#1C3625" stroke-width="0.75" stroke-miterlimit="10"/>
<path d="M31.6978 55.8631C31.6978 55.8631 32.1503 55.8958 32.8755 55.8958C36.2779 55.8958 46.1581 55.1815 51.2181 47.2916C57.325 37.7549 53.3392 26.8497 53.301 26.7407C53.241 26.5771 53.1047 26.4571 52.9357 26.419C52.7666 26.3753 52.5922 26.419 52.4613 26.5335C52.4177 26.5716 48.1265 30.2685 41.507 30.6229C40.5637 30.672 39.6531 30.8083 38.7807 31.0155C38.748 30.9664 38.7098 30.9119 38.6662 30.8737C37.9792 30.1867 36.8559 30.1867 36.1689 30.8737C35.7654 31.2772 35.6018 31.8334 35.6836 32.3514C35.7272 32.6786 35.8526 32.9839 36.0817 33.2402C36.1035 33.2893 36.1416 33.3274 36.1798 33.3656C36.8614 34.0472 37.9792 34.0472 38.6607 33.3656C39.037 32.9894 39.2005 32.4932 39.1569 32.0079C39.9312 31.8334 40.7327 31.7189 41.5615 31.6753C47.1504 31.3754 51.0872 28.8835 52.5376 27.8094C53.2683 30.2958 55.2857 38.9981 50.3293 46.7299C45.2857 54.609 35.0457 54.9198 32.4121 54.8489C34.1405 49.1236 41.109 42.9458 43.4699 40.9829C44.157 41.4736 45.1166 41.4136 45.7328 40.8029C46.1199 40.4158 46.2944 39.8869 46.229 39.3907C46.2072 39.0581 46.0926 38.7473 45.88 38.4965C45.8364 38.4311 45.7928 38.3656 45.7382 38.3111C45.0512 37.6241 43.928 37.6241 43.2409 38.3111C42.8374 38.7146 42.6739 39.2708 42.7556 39.7888C42.772 39.9087 42.7993 40.0232 42.8374 40.1323C40.351 42.1825 32.7119 48.9055 31.2234 55.2196C31.1907 55.3669 31.2234 55.525 31.3106 55.6449C31.3979 55.7704 31.5396 55.8467 31.6923 55.8576L31.6978 55.8631Z" fill="#1C3625" stroke="#1C3625" stroke-width="0.75" stroke-miterlimit="10"/>
</svg>
