<svg width="85" height="86" viewBox="0 0 85 86" fill="none" xmlns="http://www.w3.org/2000/svg">
<path d="M11.6309 18.7988C11.6547 18.8584 11.7083 18.912 11.756 18.9536C12.6313 19.8289 14.0603 19.8289 14.9356 18.9536C15.4358 18.4535 15.6501 17.7866 15.5727 17.1495C15.5489 16.7684 15.412 16.4171 15.1916 16.1193C21.4616 10.6413 29.3512 7.29489 37.6576 6.64586C38.0327 6.61609 38.5448 6.59227 39.045 6.5744C39.3427 6.56845 39.6226 6.66968 39.8369 6.87808C40.0513 7.08648 40.1644 7.36634 40.1584 7.66406L39.5273 45.3198C39.5273 45.4627 39.5809 45.5997 39.6821 45.7009C39.7833 45.8021 39.9203 45.8616 40.0632 45.8616H54.2049C54.2823 46.1832 54.4133 46.4928 54.6455 46.7489C54.6693 46.8084 54.7229 46.862 54.7705 46.9037C55.6458 47.779 57.0749 47.779 57.9502 46.9037C58.4504 46.4035 58.6647 45.7366 58.5873 45.0995C58.5635 44.6708 58.4146 44.2778 58.1407 43.9562C58.0871 43.8669 58.0276 43.7895 57.9561 43.7181C57.0749 42.8368 55.6399 42.8368 54.7586 43.7181C54.455 44.0217 54.2704 44.4028 54.1811 44.7958H40.611L41.2362 7.68193C41.2481 7.08648 41.0159 6.53272 40.5931 6.11591C40.1704 5.69911 39.6047 5.47284 39.0092 5.50261C38.4912 5.52047 37.9613 5.54429 37.5802 5.57406C29.0059 6.24096 20.8602 9.71238 14.4116 15.381C13.5542 14.9225 12.4764 15.0475 11.756 15.768C11.2379 16.2861 11.0295 17.0006 11.1367 17.6615C11.1903 18.0783 11.357 18.4713 11.6428 18.7988H11.6309Z" fill="#1C3625" stroke="#1C3625" stroke-width="0.75" stroke-miterlimit="10"/>
<path d="M63.4773 76.8496C63.4237 76.7603 63.3642 76.6829 63.2927 76.6114C62.4115 75.7302 60.9765 75.7302 60.0952 76.6114C59.5772 77.1294 59.3688 77.844 59.476 78.5049C59.5057 78.7431 59.5832 78.9694 59.6903 79.1837C53.1762 82.8457 45.8047 84.5308 38.2128 84.0544C18.5514 82.8219 2.96873 67.0427 1.96243 47.3574C1.5099 38.4495 3.99884 29.9347 9.1613 22.7358C9.33398 22.4977 9.28039 22.1642 9.03626 21.9915C8.79808 21.8189 8.46464 21.8725 8.29196 22.1166C2.99254 29.512 0.432152 38.259 0.90255 47.411C1.93266 67.6381 17.944 83.852 38.1533 85.1203C39.0167 85.1739 39.88 85.2036 40.7434 85.2036C47.6863 85.2036 54.385 83.4233 60.381 80.0173C61.2563 80.6545 62.5008 80.589 63.2927 79.797C63.7929 79.2969 64.0073 78.63 63.9299 77.9928C63.906 77.5641 63.7572 77.1711 63.4833 76.8496H63.4773Z" fill="#1C3625" stroke="#1C3625" stroke-width="0.75" stroke-miterlimit="10"/>
<path d="M78.3865 44.7969H62.5359C62.2382 44.7969 62 45.0351 62 45.3328C62 45.6305 62.2382 45.8687 62.5359 45.8687H78.3865C78.6842 45.8687 78.9581 45.9878 79.1665 46.2021C79.369 46.4165 79.4762 46.6963 79.4583 46.9881C79.3928 48.3755 79.3154 49.4651 79.232 50.1261C78.9284 52.5614 78.3984 54.9789 77.6422 57.3071C77.1182 58.9267 76.4811 60.5225 75.7428 62.0587C73.5634 66.6079 70.5565 70.645 66.8112 74.0569C66.5908 74.2534 66.5789 74.5928 66.7754 74.8131C66.8826 74.9262 67.0255 74.9858 67.1684 74.9858C67.2994 74.9858 67.4245 74.9381 67.5257 74.8488C71.3782 71.3476 74.4685 67.1974 76.7074 62.5232C77.4636 60.9453 78.1186 59.3018 78.6604 57.6406C79.4345 55.2469 79.9882 52.7639 80.2919 50.263C80.3991 49.3937 80.4765 48.0301 80.5241 47.0417C80.5539 46.4522 80.3455 45.8925 79.9346 45.4638C79.5238 45.0351 78.976 44.7969 78.3805 44.7969H78.3865Z" fill="#1C3625" stroke="#1C3625" stroke-width="0.75" stroke-miterlimit="10"/>
<path d="M76.2359 14.4349C76.7182 13.9407 76.9385 13.2738 76.8552 12.6485C76.8313 12.2198 76.6825 11.8268 76.4086 11.5053C76.355 11.416 76.2955 11.3386 76.224 11.2671C75.3428 10.3859 73.9077 10.3859 73.0265 11.2671C72.5085 11.7852 72.3001 12.4997 72.4072 13.1606C72.4608 13.5774 72.6275 13.9704 72.9134 14.2979C72.9372 14.3575 72.9908 14.4111 73.0384 14.4527C73.6517 15.066 74.533 15.2387 75.313 14.9946C81.6068 23.2117 83.0477 33.0662 83.3693 37.2343C83.3931 37.5499 83.2859 37.8536 83.0775 38.0799C82.8632 38.3121 82.5654 38.4431 82.2439 38.4431H46.976V3.40134C46.976 3.09171 47.101 2.79994 47.3214 2.58558C47.5357 2.37718 47.8096 2.25809 48.1133 2.27595C56.5507 2.53199 63.6781 4.79467 69.2871 8.99849C69.5253 9.17712 69.8587 9.12353 70.0374 8.89131C70.216 8.65313 70.1684 8.31969 69.9302 8.14105C64.1425 3.80028 56.8127 1.46615 48.149 1.20416C47.5595 1.18629 47.0058 1.40065 46.583 1.81746C46.1543 2.23427 45.9102 2.81185 45.9102 3.40134V38.979C45.9102 39.2767 46.1483 39.5149 46.4461 39.5149H82.2498C82.8632 39.5149 83.4526 39.2588 83.8635 38.8123C84.2743 38.3657 84.4887 37.7643 84.4411 37.1569C84.1136 32.9055 82.6488 22.8663 76.2419 14.4408L76.2359 14.4349Z" fill="#1C3625" stroke="#1C3625" stroke-width="0.75" stroke-miterlimit="10"/>
</svg>
