<svg width="24" height="25" viewBox="0 0 24 25" fill="none" xmlns="http://www.w3.org/2000/svg">
<path d="M8 3.16602C6.67392 3.16602 5.40215 3.6928 4.46447 4.63048C3.52678 5.56816 3 6.83993 3 8.16602V16.166C3 17.4921 3.52678 18.7639 4.46447 19.7015C5.40215 20.6392 6.67392 21.166 8 21.166H16C17.3261 21.166 18.5979 20.6392 19.5355 19.7015C20.4732 18.7639 21 17.4921 21 16.166V8.16602C21 6.83993 20.4732 5.56816 19.5355 4.63048C18.5979 3.6928 17.3261 3.16602 16 3.16602H8ZM18 5.16602C18.55 5.16602 19 5.61602 19 6.16602C19 6.71602 18.55 7.16602 18 7.16602C17.45 7.16602 17 6.71602 17 6.16602C17 5.61602 17.45 5.16602 18 5.16602ZM12 7.16602C13.3261 7.16602 14.5979 7.6928 15.5355 8.63048C16.4732 9.56816 17 10.8399 17 12.166C17 13.4921 16.4732 14.7639 15.5355 15.7015C14.5979 16.6392 13.3261 17.166 12 17.166C10.6739 17.166 9.40215 16.6392 8.46447 15.7015C7.52678 14.7639 7 13.4921 7 12.166C7 10.8399 7.52678 9.56816 8.46447 8.63048C9.40215 7.6928 10.6739 7.16602 12 7.16602ZM12 9.16602C11.6059 9.16615 11.2157 9.2439 10.8516 9.39484C10.4876 9.54577 10.1568 9.76693 9.87827 10.0457C9.59969 10.3245 9.37875 10.6554 9.22806 11.0195C9.07736 11.3837 8.99987 11.7739 9 12.168C9.00013 12.5621 9.07788 12.9523 9.22882 13.3164C9.37976 13.6804 9.60092 14.0112 9.87968 14.2898C10.1584 14.5683 10.4893 14.7893 10.8535 14.94C11.2176 15.0907 11.6079 15.1681 12.002 15.168C12.7979 15.1678 13.5611 14.8513 14.1237 14.2883C14.6863 13.7254 15.0023 12.9619 15.002 12.166C15.0017 11.3701 14.6853 10.6069 14.1223 10.0443C13.5593 9.48167 12.7959 9.16575 12 9.16602Z" fill="#F6FFEA"/>
</svg>
