<svg width="207" height="278" viewBox="0 0 207 278" fill="none" xmlns="http://www.w3.org/2000/svg">
<path d="M146.589 227.807C155.549 222.621 166.415 220.145 177.268 224.827C188.121 229.509 194.193 224.393 194.193 224.393C194.193 224.393 181.141 221.6 174.589 214.617C168.037 207.634 156.946 214.05 152.129 219.091C147.312 224.133 146.585 227.798 146.585 227.798L146.589 227.807Z" fill="#68923F"/>
<path d="M143.197 219.008C143.197 219.008 152.404 215.14 162.367 206.315C172.327 197.481 182.987 193.182 182.987 193.182C182.987 193.182 173.519 194.25 162.967 198.235C152.418 202.228 146.614 208.994 144.457 212.616C142.299 216.238 143.192 218.999 143.192 218.999L143.197 219.008Z" fill="#68923F"/>
<path d="M71.5448 79.3685C71.5448 79.3685 79.9648 73.9916 88.2884 63.6008C96.6121 53.2101 106.376 47.1665 106.376 47.1665C106.376 47.1665 97.2235 49.8191 87.5091 55.542C77.7948 61.265 73.2215 68.9267 71.7127 72.8547C70.208 76.7917 71.5539 79.3642 71.5539 79.3642L71.5448 79.3685Z" fill="#68923F"/>
<path d="M87.1623 117.695C87.1623 117.695 96.9566 115.737 108.476 109.057C119.995 102.377 131.292 100.285 131.292 100.285C131.292 100.285 121.801 99.4464 110.673 101.261C99.5451 103.077 92.5089 108.562 89.6776 111.681C86.8462 114.8 87.1714 117.691 87.1714 117.691L87.1623 117.695Z" fill="#68923F"/>
<path d="M106.069 145.991C106.069 145.991 115.863 144.033 127.382 137.353C138.901 130.673 150.198 128.581 150.198 128.581C150.198 128.581 140.707 127.742 129.579 129.557C118.451 131.372 111.415 136.858 108.584 139.977C105.752 143.095 106.078 145.987 106.078 145.987L106.069 145.991Z" fill="#68923F"/>
<path d="M138.912 209.243C143.608 207.2 162.972 192.996 169.178 190.121C175.385 187.247 184.652 184.365 184.652 184.365C184.652 184.365 165.347 186.276 155.786 192.115C146.224 197.954 138.916 209.252 138.916 209.252L138.912 209.243Z" fill="#68923F"/>
<path d="M74.3359 85.7916C78.7648 83.8614 97.0167 70.4699 102.869 67.759C108.722 65.048 117.456 62.3248 117.456 62.3248C117.456 62.3248 99.2598 64.13 90.2366 69.632C81.2225 75.1298 74.3268 85.7958 74.3268 85.7958L74.3359 85.7916Z" fill="#68923F"/>
<path d="M83.0961 108.16C87.8589 107.332 108.741 98.5958 115.069 97.3397C121.398 96.0837 130.534 95.4887 130.534 95.4887C130.534 95.4887 112.417 92.9697 102.361 96.1949C92.3055 99.42 83.0961 108.16 83.0961 108.16Z" fill="#68923F"/>
<path d="M98.3929 135.131C103.156 134.302 124.038 125.566 130.366 124.31C136.694 123.054 145.831 122.459 145.831 122.459C145.831 122.459 127.714 119.94 117.658 123.166C107.602 126.391 98.3929 135.131 98.3929 135.131Z" fill="#68923F"/>
<path d="M119.823 168.7C124.585 167.872 145.468 159.136 151.796 157.88C158.124 156.624 167.26 156.029 167.26 156.029C167.26 156.029 149.144 153.51 139.088 156.735C129.032 159.96 119.823 168.7 119.823 168.7Z" fill="#68923F"/>
<path d="M67.4673 67.3044C67.9071 62.0202 69.9652 53.1871 74.7756 46.727C79.5859 40.267 75.0477 22.4988 75.0477 22.4988C75.0477 22.4988 83.25 36.2334 81.9807 48.3159C80.7114 60.3984 67.4722 67.2912 67.4722 67.2912L67.4673 67.3044Z" fill="#68923F"/>
<path d="M75.6501 90.3405C75.6501 90.3405 85.5047 83.9685 97.8587 77.9486C110.217 71.9378 121.939 72.8339 121.939 72.8339C121.939 72.8339 101.375 84.0893 93.2204 86.1364C85.0655 88.1834 75.6592 90.3363 75.6592 90.3363L75.6501 90.3405Z" fill="#68923F"/>
<path d="M115.744 161.08C115.744 161.08 125.598 154.708 137.952 148.688C150.311 142.677 162.033 143.573 162.033 143.573C162.033 143.573 141.469 154.829 133.314 156.876C125.159 158.923 115.753 161.076 115.753 161.076L115.744 161.08Z" fill="#68923F"/>
<path d="M78.4062 97.9797C84.722 94.2938 96.3459 88.1492 106.667 86.234C116.992 84.3278 123.676 80.7469 123.676 80.7469C123.676 80.7469 113.704 88.8156 102.097 93.3321C90.4903 97.8487 78.4021 97.9706 78.4021 97.9706L78.4062 97.9797Z" fill="#68923F"/>
<path d="M109.922 151.26C116.238 147.574 127.862 141.43 138.182 139.514C148.508 137.608 155.192 134.027 155.192 134.027C155.192 134.027 145.219 142.096 133.613 146.612C122.006 151.129 109.918 151.251 109.918 151.251L109.922 151.26Z" fill="#68923F"/>
<path d="M92.5156 125.465C98.8314 121.779 110.455 115.635 120.776 113.719C131.101 111.813 137.785 108.232 137.785 108.232C137.785 108.232 127.813 116.301 116.206 120.817C104.6 125.334 92.5114 125.456 92.5114 125.456L92.5156 125.465Z" fill="#68923F"/>
<path d="M123.93 176.3C130.245 172.614 141.869 166.47 152.19 164.554C162.515 162.648 169.199 159.067 169.199 159.067C169.199 159.067 159.227 167.136 147.62 171.652C136.014 176.169 123.925 176.291 123.925 176.291L123.93 176.3Z" fill="#68923F"/>
<path d="M135.379 200.534C135.379 200.534 145.29 196.615 151.57 189.497C157.845 182.369 176.577 177.913 176.577 177.913C176.577 177.913 159.253 178.366 149.261 184.725C139.268 191.084 135.374 200.547 135.374 200.547L135.379 200.534Z" fill="#68923F"/>
<path d="M130.565 190.627C133.347 190.209 147.905 182.121 154.812 176.332C161.71 170.547 170.485 167.342 170.485 167.342C170.485 167.342 149.805 170.496 139.832 177.705C129.849 184.919 130.569 190.614 130.569 190.614L130.565 190.627Z" fill="#68923F"/>
<path d="M137.952 148.689C125.594 154.7 115.744 161.081 115.744 161.081C115.744 161.081 118.375 160.479 122.07 159.605C126.128 157.208 132.103 153.834 138.818 150.558C146.5 146.824 153.928 145.752 158.464 145.481C160.65 144.325 162.033 143.574 162.033 143.574C162.033 143.574 150.311 142.678 137.952 148.689Z" fill="#4D682F"/>
<path d="M109.919 151.26C109.919 151.26 111.75 151.239 114.658 150.95C121.234 147.374 130.569 142.951 139.059 141.388C142.46 140.761 145.468 139.951 147.971 139.145C152.373 136.323 155.202 134.032 155.202 134.032C155.202 134.032 148.523 137.6 138.193 139.519C127.868 141.425 116.248 147.579 109.932 151.265L109.919 151.26Z" fill="#4D682F"/>
<path d="M98.3893 135.131C99.3697 134.964 101.031 134.458 103.106 133.751C106.721 130.919 112.467 126.979 118.52 125.035C123.377 123.48 130.085 123.26 135.748 123.447C140.882 122.777 145.823 122.451 145.823 122.451C145.823 122.451 127.706 119.932 117.65 123.157C107.595 126.382 98.3851 135.122 98.3851 135.122L98.3893 135.131Z" fill="#4D682F"/>
<path d="M155.789 192.115C146.228 197.954 138.92 209.252 138.92 209.252C139.763 208.884 141.078 208.131 142.702 207.115C145.702 203.289 150.744 197.592 156.659 193.993C161.317 191.152 168.277 189.24 174.206 188.025C179.439 185.998 184.659 184.374 184.659 184.374C184.659 184.374 165.355 186.284 155.793 192.124L155.789 192.115Z" fill="#4D682F"/>
<path d="M108.571 139.981C105.739 143.099 106.064 145.99 106.064 145.99C106.064 145.99 106.469 145.913 107.209 145.725C107.514 144.647 108.15 143.283 109.441 141.859C112.272 138.74 119.308 133.255 130.436 131.44C135.426 130.627 140.079 130.345 143.709 130.284C147.629 129.063 150.198 128.589 150.198 128.589C150.198 128.589 140.707 127.751 129.579 129.566C118.451 131.381 111.415 136.867 108.584 139.985L108.571 139.981Z" fill="#4D682F"/>
<path d="M148.493 173.531C147.261 174.013 146.023 174.432 144.794 174.825C142.978 175.71 141.294 176.667 139.835 177.728C129.852 184.942 130.573 190.637 130.573 190.637C130.851 190.596 131.258 190.474 131.755 190.287C132.437 187.977 134.504 184.088 140.714 179.602C146.526 175.4 155.975 172.578 162.847 170.949C167.086 168.61 170.506 167.357 170.506 167.357C170.506 167.357 161.85 168.677 153.048 171.564C151.577 172.267 150.067 172.934 148.515 173.531L148.493 173.531Z" fill="#4D682F"/>
<path d="M149.268 184.721C139.275 191.08 135.382 200.543 135.382 200.543C135.382 200.543 136.314 200.177 137.781 199.464C139.732 196.158 143.643 190.732 150.129 186.603C154.863 183.595 161.235 181.911 166.641 180.972C172.015 179.012 176.584 177.931 176.584 177.931C176.584 177.931 159.26 178.384 149.267 184.743L149.268 184.721Z" fill="#4D682F"/>
<path d="M152.2 164.55C141.874 166.456 130.255 172.609 123.939 176.295C123.939 176.295 125.769 176.274 128.677 175.985C135.254 172.41 144.589 167.986 153.07 166.428C156.471 165.8 159.479 164.991 161.982 164.184C166.384 161.363 169.213 159.072 169.213 159.072C169.213 159.072 162.534 162.639 152.204 164.559L152.2 164.55Z" fill="#4D682F"/>
<path d="M124.535 167.325C128.15 164.493 133.896 160.553 139.95 158.609C144.806 157.054 151.515 156.834 157.178 157.021C162.312 156.351 167.252 156.025 167.252 156.025C167.252 156.025 151.595 153.843 141.317 156.135C138.547 157.319 136.036 158.273 134.179 158.736C134.179 158.736 134.17 158.741 134.16 158.745C126.21 162.637 119.828 168.701 119.828 168.701C120.808 168.533 122.47 168.028 124.544 167.321L124.535 167.325Z" fill="#4D682F"/>
<path d="M71.8926 79.1325C71.7961 78.02 71.8813 76.5148 72.5745 74.7279C74.0791 70.7909 78.6567 63.1383 88.371 57.4153C92.7885 54.8181 97.0798 52.8524 100.454 51.4768C103.929 48.6769 106.368 47.1615 106.368 47.1615C106.368 47.1615 97.2153 49.8141 87.501 55.537C77.7866 61.26 73.2133 68.9217 71.7045 72.8497C70.1999 76.7867 71.5458 79.3592 71.5458 79.3592C71.5458 79.3592 71.6735 79.278 71.8926 79.1325Z" fill="#4D682F"/>
<path d="M103.231 98.0644C108.087 96.5093 114.796 96.2893 120.459 96.4764C125.593 95.8065 130.534 95.4799 130.534 95.4799C130.534 95.4799 112.417 92.961 102.361 96.1861C92.3055 99.4112 83.0961 108.151 83.0961 108.151C84.0764 107.984 85.738 107.479 87.8128 106.771C91.4275 103.94 97.1737 99.9996 103.227 98.0553L103.231 98.0644Z" fill="#4D682F"/>
<path d="M107.542 88.0995C110.943 87.4718 113.952 86.6624 116.454 85.8558C120.856 83.0344 123.685 80.7432 123.685 80.7432C123.685 80.7432 117.006 84.3108 106.676 86.2303C96.351 88.1364 84.7313 94.2901 78.4155 97.976C78.4155 97.976 80.2461 97.9546 83.1539 97.6657C89.7304 94.0905 99.0658 89.6672 107.546 88.1086L107.542 88.0995Z" fill="#4D682F"/>
<path d="M90.5503 113.56C93.3817 110.441 100.418 104.956 111.546 103.14C116.536 102.328 121.189 102.046 124.819 101.985C128.739 100.764 131.308 100.29 131.308 100.29C131.308 100.29 121.817 99.452 110.689 101.267C109.317 101.494 108.003 101.773 106.754 102.098C104.416 102.927 101.914 103.855 99.4209 104.778C94.6594 107.061 91.4008 109.804 89.6936 111.686C86.8622 114.805 87.1874 117.696 87.1874 117.696C87.1874 117.696 87.5924 117.619 88.3318 117.431C88.6369 116.353 89.2727 114.989 90.5636 113.565L90.5503 113.56Z" fill="#4D682F"/>
<path d="M174.589 214.627C168.037 207.644 156.946 214.059 152.129 219.101C147.312 224.143 146.585 227.808 146.585 227.808C147.282 227.408 147.995 227.022 148.709 226.659C149.527 225.166 150.857 223.206 152.995 220.97C157.812 215.929 168.894 209.517 175.455 216.496C180.112 221.458 188.053 224.304 192.249 225.535C193.523 224.955 194.193 224.403 194.193 224.403C194.193 224.403 181.141 221.61 174.589 214.627Z" fill="#4D682F"/>
<path d="M98.7323 79.8276C106.414 76.093 113.842 75.022 118.378 74.7504C120.564 73.5943 121.947 72.8437 121.947 72.8437C121.947 72.8437 110.225 71.9475 97.8665 77.9584C85.5083 83.9692 75.6579 90.3503 75.6579 90.3503C75.6579 90.3503 78.2888 89.7488 81.9838 88.8749C86.0419 86.4772 92.0172 83.1033 98.7323 79.8276Z" fill="#4D682F"/>
<path d="M144.457 212.617C142.3 216.239 143.193 218.999 143.193 218.999C143.193 218.999 143.447 218.882 143.91 218.667C144.001 217.556 144.353 216.103 145.328 214.473C147.486 210.85 153.289 204.085 163.838 200.091C168.544 198.308 173.036 197.109 176.567 196.333C180.389 194.21 182.988 193.16 182.988 193.16C182.988 193.16 173.521 194.229 162.968 198.213C152.419 202.206 146.615 208.972 144.458 212.594L144.457 212.617Z" fill="#4D682F"/>
<path d="M75.6492 48.606C80.4595 42.1459 75.9213 24.3778 75.9213 24.3778C75.9213 24.3778 76.6836 25.6667 77.7076 27.7823C76.2736 24.5673 75.0555 22.5086 75.0555 22.5086C75.0555 22.5086 79.5937 40.2767 74.7834 46.7368C69.973 53.1969 67.9107 62.0209 67.4752 67.3142C67.4752 67.3142 67.9205 67.0859 68.6497 66.6379C69.452 61.3511 71.5514 54.1299 75.6534 48.6151L75.6492 48.606Z" fill="#4D682F"/>
<path d="M91.1193 71.5058C95.3302 68.9382 101.544 67.1731 106.974 66.0245C112.108 63.999 117.464 62.3336 117.464 62.3336C117.464 62.3336 99.2676 64.1388 90.2444 69.6408C81.2303 75.1386 74.3346 85.8046 74.3346 85.8046C75.1778 85.4361 76.5164 84.6618 78.1626 83.6238C81.0128 80.0223 85.6733 74.8329 91.1145 71.5191L91.1193 71.5058Z" fill="#4D682F"/>
<path d="M121.651 115.585C125.052 114.957 128.061 114.148 130.564 113.341C134.966 110.52 137.795 108.229 137.795 108.229C137.795 108.229 131.115 111.796 120.785 113.716C110.46 115.622 98.8406 121.775 92.5249 125.461C92.5249 125.461 94.3554 125.44 97.2633 125.151C103.84 121.576 113.175 117.152 121.665 115.59L121.651 115.585Z" fill="#4D682F"/>
<path d="M145.312 230.579C135.562 234.06 126.647 240.746 123.199 252.052C119.752 263.358 111.923 264.681 111.923 264.681C111.923 264.681 118.234 252.919 117.145 243.406C116.055 233.893 128.121 229.582 135.082 229.168C142.043 228.754 145.308 230.57 145.308 230.57L145.312 230.579Z" fill="#68923F"/>
<path d="M142.026 222.49C142.026 222.49 133.122 227.012 119.947 228.904C106.768 230.788 96.595 236.139 96.595 236.139C96.595 236.139 103.533 229.608 113.396 224.136C123.264 218.673 132.178 218.621 136.336 219.318C140.494 220.015 142.022 222.481 142.022 222.481L142.026 222.49Z" fill="#68923F"/>
<path d="M72.0433 80.8464C72.0433 80.8464 62.497 83.7914 49.1886 83.4206C35.8892 83.0455 24.956 86.589 24.956 86.589C24.956 86.589 32.8983 81.3231 43.5457 77.6146C54.1931 73.906 62.9946 75.3726 66.9664 76.7619C70.9424 78.1603 72.0342 80.8506 72.0342 80.8506L72.0433 80.8464Z" fill="#68923F"/>
<path d="M88.0736 119.19C88.0736 119.19 80.2464 125.394 67.7017 129.86C55.157 134.327 46.2557 141.591 46.2557 141.591C46.2557 141.591 51.7542 133.809 60.335 126.495C68.9157 119.181 77.6498 117.362 81.8598 117.219C86.0697 117.076 88.0646 119.194 88.0646 119.194L88.0736 119.19Z" fill="#68923F"/>
<path d="M106.62 147.198C106.62 147.198 98.7933 153.402 86.2486 157.868C73.7039 162.334 64.8025 169.598 64.8025 169.598C64.8025 169.598 70.3011 161.817 78.8818 154.503C87.4625 147.189 96.1967 145.369 100.407 145.227C104.617 145.084 106.611 147.202 106.611 147.202L106.62 147.198Z" fill="#68923F"/>
<path d="M137.95 211.993C133.355 214.254 109.999 219.838 103.792 222.713C97.5856 225.588 89.3945 230.792 89.3945 230.792C89.3945 230.792 103.336 217.303 113.974 213.787C124.611 210.27 137.955 212.003 137.955 212.003L137.95 211.993Z" fill="#68923F"/>
<path d="M74.4125 87.6732C70.076 89.803 48.0582 95.0644 42.2056 97.7753C36.3529 100.486 28.6273 105.387 28.6273 105.387C28.6273 105.387 41.7719 92.6752 51.8038 89.351C61.8266 86.0309 74.4173 87.6599 74.4173 87.6599L74.4125 87.6732Z" fill="#68923F"/>
<path d="M83.4707 109.904C79.7586 113.001 59.5907 123.279 54.5403 127.294C49.4898 131.308 43.1278 137.892 43.1278 137.892C43.1278 137.892 52.9224 122.444 61.8854 116.86C70.8484 111.276 83.4707 109.904 83.4707 109.904Z" fill="#68923F"/>
<path d="M98.9238 136.292C95.2117 139.389 75.0439 149.668 69.9934 153.682C64.943 157.697 58.5809 164.28 58.5809 164.28C58.5809 164.28 68.3756 148.833 77.3386 143.249C86.3016 137.664 98.9238 136.292 98.9238 136.292Z" fill="#68923F"/>
<path d="M119.533 170.433C115.821 173.53 95.6532 183.808 90.6028 187.823C85.5523 191.837 79.1902 198.421 79.1902 198.421C79.1902 198.421 88.9849 182.974 97.9479 177.389C106.911 171.805 119.533 170.433 119.533 170.433Z" fill="#68923F"/>
<path d="M67.9484 69.7488C64.4389 65.7649 57.5178 59.9117 49.8061 57.6098C42.0901 55.2987 35.1253 38.335 35.1253 38.335C35.1253 38.335 36.7436 54.2486 44.9729 63.1878C53.2022 72.1269 67.9484 69.7488 67.9484 69.7488Z" fill="#68923F"/>
<path d="M75.6652 91.8631C75.6652 91.8631 64.4321 95.2589 51.8512 100.789C39.2744 106.328 32.3772 115.848 32.3772 115.848C32.3772 115.848 54.2608 107.442 61.0959 102.546C67.9311 97.6497 75.6562 91.8673 75.6562 91.8673L75.6652 91.8631Z" fill="#68923F"/>
<path d="M115.931 163.287C115.931 163.287 104.698 166.683 92.1168 172.213C79.54 177.752 72.6428 187.272 72.6428 187.272C72.6428 187.272 94.5264 178.866 101.362 173.97C108.197 169.074 115.922 163.291 115.922 163.291L115.931 163.287Z" fill="#68923F"/>
<path d="M78.7511 99.539C71.8554 101.973 59.6514 106.865 51.516 113.499C43.3807 120.132 36.3311 122.924 36.3311 122.924C36.3311 122.924 48.9345 120.536 59.8854 114.603C70.8364 108.671 78.7469 99.53 78.7469 99.53L78.7511 99.539Z" fill="#68923F"/>
<path d="M109.775 152.857C102.879 155.291 90.6749 160.183 82.5395 166.817C74.4042 173.451 67.3545 176.242 67.3545 176.242C67.3545 176.242 79.958 173.854 90.9089 167.922C101.86 161.99 109.77 152.848 109.77 152.848L109.775 152.857Z" fill="#68923F"/>
<path d="M92.2355 126.554C85.3397 128.987 73.1357 133.88 65.0004 140.513C56.8693 147.156 49.8154 149.939 49.8154 149.939C49.8154 149.939 62.4188 147.55 73.3698 141.618C84.3208 135.686 92.2313 126.545 92.2313 126.545L92.2355 126.554Z" fill="#68923F"/>
<path d="M123.353 177.647C116.457 180.081 104.253 184.974 96.1176 191.607C87.9865 198.25 80.9326 201.032 80.9326 201.032C80.9326 201.032 93.536 198.644 104.487 192.712C115.438 186.78 123.348 177.638 123.348 177.638L123.353 177.647Z" fill="#68923F"/>
<path d="M134.292 202.985C134.292 202.985 124.894 208.01 115.403 208.196C105.913 208.382 90.3959 219.78 90.3959 219.78C90.3959 219.78 101.945 206.859 113.258 203.349C124.57 199.839 134.306 202.989 134.306 202.989L134.292 202.985Z" fill="#68923F"/>
<path d="M129.954 192.828C127.836 194.68 112.252 200.554 103.37 202.078C94.4878 203.602 86.3769 208.219 86.3769 208.219C86.3769 208.219 102.156 194.485 114.105 191.54C126.063 188.591 129.941 192.823 129.941 192.823L129.954 192.828Z" fill="#68923F"/>
<path d="M72.6441 187.282C72.6441 187.282 73.925 186.788 75.9535 185.98C79.0354 182.712 84.7464 177.554 92.7847 174.018C99.9344 170.872 106.643 168.415 111.105 166.888C113.946 164.79 115.923 163.301 115.923 163.301C115.923 163.301 104.69 166.696 92.109 172.226C79.5322 177.765 72.635 187.286 72.635 187.286L72.6441 187.282Z" fill="#4D682F"/>
<path d="M96.114 191.62C87.9828 198.263 80.929 201.045 80.929 201.045C80.929 201.045 84.1913 200.427 88.8367 199.036C91.1703 197.602 93.9014 195.742 96.7674 193.411C103.605 187.831 113.3 183.494 120.32 180.805C122.256 178.916 123.345 177.651 123.345 177.651C116.449 180.085 104.245 184.977 96.1098 191.611L96.114 191.62Z" fill="#4D682F"/>
<path d="M102.023 175.766C100.276 177.015 97.5384 178.504 94.4331 180.008C86.5996 186.723 79.1898 198.42 79.1898 198.42C79.1898 198.42 82.071 195.433 85.5036 192.256C89.1193 187.594 93.9735 182.062 98.6099 179.176C104.222 175.684 111.257 173.836 115.74 172.95C117.462 171.909 118.808 171.032 119.533 170.432C119.533 170.432 111.633 171.292 103.888 174.416C103.262 174.872 102.64 175.314 102.019 175.757L102.023 175.766Z" fill="#4D682F"/>
<path d="M82.5437 166.817C74.4126 173.46 67.3587 176.243 67.3587 176.243C67.3587 176.243 70.621 175.624 75.2664 174.233C77.6 172.799 80.3311 170.939 83.1971 168.609C90.0348 163.028 99.73 158.691 106.75 156.002C108.685 154.114 109.775 152.849 109.775 152.849C102.879 155.282 90.6749 160.175 82.5395 166.808L82.5437 166.817Z" fill="#4D682F"/>
<path d="M65.6502 142.304C72.4879 136.723 82.1832 132.387 89.2029 129.697C91.1385 127.809 92.2277 126.544 92.2277 126.544C85.3319 128.978 73.1279 133.87 64.9926 140.504C56.8615 147.146 49.8076 149.929 49.8076 149.929C49.8076 149.929 53.0699 149.31 57.7153 147.919C60.0489 146.485 62.78 144.625 65.646 142.295L65.6502 142.304Z" fill="#4D682F"/>
<path d="M51.5202 113.507C43.3891 120.15 36.3353 122.932 36.3353 122.932C36.3353 122.932 39.5975 122.314 44.243 120.922C46.5766 119.489 49.3077 117.629 52.1736 115.298C59.0113 109.717 68.7066 105.381 75.7263 102.691C77.6619 100.803 78.7511 99.5381 78.7511 99.5381C71.8554 101.972 59.6514 106.864 51.516 113.498L51.5202 113.507Z" fill="#4D682F"/>
<path d="M81.8726 117.215C78.8226 117.316 73.3881 118.312 67.3561 121.635C67.0239 121.822 66.6917 122.009 66.3595 122.196C64.3832 123.354 62.359 124.766 60.3435 126.482C51.7628 133.796 46.2642 141.577 46.2642 141.577C46.2642 141.577 48.039 140.127 51.1143 138.129C53.5424 135.33 56.92 131.748 61.006 128.269C69.5867 120.955 78.3209 119.135 82.5308 118.993C84.582 118.924 86.0983 119.39 87.1214 119.886C87.7431 119.444 88.0731 119.181 88.0731 119.181C88.0731 119.181 86.0783 117.063 81.8684 117.206L81.8726 117.215Z" fill="#4D682F"/>
<path d="M78.8975 154.508C70.3167 161.821 64.8182 169.603 64.8182 169.603C64.8182 169.603 66.593 168.153 69.6682 166.155C72.0963 163.356 75.4739 159.774 79.5599 156.295C88.1406 148.981 96.8748 147.161 101.085 147.019C103.136 146.95 104.652 147.416 105.675 147.912C106.297 147.47 106.627 147.207 106.627 147.207C106.627 147.207 104.632 145.089 100.422 145.232C96.2123 145.374 87.4782 147.194 78.8975 154.508Z" fill="#4D682F"/>
<path d="M79.6931 112.416C81.4154 111.376 82.7615 110.499 83.4863 109.899C83.4863 109.899 70.864 111.271 61.901 116.855C52.938 122.44 43.1434 137.887 43.1434 137.887C43.1434 137.887 46.0245 134.899 49.4572 131.722C53.0728 127.061 57.9271 121.528 62.5635 118.642C68.1755 115.15 75.2104 113.302 79.6931 112.416Z" fill="#4D682F"/>
<path d="M44.2069 79.402C54.8543 75.6934 63.6559 77.1599 67.6276 78.5493C69.5227 79.2144 70.756 80.164 71.5366 80.9926C71.8703 80.9042 72.042 80.8467 72.042 80.8467C72.042 80.8467 70.9502 78.1564 66.9742 76.758C62.9982 75.3596 54.2009 73.9021 43.5535 77.6106C32.9061 81.3192 24.9638 86.5851 24.9638 86.5851C24.9638 86.5851 27.4575 85.7827 31.5038 84.9774C34.7722 83.2541 39.1973 81.1493 44.2202 79.4068L44.2069 79.402Z" fill="#4D682F"/>
<path d="M89.3879 230.782C89.3879 230.782 93.3921 228.244 97.9235 225.727C102.796 221.828 109.144 217.378 114.62 215.568C121.385 213.327 129.236 213.218 134.062 213.429C135.787 212.872 137.149 212.385 137.939 211.997C137.939 211.997 124.595 210.265 113.958 213.781C103.321 217.298 89.3789 230.787 89.3789 230.787L89.3879 230.782Z" fill="#4D682F"/>
<path d="M77.3386 143.24C68.3756 148.824 58.5809 164.272 58.5809 164.272C58.5809 164.272 61.462 161.284 64.8946 158.107C68.5103 153.446 73.3646 147.913 78.001 145.027C83.613 141.535 90.6478 139.687 95.1306 138.801C96.8529 137.761 98.1989 136.884 98.9238 136.283C98.9238 136.283 86.3016 137.656 77.3386 143.24Z" fill="#4D682F"/>
<path d="M90.4014 219.78C90.4014 219.78 93.6996 217.359 98.1897 214.728C102.501 211.045 108.24 206.899 113.925 205.136C121.449 202.797 128.281 203.413 131.997 204.083C133.443 203.447 134.298 202.985 134.298 202.985C134.298 202.985 124.562 199.835 113.25 203.344C101.937 206.854 90.3881 219.775 90.3881 219.775L90.4014 219.78Z" fill="#4D682F"/>
<path d="M114.121 191.545C102.163 194.494 86.3926 208.224 86.3926 208.224C86.3926 208.224 89.2462 206.604 93.4248 204.966C99.1126 200.734 107.638 195.11 114.787 193.341C122.441 191.449 126.789 192.51 128.92 193.517C129.393 193.254 129.749 193.023 129.961 192.837C129.961 192.837 126.074 188.609 114.125 191.554L114.121 191.545Z" fill="#4D682F"/>
<path d="M136.336 219.318C132.178 218.621 123.264 218.673 113.396 224.136C103.528 229.599 96.595 236.139 96.595 236.139C96.595 236.139 98.8179 234.966 102.539 233.529C105.465 231.281 109.441 228.492 114.063 225.932C123.93 220.469 132.844 220.417 137.002 221.114C138.975 221.446 140.358 222.172 141.268 222.852C141.767 222.621 142.039 222.495 142.039 222.495C142.039 222.495 140.502 220.033 136.353 219.332L136.336 219.318Z" fill="#4D682F"/>
<path d="M38.6977 52.5848C36.3895 45.9836 35.7906 40.1225 35.7906 40.1225C35.7906 40.1225 42.7555 57.0862 50.4714 59.3973C57.163 61.4003 63.2471 66.0652 67.035 69.865C67.614 69.8063 67.9512 69.7493 67.9512 69.7493C64.4418 65.7653 57.5206 59.9121 49.8089 57.6102C42.093 55.2991 35.1281 38.3354 35.1281 38.3354C35.1281 38.3354 35.8375 45.2915 38.6977 52.5848Z" fill="#4D682F"/>
<path d="M52.4584 91.1508C58.6898 89.0909 65.9023 88.9351 70.4828 89.1167C72.24 88.5563 73.6194 88.0606 74.4095 87.6726C74.4095 87.6726 61.8279 86.0394 51.796 89.3637C41.7731 92.6837 28.6195 105.4 28.6195 105.4C28.6195 105.4 32.7151 102.798 37.2089 100.341C41.7361 96.7675 47.4739 92.8093 52.4536 91.164L52.4584 91.1508Z" fill="#4D682F"/>
<path d="M135.082 229.168C128.121 229.582 116.065 233.889 117.145 243.406C118.234 252.919 111.923 264.681 111.923 264.681C111.923 264.681 112.638 264.559 113.735 264.073C115.499 260.148 118.586 252.084 117.807 245.193C116.718 235.68 128.784 231.369 135.744 230.955C138.994 230.762 141.433 231.054 143.113 231.422C143.842 231.117 144.571 230.834 145.308 230.57C145.308 230.57 142.043 228.754 135.082 229.168Z" fill="#4D682F"/>
<path d="M52.5191 102.585C59.6688 99.4382 66.3774 96.981 70.839 95.4544C73.6802 93.356 75.6574 91.867 75.6574 91.867C75.6574 91.867 64.4243 95.2628 51.8434 100.793C39.2666 106.332 32.3693 115.852 32.3693 115.852C32.3693 115.852 33.6503 115.358 35.6788 114.551C38.7607 111.283 44.4718 106.125 52.5101 102.589L52.5191 102.585Z" fill="#4D682F"/>
<path d="M153.21 254.34C153.21 254.34 152.956 253.554 152.472 252.081C151.997 250.604 151.278 248.457 150.358 245.732C149.437 243.006 148.297 239.688 146.942 235.907C145.606 232.118 144.042 227.861 142.305 223.232C141.421 220.92 140.496 218.516 139.541 216.027C138.559 213.55 137.539 210.992 136.495 208.357C135.414 205.738 134.318 203.039 133.161 200.302C131.976 197.578 130.807 194.769 129.545 191.948C127.02 186.307 124.352 180.5 121.438 174.709C120.712 173.26 119.973 171.806 119.233 170.352C118.503 168.894 117.69 167.474 116.919 166.024C116.13 164.582 115.368 163.127 114.561 161.694L112.071 157.436L110.819 155.305C110.393 154.599 109.935 153.918 109.504 153.225C108.619 151.839 107.729 150.465 106.849 149.088C105.95 147.719 104.964 146.423 104.029 145.093C103.08 143.758 102.122 142.428 101.177 141.102C100.232 139.776 99.2918 138.46 98.3555 137.152C97.4471 135.81 96.598 134.429 95.7301 133.078C93.9447 130.39 92.4484 127.611 90.8824 124.92C90.0857 123.581 89.4203 122.192 88.6998 120.851C87.9974 119.501 87.272 118.173 86.6053 116.829C85.9518 115.489 85.3116 114.155 84.6708 112.842C84.3549 112.184 84.0299 111.53 83.7182 110.881C83.4156 110.228 83.1221 109.57 82.8327 108.922C81.6621 106.323 80.5069 103.805 79.4936 101.332C78.9758 100.095 78.4615 98.89 77.9647 97.6984C77.486 96.4985 77.02 95.3257 76.5623 94.1711C75.6289 91.8704 74.8051 89.64 74.0095 87.5179C73.1958 85.4042 72.5092 83.3748 71.8277 81.4753C70.4871 77.6769 69.3882 74.3288 68.5086 71.5732C66.7584 66.058 65.8922 62.8555 65.8922 62.8555C65.8395 62.6705 65.9482 62.4769 66.1375 62.4333C66.3225 62.3807 66.507 62.4936 66.5596 62.6786C66.5596 62.6786 67.458 65.8552 69.2674 71.332C70.1833 74.0706 71.3144 77.3929 72.6913 81.1744C73.3909 83.0655 74.1137 85.0781 74.9414 87.1744C75.751 89.2791 76.611 91.4926 77.5675 93.7717C78.0433 94.9178 78.5184 96.0864 79.002 97.273C79.5169 98.4562 80.0403 99.6574 80.5721 100.877C81.6126 103.337 82.7957 105.82 83.9893 108.397C84.2877 109.041 84.5861 109.686 84.8888 110.339C85.2095 110.984 85.5303 111.629 85.8552 112.283C86.501 113.582 87.1642 114.894 87.8267 116.23C88.4983 117.561 89.2426 118.858 89.954 120.204C90.6885 121.528 91.3678 122.899 92.1784 124.221C93.7681 126.868 95.2875 129.624 97.0665 132.228C97.9399 133.543 98.7764 134.896 99.6945 136.212C100.649 137.511 101.608 138.82 102.566 140.128C103.525 141.436 104.488 142.754 105.464 144.076C106.426 145.415 107.438 146.721 108.373 148.095C109.28 149.483 110.196 150.866 111.103 152.253C111.556 152.947 112.019 153.636 112.464 154.334L113.747 156.462L116.308 160.73C117.147 162.16 117.922 163.62 118.733 165.062C119.527 166.513 120.361 167.934 121.114 169.393C121.876 170.847 122.629 172.306 123.386 173.751C126.39 179.546 129.143 185.346 131.744 190.985C133.051 193.807 134.26 196.608 135.48 199.338C136.683 202.076 137.801 204.776 138.922 207.387C140.007 210.014 141.053 212.582 142.076 215.051C143.062 217.537 144.023 219.946 144.938 222.255C146.742 226.886 148.36 231.14 149.75 234.926C151.149 238.709 152.334 242.028 153.304 244.764C154.264 247.504 155.01 249.66 155.498 251.12C156 252.585 156.263 253.367 156.263 253.367C156.556 254.212 156.099 255.129 155.253 255.421C154.404 255.705 153.491 255.257 153.199 254.411L153.19 254.393L153.21 254.34Z" fill="#A2CD6E"/>
<path d="M153.929 254.03L153.921 254.012C153.921 254.012 153.667 253.226 153.183 251.753C152.708 250.276 151.989 248.129 151.068 245.404C150.147 242.678 149.007 239.36 147.653 235.579C146.316 231.79 144.752 227.533 143.016 222.904C142.132 220.591 141.206 218.188 140.252 215.699C139.27 213.222 138.25 210.664 137.206 208.028C136.125 205.41 135.029 202.711 133.872 199.974C132.687 197.249 131.518 194.441 130.256 191.62C127.731 185.979 125.063 180.172 122.149 174.381C121.423 172.932 120.683 171.478 119.944 170.024C119.213 168.566 118.401 167.146 117.63 165.695C116.841 164.254 116.079 162.799 115.272 161.366L112.782 157.108L111.53 154.977C111.104 154.27 110.645 153.59 110.214 152.897C109.329 151.51 108.44 150.137 107.559 148.76C106.661 147.391 105.675 146.095 104.739 144.765C103.79 143.43 102.832 142.1 101.888 140.774C100.943 139.448 100.003 138.131 99.0662 136.824C98.1578 135.481 97.3088 134.1 96.4409 132.75C94.6555 130.061 93.1591 127.283 91.5931 124.592C90.7964 123.253 90.1311 121.864 89.4105 120.522C88.7082 119.173 87.9828 117.844 87.316 116.5C86.6625 115.161 86.0223 113.826 85.3815 112.514C85.0656 111.856 84.7406 111.202 84.4289 110.553C84.1263 109.9 83.8328 109.242 83.5435 108.594C82.3728 105.995 81.2177 103.477 80.2044 101.004C79.6865 99.7672 79.1722 98.5617 78.6754 97.3701C78.1968 96.1702 77.7307 94.9975 77.273 93.8429C76.3396 91.5421 75.5159 89.3118 74.7203 87.1896C73.9065 85.0759 73.22 83.0465 72.5385 81.147C71.1979 77.3487 70.0989 74.0005 69.2193 71.245C68.9576 70.4184 68.7121 69.6505 68.4918 68.937C67.2019 64.9388 66.5584 62.6691 66.5584 62.6691C66.5057 62.4841 66.3122 62.3754 66.1362 62.4238C65.9512 62.4765 65.8425 62.6701 65.8909 62.846C65.8909 62.846 66.7572 66.0485 68.5073 71.5637C69.3869 74.3192 70.4817 77.6584 71.8265 81.4658C72.508 83.3653 73.2036 85.3904 74.0083 87.5084C74.8039 89.6305 75.6276 91.8609 76.5611 94.1616C77.0187 95.3162 77.4848 96.489 77.9634 97.6889C78.4693 98.8762 78.9787 100.095 79.4924 101.323C80.5099 103.805 81.6608 106.314 82.8315 108.912C83.1299 109.557 83.4234 110.214 83.717 110.872C84.0287 111.521 84.3537 112.175 84.6695 112.833C85.3104 114.145 85.9505 115.48 86.604 116.819C87.2575 118.158 87.992 119.482 88.6985 120.841C89.4191 122.183 90.0978 123.576 90.8811 124.911C92.4563 127.598 93.9435 130.38 95.7289 133.069C96.5968 134.419 97.4501 135.809 98.3543 137.143C99.2906 138.45 100.235 139.776 101.176 141.093C102.12 142.418 103.078 143.749 104.027 145.084C104.963 146.414 105.94 147.713 106.847 149.078C107.728 150.456 108.622 151.838 109.502 153.216C109.943 153.904 110.396 154.598 110.818 155.295L112.07 157.427L114.56 161.684C115.367 163.118 116.129 164.572 116.918 166.014C117.689 167.464 118.501 168.885 119.232 170.343C119.971 171.796 120.702 173.254 121.437 174.699C124.351 180.491 127.019 186.297 129.544 191.939C130.806 194.759 131.975 197.568 133.16 200.293C134.317 203.03 135.404 205.733 136.494 208.347C137.538 210.982 138.558 213.541 139.54 216.017C140.494 218.507 141.411 220.914 142.304 223.223C144.04 227.852 145.604 232.109 146.941 235.898C148.295 239.679 149.426 243.001 150.356 245.722C151.277 248.448 151.996 250.594 152.471 252.072C152.955 253.545 153.209 254.331 153.209 254.331L153.217 254.349C153.509 255.194 154.426 255.651 155.272 255.359C155.462 255.293 155.626 255.195 155.768 255.074C154.989 255.225 154.193 254.79 153.93 254.008L153.929 254.03Z" fill="#68923F"/>
<path d="M66.5437 63.8766C66.5437 63.8766 61.0546 58.1647 57.575 49.4391C54.0863 40.7176 52.052 29.7355 48.5974 23.4669C48.5974 23.4669 56.0788 30.9341 60.7902 40.5108C65.5016 50.0875 67.1492 60.83 67.1492 60.83L66.5479 63.8857L66.5437 63.8766Z" fill="#68923F"/>
</svg>
