<svg width="241" height="244" viewBox="0 0 241 244" fill="none" xmlns="http://www.w3.org/2000/svg">
<path d="M177.898 115.68C174.192 76.1236 158.786 18.3493 161.077 0.827034L85.954 224.574C86.342 224.877 86.5674 225.024 86.5674 225.024C86.5674 225.024 108.951 225.917 137.717 206.994C160.03 192.311 181.608 155.245 177.898 115.68Z" fill="#68923F"/>
<path d="M161.078 0.804294C152.443 16.1995 105.495 53.2871 78.8483 82.7659C52.1973 112.236 47.2936 154.856 56.3867 179.967C66.8534 208.888 82.6955 222.084 85.9677 224.579L161.078 0.826655C161.078 0.826655 161.073 0.817625 161.078 0.804294Z" fill="#739E46"/>
<path d="M70.0908 176.082C69.0636 178.389 72.154 187.728 72.1183 191.789C72.0826 195.849 71.893 200.006 76.1577 203.002C80.4268 206.007 82.0723 219.658 86.9693 221.377C91.8706 223.106 99.7741 220.723 102.77 216.458C105.775 212.189 106.279 203.928 114.066 204.668C121.853 205.409 121.413 201.187 124.341 197.941C127.26 194.699 141.285 185.497 143.054 176.754C143.054 176.754 126.344 187.946 118.995 186.287C111.636 184.633 119.024 179.449 119.333 172.964C119.643 166.48 117.496 157.865 130.346 155.283C143.186 152.706 154.821 144.322 159.532 135.871C164.235 127.425 164.814 119.903 164.855 119.851C164.906 119.793 156.985 128.578 149.758 130.916C142.535 133.263 130.682 133.265 127.003 136.005C123.329 138.732 123.966 124.502 132.355 122.463C140.744 120.424 143.078 117.372 141.614 111.49C140.145 105.598 150.019 95.7054 156.062 96.1361C162.106 96.5668 156.136 87.205 158.266 82.3784C160.396 77.5517 160.605 72.0897 160.605 72.0897C160.605 72.0897 151.746 79.416 150.801 83.0572C149.856 86.6984 144.642 91.6776 140.096 90.2998C135.55 88.9221 138.271 79.5485 143.602 78.1588C148.933 76.7691 149.091 69.9688 146.989 67.5588C144.888 65.1488 149.151 58.6623 152.556 58.3459C155.957 58.0204 156.76 47.4122 156.76 47.4122C156.76 47.4122 152.22 47.3943 150.894 50.3753C149.568 53.3563 148.819 43.6316 154.074 40.8046C159.329 37.9777 154.422 21.2511 154.422 21.2511C154.422 21.2511 148.404 27.3335 146.838 31.9023C145.272 36.4712 145.068 44.7333 144.213 45.7282C143.358 46.7231 139.637 41.1965 139.637 41.1965C139.637 41.1965 135.641 47.9876 136.487 51.8054C137.332 55.6232 137.942 59.5976 134.806 60.5722C131.67 61.5468 130.274 56.7838 127.663 57.2314C125.051 57.6791 121.898 62.4284 124.669 67.566C127.44 72.7036 128.624 78.2766 125.299 81.7346C121.973 85.1925 115.435 85.8395 116.487 80.5633C117.538 75.287 121.854 71.2795 119.585 66.7552C117.313 62.2219 116.487 58.0958 116.487 58.0958C116.487 58.0958 110.297 66.4427 109.493 72.5645C108.69 78.6863 111.728 89.6124 108.069 93.2296C104.409 96.8468 102.286 110.888 107.616 118.372C112.946 125.857 111.217 132.919 104.258 131.916C97.3038 130.923 97.563 125.913 92.5466 121.968C87.5393 118.019 81.502 110.074 78.9542 109.261C78.9542 109.261 76.3426 119.746 76.269 126.307C76.1955 132.867 78.9931 136.341 75.3664 142.513C71.7396 148.685 71.0622 158.115 79.8353 162.085C88.6084 166.056 89.9326 171.063 89.0489 177.179C88.156 183.299 87.9305 190.331 84.2377 189.278C80.5449 188.225 82.3639 185.673 78.3255 183.013C74.287 180.352 70.1261 176.109 70.1261 176.109L70.0908 176.082Z" fill="#60843A"/>
<path d="M79.207 239.611C79.207 239.611 84.0759 225.38 91.3772 204.029C91.7902 202.757 92.3972 201.149 93.026 199.819C93.6508 198.458 94.2787 197.172 94.7097 195.892C94.8231 195.572 94.914 195.252 95.005 194.932L95.308 193.801C95.5054 193.053 95.7118 192.301 95.9272 191.545C96.3447 190.028 96.7627 188.488 97.1854 186.935C98.0264 183.819 98.95 180.598 99.8697 177.346C100.794 174.08 101.738 170.738 102.754 167.34C104.795 160.562 107.096 153.56 110.114 146.692C110.866 144.971 111.672 143.268 112.531 141.585C113.385 139.914 114.135 138.327 114.793 136.617C116.118 133.216 117.143 129.625 118.221 126.009C118.756 124.203 119.309 122.388 119.929 120.575C120.534 118.802 121.149 117.024 121.755 115.251C122.966 111.704 124.177 108.18 125.374 104.673C125.971 102.926 126.558 101.184 127.15 99.4505C127.678 97.7696 128.091 96.0105 128.472 94.2554C128.85 92.4911 129.21 90.7132 129.663 88.9459C130.094 87.1782 130.677 85.4268 131.303 83.7657C133.812 77.0853 136.954 71.0118 139.645 65.1534C140.997 62.2266 142.258 59.3651 143.313 56.5356C144.35 53.6924 145.327 50.9553 145.741 48.2212C146.194 45.4788 146.434 42.728 147.192 40.206C147.951 37.6841 148.958 35.4531 149.754 33.3344C151.275 29.042 152.54 25.2368 153.618 22.1304C155.747 15.9082 156.963 12.3482 156.963 12.3482C157.011 12.2149 157.164 12.1417 157.297 12.1889C157.431 12.2361 157.5 12.3806 157.452 12.5139C157.452 12.5139 156.299 16.0885 154.28 22.3575C153.26 25.4919 152.075 29.2806 150.607 33.659C149.837 35.8318 148.869 38.077 148.184 40.4974C147.499 42.9179 147.311 45.5892 146.9 48.4218C146.699 49.8359 146.394 51.2884 145.956 52.716C145.549 54.1397 145.08 55.5712 144.561 57.0152C143.536 59.9079 142.309 62.8192 141.01 65.7873C138.408 71.7144 135.391 77.8395 133.049 84.4066C131.812 87.6666 131.166 91.0763 130.477 94.6731C130.122 96.4601 129.735 98.2733 129.19 100.106C128.63 101.858 128.064 103.623 127.499 105.388C126.364 108.909 125.22 112.457 124.066 116.032C123.487 117.815 122.921 119.602 122.342 121.385C121.773 123.141 121.265 124.934 120.766 126.746C119.763 130.359 118.787 134.026 117.458 137.629C117.123 138.531 116.78 139.414 116.374 140.328C116.173 140.79 115.977 141.215 115.777 141.632L115.167 142.909C114.367 144.553 113.616 146.23 112.913 147.917C110.09 154.658 107.948 161.573 106.046 168.319C105.097 171.696 104.22 175.039 103.349 178.323C102.487 181.626 101.627 184.795 100.843 187.938C100.447 189.501 100.056 191.05 99.6608 192.568C99.4678 193.324 99.2747 194.081 99.0906 194.834L98.8105 195.942C98.6997 196.361 98.5847 196.77 98.4564 197.175C97.9387 198.784 97.2636 200.203 96.6933 201.516C96.0913 202.856 95.704 203.949 95.2615 205.367C88.3382 226.838 83.7182 241.149 83.7182 241.149C83.319 242.403 81.9732 243.089 80.7193 242.69C79.4655 242.291 78.7795 240.945 79.1786 239.691C79.1786 239.691 79.1881 239.665 79.1928 239.651L79.207 239.611Z" fill="#A2CD6E"/>
<path d="M90.5191 211.683C90.5191 211.683 90.3298 211.519 89.9776 211.222C89.621 210.915 89.1151 210.458 88.4957 209.856C87.863 209.25 87.1751 208.481 86.3798 207.719C85.5625 206.934 84.608 206.071 83.5207 205.138C82.9748 204.667 82.4114 204.183 81.826 203.675C81.2496 203.163 80.5889 202.614 79.9901 201.87C79.3904 201.17 78.8511 200.108 78.7724 199.06C78.6841 198.039 78.7426 197.302 78.523 196.609C78.3176 195.876 77.9332 195.14 77.4453 194.442C77.1971 194.084 76.9394 193.752 76.6464 193.393C76.3405 193.008 76.0437 192.617 75.7653 192.196C75.2081 191.376 74.7515 190.442 74.3602 189.598C73.947 188.731 73.5566 187.843 73.1795 186.959C71.676 183.411 70.4655 179.734 69.5737 176.237C68.682 172.741 68.1179 169.42 67.7643 166.564C67.4198 163.704 67.2766 161.313 67.2186 159.634C67.185 158.797 67.1795 158.135 67.1789 157.692C67.1739 157.241 67.1738 157.008 67.1738 157.008C67.1712 156.909 67.2485 156.839 67.347 156.837C67.4364 156.838 67.5156 156.911 67.5139 157.001C67.5139 157.001 67.5273 157.238 67.5503 157.681C67.5734 158.125 67.6012 158.787 67.6618 159.611C67.7783 161.273 68.0113 163.644 68.4595 166.465C68.9167 169.283 69.5981 172.547 70.6033 175.957C71.6085 179.366 72.9195 182.929 74.5327 186.358C74.9372 187.207 75.3461 188.064 75.7778 188.9C76.2223 189.762 76.6286 190.522 77.1608 191.243C77.4181 191.596 77.6934 191.941 77.9868 192.278C78.2935 192.619 78.6261 193.015 78.9139 193.409C79.5029 194.203 80.0188 195.076 80.3358 196.066C80.688 197.083 80.6593 198.138 80.7581 198.833C80.8483 199.511 81.134 200.017 81.5982 200.549C82.5274 201.568 83.8873 202.515 84.9751 203.426C86.0943 204.332 87.1295 205.179 88.0182 205.974C88.9288 206.792 89.6265 207.511 90.2248 208.046C90.8275 208.589 91.3075 208.992 91.6335 209.258C91.9686 209.519 92.1492 209.665 92.1492 209.665L92.1578 209.683C92.7311 210.119 92.8365 210.944 92.3875 211.513C91.9475 212.077 91.1225 212.182 90.5539 211.733C90.5496 211.724 90.532 211.71 90.5187 211.706L90.5191 211.683Z" fill="#A2CD6E"/>
<path d="M96.3896 198.572C96.3896 198.572 96.6179 198.563 97.0474 198.557C97.4726 198.543 98.0994 198.51 98.9059 198.436C99.7034 198.366 100.69 198.205 101.914 198.098C103.105 197.995 104.435 197.926 105.881 197.868C107.291 197.783 108.95 197.845 110.31 197.584C111.002 197.432 111.534 197.2 112.012 196.717C112.509 196.226 113.116 195.36 114.004 194.76C114.851 194.167 115.793 193.773 116.734 193.491C117.197 193.348 117.696 193.232 118.149 193.137C118.58 193.043 119.007 192.939 119.43 192.804C120.28 192.542 121.07 192.177 121.932 191.755C122.781 191.35 123.625 190.914 124.452 190.464C127.791 188.684 130.979 186.61 133.823 184.489C136.672 182.356 139.169 180.157 141.223 178.169C143.269 176.186 144.872 174.413 145.956 173.154C146.509 172.525 146.921 172.018 147.2 171.674C147.488 171.326 147.635 171.146 147.635 171.146C147.69 171.075 147.806 171.064 147.877 171.119C147.947 171.174 147.954 171.281 147.903 171.361C147.903 171.361 147.761 171.551 147.486 171.903C147.216 172.265 146.808 172.781 146.286 173.429C145.237 174.737 143.695 176.569 141.706 178.648C139.717 180.726 137.276 183.042 134.47 185.311C131.663 187.58 128.499 189.798 125.171 191.739C124.339 192.225 123.498 192.692 122.644 193.155C121.826 193.6 120.896 194.066 119.955 194.392C119.482 194.562 119.006 194.701 118.534 194.826C118.08 194.943 117.675 195.048 117.265 195.187C116.455 195.463 115.706 195.82 115.107 196.283C114.513 196.71 114.112 197.334 113.436 198.099C112.741 198.896 111.68 199.413 110.782 199.62C109.86 199.848 109.001 199.904 108.235 199.97C107.464 200.027 106.716 200.085 106.008 200.134C104.584 200.237 103.298 200.352 102.182 200.496C101.092 200.628 100.078 200.824 99.2125 200.937C98.3604 201.055 97.6794 201.114 97.2091 201.15C96.7478 201.182 96.4971 201.191 96.4971 201.191C95.7762 201.235 95.1602 200.687 95.1155 199.966C95.0709 199.245 95.6192 198.629 96.3401 198.584C96.3492 198.58 96.3715 198.581 96.3848 198.585L96.4029 198.577L96.3896 198.572Z" fill="#A2CD6E"/>
<path d="M101.364 175.915C101.364 175.915 101.162 175.701 100.785 175.283C100.593 175.064 100.356 174.801 100.076 174.491C99.8041 174.177 99.4978 173.814 99.161 173.409C98.483 172.592 97.6832 171.588 96.8107 170.409C96.3787 169.828 95.9076 169.189 95.4335 168.473C94.9679 167.776 94.5251 167.056 94.0506 166.363C93.8023 166.005 93.5799 165.701 93.274 165.315C93.1604 165.17 92.938 164.866 92.8037 164.631C92.6561 164.391 92.5266 164.143 92.4061 163.89C91.9283 162.888 91.6527 161.845 91.4028 160.856C91.1486 159.859 90.9258 158.857 90.5986 157.938C90.4328 157.475 90.2576 157.037 90.0153 156.599C89.8079 156.211 89.5248 155.803 89.2271 155.457C88.9204 155.116 88.5771 154.814 88.2008 154.606C88.0813 154.541 88.0546 154.532 87.8641 154.434C87.656 154.323 87.4616 154.194 87.268 154.02C86.877 153.642 86.7237 153.228 86.6075 152.984C86.3803 152.461 86.1487 151.929 85.9214 151.405C85.6945 150.86 85.481 150.319 85.2499 149.765L84.5959 148.138C84.3441 147.493 84.1968 146.999 83.9975 146.418C83.6203 145.302 83.2478 144.172 82.8706 143.056L82.3026 141.377C82.2053 141.08 82.1201 140.854 82.0193 140.503L81.7802 139.654C81.4619 138.498 81.1703 137.352 80.8919 136.211C80.3443 133.924 79.9128 131.648 79.5604 129.445C78.8603 125.026 78.5714 120.865 78.5085 117.295C78.4456 113.724 78.613 110.753 78.768 108.685C78.932 106.613 79.0793 105.434 79.0793 105.434C79.0896 105.363 79.1532 105.311 79.2246 105.321C79.296 105.331 79.3485 105.395 79.3382 105.466C79.3382 105.466 79.2356 106.645 79.1387 108.719C79.0507 110.788 78.9865 113.743 79.1796 117.285C79.3685 120.818 79.8014 124.932 80.6415 129.273C81.0662 131.441 81.5703 133.66 82.1816 135.895C82.4917 137.01 82.8152 138.13 83.17 139.246L83.4404 140.092C83.508 140.303 83.6406 140.628 83.7341 140.893L84.3605 142.556C84.7781 143.664 85.1957 144.772 85.6133 145.88C85.8182 146.403 86.0344 147.042 86.2319 147.48L86.9443 149.09C87.1806 149.609 87.4122 150.141 87.6485 150.659C87.8981 151.183 88.1435 151.698 88.3931 152.221C88.5222 152.492 88.6005 152.61 88.6315 152.628C88.6401 152.646 88.6977 152.674 88.7377 152.688C88.7953 152.716 89.0305 152.814 89.1677 152.893C89.7836 153.209 90.3122 153.644 90.7643 154.104C92.5929 156.057 93.0675 158.423 93.6403 160.321C93.913 161.288 94.1963 162.161 94.572 162.879C94.6581 163.06 94.7622 163.232 94.8668 163.381C94.9842 163.558 95.041 163.631 95.2071 163.839C95.4962 164.167 95.8193 164.589 96.0899 164.947C96.6483 165.7 97.1182 166.407 97.5802 167.051C98.0204 167.672 98.488 168.258 98.9337 168.821C99.8165 169.928 100.622 170.874 101.292 171.629C101.634 171.998 101.936 172.33 102.199 172.625C102.467 172.908 102.7 173.14 102.879 173.331C103.27 173.732 103.481 173.942 103.481 173.942C104.051 174.534 104.038 175.46 103.464 176.022C102.89 176.583 101.955 176.575 101.394 176.001C101.389 175.992 101.372 175.978 101.354 175.964L101.364 175.915Z" fill="#A2CD6E"/>
<path d="M110.291 151.661C110.291 151.661 110.583 151.621 111.135 151.524C111.4 151.476 111.723 151.433 112.104 151.373C112.49 151.299 112.934 151.209 113.424 151.12C114.412 150.915 115.62 150.638 116.991 150.283C117.688 150.095 118.411 149.916 119.14 149.679C119.892 149.443 120.698 149.158 121.588 148.889C122.016 148.763 122.533 148.616 122.964 148.521C123.229 148.45 123.319 148.429 123.517 148.357C123.697 148.293 123.873 148.22 124.063 148.13C124.794 147.781 125.537 147.249 126.34 146.634C127.941 145.461 129.729 143.844 132.364 143.374C133.001 143.27 133.686 143.242 134.372 143.358C134.515 143.378 134.765 143.437 134.836 143.447C134.876 143.461 134.93 143.458 134.952 143.458C134.979 143.468 135.123 143.421 135.385 143.274C135.891 143.011 136.406 142.743 136.912 142.48C137.413 142.207 137.911 141.926 138.408 141.644L139.94 140.792C140.36 140.558 140.913 140.184 141.389 139.88C142.38 139.241 143.381 138.597 144.376 137.967L145.87 137.011C146.106 136.855 146.4 136.681 146.581 136.55L147.302 136.041C148.25 135.356 149.18 134.658 150.092 133.946C151.917 132.522 153.662 131.047 155.291 129.561C158.558 126.585 161.366 123.552 163.635 120.83C165.905 118.108 167.627 115.702 168.795 113.993C169.959 112.275 170.577 111.271 170.577 111.271C170.614 111.209 170.695 111.193 170.757 111.23C170.819 111.267 170.835 111.348 170.798 111.41C170.798 111.41 170.216 112.441 169.105 114.2C167.994 115.96 166.351 118.438 164.16 121.256C161.973 124.082 159.248 127.242 156.041 130.367C154.437 131.929 152.731 133.485 150.922 134.99C150.018 135.743 149.101 136.49 148.152 137.219L147.444 137.756C147.154 137.984 146.946 138.105 146.692 138.292L145.233 139.298C144.258 139.973 143.284 140.649 142.31 141.324C141.798 141.667 141.394 141.982 140.801 142.342L139.299 143.258C138.792 143.566 138.281 143.865 137.784 144.169C137.277 144.454 136.78 144.736 136.283 145.017C136.048 145.152 135.672 145.386 135.129 145.456C134.869 145.492 134.637 145.47 134.401 145.438C134.196 145.403 134.16 145.398 134.026 145.373C133.598 145.311 133.141 145.352 132.683 145.437C132.239 145.528 131.775 145.693 131.364 145.878C130.913 146.093 130.506 146.332 130.094 146.606C129.278 147.15 128.51 147.815 127.702 148.466C126.902 149.113 126.067 149.778 125.086 150.301C124.834 150.421 124.581 150.542 124.324 150.653C124.085 150.756 123.725 150.861 123.541 150.916C123.069 151.041 122.713 151.155 122.299 151.286C121.498 151.557 120.714 151.865 119.93 152.15C119.129 152.443 118.369 152.662 117.671 152.872C116.264 153.289 115.027 153.624 113.994 153.873C113.473 153.988 113.015 154.096 112.606 154.191C112.193 154.277 111.847 154.342 111.564 154.4C111.017 154.506 110.729 154.554 110.729 154.554C109.939 154.709 109.171 154.189 109.02 153.386C108.865 152.596 109.385 151.827 110.188 151.677C110.197 151.672 110.215 151.664 110.229 151.669L110.247 151.66L110.291 151.661Z" fill="#A2CD6E"/>
<path d="M121.025 119.477C121.025 119.477 120.882 119.268 120.617 118.807C120.335 118.355 119.99 117.7 119.54 116.873C119.135 116.024 118.586 115.012 118.086 113.799C117.833 113.2 117.541 112.564 117.272 111.883C117.012 111.198 116.743 110.473 116.462 109.721C116.163 108.977 115.941 108.164 115.67 107.34C115.431 106.513 115.107 105.67 114.9 104.772C114.45 102.992 113.935 101.122 113.61 99.1384C113.44 98.1557 113.186 97.1579 113.075 96.136C112.943 95.1137 112.814 94.0781 112.682 93.0334C112.518 91.9926 112.47 90.9406 112.414 89.8705C112.354 88.8138 112.289 87.748 112.224 86.6822C112.205 84.5528 112.241 82.4199 112.284 80.3274C112.462 78.2374 112.626 76.1873 112.797 74.2001C113.111 72.2334 113.411 70.3291 113.691 68.5228C113.801 67.6169 114.046 66.7582 114.231 65.9163C114.43 65.0791 114.611 64.2729 114.796 63.498C115.164 61.9483 115.455 60.5135 115.885 59.3004C116.27 58.0642 116.613 56.9926 116.889 56.1077C117.44 54.3378 117.755 53.3238 117.755 53.3238C117.779 53.2348 117.878 53.1875 117.971 53.2205C118.06 53.2446 118.108 53.3439 118.084 53.4329C118.084 53.4329 117.796 54.4563 117.28 56.2313C117.026 57.1167 116.711 58.1977 116.357 59.43C115.954 60.6525 115.694 62.0835 115.37 63.634C115.208 64.4093 115.036 65.2112 114.86 66.0488C114.692 66.8821 114.47 67.7412 114.382 68.6475C114.142 70.4457 113.892 72.3375 113.627 74.2917C113.505 76.2664 113.387 78.2949 113.259 80.3724C113.269 82.4391 113.279 84.5505 113.347 86.6451C113.435 87.6889 113.514 88.7371 113.601 89.7809C113.68 90.8291 113.755 91.8682 113.937 92.878C114.092 93.9007 114.243 94.9144 114.39 95.9191C114.523 96.9191 114.787 97.8901 114.979 98.8509C115.346 100.781 115.884 102.607 116.366 104.338C116.582 105.21 116.916 106.026 117.178 106.832C117.459 107.628 117.69 108.416 117.998 109.133C118.289 109.858 118.567 110.557 118.836 111.215C119.106 111.873 119.407 112.482 119.669 113.055C120.18 114.219 120.726 115.177 121.135 115.99C121.586 116.772 121.932 117.405 122.189 117.781C122.432 118.175 122.584 118.401 122.584 118.401C122.889 118.832 122.784 119.425 122.363 119.726C121.932 120.031 121.339 119.926 121.038 119.504C121.038 119.504 121.038 119.504 121.034 119.495L121.012 119.45L121.025 119.477Z" fill="#A2CD6E"/>
<path d="M125.463 106.737C125.463 106.737 125.715 106.683 126.119 106.557C126.524 106.453 127.15 106.232 127.942 105.965C128.722 105.648 129.677 105.304 130.733 104.778C131.811 104.32 132.964 103.648 134.242 102.961C134.858 102.578 135.496 102.174 136.162 101.757C136.492 101.544 136.823 101.332 137.175 101.119C137.506 100.884 137.833 100.639 138.169 100.391C138.84 99.8932 139.538 99.4053 140.232 98.8637C140.905 98.2992 141.582 97.7215 142.278 97.1351C142.623 96.8374 142.986 96.5535 143.323 96.2377C143.656 95.913 143.988 95.5882 144.317 95.2544C144.987 94.5915 145.665 93.9244 146.344 93.2572C146.975 92.5354 147.615 91.8094 148.25 91.0743C148.873 90.3345 149.57 89.6363 150.117 88.8325C150.696 88.0471 151.274 87.2618 151.857 86.4854L152.728 85.3164C153.004 84.919 153.249 84.5032 153.507 84.092C154.014 83.274 154.526 82.465 155.024 81.6737C155.531 80.8781 156.033 80.0958 156.433 79.2623C157.287 77.6368 158.108 76.0598 158.892 74.5671C159.56 73.0185 160.192 71.5543 160.767 70.2053C161.053 69.5263 161.333 68.8829 161.604 68.2663C161.835 67.6354 162.034 67.0308 162.233 66.471C162.625 65.3422 162.961 64.351 163.24 63.5422C163.803 61.9111 164.115 60.9866 164.115 60.9866C164.144 60.8843 164.243 60.8369 164.328 60.8743C164.421 60.9074 164.464 60.9976 164.431 61.0909C164.431 61.0909 164.136 62.0292 163.613 63.6744C163.352 64.497 163.033 65.5019 162.668 66.6401C162.487 67.2138 162.301 67.8231 162.074 68.4629C161.821 69.0933 161.558 69.7504 161.286 70.4342C160.733 71.8059 160.137 73.2977 159.503 74.8737C158.755 76.3939 157.96 78.0027 157.146 79.6648C156.763 80.512 156.27 81.3123 155.776 82.1351C155.291 82.9535 154.792 83.7895 154.293 84.6256C154.039 85.0458 153.812 85.4754 153.532 85.8861L152.677 87.0912C152.107 87.8946 151.533 88.7114 150.968 89.5238C150.424 90.359 149.74 91.0842 149.121 91.8554C148.486 92.6129 147.863 93.375 147.236 94.1282C146.552 94.831 145.877 95.5296 145.211 96.2239C144.878 96.571 144.545 96.9181 144.217 97.2519C143.879 97.59 143.52 97.883 143.174 98.203C142.474 98.8251 141.792 99.4385 141.123 100.034C140.432 100.607 139.716 101.126 139.039 101.659C138.699 101.921 138.368 102.179 138.036 102.437C137.692 102.667 137.348 102.898 137.013 103.124C136.338 103.568 135.681 104.003 135.056 104.412C133.75 105.156 132.573 105.873 131.459 106.393C130.379 106.963 129.37 107.356 128.563 107.707C127.725 108.018 127.085 108.257 126.599 108.4C126.118 108.552 125.889 108.606 125.889 108.606L125.844 108.627C125.332 108.738 124.814 108.42 124.699 107.899C124.579 107.391 124.897 106.874 125.418 106.758C125.418 106.758 125.427 106.754 125.436 106.75L125.463 106.737Z" fill="#A2CD6E"/>
<path d="M142.478 59.6374C142.478 59.6374 143.792 59.1879 145.659 58.1761C146.585 57.6791 147.644 57.0414 148.736 56.288C149.275 55.909 149.815 55.4852 150.369 55.0662C150.878 54.6016 151.45 54.1739 151.942 53.6732C152.448 53.1772 152.958 52.6903 153.398 52.1483C153.626 51.8842 153.846 51.6245 154.079 51.3694C154.281 51.0958 154.474 50.8266 154.676 50.5531C154.869 50.2838 155.066 50.0236 155.25 49.7587C155.407 49.4843 155.568 49.2189 155.721 48.9579C156.035 48.4315 156.326 47.9494 156.532 47.4523C156.746 46.9732 156.952 46.5208 157.129 46.1261C157.266 45.7171 157.385 45.3615 157.475 45.0635C157.67 44.4723 157.775 44.1343 157.775 44.1343L157.784 44.13C157.803 44.0543 157.875 44.0199 157.942 44.0435C158.009 44.0671 158.043 44.1393 158.019 44.2059C158.019 44.2059 157.919 44.5529 157.742 45.158C157.656 45.465 157.551 45.8253 157.422 46.2523C157.249 46.6561 157.07 47.1179 156.864 47.6151C156.676 48.1259 156.398 48.6351 156.092 49.1795C155.944 49.4496 155.791 49.733 155.638 50.0164C155.459 50.2904 155.266 50.5596 155.082 50.8469C154.893 51.1252 154.695 51.4078 154.502 51.6994C154.287 51.9682 154.063 52.2413 153.843 52.5234C153.416 53.0925 152.905 53.6018 152.404 54.1291C151.919 54.6702 151.356 55.1159 150.841 55.6162C150.292 56.0666 149.756 56.5218 149.216 56.9232C148.127 57.7303 147.063 58.4261 146.123 58.9631C144.25 60.0552 142.863 60.5839 142.863 60.5839L142.854 60.5882C142.592 60.6907 142.309 60.5601 142.206 60.2988C142.104 60.0374 142.234 59.7536 142.496 59.6512C142.496 59.6512 142.505 59.6469 142.514 59.6426L142.478 59.6374Z" fill="#A2CD6E"/>
<path d="M143.347 56.3434C143.347 56.3434 142.552 55.094 141.709 53.0922C141.276 52.0911 140.842 50.9021 140.454 49.6022C140.256 48.9544 140.104 48.2627 139.933 47.5796C139.821 46.8798 139.637 46.1696 139.57 45.4482C139.485 44.7354 139.387 44.0179 139.378 43.3021C139.362 42.944 139.351 42.5949 139.34 42.2458C139.351 41.8971 139.366 41.5574 139.381 41.2178C139.397 40.8781 139.416 40.5475 139.427 40.2212C139.473 39.9 139.519 39.5788 139.565 39.28C139.648 38.6643 139.726 38.0842 139.888 37.5639C140.027 37.0432 140.144 36.5668 140.25 36.1394C140.41 35.7309 140.537 35.3709 140.65 35.0734C140.867 34.4825 140.994 34.145 140.994 34.145C141.018 34.0783 141.09 34.0439 141.157 34.0675C141.223 34.0911 141.258 34.1633 141.234 34.23L141.225 34.2343C141.225 34.2343 141.116 34.5856 140.917 35.1678C140.813 35.4611 140.694 35.8167 140.557 36.2256C140.46 36.6488 140.362 37.1166 140.244 37.6377C140.114 38.1541 140.054 38.7255 139.985 39.3236C139.952 39.6272 139.92 39.9307 139.882 40.2476C139.881 40.5696 139.87 40.8959 139.869 41.218C139.863 41.5533 139.865 41.8844 139.859 42.2197C139.888 42.5602 139.909 42.905 139.929 43.2498C139.961 43.9437 140.073 44.6436 140.181 45.3344C140.271 46.0339 140.473 46.7131 140.599 47.3953C140.783 48.0607 140.958 48.7305 141.166 49.3516C141.585 50.603 142.042 51.7476 142.499 52.7044C143.393 54.6266 144.172 55.7729 144.172 55.7729C144.325 55.9994 144.274 56.3115 144.038 56.4681C143.812 56.6205 143.5 56.5699 143.343 56.3343C143.343 56.3343 143.343 56.3343 143.339 56.3253L143.33 56.3073L143.347 56.3434Z" fill="#A2CD6E"/>
<path d="M161.051 1.07208C161.066 0.987373 161.063 0.888913 161.078 0.804209C152.444 16.1994 105.495 53.287 78.8485 82.7658C52.1975 112.236 47.2938 154.856 56.3869 179.967C63.6085 199.922 73.3813 212.378 79.8368 219.016C71.9125 204.581 63.1846 181.7 63.1846 181.7L66.8833 184.833C66.8833 184.833 59.5721 162.971 61.7277 146.976L63.9414 147.715C63.9414 147.715 56.1985 139.841 57.5619 134.15C57.5619 134.15 60.7916 135.092 63.2342 138.658C63.2342 138.658 62.9468 131.55 59.8606 128.911C59.8606 128.911 63.7074 130.821 64.6788 132.928C64.6788 132.928 64.0635 128.524 60.4625 125.433L63.7563 126.533L61.1788 120.616C61.1788 120.616 67.4699 119.544 71.9775 127.255C71.9775 127.255 71.9789 118.336 66.8969 111.442L69.1506 112.195C69.1506 112.195 66.9883 106.801 67.1861 103.637L71.0858 105.589C71.0858 105.589 73.072 93.8624 77.4542 89.391C77.4542 89.391 81.4743 94.941 82.2864 99.8273C82.2864 99.8273 83.6706 89.4402 87.1967 81.4773L91.469 85.0238C91.469 85.0238 92.0462 73.7807 95.7303 69.5646L97.3181 72.1975L97.9406 67.1369L99.7493 68.7229C99.7493 68.7229 99.7257 67.1166 101.143 64.5131C101.143 64.5131 103.235 64.8564 103.605 66.5854C103.605 66.5854 104.422 64.0019 103.824 62.0271C103.824 62.0271 106.94 64.7513 107.683 69.2828C107.683 69.2828 109.274 63.8378 109.178 58.9202L111.072 60.2439C111.072 60.2439 110.824 56.0526 111.607 53.6742L113.891 56.1636C113.891 56.1636 114.288 50.9333 119.363 46.4748L119.263 49.4251C119.263 49.4251 122.675 45.8927 123.583 43.2886C123.583 43.2886 125.121 49.0695 124.572 51.3583C124.572 51.3583 128.521 45.4653 129.691 39.091C129.691 39.091 131.163 41.4355 130.762 43.0338C130.762 43.0338 131.85 41.3186 132.094 37.8567L133.508 39.4532C133.508 39.4532 133.395 35.2197 135.646 31.5985L137.075 33.1549C137.075 33.1549 138.793 26.6745 144.722 21.986L144.061 24.3622C144.061 24.3622 146.331 20.6653 149.273 18.5644L148.916 21.6038C148.916 21.6038 154.918 16.1608 156.873 13.7328L161.051 1.07208Z" fill="#4D682F"/>
<path d="M160.943 1.03488C160.985 0.959623 161.044 0.875763 161.086 0.800503C158.786 18.3047 174.196 76.1104 177.906 115.676C181.616 155.241 160.038 192.307 137.725 206.99C120 218.654 104.71 222.788 95.5763 224.24C110.559 217.418 131.25 204.306 131.25 204.306L126.413 204.595C126.413 204.595 145.356 191.464 153.206 177.351L150.993 176.612C150.993 176.612 161.915 174.938 164.226 169.56C164.226 169.56 161.081 168.378 156.984 169.778C156.984 169.778 161.462 164.252 165.515 163.993C165.515 163.993 161.289 163.216 159.251 164.332C159.251 164.332 162.374 161.17 167.108 160.851L163.814 159.752L169.416 156.56C169.416 156.56 165.016 151.933 156.793 155.412C156.793 155.412 162.133 148.256 170.329 145.789L168.075 145.035C168.075 145.035 173.034 142.006 174.774 139.359L170.486 138.59C170.486 138.59 175.913 128.015 175.08 121.809C175.08 121.809 168.543 123.851 164.968 127.273C164.968 127.273 170.068 118.128 172.012 109.634L166.474 109.915C166.474 109.915 172.741 100.568 172.313 94.9777L169.464 96.1365L171.994 91.7065L169.602 91.8943C169.602 91.8943 170.592 90.6246 170.996 87.6845C170.996 87.6845 169.113 86.71 167.781 87.8659C167.781 87.8659 168.678 85.3108 170.334 84.0894C170.334 84.0894 166.208 84.4058 162.897 87.5911C162.897 87.5911 164.875 82.283 167.895 78.3944L165.589 78.3199C165.589 78.3199 168.301 75.1099 169.088 72.7406L165.766 73.3717C165.766 73.3717 168.573 68.9424 167.185 62.3368L165.503 64.7564C165.503 64.7564 164.887 59.8873 165.715 57.2548C165.715 57.2548 161.016 60.9689 160.085 63.1298C160.085 63.1298 160.45 56.0426 163.332 50.237C163.332 50.237 160.75 51.2353 160.114 52.7576C160.114 52.7576 160.268 50.7343 162.143 47.8128L160.055 48.2434C160.055 48.2434 162.671 44.9242 163.046 40.6685L160.972 41.0591C160.972 41.0591 163.468 34.8393 161.534 27.5301L160.637 29.8303C160.637 29.8303 161.035 25.5079 159.928 22.0699L158.397 24.7161C158.397 24.7161 156.851 16.7567 156.735 13.6548L160.943 1.03488Z" fill="#4D682F"/>
</svg>
