<svg width="453" height="426" viewBox="0 0 453 426" fill="none" xmlns="http://www.w3.org/2000/svg">
<path d="M241.528 90.9399C227.923 76.2737 198.994 52.8959 184.839 54.5724C170.684 56.249 152.952 77.7088 143.435 81.552C133.919 85.3953 126.269 93.519 131.218 92.1568C136.167 90.7946 183.312 98.6712 203.83 112.796C224.348 126.921 247.439 154.908 231.245 155.536C215.036 156.169 189.875 120.288 158.711 109.635C127.563 98.9778 117.62 100.02 107.841 106.872C98.0833 113.734 89.4624 136.137 80.9565 143.078C72.4506 150.019 81.4519 145.37 91.3356 144.095C101.209 142.84 178.084 153.268 191.732 162.04C205.364 170.816 217.426 192.084 203.41 193.363C189.395 194.641 138.625 155.352 102.51 159.554C66.3962 163.755 60.1638 195.645 63.8508 194.946C67.5328 194.233 115.199 190.934 128.351 196.692C141.503 202.449 134.507 213.3 123.108 210.65C111.709 208 75.3844 200.997 68.523 213.753C61.6666 226.524 68.8475 243.285 57.0852 251.524C45.3228 259.762 50.8488 269.956 50.8488 269.956C50.8488 269.956 52.3961 281.448 66.7539 281.167C81.1118 280.886 85.1946 298.658 98.2624 304.93C111.33 311.203 136.535 284.113 144.179 275.252C151.824 266.391 163.871 271.03 156.644 283.435C149.416 295.84 108.982 321.26 105.577 322.874C102.182 324.469 126.044 346.576 157.67 328.666C189.296 310.757 207.157 249.099 219.231 241.867C231.305 234.636 234.118 258.921 228.267 274.053C222.431 289.179 166.493 342.943 157.759 347.741C149.044 352.549 139.017 354.106 149.975 354.682C160.933 355.258 181.11 368.284 193.038 368.073C204.965 367.863 213.605 362.827 232.495 335.848C251.369 308.874 250.551 265.053 264.016 256.008C277.481 246.962 275.332 283.181 267.073 306.693C258.814 330.204 225.4 364.373 220.595 366.175C215.794 367.993 226.763 370.044 236.715 367.537C246.667 365.031 273.658 371.903 286.064 364.916C298.485 357.925 308.067 321.985 310.408 302.118C312.749 282.251 301.455 228.876 309.179 240.554C316.903 252.232 328.395 286.691 325.173 306.846C321.951 327 306.564 348.182 306.184 351.499C305.799 354.8 312.024 349.107 322.769 349.029C333.514 348.952 356.991 341.295 365.275 335.165C373.558 329.036 371.91 311.209 368.06 291.883C364.214 272.572 343.673 247.92 345.6 234.304C347.526 220.687 370.493 246.027 378.541 265.446C386.588 284.865 386.275 299.669 383.19 309.731C380.104 319.794 382.148 321.58 389.654 310.798C397.159 300.017 425.833 271.561 419.028 255.181C412.219 238.785 371.652 213.574 368.301 209.274C364.934 204.979 370.764 203.329 383.545 209.443C396.31 215.562 421.214 247.613 423.551 251.017C425.888 254.422 425.066 242.475 426.883 234.91C428.699 227.344 407.713 209.004 399.132 189.288C390.551 169.573 347.399 183.261 338.525 187.113C324.088 193.385 320.149 182.135 320.149 182.135C320.149 182.135 316.697 170.727 332.056 167.28C341.495 165.159 384.434 150.767 379.725 129.789C375.032 108.805 381.168 81.6181 375.24 76.5789C369.312 71.5398 362.917 61.4108 363.052 65.5336C363.171 69.6614 361.95 110.216 355.252 122.7C348.549 135.169 342.867 137.274 343.039 131.825C343.226 126.371 361.111 82.0947 356.944 64.8375C352.777 47.5803 312.84 41.5031 300.426 37.2353C288.007 32.9523 287.409 35.6004 295.839 41.9237C304.264 48.2317 313.245 60.0039 318.195 80.4333C323.145 100.863 319.531 134.855 309.951 125.009C300.367 115.147 302.412 83.145 294.142 65.2602C285.862 47.3955 276.677 32.0103 266.373 31.9437C256.069 31.8771 232.606 39.5299 223.867 45.8079C215.143 52.0809 206.754 51.1376 209.016 53.5921C211.274 56.0313 236.196 64.0826 250.681 78.4615C265.166 92.8404 276.202 127.448 276.849 141.434C277.497 155.421 255.132 105.657 241.543 90.9854L241.528 90.9399ZM306.61 212.947C306.694 218.666 308.278 229.137 304.23 229.5C300.065 229.867 299.922 226.957 297.207 221.928C294.491 216.9 286.005 212.258 294.985 206.876C303.966 201.494 306.541 207.223 306.61 212.947ZM268.232 226.691C268.316 232.41 269.9 242.882 265.851 243.245C261.687 243.612 261.544 240.701 258.828 235.673C256.113 230.644 253.485 221.454 258.953 217.251C264.42 213.048 268.142 220.957 268.232 226.691ZM291.037 165.202C294.34 169.87 295.644 176.031 285.227 176.959C274.811 177.887 278.933 169.15 278.147 163.492C277.375 157.829 275.774 155.394 279.354 153.235C282.838 151.141 287.718 160.538 291.037 165.202ZM251.93 176.714C255.234 181.382 256.896 189.98 250.002 189.81C243.108 189.639 239.812 180.667 239.04 175.004C238.269 169.341 236.668 166.906 240.248 164.747C243.732 162.653 248.611 172.05 251.93 176.714Z" fill="#68923F"/>
<path d="M362.408 81.7453C361.504 95.7672 359.462 114.798 355.223 122.666C351.031 130.468 347.228 134.212 345.013 134.581C353.166 135.468 369.633 124.552 370.17 102.4C370.555 86.5311 365.378 82.6586 362.403 81.7301L362.408 81.7453Z" fill="#60843A"/>
<path d="M309.969 46.2915L307.676 54.8691C311.837 61.291 315.566 69.6347 318.164 80.3806C323.114 100.81 319.5 134.803 309.92 124.956C309.719 124.753 309.529 124.529 309.354 124.301L309.359 124.316C314.213 130.495 319.594 127.312 321.891 122.816C324.173 118.325 322.521 99.5586 327.009 95.2383C331.497 90.9181 343.742 73.7013 331.808 60.0865C319.858 46.4767 309.974 46.3067 309.974 46.3067L309.969 46.2915Z" fill="#60843A"/>
<path d="M128.335 196.668C140.681 202.067 135.257 211.968 125.131 210.953C135.615 212.859 144.818 209.858 142.817 203.722C142.817 203.722 146.053 201.591 147.98 202.038C147.98 202.038 137.001 189.187 112.734 187.626C88.467 186.065 70.9159 190.362 70.9159 190.362L73.3266 194.095C88.8204 193.124 118.412 192.31 128.345 196.648L128.335 196.668Z" fill="#60843A"/>
<path d="M229.737 63.7936C236.93 67.6134 244.678 72.4623 250.646 78.3958C265.131 92.7747 276.167 127.382 276.814 141.369C277.018 145.755 274.964 143.887 271.643 138.804C275.739 146.777 280.378 149.514 279.768 136.154C279.157 122.795 269.256 85.2798 260.158 79.8464C260.158 79.8464 265.944 75.6912 256.835 68.0098C247.727 60.3284 235.892 45.4211 228.839 47.9062C224.996 49.2604 227.053 57.0074 229.737 63.7936Z" fill="#60843A"/>
<path d="M212.923 177.28C206.937 163.153 188.237 154.602 188.237 154.602L191.137 153.656C191.137 153.656 161.211 139.121 137.313 136.012C113.414 132.903 98.5127 139.191 98.5127 139.191L106.659 144.851C132.566 147.423 181.13 155.223 191.72 162.035C205.352 170.811 217.414 192.08 203.398 193.358C201.604 193.523 199.187 193.017 196.274 192.019C210.732 197.3 218.908 191.407 212.923 177.28Z" fill="#60843A"/>
<path d="M203.827 112.774C224.345 126.899 247.436 154.886 231.242 155.514C228.453 155.617 225.418 154.658 222.111 152.914C233.178 159.234 241.08 158.27 242.454 154.243C243.829 150.216 235.118 134.121 235.118 134.121L238.11 135.464C238.11 135.464 217.741 103.665 195.076 95.0123C172.426 86.3544 153.411 90.5404 153.411 90.5404L160.249 96.3078C175.557 99.8669 193.235 105.492 203.827 112.774Z" fill="#60843A"/>
<path d="M272.713 197.585C259.229 200.235 247.591 205.56 238.423 208.769C229.254 211.978 210.111 217.113 206.857 218.829C203.603 220.546 188.094 224.613 184.421 226.383C180.747 228.152 165.576 232.277 158.665 234.784C151.754 237.29 141.591 241.159 137.444 242.663C133.297 244.167 124.72 248.056 119.432 249.462C114.16 250.862 105.944 252.668 102.755 253.037C99.5751 253.385 93.7981 256.227 88.4493 257.703C83.1004 259.178 77.4598 261.253 74.9792 262.096C72.4985 262.939 62.7199 265.154 50.8332 269.972C50.8332 269.972 52.3805 281.464 66.7383 281.183C81.0961 280.902 85.179 298.673 98.2468 304.946C111.315 311.218 136.519 284.129 144.164 275.268C151.808 266.406 163.856 271.046 156.628 283.451C149.4 295.855 108.966 321.275 105.561 322.89C102.167 324.485 126.028 346.592 157.654 328.682C189.28 310.772 207.141 249.114 219.215 241.883C231.289 234.652 234.103 258.937 228.252 274.068C222.415 289.195 166.478 342.959 157.743 347.757C149.029 352.565 139.002 354.122 149.96 354.698C160.917 355.273 181.094 368.3 193.022 368.089C204.95 367.878 213.59 362.842 232.479 335.864C251.354 308.89 250.536 265.069 264 256.023C277.465 246.977 275.317 283.197 267.057 306.708C258.798 330.22 225.385 364.388 220.579 366.191C215.779 368.009 226.747 370.06 236.7 367.553C246.652 365.046 273.642 371.919 286.048 364.932C298.469 357.94 308.052 322.001 310.392 302.134C312.733 282.267 301.44 228.892 309.164 240.57C316.888 252.248 328.379 286.707 325.157 306.861C321.936 327.016 306.549 348.198 306.169 351.514C305.784 354.815 312.008 349.122 322.753 349.045C333.498 348.968 356.976 341.31 365.259 335.181C373.543 329.052 371.895 311.225 368.044 291.898C364.199 272.587 343.657 247.935 345.584 234.319C347.511 220.703 370.477 246.043 378.525 265.462C386.573 284.881 386.26 299.684 383.174 309.747C380.088 319.809 382.133 321.596 389.638 310.814C397.143 300.032 425.817 271.576 419.012 255.196C412.203 238.801 371.637 213.59 368.285 209.29C364.918 204.995 370.748 203.345 383.529 209.459C396.295 215.578 421.198 247.628 423.535 251.033C425.336 253.671 425.263 247.109 425.967 240.511C414.565 224.975 395.092 199.219 382.863 195.311C367.901 190.547 373.558 199.959 362.32 199.861C351.672 199.772 329.268 196.864 321.322 184.3C320.476 183.098 320.139 182.116 320.139 182.116C320.139 182.116 286.197 194.934 272.713 197.585ZM306.604 212.943C306.689 218.661 308.273 229.133 304.224 229.496C300.06 229.863 299.917 226.952 297.201 221.924C294.486 216.895 285.999 212.254 294.98 206.871C303.961 201.489 306.535 207.219 306.604 212.943ZM268.226 226.687C268.31 232.406 269.895 242.877 265.846 243.24C261.681 243.607 261.539 240.697 258.823 235.668C256.108 230.64 253.48 221.449 258.947 217.247C264.415 213.044 268.137 220.953 268.226 226.687Z" fill="#60843A"/>
<path d="M321.418 129.042C317.134 136.152 311.42 154.28 310.129 154.701C308.838 155.122 306.892 149.154 306.892 149.154C306.892 149.154 306.813 162.049 302.38 157.06C297.947 152.071 299.521 142.989 295.376 135.587C291.231 128.185 286.535 113.94 286.535 113.94C286.535 113.94 285.543 127.537 286.357 134.412C287.171 141.288 295.742 160.301 292.284 160.001C288.836 159.68 283.375 148.709 283.375 148.709L283.137 151.945C280.873 150.617 281.453 146.782 281.453 146.782C281.453 146.782 278.536 149.481 274.542 150.783C270.548 152.086 275.511 169.773 270.756 169.106C266.002 168.438 253.8 150.24 253.8 150.24C253.8 150.24 263.64 172.838 261.118 174.585C258.597 176.331 257.039 171.093 257.039 171.093C257.039 171.093 255.08 175.748 251.008 169.448C246.932 163.132 240.904 161.083 237.346 163.722C233.788 166.361 238.055 179.032 235.787 179.907C233.518 180.781 224.587 173.747 224.587 173.747C224.587 173.747 235.955 202.316 230.018 204.975C224.096 207.629 215.586 203.432 212.022 207.804C208.457 212.175 197.829 215.289 193.881 211.94C189.932 208.59 171.838 199.118 171.838 199.118L173.156 203.158L169.435 204.371C169.435 204.371 179.728 217.278 178.951 220.925C178.175 224.573 167.319 224.72 160.474 227.843C153.63 230.966 129.399 246.413 129.399 246.413C129.399 246.413 154.211 245.73 163.566 243.401C172.926 241.087 174.613 231.01 181.195 234.139C187.777 237.268 188.943 254.597 188.943 254.597L198.38 232.482L200.989 238.369C200.989 238.369 204.822 224.366 215.352 227.03C225.878 229.68 227.671 219.417 235.619 223.125C243.566 226.834 247.394 257.424 247.394 257.424C247.394 257.424 251.361 239.967 254.627 238.751C257.893 237.534 263.413 249.511 268.829 247.006C274.245 244.5 270.849 231.41 272.327 227.853C273.804 224.296 278.985 226.27 278.047 234.624C277.114 242.993 288.971 272.393 288.971 272.393C288.971 272.393 289.402 242.496 289.662 234.33C289.926 226.179 294.165 226.14 297.209 231.868C300.253 237.596 306.642 230.707 309.647 227.811C312.651 224.916 313.815 226.939 316.737 235.899C319.659 244.859 346.328 285.154 346.328 285.154C346.328 285.154 345.284 268.407 340.661 261.598C336.027 254.81 326.249 230.394 326.249 230.394C329.75 232.73 329.864 234.574 329.864 234.574C333.541 228.436 326.424 220.424 328.419 216.698C330.413 212.973 336.039 216.212 341.249 219.873C346.458 223.533 373.034 232.843 373.034 232.843C373.034 232.843 349.78 206.623 342.604 203.939C335.408 201.246 335.323 190.991 344.825 184.784C342.061 185.685 339.863 186.52 338.48 187.122C324.043 193.393 320.105 182.144 320.105 182.144C320.105 182.144 316.653 170.736 332.011 167.289C333.468 166.965 335.705 166.353 338.423 165.466C331.475 166.624 319.952 158.134 323.953 151.754C327.955 145.375 330.547 118.705 330.547 118.705C330.547 118.705 325.677 121.957 321.377 129.072L321.418 129.042ZM306.611 212.941C306.695 218.659 308.279 229.131 304.231 229.494C300.066 229.861 299.923 226.95 297.208 221.922C294.492 216.893 286.006 212.252 294.986 206.87C303.967 201.487 306.542 207.217 306.611 212.941ZM268.233 226.685C268.317 232.404 269.901 242.875 265.852 243.238C261.688 243.605 261.545 240.695 258.829 235.666C256.114 230.638 253.486 221.447 258.954 217.245C264.421 213.042 268.143 220.951 268.233 226.685ZM250.018 189.798C243.124 189.628 239.828 180.655 239.056 174.993C238.285 169.33 236.684 166.895 240.264 164.736C243.748 162.642 248.628 172.039 251.947 176.703C255.25 181.371 256.912 189.969 250.018 189.798ZM291.038 165.195C294.341 169.864 295.645 176.025 285.228 176.953C274.812 177.881 278.934 169.143 278.148 163.486C277.376 157.823 275.775 155.388 279.355 153.229C282.839 151.135 287.719 160.532 291.038 165.195Z" fill="#739E46"/>
<path d="M203.71 363.19C208.007 361.066 213.693 355.885 213.693 355.885C211.523 357.937 204.308 358.946 204.308 358.946C214.071 352.922 218.584 342.394 218.584 342.394C213.537 347.216 200.59 349.607 200.59 349.607C207.065 344.32 208.389 334.008 208.389 334.008C203.259 339.865 190.042 346.528 190.042 346.528C193.177 343.826 194.091 336.841 194.091 336.841C190.498 340.197 181.264 342.537 181.264 342.537C188.278 338.233 195.768 320.399 195.768 320.399C195.768 320.399 184.764 326.173 177.484 330.95C168.209 339.654 160.57 346.212 157.776 347.744C149.062 352.553 139.035 354.109 149.993 354.685C160.951 355.261 181.128 368.288 193.055 368.077C200.406 367.947 206.516 365.971 214.527 358.183C210.28 360.308 205.802 362.289 203.715 363.205L203.71 363.19Z" fill="#4D682F"/>
<path d="M419.024 255.173C416.582 249.282 409.767 242.247 401.891 235.458C401.891 235.458 410.892 248.735 409.2 261.216L403.729 252.685C403.729 252.685 408.816 269.927 403.491 277.814C403.491 277.814 403.966 273.912 400.49 268.611C400.49 268.611 400.593 278.356 397.53 284.983C397.53 284.983 393.281 269.484 385.72 261.499C385.72 261.499 389.096 268.967 388.098 273.324C388.098 273.324 379.599 258.186 372.879 254.531C375.113 258.187 377.069 261.918 378.541 265.453C386.589 284.872 386.276 299.676 383.191 309.738C380.105 319.801 382.149 321.587 389.654 310.806C397.16 300.024 425.833 271.568 419.029 255.188L419.024 255.173Z" fill="#4D682F"/>
<path d="M413.376 212C416.806 216.644 416.668 220.033 416.668 220.033C414.187 216.961 410.536 215.195 410.536 215.195C413.743 218.433 415.638 224.653 415.638 224.653C409.215 215.626 397.64 209.757 397.64 209.757C402.414 212.081 408.236 222.514 408.236 222.514C402.992 217.924 393.136 216.451 393.136 216.451C405.988 228.036 421.713 248.328 423.54 250.992C425.877 254.396 425.055 242.45 426.872 234.884C427.946 230.401 420.994 222.117 413.376 212Z" fill="#4D682F"/>
<path d="M137.468 282.599C128.944 286.757 122.72 289.257 122.72 289.257C126.281 286.214 126.565 280.493 126.565 280.493C120.887 285.285 110.574 285.709 110.574 285.709C116.57 281.065 110.98 272.168 110.98 272.168C100.83 281.746 90.4849 283.356 79.0992 286.465C85.1696 292.147 89.8563 300.901 98.2408 304.92C108.62 309.902 126.651 293.839 137.463 282.584L137.468 282.599Z" fill="#4D682F"/>
<path d="M298.803 346.741C292.142 354.29 285.289 356.357 285.289 356.357L285.336 349.907C285.336 349.907 274.956 359.19 269.131 361.628L270.392 358.898L262.89 363.663C262.89 363.663 260.497 358.748 263.406 353.397C263.406 353.397 257.877 356.175 253.646 359.689C253.646 359.689 254.561 350.956 258.669 343.82C258.669 343.82 248.978 350.475 243.856 356.615C243.856 356.615 243.532 349.748 245.325 341.233C234.388 354.528 223.212 365.18 220.594 366.168C215.793 367.986 226.762 370.037 236.714 367.53C246.666 365.023 273.657 371.896 286.063 364.909C290.803 362.237 295.126 355.35 298.803 346.741Z" fill="#4D682F"/>
<path d="M370.17 304.116C370.17 304.116 368.838 318.681 363.301 324.267C363.301 324.267 365.335 320.663 363.197 315.346C363.197 315.346 360.313 325.41 352.471 330.521L351.907 325.497C351.907 325.497 346.163 334.981 337.822 339.853C337.822 339.853 332.196 337.386 334.518 329.723C334.518 329.723 327.176 335.546 325.281 340.448C325.281 340.448 322.166 330.795 322.386 317.769C316.871 334.085 306.496 348.793 306.171 351.504C305.786 354.805 312.01 349.112 322.755 349.035C333.5 348.958 356.978 341.3 365.261 335.17C371.758 330.363 372.149 318.374 370.154 304.121L370.17 304.116Z" fill="#4D682F"/>
<path d="M157.665 328.657C159.693 327.508 161.647 326.182 163.571 324.715C156.652 329.878 146.53 328.928 146.53 328.928C152.846 324.852 154.021 317.379 154.021 317.379C146.12 324.375 127.506 326.027 127.506 326.027C131.274 324.395 131.27 322.783 131.27 322.783C128.646 324.58 125.458 323.872 125.458 323.872C130.142 322.21 134.782 315.471 134.782 315.471C129.198 318.906 119.079 319.921 119.079 319.921C122.677 317.404 127.512 313.323 127.512 313.323C127.512 313.323 118.579 315.917 114.072 317.707C109.639 320.547 106.434 322.466 105.573 322.865C102.178 324.459 126.039 346.567 157.665 328.657Z" fill="#4D682F"/>
<path d="M119.332 104.494C124.055 103.676 131.703 104.508 131.703 104.508C128.74 104.13 122.318 107.569 122.318 107.569C133.755 106.678 143.607 112.521 143.607 112.521C136.688 111.602 124.821 117.304 124.821 117.304C133.168 117.757 140.317 125.305 140.317 125.305C132.721 123.599 118.117 126.01 118.117 126.01C122.242 126.345 127.098 131.448 127.098 131.448C122.218 130.855 113.38 134.41 113.38 134.41C121.583 133.751 138.147 143.738 138.147 143.738C138.147 143.738 125.856 145.563 117.159 145.997C104.536 144.435 94.4988 143.643 91.3391 144.052C81.4656 145.307 72.4492 149.961 80.96 143.035C89.4709 136.109 98.0869 113.692 107.845 106.829C113.858 102.6 119.958 100.593 131.021 102.16C126.338 102.948 121.553 103.988 119.327 104.479L119.332 104.494Z" fill="#4D682F"/>
<path d="M356.934 64.8144C358.435 71.012 357.079 80.712 354.72 90.8399C354.72 90.8399 354.162 74.8083 345.437 65.7251L346.048 75.8419C346.048 75.8419 339.99 58.916 331.039 55.6859C331.039 55.6859 333.723 58.5573 334.041 64.8887C334.041 64.8887 328.379 56.9568 321.997 53.4099C321.997 53.4099 327.704 68.4343 326.305 79.3412C326.305 79.3412 324.629 71.3189 321.254 68.3875C321.254 68.3875 323.314 85.626 320.042 92.5404C319.691 88.2697 319.071 84.1034 318.176 80.3798C313.226 59.9504 304.245 48.1782 295.82 41.8702C287.394 35.5621 287.992 32.914 300.406 37.1818C312.825 41.4648 352.762 47.542 356.925 64.784L356.934 64.8144Z" fill="#4D682F"/>
<path d="M377.829 103.005C377.866 97.2467 375.752 94.576 375.752 94.576C375.56 98.5199 373.653 102.099 373.653 102.099C374.333 97.5926 372.196 91.4515 372.196 91.4515C372.331 102.53 366.443 114.095 366.443 114.095C368.928 109.403 367.479 97.5433 367.479 97.5433C365.95 104.343 358.858 111.344 358.858 111.344C362.407 94.409 363.144 68.7477 363.049 65.5192C362.929 61.3915 369.309 71.5254 375.237 76.5645C378.749 79.5524 378.017 90.3425 377.829 103.005Z" fill="#4D682F"/>
<path d="M113.352 208.658C104.016 210.326 97.5145 211.976 97.5145 211.976C102.185 212.334 105.788 216.788 105.788 216.788C98.3758 216.265 89.7969 222.003 89.7969 222.003C97.3776 222.219 98.108 232.7 98.108 232.7C84.2634 230.949 74.958 235.748 63.929 239.95C65.482 231.782 64.1059 221.949 68.508 213.758C73.9533 203.615 97.9878 205.958 113.357 208.673L113.352 208.658Z" fill="#4D682F"/>
<path d="M205.839 61.7376C196.008 59.5677 189.254 61.9386 189.254 61.9386L193.095 67.1209C193.095 67.1209 179.238 65.7433 173.096 67.2089L175.723 68.6706L166.854 69.2447C166.854 69.2447 167.82 74.6256 173.324 77.2323C173.324 77.2323 167.221 78.2486 161.732 77.905C161.732 77.905 167.62 84.4189 175.145 87.761C175.145 87.761 163.394 88.0993 155.637 86.16C155.637 86.16 159.424 91.8976 165.893 97.7181C149.22 93.4279 133.913 91.4145 131.215 92.1598C126.266 93.522 133.916 85.3983 143.432 81.5551C152.949 77.7119 170.697 56.2471 184.836 54.5755C190.24 53.9386 197.793 56.9525 205.839 61.7376Z" fill="#4D682F"/>
<path d="M288.619 54.0907C288.619 54.0907 278.956 43.1122 271.19 41.8649C271.19 41.8649 274.957 43.5764 276.366 49.1319C276.366 49.1319 268.103 42.7036 258.755 43.1989L261.262 47.5896C261.262 47.5896 251.031 43.3157 241.422 44.2992C241.422 44.2992 238.331 49.6085 244.725 54.4284C244.725 54.4284 235.363 54.0547 230.941 51.2126C230.941 51.2126 234.117 60.8458 241.975 71.2368C227.9 61.3108 210.849 55.5481 208.988 53.5509C206.73 51.1117 215.115 52.0397 223.838 45.7667C232.562 39.4937 256.04 31.8359 266.344 31.9025C274.426 31.9547 281.811 41.4081 288.604 54.0956L288.619 54.0907Z" fill="#4D682F"/>
<path d="M102.513 159.547C104.828 159.279 107.188 159.198 109.607 159.249C100.975 159.158 93.3594 165.893 93.3594 165.893C100.863 165.461 106.219 170.805 106.219 170.805C95.7132 169.812 79.7038 179.453 79.7038 179.453C83.7103 178.55 84.6566 179.854 84.6566 179.854C81.4786 179.95 79.321 182.401 79.321 182.401C84.0836 180.982 91.8048 183.689 91.8048 183.689C85.27 184.207 76.4979 189.353 76.4979 189.353C80.8881 189.266 87.1994 189.71 87.1994 189.71C87.1994 189.71 78.4552 192.882 73.7597 194.094C68.5042 194.414 64.7842 194.753 63.8535 194.939C60.1715 195.653 66.4091 163.728 102.513 159.547Z" fill="#4D682F"/>
<path d="M78.5494 249.124C74.4228 246.723 68.0517 246.919 68.0517 246.919C68.0517 246.919 69.8394 237.616 77.2674 234.891L64.2551 238.009C63.5285 243.354 61.8812 248.142 57.0808 251.506C45.3185 259.744 50.8445 269.938 50.8445 269.938C50.8445 269.938 52.3918 281.43 66.7496 281.149C72.6099 281.035 76.7636 283.931 80.5018 287.82L92.8503 282.666C85.244 284.845 78.3149 278.385 78.3149 278.385C78.3149 278.385 83.5764 274.787 85.4939 270.415C85.4939 270.415 69.2547 276.518 61.6701 273.766C61.6701 273.766 63.3788 271.999 63.9917 269.397C63.9917 269.397 58.4184 271.215 57.3089 267.813C56.1993 264.411 61.7726 262.593 61.7726 262.593C59.723 260.843 57.3212 260.433 57.3212 260.433C61.84 253.734 78.5395 249.093 78.5395 249.093L78.5494 249.124Z" fill="#4D682F"/>
<path d="M293.033 310.052C292.433 313.776 288.794 319.668 288.794 319.668C289.812 315.269 287.043 312.342 287.043 312.342C286.05 315.892 283.128 317.03 283.128 317.03C284.992 311.616 283.546 307.803 283.546 307.803C280.698 310.866 276.585 311.032 276.585 311.032C280.03 305.523 282.757 295.544 282.757 295.544C283.45 297.67 283.203 301.497 283.203 301.497C285.316 298.136 286.589 291.942 286.589 291.942C286.589 291.942 287.174 298.27 289.089 297.393C291.004 296.516 292.165 291.937 292.165 291.937C292.794 293.866 292.357 298.293 292.357 298.293C295.145 295.25 295.64 288.989 295.64 288.989C298.119 300.043 295.604 308.558 293.233 317.514L293.044 310.032L293.033 310.052Z" fill="#4D682F"/>
<path d="M230.958 307.451C229.718 311.014 225.098 316.167 225.098 316.167C226.872 312.026 224.662 308.648 224.662 308.648C223.069 311.956 219.979 312.578 219.979 312.578C222.764 307.57 221.997 303.569 221.997 303.569C218.652 306.088 214.574 305.537 214.574 305.537C216.599 303.297 221.351 298.806 224.415 293.724C227.927 287.908 229.645 281.584 229.645 281.584C229.949 283.804 230.191 287.892 230.191 287.892C232.861 284.954 235.195 279.438 235.195 279.438C235.195 279.438 235.233 283.727 235.557 284.512C236.378 286.462 239.543 279.683 239.543 279.683C239.828 281.691 238.619 285.966 238.619 285.966C241.898 283.452 243.483 277.39 243.483 277.39C243.986 288.719 238.728 301.909 229.845 314.854L230.963 307.466L230.958 307.451Z" fill="#4D682F"/>
<path d="M353.038 304.564C353.622 306.356 353.332 309.794 353.332 309.794C352.791 307.618 350.906 306.939 350.906 306.939C351.273 308.735 350.23 309.915 350.23 309.915C349.829 307.089 348.327 305.73 348.327 305.73C347.754 307.732 345.964 308.736 345.964 308.736C346.095 307.231 346.626 304.017 346.322 301.075C345.964 297.714 344.757 294.68 344.757 294.68C345.55 295.463 346.868 297.033 346.868 297.033C347.047 295.059 346.308 292.175 346.308 292.175C346.308 292.175 347.616 293.865 347.988 294.08C348.899 294.606 348.115 290.964 348.115 290.964C348.837 291.686 349.642 293.742 349.642 293.742C350.191 291.765 348.992 288.863 348.992 288.863C352.596 293.215 354.471 300.047 354.835 307.859L353.063 304.589L353.038 304.564Z" fill="#4D682F"/>
<path d="M373.783 230.264C376.793 232.693 380.424 237.54 380.424 237.54C378.811 236.151 376.935 236.578 376.935 236.578C378.195 237.763 378.019 239.182 378.019 239.182C376.157 237.235 374.23 236.94 374.23 236.94C374.87 238.747 374 240.409 374 240.409C373.286 239.197 371.965 236.486 370.109 234.403C367.988 232.02 365.382 230.316 365.382 230.316C366.442 230.525 368.342 231.047 368.342 231.047C367.403 229.455 365.258 227.618 365.258 227.618C365.258 227.618 367.472 228.122 367.882 228.089C368.887 228.03 366.919 225.345 366.919 225.345C367.873 225.538 370.788 227.83 373.813 230.254L373.783 230.264Z" fill="#4D682F"/>
<path d="M223.416 96.6071C220.735 93.9529 214.322 91.3403 214.322 91.3403C217.738 94.2922 217.227 98.2896 217.227 98.2896C214.332 96.0079 211.301 96.8116 211.301 96.8116C215.998 100.085 217.079 104.017 217.079 104.017C212.972 103.223 209.553 105.514 209.553 105.514C215.584 107.932 223.67 114.384 223.67 114.384C222.976 112.258 220.52 109.313 220.52 109.313C224.208 110.781 228.889 115.034 228.889 115.034C228.889 115.034 225.63 109.578 227.694 109.157C229.758 108.736 233.395 111.75 233.395 111.75C232.766 109.821 229.802 106.504 229.802 106.504C233.848 107.318 237.94 112.082 237.94 112.082C233.425 101.693 226.373 96.2978 219.177 90.4624L223.436 96.6173L223.416 96.6071Z" fill="#4D682F"/>
<path d="M174.808 135.296C171.705 133.149 164.935 131.711 164.935 131.711C168.81 134.009 169.016 138.041 169.016 138.041C165.779 136.308 162.917 137.628 162.917 137.628C168.119 140.031 169.859 143.714 169.859 143.714C165.671 143.652 162.703 146.502 162.703 146.502C165.659 147.117 172.145 147.942 177.616 150.24C183.883 152.867 188.998 156.962 188.998 156.962C187.935 154.99 185.72 151.546 185.72 151.546C189.609 152.344 194.747 155.423 194.747 155.423C194.747 155.423 192.249 151.936 192.047 151.112C191.56 149.053 198.114 152.661 198.114 152.661C197.16 150.872 193.662 148.132 193.662 148.132C197.794 148.229 202.648 152.19 202.648 152.19C196.374 142.744 184.35 135.19 169.543 129.973L174.803 135.28L174.808 135.296Z" fill="#4D682F"/>
<path d="M275.114 65.6504C274.529 63.8584 272.268 61.2525 272.268 61.2525C273.113 63.329 271.991 64.9887 271.991 64.9887C271.229 63.3219 269.69 62.9836 269.69 62.9836C271.033 65.5028 270.621 67.4853 270.621 67.4853C268.978 66.2068 266.94 66.4513 266.94 66.4513C267.933 67.5892 270.257 69.8723 271.746 72.4278C273.439 75.3534 274.253 78.5158 274.253 78.5158C274.431 77.4157 274.571 75.3708 274.571 75.3708C275.88 76.8593 276.983 79.6245 276.983 79.6245C276.983 79.6245 277.042 77.4882 277.217 77.0953C277.642 76.1332 279.156 79.5375 279.156 79.5375C279.314 78.5282 278.752 76.3929 278.752 76.3929C280.36 77.6662 281.103 80.717 281.103 80.717C281.448 75.0768 278.935 68.4534 274.622 61.9294L275.119 65.6151L275.114 65.6504Z" fill="#4D682F"/>
<path d="M335.678 113.429C336.677 109.692 336.751 103.636 336.751 103.636C336.268 105.709 334.5 106.471 334.5 106.471C334.819 104.77 333.841 103.729 333.841 103.729C333.485 106.398 332.103 107.774 332.103 107.774C331.554 105.936 329.872 105.107 329.872 105.107C330.009 106.507 330.541 109.476 330.27 112.252C329.962 115.428 328.862 118.34 328.862 118.34C329.595 117.547 330.822 116.004 330.822 116.004C331.002 117.844 330.353 120.593 330.353 120.593C330.353 120.593 331.844 118.88 332.194 118.665C333.041 118.12 333.035 121.449 333.035 121.449C333.691 120.731 334.694 117.161 335.708 113.419L335.678 113.429Z" fill="#4D682F"/>
<path d="M327.876 127.013C328.842 124.615 329.721 122.261 330.523 120.034C331.3 117.781 332.021 115.664 332.559 113.657C332.699 113.158 332.844 112.674 332.953 112.184C333.062 111.695 333.176 111.221 333.28 110.767C333.519 109.849 333.63 108.956 333.797 108.129C333.944 107.291 333.995 106.518 334.09 105.782C334.141 105.06 334.155 104.383 334.179 103.787C334.136 102.574 334.097 101.629 333.939 100.992C333.817 100.36 333.754 100.011 333.754 100.011C333.754 100.011 333.812 100.344 333.904 100.987C334.042 101.614 334.071 102.579 334.093 103.781C334.054 104.382 334.035 105.044 333.969 105.771C333.869 106.492 333.788 107.275 333.636 108.097C333.464 108.909 333.317 109.797 333.079 110.715C332.959 111.174 332.84 111.633 332.731 112.122C332.602 112.601 332.457 113.085 332.297 113.574C331.719 115.561 330.963 117.672 330.155 119.885C329.312 122.092 328.393 124.425 327.388 126.803C325.397 131.568 323.147 136.62 320.987 141.693C319.9 144.232 318.853 146.791 317.847 149.321C316.86 151.86 315.915 154.37 315.091 156.839C314.668 158.069 314.312 159.294 313.93 160.494C313.599 161.694 313.243 162.869 312.953 164.039C312.678 165.204 312.372 166.328 312.178 167.433C312.074 167.988 311.964 168.528 311.855 169.068C311.78 169.613 311.701 170.143 311.617 170.658C311.553 171.183 311.449 171.687 311.41 172.187C311.371 172.687 311.328 173.171 311.284 173.656C311.209 174.302 311.19 174.964 311.186 175.62C311.182 176.176 311.077 176.782 311.22 177.323C311.358 177.849 311.264 178.384 311.205 178.924L311.025 180.898C310.987 181.347 310.954 181.812 310.936 182.271C310.783 182.473 310.695 182.719 310.563 182.931C310.057 183.852 308.932 184.37 307.887 184.207C307.862 184.181 307.822 184.161 307.797 184.135C306.998 183.489 306.483 182.581 306.004 181.679C305.246 180.229 304.543 178.745 303.917 177.235C303.32 175.817 302.829 174.364 302.151 173.006C301.047 170.291 299.9 167.187 298.765 163.76C296.481 156.911 294.286 148.739 292.393 139.897C290.465 131.05 288.804 121.527 287.057 111.999C286.179 107.245 285.28 102.481 284.265 97.822C283.264 93.1581 282.147 88.5996 280.826 84.2419C280.184 82.0656 279.46 79.9495 278.705 77.8937C277.951 75.838 277.12 73.8575 276.223 71.9827C275.341 70.103 274.368 68.3034 273.338 66.6399C272.843 65.7931 272.283 65.0015 271.757 64.2151C271.191 63.4588 270.671 62.6877 270.074 61.9918C267.799 59.1382 265.288 56.8994 262.869 55.2016C260.451 53.5039 258.114 52.3674 256.149 51.597C255.661 51.3867 255.192 51.2372 254.738 51.0827C254.285 50.9283 253.881 50.7741 253.478 50.6705C252.686 50.4583 252.021 50.2216 251.466 50.117C250.356 49.8573 249.776 49.7272 249.776 49.7272C249.776 49.7272 250.361 49.8725 251.456 50.1372C252.016 50.257 252.666 50.4985 253.462 50.726C253.866 50.8296 254.274 50.9989 254.712 51.1583C255.151 51.3178 255.64 51.4775 256.113 51.6927C258.068 52.4833 260.379 53.6449 262.767 55.3525C265.156 57.0602 267.622 59.3139 269.851 62.1823C270.432 62.8831 270.948 63.6391 271.498 64.4004C272.009 65.1917 272.549 65.9731 273.044 66.8199C274.043 68.4933 274.991 70.2674 275.843 72.1571C276.71 74.0418 277.52 76.012 278.24 78.0624C278.974 80.1079 279.663 82.2188 280.29 84.4C281.555 88.7423 282.607 93.3054 283.556 97.9689C284.521 102.627 285.349 107.381 286.182 112.15C287.813 121.682 289.368 131.239 291.21 140.132C292.159 144.795 293.014 149.423 294.135 154.047C294.755 156.617 295.421 159.172 296.081 161.712C296.411 162.982 296.762 164.263 297.092 165.533C297.393 166.661 297.496 167.854 297.777 169.023C297.964 169.751 298.166 170.475 298.399 171.189C299.489 174.429 301.233 177.405 302.46 180.6C303.041 182.124 303.561 183.77 304.518 185.054C304.411 185.139 304.299 185.209 304.168 185.269C303.201 185.601 302.184 185.882 301.206 186.235C298.842 187.073 296.296 187.92 293.638 188.838C290.985 189.77 288.145 190.646 285.145 191.44C282.888 192.041 280.556 192.617 278.192 193.304C277.648 192.306 276.924 190.962 276.026 189.29C273.974 185.473 271.11 179.989 267.642 173.425C264.169 166.845 260.122 159.177 255.577 151.065C253.285 147.024 250.912 142.842 248.388 138.658C247.149 136.559 245.829 134.469 244.54 132.369C243.204 130.285 241.899 128.19 240.503 126.125C237.772 121.975 234.909 117.936 231.969 114.022C229.044 110.104 225.962 106.422 222.888 102.921C221.292 101.224 219.788 99.4966 218.187 97.9355C217.394 97.1525 216.626 96.3444 215.828 95.5966C215.029 94.8489 214.236 94.1164 213.448 93.3991C212.685 92.6567 211.865 91.9997 211.077 91.3329C210.273 90.671 209.514 89.9943 208.725 89.378C207.921 88.7666 207.142 88.1806 206.378 87.5898C205.996 87.2943 205.614 86.9989 205.222 86.7236C204.834 86.4634 204.442 86.1881 204.055 85.928C203.28 85.4078 202.526 84.8978 201.792 84.398C201.047 83.9184 200.287 83.4942 199.557 83.0601C198.817 82.6461 198.128 82.182 197.424 81.8239C196.699 81.4555 196.014 81.1076 195.334 80.7748C194.992 80.6009 194.669 80.4371 194.347 80.2734C194.186 80.1915 194.025 80.1097 193.864 80.0278C193.708 79.9611 193.531 79.8842 193.375 79.8176C192.73 79.5406 192.091 79.2789 191.501 79.0174C190.897 78.761 190.328 78.5098 189.768 78.289C189.204 78.1035 188.654 77.913 188.145 77.743C187.112 77.408 186.21 77.0637 185.388 76.8614C184.566 76.6591 183.87 76.4829 183.32 76.3429C182.185 76.0578 181.6 75.9126 181.6 75.9126C181.6 75.9126 182.206 76.068 183.325 76.3581C183.895 76.5083 184.576 76.6895 185.398 76.8918C186.21 77.1142 187.117 77.4737 188.135 77.8137C188.644 77.9837 189.178 78.1791 189.748 78.3797C190.307 78.6006 190.866 78.8719 191.47 79.1284C192.075 79.3848 192.684 79.6565 193.334 79.9486C193.49 80.0153 193.666 80.0922 193.823 80.1589C193.984 80.2408 194.145 80.3226 194.306 80.4045C194.628 80.5682 194.955 80.7471 195.298 80.9211C195.967 81.274 196.657 81.6371 197.362 81.9952C198.072 82.3685 198.761 82.8327 199.485 83.2516C200.2 83.6906 200.965 84.13 201.694 84.6146C202.428 85.1143 203.173 85.6445 203.932 86.1697C204.319 86.4298 204.691 86.6949 205.084 86.9702C205.461 87.2505 205.843 87.5459 206.225 87.8414C206.989 88.4323 207.758 89.0384 208.547 89.6547C209.321 90.2759 210.084 90.9678 210.873 91.6346C211.646 92.3064 212.455 92.9835 213.218 93.7259C213.991 94.4482 214.774 95.2009 215.573 95.9486C216.356 96.7013 217.108 97.5143 217.886 98.3023C219.472 99.8684 220.946 101.606 222.511 103.313C225.524 106.833 228.567 110.545 231.426 114.468C234.3 118.387 237.122 122.456 239.808 126.621C241.169 128.68 242.448 130.8 243.768 132.89C245.043 134.994 246.333 137.094 247.541 139.203C250.02 143.402 252.342 147.584 254.578 151.66C255.153 152.699 255.711 153.743 256.438 154.682C257.114 155.571 257.42 156.714 257.858 157.748C258.863 160.108 259.929 162.449 261.096 164.739C261.849 166.224 262.193 167.742 262.896 169.227C263.618 170.772 264.513 172.227 265.159 173.797C266.174 176.239 267.174 178.685 268.188 181.126C269.203 183.568 270.202 186.014 271.217 188.455C272.073 190.512 273.06 192.559 273.844 194.655C273.768 194.68 273.692 194.705 273.617 194.729C272.908 194.927 272.149 195.074 271.335 195.205C270.476 195.351 269.611 195.482 268.746 195.612C268.301 195.69 267.826 195.778 267.355 195.881L266.698 196.028L266.015 196.201C264.214 196.654 262.417 197.223 260.624 197.909C259.728 198.251 258.856 198.62 257.98 199.023L257.63 199.188L257.326 199.337L256.647 199.676C256.216 199.901 255.791 200.141 255.38 200.375C253.722 201.319 252.201 202.219 250.656 202.79L250.049 202.988L249.366 203.211C248.895 203.364 248.439 203.513 247.968 203.666C247.877 203.696 247.786 203.726 247.695 203.756C247.24 202.98 246.626 201.92 245.882 200.617C245.452 199.867 244.967 199.05 244.453 198.143C243.928 197.255 243.288 196.322 242.653 195.302C242.003 194.288 241.318 193.218 240.577 192.081C240.207 191.513 239.863 190.92 239.442 190.351C239.036 189.778 238.611 189.194 238.18 188.595C237.319 187.398 236.423 186.144 235.497 184.85C235.047 184.191 234.525 183.571 234.014 182.931C233.503 182.291 232.972 181.641 232.451 180.971C231.915 180.306 231.378 179.641 230.837 178.961C230.562 178.63 230.296 178.28 230.015 177.935C229.725 177.61 229.434 177.285 229.123 176.949C227.934 175.623 226.72 174.272 225.487 172.91C224.89 172.214 224.207 171.563 223.539 170.907C222.872 170.251 222.199 169.58 221.532 168.924C220.859 168.253 220.171 167.587 219.499 166.916C218.771 166.279 218.042 165.643 217.314 165.007C216.586 164.371 215.857 163.735 215.109 163.089L214.004 162.122C213.632 161.806 213.235 161.516 212.853 161.22C211.305 160.028 209.736 158.826 208.183 157.619C204.939 155.4 201.711 153.126 198.339 151.236C197.509 150.75 196.673 150.25 195.843 149.765C195.441 149.51 195.002 149.3 194.579 149.085C194.157 148.87 193.734 148.655 193.311 148.44C191.619 147.581 189.973 146.706 188.301 145.907C184.916 144.441 181.708 142.9 178.518 141.773C176.931 141.182 175.419 140.566 173.907 140.051C172.405 139.566 170.938 139.087 169.532 138.638C166.749 137.681 164.122 137.043 161.812 136.401C160.653 136.091 159.579 135.786 158.575 135.542C157.561 135.318 156.638 135.115 155.801 134.918C152.446 134.164 150.54 133.727 150.54 133.727C150.54 133.727 152.451 134.179 155.79 134.988C156.627 135.186 157.54 135.409 158.559 135.648C159.553 135.912 160.631 136.232 161.781 136.563C164.065 137.229 166.687 137.903 169.449 138.901C170.845 139.369 172.297 139.853 173.794 140.373C175.28 140.913 176.797 141.544 178.359 142.161C181.524 143.313 184.696 144.899 188.045 146.411C189.692 147.235 191.312 148.134 192.994 149.014C193.417 149.229 193.829 149.464 194.252 149.679C194.675 149.894 195.103 150.124 195.506 150.379C196.321 150.869 197.141 151.374 197.961 151.88C201.308 153.796 204.465 156.109 207.663 158.343C209.201 159.555 210.724 160.772 212.257 161.969C212.629 162.284 213.036 162.555 213.398 162.891L214.487 163.862C215.201 164.503 215.934 165.155 216.647 165.796C217.36 166.437 218.073 167.078 218.787 167.719C219.459 168.39 220.116 169.066 220.789 169.737C221.446 170.414 222.114 171.069 222.766 171.73C223.419 172.391 224.081 173.032 224.663 173.733C225.866 175.105 227.05 176.466 228.218 177.782C228.509 178.107 228.805 178.447 229.081 178.777C229.346 179.128 229.622 179.458 229.882 179.793C230.408 180.478 230.929 181.148 231.445 181.803C231.961 182.458 232.477 183.113 232.973 183.758C233.469 184.403 233.975 185.027 234.411 185.692C235.321 186.991 236.182 188.239 237.028 189.442C237.444 190.046 237.854 190.634 238.259 191.208C238.665 191.781 239.01 192.374 239.36 192.932C240.064 194.063 240.734 195.138 241.364 196.143C241.979 197.152 242.605 198.09 243.114 198.983C243.624 199.875 244.078 200.701 244.507 201.452C245.157 202.618 245.706 203.581 246.12 204.336C245.832 204.43 245.543 204.525 245.255 204.619C241.569 205.939 237.938 207.375 234.196 208.679C232.313 209.344 230.419 210.029 228.531 210.729C226.642 211.429 224.738 212.134 222.829 212.874C221.872 213.237 220.914 213.65 220.008 213.962C219.087 214.28 218.125 214.576 217.169 214.838C215.226 215.371 213.243 215.783 211.209 216.295C209.114 216.827 207.154 217.668 205.27 218.433C203.401 219.194 201.447 219.848 199.498 220.518C198.136 220.979 196.759 221.445 195.392 221.891C195.272 221.779 195.141 221.636 194.971 221.474C194.428 220.945 193.651 220.157 192.626 219.18C191.602 218.204 190.357 217.014 188.901 215.691C188.178 215.019 187.394 214.317 186.571 213.595C185.742 212.857 184.873 212.099 183.943 211.31C183.029 210.516 182.06 209.706 181.034 208.881C180.024 208.051 178.974 207.201 177.873 206.35C175.697 204.624 173.334 202.891 170.876 201.122C168.392 199.379 165.806 197.635 163.105 195.945C160.393 194.276 157.62 192.626 154.771 191.103C151.922 189.579 149.032 188.136 146.11 186.854C143.204 185.567 140.302 184.397 137.429 183.419C136.723 183.161 136.007 182.924 135.297 182.703C134.586 182.481 133.89 182.254 133.184 182.047C131.777 181.649 130.421 181.252 129.059 180.94C126.366 180.256 123.778 179.789 121.396 179.441C120.205 179.291 119.054 179.112 117.954 179.034C117.398 178.98 116.863 178.936 116.343 178.888C115.813 178.859 115.318 178.835 114.823 178.812C114.328 178.789 113.854 178.775 113.404 178.737C112.95 178.734 112.495 178.731 112.076 178.734C111.656 178.736 111.252 178.733 110.848 178.731C110.464 178.738 110.085 178.761 109.737 178.774C109.024 178.805 108.408 178.821 107.862 178.848C107.321 178.89 106.851 178.942 106.472 178.965C105.719 179.026 105.31 179.059 105.31 179.059C105.31 179.059 105.704 179.031 106.462 178.985C106.841 178.963 107.301 178.93 107.842 178.888C108.387 178.861 109.024 178.855 109.726 178.845C110.08 178.847 110.444 178.829 110.843 178.817C111.232 178.824 111.641 178.842 112.06 178.84C112.484 178.853 112.924 178.86 113.383 178.879C113.848 178.912 114.312 178.945 114.807 178.969C115.287 178.997 115.802 179.031 116.322 179.079C116.842 179.128 117.367 179.192 117.922 179.246C119.012 179.344 120.153 179.544 121.349 179.708C123.731 180.107 126.298 180.614 128.956 181.343C130.292 181.68 131.653 182.093 133.035 182.516C133.725 182.728 134.411 182.975 135.127 183.212C135.837 183.433 136.528 183.696 137.233 183.953C140.071 184.976 142.932 186.177 145.803 187.509C148.684 188.82 151.523 190.314 154.332 191.868C157.14 193.421 159.877 195.116 162.533 196.82C165.194 198.54 167.739 200.314 170.167 202.093C172.58 203.876 174.892 205.659 177.038 207.396C178.109 208.256 179.144 209.112 180.128 209.967C181.123 210.801 182.062 211.621 182.961 212.42C183.876 213.214 184.714 213.982 185.528 214.725C186.341 215.467 187.105 216.159 187.812 216.836C189.238 218.168 190.453 219.368 191.447 220.355C192.34 221.239 193.048 221.966 193.57 222.485C191.641 223.114 189.713 223.743 187.769 224.377C183.866 225.65 179.983 226.984 176.135 228.272C168.446 230.864 160.882 233.483 153.601 236.093C146.321 238.703 139.337 241.4 132.773 244.096C126.22 246.771 119.916 249.029 113.941 250.541C110.96 251.295 108.057 251.872 105.276 252.258C103.891 252.441 102.506 252.574 101.186 252.903C99.8754 253.213 98.64 253.65 97.4552 254.087C95.0904 254.976 92.9426 255.911 90.8925 256.58C88.8272 257.254 86.9289 257.873 85.2129 258.433C78.3487 260.671 74.4307 261.949 74.4307 261.949L74.5892 262.435C74.5892 262.435 78.5072 261.157 85.3714 258.918C87.0874 258.359 88.9857 257.74 91.051 257.066C93.1315 256.387 95.2994 255.462 97.6539 254.593C98.8236 254.161 100.054 253.76 101.334 253.46C102.609 253.145 103.963 253.022 105.369 252.85C108.174 252.489 111.093 251.907 114.113 251.174C120.154 249.707 126.508 247.5 133.106 244.911C139.69 242.277 146.678 239.695 153.983 237.161C161.269 234.617 168.877 232.186 176.606 229.715C180.473 228.487 184.366 227.234 188.293 226.037C190.353 225.399 192.413 224.761 194.474 224.122C194.457 224.279 194.421 224.476 194.389 224.688C194.278 225.429 194.13 226.519 193.909 227.902C193.688 229.285 193.414 230.97 193.048 232.887C192.875 233.851 192.671 234.875 192.447 235.94C192.228 237.019 192.009 238.149 191.734 239.314C191.478 240.49 191.203 241.705 190.892 242.966C190.596 244.222 190.264 245.523 189.912 246.864C189.218 249.527 188.401 252.33 187.489 255.199C186.561 258.072 185.552 261.005 184.432 263.958C183.291 266.901 182.08 269.883 180.727 272.794C179.375 275.705 177.962 278.586 176.409 281.344C174.876 284.112 173.272 286.769 171.584 289.269C171.166 289.892 170.748 290.516 170.32 291.109C169.891 291.702 169.468 292.311 169.04 292.904C168.154 294.05 167.318 295.197 166.437 296.257C164.706 298.418 162.93 300.341 161.257 302.063C160.388 302.901 159.585 303.734 158.762 304.456C158.36 304.822 157.959 305.188 157.568 305.534C157.171 305.865 156.775 306.196 156.409 306.517C156.039 306.823 155.668 307.128 155.312 307.429C154.952 307.715 154.602 307.98 154.267 308.241C153.932 308.501 153.607 308.742 153.297 308.977C152.987 309.212 152.683 309.413 152.379 309.613C151.805 310.018 151.288 310.389 150.831 310.689C150.37 310.974 149.984 311.234 149.659 311.424C149.02 311.834 148.686 312.044 148.686 312.044C148.686 312.044 149.036 311.829 149.68 311.434C150.004 311.244 150.395 310.999 150.871 310.709C151.328 310.409 151.851 310.054 152.429 309.663C152.718 309.468 153.038 309.263 153.352 309.043C153.662 308.808 153.987 308.567 154.342 308.317C154.682 308.072 155.047 307.801 155.413 307.531C155.773 307.245 156.144 306.94 156.515 306.634C156.901 306.323 157.287 306.012 157.698 305.677C158.089 305.331 158.496 304.98 158.912 304.609C159.755 303.897 160.579 303.074 161.453 302.251C163.166 300.549 164.982 298.647 166.759 296.521C167.66 295.472 168.536 294.346 169.437 293.195C169.885 292.612 170.314 292.018 170.757 291.42C171.2 290.822 171.639 290.208 172.057 289.585C173.801 287.101 175.454 284.444 177.043 281.691C178.652 278.949 180.13 276.064 181.533 273.153C182.956 270.253 184.218 267.271 185.409 264.328C186.595 261.371 187.67 258.433 188.633 255.565C189.591 252.682 190.463 249.894 191.203 247.216C191.59 245.88 191.937 244.574 192.263 243.308C192.605 242.038 192.896 240.817 193.181 239.632C193.472 238.462 193.722 237.322 193.956 236.237C194.195 235.168 194.414 234.139 194.602 233.17C194.998 231.243 195.302 229.548 195.554 228.155C195.805 226.763 195.969 225.668 196.095 224.921C196.221 224.174 196.274 223.77 196.274 223.77L195.744 223.691C197.192 223.236 198.639 222.78 200.087 222.325C202.061 221.681 204.005 221.047 205.98 220.302C207.92 219.552 209.773 218.796 211.68 218.359C213.633 217.907 215.671 217.511 217.69 217.003C218.697 216.742 219.714 216.461 220.717 216.134C221.749 215.797 222.671 215.429 223.618 215.087C225.511 214.402 227.415 213.747 229.328 213.123C231.227 212.504 233.135 211.915 235.028 211.332C238.859 210.2 242.61 208.976 246.289 207.894C246.639 207.78 246.998 207.696 247.367 207.592C247.473 208.482 247.65 209.953 247.885 211.91C247.991 212.749 248.101 213.704 248.215 214.725C248.33 215.747 248.373 216.858 248.477 218.051C248.56 219.233 248.653 220.497 248.75 221.826C248.781 222.488 248.873 223.181 248.879 223.868C248.889 224.57 248.905 225.287 248.925 226.02C248.951 227.49 248.992 229.006 249.022 230.592C249.062 231.385 249.022 232.188 249.001 233.001C248.981 233.814 248.95 234.648 248.92 235.481C248.889 236.314 248.863 237.163 248.843 238.026C248.83 238.451 248.822 238.89 248.794 239.319C248.751 239.753 248.707 240.188 248.684 240.632C248.532 242.379 248.363 244.181 248.2 245.998C248.144 246.907 247.971 247.82 247.849 248.734C247.712 249.652 247.574 250.571 247.427 251.51C247.295 252.443 247.147 253.382 247 254.32C246.802 255.259 246.599 256.182 246.406 257.135C246.208 258.073 246.01 259.012 245.801 259.97L245.494 261.398C245.395 261.867 245.246 262.336 245.116 262.815C244.599 264.68 244.072 266.566 243.544 268.452C242.283 272.157 241.092 275.872 239.518 279.393C239.154 280.284 238.784 281.161 238.42 282.053C238.245 282.496 238.031 282.919 237.821 283.357C237.606 283.78 237.411 284.213 237.196 284.636C236.357 286.338 235.578 288.02 234.734 289.656C232.92 292.852 231.293 296.004 229.416 298.8C228.503 300.224 227.666 301.623 226.783 302.936C225.876 304.223 224.994 305.485 224.142 306.687C222.5 309.121 220.779 311.211 219.327 313.096C218.594 314.041 217.906 314.921 217.264 315.735C216.598 316.524 215.977 317.247 215.417 317.9C213.193 320.507 211.92 322.015 211.92 322.015C211.92 322.015 213.218 320.533 215.467 317.951C216.032 317.313 216.653 316.59 217.34 315.811C218.007 315.022 218.689 314.128 219.448 313.208C220.935 311.329 222.681 309.264 224.363 306.85C225.235 305.658 226.127 304.427 227.065 303.129C227.967 301.827 228.84 300.433 229.774 299.02C231.691 296.244 233.368 293.093 235.237 289.912C236.102 288.286 236.916 286.609 237.79 284.913C238.005 284.49 238.22 284.067 238.435 283.644C238.65 283.221 238.865 282.798 239.055 282.35C239.439 281.468 239.824 280.587 240.203 279.69C241.827 276.17 243.079 272.435 244.391 268.73C244.949 266.835 245.496 264.959 246.039 263.068C246.168 262.589 246.323 262.136 246.437 261.661L246.759 260.229C246.973 259.286 247.196 258.322 247.409 257.379C247.622 256.436 247.836 255.493 248.049 254.549C248.212 253.606 248.354 252.652 248.507 251.729C248.654 250.79 248.822 249.862 248.959 248.943C249.111 248.02 249.284 247.107 249.351 246.178C249.539 244.335 249.723 242.528 249.906 240.771C249.949 240.337 250.003 239.883 250.046 239.449C250.069 239.004 250.082 238.58 250.105 238.136C250.141 237.267 250.182 236.414 250.222 235.56C250.263 234.707 250.299 233.889 250.33 233.055C250.365 232.237 250.421 231.429 250.396 230.631C250.381 229.04 250.365 227.499 250.355 226.024C250.349 225.287 250.349 224.564 250.338 223.862C250.343 223.155 250.272 222.472 250.236 221.795C250.148 220.446 250.086 219.173 250.013 217.97C249.94 216.767 249.896 215.656 249.792 214.614C249.688 213.573 249.583 212.633 249.487 211.774C249.249 209.6 249.087 208.023 249.007 207.159C249.457 207.045 249.902 206.917 250.368 206.799L251.066 206.621C251.279 206.552 251.577 206.488 251.82 206.409C253.885 205.786 255.654 204.822 257.276 204.025C257.681 203.825 258.087 203.626 258.482 203.446L259.054 203.192L259.378 203.053L259.667 202.959C260.477 202.611 261.288 202.313 262.108 202.045C263.743 201.495 265.392 201.041 267.042 200.688C267.451 200.605 267.861 200.522 268.271 200.438C268.665 200.36 269.065 200.297 269.464 200.234C270.318 200.123 271.168 199.997 272.022 199.887C272.907 199.766 273.832 199.616 274.763 199.379C274.961 199.315 275.138 199.291 275.32 199.231C276.103 201.631 276.52 204.199 277.116 206.643C277.736 209.213 278.371 211.778 278.991 214.348C279.611 216.919 280.246 219.484 280.865 222.054C281.269 223.703 281.389 225.411 281.732 227.08C282.06 228.704 282.662 230.137 282.924 231.766C283.347 234.299 283.851 236.823 284.431 239.322C284.687 240.415 285.114 241.519 285.092 242.635C285.074 243.817 285.223 244.995 285.372 246.173C285.964 250.768 286.559 255.531 287.033 260.383C287.3 262.799 287.476 265.245 287.708 267.707C287.889 270.168 288.085 272.624 288.206 275.105C288.507 280.047 288.622 284.983 288.6 289.863C288.594 294.737 288.336 299.509 287.978 304.129C287.721 306.431 287.539 308.708 287.197 310.903C287.033 311.998 286.905 313.098 286.716 314.168C286.512 315.243 286.318 316.297 286.125 317.352C285.946 318.401 285.687 319.41 285.463 320.424C285.219 321.427 285.021 322.416 284.752 323.394C284.478 324.357 284.214 325.3 283.946 326.228C283.811 326.692 283.692 327.151 283.538 327.604C283.383 328.058 283.224 328.496 283.079 328.93C282.776 329.802 282.487 330.669 282.189 331.505C281.87 332.332 281.527 333.133 281.209 333.909C280.875 334.689 280.587 335.455 280.234 336.175C279.881 336.896 279.538 337.595 279.2 338.26C279.026 338.602 278.863 338.925 278.704 339.262C278.622 339.423 278.54 339.584 278.458 339.745C278.371 339.891 278.274 340.057 278.188 340.203C277.83 340.807 277.483 341.391 277.166 341.965C276.829 342.528 276.517 343.067 276.216 343.585C275.874 344.083 275.553 344.541 275.247 344.993C274.625 345.868 274.105 346.693 273.58 347.352C273.051 347.995 272.597 348.563 272.221 349.005C271.487 349.899 271.09 350.381 271.09 350.381C271.09 350.381 271.487 349.899 272.226 349.02C272.602 348.578 273.06 348.025 273.59 347.382C274.119 346.739 274.655 345.909 275.297 345.044C275.608 344.607 275.94 344.129 276.286 343.646C276.608 343.138 276.919 342.6 277.256 342.036C277.593 341.472 277.941 340.889 278.298 340.285C278.385 340.139 278.482 339.973 278.569 339.827C278.651 339.666 278.733 339.505 278.815 339.344C278.978 339.021 279.152 338.679 279.316 338.357C279.654 337.692 280.012 336.987 280.385 336.277C280.738 335.557 281.041 334.787 281.38 334.021C281.713 333.24 282.077 332.449 282.395 331.623C282.694 330.786 283.002 329.93 283.321 329.053C283.481 328.614 283.64 328.176 283.794 327.722C283.949 327.269 284.068 326.81 284.218 326.341C284.486 325.413 284.78 324.46 285.059 323.513C285.333 322.549 285.547 321.556 285.806 320.547C286.05 319.543 286.324 318.53 286.503 317.48C286.716 316.436 286.925 315.377 287.129 314.302C287.333 313.227 287.477 312.122 287.656 311.022C288.028 308.817 288.24 306.53 288.513 304.223C288.932 299.584 289.251 294.792 289.302 289.903C289.374 285.024 289.3 280.058 289.06 275.096C288.975 272.62 288.789 270.144 288.638 267.672C288.442 265.216 288.276 262.75 288.039 260.324C287.61 255.457 287.081 250.69 286.529 246.064C285.417 236.833 284.164 228.253 283.091 220.891C282.002 213.534 281.096 207.411 280.508 203.134C280.175 200.722 279.929 198.887 279.775 197.745C282.038 196.905 284.221 196.026 286.338 195.201C289.229 194.073 292.024 193.111 294.732 192.295C297.419 191.469 299.976 190.652 302.38 189.935C303.665 189.549 304.89 189.183 306.084 188.827C305.789 190.704 306.469 192.684 306.977 194.551C307.87 197.855 308.216 201.287 309.246 204.547C309.479 205.261 309.727 205.97 310.02 206.664C310.463 207.763 311.098 208.782 311.525 209.886C312.007 211.107 312.479 212.347 312.961 213.568C313.93 216.024 314.899 218.48 315.909 220.906C317.73 225.303 319.773 229.559 321.751 233.87C325.521 242.134 329.901 250.769 334.189 259.435C336.328 263.778 338.462 268.106 340.429 272.437C342.412 276.764 344.238 281.074 345.791 285.323C346.571 287.454 347.274 289.56 347.872 291.65C348.485 293.735 349.007 295.8 349.418 297.833C349.844 299.861 350.14 301.848 350.304 303.794C350.404 304.77 350.443 305.715 350.482 306.66C350.486 307.599 350.521 308.529 350.46 309.422C350.345 313.039 349.667 316.318 348.765 319.115C347.848 321.918 346.661 324.204 345.549 325.995C345.293 326.448 344.992 326.865 344.732 327.252C344.472 327.639 344.242 328.017 343.978 328.338C343.483 328.987 343.081 329.555 342.704 329.997C341.976 330.856 341.589 331.318 341.589 331.318C341.589 331.318 341.976 330.856 342.724 330.007C343.106 329.58 343.509 329.012 344.023 328.374C344.288 328.052 344.517 327.675 344.798 327.298C345.058 326.911 345.363 326.509 345.634 326.051C346.767 324.27 347.984 321.974 348.937 319.177C349.889 316.38 350.597 313.091 350.752 309.445C350.824 308.531 350.79 307.601 350.801 306.657C350.761 305.712 350.747 304.742 350.648 303.766C350.499 301.815 350.224 299.788 349.828 297.75C349.447 295.706 348.95 293.617 348.348 291.512C347.76 289.402 347.082 287.271 346.318 285.134C344.82 280.851 343.014 276.5 341.088 272.138C339.161 267.777 337.078 263.399 334.984 259.041C330.782 250.331 326.504 241.645 322.845 233.362C319.155 225.09 316.115 217.21 313.922 210.331C312.817 206.894 311.929 203.706 311.205 200.867C310.947 199.355 310.486 197.892 310.137 196.41C309.753 194.822 309.446 193.208 309.203 191.59C309.058 190.579 308.934 189.527 309.203 188.549C309.275 188.307 309.348 188.065 309.405 187.828C310.356 187.551 311.262 187.29 312.137 187.038C312.481 187.883 313.097 188.59 313.709 189.28C314.14 189.778 314.587 190.271 315.018 190.769C315.384 191.17 315.76 191.552 315.974 192.053C316.178 192.575 316.62 193.002 316.95 193.449C317.341 193.976 317.747 194.499 318.188 194.977C318.509 195.343 318.83 195.709 319.156 196.09C319.482 196.471 319.863 196.816 320.225 197.203C320.596 197.569 320.973 197.95 321.354 198.347C321.761 198.718 322.167 199.089 322.579 199.476C323.387 200.254 324.297 200.982 325.206 201.761C326.116 202.54 327.096 203.278 328.086 204.048C329.097 204.776 330.112 205.571 331.178 206.315C333.3 207.824 335.528 209.299 337.837 210.763C340.131 212.233 342.496 213.663 344.871 215.072C349.611 217.911 354.402 220.65 358.82 223.325C361.034 224.653 363.152 225.995 365.134 227.281C367.106 228.587 368.962 229.846 370.585 231.115C370.992 231.436 371.404 231.721 371.791 232.032C372.178 232.342 372.55 232.658 372.902 232.963C373.646 233.544 374.273 234.179 374.896 234.749C375.518 235.319 376.03 235.908 376.537 236.432C377.018 236.981 377.424 237.503 377.81 237.966C378.5 238.95 379.041 239.731 379.305 240.334C379.594 240.912 379.759 241.211 379.759 241.211C379.759 241.211 379.609 240.907 379.33 240.309C379.082 239.701 378.556 238.915 377.876 237.91C377.505 237.443 377.094 236.905 376.628 236.352C376.121 235.828 375.62 235.219 375.008 234.629C374.385 234.059 373.768 233.403 373.034 232.803C372.683 232.497 372.311 232.182 371.934 231.851C371.562 231.535 371.145 231.235 370.748 230.894C369.13 229.59 367.295 228.29 365.343 226.944C363.382 225.618 361.284 224.235 359.091 222.867C354.709 220.096 349.984 217.252 345.305 214.342C342.966 212.888 340.647 211.393 338.378 209.898C336.125 208.398 333.932 206.879 331.856 205.355C330.805 204.606 329.825 203.816 328.84 203.062C327.895 202.278 326.93 201.535 326.051 200.746C325.172 199.957 324.298 199.234 323.52 198.446C323.129 198.07 322.737 197.694 322.346 197.317C321.984 196.931 321.628 196.56 321.272 196.189C320.931 195.813 320.564 195.462 320.259 195.091C319.953 194.721 319.647 194.35 319.346 193.994C318.734 193.304 318.244 192.573 317.743 191.913C317.227 191.258 316.858 190.589 316.478 189.99C316.293 189.681 316.118 189.402 315.943 189.123C315.798 188.834 315.659 188.561 315.524 188.302C315.27 187.78 315.005 187.329 314.831 186.898C314.756 186.671 314.677 186.478 314.602 186.301C314.693 186.271 314.784 186.241 314.86 186.217C317.457 185.471 319.648 184.874 321.378 184.41C320.457 183.131 320.08 182.078 320.08 182.078C320.08 182.078 319.764 181.005 319.754 179.429C318.68 179.846 317.617 180.244 316.543 180.661C315.495 181.053 314.442 181.43 313.399 181.838C313.338 181.858 313.277 181.877 313.231 181.892C313.153 181.498 313.095 181.063 313.003 180.572C312.959 180.284 312.91 179.981 312.857 179.662C312.834 179.334 312.811 179.005 312.778 178.646C312.732 177.939 312.636 177.181 312.666 176.347C312.667 175.524 312.647 174.64 312.734 173.721C312.767 173.256 312.795 172.777 312.824 172.297C312.852 171.817 312.941 171.318 312.995 170.813C313.064 170.303 313.133 169.794 313.197 169.269C313.296 168.749 313.391 168.214 313.48 167.664C313.644 166.569 313.924 165.47 314.168 164.314C314.433 163.17 314.759 162.005 315.055 160.799C315.406 159.61 315.732 158.394 316.139 157.169C316.903 154.719 317.793 152.194 318.729 149.655C319.664 147.115 320.676 144.55 321.703 141.981C323.762 136.857 325.901 131.774 327.811 126.967L327.876 127.013Z" fill="#A2CD6E"/>
</svg>
