<svg width="299" height="281" viewBox="0 0 299 281" fill="none" xmlns="http://www.w3.org/2000/svg">
<path d="M136.112 189.475C143.05 196.749 172.862 209.611 172.862 209.611C172.862 209.611 176.122 206.463 180.559 202.243C176.327 202.087 173.211 200.818 169.392 196.034C165.573 191.25 154.495 184.211 154.495 184.211C157.056 183.378 163.884 186.305 169.478 191.249C175.072 196.194 186.127 196.975 189.867 193.466C194.754 188.896 202.059 180.137 204.923 177.748C204.923 177.748 190.288 171.814 177.973 161.042C177.973 161.042 184.929 157.547 190.477 160.719C196.026 163.892 205.666 166.973 215.515 168.917C215.515 168.917 217.759 157.71 232.557 143.197C232.557 143.197 218.086 124.796 208.679 123.929C208.679 123.929 225.388 125.23 230.383 131.221C235.378 137.212 242.097 126.532 241.555 117.558C241.012 108.584 246.597 78.8367 255.541 54.1794C229.67 58.5514 199.411 58.6918 190.681 56.5445C181.951 54.3973 170.237 59.0867 175.232 65.0774C180.227 71.0681 178.503 87.739 178.503 87.739C179.342 78.3293 163.842 60.7862 163.842 60.7862C146.897 72.7407 130.709 74.6248 130.709 74.6248C130.857 84.6565 132.148 94.6994 134.272 100.728C136.395 106.757 131.707 112.97 131.707 112.97C123.332 98.913 120.117 83.456 120.117 83.456C112.36 89.924 98.1941 94.4835 98.1941 94.4835C98.1941 94.4835 105.479 126.128 111.396 134.254C117.304 142.387 112.579 152.85 112.579 152.85C112.579 152.85 113.096 148.786 102.853 138.031C92.6094 127.277 88.3797 106.651 88.3797 106.651L82.7187 113.884C84.2157 128.39 87.9112 143.316 82.2489 137.165C76.5803 131.007 76.317 119.261 76.317 119.261C67.5996 125.983 62.8973 136.661 62.8973 136.661C64.9217 146.21 73.0823 153.623 76.8909 161.033C80.6995 168.443 75.9718 170.939 75.9718 170.939C59.4254 161.026 53.0808 146.265 53.0808 146.265C53.0808 146.265 42.9814 155.78 36.0079 171.776C29.0344 187.773 26.7991 206.641 45.6268 229.221C64.4546 251.802 83.4172 252.995 100.407 249.011C117.396 245.026 119.801 239.557 119.801 239.557C119.801 239.557 106.415 230.655 99.6447 212.604C99.6447 212.604 102.951 208.402 109.555 213.48C116.159 218.559 121.985 227.919 131.014 231.627C131.014 231.627 133.789 231.879 145.234 226.086C156.678 220.293 159.127 217.092 159.127 217.092C159.127 217.092 139.605 209.217 130.86 197.214C122.114 185.21 118.031 184.982 118.031 184.982C118.031 184.982 129.173 182.215 136.111 189.489L136.112 189.475Z" fill="#68923F"/>
<path d="M126.875 211.009C121.647 204.927 114.191 194.048 119.505 194.175C124.818 194.301 120.545 190.378 116.471 188.397C112.396 186.431 116.439 173.946 127.595 178.627C138.751 183.309 150.108 193.214 153.103 190.56C156.098 187.906 143.951 184.845 146.711 179.771C149.471 174.696 159.643 177.776 164.586 183.095C169.536 188.407 177.007 187.216 174.976 181.267C172.945 175.318 165.959 170.063 168.774 166.413C171.59 162.763 172.645 158.953 167.981 157.466C163.316 155.978 170.052 149.02 178.732 153.761C187.411 158.517 190.018 151.681 194.144 154.881C198.271 158.081 210.567 156.135 209.26 149.243C207.96 142.359 202.506 134.85 205.578 132.288C208.65 129.727 206.596 123.953 201.955 124.242C197.314 124.531 201.276 115.043 206.934 117.331C212.591 119.618 224.381 124.592 226.712 119.393C229.043 114.194 220.763 111.867 225.634 109.902C230.505 107.936 234.963 105.678 232.081 102.222C229.199 98.7653 221.104 96.6614 223.327 92.8939C225.55 89.1265 235.048 78.4071 231.59 74.9626C227.905 71.2915 218.272 80.8202 212.492 79.5722C206.705 78.3306 209.013 68.763 203.802 69.1499C198.591 69.5367 199.927 76.339 194.617 78.9178C189.307 81.4967 183.603 69.3784 183.627 77.2616C183.658 85.1525 185.36 96.3757 178.593 94.8962C171.832 93.4244 163.267 86.3221 164.353 82.2528C165.439 78.1834 150.881 73.1224 149.645 83.1493C148.41 93.1762 144.808 101.192 142.989 99.0111C141.171 96.8299 136.881 94.0271 136.251 94.3179C135.621 94.6087 146.826 106.892 138.864 114.051C130.909 121.219 124.358 118.14 122.056 113.771C119.754 109.401 106.761 110.027 109.837 117.449C112.905 124.877 127.579 139.867 123.852 147.375C120.126 154.883 113.727 156.312 116.071 159.123C118.415 161.934 110.449 164.357 109.129 159.651C107.809 154.945 101.006 143.913 96.3906 141.251C91.7755 138.589 88.0441 141.921 88.4931 144.802C88.942 147.683 86.4551 150.837 81.814 146.895C77.1728 142.953 74.8689 145.577 78.4389 151.232C82.0088 156.888 86.7951 166.907 83.0541 172.383C79.3132 177.859 78.5936 177.964 74.4806 176.342C70.3676 174.719 72.0613 178.515 73.1418 182.341C74.2222 186.166 72.2832 188.915 68.6628 190.632C65.0424 192.349 60.4707 198.765 56.395 192.893C52.3192 187.021 54.2288 175.664 47.9813 177.93C41.7337 180.197 44.0145 186.446 44.9609 191.672C45.9073 196.898 44.9478 199.651 40.0052 198.408C37.1664 197.689 33.7443 198.863 31.4812 200.959C32.9203 209.68 37.1174 219.07 45.5707 229.208C54.9141 240.414 64.2945 246.355 73.4409 249.002C75.7321 246.753 76.6621 243.621 75.4119 241.668C72.7501 237.508 75.9499 233.538 81.3154 236.069C86.6809 238.6 93.1465 237.766 88.3429 230.053C83.5394 222.34 75.9833 215.62 82.6552 210.552C89.327 205.484 92.3625 209.124 94.6553 212.264C96.948 215.404 98.1403 211.963 97.1656 206.109C96.1909 200.255 101.248 197.341 106.671 203.065C112.095 208.79 118.264 222.044 126.038 221.42C133.813 220.797 132.045 217.115 126.817 211.033L126.875 211.009Z" fill="#60843A"/>
<path d="M45.6147 229.22C53.3315 238.475 61.0755 244.14 68.6895 247.322C65.8605 245.007 61.9644 240.521 62.1285 236.83C62.2926 233.139 57.9317 228.846 57.9317 228.846C60.8514 230.317 63.4464 229.026 63.4464 229.026C59.1078 226.758 56.5102 223.143 56.5102 223.143C56.9867 223.918 60.2726 225.657 60.2726 225.657C58.7029 220.885 61.3049 212.857 61.3049 212.857C61.3049 212.857 56.8653 210.921 52.9988 211.749C49.1387 212.585 47.3171 209.104 47.3171 209.104L48.5134 215.489C48.5134 215.489 35.2789 213.139 32.5188 205.597C34.5401 212.987 38.6202 220.847 45.6006 229.219L45.6147 229.22Z" fill="#4D682F"/>
<path d="M163.848 60.7862C146.903 72.7406 130.714 74.6248 130.714 74.6248C130.79 80.1342 131.228 85.641 131.939 90.4908C131.95 90.4421 134.532 81.3892 138.163 77.8275C138.163 77.8275 136.625 81.7138 137.576 84.9311C137.576 84.9311 146.776 74.7598 152.774 72.5841C158.772 70.4083 161.27 72.2321 161.27 72.2321C161.27 72.2321 160.805 68.8176 158.622 68.1511C158.622 68.1511 162.348 67.5444 165.682 71.8084C169.022 76.08 171.335 83.1483 171.335 83.1483C171.335 83.1483 172.723 78.9573 171.301 75.6902C171.301 75.6902 176.417 80.2648 178.089 83.8314C175.655 74.1819 163.833 60.7849 163.833 60.7849L163.848 60.7862Z" fill="#4D682F"/>
<path d="M105.179 100.08L107.552 104.221C107.552 104.221 109.436 97.7674 111.297 95.5646C111.297 95.5646 113.471 97.6574 114.883 101.037C114.883 101.037 116.665 97.0522 116.588 93.978C116.588 93.978 121.102 97.0496 123.312 102.042C125.522 107.035 131.722 112.972 131.722 112.972C123.347 98.9145 120.133 83.4576 120.133 83.4576C112.376 89.9256 98.2099 94.4851 98.2099 94.4851C98.2099 94.4851 101.879 110.409 106.123 122.573C106.092 122.364 103.27 104.77 105.186 100.087L105.179 100.08Z" fill="#4D682F"/>
<path d="M190.686 56.5452C181.956 54.3979 170.242 59.0873 175.237 65.078C176.39 66.4605 177.186 68.4141 177.725 70.6073C177.725 70.6073 179.643 66.9116 178.937 63.4254C178.937 63.4254 180.534 64.3724 181.422 66.4054C181.422 66.4054 182.883 64.4575 182.14 62.395C181.397 60.3326 187.915 57.9057 192.353 62.8377C192.353 62.8377 193.453 61.4252 192.637 60.2436C192.637 60.2436 206.832 61.1679 210.494 66.2C214.154 71.2462 213.549 73.3782 213.549 73.3782C213.549 73.3782 217.757 70.742 217.741 66.3029C217.741 66.3029 220.193 67.292 220.302 69.3751C220.302 69.3751 223.035 66.0159 221.677 63.9972C221.677 63.9972 227.517 60.9764 233.36 62.3934C239.203 63.8104 238.337 68.8937 238.337 68.8937L255.573 54.1966C229.702 58.5687 199.443 58.7091 190.713 56.5618L190.686 56.5452Z" fill="#4D682F"/>
<path d="M86.3804 118.398L88.3529 120.763C88.3529 120.763 88.5226 118.89 88.8833 117.496C88.8833 117.496 92.9609 125.384 94.1208 129.508C95.2871 133.639 107.257 141.639 111.258 148.889C110.01 146.518 107.575 142.989 102.849 138.024C92.5991 127.261 88.3758 106.643 88.3758 106.643L82.7148 113.876C83.512 121.61 84.9303 129.463 85.2274 134.176C85.1342 130.348 85.056 121.104 86.374 118.39L86.3804 118.398Z" fill="#4D682F"/>
<path d="M73.4344 127.343C73.4344 127.343 74.4822 133.409 79.7245 139.571C79.7245 139.571 79.1053 136.845 79.9469 133.904C79.9469 133.904 79.9546 133.898 79.9623 133.891C76.5151 127.586 76.3181 119.261 76.3181 119.261C67.6007 125.983 62.8983 136.662 62.8983 136.662C62.8983 136.662 70.2555 127.949 73.4408 127.35L73.4344 127.343Z" fill="#4D682F"/>
<path d="M49.2229 162.182C49.2229 162.182 52.1069 173.526 56.6426 180.043C56.6426 180.043 55.5398 174.036 57.6047 168.408L61.434 172.142C61.434 172.142 59.4648 167.391 59.8949 162.411C59.8949 162.411 68.2379 167.498 75.9787 170.926C59.4323 161.012 53.0877 146.252 53.0877 146.252C53.0877 146.252 42.9883 155.766 36.0148 171.763C33.21 178.19 31.18 185.077 30.9708 192.478C32.5235 181.77 42.1567 167.214 49.2447 162.177L49.2229 162.182Z" fill="#4D682F"/>
<path d="M243.812 74.9352C244.155 80.9375 240.134 86.1395 240.134 86.1395C238.392 84.441 234.597 86.5252 234.597 86.5252C236.626 87.0073 237.158 89.5973 237.158 89.5973C232.794 88.783 229.445 92.4483 229.445 92.4483C229.445 92.4483 231.651 92.2365 235.957 96.7447C240.262 101.253 238.606 115.381 238.606 115.381C237.591 114.352 236.003 115.195 236.003 115.195C240.05 120.439 236.498 126.422 234.602 125.32C232.707 124.219 230.528 125.306 230.528 125.306C232.362 126.537 233.013 128.286 233.013 128.286C230.259 127.185 227.039 127.851 226.05 128.102C227.831 128.974 229.371 130.008 230.402 131.245C235.397 137.235 242.116 126.555 241.573 117.581C241.035 108.707 246.803 78.6782 255.56 54.2028L238.324 68.8998C238.324 68.8998 243.481 68.9483 243.823 74.9647L243.812 74.9352Z" fill="#4D682F"/>
<path d="M145.238 226.072C156.683 220.279 159.131 217.079 159.131 217.079C159.131 217.079 153.261 214.708 146.52 210.59C144.959 209.717 143.424 208.719 141.983 207.615C141.763 207.461 141.543 207.306 141.322 207.151C136.78 207.605 132.932 205.957 132.932 205.957C140.595 215.335 149.252 218.52 149.252 218.52C147.736 222.479 136.278 229.442 133.36 231.159C135.416 230.564 139.062 229.19 145.216 226.077L145.238 226.072Z" fill="#4D682F"/>
<path d="M103.985 221.723C108.086 230.217 108.653 236.581 108.653 236.581L103.588 233.629L109.281 240.457C101.695 239.947 94.6444 233.444 94.6444 233.444L101.932 242.184C93.7526 249.161 77.8622 250.028 71.8658 248.505C81.7217 251.784 91.3384 251.121 100.391 249.002C117.381 245.018 119.786 239.549 119.786 239.549C119.786 239.549 110.921 233.648 103.971 221.722L103.985 221.723Z" fill="#4D682F"/>
<path d="M215.201 168.854C215.468 168.253 215.769 167.599 216.108 166.912C217.444 163.064 221.483 154.058 232.557 143.198C232.557 143.198 232.219 142.777 231.637 142.064C228.512 138.316 220.017 128.72 212.783 125.416C215.991 127.702 219.571 133.558 219.571 133.558C216.613 131.571 212.241 132.183 212.241 132.183C212.241 132.183 218.784 135.737 222.379 139.783C225.981 143.837 224.708 147.385 224.708 147.385C224.438 145.11 221.169 144.047 221.169 144.047C221.169 144.047 222.514 146.832 219.296 152.341C216.077 157.85 204.418 165.072 204.418 165.072C207.412 166.586 211.511 165.771 211.511 165.771C210.669 166.37 209.615 166.871 208.468 167.306C210.674 167.875 212.936 168.386 215.216 168.841L215.201 168.854Z" fill="#4D682F"/>
<path d="M180.572 202.237C178.435 202.157 176.586 201.798 174.784 200.839C171.557 202.684 169.158 200.088 169.158 200.088L172.148 203.675C168.093 203.371 161.382 199.085 161.382 199.085L163.783 201.965C157.527 200.567 144.371 194.533 138.156 191.265C147.546 198.669 172.882 209.599 172.882 209.599C172.882 209.599 176.143 206.451 180.579 202.231L180.572 202.237Z" fill="#4D682F"/>
<path d="M184.893 166.475C187.588 170.425 186.801 173.464 185.804 172.798C182.629 170.693 179.315 168.249 176.156 165.492C176.156 165.492 180.882 172.658 185.396 175.729C189.91 178.801 192.12 183.794 192.12 183.794C189.096 183.165 184.869 184.202 184.869 184.202C187.94 186.198 189.608 188.714 189.608 188.714C187.114 190.142 180.42 190.842 180.42 190.842L184.067 193.92C181.012 194.566 173.661 192.246 168.421 190.365C168.778 190.653 169.134 190.955 169.483 191.263C175.069 196.214 186.132 196.99 189.872 193.48C194.759 188.911 202.064 180.151 204.928 177.762C204.928 177.762 195.17 173.803 184.891 166.489L184.893 166.475Z" fill="#4D682F"/>
<path d="M248.495 60.2789C248.495 60.2789 247.586 61.0627 245.884 62.5344C245.029 63.2734 243.988 64.1801 242.748 65.2534C241.534 66.3434 240.143 67.5947 238.581 69.001C235.464 71.8212 231.734 75.2959 227.499 79.3354C223.257 83.3672 218.536 87.9804 213.372 93.015C203.04 103.062 191.049 114.884 177.274 126.564C170.396 132.416 163.05 138.19 155.227 143.58C147.426 148.965 139.537 154.385 131.762 160.02C123.99 165.642 116.254 171.324 108.735 177.047C101.217 182.756 93.8638 188.444 86.8631 194.086C79.8431 199.705 73.1637 205.248 66.9913 210.681C60.8278 216.094 55.0753 221.359 50.4099 226.616C49.7776 227.248 49.3168 227.944 48.7754 228.591C48.2391 229.259 47.7169 229.929 47.196 230.585C46.1478 231.967 45.2224 233.324 44.1166 234.637C43.588 235.299 43.0606 235.947 42.541 236.589C42.0098 237.201 41.4786 237.813 40.9628 238.412C39.944 239.626 38.8777 240.737 37.8768 241.832C33.8052 246.177 29.9945 249.68 26.7867 252.485C24.6592 254.337 22.4024 256.049 20.2621 257.886C17.9836 259.838 15.8882 261.885 13.3677 263.609C12.7082 263.13 12.1945 262.374 12.1687 261.562C12.1505 260.744 12.7175 259.893 13.5241 259.768C13.5483 259.266 13.0309 258.942 12.5738 258.737C12.1166 258.532 11.5877 258.257 11.5402 257.763C11.5094 257.398 11.7731 257.074 12.0368 256.828C12.687 256.234 13.491 255.824 14.3462 255.632C14.9403 255.501 15.5523 255.485 16.1284 255.318C17.2934 254.997 18.4338 253.382 19.4207 252.598C20.8967 251.433 22.3611 250.238 23.7922 249.019C26.9463 246.337 30.7147 242.986 34.7122 238.833C35.7016 237.786 36.7422 236.723 37.7406 235.578C38.2462 235.014 38.7607 234.428 39.2817 233.851C39.7757 233.257 40.2775 232.656 40.7805 232.041C41.8032 230.863 42.8053 229.441 43.8638 228.103C44.4231 227.415 44.9901 226.721 45.5648 226.021C46.16 225.329 46.7141 224.542 47.3682 223.905C52.364 218.451 58.2317 213.246 64.5424 207.853C70.8455 202.468 77.6465 196.992 84.7728 191.454C91.8798 185.893 99.3377 180.299 106.954 174.677C114.571 169.056 122.404 163.475 130.282 157.948C138.152 152.427 146.177 147.077 154.023 141.824C161.852 136.598 169.236 130.962 176.166 125.236C190.039 113.798 202.191 102.169 212.665 92.2764C217.899 87.3263 222.685 82.7758 226.986 78.7991C231.281 74.8146 235.063 71.3873 238.226 68.6067C239.807 67.2235 241.225 65.9888 242.452 64.9142C243.704 63.8704 244.765 62.9725 245.626 62.2412C247.354 60.8003 248.27 60.0242 248.27 60.0242C248.339 59.9665 248.445 59.969 248.509 60.0458C248.567 60.1149 248.564 60.2213 248.487 60.2853L248.495 60.2789Z" fill="#A2CD6E"/>
<path d="M203.32 74.3255C205.073 80.5195 204.396 84.001 202.732 88.6428L199.991 82.622C199.991 82.622 199.576 87.1994 198.569 90.4736C197.562 93.7478 199.482 96.2222 199.482 96.2222C199.482 96.2222 202.934 92.3673 205.44 90.1093C207.945 87.8513 207.555 83.2933 206.425 80.1734C205.295 77.0534 203.315 74.3037 203.315 74.3037L203.32 74.3255Z" fill="#4D682F"/>
<path d="M228.288 104.264C222.11 102.476 218.616 103.11 213.959 104.74L219.955 107.527C219.955 107.527 215.376 107.908 212.085 108.894C208.793 109.881 206.342 107.941 206.342 107.941C206.342 107.941 210.231 104.516 212.501 102.024C214.772 99.5316 219.328 99.9515 222.446 101.115C225.558 102.27 228.294 104.272 228.294 104.272L228.288 104.264Z" fill="#4D682F"/>
<path d="M156.156 130.87C152.313 132.772 148.994 125.436 147.922 122.853C146.85 120.271 147.039 110.348 144.928 107.551C144.928 107.551 151.408 113.762 151.514 117.527C151.621 121.293 153.26 124.04 153.26 124.04C153.26 124.04 155.263 119.337 154.514 117.565C154.514 117.565 157.963 123.231 157.769 125.684C157.769 125.684 159.282 124.422 159.815 122.533C159.815 122.533 160.358 126.26 159.101 128.063C157.844 129.866 156.149 130.862 156.149 130.862L156.156 130.87Z" fill="#4D682F"/>
<path d="M148.941 163.196C147.057 165.73 151.927 169.104 153.665 170.22C155.403 171.336 162.609 172.515 164.361 174.413C164.361 174.413 160.722 168.893 158.005 168.32C155.288 167.747 153.512 166.195 153.512 166.195C153.512 166.195 157.186 165.37 158.366 166.145C158.366 166.145 154.719 162.896 152.912 162.711C152.912 162.711 154.025 161.782 155.464 161.65C155.464 161.65 152.833 160.758 151.352 161.434C149.878 162.102 148.934 163.203 148.934 163.203L148.941 163.196Z" fill="#4D682F"/>
<path d="M179.433 105.417C178.548 109.306 179.786 115.865 179.786 115.865C179.786 115.865 178.722 115.541 176.342 112.422C173.962 109.302 174.597 106.207 174.597 106.207C174.597 106.207 175.246 107.828 176.708 109.317L179.426 105.423L179.433 105.417Z" fill="#4D682F"/>
<path d="M193.583 130.413C189.598 130.585 183.369 128.188 183.369 128.188C183.369 128.188 183.496 129.293 186.137 132.195C188.778 135.097 191.936 135.028 191.936 135.028C191.936 135.028 190.459 134.099 189.257 132.393L193.575 130.42L193.583 130.413Z" fill="#4D682F"/>
<path d="M94.7888 158.154C96.6361 161.665 99.3547 167.861 99.3547 167.861C99.3547 167.861 93.7695 166.815 91.3744 163.943C88.9793 161.071 86.484 157.11 86.484 157.11C86.484 157.11 90.3488 159.356 91.5912 160.846L93.3587 162.966C93.3587 162.966 92.9664 161.34 91.3207 159.756C91.3207 159.756 93.5257 160.261 94.8104 162.146L94.7888 158.154Z" fill="#4D682F"/>
<path d="M51.8927 188.389C51.4772 190.467 50.4718 193.962 50.4718 193.962C50.4718 193.962 48.1447 191.748 48.0558 189.752C47.9669 187.756 48.2325 185.295 48.2325 185.295C48.2325 185.295 49.6426 186.815 49.6916 187.842C49.7405 188.868 50.0391 189.804 49.9652 191.012L51.8863 188.381L51.8927 188.389Z" fill="#4D682F"/>
<path d="M79.5333 224.335C79.1178 226.413 78.1124 229.908 78.1124 229.908C78.1124 229.908 75.7853 227.695 75.6964 225.699C75.6062 223.717 75.8732 221.242 75.8732 221.242C75.8732 221.242 77.2833 222.761 77.3322 223.788C77.3812 224.815 77.6797 225.751 77.6058 226.958L79.5269 224.328L79.5333 224.335Z" fill="#4D682F"/>
<path d="M89.3135 206.3C87.9174 204.704 85.7464 201.787 85.7464 201.787C85.7464 201.787 88.9228 201.287 90.5595 202.422C92.1961 203.558 93.9929 205.275 93.9929 205.275C93.9929 205.275 91.9303 205.472 91.0813 204.891C90.2399 204.303 89.3039 203.977 88.3959 203.185L89.3199 206.307L89.3135 206.3Z" fill="#4D682F"/>
<path d="M137.282 175.146C135.886 173.55 133.715 170.634 133.715 170.634C133.715 170.634 136.892 170.134 138.528 171.269C140.165 172.404 141.962 174.122 141.962 174.122C141.962 174.122 139.899 174.319 139.05 173.738C138.209 173.15 137.273 172.824 136.365 172.032L137.289 175.154L137.282 175.146Z" fill="#4D682F"/>
<path d="M95.7353 175.805C94.3393 174.208 92.1683 171.292 92.1683 171.292C92.1683 171.292 95.3447 170.792 96.9813 171.927C98.618 173.063 100.415 174.78 100.415 174.78C100.415 174.78 98.3522 174.977 97.5031 174.396C96.6618 173.808 95.7257 173.482 94.8177 172.69L95.7417 175.812L95.7353 175.805Z" fill="#4D682F"/>
<path d="M137.484 133.523C137.519 135.642 137.289 139.27 137.289 139.27C137.289 139.27 134.544 137.601 134.022 135.68C133.508 133.752 133.249 131.286 133.249 131.286C133.249 131.286 134.952 132.469 135.224 133.467C135.489 134.456 135.987 135.304 136.169 136.506L137.484 133.523Z" fill="#4D682F"/>
<path d="M180.818 146.212C179 145.124 176.039 143.01 176.039 143.01C176.039 143.01 178.911 141.566 180.811 142.143C182.711 142.72 184.948 143.81 184.948 143.81C184.948 143.81 183.042 144.631 182.061 144.329C181.08 144.027 180.096 144.002 178.981 143.525L180.818 146.212Z" fill="#4D682F"/>
<path d="M194.915 99.8269C194.333 101.862 193.044 105.266 193.044 105.266C193.044 105.266 190.904 102.872 190.978 100.883C191.052 98.8946 191.521 96.4593 191.521 96.4593C191.521 96.4593 192.807 98.0952 192.763 99.1208C192.727 100.154 192.96 101.105 192.773 102.302L194.907 99.8333L194.915 99.8269Z" fill="#4D682F"/>
<path d="M115.65 194.976C112.527 192.528 106.921 188.739 106.921 188.739C106.921 188.739 106.946 194.422 109.341 197.294C111.736 200.167 115.183 203.333 115.183 203.333C115.183 203.333 113.669 199.128 112.426 197.638L110.659 195.518C110.659 195.518 112.188 196.196 113.45 198.1C113.45 198.1 113.349 195.84 111.726 194.237L115.65 194.976Z" fill="#4D682F"/>
</svg>
