<svg width="230" height="248" viewBox="0 0 230 248" fill="none" xmlns="http://www.w3.org/2000/svg">
<path d="M54.346 39.6551C54.7718 39.3741 55.3533 39.4959 55.6342 39.9217L120.269 138.732C121.022 139.914 121.76 141.093 122.499 142.272C123.403 143.726 124.3 145.171 125.196 146.631C126.12 148.132 127.043 149.633 127.967 151.133C128.78 152.456 129.593 153.778 130.397 155.106C130.96 156.029 131.529 156.961 132.092 157.885C132.208 158.072 132.311 158.256 132.427 158.443C132.598 158.69 132.7 158.874 132.79 159.164C132.927 159.592 133.033 160.029 133.126 160.463C133.147 160.582 133.166 160.715 133.117 160.821C133.052 160.938 132.904 161.004 132.776 160.995C132.64 160.992 132.514 160.933 132.397 160.868C131.164 160.223 130.568 158.934 129.866 157.79C129.158 156.639 128.453 155.473 127.745 154.321C126.85 152.861 125.954 151.402 125.059 149.942C124.118 148.417 123.172 146.883 122.231 145.357C121.39 143.994 120.54 142.636 119.685 141.271C119.362 140.765 119.04 140.245 118.717 139.74L54.0876 40.9376C53.8067 40.5118 53.9259 39.9442 54.3542 39.6494L54.346 39.6551Z" fill="#A2CD6E"/>
<path d="M77.2643 55.3837C83.0038 43.8095 102.004 28.4496 113.476 24.2687C124.942 20.0795 127.784 22.9915 127.784 22.9915C127.784 22.9915 118.12 38.1771 105.986 46.6866C93.8516 55.1961 77.2643 55.3837 77.2643 55.3837Z" fill="#4D682F"/>
<path d="M124.466 24.5805C124.466 24.5805 116.132 35.2944 105.776 42.3491C105.776 42.3491 104.851 41.5168 103.519 41.4505L104.011 42.9938C104.011 42.9938 99.5553 46.1332 97.1843 46.5511L96.3307 46.034C96.3307 46.034 96.5199 47.3848 97.2921 47.8366C97.2921 47.8366 95.3334 48.5535 94.3277 47.886C94.3277 47.886 94.1611 48.4377 94.4446 48.8496C94.4446 48.8496 85.1593 54.0022 78.0314 54.9871C78.0314 54.9871 85.2886 46.2531 90.4583 42.0879L92.4111 43.7787C92.4111 43.7787 91.5639 41.8246 91.5834 40.7065C91.5834 40.7065 98.3427 35.0587 102.88 33.1497L103.744 34.1937L103.857 31.8704C103.857 31.8704 113.156 27.0726 117.761 25.6147C122.366 24.1567 124.463 24.5584 124.463 24.5584L124.466 24.5805Z" fill="#68923F"/>
<path d="M122.012 26.2478C122.012 26.2478 121.188 26.8148 119.747 27.807C119.022 28.3059 118.149 28.9069 117.132 29.5822C116.11 30.2491 114.951 30.9986 113.723 31.8434C112.477 32.6774 111.235 33.7137 109.867 34.777C108.507 35.8345 106.974 36.853 105.303 37.7238C104.481 38.1687 103.641 38.625 102.847 39.1471C102.028 39.6502 101.39 40.3448 100.538 40.9427C98.8987 42.0349 97.2317 43.158 95.5672 44.2672C92.2325 46.4774 88.8953 48.7016 85.7666 50.77C82.6296 52.8442 79.6223 54.6834 76.8903 56.0054C74.2 57.3351 71.9927 58.5022 70.4769 59.3513C69.7149 59.7787 69.1264 60.123 68.7362 60.3673C68.3541 60.606 68.1508 60.7338 68.1508 60.7338L68.1178 60.7565C67.898 60.8957 67.6085 60.8279 67.475 60.6162C67.3415 60.4046 67.3954 60.1126 67.6153 59.9734C67.6153 59.9734 67.8351 59.8342 68.2557 59.5811C68.6681 59.3337 69.2705 58.9919 70.0382 58.5728C71.5818 57.7289 73.82 56.589 76.5273 55.284C79.227 54.0207 82.2322 52.2315 85.3754 50.2017C88.5268 48.1661 91.8841 45.9889 95.2553 43.8142C96.9312 42.7214 98.607 41.6287 100.258 40.553C101.032 40.02 101.743 39.2883 102.598 38.7847C103.422 38.2537 104.273 37.814 105.101 37.3773C106.775 36.5287 108.286 35.5493 109.649 34.5139C111.013 33.4785 112.29 32.4416 113.548 31.6241C114.803 30.7844 115.966 30.0571 116.994 29.3984C118.027 28.7478 118.906 28.1551 119.631 27.6562C121.084 26.6805 121.913 26.1217 121.913 26.1217C121.946 26.0991 122.002 26.1093 122.024 26.1423C122.047 26.1752 122.037 26.2308 122.004 26.2535L122.012 26.2478Z" fill="#A2CD6E"/>
<path d="M68.7378 79.4739C57.3924 80.5573 38.749 91.374 31.6882 99.5116C24.6218 107.641 26.1207 110.895 26.1207 110.895C26.1207 110.895 41.6846 107.721 52.5133 100.401C63.3502 93.076 68.7296 79.4795 68.7296 79.4795L68.7378 79.4739Z" fill="#4D682F"/>
<path d="M28.4712 108.668C28.4712 108.668 39.9307 105.176 48.999 98.8611C48.999 98.8611 48.6065 97.8323 48.9701 96.7202L50.0928 97.6106C50.0928 97.6106 54.0833 94.9247 55.1742 93.1055L55.0172 92.2424C55.0172 92.2424 56.0743 92.8259 56.205 93.5978C56.205 93.5978 57.4105 92.2097 57.1844 91.1757C57.1844 91.1757 57.6953 91.2125 57.9448 91.5749C57.9448 91.5749 65.12 85.5438 68.1665 79.9871C68.1665 79.9871 58.6835 83.2121 53.6234 86.1607L54.4068 88.3043C54.4068 88.3043 53.0671 86.9928 52.1383 86.6487C52.1383 86.6487 45.3569 90.43 42.3524 93.5784L42.9447 94.6154L40.9908 93.9814C40.9908 93.9814 34.1031 100.13 31.4591 103.468C28.8152 106.805 28.4794 108.663 28.4794 108.663L28.4712 108.668Z" fill="#68923F"/>
<path d="M30.5408 107.051C30.5408 107.051 31.2657 106.552 32.5311 105.657C33.1654 105.22 33.9284 104.671 34.7871 104.031C35.6541 103.386 36.6225 102.659 37.7067 101.888C38.7796 101.101 40.0338 100.383 41.3174 99.5849C42.5952 98.7782 43.8823 97.8438 45.1085 96.7328C45.7273 96.1855 46.3625 95.6269 47.0622 95.1089C47.7448 94.5662 48.5856 94.2181 49.2554 93.745C50.6604 92.7172 52.0875 91.6864 53.5172 90.6417C56.3683 88.558 59.2137 86.466 61.8836 84.5069C64.5535 82.5479 66.9551 80.64 68.853 78.8116C70.7731 76.9802 72.4266 75.5022 73.607 74.4834C74.1959 73.981 74.67 73.5939 74.999 73.3311C75.3419 73.0708 75.5256 72.9322 75.5256 72.9322C75.7341 72.7765 76.0205 72.8222 76.1787 73.0168C76.337 73.2114 76.2887 73.5117 76.0941 73.6699L76.0612 73.6926C76.0612 73.6926 75.8882 73.8116 75.57 74.0549C75.2436 74.3038 74.7721 74.677 74.1857 75.1655C73.0048 76.1483 71.3482 77.6041 69.408 79.3887C67.4601 81.215 64.9864 83.124 62.2882 85.0418C59.59 86.9597 56.7162 89.0105 53.8342 91.067C52.3875 92.087 50.949 93.1013 49.5327 94.1126C48.7749 94.6342 47.9942 94.9286 47.3224 95.4518C46.6361 95.9362 46.0091 96.4892 45.3708 97.0257C44.125 98.1259 42.7937 99.0666 41.4962 99.8625C40.1931 100.65 38.9497 101.348 37.8655 102.119C36.7781 102.867 35.8041 103.586 34.9258 104.215C34.0531 104.852 33.2732 105.377 32.6389 105.813C31.3621 106.692 30.6372 107.191 30.6372 107.191C30.6042 107.214 30.5486 107.203 30.5259 107.17C30.5032 107.137 30.5135 107.082 30.5465 107.059L30.5408 107.051Z" fill="#A2CD6E"/>
<path d="M83.0586 76.1209C88.2099 66.4084 104.661 53.2525 114.471 49.4984C124.274 45.75 126.6 48.0705 126.6 48.0705C126.6 48.0705 118.046 60.8653 107.567 68.1991C97.0882 75.533 83.0669 76.1152 83.0669 76.1152L83.0586 76.1209Z" fill="#4D682F"/>
<path d="M123.753 49.4724C123.753 49.4724 116.428 58.5319 107.495 64.6197C107.495 64.6197 106.734 63.9542 105.607 63.9403L105.978 65.2025C105.978 65.2025 102.127 67.9141 100.119 68.3127L99.4169 67.9098C99.4169 67.9098 99.5417 69.0259 100.182 69.3742C100.182 69.3742 98.5106 70.0147 97.6791 69.4945C97.6791 69.4945 97.5222 69.9545 97.7547 70.2922C97.7547 70.2922 89.7772 74.7875 83.7257 75.7842C83.7257 75.7842 90.0818 68.3866 94.5586 64.8197L96.1652 66.1662C96.1652 66.1662 95.5035 64.5699 95.5427 63.6568C95.5427 63.6568 101.39 58.8186 105.285 57.1216L105.985 57.9627L106.145 56.0437C106.145 56.0437 114.132 51.845 118.066 50.5219C121.999 49.1988 123.759 49.4806 123.759 49.4806L123.753 49.4724Z" fill="#68923F"/>
<path d="M121.646 50.9235C121.646 50.9235 120.995 51.3714 119.867 52.1481C118.747 52.9553 117.09 54.0228 115.132 55.3222C114.154 55.983 113.119 56.7195 112.078 57.5698C111.017 58.4094 109.879 59.2778 108.606 60.0567C107.341 60.8299 105.956 61.4801 104.721 62.3666C104.122 62.8026 103.549 63.3798 102.873 63.8086C102.23 64.2509 101.574 64.6905 100.917 65.1302C98.3079 66.8775 95.6848 68.6222 93.2321 70.2618C90.7876 71.8958 88.5027 73.4441 86.4654 74.6643C85.4537 75.2757 84.4991 75.8113 83.646 76.265C82.8011 76.713 82.0581 77.1151 81.4526 77.4347C80.2277 78.0714 79.478 78.3932 79.478 78.3932C79.2437 78.4938 78.9676 78.3924 78.867 78.1582C78.7665 77.9239 78.8678 77.6478 79.1021 77.5472C79.1021 77.5472 79.1103 77.5415 79.1186 77.5359C79.1186 77.5359 79.8327 77.2507 81.0639 76.6583C82.2893 76.0576 84.0657 75.1991 86.0814 74.0181C88.111 72.8397 90.4021 71.3357 92.8774 69.729C95.3528 68.1223 97.9904 66.4162 100.628 64.7101C101.29 64.2786 101.944 63.8529 102.592 63.4189C103.255 63.0235 103.793 62.4829 104.441 62.0129C105.742 61.1171 107.139 60.4834 108.39 59.7437C109.65 58.9983 110.791 58.152 111.855 57.3346C112.916 56.495 113.973 55.7554 114.962 55.1111C116.946 53.8307 118.606 52.7854 119.737 51.9947C120.879 51.2205 121.528 50.7865 121.528 50.7865C121.56 50.7639 121.616 50.7741 121.639 50.8071C121.661 50.84 121.651 50.8957 121.618 50.9183L121.646 50.9235Z" fill="#A2CD6E"/>
<path d="M82.4011 90.1657C80.7619 101.03 69.6015 118.909 61.6027 125.701C53.5956 132.499 50.6313 131.067 50.6313 131.067C50.6313 131.067 54.4547 116.163 61.9119 105.761C69.3609 95.3657 82.4011 90.1657 82.4011 90.1657Z" fill="#4D682F"/>
<path d="M52.8532 128.81C52.8532 128.81 56.7569 117.832 63.1684 109.121C63.1684 109.121 64.1142 109.49 65.1714 109.139L64.3983 108.068C64.3983 108.068 67.1346 104.231 68.8944 103.189L69.6954 103.33C69.6954 103.33 69.2061 102.319 68.4886 102.194C68.4886 102.194 69.8528 101.036 70.8129 101.25C70.8129 101.25 70.8085 100.767 70.4721 100.525C70.4721 100.525 76.5112 93.6372 81.8876 90.6894C81.8876 90.6894 78.347 99.7789 75.3011 104.631L73.3374 103.895C73.3374 103.895 74.4882 105.178 74.7565 106.062C74.7565 106.062 70.8364 112.572 67.7365 115.458L66.7906 114.895L67.2814 116.755C67.2814 116.755 61.1412 123.373 57.8669 125.918C54.5984 128.471 52.8418 128.794 52.8418 128.794L52.8532 128.81Z" fill="#68923F"/>
<path d="M54.3588 126.73C54.3588 126.73 54.821 126.096 55.631 124.98C56.4215 123.853 57.63 122.293 59.0417 120.411C59.7488 119.463 60.4714 118.431 61.181 117.275C61.9019 116.136 62.6913 114.937 63.6312 113.78C64.571 112.623 65.6592 111.559 66.5366 110.311C66.9576 109.706 67.3018 108.971 67.8 108.337C68.2678 107.712 68.7382 107.072 69.206 106.447C71.0938 103.933 72.9816 101.42 74.7551 99.0583C76.5204 96.7021 78.1658 94.4892 79.6754 92.6611C80.4273 91.7429 81.1392 90.9252 81.8027 90.2136C82.4579 89.5077 83.0174 88.8919 83.4868 88.3746C84.4345 87.3703 85.0254 86.8179 85.0254 86.8179C85.2087 86.6432 85.5084 86.6554 85.6831 86.8386C85.8578 87.0219 85.8456 87.3216 85.6624 87.4963C85.6624 87.4963 85.6541 87.502 85.6459 87.5077C85.6459 87.5077 85.0709 88.0127 84.1006 88.984C83.1442 89.958 81.7502 91.3544 80.2483 93.1408C78.7243 94.9303 77.0645 97.1046 75.2518 99.4448C73.4473 101.779 71.5287 104.265 69.61 106.751C69.1282 107.374 68.6604 108 68.1787 108.623C67.6882 109.215 67.3599 109.903 66.8927 110.564C65.9658 111.845 64.858 112.899 63.9176 114.02C62.9773 115.141 62.1848 116.317 61.4442 117.446C60.7233 118.586 59.9678 119.64 59.2493 120.571C57.8041 122.44 56.5869 123.97 55.7768 125.086C54.9554 126.185 54.485 126.825 54.485 126.825C54.4578 126.856 54.4109 126.876 54.3743 126.84C54.3434 126.813 54.3233 126.766 54.3588 126.73Z" fill="#A2CD6E"/>
<path d="M124.63 157.945C128.552 168.211 127.627 189.267 124.003 199.118C120.379 208.969 117.09 209.181 117.09 209.181C117.09 209.181 113.089 194.32 114.459 181.601C115.83 168.882 124.63 157.945 124.63 157.945Z" fill="#4D682F"/>
<path d="M117.913 206.126C117.913 206.126 115.912 194.647 117.204 183.912C117.204 183.912 118.214 183.775 118.965 182.943L117.772 182.392C117.772 182.392 118.263 177.708 119.288 175.935L120.055 175.674C120.055 175.674 119.131 175.035 118.452 175.284C118.452 175.284 119.071 173.608 120.015 173.322C120.015 173.322 119.776 172.904 119.367 172.857C119.367 172.857 121.24 163.884 124.472 158.685C124.472 158.685 125.852 168.345 125.596 174.058L123.523 174.38C123.523 174.38 125.162 174.927 125.821 175.566C125.821 175.566 125.606 183.156 124.326 187.205L123.23 187.182L124.571 188.566C124.571 188.566 122.476 197.34 120.885 201.166C119.294 204.993 117.924 206.142 117.924 206.142L117.913 206.126Z" fill="#68923F"/>
<path d="M118.198 203.575C118.198 203.575 118.288 202.736 118.457 201.272C118.599 199.803 118.926 197.72 119.23 195.216C119.389 193.966 119.452 192.611 119.525 191.165C119.612 189.721 119.767 188.182 120.118 186.629C120.456 185.074 120.821 183.523 120.777 181.854C120.924 180.163 121.169 178.525 121.385 176.847C121.821 173.512 122.252 170.169 122.663 167.045C123.069 163.913 123.502 160.98 124.09 158.5C125.221 153.582 125.971 150.297 125.971 150.297C126.031 150.05 126.275 149.893 126.531 149.948C126.787 150.002 126.935 150.253 126.881 150.509C126.881 150.509 126.069 153.774 124.861 158.685C124.253 161.119 123.777 164.008 123.33 167.132C122.883 170.256 122.397 173.589 121.911 176.922C121.683 178.584 121.408 180.267 121.241 181.875C121.271 183.542 120.857 185.198 120.513 186.71C120.153 188.232 119.976 189.738 119.867 191.185C119.774 192.62 119.692 194 119.511 195.254C119.163 197.764 118.816 199.835 118.655 201.294C118.471 202.756 118.367 203.592 118.367 203.592C118.359 203.634 118.324 203.671 118.276 203.655C118.235 203.647 118.198 203.611 118.214 203.564L118.198 203.575Z" fill="#A2CD6E"/>
<path d="M135.624 154.648C143.813 161.978 163.81 168.632 174.306 168.765C184.801 168.898 186.174 165.902 186.174 165.902C186.174 165.902 173.722 156.858 161.352 153.596C148.982 150.334 135.624 154.648 135.624 154.648Z" fill="#4D682F"/>
<path d="M183.026 165.58C183.026 165.58 173.018 159.612 162.53 156.985C162.53 156.985 162.041 157.88 160.99 158.275L160.902 156.965C160.902 156.965 156.351 155.751 154.328 156.075L153.811 156.698C153.811 156.698 153.545 155.606 154.019 155.061C154.019 155.061 152.233 155.041 151.629 155.821C151.629 155.821 151.323 155.448 151.426 155.05C151.426 155.05 142.375 153.594 136.365 154.757C136.365 154.757 144.895 159.496 150.323 161.296L151.364 159.475C151.364 159.475 151.289 161.201 151.651 162.045C151.651 162.045 158.817 164.554 163.057 164.805L163.427 163.773L164.24 165.52C164.24 165.52 173.184 166.696 177.326 166.577C181.469 166.457 183.031 165.588 183.031 165.588L183.026 165.58Z" fill="#68923F"/>
<path d="M180.508 165.092C180.508 165.092 179.69 164.891 178.259 164.54C176.833 164.162 174.78 163.754 172.311 163.183C171.076 162.905 169.757 162.489 168.384 162.062C167.001 161.642 165.531 161.27 163.972 161.068C162.43 160.855 160.743 160.644 159.197 160.021C157.635 159.603 155.96 159.251 154.331 158.878C151.045 158.142 147.766 157.4 144.68 156.708C141.602 156.01 138.733 155.423 136.243 155.121C131.23 154.505 127.884 154.089 127.884 154.089C127.631 154.056 127.451 153.829 127.477 153.568C127.509 153.315 127.737 153.134 127.998 153.16C127.998 153.16 131.328 153.624 136.331 154.332C138.858 154.669 141.752 155.312 144.823 156.051C147.893 156.791 151.164 157.574 154.435 158.358C156.072 158.761 157.702 159.12 159.329 159.578C160.864 160.221 162.451 160.428 164.025 160.668C165.593 160.9 167.094 161.299 168.473 161.734C169.85 162.182 171.138 162.607 172.363 162.905C174.804 163.507 176.872 163.953 178.295 164.345C179.723 164.71 180.539 164.925 180.539 164.925C180.581 164.933 180.609 164.974 180.602 165.016C180.594 165.057 180.553 165.086 180.511 165.078L180.508 165.092Z" fill="#A2CD6E"/>
<path d="M108.096 138.893C109.5 149.787 103.668 170.045 97.8222 178.766C91.9823 187.496 88.7425 186.934 88.7425 186.934C88.7425 186.934 88.3398 171.551 92.6632 159.507C96.9866 147.463 108.096 138.893 108.096 138.893Z" fill="#4D682F"/>
<path d="M90.2612 184.151C90.2612 184.151 91.0126 172.526 94.7818 162.393C94.7818 162.393 95.7847 162.492 96.7211 161.859L95.6855 161.043C95.6855 161.043 97.2674 156.603 98.6711 155.115L99.477 155.034C99.477 155.034 98.7324 154.199 98.0067 154.273C98.0067 154.273 98.9999 152.789 99.981 152.733C99.981 152.733 99.8438 152.269 99.459 152.133C99.459 152.133 103.389 143.856 107.744 139.547C107.744 139.547 106.828 149.258 105.237 154.76L103.148 154.583C103.148 154.583 104.604 155.499 105.107 156.282C105.107 156.282 103.121 163.609 100.926 167.245L99.8702 166.964L100.852 168.619C100.852 168.619 96.7573 176.657 94.3133 180.003C91.8692 183.348 90.2638 184.137 90.2638 184.137L90.2612 184.151Z" fill="#68923F"/>
<path d="M91.1428 181.747C91.1428 181.747 91.4442 180.933 91.9584 179.51C92.4531 178.077 93.2915 176.068 94.1931 173.638C94.6549 172.422 95.0122 171.072 95.4626 169.645C95.8991 168.215 96.4761 166.726 97.2036 165.278C97.5617 164.546 97.9141 163.806 98.2078 163.033C98.5267 162.279 98.6364 161.451 98.9429 160.609C99.5462 159.016 100.169 157.398 100.785 155.772C102.03 152.536 103.274 149.3 104.439 146.265C105.021 144.747 105.615 143.282 106.219 141.919C106.839 140.545 107.392 139.267 108.107 138.119C108.931 136.97 109.818 136.177 110.614 135.447C111.413 134.739 112.14 134.154 112.738 133.682C113.947 132.74 114.663 132.247 114.663 132.247C114.878 132.099 115.164 132.145 115.311 132.359C115.459 132.573 115.413 132.86 115.199 133.007L115.191 133.013C115.191 133.013 114.482 133.5 113.281 134.4C112.68 134.85 111.964 135.416 111.176 136.104C110.404 136.781 109.498 137.599 108.796 138.555C108.129 139.597 107.527 140.91 106.909 142.234C106.294 143.58 105.688 145.028 105.081 146.527C103.877 149.54 102.585 152.761 101.301 155.975C100.659 157.582 100.023 159.198 99.3921 160.785C99.0954 161.536 98.9558 162.409 98.6152 163.202C98.2968 163.991 97.9223 164.735 97.5642 165.467C96.8172 166.904 96.2339 168.349 95.7778 169.768C95.3243 171.172 94.9341 172.546 94.4527 173.751C93.5151 176.181 92.6458 178.163 92.1372 179.594C91.5951 181.011 91.2937 181.825 91.2937 181.825C91.2778 181.873 91.2309 181.893 91.1918 181.871C91.1526 181.85 91.1299 181.817 91.1459 181.769L91.1428 181.747Z" fill="#A2CD6E"/>
<path d="M119.887 123.648C129.561 128.85 150.566 130.636 160.8 128.29C171.039 125.953 171.671 122.726 171.671 122.726C171.671 122.726 157.446 116.856 144.652 116.594C131.858 116.331 119.887 123.648 119.887 123.648Z" fill="#4D682F"/>
<path d="M168.526 123.152C168.526 123.152 157.399 119.703 146.588 119.605C146.588 119.605 146.322 120.577 145.397 121.226L145.004 119.967C145.004 119.967 140.292 119.859 138.401 120.639L138.037 121.363C138.037 121.363 137.523 120.369 137.852 119.718C137.852 119.718 136.11 120.115 135.708 121.012C135.708 121.012 135.323 120.718 135.334 120.31C135.334 120.31 126.199 121.025 120.62 123.554C120.62 123.554 130.017 126.167 135.725 126.645L136.305 124.631C136.305 124.631 136.641 126.318 137.193 127.067C137.193 127.067 144.746 127.829 148.926 127.076L149.04 125.99L150.236 127.498C150.236 127.498 159.206 126.544 163.204 125.456C167.201 124.367 168.512 123.15 168.512 123.15L168.526 123.152Z" fill="#68923F"/>
<path d="M165.961 123.268C165.961 123.268 165.099 123.267 163.576 123.259C162.058 123.223 159.904 123.322 157.292 123.336C155.988 123.347 154.572 123.229 153.098 123.151C151.615 123.079 150.059 123.093 148.442 123.284C147.636 123.365 146.808 123.449 145.951 123.457C145.095 123.5 144.232 123.305 143.417 123.319C141.708 123.342 139.978 123.368 138.242 123.385C134.781 123.436 131.312 123.493 128.067 123.541C126.45 123.574 124.881 123.622 123.404 123.716C121.938 123.826 120.506 123.914 119.294 124.165C118.151 124.479 117.063 125.033 116.155 125.512C115.236 126.011 114.452 126.478 113.812 126.87C112.537 127.663 111.834 128.159 111.834 128.159C111.62 128.306 111.333 128.261 111.186 128.046C111.038 127.832 111.084 127.546 111.298 127.398L111.307 127.393C111.307 127.393 112.031 126.894 113.335 126.106C113.989 125.717 114.795 125.247 115.742 124.753C116.702 124.262 117.751 123.722 119.133 123.366C120.466 123.116 121.852 123.048 123.357 122.959C124.851 122.89 126.431 122.858 128.051 122.848C131.302 122.844 134.769 122.837 138.236 122.83C139.97 122.827 141.701 122.837 143.412 122.837C144.317 122.846 145.116 123.036 145.939 123.016C146.766 123.017 147.577 122.944 148.395 122.879C150.021 122.719 151.61 122.718 153.095 122.813C154.595 122.91 155.984 123.058 157.279 123.053C159.87 123.078 162.047 123.013 163.562 123.062C165.074 123.09 165.942 123.099 165.942 123.099C165.992 123.101 166.021 123.143 166.021 123.179C166.019 123.229 165.986 123.251 165.942 123.257L165.961 123.268Z" fill="#A2CD6E"/>
<path d="M59.9926 58.4229C47.132 59.6509 25.9998 71.9135 17.9981 81.1357C9.9907 90.3497 11.6958 94.0441 11.6958 94.0441C11.6958 94.0441 29.331 90.4404 41.6126 82.145C53.8941 73.8496 59.9926 58.4229 59.9926 58.4229Z" fill="#4D682F"/>
<path d="M14.3513 91.5134C14.3513 91.5134 27.335 87.5542 37.6225 80.4007C37.6225 80.4007 37.1754 79.2395 37.5893 77.9713L38.8552 78.9816C38.8552 78.9816 43.3786 75.9411 44.6157 73.8757L44.4375 72.8936C44.4375 72.8936 45.6316 73.5527 45.7779 74.4354C45.7779 74.4354 47.147 72.8618 46.8827 71.6841C46.8827 71.6841 47.4575 71.7255 47.7409 72.1374C47.7409 72.1374 55.8696 65.3043 59.3349 58.998C59.3349 58.998 48.5852 62.6579 42.8485 65.9993L43.7305 68.4272C43.7305 68.4272 42.2078 66.938 41.1565 66.557C41.1565 66.557 33.4673 70.8538 30.0639 74.4103L30.7304 75.5904L28.5201 74.8659C28.5201 74.8659 20.7181 81.8384 17.7118 85.6192C14.7055 89.4001 14.3317 91.5026 14.3317 91.5026L14.3513 91.5134Z" fill="#68923F"/>
<path d="M16.6959 89.6895C16.6959 89.6895 17.4537 89.1679 18.7686 88.2386C19.4358 87.7793 20.2292 87.2212 21.1291 86.5532C22.029 85.8852 23.0525 85.1323 24.1666 84.3169C25.2863 83.5098 26.5415 82.6701 27.9054 81.8649C29.2579 81.0433 30.6537 80.1433 31.9829 79.0584C33.3178 77.9818 34.5691 76.6956 36.1214 75.6879C36.9297 75.2044 37.7036 74.8296 38.43 74.2447C39.1765 73.7066 39.923 73.1685 40.6556 72.6278C43.6303 70.459 46.5993 68.282 49.3845 66.2436C52.1697 64.2052 54.7685 62.3193 56.8952 60.5763C57.9557 59.7007 58.906 58.8767 59.7157 58.113C60.528 57.3354 61.2672 56.6809 61.8752 56.1532C63.0994 55.0921 63.8314 54.5154 63.8314 54.5154C64.0343 54.3515 64.3232 54.3833 64.4871 54.5861C64.651 54.789 64.6192 55.0779 64.4164 55.2418L64.4081 55.2475C64.4081 55.2475 63.6812 55.7964 62.4508 56.8132C61.8315 57.3244 61.0974 57.9511 60.2681 58.704C59.4306 59.4625 58.4638 60.2979 57.3838 61.1627C55.2154 62.8979 52.583 64.7704 49.7777 66.762C46.9698 68.7674 43.9725 70.9033 40.9751 73.0392C40.223 73.569 39.4708 74.0989 38.7186 74.6287C38.003 75.1941 37.119 75.6205 36.3765 76.0586C34.8706 77.0102 33.5966 78.2634 32.2313 79.3488C30.866 80.4342 29.4368 81.3207 28.0868 82.1285C26.7116 82.9172 25.4698 83.7234 24.3444 84.5223C23.2246 85.3294 22.198 86.0603 21.2925 86.72C20.3812 87.3715 19.5739 87.9271 18.901 88.3781C17.5748 89.2909 16.817 89.8125 16.817 89.8125C16.784 89.8352 16.7284 89.8249 16.7057 89.792C16.683 89.759 16.6933 89.7034 16.7263 89.6807L16.6959 89.6895Z" fill="#A2CD6E"/>
<path d="M91.8401 87.2553C98.7264 76.3243 119.194 62.9897 131.029 59.9906C142.865 56.9915 145.392 60.1689 145.392 60.1689C145.392 60.1689 134.234 74.2947 121.293 81.5264C108.353 88.7581 91.8401 87.2553 91.8401 87.2553Z" fill="#4D682F"/>
<path d="M141.932 61.4068C141.932 61.4068 132.549 71.2154 121.526 77.1759C121.526 77.1759 120.683 76.2509 119.368 76.0512L119.694 77.6358C119.694 77.6358 114.937 80.3026 112.546 80.4795L111.758 79.8809C111.758 79.8809 111.814 81.2503 112.529 81.7779C112.529 81.7779 110.515 82.2903 109.577 81.5276C109.577 81.5276 109.357 82.0551 109.591 82.501C109.591 82.501 99.8313 86.6815 92.6371 86.9351C92.6371 86.9351 100.749 78.9844 106.313 75.3737L108.08 77.2531C108.08 77.2531 107.434 75.2212 107.567 74.1097C107.567 74.1097 114.856 69.178 119.572 67.7407L120.327 68.8723L120.678 66.5787C120.678 66.5787 130.416 62.7536 135.142 61.771C139.868 60.7884 141.918 61.4042 141.918 61.4042L141.932 61.4068Z" fill="#68923F"/>
<path d="M139.328 62.8249C139.328 62.8249 138.519 63.2724 137.111 64.0477C136.406 64.4354 135.548 64.9169 134.554 65.4309C133.56 65.9449 132.438 66.5357 131.213 67.1724C129.993 67.8174 128.712 68.5659 127.393 69.437C126.058 70.2833 124.623 71.1617 123.042 71.898C121.469 72.6286 119.76 73.1976 118.24 74.1105C117.514 74.5734 116.735 75.1702 115.909 75.5569C115.103 75.9905 114.282 76.4215 113.476 76.8551C110.226 78.5703 106.961 80.2829 103.903 81.8899C100.859 83.4994 97.9998 85.0064 95.4789 86.1588C94.2143 86.7379 93.0454 87.2267 91.9862 87.628C90.9409 88.0318 90.0532 88.4 89.3174 88.7244C87.8541 89.3674 87.039 89.7705 87.039 89.7705C86.8104 89.8793 86.5317 89.7919 86.4172 89.5551C86.3085 89.3265 86.3959 89.0478 86.6327 88.9333L86.641 88.9277C86.641 88.9277 87.4895 88.5379 88.9838 87.9221C89.7309 87.6142 90.6521 87.2594 91.7087 86.8721C92.7571 86.4904 93.9152 86.0211 95.169 85.4616C97.6822 84.3509 100.542 82.88 103.615 81.3117C106.687 79.7434 109.966 78.0693 113.245 76.3953C114.062 75.9782 114.874 75.5529 115.692 75.1358C116.532 74.7516 117.212 74.2228 118.015 73.7311C119.618 72.7975 121.33 72.2507 122.89 71.5535C124.449 70.8564 125.879 70.0058 127.226 69.1759C128.556 68.3213 129.865 67.578 131.096 66.9495C132.332 66.3292 133.452 65.7523 134.457 65.2548C135.457 64.749 136.312 64.2814 137.022 63.902C138.442 63.1431 139.249 62.7096 139.249 62.7096C139.282 62.6869 139.337 62.6972 139.357 62.744C139.38 62.777 139.364 62.8243 139.323 62.8527L139.328 62.8249Z" fill="#A2CD6E"/>
<path d="M100.678 101.448C111.094 93.7932 135.012 88.8759 147.131 90.416C159.242 91.9619 160.432 95.8415 160.432 95.8415C160.432 95.8415 144.88 104.906 130.189 106.897C115.498 108.887 100.678 101.448 100.678 101.448Z" fill="#4D682F"/>
<path d="M156.752 95.7378C156.752 95.7378 144.426 101.429 131.986 102.951C131.986 102.951 131.547 101.784 130.389 101.124L130.116 102.72C130.116 102.72 124.715 103.463 122.416 102.751L121.896 101.907C121.896 101.907 121.441 103.204 121.921 103.954C121.921 103.954 119.856 103.688 119.267 102.637C119.267 102.637 118.868 103.045 118.925 103.552C118.925 103.552 108.303 103.87 101.533 101.477C101.533 101.477 111.986 97.0503 118.487 95.7196L119.446 98.1186C119.446 98.1186 119.587 95.9945 120.122 95.0075C120.122 95.0075 128.717 93.0855 133.621 93.4732L133.907 94.806L135.076 92.7998C135.076 92.7998 145.544 92.8056 150.305 93.6199C155.066 94.4342 156.741 95.7574 156.741 95.7574L156.752 95.7378Z" fill="#68923F"/>
<path d="M153.81 96.092C153.81 96.092 152.896 96.211 151.304 96.4204C150.501 96.5238 149.535 96.6547 148.413 96.7711C147.297 96.8958 146.037 97.0227 144.666 97.165C143.293 97.3213 141.829 97.54 140.278 97.8792C138.726 98.1823 137.069 98.4731 135.331 98.5765C133.594 98.68 131.806 98.5872 130.054 98.8822C129.211 99.05 128.269 99.3219 127.352 99.3827C126.441 99.4877 125.53 99.5928 124.61 99.7035C120.955 100.107 117.3 100.511 113.866 100.883C110.437 101.264 107.228 101.628 104.462 101.772C103.081 101.848 101.798 101.869 100.671 101.856C99.5505 101.85 98.5827 101.873 97.787 101.898C96.1874 101.955 95.2815 102.033 95.2815 102.033C95.0266 102.05 94.8019 101.865 94.7843 101.61C94.7666 101.355 94.9519 101.13 95.2068 101.113L95.2151 101.107C95.2151 101.107 96.1462 101.049 97.7603 101.031C98.5673 101.021 99.5603 101.018 100.682 101.059C101.791 101.085 103.051 101.08 104.428 101.018C107.167 100.905 110.369 100.583 113.803 100.246C117.238 99.9098 120.9 99.5504 124.561 99.191C125.478 99.0942 126.386 99.0031 127.303 98.9063C128.226 98.8538 129.055 98.6113 129.984 98.445C131.813 98.1571 133.61 98.2803 135.323 98.1939C137.033 98.1214 138.68 97.8501 140.229 97.5609C141.775 97.2495 143.272 97.0442 144.643 96.9019C146.02 96.7677 147.277 96.6548 148.396 96.5523C149.515 96.4497 150.479 96.3328 151.282 96.2293C152.877 96.042 153.796 95.9313 153.796 95.9313C153.84 95.9251 153.877 95.9606 153.883 96.0049C153.889 96.0492 153.854 96.0858 153.81 96.092Z" fill="#A2CD6E"/>
<path d="M96.4027 111.768C85.5332 118.764 72.3992 139.349 69.51 151.219C66.6208 163.09 69.8282 165.58 69.8282 165.58C69.8282 165.58 83.8489 154.291 90.954 141.279C98.0591 128.267 96.4027 111.768 96.4027 111.768Z" fill="#4D682F"/>
<path d="M71.0327 162.106C71.0327 162.106 80.7503 152.626 86.6137 141.549C86.6137 141.549 85.6805 140.722 85.4779 139.405L87.0664 139.72C87.0664 139.72 89.689 134.94 89.8448 132.539L89.2423 131.752C89.2423 131.752 90.6159 131.79 91.1452 132.506C91.1452 132.506 91.6339 130.482 90.863 129.556C90.863 129.556 91.3866 129.329 91.8395 129.563C91.8395 129.563 95.9297 119.756 96.1118 112.577C96.1118 112.577 88.2445 120.76 84.6799 126.358L86.5782 128.11C86.5782 128.11 84.544 127.483 83.4311 127.63C83.4311 127.63 78.5665 134.972 77.1774 139.692L78.3201 140.435L76.029 140.81C76.029 140.81 72.2961 150.59 71.3567 155.328C70.4172 160.065 71.0549 162.103 71.0549 162.103L71.0327 162.106Z" fill="#68923F"/>
<path d="M72.2806 159.411C72.2806 159.411 72.7041 158.598 73.4568 157.169C73.8262 156.454 74.2877 155.59 74.7888 154.589C75.2843 153.581 75.8445 152.455 76.4557 151.208C77.0783 149.979 77.8048 148.653 78.6477 147.32C79.4653 145.968 80.2984 144.533 80.9908 142.964C81.6749 141.4 82.2096 139.673 83.1317 138.067C83.6247 137.266 84.1414 136.571 84.52 135.728C84.9296 134.911 85.3473 134.09 85.7651 133.268C87.4083 129.976 89.0516 126.684 90.5924 123.596C92.1333 120.509 93.5774 117.633 94.6607 115.115C95.2024 113.856 95.6622 112.69 96.0376 111.63C96.4073 110.562 96.7571 109.642 97.0539 108.891C97.6556 107.384 98.0342 106.541 98.0342 106.541C98.1418 106.309 98.4147 106.194 98.6465 106.302C98.8783 106.409 98.9933 106.682 98.8858 106.914C98.8858 106.914 98.8858 106.914 98.8775 106.92C98.8775 106.92 98.4819 107.738 97.8575 109.212C97.5411 109.952 97.1744 110.848 96.7876 111.891C96.3983 112.948 95.9138 114.131 95.3557 115.401C94.2255 117.94 92.7396 120.807 91.1679 123.868C89.5878 126.934 87.9111 130.213 86.2287 133.483C85.8053 134.297 85.3736 135.116 84.9502 135.929C84.5659 136.764 83.9838 137.541 83.5176 138.275C82.6166 139.805 82.0566 141.514 81.3478 143.095C80.6307 144.681 79.7672 146.125 78.93 147.466C78.0732 148.796 77.3322 150.083 76.6958 151.31C76.0733 152.54 75.4991 153.663 74.9897 154.67C74.4804 155.676 74.0132 156.531 73.6299 157.244C72.8658 158.656 72.4285 159.467 72.4285 159.467C72.4069 159.507 72.3544 159.518 72.3209 159.505C72.2817 159.483 72.2698 159.431 72.2832 159.397L72.2806 159.411Z" fill="#A2CD6E"/>
<path d="M134.158 163.091C133.872 176.01 143.582 198.425 151.802 207.457C160.021 216.489 163.878 215.231 163.878 215.231C163.878 215.231 162.364 197.298 155.556 184.127C148.748 170.955 134.15 163.097 134.15 163.097L134.158 163.091Z" fill="#4D682F"/>
<path d="M161.68 212.287C161.68 212.287 159.263 198.933 153.366 187.879C153.366 187.879 152.159 188.188 150.946 187.626L152.092 186.486C152.092 186.486 149.601 181.632 147.693 180.165L146.704 180.227C146.704 180.227 147.506 179.117 148.393 179.065C148.393 179.065 146.994 177.527 145.792 177.65C145.792 177.65 145.903 177.088 146.343 176.846C146.343 176.846 140.503 167.973 134.652 163.793C134.652 163.793 137.025 174.895 139.675 180.986L142.188 180.386C142.188 180.386 140.532 181.719 140.031 182.72C140.031 182.72 143.397 190.856 146.535 194.656L147.789 194.133L146.816 196.247C146.816 196.247 152.835 204.815 156.236 208.24C159.638 211.665 161.689 212.281 161.689 212.281L161.68 212.287Z" fill="#68923F"/>
<path d="M160.145 209.738C160.145 209.738 159.717 208.94 158.975 207.545C158.601 206.843 158.153 205.998 157.612 205.035C157.071 204.072 156.458 202.989 155.792 201.809C155.133 200.623 154.448 199.31 153.842 197.882C153.197 196.469 152.492 194.987 151.6 193.549C150.722 192.114 149.617 190.738 148.761 189.142C148.319 188.341 148.084 187.471 147.629 186.704C147.193 185.912 146.749 185.125 146.313 184.333C144.521 181.183 142.735 178.042 141.058 175.093C139.372 172.15 137.833 169.385 136.385 167.105C135.661 165.964 134.974 164.931 134.34 164.045C133.727 163.155 133.067 162.408 132.608 161.741C132.108 161.102 131.753 160.569 131.49 160.204C131.234 159.833 131.093 159.627 131.09 159.605C130.914 159.192 131.115 158.725 131.529 158.55C131.942 158.375 132.409 158.576 132.584 158.989C132.573 158.973 132.606 159.18 132.745 159.558C132.867 159.948 133.117 160.504 133.463 161.201C133.847 161.883 134.325 162.683 134.985 163.589C135.614 164.503 136.29 165.555 136.995 166.721C138.405 169.052 139.909 171.854 141.531 174.828C143.159 177.811 144.887 180.992 146.624 184.167C147.051 184.965 147.488 185.758 147.915 186.556C148.371 187.359 148.612 188.237 149.023 189.011C149.833 190.577 150.922 191.964 151.795 193.427C152.677 194.884 153.37 196.386 153.999 197.81C154.605 199.238 155.285 200.543 155.943 201.729C156.61 202.909 157.214 203.998 157.755 204.961C158.296 205.924 158.736 206.774 159.11 207.476C159.852 208.872 160.28 209.67 160.28 209.67C160.302 209.703 160.292 209.758 160.245 209.778C160.212 209.801 160.165 209.785 160.136 209.744L160.145 209.738Z" fill="#A2CD6E"/>
</svg>
