<svg width="239" height="235" viewBox="0 0 239 235" fill="none" xmlns="http://www.w3.org/2000/svg">
<path d="M136.2 45.939C95.6116 42.16 85.8518 48.4244 74.955 47.3376C71.2495 57.6424 61.4031 63.7548 47.3507 102.027C32.6671 142.022 51.7463 196.888 82.801 206.976C113.862 217.061 131.631 209.169 144.604 198.753C157.028 188.778 146.946 176.929 153.274 171.403C160.982 168.078 167.345 182.265 181.694 175.34C196.677 168.108 211.444 155.461 215.699 123.082C219.955 90.7027 178.629 49.8807 136.2 45.939Z" fill="#68923F"/>
<path d="M74.9764 47.3377C75.1258 47.6191 79.4952 56.1329 79.7446 60.2777C79.9942 64.4974 80.6541 66.495 82.1893 67.677C83.7287 68.8657 86.4636 71.3381 84.4262 72.8872C82.3889 74.4363 82.8133 79.8703 85.6936 80.2219C88.5806 80.5693 90.7894 83.8153 88.7475 84.9258C86.7057 86.0363 85.575 88.8729 87.8475 92.0412C90.1132 95.2137 88.172 96.6176 82.23 99.3917C76.288 102.166 77.9088 106.281 81.4756 108.003C85.0466 109.731 82.004 109.256 81.6502 112.758C81.2963 116.26 87.6528 112.595 87.0795 115.615C86.5062 118.635 74.51 123.024 78.5223 127.564C82.5387 132.111 95.5875 124.748 94.5128 128.789C93.438 132.83 73.1534 137.407 80.2294 144.137C87.3053 150.867 100.345 137.046 102.732 139.428C105.119 141.81 95.6055 145.787 94.2755 149.989C92.9456 154.192 98.1631 154.139 100.209 154.181C102.255 154.223 107.501 151.194 109.825 152.911C112.149 154.628 109.664 164.426 105.148 165.68C100.636 166.94 102.427 174.123 103.886 175.823C105.348 177.53 105.961 177.19 112.082 172.884C118.21 168.575 124.564 170.932 121.799 175.242C119.034 179.552 120.117 183.649 122.268 182.489C124.42 181.328 124.765 178.677 130.211 179.044C135.662 179.406 133.132 186.752 131.5 188.929C129.868 191.105 131.362 191.224 133.533 189.768C135.705 188.313 140.026 186.468 141.86 188.673C143.693 190.879 140.651 193.767 145.693 194.745C146.785 194.958 148.012 194.371 149.265 193.336C153.956 184.785 148.047 175.947 153.258 171.389C153.258 171.389 153.272 171.381 153.278 171.376L74.9679 47.3243L74.9764 47.3377Z" fill="#60843A"/>
<path d="M74.985 47.3377C75.1748 47.5936 80.9816 55.2 84.6162 57.2078C88.3183 59.2481 89.8379 60.703 90.2447 62.5973C90.6557 64.4983 91.7114 68.0307 93.9862 66.8577C96.2543 65.689 100.984 68.405 100.063 71.1565C99.1347 73.9123 101.115 77.3025 102.996 75.9367C104.877 74.571 107.924 74.7703 109.807 78.1845C111.696 81.5944 113.798 80.4458 118.859 76.2746C123.919 72.1034 126.936 75.3365 126.957 79.2971C126.981 83.2644 127.861 80.3135 131.175 81.5001C134.484 82.68 128.446 86.8489 131.419 87.6303C134.392 88.4118 143.513 79.4693 145.887 85.0444C148.264 90.6261 136.004 99.2391 140.115 100.007C144.226 100.775 157.082 84.4308 160.114 93.7134C163.146 102.996 145.061 108.824 146.185 112.003C147.309 115.183 154.99 108.304 159.356 108.911C163.722 109.518 161.43 114.206 160.588 116.071C159.746 117.936 154.755 121.369 155.306 124.205C155.857 127.042 165.771 129.012 168.845 125.475C171.923 121.944 177.637 126.65 178.545 128.698C179.457 130.753 178.887 131.159 172.367 134.834C165.84 138.512 165.236 145.263 170.316 144.62C175.396 143.977 178.629 146.718 176.656 148.161C174.683 149.603 172.141 148.775 170.13 153.849C168.113 158.927 175.833 159.802 178.5 159.265C181.166 158.727 180.631 160.127 178.383 161.461C176.128 162.8 172.611 165.903 173.813 168.507C175.016 171.111 178.932 169.607 177.646 174.579C177.368 175.657 176.311 176.512 174.838 177.198C165.101 177.755 159.663 168.62 153.307 171.364C153.307 171.364 153.294 171.372 153.287 171.376L74.9766 47.3242L74.985 47.3377Z" fill="#60843A"/>
<path d="M150.607 130.411C144.441 132.058 139.554 130.907 139.554 130.907L146.496 127.323L139.743 128.543C139.743 128.543 153.104 120.023 157.032 117.629C157.032 117.629 142.792 118.285 136.467 120.437C130.142 122.589 133.958 117.221 136.602 115.711C136.602 115.711 132.435 116.341 132.151 114.999C131.867 113.656 145.891 106.767 154.113 98.8992C154.113 98.8992 146.123 101.613 139.324 104.666C132.524 107.718 126.043 106.841 126.043 106.841C126.043 106.841 137.224 94.4941 140.533 89.2017C140.533 89.2017 130.378 92.6532 125.409 95.3017C120.437 97.9611 116.98 95.6536 116.98 95.6536C116.98 95.6536 119.457 93.6108 124.237 93.0731C124.237 93.0731 121.403 91.4996 118.082 92.7127C118.082 92.7127 122.996 87.685 126.316 80.3853C126.316 80.3853 117.271 84.3294 113.504 87.1114C109.737 89.8934 108.781 87.3684 110.727 84.6181C110.727 84.6181 108.996 86.1903 106.959 85.8795C104.921 85.5687 111.345 76.4599 111.345 76.4599C111.345 76.4599 103.427 83.4688 100.523 81.563C97.6199 79.6571 98.2708 74.2302 98.2708 74.2302C98.2708 74.2302 89.0442 71.206 88.7984 65.4151L82.3844 59.0938L85.3326 67.603C90.4523 70.3266 89.2166 79.9458 89.2166 79.9458C89.2166 79.9458 94.4026 81.6882 94.8677 85.1331C95.3328 88.5781 85.6063 92.708 85.6063 92.708C85.6063 92.708 96.5882 90.8197 95.9967 92.7993C95.4053 94.779 93.2369 95.6593 93.2369 95.6593C96.5568 95.0853 98.4213 97.027 94.2937 99.2381C90.1619 101.442 82.7109 107.912 82.7109 107.912C90.7288 108.054 97.3812 105.781 97.3812 105.781C94.858 108.256 95.0595 111.492 95.0595 111.492C97.6074 107.404 100.51 106.05 100.51 106.05C100.51 106.05 101.102 110.157 96.5673 113.509C92.028 116.853 84.5555 124.539 84.5555 124.539C90.7568 123.827 106.712 119.044 106.712 119.044C106.712 119.044 104.717 125.272 99.0364 130.098C93.3562 134.924 87.4693 140.969 87.4693 140.969C98.1081 136.931 110.36 127.233 111.45 128.067C112.54 128.901 110.179 132.392 110.179 132.392C112.686 130.65 119.173 129.513 114.503 134.302C109.84 139.087 103.123 151.66 103.123 151.66C106.98 149.14 120.412 140.746 120.412 140.746L116.405 146.318L122.627 141.592C122.627 141.592 121.568 146.506 117.426 151.357C113.287 156.215 111.094 169.257 111.094 169.257C117.879 164.485 125.909 156.804 125.909 156.804C125.297 159.511 123.762 162.406 123.762 162.406C128.24 159.099 132.348 151.782 132.348 151.782C132.348 151.782 131.246 157.521 131.762 161.122C132.272 164.727 129.411 172.694 129.411 172.694C129.411 172.694 136.699 165.773 136.777 167.162C136.855 168.55 135.209 171.27 135.209 171.27L138.925 167.647C138.925 167.647 140.545 170.466 138.083 175.064C135.622 179.661 136.195 183.441 136.195 183.441C139.971 180.316 145.178 172.107 145.178 172.107C145.178 172.107 143.887 174.124 143.145 178.275C142.402 182.426 144.016 186.217 144.016 186.217C144.016 186.217 149.225 179.931 151.217 183.324C151.034 178.452 150.119 174.145 153.264 171.389C157.1 169.728 160.603 172.42 164.93 174.677L164.937 174.673C162.726 171.409 170.641 169.409 170.641 169.409C170.641 169.409 167.912 166.322 163.846 165.207C159.779 164.092 157.403 164.39 157.403 164.39C157.403 164.39 167.053 163.22 171.499 161.155C171.499 161.155 168.339 159.007 163.124 159.256C157.914 159.501 156.066 156.826 156.066 156.826L160.935 155.03C160.935 155.03 157.771 155.346 156.551 154.679C155.332 154.011 164.715 150.409 164.715 150.409C164.715 150.409 156.291 149.564 153.256 147.554C150.221 145.543 144.572 144.065 144.572 144.065C144.572 144.065 152.945 143.504 157.856 140.883C157.856 140.883 154.582 141.024 151.876 140.412C151.876 140.412 162.259 136.46 169.489 132.393C169.489 132.393 156.768 128.757 150.607 130.411Z" fill="#739E46"/>
<path d="M82.7992 206.965C113.861 217.049 131.63 209.157 144.602 198.742C150.343 194.131 151.275 189.119 151.244 184.517C144.602 198.742 134.007 198.489 134.007 198.489C134.007 198.489 129.342 202.542 126.769 201.235C124.197 199.928 127.141 194.012 127.141 194.012C127.141 194.012 120.068 198.223 115.23 197.285C115.23 197.285 123.136 191.73 124.433 187.549C124.433 187.549 119.077 191.118 116.388 191.5C113.703 191.89 119.053 186.512 120.14 184.2C120.14 184.2 101.203 197.921 90.0432 198.456C90.0432 198.456 98.0301 195.424 102.742 186.297C102.742 186.297 97.0616 188.831 91.6224 189.202C91.6224 189.202 97.2808 185.339 100.857 178.281C100.857 178.281 87.4187 185.891 75.604 183.082C75.604 183.082 78.5436 182.203 83.3231 176.293C83.3231 176.293 74.0045 178.822 65.8067 174.839C65.8067 174.839 71.3126 173.561 80.5882 165.413C80.5882 165.413 69.007 166.769 60.799 162.754C60.799 162.754 63.4342 159.325 67.5764 157.583C67.5764 157.583 66.531 155.585 60.5774 156.525C60.5774 156.525 61.0606 153.139 71.291 147.977C71.291 147.977 58.9219 147.698 52.4184 143.199C52.4184 143.199 53.4606 141.085 58.8319 137.422C58.8319 137.422 55.5945 136.103 53.8259 133.941C53.8259 133.941 57.1045 131.129 63.9047 128.584C63.9047 128.584 55.0807 129.129 51.1436 126.701L57.3022 124.345C57.3022 124.345 52.5338 123.532 48.6645 121.39C48.6645 121.39 50.605 121.696 53.2241 120.146C53.2241 120.146 51.1456 119.279 49.264 117.846C49.264 117.846 56.5348 117.906 66.6665 111.754C66.6665 111.754 61.6245 111.133 56.5479 108.448C56.5479 108.448 60.9124 106.895 65.6177 104.141C65.6177 104.141 56.8091 103.624 52.8942 98.449C52.8942 98.449 55.5785 99.5913 58.7235 98.3386C58.7235 98.3386 56.907 97.3061 56.0265 95.6732C56.0265 95.6732 61.3855 96.5736 67.0641 94.5577C67.0641 94.5577 63.6863 92.9419 61.2535 89.3113C61.2535 89.3113 66.7762 88.9531 72.3651 85.9322C77.9541 82.9113 78.6038 81.1579 79.8732 80.535C79.8732 80.535 74.3807 78.9768 69.9339 75.1615C65.4871 71.3463 76.1476 71.2108 79.9428 66.2412C79.9428 66.2412 77.1112 64.7317 74.5831 60.5037C72.055 56.2756 75.1005 54.0619 75.1005 54.0619L80.8367 56.6311C80.8367 56.6311 77.1365 50.71 74.9472 47.3014C71.2417 57.6063 61.3953 63.7187 47.3429 101.991C32.6593 141.986 51.7385 196.851 82.7932 206.94L82.7992 206.965Z" fill="#4D682F"/>
<path d="M215.705 123.066C211.45 155.445 196.683 168.092 181.7 175.324C175.069 178.524 170.143 177.209 166.002 175.202C181.7 175.324 186.029 165.649 186.029 165.649C186.029 165.649 191.695 163.181 191.621 160.297C191.547 157.413 184.94 157.526 184.94 157.526C184.94 157.526 191.784 152.952 193.018 148.181C193.018 148.181 184.603 152.929 180.271 152.301C180.271 152.301 185.796 149.001 187.298 146.738C188.804 144.481 181.648 146.998 179.094 146.985C179.094 146.985 199.625 135.791 204.908 125.946C204.908 125.946 198.736 131.853 188.469 132.181C188.469 132.181 193.2 128.142 195.875 123.392C195.875 123.392 189.953 126.838 182.044 127.031C182.044 127.031 194.693 118.173 197.239 106.298C197.239 106.298 195.182 108.574 187.79 110.347C187.79 110.347 194.081 103.022 194.011 93.908C194.011 93.908 190.489 98.3291 179.145 103.199C179.145 103.199 185.349 93.3264 185.255 84.1897C185.255 84.1897 181.026 85.0936 177.672 88.0843C177.672 88.0843 176.318 86.2809 179.727 81.3105C179.727 81.3105 176.463 80.2904 167.402 87.3061C167.402 87.3061 172.47 76.0193 171.206 68.2131C171.206 68.2131 168.849 68.2448 163.232 71.5184C163.232 71.5184 163.433 68.0283 162.242 65.5018C162.242 65.5018 158.294 67.2524 153.071 72.2966C153.071 72.2966 157.358 64.5648 156.86 59.9664L152.084 64.5127C152.084 64.5127 153.401 59.8582 153.132 55.4441C153.132 55.4441 152.573 57.3276 150.048 59.0254C150.048 59.0254 150.159 56.776 149.674 54.461C149.674 54.461 146.601 61.0507 136.69 67.5516C136.69 67.5516 138.298 62.7325 138.057 56.9946C138.057 56.9946 134.778 60.267 130.268 63.3302C130.268 63.3302 133.59 55.1556 130.602 49.3955C130.602 49.3955 130.478 52.3102 127.995 54.6107C127.995 54.6107 127.844 52.5266 126.749 51.0295C126.749 51.0295 125.257 56.2548 120.994 60.5142C120.994 60.5142 120.988 56.7699 118.757 53.0121C118.757 53.0121 116.058 57.8437 110.927 61.59C105.796 65.3363 103.934 65.1687 102.826 66.0468C102.826 66.0468 103.781 60.4181 102.249 54.7627C100.718 49.1073 96.0103 58.6731 89.8915 59.9619C89.8915 59.9619 89.7466 56.7563 87.0169 52.6555C84.2873 48.5547 80.9788 50.352 80.9788 50.352L80.8311 56.6355C80.8311 56.6355 77.0772 50.7485 74.9416 47.3059C85.8384 48.3928 95.5915 42.1326 136.187 45.9074C178.609 49.8533 219.934 90.6753 215.686 123.05L215.705 123.066Z" fill="#4D682F"/>
<path d="M209.655 106.081L209.648 106.085C209.648 106.085 208.754 107.035 207.177 108.688C206.353 109.481 205.352 110.441 204.182 111.518C202.971 112.545 201.638 113.753 200.077 114.926C199.313 115.531 198.508 116.161 197.636 116.758C196.773 117.369 195.91 118.026 194.952 118.622C193.087 119.865 191.073 121.108 188.943 122.302C186.813 123.496 184.574 124.666 182.244 125.752C181.664 126.024 181.078 126.3 180.498 126.572C179.91 126.831 179.311 127.087 178.711 127.343C177.526 127.875 176.313 128.35 175.104 128.831C172.683 129.786 170.224 130.653 167.791 131.456C165.348 132.228 162.929 132.966 160.567 133.584C155.853 134.85 151.387 135.781 147.533 136.448C143.684 137.121 140.461 137.521 138.197 137.758C135.932 137.994 134.657 138.057 134.657 138.057C134.546 138.061 134.446 138.096 134.351 138.138L127.739 127.977C128.301 127.885 129.375 127.696 130.873 127.361C133.113 126.877 136.28 126.061 140.014 124.878C141.874 124.268 143.887 123.588 145.97 122.781C148.068 121.983 150.252 121.083 152.472 120.076C154.701 119.082 156.966 117.953 159.239 116.763C160.375 116.167 161.493 115.527 162.63 114.903C163.742 114.239 164.877 113.597 165.979 112.902C168.191 111.525 170.368 110.094 172.435 108.592C172.951 108.219 173.474 107.842 173.984 107.473C174.491 107.087 174.988 106.698 175.482 106.321C175.983 105.939 176.473 105.554 176.961 105.181C177.435 104.787 177.91 104.393 178.378 104.004C178.846 103.614 179.315 103.225 179.773 102.851C180.22 102.456 180.666 102.062 181.105 101.672C181.984 100.892 182.851 100.138 183.644 99.3551C184.448 98.5752 185.246 97.8458 185.981 97.0907C186.717 96.3355 187.422 95.6082 188.099 94.9088C188.775 94.2095 189.379 93.4995 189.977 92.84C190.564 92.1781 191.146 91.5668 191.637 90.9466C192.64 89.722 193.554 88.6848 194.231 87.7783C195.611 85.977 196.397 84.9454 196.397 84.9454C196.454 84.8719 196.443 84.7659 196.366 84.7022C196.292 84.6453 196.186 84.6559 196.129 84.7294C196.129 84.7294 195.324 85.7451 193.911 87.5103C193.215 88.4009 192.284 89.4112 191.269 90.6156C190.769 91.2224 190.179 91.8204 189.583 92.4688C188.972 93.1081 188.36 93.8047 187.675 94.4906C186.986 95.1698 186.272 95.8836 185.531 96.6144C184.794 97.3519 183.972 98.0587 183.162 98.8142C182.356 99.5765 181.483 100.306 180.598 101.062C180.15 101.439 179.706 101.822 179.252 102.203C178.789 102.571 178.319 102.942 177.847 103.325C177.37 103.701 176.898 104.084 176.414 104.464C175.923 104.831 175.424 105.202 174.926 105.573C174.427 105.944 173.918 106.312 173.413 106.688C172.895 107.043 172.374 107.409 171.856 107.764C169.777 109.217 167.59 110.589 165.38 111.909C164.279 112.575 163.144 113.188 162.027 113.828C160.89 114.424 159.766 115.039 158.63 115.606C156.363 116.746 154.106 117.814 151.879 118.75C149.665 119.706 147.486 120.555 145.408 121.295C143.33 122.052 141.334 122.683 139.49 123.245C135.798 124.346 132.666 125.083 130.467 125.513C128.266 125.954 127.023 126.099 127.023 126.099C126.869 126.122 126.735 126.178 126.607 126.259L119.625 115.524C119.977 115.443 121.079 115.179 122.711 114.685C124.736 114.083 127.585 113.12 130.921 111.784C134.252 110.424 138.081 108.692 142.025 106.532C144.008 105.477 145.999 104.286 148.006 103.047C149 102.419 149.999 101.77 150.994 101.114C151.972 100.43 152.974 99.7701 153.934 99.0602C155.876 97.6563 157.78 96.2096 159.586 94.6944C160.034 94.3177 160.492 93.9434 160.938 93.5777C161.371 93.1918 161.814 92.8084 162.24 92.4267C162.673 92.0408 163.103 91.6659 163.529 91.2843C163.94 90.8934 164.355 90.5093 164.759 90.1227C165.163 89.7361 165.572 89.3562 165.973 88.9806C166.355 88.589 166.742 88.2042 167.122 87.8236C167.877 87.0557 168.631 86.3164 169.311 85.5488C170.726 84.0547 171.981 82.5764 173.141 81.2148C174.263 79.8213 175.304 78.5536 176.168 77.3786C177.022 76.201 177.8 75.2023 178.377 74.3308C179.551 72.6036 180.216 71.6197 180.216 71.6197C180.269 71.5395 180.252 71.4377 180.172 71.385C180.091 71.3323 179.99 71.3496 179.937 71.4299C179.937 71.4299 179.252 72.3978 178.05 74.0956C177.46 74.947 176.662 75.9298 175.785 77.0847C174.904 78.2329 173.835 79.4713 172.693 80.8311C171.511 82.1592 170.235 83.6039 168.795 85.0577C168.102 85.8051 167.346 86.5268 166.573 87.2678C166.19 87.6417 165.799 88.0198 165.408 88.3979C165.002 88.7669 164.596 89.1358 164.184 89.509C163.771 89.8821 163.359 90.2553 162.939 90.6327C162.512 90.9967 162.077 91.3649 161.643 91.7331C161.208 92.1013 160.767 92.4738 160.326 92.8462C159.876 93.2053 159.42 93.5685 158.963 93.9318C157.142 95.3915 155.232 96.7852 153.285 98.1361C152.318 98.8216 151.313 99.4466 150.336 100.101C149.342 100.729 148.348 101.356 147.344 101.953C145.338 103.134 143.344 104.262 141.366 105.266C137.433 107.307 133.621 108.934 130.317 110.202C127.005 111.457 124.191 112.341 122.209 112.878C120.219 113.43 119.098 113.649 119.098 113.649C118.899 113.69 118.735 113.803 118.602 113.934L112.691 104.853C112.691 104.853 112.691 104.853 112.698 104.849C112.698 104.849 112.704 104.845 112.711 104.84L112.753 104.833C112.753 104.833 113.001 104.779 113.512 104.636C114.031 104.505 114.728 104.271 115.635 103.981C116.52 103.657 117.615 103.294 118.825 102.785C120.048 102.313 121.393 101.689 122.857 101.019C123.591 100.678 124.326 100.279 125.105 99.8912C125.879 99.4962 126.678 99.0951 127.47 98.6234C128.27 98.1652 129.091 97.6942 129.936 97.2172C130.768 96.72 131.588 96.1741 132.441 95.6356C134.162 94.5965 135.817 93.3353 137.538 92.1177C138.414 91.5269 139.212 90.8261 140.05 90.1749C140.88 89.5102 141.716 88.8412 142.552 88.1723C144.137 86.7397 145.754 85.3432 147.289 83.9049C148.767 82.408 150.24 80.9616 151.631 79.5197C152.96 78.0235 154.243 76.5745 155.452 75.2009C156.082 74.5312 156.598 73.8014 157.134 73.1338C157.667 72.4595 158.179 71.798 158.673 71.1668C159.654 69.9087 160.584 68.7771 161.292 67.6818C162.028 66.6159 162.671 65.6844 163.201 64.9175C164.262 63.3836 164.863 62.5061 164.863 62.5061C164.916 62.4259 164.899 62.3241 164.818 62.2714C164.738 62.2187 164.636 62.236 164.579 62.3095L164.573 62.3138C164.573 62.3138 163.952 63.1754 162.863 64.6798C162.313 65.4308 161.658 66.3423 160.892 67.3898C160.16 68.4624 159.213 69.5671 158.204 70.7959C157.698 71.4069 157.173 72.0483 156.625 72.7134C156.073 73.3718 155.544 74.0815 154.902 74.731C153.661 76.0686 152.359 77.473 151.005 78.9289C149.591 80.3195 148.092 81.7256 146.591 83.1713C145.034 84.5583 143.404 85.9061 141.803 87.2832C140.961 87.9277 140.121 88.5613 139.285 89.2016C138.441 89.8285 137.637 90.5048 136.762 91.067C135.032 92.2249 133.377 93.4288 131.658 94.4107C130.813 94.9163 129.987 95.4379 129.166 95.9088C128.333 96.3597 127.513 96.802 126.713 97.2317C125.922 97.6748 125.128 98.0538 124.361 98.416C123.594 98.7781 122.857 99.1587 122.131 99.4667C120.679 100.083 119.36 100.671 118.153 101.095C116.964 101.564 115.901 101.888 115.034 102.181C114.159 102.433 113.467 102.645 113.017 102.75C112.564 102.867 112.298 102.922 112.298 102.922C112.039 102.973 111.826 103.126 111.689 103.325L106.642 95.5681C106.78 95.5649 106.924 95.5399 107.054 95.477C107.06 95.4728 107.074 95.4643 107.081 95.46C107.081 95.46 107.264 95.3632 107.617 95.1781C107.976 94.9887 108.488 94.7128 109.118 94.3428C109.764 93.9821 110.521 93.5139 111.389 92.9846C112.24 92.4284 113.223 91.827 114.246 91.0966C114.759 90.7348 115.302 90.3737 115.851 89.9797C116.393 89.5723 116.951 89.1631 117.533 88.7302C118.691 87.8864 119.838 86.8902 121.065 85.9181C121.649 85.3994 122.246 84.8721 122.85 84.3406C123.454 83.8092 124.068 83.2802 124.645 82.6907C125.819 81.5454 127.044 80.4057 128.144 79.1572C128.708 78.5476 129.279 77.9337 129.843 77.3241C130.368 76.6827 130.897 76.048 131.42 75.4175C131.934 74.7736 132.478 74.1768 132.948 73.523C133.418 72.8692 133.886 72.2263 134.344 71.5986C134.795 70.9575 135.274 70.3635 135.667 69.721C136.064 69.0852 136.452 68.4646 136.827 67.8524C137.205 67.247 137.575 66.6569 137.928 66.0861C138.256 65.5037 138.544 64.918 138.842 64.3635C139.409 63.2537 139.963 62.256 140.4 61.3414C140.796 60.4058 141.14 59.5968 141.423 58.9295C141.99 57.595 142.313 56.8273 142.313 56.8273C142.351 56.7379 142.309 56.6421 142.219 56.6046C142.13 56.5671 142.034 56.6088 141.999 56.6873L141.986 56.6958C141.986 56.6958 141.647 57.4542 141.046 58.7637C140.748 59.4217 140.377 60.2191 139.958 61.132C139.497 62.024 138.92 62.9991 138.324 64.0795C138.014 64.6139 137.717 65.1861 137.37 65.7526C136.997 66.3075 136.619 66.8843 136.228 67.4695C135.836 68.0548 135.433 68.6662 135.024 69.2818C134.618 69.9042 134.119 70.4823 133.663 71.099C133.191 71.7065 132.711 72.3293 132.228 72.9629C131.745 73.5966 131.188 74.1733 130.664 74.7861C130.129 75.3964 129.594 76.0067 129.052 76.6213C128.477 77.1998 127.901 77.7892 127.324 78.3787C126.201 79.576 124.96 80.6601 123.769 81.75C123.182 82.3083 122.562 82.8129 121.952 83.32C121.342 83.8271 120.739 84.3299 120.145 84.8176C118.912 85.7367 117.756 86.6731 116.59 87.4749C116.009 87.8791 115.449 88.2706 114.908 88.6494C114.363 89.0215 113.815 89.3582 113.306 89.6981C112.282 90.3822 111.306 90.9331 110.455 91.4606C109.59 91.9503 108.834 92.3899 108.207 92.7202C107.572 93.0548 107.084 93.3071 106.747 93.4728C106.403 93.6427 106.222 93.7285 106.222 93.7285L106.202 93.7413C105.984 93.8416 105.834 94.0208 105.747 94.2258L101.328 87.434C101.568 87.4709 101.827 87.42 102.04 87.2666C102.047 87.2624 102.06 87.2539 102.073 87.2454C102.073 87.2454 102.199 87.1472 102.444 86.955C102.696 86.7585 103.032 86.4716 103.459 86.1076C103.879 85.7302 104.399 85.2892 104.954 84.7411C105.53 84.2089 106.142 83.5873 106.809 82.9031C107.468 82.2055 108.179 81.4563 108.889 80.6322C109.599 79.8081 110.351 78.9299 111.077 77.9827C111.832 77.065 112.542 76.0623 113.277 75.0537C114.016 74.0518 114.686 72.9711 115.395 71.9221C116.07 70.8481 116.708 69.7599 117.351 68.6961C117.949 67.6048 118.527 66.5261 119.091 65.4846C119.609 64.4154 120.106 63.3877 120.58 62.4122C121.069 61.446 121.419 60.4828 121.8 59.613C122.159 58.7383 122.526 57.9519 122.772 57.2242C123.032 56.5057 123.261 55.8723 123.453 55.357C123.831 54.3196 124.044 53.7343 124.044 53.7343C124.075 53.6492 124.029 53.5467 123.944 53.5159C123.859 53.4851 123.763 53.5268 123.732 53.612C123.732 53.612 123.497 54.1923 123.077 55.2088C122.871 55.7149 122.611 56.3299 122.325 57.0367C122.053 57.7528 121.655 58.5208 121.261 59.3704C120.846 60.2151 120.461 61.1531 119.938 62.0943C119.429 63.0447 118.893 64.0406 118.343 65.0737C117.747 66.0792 117.126 67.1193 116.496 68.1746C115.816 69.1956 115.14 70.2519 114.435 71.279C113.696 72.2809 112.996 73.3146 112.228 74.2695C111.463 75.2311 110.73 76.1825 109.957 77.0557C109.207 77.9516 108.439 78.7743 107.71 79.5539C106.981 80.3334 106.263 81.0406 105.599 81.6851C104.92 82.3205 104.304 82.9068 103.734 83.3884C103.177 83.8902 102.661 84.2916 102.249 84.6362C101.824 84.9606 101.494 85.2256 101.274 85.3832C101.04 85.5493 100.917 85.6366 100.917 85.6366L100.89 85.6535C100.697 85.7942 100.584 85.9875 100.53 86.1999L95.4027 78.3151C95.7215 78.4332 96.1019 78.381 96.3812 78.1389C96.3946 78.1304 96.4148 78.1177 96.4239 78.1025C96.4239 78.1025 96.512 78.0188 96.6813 77.8555C96.8599 77.677 97.0727 77.4488 97.3449 77.136C97.6214 76.83 97.9329 76.4455 98.2811 76.0002C98.6184 75.5524 99.0102 75.0421 99.3882 74.4653C99.7814 73.8977 100.183 73.2687 100.583 72.5933C100.998 71.9271 101.378 71.1895 101.8 70.4441C102.174 69.6821 102.603 68.9039 102.961 68.0864C103.325 67.2647 103.715 66.4546 104.041 65.6011C104.381 64.7567 104.73 63.9258 105.014 63.08C105.308 62.2367 105.619 61.4203 105.86 60.6109C106.111 59.804 106.351 59.0232 106.577 58.2796C106.78 57.531 106.963 56.8238 107.141 56.1671C107.51 54.8628 107.703 53.7548 107.898 52.9928C108.072 52.2258 108.171 51.7875 108.171 51.7875C108.191 51.6998 108.131 51.6058 108.044 51.586C107.956 51.5662 107.869 51.6213 107.849 51.709C107.849 51.709 107.728 52.1423 107.511 52.8993C107.278 53.6472 107.02 54.7404 106.582 56.0121C106.375 56.6504 106.144 57.341 105.91 58.0712C105.643 58.794 105.362 59.5539 105.075 60.3357C104.793 61.1242 104.437 61.9131 104.104 62.7246C103.781 63.5386 103.387 64.3419 103.01 65.1435C102.648 65.9542 102.219 66.7325 101.818 67.5114C101.417 68.2904 100.965 69.0173 100.559 69.7433C100.108 70.4416 99.7092 71.1347 99.2707 71.7496C98.8475 72.3737 98.4341 72.954 98.029 73.4728C97.639 74.0008 97.2487 74.4539 96.9036 74.8596C96.5543 75.2585 96.2485 75.5925 95.9819 75.8547C95.7263 76.1194 95.5007 76.3276 95.3724 76.4368C95.2282 76.5654 95.1518 76.623 95.1518 76.623L95.1115 76.6484C94.9085 76.8329 94.7968 77.0725 94.7794 77.3277L88.3545 67.4625C88.4655 67.43 88.5663 67.3664 88.6349 67.2667C88.6349 67.2667 88.6416 67.2625 88.6483 67.2583C88.6483 67.2583 88.7678 67.0607 88.9903 66.7136C89.0981 66.5422 89.2268 66.3295 89.3739 66.0863C89.4948 65.8315 89.6342 65.5463 89.7919 65.2307C89.9581 64.9285 90.0752 64.5634 90.2209 64.199C90.3733 63.8304 90.4868 63.4299 90.6096 63.0143C90.7433 62.6011 90.8289 62.1713 90.9237 61.7263C91.0338 61.2905 91.0805 60.8289 91.1577 60.3857C91.2816 59.4808 91.3373 58.5721 91.352 57.7174C91.3666 56.8627 91.3269 56.0706 91.2775 55.3972C91.1746 54.0438 90.9854 53.1488 90.9854 53.1488C90.9536 53.0091 90.8278 52.9289 90.6949 52.9564C90.562 52.984 90.4817 53.1098 90.505 53.236C90.505 53.236 90.6554 54.0992 90.7169 55.4317C90.7511 56.0959 90.7537 56.8739 90.7111 57.6992C90.6685 58.5246 90.5849 59.404 90.4356 60.2685C90.3499 60.6983 90.2862 61.1331 90.1635 61.5487C90.0584 61.9626 89.9576 62.3832 89.8203 62.761C89.6916 63.1523 89.572 63.5283 89.4161 63.8616C89.2644 64.2016 89.148 64.5381 88.9825 64.8116C88.8322 65.0944 88.6912 65.3619 88.5642 65.5923C88.4221 65.8136 88.2941 65.9977 88.1887 66.1582C87.9871 66.4639 87.8684 66.6328 87.8659 66.6438L79.7623 54.1936C79.6563 54.0257 79.4304 53.9804 79.2582 54.0797C79.0836 54.1899 79.0273 54.4133 79.1376 54.588L86.7163 66.9655C86.5859 66.9821 86.442 67.0071 86.2763 67.0273C86.0136 67.0428 85.7181 67.0508 85.3915 67.0691C85.0692 67.0942 84.7196 67.0612 84.3474 67.0519C83.9727 67.0536 83.5818 66.9998 83.1799 66.9435C82.7731 66.9091 82.3567 66.815 81.9379 66.7319C81.5099 66.6639 81.0925 66.5235 80.6651 66.4269C79.8204 66.1899 78.9838 65.8914 78.2271 65.5706C77.4637 65.2541 76.7692 64.9129 76.1776 64.6006C75.0053 63.9786 74.2864 63.4649 74.2864 63.4649C74.1825 63.3896 74.0277 63.4121 73.9524 63.516C73.8704 63.6242 73.893 63.779 74.0011 63.861C74.0011 63.861 74.7319 64.4236 75.9095 65.0986C76.5005 65.4395 77.1942 65.8093 77.9721 66.1637C78.7433 66.5223 79.5944 66.8586 80.4646 67.1359C80.9021 67.2636 81.3347 67.4132 81.7755 67.5013C82.2138 67.6004 82.6428 67.7147 83.0734 67.7717C83.4947 67.8439 83.9117 67.9093 84.3101 67.9303C84.7017 67.9555 85.0817 68.0068 85.426 67.9867C85.772 67.9843 86.0894 67.9812 86.3782 67.9774C86.661 67.9492 86.9084 67.9245 87.1095 67.9009C87.1802 67.8938 87.24 67.8843 87.304 67.8815L93.3517 77.7593C93.3114 77.7848 93.2424 77.8095 93.1466 77.8512C92.9929 77.9201 92.7037 78.0275 92.3591 78.1511C92.0077 78.279 91.5704 78.4047 91.0642 78.5552C90.5563 78.688 89.9727 78.8497 89.3283 78.9747C88.6856 79.1174 87.984 79.2409 87.2385 79.3546C86.4948 79.4859 85.691 79.5518 84.873 79.6549C84.0431 79.7091 83.1923 79.8047 82.3168 79.8314C81.4412 79.8581 80.554 79.9109 79.6664 79.8888C78.7807 79.8843 77.8815 79.8884 77.0123 79.8359C76.1364 79.7876 75.2708 79.7704 74.4377 79.6858C73.6021 79.6121 72.7951 79.5391 72.0345 79.465C71.2679 79.3666 70.5518 79.2738 69.8862 79.1868C68.5501 79.0345 67.452 78.7977 66.6769 78.6859C65.9 78.5563 65.461 78.4859 65.461 78.4859C65.3733 78.4661 65.286 78.5212 65.2662 78.6089C65.2464 78.6965 65.3057 78.7906 65.3934 78.8104C65.3934 78.8104 65.8317 78.9094 66.5987 79.0828C67.3681 79.2452 68.4581 79.5434 69.7903 79.7639C70.4527 79.8906 71.1723 80.0187 71.94 80.1635C72.7084 80.2796 73.5164 80.3989 74.353 80.5189C75.1914 80.6566 76.0623 80.7268 76.946 80.8171C77.8314 80.9251 78.7317 80.9673 79.6404 81.023C80.54 81.0939 81.4501 81.0924 82.3486 81.1169C83.2404 81.1458 84.1276 81.093 84.9763 81.0832C85.8306 81.023 86.6532 81.0016 87.44 80.9088C88.2219 80.8379 88.9624 80.7462 89.6439 80.6354C90.3272 80.5422 90.9454 80.4055 91.5057 80.2961C92.0575 80.1732 92.5386 80.0574 92.9338 79.9394C93.3332 79.8282 93.6375 79.73 93.8687 79.6498C94.089 79.5671 94.2024 79.5237 94.2024 79.5237C94.2159 79.5152 94.236 79.5025 94.2537 79.5007C94.3049 79.4777 94.3453 79.4523 94.388 79.4159L98.9556 86.8747C98.8952 86.9128 98.8036 86.9612 98.6852 87.0266C98.4484 87.1573 98.0712 87.3485 97.5914 87.5855C97.1033 87.8092 96.5186 88.1031 95.8261 88.39C95.1396 88.7013 94.3453 89.0054 93.4795 89.3452C92.6121 89.6674 91.6647 90.0118 90.6474 90.3347C89.63 90.6575 88.5572 90.9966 87.426 91.288C86.3051 91.6104 85.1241 91.8675 83.934 92.1398C82.7413 92.423 81.5027 92.6037 80.2846 92.8466C79.0545 93.0407 77.8166 93.1928 76.5957 93.3717C75.372 93.4867 74.166 93.5999 73.002 93.7053C71.8327 93.7577 70.703 93.8133 69.6264 93.8636C68.5515 93.9316 67.5392 93.8755 66.5979 93.8873C65.6615 93.8772 64.7969 93.9064 64.0338 93.8433C63.2725 93.7979 62.6055 93.7681 62.0598 93.7368C60.9616 93.6786 60.3366 93.641 60.3366 93.641C60.2465 93.6322 60.1677 93.7007 60.1588 93.7908C60.15 93.881 60.216 93.9708 60.3129 93.9754C60.3129 93.9754 60.9396 94.0307 62.0321 94.1394C62.5796 94.1883 63.2501 94.2535 64.0107 94.3275C64.7731 94.4193 65.6413 94.4255 66.5854 94.4776C67.5302 94.5012 68.5502 94.5993 69.6372 94.5801C70.7216 94.5719 71.8633 94.565 73.0513 94.5572C74.234 94.4963 75.4588 94.4276 76.6987 94.3682C77.9359 94.2447 79.1992 94.133 80.4523 93.9901C81.7 93.7942 82.9616 93.6647 84.1906 93.4243C85.4172 93.1948 86.6279 92.9848 87.7809 92.6984C88.9485 92.4498 90.0535 92.1468 91.114 91.8625C92.1702 91.5714 93.1564 91.2588 94.0585 90.9618C94.9631 90.6538 95.7945 90.3637 96.5157 90.0776C97.2453 89.8049 97.8713 89.5318 98.3924 89.3156C98.9117 89.0817 99.3083 88.9065 99.5939 88.7637C99.8014 88.6609 99.9375 88.5938 99.9846 88.5641L104.014 95.1412C103.945 95.1946 103.816 95.3038 103.628 95.4511C103.34 95.6797 102.895 96.0168 102.32 96.4455C101.752 96.8699 101.035 97.3699 100.216 97.9335C99.385 98.4769 98.4567 99.1193 97.3986 99.7497C96.8772 100.069 96.3374 100.42 95.7629 100.745C95.1885 101.07 94.5871 101.412 93.9791 101.758C92.7648 102.468 91.4179 103.102 90.0513 103.824C89.3513 104.144 88.6422 104.479 87.9221 104.811C87.2021 105.144 86.4795 105.487 85.723 105.777C84.227 106.383 82.7101 107.031 81.1505 107.536C80.3704 107.803 79.6012 108.073 78.821 108.34C78.0331 108.565 77.2519 108.785 76.4707 109.006C75.692 109.216 74.9253 109.475 74.1522 109.634C73.3766 109.804 72.6145 109.966 71.8524 110.127C71.0928 110.278 70.3628 110.476 69.6265 110.574C68.8945 110.68 68.1734 110.787 67.4725 110.882C66.7758 110.984 66.0925 111.077 65.4311 111.175C64.7663 111.238 64.1265 111.266 63.5104 111.317C62.2789 111.39 61.1435 111.496 60.1468 111.524C59.1422 111.51 58.2699 111.497 57.5407 111.488C56.1 111.467 55.2739 111.453 55.2739 111.453L55.2605 111.462C55.1636 111.457 55.0848 111.526 55.0869 111.618C55.0823 111.715 55.1575 111.79 55.2477 111.798C55.2477 111.798 56.0797 111.837 57.5282 111.899C58.2524 111.931 59.135 111.975 60.1456 112.013C61.1593 112.012 62.2982 111.941 63.5442 111.906C64.1663 111.88 64.8188 111.872 65.4922 111.822C66.1595 111.749 66.8512 111.669 67.5607 111.587C68.2701 111.506 69.0014 111.429 69.7462 111.344C70.4952 111.266 71.2446 111.084 72.0102 110.958C72.7783 110.82 73.5599 110.675 74.3481 110.525C75.1406 110.381 75.9201 110.143 76.7158 109.96C77.5097 109.759 78.3146 109.561 79.1153 109.356C79.9081 109.109 80.701 108.863 81.5006 108.611C83.1076 108.151 84.6566 107.54 86.1957 106.972C86.9716 106.698 87.7178 106.377 88.4574 106.061C89.1969 105.744 89.9297 105.432 90.6491 105.128C92.0546 104.438 93.4403 103.836 94.7069 103.149C95.3411 102.814 95.9619 102.488 96.5582 102.168C97.1504 101.841 97.7138 101.514 98.2572 101.199C99.3566 100.59 100.322 99.9613 101.19 99.432C102.048 98.8716 102.796 98.39 103.393 97.9663C103.994 97.5494 104.474 97.2087 104.793 96.9699C104.876 96.908 104.946 96.8547 105.009 96.8055L109.743 104.544C109.709 104.594 109.554 104.795 109.295 105.099C109.007 105.46 108.517 105.994 107.914 106.676C107.276 107.332 106.526 108.153 105.592 109.024C104.686 109.925 103.592 110.87 102.411 111.916C101.816 112.432 101.163 112.929 100.503 113.477C99.8464 114.014 99.1626 114.567 98.4224 115.091C97.6906 115.628 96.9386 116.178 96.1733 116.736C95.3927 117.285 94.569 117.796 93.7489 118.342C92.1188 119.465 90.3247 120.447 88.5352 121.511C87.6553 122.066 86.6949 122.494 85.7659 122.987C84.8284 123.466 83.8884 123.956 82.9509 124.435C81.019 125.288 79.0949 126.183 77.1797 126.989C75.2287 127.722 73.3216 128.466 71.4513 129.149C69.5545 129.745 67.7266 130.316 65.9853 130.861C65.1228 131.162 64.2546 131.334 63.4229 131.549C62.5936 131.753 61.782 131.956 61.0124 132.15C59.4691 132.533 58.058 132.916 56.7816 133.111C55.513 133.349 54.4016 133.552 53.4872 133.726C51.6607 134.061 50.6201 134.258 50.6201 134.258L50.6134 134.262C50.5183 134.275 50.4589 134.36 50.4719 134.455C50.485 134.55 50.5737 134.616 50.6646 134.596C50.6646 134.596 51.7154 134.431 53.5563 134.133C54.4768 133.984 55.5942 133.805 56.873 133.598C58.1622 133.423 59.5878 133.078 61.1456 132.733C61.9278 132.559 62.7412 132.374 63.5832 132.19C64.4234 131.988 65.3043 131.836 66.1728 131.56C67.9395 131.056 69.7929 130.524 71.7151 129.968C73.6109 129.326 75.5544 128.625 77.5418 127.934C79.5001 127.168 81.4606 126.315 83.4314 125.494C84.395 125.026 85.3587 124.559 86.3156 124.096C87.2641 123.619 88.2464 123.196 89.15 122.663C90.9893 121.634 92.829 120.679 94.5181 119.575C95.3644 119.041 96.2167 118.531 97.0234 117.994C97.8217 117.443 98.5955 116.898 99.3535 116.373C100.12 115.86 100.832 115.307 101.515 114.782C102.201 114.246 102.881 113.761 103.5 113.239C104.735 112.205 105.876 111.259 106.828 110.357C107.809 109.485 108.607 108.652 109.281 107.992C109.933 107.299 110.44 106.763 110.785 106.357C110.798 106.349 110.807 106.333 110.816 106.318L116.388 115.426C116.141 115.751 115.504 116.557 114.477 117.741C113.14 119.299 111.125 121.463 108.573 123.91C106.007 126.347 102.9 129.088 99.3646 131.761C97.6076 133.115 95.7325 134.43 93.8026 135.733C92.8322 136.383 91.8449 137.006 90.8441 137.638C89.833 138.239 88.8365 138.877 87.8017 139.455C85.745 140.631 83.6629 141.767 81.5641 142.773C81.0399 143.029 80.5156 143.284 79.9981 143.536C79.4721 143.774 78.9461 144.012 78.4268 144.246C77.9075 144.48 77.3882 144.714 76.8756 144.943C76.3546 145.16 75.8402 145.372 75.3259 145.584C74.8115 145.796 74.3039 146.003 73.7963 146.211C73.2869 146.401 72.7775 146.591 72.2749 146.777C71.2738 147.155 70.2928 147.521 69.3243 147.832C67.3991 148.502 65.5458 149.033 63.8321 149.533C62.1131 149.979 60.5312 150.405 59.1198 150.713C57.7065 151.004 56.4761 151.302 55.4471 151.473C53.3976 151.827 52.229 152.029 52.229 152.029C52.1339 152.042 52.0745 152.127 52.0876 152.222C52.1007 152.317 52.1894 152.383 52.2802 152.363C52.2802 152.363 53.4615 152.181 55.5188 151.869C56.5537 151.723 57.7902 151.449 59.2204 151.185C60.6488 150.904 62.2452 150.516 63.9854 150.103C65.7136 149.641 67.5881 149.144 69.5454 148.509C70.5267 148.219 71.5228 147.862 72.5408 147.511C73.0478 147.332 73.5656 147.155 74.086 146.967C74.5978 146.766 75.1207 146.568 75.6392 146.363C76.1621 146.164 76.6873 145.955 77.2169 145.752C77.7447 145.531 78.2682 145.304 78.8027 145.08C79.3372 144.855 79.8674 144.624 80.4019 144.399C80.9304 144.15 81.4631 143.907 81.9916 143.658C84.1359 142.68 86.2612 141.583 88.3635 140.434C89.4177 139.872 90.4446 139.252 91.4818 138.663C92.5021 138.047 93.5223 137.431 94.5121 136.797C96.4943 135.518 98.4259 134.233 100.231 132.896C103.873 130.258 107.088 127.553 109.748 125.131C112.401 122.696 114.495 120.538 115.898 118.966C116.587 118.212 117.111 117.599 117.481 117.159L124.156 128.06C123.87 128.484 123.273 129.369 122.34 130.615C121.006 132.415 119 134.921 116.412 137.786C115.112 139.208 113.679 140.732 112.106 142.289C110.534 143.845 108.837 145.442 107.025 147.037C105.218 148.638 103.284 150.216 101.283 151.779C100.283 152.561 99.251 153.306 98.218 154.081C97.1662 154.81 96.1248 155.571 95.0426 156.282C92.9003 157.71 90.7174 159.088 88.5154 160.346C87.9653 160.666 87.4177 160.974 86.8744 161.288C86.3183 161.583 85.7665 161.885 85.2171 162.175C84.6678 162.465 84.1184 162.756 83.5758 163.042C83.0247 163.315 82.4761 163.577 81.9317 163.845C81.3873 164.114 80.8453 164.371 80.3144 164.631C79.7707 164.871 79.238 165.113 78.7052 165.356C77.6423 165.83 76.6079 166.304 75.5732 166.704C74.5428 167.11 73.547 167.541 72.5685 167.896C71.59 168.25 70.6384 168.588 69.7289 168.918C68.8151 169.241 67.9272 169.501 67.083 169.771C66.2414 170.03 65.4478 170.306 64.6849 170.496C63.1653 170.901 61.8528 171.307 60.745 171.546C58.5396 172.055 57.2805 172.352 57.2805 172.352C57.1897 172.372 57.1345 172.463 57.1543 172.554C57.174 172.645 57.2652 172.7 57.3603 172.687C57.3603 172.687 58.6297 172.421 60.8495 171.95C61.9658 171.724 63.2886 171.349 64.8252 170.971C65.5965 170.794 66.3985 170.532 67.2487 170.287C68.0971 170.023 68.9977 169.784 69.9242 169.481C70.8465 169.171 71.8066 168.846 72.8045 168.508C73.8024 168.169 74.8042 167.762 75.8541 167.372C76.9015 166.992 77.9553 166.534 79.0377 166.076C79.5789 165.847 80.1268 165.614 80.6748 165.381C81.2209 165.13 81.7628 164.872 82.3157 164.617C82.8686 164.362 83.4282 164.103 83.9878 163.843C84.5414 163.56 85.0992 163.283 85.6528 162.999C86.2131 162.711 86.7776 162.43 87.3379 162.142C87.8965 161.836 88.455 161.531 89.0136 161.225C91.2654 160.001 93.4939 158.65 95.6818 157.25C96.7834 156.555 97.851 155.806 98.9289 155.088C99.9813 154.33 101.051 153.598 102.066 152.826C104.119 151.286 106.105 149.731 107.967 148.142C109.838 146.567 111.59 144.982 113.206 143.435C114.834 141.892 116.31 140.377 117.661 138.961C120.339 136.105 122.434 133.59 123.834 131.776C124.435 131.002 124.901 130.37 125.259 129.881L131.609 140.253C131.324 140.753 130.817 141.646 130.07 142.86C128.885 144.791 127.135 147.54 124.872 150.725C122.619 153.913 119.858 157.544 116.68 161.26C115.107 163.127 113.407 164.988 111.653 166.866C109.881 168.717 108.046 170.571 106.13 172.344C105.176 173.228 104.226 174.119 103.236 174.96C102.747 175.391 102.26 175.811 101.771 176.242C101.27 176.652 100.775 177.059 100.28 177.465C98.3043 179.097 96.2854 180.616 94.2844 182.029C92.286 183.432 90.3013 184.722 88.3775 185.871C87.4305 186.469 86.4594 186.969 85.5406 187.493C84.6261 188.023 83.7179 188.474 82.8366 188.908C81.0995 189.817 79.443 190.497 77.9876 191.152C76.5118 191.746 75.2148 192.236 74.1448 192.639C71.974 193.352 70.7322 193.75 70.7322 193.75L70.7255 193.755C70.6389 193.781 70.588 193.879 70.6145 193.966C70.6409 194.052 70.7388 194.103 70.8255 194.077L74.2762 193.025C75.359 192.643 76.6729 192.179 78.1682 191.602C79.6405 190.973 81.3249 190.323 83.09 189.444C83.984 189.03 84.9073 188.588 85.8413 188.073C86.7728 187.57 87.7633 187.085 88.7255 186.497C90.6882 185.38 92.7118 184.121 94.7516 182.74C96.7914 181.358 98.8559 179.867 100.884 178.258C101.39 177.854 101.9 177.457 102.412 177.049C102.91 176.631 103.414 176.21 103.918 175.788C104.931 174.952 105.911 174.079 106.887 173.2C108.85 171.444 110.738 169.614 112.558 167.779C114.365 165.925 116.119 164.075 117.743 162.214C121.019 158.521 123.879 154.912 126.222 151.733C128.575 148.556 130.397 145.818 131.638 143.87C132.074 143.191 132.43 142.61 132.722 142.134L138.858 152.153C138.839 152.212 138.827 152.267 138.805 152.337C138.683 152.828 138.435 153.566 138.132 154.5C137.785 155.423 137.417 156.567 136.868 157.825C136.599 158.455 136.329 159.142 136.009 159.842C135.679 160.539 135.328 161.277 134.965 162.041C134.622 162.822 134.173 163.584 133.747 164.398C133.302 165.195 132.899 166.06 132.374 166.88C131.359 168.545 130.322 170.326 129.074 172.054C128.457 172.922 127.886 173.847 127.207 174.707C126.534 175.574 125.846 176.449 125.163 177.331C124.811 177.77 124.489 178.227 124.117 178.649C123.745 179.072 123.366 179.499 122.99 179.915C122.239 180.764 121.482 181.618 120.731 182.468C119.157 184.11 117.504 185.689 115.916 187.264C114.213 188.734 112.54 190.175 110.923 191.572C109.205 192.853 107.554 194.093 105.98 195.274C105.209 195.883 104.395 196.378 103.617 196.888C102.838 197.38 102.088 197.872 101.366 198.337C99.9156 199.253 98.6238 200.153 97.3763 200.781C96.1542 201.449 95.0841 202.03 94.2039 202.511C92.4434 203.472 91.4448 204.018 91.4448 204.018L91.4313 204.026C91.3507 204.077 91.3175 204.173 91.3574 204.251C91.4016 204.336 91.5044 204.365 91.5893 204.321C91.5893 204.321 92.6074 203.791 94.3933 202.87C95.2862 202.41 96.369 201.849 97.6148 201.203C98.8793 200.602 100.199 199.731 101.673 198.838C102.414 198.39 103.177 197.917 103.972 197.434C104.762 196.945 105.596 196.466 106.382 195.866C107.995 194.716 109.687 193.498 111.444 192.248C113.113 190.875 114.828 189.454 116.576 188.012C118.219 186.449 119.924 184.894 121.553 183.264C122.337 182.422 123.123 181.569 123.899 180.731C124.289 180.306 124.683 179.889 125.066 179.469C125.449 179.048 125.795 178.585 126.163 178.156C126.886 177.277 127.591 176.4 128.297 175.541C129.015 174.684 129.611 173.753 130.257 172.885C131.569 171.155 132.658 169.369 133.733 167.694C134.289 166.864 134.717 165.993 135.197 165.192C135.647 164.372 136.127 163.6 136.495 162.813C136.885 162.032 137.26 161.288 137.615 160.585C137.961 159.868 138.249 159.179 138.545 158.532C139.141 157.244 139.55 156.076 139.93 155.131C140.03 154.842 140.122 154.587 140.208 154.336L145.54 163.05C145.401 163.41 145.206 163.89 144.96 164.468C144.671 165.185 144.275 166.046 143.849 167.038C143.375 168.014 142.891 169.136 142.284 170.318C141.983 170.912 141.674 171.539 141.352 172.175C141.012 172.812 140.663 173.464 140.299 174.136C139.595 175.491 138.754 176.868 137.913 178.319C137.049 179.747 136.116 181.201 135.167 182.673C134.664 183.395 134.166 184.123 133.661 184.855L132.906 185.951L132.102 187.013C131.022 188.427 129.97 189.871 128.809 191.186C128.244 191.853 127.678 192.52 127.126 193.179C126.559 193.828 125.958 194.423 125.388 195.037C124.813 195.644 124.251 196.243 123.692 196.83C123.121 197.398 122.53 197.921 121.979 198.447C120.852 199.488 119.815 200.509 118.746 201.315C117.704 202.151 116.746 202.925 115.897 203.602C114.998 204.217 114.215 204.748 113.574 205.191C112.28 206.073 111.545 206.575 111.545 206.575L111.532 206.583C111.451 206.634 111.433 206.739 111.484 206.82C111.535 206.9 111.64 206.919 111.721 206.868C111.721 206.868 112.48 206.389 113.801 205.536C114.466 205.116 115.264 204.594 116.186 204.002C117.062 203.336 118.048 202.591 119.12 201.774C120.224 200.993 121.291 199.99 122.464 198.977C123.041 198.463 123.658 197.951 124.245 197.393C124.823 196.821 125.411 196.234 126.001 195.636C126.591 195.038 127.22 194.444 127.814 193.806C128.392 193.159 128.983 192.504 129.57 191.842C130.78 190.544 131.891 189.119 133.025 187.717L133.869 186.658L134.667 185.572C135.199 184.851 135.726 184.124 136.255 183.414C137.259 181.954 138.247 180.513 139.157 179.084C140.041 177.642 140.933 176.272 141.69 174.911C142.072 174.238 142.45 173.586 142.812 172.954C143.158 172.312 143.489 171.69 143.814 171.09C144.468 169.907 144.994 168.777 145.503 167.798C145.971 166.798 146.395 165.938 146.716 165.21C146.746 165.153 146.762 165.105 146.788 165.042L149.079 168.79C149.048 169.054 149.012 169.368 148.968 169.715C148.873 170.339 148.755 171.09 148.549 171.953C148.467 172.389 148.348 172.84 148.21 173.322C148.073 173.803 147.963 174.314 147.789 174.827C147.451 175.868 147.092 176.996 146.6 178.152C146.172 179.333 145.569 180.521 144.998 181.774C144.714 182.395 144.353 182.999 144.02 183.632C143.674 184.245 143.365 184.9 142.972 185.514C142.591 186.131 142.203 186.751 141.816 187.372L141.235 188.312L140.593 189.215C139.73 190.407 138.926 191.648 137.979 192.753C137.522 193.323 137.067 193.882 136.626 194.433C136.397 194.71 136.178 194.989 135.955 195.261C135.717 195.524 135.486 195.782 135.251 196.034C134.317 197.056 133.413 198.049 132.55 198.988C131.64 199.882 130.777 200.718 129.984 201.5C129.591 201.89 129.207 202.263 128.846 202.614C128.465 202.948 128.1 203.263 127.762 203.561C127.082 204.15 126.485 204.677 125.999 205.097C125.017 205.952 124.458 206.436 124.458 206.436L124.451 206.44C124.386 206.5 124.374 206.601 124.432 206.677C124.49 206.754 124.597 206.761 124.674 206.703C124.674 206.703 125.252 206.235 126.262 205.41C126.764 204.999 127.378 204.499 128.088 203.928C128.441 203.639 128.815 203.338 129.211 203.013C129.587 202.672 129.986 202.307 130.395 201.927C131.222 201.17 132.115 200.353 133.065 199.49C133.962 198.576 134.908 197.604 135.889 196.599C136.135 196.349 136.378 196.093 136.631 195.839C136.864 195.57 137.098 195.3 137.339 195.026C137.808 194.476 138.289 193.928 138.773 193.37C139.767 192.281 140.622 191.047 141.546 189.862L142.228 188.962L142.852 188.032C143.269 187.412 143.685 186.793 144.095 186.177C144.516 185.564 144.854 184.909 145.229 184.297C145.584 183.669 145.98 183.062 146.295 182.43C146.926 181.168 147.584 179.963 148.075 178.761C148.618 177.583 149.03 176.421 149.427 175.353C149.627 174.822 149.764 174.295 149.928 173.796C150.086 173.302 150.228 172.828 150.325 172.372C150.432 171.975 150.523 171.599 150.598 171.241L154.547 177.691C154.547 177.691 154.573 177.731 154.581 177.745C155.294 178.844 156.763 179.148 157.856 178.439C158.956 177.726 159.259 176.257 158.551 175.164L153.985 168.155C154.609 168.324 155.351 168.504 156.202 168.662C156.658 168.759 157.141 168.839 157.659 168.916C158.173 168.986 158.708 169.09 159.28 169.133C160.412 169.245 161.635 169.365 162.939 169.378C164.239 169.459 165.606 169.376 167.017 169.35C167.722 169.336 168.434 169.244 169.16 169.189C169.885 169.117 170.622 169.093 171.345 168.975C172.077 168.87 172.816 168.76 173.555 168.651L174.663 168.487L175.768 168.259C177.235 167.934 178.718 167.693 180.128 167.263C180.84 167.067 181.546 166.875 182.24 166.681C182.584 166.586 182.935 166.487 183.279 166.392C183.617 166.273 183.952 166.164 184.283 166.049C185.613 165.595 186.886 165.157 188.102 164.747C189.289 164.261 190.411 163.806 191.45 163.385C191.965 163.173 192.465 162.969 192.939 162.783C193.403 162.565 193.836 162.358 194.248 162.163C195.074 161.774 195.783 161.439 196.372 161.151C197.551 160.595 198.223 160.274 198.223 160.274C198.307 160.23 198.341 160.134 198.303 160.045C198.263 159.967 198.163 159.927 198.081 159.96L198.074 159.964C198.074 159.964 197.397 160.26 196.202 160.779C195.607 161.042 194.881 161.35 194.057 161.711C193.643 161.888 193.202 162.082 192.736 162.282C192.264 162.457 191.762 162.643 191.241 162.831C190.198 163.217 189.068 163.629 187.87 164.067C186.657 164.438 185.372 164.827 184.041 165.234C183.709 165.332 183.38 165.436 183.04 165.538C182.699 165.622 182.353 165.699 182.005 165.787C181.311 165.953 180.61 166.123 179.905 166.286C178.501 166.665 177.031 166.851 175.587 167.124L174.496 167.315L173.398 167.435C172.671 167.518 171.944 167.601 171.223 167.68C170.5 167.77 169.786 167.77 169.073 167.816C168.365 167.841 167.669 167.914 166.976 167.901C165.599 167.878 164.267 167.91 163.016 167.789C161.757 167.729 160.584 167.567 159.503 167.433C158.958 167.373 158.45 167.252 157.963 167.165C157.476 167.078 157.011 166.996 156.582 166.882C155.72 166.693 154.985 166.48 154.382 166.298C153.791 166.107 153.311 165.941 153.031 165.826C152.746 165.715 152.569 165.629 152.569 165.629C152.486 165.587 152.396 165.578 152.302 165.563L150.169 162.288C150.488 162.302 150.856 162.305 151.268 162.318C152.063 162.342 153.022 162.328 154.126 162.336C155.228 162.297 156.469 162.313 157.824 162.227C158.499 162.196 159.209 162.161 159.938 162.124C160.664 162.069 161.415 162.008 162.187 161.953C163.735 161.859 165.355 161.644 167.043 161.461C168.721 161.247 170.451 160.982 172.201 160.704C173.074 160.538 173.953 160.368 174.832 160.198L176.156 159.945L177.475 159.638C179.229 159.217 180.986 158.831 182.685 158.294C183.535 158.048 184.381 157.796 185.213 157.553C186.044 157.291 186.845 156.983 187.646 156.703C188.442 156.416 189.224 156.138 189.987 155.873C190.743 155.584 191.47 155.247 192.183 154.947C193.606 154.33 194.966 153.791 196.146 153.131C197.345 152.515 198.441 151.945 199.419 151.441C200.35 150.862 201.16 150.36 201.829 149.947C203.164 149.114 203.927 148.642 203.927 148.642C204.007 148.591 204.03 148.492 203.986 148.408C203.935 148.327 203.836 148.305 203.751 148.349L203.738 148.357C203.738 148.357 202.969 148.805 201.616 149.594C200.941 149.982 200.118 150.464 199.183 151.007C198.202 151.476 197.095 152.015 195.893 152.596C194.705 153.214 193.337 153.711 191.913 154.282C191.194 154.557 190.472 154.872 189.716 155.133C188.952 155.38 188.164 155.634 187.368 155.892C186.569 156.143 185.773 156.429 184.943 156.662C184.111 156.877 183.266 157.101 182.42 157.324C180.734 157.807 178.978 158.135 177.237 158.502L175.932 158.771L174.618 158.981C173.739 159.122 172.872 159.266 172 159.403C170.262 159.626 168.549 159.844 166.888 160.009C165.223 160.14 163.619 160.307 162.086 160.363C161.323 160.404 160.579 160.432 159.862 160.471C159.139 160.486 158.451 160.498 157.785 160.514C156.451 160.558 155.229 160.512 154.144 160.52C153.066 160.478 152.122 160.472 151.346 160.418C150.571 160.381 149.964 160.341 149.557 160.307C149.144 160.277 148.924 160.256 148.924 160.256L148.91 160.264C148.91 160.264 148.877 160.257 148.86 160.259L143.256 151.65C143.748 151.715 144.351 151.777 145.069 151.858C146.086 151.921 147.321 152.062 148.735 152.071C149.44 152.086 150.197 152.125 150.989 152.114C151.78 152.103 152.614 152.084 153.482 152.061C154.35 152.068 155.254 151.967 156.188 151.913C157.122 151.83 158.092 151.819 159.076 151.668C161.051 151.417 163.132 151.202 165.258 150.762C166.319 150.552 167.411 150.408 168.498 150.135C169.582 149.873 170.68 149.603 171.777 149.333C172.327 149.192 172.883 149.076 173.434 148.907C173.985 148.738 174.525 148.566 175.075 148.397C176.173 148.052 177.274 147.713 178.371 147.368C180.543 146.598 182.681 145.728 184.799 144.917C186.852 143.959 188.879 143.018 190.83 142.106C192.718 141.064 194.541 140.054 196.273 139.092C197.153 138.64 197.944 138.094 198.726 137.591C199.503 137.081 200.258 136.595 200.982 136.12C202.422 135.173 203.776 134.356 204.862 133.473C205.981 132.626 206.953 131.89 207.753 131.282C209.352 130.065 210.269 129.374 210.269 129.374C210.345 129.317 210.363 129.211 210.306 129.135C210.255 129.054 210.147 129.047 210.066 129.098L210.053 129.106C210.053 129.106 209.124 129.778 207.506 130.949C206.693 131.537 205.715 132.249 204.579 133.069C203.476 133.925 202.112 134.711 200.657 135.62C199.932 136.078 199.171 136.54 198.381 137.029C197.597 137.514 196.789 138.034 195.908 138.468C194.17 139.377 192.339 140.345 190.439 141.338C188.483 142.197 186.462 143.088 184.403 143.993C182.291 144.753 180.157 145.555 178.002 146.277C176.905 146.594 175.815 146.906 174.726 147.218C174.177 147.376 173.636 147.53 173.099 147.691C172.557 147.845 171.999 147.943 171.458 148.069C170.362 148.31 169.282 148.55 168.21 148.786C167.146 149.035 166.061 149.146 165.012 149.33C162.915 149.714 160.862 149.883 158.922 150.084C157.956 150.205 157.002 150.197 156.09 150.256C155.173 150.29 154.291 150.367 153.439 150.342C152.593 150.34 151.776 150.34 151.004 150.338C150.229 150.33 149.498 150.274 148.814 150.246C147.435 150.205 146.245 150.045 145.269 149.957C144.296 149.829 143.529 149.731 143.027 149.635C142.526 149.556 142.237 149.485 142.237 149.485C142.106 149.455 141.98 149.45 141.854 149.473L135.584 139.839C136.2 139.788 137.179 139.687 138.466 139.523C140.758 139.241 144.02 138.769 147.893 138.015C151.771 137.267 156.263 136.244 161.002 134.868C163.377 134.196 165.805 133.414 168.257 132.581C170.702 131.723 173.167 130.806 175.589 129.793C176.799 129.283 178.012 128.78 179.203 128.226C179.8 127.952 180.391 127.682 180.988 127.408C181.577 127.121 182.155 126.831 182.738 126.548C185.062 125.41 187.296 124.187 189.421 122.94C191.546 121.693 193.552 120.407 195.405 119.116C196.35 118.5 197.213 117.814 198.068 117.19C198.935 116.568 199.731 115.925 200.489 115.296C202.042 114.08 203.358 112.846 204.554 111.781C205.708 110.677 206.698 109.685 207.513 108.879C209.065 107.186 209.947 106.216 209.947 106.216C210.008 106.149 210.004 106.039 209.937 105.978C209.87 105.917 209.76 105.921 209.699 105.987L209.655 106.081Z" fill="#A2CD6E"/>
</svg>
