<svg width="40" height="40" viewBox="0 0 40 40" fill="none" xmlns="http://www.w3.org/2000/svg">
<path d="M37.2 0H2.8C1.2 0 0 1.2 0 2.8V37C0 38.8 1.2 40 2.8 40H37C38.6 40 39.8 38.8 39.8 37.2V2.8C40 1.2 38.8 0 37.2 0ZM12 34.2H6V15.2H12V34.2ZM9.2 12.6C7.2 12.6 5.8 11 5.8 9.2C5.8 7.4 7.4 5.8 9.2 5.8C11 5.8 12.6 7.4 12.6 9.2C12.6 11 11 12.6 9.2 12.6ZM34.4 34.2H28.4V25C28.4 22.8 28.4 20 25.4 20C22.4 20 21.8 22.4 21.8 25V34.4H15.8V15.2H21.4V17.8C22.2 16.2 24.2 14.8 27 14.8C33 14.8 34.2 18.8 34.2 23.8V34.2H34.4Z" fill="#F6FFEA"/>
</svg>
