<svg width="15" height="20" viewBox="0 0 15 20" fill="none" xmlns="http://www.w3.org/2000/svg">
<path d="M0.5 7.92285C0.5 12.7747 4.74448 16.7869 6.62319 18.3252C6.89206 18.5454 7.02811 18.6568 7.22871 18.7132C7.38491 18.7572 7.6148 18.7572 7.771 18.7132C7.97197 18.6567 8.10707 18.5463 8.37695 18.3254C10.2557 16.7871 14.4999 12.7751 14.4999 7.9233C14.4999 6.08718 13.7625 4.32605 12.4497 3.02772C11.137 1.72939 9.3566 1 7.50008 1C5.64357 1 3.86301 1.7295 2.55025 3.02783C1.2375 4.32616 0.5 6.08674 0.5 7.92285Z" stroke="#1C3625" stroke-linecap="round" stroke-linejoin="round"/>
<path d="M5.5 7C5.5 8.10457 6.39543 9 7.5 9C8.60457 9 9.5 8.10457 9.5 7C9.5 5.89543 8.60457 5 7.5 5C6.39543 5 5.5 5.89543 5.5 7Z" stroke="#1C3625" stroke-linecap="round" stroke-linejoin="round"/>
</svg>
