<?xml version="1.0" standalone="no"?>
<!DOCTYPE svg PUBLIC "-//W3C//DTD SVG 1.1//EN" "http://www.w3.org/Graphics/SVG/1.1/DTD/svg11.dtd">
<svg xmlns="http://www.w3.org/2000/svg" width="113" height="33" viewBox="0 0 113 33" fill="none"><g clip-path="url(#clip0_1211_3255)"><path d="M0 10.9746H5.73454L8.89382 22.9361H9.16668L12.9498 10.9746H18.2153L22.0384 22.9361H22.3112L25.4322 10.9746H31.0885L24.9646 30.0668H19.4646L15.6416 18.0272H15.3687L11.5457 30.0668H6.12389L0 10.9746Z" fill="white"/><path d="M75.1098 15.3407H71.7559V10.9769H75.1098V5.13086L80.2189 5.13086V10.9754L84.9004 10.9754V15.3392H80.2189V22.9675C80.2189 23.4223 80.2649 23.8449 80.3554 24.2323C80.4458 24.6212 80.6221 24.9489 80.8827 25.2153C81.246 25.644 81.7656 25.8584 82.4432 25.8584C82.8846 25.8584 83.2357 25.8124 83.4963 25.7221C83.7553 25.6318 84.0037 25.5077 84.2367 25.3516L85.6791 29.8318C85.0813 30.1166 84.4375 30.3309 83.7477 30.4749C83.0579 30.6173 82.2975 30.6892 81.4652 30.6892C80.5025 30.6892 79.638 30.5361 78.8715 30.2314C78.1036 29.9267 77.4597 29.5087 76.9401 28.9789C75.7168 27.7861 75.1068 26.0896 75.1068 23.8878V15.3377L75.1098 15.3407Z" fill="white"/><path d="M89.767 8.40362C89.3255 8.40362 88.9025 8.3194 88.4993 8.15097C88.0962 7.98254 87.7451 7.74827 87.4462 7.4497C87.1473 7.15112 86.9128 6.8066 86.7441 6.41768C86.574 6.02877 86.4912 5.60004 86.4912 5.1315C86.4912 4.66296 86.5755 4.23576 86.7441 3.84531C86.9128 3.45486 87.1473 3.11188 87.4462 2.8133C87.7451 2.51472 88.0962 2.28045 88.4993 2.11202C88.9025 1.94359 89.3255 1.85938 89.767 1.85938C90.6775 1.85938 91.4562 2.17786 92.1077 2.8133C92.7577 3.45027 93.0826 4.22198 93.0826 5.1315C93.0826 6.04101 92.7577 6.81426 92.1077 7.4497C91.4578 8.08666 90.6775 8.40515 89.767 8.40515V8.40362ZM87.2316 30.0667V10.9745H92.3407V30.0667H87.2316Z" fill="white"/><path d="M112.999 25.1967C112.167 26.8075 111.007 28.1259 109.512 29.1518C108.016 30.1776 106.151 30.6906 103.914 30.6906C102.432 30.6906 101.072 30.4379 99.8381 29.9311C98.6026 29.4243 97.5372 28.7169 96.639 27.8074C95.7422 26.8994 95.0402 25.8276 94.5328 24.5934C94.0254 23.3593 93.7725 22.0027 93.7725 20.522C93.7725 19.0414 94.0254 17.6771 94.5328 16.4308C95.0402 15.1844 95.7422 14.1126 96.639 13.2168C97.5357 12.3211 98.6026 11.6198 99.8381 11.113C101.074 10.6062 102.432 10.3535 103.914 10.3535C106.124 10.3535 107.984 10.8603 109.492 11.8724C111.001 12.8861 112.297 14.2672 112.999 15.878L108.128 17.7567C107.685 16.8748 107.119 16.2057 106.431 15.7509C105.741 15.2961 104.877 15.0695 103.837 15.0695C103.161 15.0695 102.524 15.1997 101.926 15.4585C101.328 15.7188 100.801 16.0816 100.345 16.5502C99.8902 17.0172 99.5331 17.5898 99.2725 18.2651C99.0119 18.9403 98.8816 19.6937 98.8816 20.5251C98.8816 21.3565 99.0119 22.1099 99.2725 22.7851C99.5315 23.4604 99.8902 24.0315 100.345 24.5C100.801 24.9671 101.327 25.3315 101.926 25.5918C102.524 25.8521 103.161 25.9807 103.837 25.9807C104.903 25.9807 105.807 25.7403 106.549 25.2595C107.289 24.7787 107.881 24.0851 108.324 23.1756L113.001 25.2013L112.999 25.1967Z" fill="white"/><path d="M40.2891 10.5059C41.7714 10.5059 43.1295 10.7585 44.365 11.2653C45.599 11.7721 46.6659 12.4734 47.5642 13.3692C48.4609 14.2649 49.163 15.3367 49.6703 16.5831C50.1777 17.8295 50.4307 19.1937 50.4307 20.6744C50.4307 22.155 50.1777 23.5193 49.6703 24.7657C49.163 26.0121 48.4609 27.0839 47.5642 27.9796C46.6674 28.8754 45.6005 29.5766 44.365 30.0835C43.1295 30.5903 41.7714 30.8429 40.2891 30.8429C38.8068 30.8429 37.4471 30.5903 36.2131 30.0835C34.9776 29.5766 33.9122 28.8754 33.014 27.9796C32.1172 27.0839 31.4152 26.0121 30.9078 24.7657C30.4004 23.5193 30.1475 22.155 30.1475 20.6744C30.1475 19.1937 30.4004 17.8295 30.9078 16.5831C31.4152 15.3367 32.1172 14.2649 33.014 13.3692C33.9107 12.4734 34.9776 11.7721 36.2131 11.2653C37.4486 10.7585 38.8068 10.5059 40.2891 10.5059ZM40.2891 26.13C40.939 26.13 41.569 26.0075 42.1806 25.7594C42.7907 25.5129 43.3318 25.1561 43.7994 24.6876C44.2669 24.2206 44.6379 23.6495 44.9107 22.9727C45.1836 22.2974 45.32 21.5303 45.32 20.6744C45.32 19.8185 45.1836 19.0513 44.9107 18.3761C44.6379 17.7009 44.2669 17.1297 43.7994 16.6612C43.3318 16.1942 42.7907 15.8374 42.1806 15.5894C41.569 15.3428 40.939 15.2188 40.2891 15.2188C39.6391 15.2188 38.9754 15.3428 38.3775 15.5894C37.7797 15.8374 37.2463 16.1926 36.7787 16.6612C36.3112 17.1282 35.9402 17.7009 35.6674 18.3761C35.3945 19.0513 35.2581 19.8185 35.2581 20.6744C35.2581 21.5303 35.3945 22.2974 35.6674 22.9727C35.9402 23.6479 36.3112 24.2191 36.7787 24.6876C37.2463 25.1546 37.7797 25.5129 38.3775 25.7594C38.9754 26.0059 39.6131 26.13 40.2891 26.13Z" fill="white"/><path d="M61.3682 10.5059C62.8505 10.5059 64.2086 10.7585 65.4441 11.2653C66.6781 11.7721 67.745 12.4734 68.6432 13.3692C69.54 14.2649 70.2421 15.3367 70.7494 16.5831C71.2568 17.8295 71.5098 19.1937 71.5098 20.6744C71.5098 22.155 71.2568 23.5193 70.7494 24.7657C70.2421 26.0121 69.54 27.0839 68.6432 27.9796C67.7465 28.8754 66.6796 29.5766 65.4441 30.0835C64.2086 30.5903 62.8505 30.8429 61.3682 30.8429C59.8859 30.8429 58.5262 30.5903 57.2922 30.0835C56.0567 29.5766 54.9913 28.8754 54.0931 27.9796C53.1963 27.0839 52.4943 26.0121 51.9869 24.7657C51.4795 23.5193 51.2266 22.155 51.2266 20.6744C51.2266 19.1937 51.4795 17.8295 51.9869 16.5831C52.4943 15.3367 53.1963 14.2649 54.0931 13.3692C54.9898 12.4734 56.0567 11.7721 57.2922 11.2653C58.5262 10.7585 59.8859 10.5059 61.3682 10.5059ZM61.3682 26.13C62.0181 26.13 62.6481 26.0075 63.2597 25.7594C63.8698 25.5129 64.4109 25.1561 64.8785 24.6876C65.346 24.2206 65.717 23.6495 65.9898 22.9727C66.2627 22.2974 66.3991 21.5303 66.3991 20.6744C66.3991 19.8185 66.2627 19.0513 65.9898 18.3761C65.717 17.7009 65.346 17.1297 64.8785 16.6612C64.4109 16.1942 63.8698 15.8374 63.2597 15.5894C62.6481 15.3428 62.0181 15.2188 61.3682 15.2188C60.7182 15.2188 60.0545 15.3428 59.4566 15.5894C58.8588 15.8374 58.3254 16.1926 57.8578 16.6612C57.3903 17.1282 57.0194 17.7009 56.7465 18.3761C56.4736 19.0513 56.3372 19.8185 56.3372 20.6744C56.3372 21.5303 56.4736 22.2974 56.7465 22.9727C57.0194 23.6479 57.3903 24.2191 57.8578 24.6876C58.3254 25.1546 58.8588 25.5129 59.4566 25.7594C60.0545 26.0059 60.6922 26.13 61.3682 26.13Z" fill="white"/><path d="M50.8247 11.1222H50.3235C50.2024 10.2953 49.974 9.60785 49.6398 9.05663C49.3516 8.58196 48.9715 8.24511 48.5009 8.04758C48.0303 7.84853 47.3696 7.749 46.5173 7.749L44.2149 7.77197L40.5237 7.84088C38.1539 7.84088 36.4754 7.6801 35.4866 7.35856C34.6052 7.06763 33.9062 6.62818 33.3896 6.04021C32.8731 5.45071 32.5389 4.70656 32.3871 3.80623C32.2507 3.0927 32.1817 2.41592 32.1817 1.77742L32.1587 0.843405L32.1357 0.501953L32.775 0.501953C32.8209 1.15576 32.9053 1.6534 33.0264 1.99485C33.1474 2.3363 33.3529 2.67469 33.641 3.00849C33.9905 3.41884 34.386 3.72661 34.826 3.93179C35.2674 4.13696 35.8285 4.27017 36.5121 4.33142C36.9981 4.37736 38.0251 4.40032 39.5902 4.40032L43.8072 4.37736C45.57 4.37736 46.7779 4.44932 47.4324 4.59478C48.0855 4.74025 48.6863 5.06486 49.2336 5.57014C49.8728 6.1673 50.2821 6.97729 50.4645 8.00165H50.6561C50.7787 7.1151 51.1436 6.36482 51.7521 5.75388C52.2089 5.27922 52.7608 4.9393 53.4076 4.73259C54.0545 4.52588 54.8808 4.42329 55.8848 4.42329L58.2592 4.40032H63.0756C64.7648 4.40032 65.9666 4.32836 66.6825 4.1829C67.3968 4.03897 67.9992 3.74651 68.4867 3.30553C68.8668 2.97174 69.1627 2.55373 69.3773 2.0515C69.5904 1.55081 69.6961 1.03327 69.6961 0.501953L70.3124 0.501953L70.2894 1.00265C70.2894 2.64407 70.1146 3.93638 69.7651 4.88111C69.3696 5.90547 68.666 6.6634 67.6543 7.15338C66.6426 7.64335 65.2768 7.88681 63.5584 7.88681L61.0936 7.86384L57.3058 7.79494L54.614 7.72604C53.3969 7.72604 52.5002 7.98327 51.9207 8.49469C51.3428 9.00763 50.978 9.88346 50.8247 11.1222Z" fill="white"/></g><defs><clipPath id="clip0_1211_3255"><rect width="113" height="32" fill="white" transform="translate(0 0.5)"/></clipPath></defs></svg>