<?xml version="1.0" encoding="UTF-8"?>
<svg xmlns="http://www.w3.org/2000/svg" version="1.1" viewBox="0 0 428.5 102.1">
  <defs>
    <style>
      .cls-1 {
        fill: #fff;
      }
    </style>
  </defs>
  <!-- Generator: Adobe Illustrator 28.7.5, SVG Export Plug-In . SVG Version: 1.2.0 Build 176)  -->
  <g>
    <g id="Layer_1">
      <path class="cls-1" d="M293.1,83.3c.8,0,1.6.1,2.5.1h2.5c2.3,0,4.2-.6,5.8-1.7,1.6-1.1,2.4-3.5,2.4-7V26.8h14.3v46.9c0,4.6-.6,8.4-1.7,11.3-1.1,3-2.7,5.3-4.6,7-1.9,1.7-4.1,2.9-6.6,3.6-2.5.7-5.1,1-7.8,1h-3.5c-1,0-2.2,0-3.4-.3v-13h0Z"/>
      <path class="cls-1" d="M311,10.9c0,2.8-2.2,5-5,5s-5-2.2-5-5,2.2-5,5-5,5,2.2,5,5"/>
      <path class="cls-1" d="M325.5,10.9c0,2.8-2.2,5-5,5s-5-2.2-5-5,2.2-5,5-5,5,2.2,5,5"/>
      <polygon class="cls-1" points="23.5 66.9 5.4 5.9 20.4 5.9 31.3 47.5 42.3 5.9 56 5.9 37.9 66.9 37.9 97.1 23.5 97.1 23.5 66.9"/>
      <polygon class="cls-1" points="177.2 70.7 187 5.9 206.9 5.9 206.9 97.1 193.3 97.1 193.3 31.7 183.4 97.1 169.9 97.1 159.2 32.6 159.2 97.1 146.7 97.1 146.7 5.9 166.6 5.9 177.2 70.7"/>
      <path class="cls-1" d="M244,68.2h13.8l-6.9-46.1-6.9,46.1h0ZM276.7,97.1h-14.5l-2.5-16.5h-17.6l-2.5,16.5h-13.2l14.6-91.2h21l14.6,91.2Z"/>
      <path class="cls-1" d="M354.1,68.2h13.8l-6.9-46.1-6.9,46.1h0ZM386.8,97.1h-14.5l-2.5-16.5h-17.6l-2.5,16.5h-13.2l14.6-91.2h21l14.6,91.2h0Z"/>
      <rect class="cls-1" x="409.3" y="5.9" width="14.3" height="91.2"/>
      <rect class="cls-1" x="81.4" y="86.2" width="37.5" height="10.4"/>
      <path class="cls-1" d="M93.1,6.4v48.8c0,3.3.7,5.6,2,6.9,1.3,1.3,3.1,2,5.4,2s4.1-.7,5.4-2c1.3-1.3,2-3.6,2-6.9V6.4h13.6v47.8c0,7.4-1.8,13.1-5.4,17-3.6,4-8.9,5.9-16,5.9s-12.4-2-16-5.9c-3.6-3.9-5.4-9.6-5.4-17V6.4s14.3,0,14.3,0Z"/>
    </g>
  </g>
</svg>