<?xml version="1.0" encoding="UTF-8"?>
<svg id="Layer_1" xmlns="http://www.w3.org/2000/svg" version="1.1" viewBox="0 0 428.474 102.137">
  <!-- Generator: Adobe Illustrator 29.4.0, SVG Export Plug-In . SVG Version: 2.1.0 Build 152)  -->
  <path d="M293.11,83.348c.777.089,1.607.132,2.475.132h2.475c2.262,0,4.191-.564,5.799-1.691,1.606-1.132,2.41-3.478,2.41-7.037V26.775h14.332v46.931c0,4.604-.566,8.383-1.692,11.339-1.132,2.954-2.653,5.275-4.562,6.967-1.913,1.692-4.107,2.893-6.576,3.584-2.479.697-5.06,1.042-7.755,1.042h-3.522c-1.036,0-2.172-.084-3.384-.26v-13.03Z" fill="#fff"/>
  <path d="M311.039,10.917c0,2.764-2.244,5.006-5.009,5.006s-5.004-2.243-5.004-5.006,2.24-5.008,5.004-5.008,5.009,2.243,5.009,5.008" fill="#fff"/>
  <path d="M325.481,10.917c0,2.764-2.24,5.006-5.004,5.006s-5.004-2.243-5.004-5.006,2.235-5.008,5.004-5.008,5.004,2.243,5.004,5.008" fill="#fff"/>
  <polygon points="23.526 66.903 5.417 5.926 20.402 5.926 31.347 47.493 42.291 5.926 55.97 5.926 37.86 66.903 37.86 97.136 23.526 97.136 23.526 66.903" fill="#fff"/>
  <polygon points="177.187 70.684 186.96 5.926 206.896 5.926 206.896 97.136 193.342 97.136 193.342 31.724 183.442 97.136 169.891 97.136 159.202 32.637 159.202 97.136 146.695 97.136 146.695 5.926 166.63 5.926 177.187 70.684" fill="#fff"/>
  <path d="M244.031,68.213h13.81l-6.905-46.134-6.904,46.134ZM276.734,97.136h-14.465l-2.474-16.546h-17.589l-2.477,16.546h-13.159l14.59-91.212h20.982l14.592,91.212Z" fill="#fff"/>
  <path d="M354.077,68.213h13.81l-6.905-46.134-6.904,46.134ZM386.78,97.136h-14.46l-2.478-16.546h-17.59l-2.478,16.546h-13.158l14.592-91.212h20.98l14.592,91.212Z" fill="#fff"/>
  <rect x="409.254" y="5.924" width="14.331" height="91.212" fill="#fff"/>
  <rect x="81.385" y="86.192" width="37.5" height="10.434" fill="#fff"/>
  <path d="M93.096,6.434v48.753c0,3.301.672,5.605,2.022,6.907,1.344,1.301,3.147,1.951,5.406,1.951s4.062-.65,5.408-1.951c1.345-1.302,2.019-3.606,2.019-6.907V6.434h13.554v47.84c0,7.382-1.806,13.054-5.408,17.003-3.609,3.954-8.93,5.932-15.964,5.932s-12.355-1.978-15.961-5.932c-3.605-3.949-5.408-9.621-5.408-17.003V6.434h14.332Z" fill="#fff"/>
  <rect x="5.415" y="5.911" width="418.17" height="91.225" fill="#fff"/>
  <rect x="5.415" y="5.911" width="418.17" height="91.225" fill="#fff"/>
</svg>